<svg width="18" height="19" viewBox="0 0 18 19" fill="none" xmlns="http://www.w3.org/2000/svg">
<path d="M9 17C4.85775 17 1.5 13.6423 1.5 9.5C1.5 5.35775 4.85775 2 9 2C13.1423 2 16.5 5.35775 16.5 9.5C16.5 13.6423 13.1423 17 9 17ZM5.25975 14.192C6.32141 15.0408 7.64076 15.5022 9 15.5C10.4775 15.5 11.8298 14.966 12.8752 14.081C12.3868 13.5798 11.8028 13.1817 11.1578 12.9101C10.5128 12.6385 9.81984 12.4991 9.12 12.5C8.39444 12.4992 7.67663 12.6491 7.0121 12.9404C6.34757 13.2317 5.75084 13.6579 5.25975 14.192ZM4.212 13.115C4.84234 12.4461 5.603 11.9133 6.4471 11.5495C7.29121 11.1858 8.20086 10.9988 9.12 11C10.0062 10.9988 10.884 11.1728 11.7028 11.5118C12.5216 11.8508 13.2654 12.3482 13.8915 12.9755C14.5336 12.0718 14.9127 11.008 14.9869 9.90193C15.0611 8.79589 14.8275 7.69091 14.3119 6.70959C13.7963 5.72827 13.0189 4.90897 12.066 4.34258C11.1131 3.7762 10.0219 3.48488 8.91345 3.50094C7.80504 3.517 6.72274 3.83981 5.78664 4.43357C4.85053 5.02732 4.09722 5.8688 3.61027 6.86465C3.12332 7.8605 2.92177 8.97178 3.02799 10.0752C3.1342 11.1786 3.54403 12.2311 4.212 13.1157V13.115ZM9 10.25C8.20435 10.25 7.44129 9.93393 6.87868 9.37132C6.31607 8.80871 6 8.04565 6 7.25C6 6.45435 6.31607 5.69129 6.87868 5.12868C7.44129 4.56607 8.20435 4.25 9 4.25C9.79565 4.25 10.5587 4.56607 11.1213 5.12868C11.6839 5.69129 12 6.45435 12 7.25C12 8.04565 11.6839 8.80871 11.1213 9.37132C10.5587 9.93393 9.79565 10.25 9 10.25ZM9 8.75C9.39782 8.75 9.77936 8.59196 10.0607 8.31066C10.342 8.02936 10.5 7.64782 10.5 7.25C10.5 6.85218 10.342 6.47064 10.0607 6.18934C9.77936 5.90804 9.39782 5.75 9 5.75C8.60218 5.75 8.22064 5.90804 7.93934 6.18934C7.65804 6.47064 7.5 6.85218 7.5 7.25C7.5 7.64782 7.65804 8.02936 7.93934 8.31066C8.22064 8.59196 8.60218 8.75 9 8.75Z" fill="black"/>
</svg>
