<svg width="18" height="19" viewBox="0 0 18 19" fill="none" xmlns="http://www.w3.org/2000/svg">
<path d="M1.5 17C1.5 15.4087 2.13214 13.8826 3.25736 12.7574C4.38258 11.6321 5.9087 11 7.5 11C9.0913 11 10.6174 11.6321 11.7426 12.7574C12.8679 13.8826 13.5 15.4087 13.5 17H12C12 15.8065 11.5259 14.6619 10.682 13.818C9.83807 12.9741 8.69347 12.5 7.5 12.5C6.30653 12.5 5.16193 12.9741 4.31802 13.818C3.47411 14.6619 3 15.8065 3 17H1.5ZM7.5 10.25C5.01375 10.25 3 8.23625 3 5.75C3 3.26375 5.01375 1.25 7.5 1.25C9.98625 1.25 12 3.26375 12 5.75C12 8.23625 9.98625 10.25 7.5 10.25ZM7.5 8.75C9.1575 8.75 10.5 7.4075 10.5 5.75C10.5 4.0925 9.1575 2.75 7.5 2.75C5.8425 2.75 4.5 4.0925 4.5 5.75C4.5 7.4075 5.8425 8.75 7.5 8.75ZM13.713 11.5273C14.767 12.0019 15.6615 12.7709 16.2889 13.7418C16.9164 14.7126 17.2501 15.844 17.25 17H15.75C15.7502 16.133 15.4999 15.2844 15.0293 14.5562C14.5587 13.828 13.8878 13.2512 13.0972 12.8953L13.7123 11.5273H13.713ZM13.197 3.05975C13.9526 3.37122 14.5987 3.90015 15.0533 4.57942C15.5078 5.25869 15.7503 6.05768 15.75 6.875C15.7503 7.90425 15.3658 8.89642 14.6719 9.65662C13.978 10.4168 13.025 10.8901 12 10.9835V9.47375C12.5557 9.39416 13.0713 9.13851 13.471 8.74434C13.8707 8.35017 14.1335 7.83824 14.2209 7.2837C14.3082 6.72916 14.2155 6.16122 13.9563 5.66327C13.6971 5.16531 13.2851 4.76356 12.7808 4.517L13.197 3.05975Z" fill="#000638"/>
</svg>
