<svg width="18" height="19" viewBox="0 0 18 19" fill="none" xmlns="http://www.w3.org/2000/svg">
<path d="M15.75 14.75H17.25V16.25H0.75V14.75H2.25V3.5C2.25 3.30109 2.32902 3.11032 2.46967 2.96967C2.61032 2.82902 2.80109 2.75 3 2.75H10.5C10.6989 2.75 10.8897 2.82902 11.0303 2.96967C11.171 3.11032 11.25 3.30109 11.25 3.5V14.75H14.25V8.75H12.75V7.25H15C15.1989 7.25 15.3897 7.32902 15.5303 7.46967C15.671 7.61032 15.75 7.80109 15.75 8V14.75ZM3.75 4.25V14.75H9.75V4.25H3.75ZM5.25 8.75H8.25V10.25H5.25V8.75ZM5.25 5.75H8.25V7.25H5.25V5.75Z" fill="#000638"/>
</svg>
