<svg width="80" height="80" viewBox="0 0 80 80" fill="none" xmlns="http://www.w3.org/2000/svg">
<path d="M70.3997 41.2454C68.825 41.2454 67.5485 42.5219 67.5485 44.0966C67.5485 45.6714 68.825 46.9479 70.3997 46.9479C71.9745 46.9479 73.251 45.6714 73.251 44.0966C73.251 42.5219 71.9745 41.2454 70.3997 41.2454Z" fill="#000638"/>
<ellipse cx="55.2" cy="23.2" rx="20" ry="20" fill="#FE5455"/>
<path d="M9.58382 25.7829C9.86502 25.2299 10.486 24.9494 11.078 25.0894L11.2139 25.1292L21.4074 28.7071C21.8971 28.879 22.2383 29.3172 22.2918 29.8251L22.2991 29.9652L22.2987 32.5503L22.4051 32.5479C24.1959 32.4827 25.4701 32.2908 26.1846 32.0014L26.3724 31.9168L30.6076 29.7274L31.3984 29.3296L32.4005 28.8389L33.0166 28.5473L33.5923 28.284L34.1291 28.0495L34.6279 27.8437L35.0902 27.6669C35.9048 27.3693 36.5408 27.2184 37.0319 27.2184C38.9774 27.2184 40.1252 28.5039 40.1252 30.5228C40.1252 31.1327 39.7113 31.6649 39.1201 31.8151L38.7624 31.9078L38.0814 32.0958C35.3396 32.8848 33.7958 33.7428 33.4775 34.452C33.124 35.2395 32.4754 36.0019 31.3939 37.0278L30.704 37.6665L29.2666 38.9738L29.0069 39.2216L28.8552 39.3748L28.7067 39.5298C28.5283 39.7172 28.391 39.8773 28.296 40.0065L28.2327 40.0975C28.2229 40.1126 28.2171 40.1207 28.2138 40.1198L28.2167 40.3392C28.2291 40.6948 28.2593 41.0756 28.3024 41.4298L28.3611 41.8454L28.3797 41.9562L28.604 42.0183C29.1935 42.17 29.7672 42.2586 30.2754 42.2573C30.8153 42.256 31.2146 42.1525 31.4528 41.9709C31.6601 41.8129 31.9102 41.5966 32.1956 41.3309L32.5544 40.9888L32.9441 40.6026L33.5804 39.9477L34.0347 39.4657L34.2698 39.2122C34.5541 38.9042 34.8359 38.5937 35.1094 38.288L36.0202 37.2528C36.2709 36.9608 36.6337 36.7932 37.014 36.7881L37.8543 36.8463C38.393 36.8801 38.9314 36.9001 39.4274 36.8994L39.7671 36.8943L40.0785 36.8822L40.581 36.8484L40.902 36.8178C41.0927 36.6816 41.2162 36.4796 41.2768 36.1451L41.2989 35.9935C41.4834 34.3769 43.8049 34.4581 43.9499 35.9917L43.9569 36.1447L43.9563 37.2863L47.4818 40.2805C48.0056 40.7255 48.1001 41.4881 47.7228 42.0441L47.6347 42.1599C47.1897 42.6837 46.4271 42.7783 45.8711 42.4009L45.7553 42.3128L42.0864 39.1956L42.0294 39.2239C41.4665 39.4664 40.7221 39.5504 39.7131 39.564L39.4313 39.566C39.0581 39.5666 38.6702 39.557 38.2779 39.5395L37.5968 39.5018L37.5124 39.5983C37.2402 39.9068 36.9567 40.2239 36.6672 40.5426L36.2292 41.0211L35.6887 41.6002C35.6008 41.6933 35.5141 41.7846 35.4285 41.874L34.9292 42.3885C34.202 43.126 33.574 43.7069 33.0694 44.0916C32.3041 44.675 31.3542 44.9214 30.2819 44.924C29.6446 44.9256 28.9922 44.8415 28.3347 44.6956L27.8618 44.5803L26.9688 44.3091C26.1204 44.0563 25.7509 43.0764 25.6135 41.6844L25.5775 41.2315C25.5727 41.1539 25.5685 41.0752 25.5648 40.9955L25.5487 40.5056L25.5445 39.892L25.5513 39.6999C25.5771 39.268 25.6796 38.9391 26.0109 38.5029L26.1674 38.3088C26.1959 38.2751 26.2258 38.2408 26.257 38.2056L26.4604 37.9849L26.6986 37.7418L26.9741 37.4727L27.2896 37.1739L27.8437 36.662L29.3209 35.3163L29.714 34.9438C29.7754 34.8844 29.8346 34.8264 29.8918 34.7697L30.2103 34.4452C30.602 34.0335 30.863 33.7048 30.9994 33.4514L31.0447 33.3599C31.2603 32.8797 31.5933 32.4369 32.0445 32.0257L32.144 31.938L31.6916 32.1681L27.9354 34.114L27.4421 34.3613C26.3295 34.8819 24.6084 35.1551 22.2174 35.2225L21.3955 35.2374C21.2544 35.2387 21.1111 35.2393 20.9658 35.2393C20.2755 35.2393 19.7076 34.7146 19.6394 34.0423L19.6325 33.9059L19.632 30.9098L11.4315 28.0308L10.3643 30.1312C10.0528 30.7438 9.33278 31.0125 8.7045 30.7742L8.57145 30.7153C7.95882 30.4038 7.69016 29.6838 7.92844 29.0555L7.98731 28.9225L9.58382 25.7829Z" fill="#000638"/>
<path d="M68.3595 22.0993C68.989 21.8688 69.6833 22.1424 69.9929 22.7209L70.0532 22.8494L74.1651 32.9691C74.4423 33.6513 74.1139 34.4291 73.4317 34.7063C72.7921 34.9661 72.0686 34.6938 71.7522 34.0966L71.6945 33.9729L68.0663 25.0452L59.7964 28.0746L59.7683 28.435L59.7547 28.8189L59.7578 28.904L59.7603 28.9172L59.8953 29.1697L60.1799 29.6686L60.5616 30.309C60.6093 30.3878 60.6588 30.4693 60.7101 30.5532C61.3979 31.6799 60.2128 32.9844 59.0501 32.4757L58.934 32.4187L57.0796 31.4079L39.5349 31.4088C38.8446 31.4088 38.2768 30.8842 38.2085 30.2118L38.2016 30.0755C38.2016 29.3852 38.7263 28.8173 39.3986 28.7491L39.5349 28.7422L57.0978 28.7412L57.0975 28.721C57.0921 28.2871 57.1334 27.7861 57.2129 27.2028L57.2557 26.9043C57.321 26.4705 57.5946 26.0998 57.9824 25.9078L58.1157 25.8506L68.3595 22.0993Z" fill="#000638"/>
<path d="M6.56884 38.3204C7.244 38.6144 7.55304 39.4 7.25909 40.0751L6.55553 41.7136L5.95948 43.1461L5.65473 43.9012L5.23708 44.9766L5.1022 45.3403L4.98599 45.6647L4.84714 46.0757L4.77849 46.2982L4.72921 46.4785L4.6995 46.6157C4.69619 46.6349 4.6937 46.6523 4.69204 46.6679L4.68955 46.709C4.68955 46.9219 4.67442 47.0809 4.63253 47.2945L4.56869 47.5841L4.48035 47.9533L4.4537 48.0847L4.43666 48.2037L4.46101 48.2282C4.57191 48.3265 4.80751 48.4535 5.19851 48.5874L5.37569 48.6452C5.66246 48.7343 5.96191 48.8211 6.27488 48.9061L6.89835 49.0682L7.65665 49.2431L9.41888 49.6226L11.8295 50.1362L12.4818 50.2869L12.6211 50.325C13.0382 50.4547 13.7013 50.1036 14.1776 49.3968L14.3205 49.1643L14.4829 48.8666L14.7708 48.3065L15.2443 47.3456L16.1171 45.5185L16.5717 44.5501L17.2897 42.9916L18.0857 41.2853C18.8208 39.7155 21.1234 40.7343 20.5601 42.275L20.5081 42.401L20.5028 42.4085L19.5641 44.4455L19.2052 45.2419L18.7299 46.3218L18.4552 46.9651L18.2142 47.5469L18.0156 48.0448L17.8549 48.4676C17.8306 48.5333 17.8076 48.5965 17.7859 48.6573L17.6712 48.9921L17.5874 49.2659L17.5577 49.3738L17.5782 49.4875C17.6057 49.7138 17.5755 49.9488 17.4812 50.1695L17.4169 50.3C17.2005 50.6852 16.8213 50.9214 16.4139 50.9709L16.3265 50.9779C15.291 52.4529 13.6433 53.3212 12.0306 52.9272L11.7788 52.8572L11.1914 52.7237L7.69723 51.983L6.59747 51.7377L6.09503 51.6162C5.5627 51.4803 5.06048 51.3397 4.58432 51.1917C2.58072 50.5691 1.65139 49.4718 1.78436 47.9484C1.80282 47.7369 1.83235 47.5673 1.88855 47.324L1.98352 46.9272L2.01779 46.7608L2.02289 46.709C2.02289 46.5932 2.03583 46.4568 2.06199 46.2987L2.11117 46.0452C2.12102 46.0002 2.13172 45.9538 2.14325 45.906L2.22251 45.602L2.32209 45.2634L2.44217 44.8893L2.58295 44.4789L2.74463 44.0313L3.13148 43.0211L3.35704 42.4569L3.87342 41.206L4.47813 39.7861L4.8141 39.0107C5.10805 38.3355 5.89367 38.0265 6.56884 38.3204Z" fill="#000638"/>
<path d="M60.5302 45.7866L60.5117 45.9985C60.4737 46.3347 60.4124 46.6707 60.3277 47.0062C59.9471 48.5148 59.2576 49.4477 57.9834 49.8948L57.7707 49.9626C57.7711 50.0205 57.7741 50.0777 57.7806 50.1426L57.812 50.3687L57.865 50.6589C58.1899 52.3456 58.0233 53.3191 56.6221 54.2379C55.1208 55.2224 53.8903 55.7563 52.8085 55.6072L52.6571 55.5807L52.6079 55.7498C52.4256 56.3249 52.1878 56.8575 51.8936 57.3455L51.7102 57.6329C50.9362 58.7814 49.9666 59.1245 48.7442 58.8276L48.6806 58.8095L48.6791 58.8214C48.5543 59.5104 48.1577 60.1229 47.5023 60.5932L47.3331 60.7078C46.4091 61.298 45.5664 61.5348 44.6646 61.4386L44.576 61.4261L44.5576 61.5C44.2891 62.4371 43.4004 63.1154 42.2201 63.6256L41.9803 63.7254C41.4874 63.923 40.9929 64.0657 40.5803 64.1226C40.2869 64.1631 40.0211 64.1659 39.7533 64.1055C39.2487 63.9915 38.8014 63.6543 38.6427 63.1193L38.6368 63.0954L38.5176 62.9516L38.295 62.7051L38.0059 62.4046L37.7073 62.1068L37.3553 61.7659L36.9577 61.3897L36.2758 60.7597L35.4919 60.0511L34.6062 59.2643C34.0538 58.7773 34.0009 57.9347 34.4879 57.3824C34.975 56.8301 35.8175 56.7772 36.3699 57.2642L37.9542 58.6734L38.6098 59.2699L39.1805 59.8025L39.516 60.1251L39.8171 60.4238L40.0852 60.7005L40.3217 60.957C40.3585 60.9982 40.3941 61.0386 40.4284 61.0783L40.6199 61.3078L40.6656 61.3663L40.8369 61.3082L40.9879 61.2503C41.255 61.1432 41.5075 61.0175 41.7106 60.8912L41.7504 60.8639L41.6687 60.7599C41.5974 60.672 41.5159 60.5769 41.4245 60.4749L41.1205 60.149L40.944 59.969L40.5505 59.5846L40.1033 59.1678L39.6024 58.7188L39.0482 58.2378L38.3659 57.6629L37.6967 57.1212L37.0511 56.5922C35.6887 55.4702 37.3526 53.4195 38.7312 54.5214L39.4942 55.1357L40.2518 55.7567L41.3158 56.5953L42.0564 57.1599L42.4946 57.4834L42.8878 57.7642L43.2356 58.0022L43.5376 58.197C43.584 58.2258 43.6286 58.2529 43.6712 58.2781L43.8918 58.4016C44.8031 58.8763 45.1429 58.9108 45.7606 58.545L45.8976 58.4605C46.0102 58.3885 46.0614 58.3598 46.065 58.3038L46.0576 58.2517L40.9664 52.9142C39.78 51.6705 41.5493 49.8939 42.7861 50.9689L42.8802 51.0573L43.7422 51.9198L44.2832 52.4486L44.7971 52.9404C44.8805 53.0192 44.9628 53.0966 45.0438 53.1723L45.5166 53.6082L45.9617 54.0067L46.3788 54.3677C46.446 54.4247 46.512 54.4802 46.5768 54.5341L46.9516 54.8386L47.2978 55.1053C47.5191 55.2705 47.7213 55.4103 47.904 55.5248C48.5872 55.9528 49.06 56.1735 49.3386 56.2286L49.4385 56.2445L49.4665 56.1936L49.4989 56.1426C49.7222 55.8113 49.9049 55.4333 50.0458 55.006L50.1078 54.7989L43.8146 47.7879C42.7025 46.549 44.3952 44.8449 45.6277 45.8448L45.7266 45.9319L52.2974 52.1555L53.1154 52.905C53.2359 53.0106 53.8487 52.8403 54.9587 52.1376L55.2465 51.951C55.331 51.8922 55.3583 51.8488 55.3422 51.6975L55.3181 51.5386L55.2465 51.1634C55.1742 50.7884 55.133 50.5348 55.1154 50.282L55.1062 50.0799L55.0876 50.0689C55.0143 49.9787 54.8996 49.8705 54.7472 49.7487L54.5542 49.6025L53.8 49.081C53.7109 49.0158 53.6355 48.9556 53.5625 48.8876C53.3815 48.7192 53.2473 48.5499 53.1522 48.2653C52.9234 47.5799 53.2606 46.875 53.8798 46.5897C54.1184 46.4797 54.3171 46.4528 54.5459 46.4528C54.8459 46.4528 55.1234 46.5135 55.4148 46.6229L55.7325 46.7566L56.0002 46.89L56.6172 47.2154C56.6539 47.2337 56.6878 47.2502 56.7197 47.2652L56.8924 47.3397L57.0027 47.3808C57.0368 47.394 57.0399 47.3987 57.0143 47.4062C57.4093 47.2902 57.5516 47.1088 57.7421 46.3538C57.8886 45.7733 57.9268 45.2028 57.8588 44.6343C57.7705 43.8959 58.3013 43.2381 59.0227 43.1521L59.16 43.1428L60.8011 43.1146L60.5268 39.6481C60.4005 38.0535 62.6386 37.6576 63.1152 39.1001L63.1546 39.2407L63.3749 40.1632C63.4116 40.3125 63.4482 40.4597 63.4848 40.6048L63.7039 41.4486C63.8132 41.8573 63.9221 42.2464 64.0306 42.6155L64.247 43.3274C64.6065 44.4697 64.9605 45.3908 65.3063 46.0868L65.5057 46.4777C66.2055 47.8055 66.5923 47.9977 67.7949 47.9977C67.8807 47.9977 67.9831 47.9896 68.1017 47.9735L68.3607 47.9306L68.6626 47.8663C68.7165 47.8538 68.7721 47.8405 68.8295 47.8262L69.1949 47.7299C69.2593 47.7121 69.3254 47.6934 69.3933 47.6739L69.8211 47.5458L70.29 47.3965L70.7995 47.2261L71.349 47.0346L72.2474 46.708L72.895 46.4641L73.9383 46.0591L74.6326 45.7813L74.6333 43.1288C74.6333 42.4384 75.158 41.8706 75.8303 41.8023L75.9666 41.7954C76.657 41.7954 77.2248 42.3201 77.2931 42.9924L77.3 43.1288V46.68C77.3 47.2211 76.9729 47.7085 76.4722 47.9137L75.2133 48.4228L74.4265 48.733L73.6811 49.02L72.9767 49.2836L72.3128 49.5241L71.6888 49.7414L71.1044 49.9357L70.5591 50.1069L70.0523 50.2551L69.5836 50.3804C68.8339 50.57 68.241 50.6643 67.7949 50.6643C65.4313 50.6643 64.1887 49.831 62.9181 47.2731C62.7491 46.9329 62.5811 46.555 62.4139 46.1392L62.2646 45.7567L60.5302 45.7866Z" fill="#000638"/>
<path d="M17.0911 46.0303C17.3998 45.4128 18.123 45.1396 18.7549 45.3792L18.8799 45.434L22.9278 47.458C23.5864 47.7873 23.8534 48.5882 23.5241 49.2468C23.2153 49.8643 22.4921 50.1375 21.8602 49.8979L21.7352 49.8431L17.6874 47.8192C17.0287 47.4898 16.7617 46.6889 17.0911 46.0303Z" fill="#000638"/>
<path d="M54.118 38.3503C54.7767 38.021 55.5776 38.2879 55.9069 38.9466C56.2156 39.564 56.0003 40.3065 55.4295 40.6683L55.3106 40.7354L51.2627 42.7594C50.6041 43.0887 49.8032 42.8217 49.4739 42.1631C49.1651 41.5456 49.3805 40.8031 49.9513 40.4413L50.0702 40.3742L54.118 38.3503Z" fill="#000638"/>
<path fill-rule="evenodd" clip-rule="evenodd" d="M19.9875 50.6744C19.9875 48.89 21.1671 47.3171 22.8388 47.3171C24.5104 47.3171 25.6901 48.89 25.6901 50.6744C25.6901 52.4589 24.5104 54.0317 22.8388 54.0317C21.1671 54.0317 19.9875 52.4589 19.9875 50.6744ZM22.8646 50.019L22.8392 49.9838C22.8387 49.9838 22.836 49.9868 22.8316 49.9926L22.7892 50.0626C22.7345 50.167 22.6546 50.3737 22.6546 50.6744C22.6546 50.9752 22.7345 51.1818 22.7892 51.2862L22.8316 51.3562L22.8392 51.365L22.8646 51.3298L22.9183 51.2255C22.9684 51.1103 23.0239 50.925 23.0239 50.6744C23.0239 50.3235 22.9152 50.1007 22.8646 50.019Z" fill="#000638"/>
<path fill-rule="evenodd" clip-rule="evenodd" d="M29.0938 57.7582C29.0938 55.904 30.5968 54.4009 32.451 54.4009C34.3052 54.4009 35.8083 55.904 35.8083 57.7582C35.8083 59.6123 34.3052 61.1154 32.451 61.1154C30.5968 61.1154 29.0938 59.6123 29.0938 57.7582ZM33.1416 57.7582C33.1416 57.3767 32.8324 57.0676 32.451 57.0676C32.0696 57.0676 31.7604 57.3767 31.7604 57.7582C31.7604 58.1396 32.0696 58.4487 32.451 58.4487C32.8324 58.4487 33.1416 58.1396 33.1416 57.7582Z" fill="#000638"/>
<path fill-rule="evenodd" clip-rule="evenodd" d="M33.1422 60.2882C33.1422 58.6165 34.715 57.4369 36.4995 57.4369C38.2839 57.4369 39.8567 58.6165 39.8567 60.2882C39.8567 61.9598 38.2839 63.1395 36.4995 63.1395C34.715 63.1395 33.1422 61.9598 33.1422 60.2882ZM37.1549 60.2628C37.0732 60.2122 36.8503 60.1036 36.4995 60.1036C36.1486 60.1036 35.9258 60.2122 35.844 60.2628L35.8089 60.2882C35.8089 60.2887 35.8118 60.2914 35.8177 60.2958L35.8877 60.3383C35.992 60.393 36.1987 60.4728 36.4995 60.4728C36.8503 60.4728 37.0732 60.3641 37.1549 60.3135L37.1901 60.2882L37.1549 60.2628Z" fill="#000638"/>
<path fill-rule="evenodd" clip-rule="evenodd" d="M23.0234 53.7103C23.0234 51.2972 24.9796 49.3411 27.3927 49.3411C29.8057 49.3411 31.7619 51.2972 31.7619 53.7103C31.7619 56.1234 29.8057 58.0795 27.3927 58.0795C24.9796 58.0795 23.0234 56.1234 23.0234 53.7103ZM29.0952 53.7103C29.0952 52.77 28.333 52.0077 27.3927 52.0077C26.4524 52.0077 25.6901 52.77 25.6901 53.7103C25.6901 54.6506 26.4524 55.4129 27.3927 55.4129C28.333 55.4129 29.0952 54.6506 29.0952 53.7103Z" fill="#000638"/>
</svg>
