<svg width="82" height="80" viewBox="0 0 82 80" fill="none" xmlns="http://www.w3.org/2000/svg">
<circle cx="61.6" cy="20" r="20" fill="#FE5455"/>
<path fill-rule="evenodd" clip-rule="evenodd" d="M43.1458 8.5031C43.7182 8.03983 43.8067 7.20026 43.3434 6.62786C42.8802 6.05546 42.0406 5.96699 41.4682 6.43026C28.3838 17.02 21.7737 27.8533 21.7737 38.9333C21.7737 41.6081 22.1603 44.2337 22.9328 46.8062C23.1446 47.5115 23.888 47.9115 24.5933 47.6997C25.2985 47.4879 25.6986 46.7445 25.4868 46.0392C24.7889 43.7153 24.4403 41.348 24.4403 38.9333C24.4403 28.777 30.6302 18.6325 43.1458 8.5031ZM28.4152 51.6273L28.1831 51.2935C27.77 50.6839 26.9409 50.5246 26.3313 50.9376C25.7217 51.3507 25.5624 52.1798 25.9755 52.7894C26.0212 52.8569 26.0685 52.9256 26.1172 52.9954L26.4273 53.4285L26.7729 53.8895C26.8335 53.9687 26.8955 54.049 26.9591 54.1306L27.3581 54.6336L27.7928 55.1648L28.2631 55.7241C28.3445 55.8196 28.4273 55.9164 28.5117 56.0143L29.0356 56.6159L29.5953 57.2457L30.1907 57.9037L30.822 58.5902L31.489 59.3049L32.192 60.0481L33.3137 61.2162L34.5164 62.4485L35.3631 63.3058L36.5832 64.5283L38.2852 66.2125L40.104 67.9897L41.3815 69.2263C41.9115 69.7376 42.7556 69.7224 43.2668 69.1924C43.7781 68.6624 43.7628 67.8183 43.2329 67.307L41.0274 65.1661L38.9848 63.1553L37.8375 62.0114L36.749 60.9146L35.3893 59.5256L34.7487 58.8626L33.837 57.9075L32.9843 56.9999L32.1907 56.1398L31.6945 55.5929L31.2246 55.0672L30.5692 54.3183L29.9731 53.6173L29.6086 53.1766L29.2706 52.7572L28.959 52.3592L28.6739 51.9825L28.4152 51.6273Z" fill="#000638"/>
<path fill-rule="evenodd" clip-rule="evenodd" d="M61.3747 40.5334C61.3747 29.3694 55.8264 18.7229 44.8263 8.62504C44.2838 8.12706 43.4403 8.16313 42.9424 8.7056C42.4444 9.24807 42.4805 10.0915 43.0229 10.5895C53.5118 20.218 58.708 30.1889 58.708 40.5334C58.708 42.4709 58.5261 44.3283 58.1631 46.1067C58.0158 46.8282 58.4813 47.5325 59.2028 47.6798C59.9243 47.8271 60.6286 47.3616 60.7758 46.6401C61.1753 44.6834 61.3747 42.6474 61.3747 40.5334ZM58.5775 52.8741C58.9409 52.2336 58.7163 51.4198 58.0758 51.0564C57.4353 50.693 56.6215 50.9176 56.2581 51.5581C56.2308 51.6062 56.2023 51.6552 56.1726 51.705L55.9794 52.0143C55.91 52.1209 55.8358 52.2309 55.7567 52.3443L55.5046 52.695L55.2231 53.0662L54.9123 53.4579L54.5722 53.8701L54.2028 54.3027L53.8042 54.7556L53.3764 55.2288L52.9195 55.7222L52.4334 56.2358L51.9182 56.7694C51.83 56.86 51.7405 56.9515 51.6498 57.0438L50.8008 57.8968L50.1986 58.4904L49.2411 59.418L48.2186 60.3901L47.1312 61.4065L45.9791 62.467L45.1751 63.1984L43.9153 64.3319L43.0397 65.1117C42.4889 65.6004 42.4385 66.4432 42.9272 66.994C43.4159 67.5448 44.2586 67.5952 44.8095 67.1065L45.7123 66.3024L47.4291 64.7542L49.0277 63.2857L49.7828 62.5811L50.8602 61.5612L51.5417 60.9058L52.1939 60.27L53.1173 59.3529L53.9748 58.4795C54.0664 58.3849 54.1568 58.291 54.246 58.198L54.7666 57.6496L55.258 57.1204L55.7204 56.6104L56.1536 56.1195L56.5578 55.6477L56.9331 55.1949L57.2793 54.7611L57.5967 54.3461L57.8851 53.95C58.0678 53.6922 58.2312 53.4469 58.3755 53.2141L58.5775 52.8741Z" fill="#000638"/>
<path d="M42.8629 24.7273C43.5532 24.7273 44.121 25.252 44.1893 25.9243L44.1962 26.0606V73.1323C44.1962 73.8687 43.5993 74.4656 42.8629 74.4656C42.1725 74.4656 41.6047 73.941 41.5364 73.2686L41.5295 73.1323V26.0606C41.5295 25.3242 42.1265 24.7273 42.8629 24.7273Z" fill="#000638"/>
<path d="M49.0274 30.0443C49.5184 29.4955 50.3613 29.4486 50.9101 29.9397C51.4223 30.3979 51.4972 31.1628 51.1058 31.7089L51.0147 31.8224L43.8569 39.8224C43.3659 40.3712 42.523 40.418 41.9742 39.927C41.462 39.4687 41.3871 38.7039 41.7786 38.1578L41.8696 38.0443L49.0274 30.0443Z" fill="#000638"/>
<path d="M33.3562 36.8987C33.8551 36.4261 34.6235 36.4144 35.1355 36.8496L35.2411 36.9497L43.8309 46.0163C44.3373 46.5509 44.3145 47.3948 43.78 47.9013C43.281 48.3739 42.5126 48.3856 42.0006 47.9504L41.895 47.8503L33.3053 38.7837C32.7988 38.2491 32.8216 37.4052 33.3562 36.8987Z" fill="#000638"/>
<path d="M50.5098 42.7901C51.0307 42.2697 51.8749 42.27 52.3954 42.791C52.8812 43.2772 52.9132 44.045 52.4918 44.5684L52.3946 44.6766L43.2494 53.8138C42.7284 54.3342 41.8842 54.3339 41.3637 53.8129C40.878 53.3267 40.8459 52.5589 41.2673 52.0355L41.3646 51.9273L50.5098 42.7901Z" fill="#000638"/>
<path d="M33.3207 50.267C33.8017 49.776 34.5691 49.7357 35.097 50.1515L35.2063 50.2476L43.796 58.6621C44.322 59.1774 44.3307 60.0216 43.8154 60.5476C43.3345 61.0386 42.567 61.0789 42.0392 60.6631L41.9299 60.567L33.3402 52.1525C32.8141 51.6372 32.8054 50.793 33.3207 50.267Z" fill="#000638"/>
<path fill-rule="evenodd" clip-rule="evenodd" d="M12.5328 24C12.5328 21.7909 14.3237 20 16.5328 20C18.7419 20 20.5328 21.7909 20.5328 24C20.5328 26.2091 18.7419 28 16.5328 28C14.3237 28 12.5328 26.2091 12.5328 24ZM17.8661 24C17.8661 23.2636 17.2692 22.6667 16.5328 22.6667C15.7964 22.6667 15.1995 23.2636 15.1995 24C15.1995 24.7364 15.7964 25.3333 16.5328 25.3333C17.2692 25.3333 17.8661 24.7364 17.8661 24Z" fill="#000638"/>
<path fill-rule="evenodd" clip-rule="evenodd" d="M17.8661 62.4C17.8661 60.1909 19.657 58.4 21.8661 58.4C24.0753 58.4 25.8661 60.1909 25.8661 62.4C25.8661 64.6092 24.0753 66.4 21.8661 66.4C19.657 66.4 17.8661 64.6092 17.8661 62.4ZM23.1995 62.4C23.1995 61.6636 22.6025 61.0667 21.8661 61.0667C21.1298 61.0667 20.5328 61.6636 20.5328 62.4C20.5328 63.1364 21.1298 63.7334 21.8661 63.7334C22.6025 63.7334 23.1995 63.1364 23.1995 62.4Z" fill="#000638"/>
<path fill-rule="evenodd" clip-rule="evenodd" d="M59.4661 19.7334C59.4661 17.5243 61.257 15.7334 63.4661 15.7334C65.6753 15.7334 67.4661 17.5243 67.4661 19.7334C67.4661 21.9425 65.6753 23.7334 63.4661 23.7334C61.257 23.7334 59.4661 21.9425 59.4661 19.7334ZM64.7995 19.7334C64.7995 18.997 64.2025 18.4001 63.4661 18.4001C62.7297 18.4001 62.1328 18.997 62.1328 19.7334C62.1328 20.4698 62.7297 21.0667 63.4661 21.0667C64.2025 21.0667 64.7995 20.4698 64.7995 19.7334Z" fill="#000638"/>
</svg>
