<svg width="80" height="80" viewBox="0 0 80 80" fill="none" xmlns="http://www.w3.org/2000/svg">
<ellipse cx="45.6006" cy="23.2" rx="20" ry="20" fill="#FE5455"/>
<path d="M64.834 45.1802C65.5704 45.1802 66.1673 45.7771 66.1673 46.5135C66.1673 47.2039 65.6427 47.7717 64.9703 47.84L64.834 47.8468L59.9012 47.8464L59.8949 47.9034C59.7742 48.6515 59.2148 49.2186 58.421 49.2866L58.2591 49.2935C57.8801 49.2935 57.5012 49.1877 57.074 48.9889L56.9369 48.9216L56.755 48.918C53.5168 48.8625 51.0372 49.0555 49.3418 49.4815L49.0934 49.5471C46.6653 50.2218 44.5067 51.1475 42.6129 52.2229C41.4165 52.9024 39.8728 53.2707 37.9548 53.3571L37.538 53.3713L29.5048 53.3686L28.1962 53.3428L27.7199 53.3422L27.4765 53.3489L27.2814 53.3617C27.2234 53.367 27.1719 53.3734 27.1253 53.381L26.9935 53.408L26.9985 53.419L27.0032 53.4724L26.9977 53.7941L26.9789 54.1601L26.9261 54.9005C26.9153 55.0529 26.907 55.1923 26.9012 55.3196L26.8915 55.6672C26.8901 55.8765 26.8988 56.0428 26.9178 56.1754L26.9348 56.272L27.3762 56.3119L27.9668 56.3565L28.6144 56.3971L29.6922 56.4505L30.8971 56.4947L32.2799 56.5301L43.3175 56.53L43.3367 59.1965L41.009 59.2249L38.139 59.2439L36.5092 59.2449L34.5824 59.2343L33.3863 59.2197L32.1647 59.1968L27.4038 59.1966C26.7703 59.1962 26.215 59.0693 25.7537 58.8265L25.7199 58.8064C25.1528 58.7287 24.699 58.6399 24.355 58.5401L24.2443 58.5064C21.7763 57.717 18.021 55.9305 15.9459 54.6309L15.6612 54.4487C14.1729 53.4741 12.8132 53.4008 12.4584 54.0857C11.8268 55.305 11.8655 56.1449 12.4497 57.2353C12.473 57.2787 12.5397 57.3348 12.6447 57.4017L12.8302 57.5098C12.8657 57.5291 12.9034 57.5491 12.9433 57.5696L13.2078 57.6994L13.5201 57.842L13.8764 57.9959L14.4849 58.2451L14.9343 58.4215L15.6646 58.6978L16.7229 59.0811L17.8496 59.4714L19.0141 59.8576L19.8937 60.1379L20.4759 60.3178L21.6131 60.6546L22.4269 60.8817C22.9882 61.0335 23.6222 61.2674 24.4211 61.6085L25.4373 62.0595L28.0827 63.283L28.5085 63.4765L29.3041 63.8298L30.0399 64.1434C30.3958 64.2915 30.7359 64.4272 31.0703 64.5543C32.0536 64.928 32.939 65.2067 33.747 65.3893C38.359 66.4316 41.6539 66.51 45.4728 65.4087C47.2144 64.9065 49.2368 64.1831 51.5377 63.2388L52.6194 62.7873C52.803 62.7095 52.9882 62.6303 53.1751 62.5498L54.316 62.0512L55.4963 61.5213L56.9836 60.8354L57.2516 60.8352L57.2526 57.865H59.9193L59.9183 63.7738L68.5516 63.7744C69.2419 63.7744 69.8097 64.2991 69.878 64.9715L69.8849 65.1078C69.8849 65.7981 69.3602 66.3659 68.6879 66.4342L68.5516 66.4411H57.2526L57.2516 63.649L57.2111 63.6693C55.6746 64.3763 54.2263 65.0118 52.8657 65.5757L51.7209 66.0416C51.5336 66.1163 51.3482 66.1895 51.1645 66.2613L50.0841 66.6746C48.8485 67.1363 47.7003 67.5265 46.639 67.8452L46.2117 67.971C41.9061 69.2126 38.1745 69.1238 33.1592 67.9904C32.2168 67.7774 31.2153 67.4622 30.1228 67.0469C29.5256 66.8199 28.918 66.5702 28.2503 66.2795L27.4172 65.9097L23.9648 64.3195L23.4031 64.0735L22.9041 63.8658C22.7477 63.8028 22.6008 63.7459 22.4626 63.6948L22.0731 63.5587C21.9514 63.5189 21.8375 63.4847 21.7304 63.4558L20.9944 63.2535L19.896 62.9397L19.1711 62.7243L18.4552 62.5045L17.7509 62.2809L17.0607 62.0539L16.3873 61.8241L15.7332 61.592L15.1009 61.3581C14.9975 61.319 14.8951 61.2799 14.7938 61.2407L14.1993 61.0051L13.6331 60.769C13.5413 60.7297 13.4507 60.6903 13.3615 60.651L12.8426 60.4151L12.3587 60.1801C11.1943 59.5938 10.3806 59.02 10.0992 58.4947C9.11661 56.6609 9.03524 54.8963 10.0906 52.8591C11.3652 50.3986 14.3356 50.492 16.914 52.0854L17.1221 52.2179C18.6771 53.2362 21.7089 54.7301 24.0229 55.6035L24.2223 55.6768L24.2256 55.4891L24.2343 55.246L24.3278 53.8094L24.3345 53.6333L24.3365 53.4724C24.3365 52.1676 24.9849 51.2437 26.1434 50.8791L26.3753 50.8123C26.4516 50.7926 26.5275 50.7754 26.6051 50.7604L26.8451 50.7218L27.1077 50.6954L27.4051 50.6796L27.7496 50.6732L28.1536 50.6748L29.7882 50.7044L37.5065 50.705C39.1828 50.6654 40.4466 50.3865 41.2961 49.9041C43.3719 48.7253 45.7303 47.7139 48.3795 46.9778C50.3609 46.4273 53.1453 46.191 56.7623 46.2511L57.6407 46.2703L57.6633 46.2837L57.7048 46.2266C57.995 45.8471 58.4134 45.547 58.9261 45.3338L59.1227 45.2579L59.3403 45.1802H64.834Z" fill="#000638"/>
<path fill-rule="evenodd" clip-rule="evenodd" d="M39.7173 10.5467C38.8206 10.4491 37.9155 10.3999 37.0045 10.3999C23.3078 10.3999 12.2045 21.5032 12.2045 35.1999C12.2045 40.7338 14.0236 45.9947 17.3244 50.2927C17.7729 50.8767 18.6099 50.9865 19.194 50.538C19.778 50.0895 19.8878 49.2524 19.4393 48.6684C16.4933 44.8324 14.8712 40.1412 14.8712 35.1999C14.8712 22.976 24.7806 13.0666 37.0045 13.0666C37.819 13.0666 38.6278 13.1105 39.4287 13.1977C40.1608 13.2774 40.8188 12.7485 40.8985 12.0165C40.9782 11.2844 40.4494 10.6264 39.7173 10.5467ZM61.8048 35.1999C61.8048 24.7592 55.293 15.5454 45.6707 11.9565C44.9807 11.6991 44.2128 12.0498 43.9555 12.7398C43.6981 13.4297 44.0488 14.1976 44.7388 14.455C53.3262 17.6579 59.1381 25.8815 59.1381 35.1999C59.1381 37.9942 58.6207 40.7148 57.6252 43.2598C57.3569 43.9456 57.6954 44.719 58.3811 44.9873C59.0669 45.2555 59.8403 44.9171 60.1086 44.2313C61.2248 41.3779 61.8048 38.328 61.8048 35.1999Z" fill="#000638"/>
<path fill-rule="evenodd" clip-rule="evenodd" d="M35.6712 22.9332C35.6712 20.7241 37.462 18.9332 39.6711 18.9332C41.8803 18.9332 43.6711 20.7241 43.6711 22.9332C43.6711 25.1424 41.8803 26.9332 39.6711 26.9332C37.462 26.9332 35.6712 25.1424 35.6712 22.9332ZM41.0045 22.9332C41.0045 22.1968 40.4075 21.5999 39.6712 21.5999C38.9348 21.5999 38.3378 22.1968 38.3378 22.9332C38.3378 23.6696 38.9348 24.2666 39.6712 24.2666C40.4075 24.2666 41.0045 23.6696 41.0045 22.9332Z" fill="#000638"/>
<path fill-rule="evenodd" clip-rule="evenodd" d="M35.1915 29.2964C35.9043 29.1117 36.3324 28.384 36.1476 27.6712C35.9628 26.9584 35.2352 26.5303 34.5223 26.7151C30.2052 27.8342 27.1378 31.7445 27.1378 36.2666C27.1378 38.0939 27.6366 39.8512 28.5653 41.3809C28.9475 42.0103 29.7675 42.2108 30.397 41.8286C31.0264 41.4465 31.2269 40.6264 30.8447 39.9969C30.1676 38.8816 29.8045 37.6024 29.8045 36.2666C29.8045 32.9669 32.0436 30.1125 35.1915 29.2964ZM46.5529 38.7612C46.7386 38.0486 46.3115 37.3204 45.5989 37.1347C44.8863 36.949 44.1581 37.3761 43.9724 38.0886C43.1531 41.2321 40.3009 43.4666 37.0046 43.4666C35.7161 43.4666 34.4801 43.1289 33.3922 42.4964C32.7556 42.1263 31.9395 42.3424 31.5694 42.979C31.1993 43.6156 31.4153 44.4317 32.0519 44.8018C33.5442 45.6693 35.2421 46.1332 37.0046 46.1332C41.522 46.1332 45.4293 43.0722 46.5529 38.7612Z" fill="#000638"/>
<path d="M33.9732 30.8182L39.5508 25.7368L40.3021 33.5978L45.8417 33.5986L49.0045 37.5168V40.2519C49.0045 40.9883 48.4075 41.5852 47.6712 41.5852C46.9808 41.5852 46.413 41.0606 46.3447 40.3882L46.3378 40.2519L46.3373 38.4586L44.5666 36.2645L37.8782 36.2653L37.4029 31.3002L35.7691 32.7895C35.261 33.2523 34.4926 33.249 33.9892 32.8039L33.8855 32.7018C33.4227 32.1937 33.426 31.4253 33.8711 30.9218L33.9732 30.8182Z" fill="#000638"/>
<ellipse cx="62.6045" cy="60.7999" rx="1.06666" ry="1.06667" fill="#000638"/>
</svg>
