<svg width="18" height="19" viewBox="0 0 18 19" fill="none" xmlns="http://www.w3.org/2000/svg">
<path d="M15.75 3.5H5.25C4.85218 3.5 4.47064 3.65804 4.18934 3.93934C3.90804 4.22064 3.75 4.60218 3.75 5C3.75 5.39782 3.90804 5.77936 4.18934 6.06066C4.47064 6.34196 4.85218 6.5 5.25 6.5H15.75V16.25C15.75 16.4489 15.671 16.6397 15.5303 16.7803C15.3897 16.921 15.1989 17 15 17H5.25C4.45435 17 3.69129 16.6839 3.12868 16.1213C2.56607 15.5587 2.25 14.7956 2.25 14V5C2.25 4.20435 2.56607 3.44129 3.12868 2.87868C3.69129 2.31607 4.45435 2 5.25 2H15C15.1989 2 15.3897 2.07902 15.5303 2.21967C15.671 2.36032 15.75 2.55109 15.75 2.75V3.5ZM3.75 14C3.75 14.3978 3.90804 14.7794 4.18934 15.0607C4.47064 15.342 4.85218 15.5 5.25 15.5H14.25V8H5.25C4.72337 8.00084 4.20588 7.86241 3.75 7.59875V14ZM15 5.75H5.25C5.05109 5.75 4.86032 5.67098 4.71967 5.53033C4.57902 5.38968 4.5 5.19891 4.5 5C4.5 4.80109 4.57902 4.61032 4.71967 4.46967C4.86032 4.32902 5.05109 4.25 5.25 4.25H15V5.75Z" fill="#000638"/>
</svg>
