<svg width="18" height="19" viewBox="0 0 18 19" fill="none" xmlns="http://www.w3.org/2000/svg">
<path d="M2.25 14.375V4.25C2.25 3.65326 2.48705 3.08097 2.90901 2.65901C3.33097 2.23705 3.90326 2 4.5 2H15C15.1989 2 15.3897 2.07902 15.5303 2.21967C15.671 2.36032 15.75 2.55109 15.75 2.75V16.25C15.75 16.4489 15.671 16.6397 15.5303 16.7803C15.3897 16.921 15.1989 17 15 17H4.875C4.17881 17 3.51113 16.7234 3.01884 16.2312C2.52656 15.7389 2.25 15.0712 2.25 14.375ZM14.25 15.5V13.25H4.875C4.57663 13.25 4.29048 13.3685 4.0795 13.5795C3.86853 13.7905 3.75 14.0766 3.75 14.375C3.75 14.6734 3.86853 14.9595 4.0795 15.1705C4.29048 15.3815 4.57663 15.5 4.875 15.5H14.25ZM7.5 3.5H4.5C4.30109 3.5 4.11032 3.57902 3.96967 3.71967C3.82902 3.86032 3.75 4.05109 3.75 4.25V12.0028C4.10152 11.8358 4.48586 11.7495 4.875 11.75H14.25V3.5H12.75V9.5L10.125 8L7.5 9.5V3.5Z" fill="black"/>
</svg>
