<svg width="18" height="19" viewBox="0 0 18 19" fill="none" xmlns="http://www.w3.org/2000/svg">
<path d="M4.32225 13.25H15V4.25H3V14.2887L4.32225 13.25ZM4.84125 14.75L1.5 17.375V3.5C1.5 3.30109 1.57902 3.11032 1.71967 2.96967C1.86032 2.82902 2.05109 2.75 2.25 2.75H15.75C15.9489 2.75 16.1397 2.82902 16.2803 2.96967C16.421 3.11032 16.5 3.30109 16.5 3.5V14C16.5 14.1989 16.421 14.3897 16.2803 14.5303C16.1397 14.671 15.9489 14.75 15.75 14.75H4.84125ZM8.25 11H9.75V12.5H8.25V11ZM6.42525 7.10975C6.52269 6.62209 6.75661 6.17213 7.0998 5.81223C7.44298 5.45233 7.88131 5.19728 8.36378 5.07677C8.84626 4.95625 9.35303 4.97523 9.82514 5.13149C10.2973 5.28774 10.7153 5.57486 11.0306 5.95941C11.3459 6.34397 11.5455 6.81016 11.6062 7.30374C11.6669 7.79732 11.5862 8.29799 11.3735 8.74749C11.1607 9.19699 10.8247 9.57683 10.4046 9.84282C9.98437 10.1088 9.4973 10.25 9 10.25H8.25V8.75H9C9.21306 8.74999 9.42173 8.68947 9.60174 8.5755C9.78175 8.46152 9.9257 8.29877 10.0168 8.10619C10.108 7.9136 10.1425 7.6991 10.1165 7.48763C10.0905 7.27617 10.005 7.07644 9.86987 6.91168C9.73478 6.74693 9.55568 6.62392 9.35342 6.55698C9.15115 6.49003 8.93403 6.4819 8.72732 6.53353C8.52061 6.58516 8.33281 6.69442 8.18577 6.84861C8.03874 7.0028 7.93851 7.19557 7.89675 7.4045L6.42525 7.10975Z" fill="#000638"/>
</svg>
