<svg width="80" height="80" viewBox="0 0 80 80" fill="none" xmlns="http://www.w3.org/2000/svg">
<circle cx="48.8484" cy="20" r="20" fill="#FE5455"/>
<path d="M42.1375 10.3607C42.8711 10.3607 43.4658 10.9554 43.4658 11.689C43.4658 12.3768 42.9431 12.9424 42.2733 13.0105L42.1375 13.0173H12.1113V67.7295L44.7734 67.3812C45.4611 67.3738 46.0323 67.8905 46.1074 68.5595L46.1157 68.6952C46.1231 69.383 45.6064 69.9542 44.9374 70.0293L44.8017 70.0376L10.7971 70.3999C10.1042 70.4073 9.53063 69.883 9.46164 69.2085L9.45468 69.0717V11.689C9.45468 11.0013 9.97737 10.4356 10.6472 10.3676L10.783 10.3607H42.1375Z" fill="#000638"/>
<path fill-rule="evenodd" clip-rule="evenodd" d="M55.6729 11.5532C55.6048 10.8834 55.0392 10.3607 54.3514 10.3607H49.5695L49.4337 10.3676C48.7639 10.4356 48.2412 11.0013 48.2412 11.689L48.2481 11.8248C48.3161 12.4946 48.8818 13.0173 49.5695 13.0173H53.0231V35.3618L53.03 35.4977C53.098 36.1675 53.6637 36.6901 54.3514 36.6901C55.085 36.6901 55.6797 36.0954 55.6797 35.3618V11.689L55.6729 11.5532ZM55.6722 55.7717C55.6042 55.1019 55.0385 54.5792 54.3508 54.5792L54.2149 54.586C53.5451 54.654 53.0225 55.2197 53.0225 55.9075V67.5893L49.5689 67.59L49.4331 67.5969C48.7633 67.6649 48.2406 68.2306 48.2406 68.9183C48.2406 69.6519 48.8353 70.2466 49.5689 70.2466H54.3508L54.4866 70.2397C55.1564 70.1717 55.6791 69.6061 55.6791 68.9183V55.9075L55.6722 55.7717Z" fill="#000638"/>
<path fill-rule="evenodd" clip-rule="evenodd" d="M25.3943 21.7842C25.3943 17.8227 28.6057 14.6113 32.5671 14.6113C36.5286 14.6113 39.74 17.8227 39.74 21.7842C39.74 25.7456 36.5286 28.957 32.5671 28.957C28.6057 28.957 25.3943 25.7456 25.3943 21.7842ZM37.0838 21.7841C37.0838 19.2899 35.0619 17.2679 32.5676 17.2679C30.0734 17.2679 28.0514 19.2899 28.0514 21.7841C28.0514 24.2784 30.0734 26.3003 32.5676 26.3003C35.0619 26.3003 37.0838 24.2784 37.0838 21.7841Z" fill="#000638"/>
<path d="M47.9759 30.5509C48.7095 30.5509 49.3042 31.1456 49.3042 31.8792C49.3042 32.567 48.7816 33.1326 48.1117 33.2006L47.9759 33.2075H19.8159C19.0823 33.2075 18.4876 32.6128 18.4876 31.8792C18.4876 31.1915 19.0103 30.6258 19.6801 30.5578L19.8159 30.5509H47.9759Z" fill="#000638"/>
<path d="M32.5666 34.8015C33.3002 34.8015 33.8949 35.3962 33.8949 36.1298C33.8949 36.8176 33.3722 37.3832 32.7024 37.4513L32.5666 37.4581H16.0957C15.3621 37.4581 14.7674 36.8634 14.7674 36.1298C14.7674 35.4421 15.2901 34.8764 15.9599 34.8084L16.0957 34.8015H32.5666Z" fill="#000638"/>
<path d="M43.7249 37.9895C44.4585 37.9895 45.0532 38.5842 45.0532 39.3178C45.0532 40.0056 44.5305 40.5712 43.8607 40.6393L43.7249 40.6461H26.7226C25.989 40.6461 25.3943 40.0514 25.3943 39.3178C25.3943 38.6301 25.917 38.0644 26.5868 37.9964L26.7226 37.9895H43.7249Z" fill="#000638"/>
<path d="M29.91 42.24C30.6436 42.24 31.2383 42.8347 31.2383 43.5683C31.2383 44.256 30.7156 44.8217 30.0458 44.8897L29.91 44.8966H16.0957C15.3621 44.8966 14.7674 44.3019 14.7674 43.5683C14.7674 42.8805 15.2901 42.3149 15.9599 42.2468L16.0957 42.24H29.91Z" fill="#000638"/>
<path d="M60.0393 37.1186C60.667 36.7389 61.4837 36.9399 61.8634 37.5676L62.3541 38.3686L62.8231 39.1129C62.8994 39.2322 62.9748 39.3492 63.0493 39.4638L63.4852 40.1228C63.7683 40.5432 64.0366 40.9255 64.2898 41.2695L64.6583 41.7569C64.7773 41.9097 64.8925 42.053 65.0039 42.1867C65.335 42.584 65.6239 42.8859 65.8612 43.0892L66.0898 43.2727C66.1082 43.2907 66.1053 43.2986 66.077 43.3014L66.04 43.3027H69.7593C70.4929 43.3027 71.0876 43.8974 71.0876 44.631C71.0876 45.3187 70.5649 45.8844 69.8951 45.9524L69.7593 45.9593H66.04C64.863 45.9593 63.6174 44.8991 61.9979 42.6524L61.6317 42.1335L61.2525 41.5753L60.8595 40.9774C60.7928 40.8745 60.7255 40.7698 60.6576 40.6635L60.2425 40.0055L59.8117 39.3071C59.7386 39.1873 59.6648 39.0658 59.5903 38.9426C59.2106 38.3149 59.4116 37.4983 60.0393 37.1186Z" fill="#000638"/>
<path d="M54.3504 42.24C55.084 42.24 55.6787 42.8347 55.6787 43.5683C55.6787 44.256 55.156 44.8217 54.4862 44.8897L54.3504 44.8966H44.7866C44.7462 44.8966 44.725 44.9053 44.7322 45.0243L44.7577 45.2459L44.7942 45.4848C44.8395 45.7701 44.9335 46.0654 45.0486 46.3047L45.1224 46.4427L46.1164 46.2709C49.4936 45.7182 52.5716 45.9624 56.0107 47.6953C58.9248 49.1636 59.9019 50.3833 60.5694 52.5799L60.6398 52.8191C60.8683 53.6198 60.9959 53.8424 61.4601 54.1502C62.6701 54.9523 65.0471 55.5306 68.533 55.819L69.3908 55.8827C69.5374 55.8923 69.6856 55.9015 69.8357 55.9102C70.5681 55.9528 71.1273 56.581 71.0847 57.3133C71.0422 58.0457 70.414 58.6049 69.6816 58.5624C65.0456 58.2931 61.8431 57.5914 59.9923 56.3645C58.9607 55.6806 58.5264 54.9921 58.1582 53.7947L57.974 53.1796C57.5224 51.7722 56.948 51.1423 54.8153 50.0677C52.0743 48.6866 49.637 48.4427 46.918 48.8352L45.6202 49.0539C45.2474 49.1179 45.0176 49.1472 44.7866 49.1472C43.3743 49.1472 42.438 47.5827 42.1706 45.9023C41.8694 44.0095 42.6436 42.3539 44.5819 42.2456L44.7866 42.24H54.3504Z" fill="#000638"/>
<path d="M61.3486 28.4518C61.8342 27.9293 62.6368 27.8888 63.1712 28.3348L63.2814 28.4378L66.2037 31.4924C66.6652 31.9747 66.6928 32.7173 66.2888 33.2309L66.1956 33.3372L56.3662 43.4323C55.8544 43.9579 55.0134 43.9691 54.4878 43.4574C53.9973 42.9797 53.9548 42.2153 54.3674 41.6882L54.4628 41.579L63.397 32.4021L62.3344 31.2916L51.0743 43.4099C50.6082 43.9115 49.8449 43.9717 49.3083 43.5715L49.197 43.4787C48.6955 43.0126 48.6352 42.2494 49.0354 41.7128L49.1283 41.6014L61.3486 28.4518Z" fill="#000638"/>
<path d="M49.0668 46.9861C49.5268 46.4146 50.363 46.3242 50.9344 46.7842C51.4678 47.2135 51.5821 47.9705 51.221 48.5342L51.1363 48.6518L45.8231 55.2529C45.733 55.3648 45.6255 55.4612 45.505 55.5384L45.3803 55.6091L37.9418 59.3118C36.7586 59.9007 35.5641 58.5983 36.1818 57.4885L36.2497 57.3783L40.3649 51.2967L42.6454 48.1088C43.0722 47.5121 43.9019 47.3744 44.4985 47.8012C45.0554 48.1996 45.2125 48.9489 44.8839 49.5321L44.8061 49.6544L42.5454 52.8139L41.2816 54.6804L43.9372 53.3585L49.0668 46.9861Z" fill="#000638"/>
<path d="M55.3098 35.6829C56.0411 35.6257 56.6804 36.1722 56.7377 36.9036C56.7949 37.6349 56.2484 38.2742 55.517 38.3315L54.2564 38.4345L52.7187 38.5738L51.3471 38.7148L50.429 38.821L49.6069 38.9273L48.8822 39.0333L48.4535 39.1036L48.069 39.1735L47.7288 39.243L47.4334 39.3119L47.1831 39.38C47.1452 39.3913 47.1091 39.4026 47.0749 39.4138L46.8929 39.4808C46.8768 39.4875 46.8692 39.4914 46.8633 39.5365L46.8547 39.6406L46.8496 39.7261C46.8218 40.2159 46.9908 41.0002 47.3818 42.0369C47.6407 42.7233 47.2941 43.4896 46.6077 43.7485C45.9213 44.0074 45.155 43.6608 44.8961 42.9744C43.7705 39.9898 43.892 37.8551 45.869 37.0294C46.0643 36.9478 46.3039 36.8687 46.5886 36.7917L46.9521 36.7002L47.3593 36.6107L47.8107 36.523C47.8897 36.5086 47.9705 36.4941 48.0531 36.4798L48.5714 36.3946L49.1349 36.3109L50.0653 36.1881L51.0993 36.068L51.8468 35.9893L53.0561 35.873L54.835 35.7206C54.9912 35.7081 55.1495 35.6955 55.3098 35.6829Z" fill="#000638"/>
<path fill-rule="evenodd" clip-rule="evenodd" d="M48.0376 49.098L48.1985 48.5147C48.8951 46.0907 53.9256 45.3757 56.0978 46.6802C57.0768 47.2681 58.1146 48.6264 59.328 50.8237L59.6796 51.4744C59.739 51.5867 59.7989 51.7009 59.8592 51.817L60.2262 52.5369C60.6489 53.3802 60.0825 54.3831 59.142 54.4564L52.3293 54.9877C51.984 55.0147 51.6418 54.9056 51.3756 54.6839L48.1877 52.0273C47.8849 51.7749 47.7098 51.4011 47.7098 51.0068C47.7098 50.5454 47.82 49.9258 48.0376 49.098ZM56.0506 50.5165C55.5414 49.7382 55.1179 49.2301 54.804 49.0063L54.7301 48.9577C54.2126 48.6469 52.9507 48.6697 51.9851 48.821L51.6389 48.8833C51.1466 48.9847 50.7891 49.1185 50.7518 49.2485L50.6124 49.7536L50.5044 50.1864L50.4461 50.45L52.6606 52.2958L56.9197 51.9643L56.7958 51.744C56.7429 51.6512 56.6906 51.5605 56.6389 51.4721L56.3367 50.9678L56.0506 50.5165Z" fill="#000638"/>
</svg>
