<?xml version="1.0" encoding="utf-8"?>
<!-- Generator: Adobe Illustrator 25.2.1, SVG Export Plug-In . SVG Version: 6.00 Build 0)  -->
<svg version="1.1" id="Calque_1" xmlns="http://www.w3.org/2000/svg" xmlns:xlink="http://www.w3.org/1999/xlink" x="0px" y="0px"
	 viewBox="0 0 333.3 222.3" style="enable-background:new 0 0 333.3 222.3;" xml:space="preserve">
<style type="text/css">
	.st0{fill:#E1000F;}
	.st1{fill:#000091;}
	.st2{fill:#FFFFFF;}
	.st3{fill:none;}
</style>
<g>
	<g>
		<polygon class="st0" points="106.2,118.3 111,114.9 121.3,129.3 128.1,124.4 131.2,128.7 119.6,137 		"/>
		<polygon class="st0" points="119.5,108.8 131,100.6 133.8,104.5 127.1,109.3 129.4,112.6 135.1,108.5 137.9,112.4 132.2,116.5 
			134.8,120.1 141.6,115.3 144.4,119.2 132.9,127.5 		"/>
		<g>
			<path class="st0" d="M144.6,110.3c1.9,0.6,4,0.4,5.4-0.6c1.1-0.8,1.4-1.7,0.6-2.8c-2-2.9-9.6,4-14.2-2.4
				c-2.2-3.1-1.5-7.6,2.3-10.3c3-2.1,6.2-2.5,9.3-1.8l-1.2,5.6c-2-0.5-3.9-0.6-5.1,0.3c-1,0.7-1.2,1.8-0.7,2.5
				c2,2.8,9.5-4.1,14.2,2.5c2.6,3.8,1.2,8-2.3,10.5c-3.4,2.5-6.5,2.8-9.6,2.1L144.6,110.3z"/>
			<polygon class="st0" points="122.9,141.6 134.5,133.3 137.3,137.3 130.5,142.1 132.9,145.4 138.6,141.3 141.4,145.2 135.7,149.3 
				138.3,152.9 145,148.1 147.9,152 136.3,160.3 			"/>
			<polygon class="st0" points="137.3,131.3 143.3,127 158.4,133.8 150,122.2 154.7,118.8 168.1,137.4 162.1,141.8 147.1,134.9 
				155.4,146.6 150.7,150 			"/>
			<polygon class="st0" points="156.5,117.5 172.1,106.3 175.2,110.6 169.7,114.5 180,128.9 175.3,132.3 165,117.9 159.6,121.8 			
				"/>
			<path class="st0" d="M173.8,105l6.3-4.5c4.4-3.1,8.6-2.9,11.2,0.7c1.6,2.3,1.8,4.7,0.6,7l11.4,3.8l-5.5,4l-9.8-3.7l-1.1,0.8
				l5.1,7.1l-4.7,3.4L173.8,105z M181.4,105.6l2.7,3.8l1.8-1.3c1.2-0.9,1.3-2.1,0.5-3.3c-0.8-1.1-2-1.3-3.2-0.5L181.4,105.6z"/>
			<polygon class="st0" points="190.6,93 202.1,84.7 205,88.6 198.2,93.5 200.5,96.8 206.3,92.7 209.1,96.6 203.4,100.7 206,104.3 
				212.7,99.5 215.5,103.4 204,111.6 			"/>
			<path class="st0" d="M205,82.7l6.7-4.8c4.4-3.1,8.6-2.9,11.2,0.7s1.5,7.7-2.9,10.9l-1.9,1.4l5.1,7.1l-4.7,3.4L205,82.7z
				 M212.5,83.2l2.7,3.8l2.2-1.6c1.2-0.9,1.3-2.1,0.5-3.3c-0.8-1.1-2-1.3-3.2-0.5L212.5,83.2z"/>
			<path class="st0" d="M220.1,71.8l6.3-4.5c4.4-3.1,8.6-2.9,11.2,0.7c1.6,2.3,1.8,4.7,0.6,7l11.4,3.8l-5.5,4l-9.8-3.7l-1.1,0.8
				l5.1,7.1l-4.7,3.4L220.1,71.8z M227.7,72.3l2.7,3.8l1.8-1.3c1.2-0.9,1.3-2.1,0.5-3.3c-0.8-1.1-2-1.3-3.2-0.5L227.7,72.3z"/>
			
				<rect x="243.1" y="55.9" transform="matrix(0.8122 -0.5833 0.5833 0.8122 6.8685 156.1481)" class="st0" width="5.8" height="23"/>
			<path class="st0" d="M256,65.5c1.9,0.6,4,0.4,5.4-0.6c1.1-0.8,1.4-1.7,0.6-2.8c-2-2.9-9.6,4-14.2-2.4c-2.2-3.1-1.5-7.6,2.3-10.3
				c3-2.1,6.2-2.5,9.3-1.8l-1.2,5.6c-2-0.5-3.9-0.6-5.1,0.3c-1,0.7-1.2,1.8-0.7,2.5c2,2.8,9.5-4.1,14.2,2.5c2.6,3.8,1.2,8-2.3,10.5
				c-3.4,2.5-6.5,2.8-9.6,2.1L256,65.5z"/>
			<polygon class="st0" points="259.3,43.7 270.8,35.4 273.6,39.3 266.9,44.2 269.2,47.5 274.9,43.4 277.7,47.3 272,51.4 274.6,55 
				281.4,50.1 284.2,54.1 272.7,62.3 			"/>
			<path class="st0" d="M284.4,45.1c1.9,0.6,4,0.4,5.4-0.6c1.1-0.8,1.4-1.7,0.6-2.8c-2-2.9-9.6,4-14.2-2.4
				c-2.2-3.1-1.5-7.6,2.3-10.3c3-2.1,6.2-2.5,9.3-1.8l-1.2,5.6c-2-0.5-3.9-0.6-5.1,0.3c-1,0.7-1.2,1.8-0.7,2.5
				c2,2.8,9.5-4.1,14.2,2.5c2.6,3.8,1.2,8-2.3,10.5c-3.4,2.5-6.5,2.8-9.6,2.1L284.4,45.1z"/>
			<path class="st1" d="M150.4,176.6c1.9,0.6,4,0.4,5.4-0.6c1.1-0.8,1.4-1.7,0.6-2.8c-2-2.9-9.6,4-14.2-2.4
				c-2.2-3.1-1.5-7.6,2.3-10.3c3-2.1,6.2-2.5,9.3-1.8l-1.2,5.6c-2-0.5-3.9-0.6-5.1,0.3c-1,0.7-1.2,1.8-0.7,2.5
				c2,2.8,9.5-4.1,14.2,2.5c2.6,3.8,1.2,8-2.3,10.5c-3.4,2.5-6.5,2.8-9.6,2.1L150.4,176.6z"/>
			<polygon class="st1" points="156.9,164.7 153.6,154.8 158.4,151.4 160.8,161.9 			"/>
			<polygon class="st1" points="159.3,150.7 170.8,142.5 173.6,146.4 166.9,151.2 169.2,154.5 174.9,150.4 177.7,154.3 172,158.4 
				174.6,162.1 181.4,157.2 184.2,161.1 172.7,169.4 			"/>
			<polygon class="st1" points="173.6,140.4 179.7,136.1 194.7,143 186.4,131.3 191.1,127.9 204.5,146.6 198.5,150.9 183.4,144 
				191.8,155.7 187,159.1 			"/>
			<path class="st1" d="M216.6,130.3l-1.8-2.5l-4.3,3.1l-2.9-4l9-6.5l5.9,8.3c-0.1,3.6-1.9,7.1-5.5,9.7c-6.1,4.4-13.5,2.8-17.3-2.5
				s-3-12.8,2.9-17c3.4-2.4,7.3-2.9,10.6-1.9l-1.7,5.6c-1.8-0.6-3.9-0.5-5.7,0.8c-3,2.1-3.5,6-1.2,9.1s6.1,3.8,9.3,1.5
				C215.3,132.9,216.2,131.6,216.6,130.3"/>
			<path class="st1" d="M218.3,108.4l6.2-4.4l20.2,13.8l-5,3.6l-4.7-3.3l-6.6,4.7l1.6,5.5l-5,3.6L218.3,108.4z M230.7,115l-5.9-4.1
				l2,6.9L230.7,115z"/>
			<path class="st1" d="M253.9,103.5l-1.8-2.5l-4.3,3.1l-2.9-4l9-6.5l5.9,8.3c-0.1,3.6-1.9,7.1-5.5,9.7c-6.1,4.4-13.5,2.8-17.3-2.5
				s-3-12.8,2.9-17c3.4-2.4,7.3-2.9,10.6-1.9l-1.7,5.6c-1.8-0.6-3.9-0.5-5.7,0.8c-3,2.1-3.5,6-1.2,9.1s6.2,3.8,9.3,1.5
				C252.6,106,253.5,104.8,253.9,103.5"/>
			<polygon class="st1" points="251.3,84.7 262.8,76.4 265.6,80.3 258.9,85.2 261.2,88.5 266.9,84.4 269.7,88.3 264,92.4 266.6,96 
				273.4,91.1 276.2,95.1 264.7,103.3 			"/>
			<polygon class="st1" points="265.6,74.4 271.7,70 286.7,76.9 278.4,65.2 283.1,61.8 296.5,80.5 290.5,84.8 275.4,78 283.8,89.6 
				279,93 			"/>
			<polygon class="st1" points="284.8,60.6 300.5,49.4 303.5,53.7 298.1,57.6 308.4,71.9 303.7,75.3 293.4,61 287.9,64.9 			"/>
		</g>
		<g>
			<g>
				<g>
					<g>
						<path class="st0" d="M37.6,74.1l-5.8,5.2c-4.4,3.9-6.9,9.5-6.9,15.3v0.8L36,92c2.6-0.8,5.5-0.1,7.4,1.8l0.9,0.9
							c2,2,2.7,5.1,1.7,7.8l-3.5,9.7c-2.6,7.2-2.4,15.1,0.6,22.1l4,9.5c1,2.4,4.5,2.1,5.2-0.4l5.8-21.4c1.1-4,3-7.7,5.6-10.8
							l9.5-11.4c3.1-3.7,3.9-8.8,2.2-13.3l-3.5-9.2c-0.7-1.9,0.8-3.8,2.8-3.6l1.3,0.2c9.6,1.2,18.5,5.3,25.9,11.5l7,6
							c0.8,0.7,2.1,0,2-1.1l-0.7-5.5c-1.2-10-7-19-15.6-24.2l-6.3-3.8l14.5-4.5c1.3-0.4,1.3-2.2,0-2.6l-14.4-4.1
							c-5-1.4-10.4-0.4-14.5,2.9L73.3,49c-1.2,0.9-2.8-0.4-2.1-1.7l8.1-15.5c0.6-1.1-0.5-2.4-1.7-1.9L50,40.3
							c-6.8,2.5-12.2,7.8-14.8,14.5c-1.8,4.4-1,9.4,2,13.1l0.9,1.1C39.3,70.6,39.1,72.8,37.6,74.1"/>
						<path class="st2" d="M75.2,103.3l-7.3,14.9c-0.9,1.7-1.5,3.6-1.8,5.5l-4.3,22.5c-1.5,8.2,1.2,16.5,7.3,22.2l10,9.3
							c2.1,1.9,5.4,0.2,5.1-2.6L79,133.5c-0.1-0.8-0.2-1.5-0.2-2.3l-1.1-27.3C77.7,102.4,75.8,102.1,75.2,103.3"/>
						<path class="st1" d="M86.9,118.8c-0.9-1.4-3.1-0.6-2.9,1.1l2,20.3c0.2,2.4,0.8,4.7,1.6,6.9l10.1,26.3
							c3.7,9.5,11.9,16.5,22,18.5l16.4,3.3c3.4,0.7,5.8-3.3,3.6-6L86.9,118.8z"/>
					</g>
				</g>
			</g>
		</g>
	</g>
	<g>
		<rect class="st3" width="333.4" height="222.1"/>
	</g>
</g>
</svg>
