<svg width="80" height="84" viewBox="0 0 80 84" fill="none" xmlns="http://www.w3.org/2000/svg">
<ellipse cx="55.4672" cy="20.8" rx="20" ry="20" fill="#FE5455"/>
<path fill-rule="evenodd" clip-rule="evenodd" d="M37.6 6.93335C39.341 6.93335 41.0597 7.11296 42.7366 7.46623C43.4571 7.61803 43.9182 8.32522 43.7664 9.04578C43.6146 9.76635 42.9074 10.2274 42.1868 10.0756C40.6905 9.76037 39.156 9.60002 37.6 9.60002C25.3761 9.60002 15.4667 19.5094 15.4667 31.7333C15.4667 42.9641 23.8768 52.3799 34.9312 53.7076C35.6623 53.7954 36.1838 54.4592 36.096 55.1904C36.0082 55.9215 35.3443 56.443 34.6132 56.3552C22.2225 54.867 12.8 44.3178 12.8 31.7333C12.8 18.0367 23.9033 6.93335 37.6 6.93335ZM53.6184 48.934C54.0892 49.5002 54.0118 50.3409 53.4456 50.8117C49.4926 54.0983 44.6158 56.0914 39.4148 56.4679C38.6804 56.521 38.0419 55.9688 37.9887 55.2343C37.9355 54.4998 38.4878 53.8613 39.2223 53.8082C43.8631 53.4722 48.2123 51.6948 51.7407 48.7611C52.307 48.2904 53.1476 48.3677 53.6184 48.934ZM62.4002 31.7334C62.4002 22.0649 56.8166 13.4041 48.2383 9.3248C47.5733 9.00857 46.7778 9.29131 46.4616 9.95632C46.1453 10.6213 46.4281 11.4168 47.0931 11.733C54.7505 15.3744 59.7335 23.1037 59.7335 31.7334C59.7335 36.8442 57.9977 41.6858 54.8633 45.5864C54.402 46.1604 54.4934 46.9997 55.0674 47.4609C55.6415 47.9222 56.4807 47.8308 56.942 47.2568C60.4535 42.8868 62.4002 37.4572 62.4002 31.7334Z" fill="#000638"/>
<path fill-rule="evenodd" clip-rule="evenodd" d="M18.1333 31.7334C18.1333 20.9822 26.8489 12.2667 37.6 12.2667C48.3512 12.2667 57.0667 20.9822 57.0667 31.7334C57.0667 42.4845 48.3512 51.2001 37.6 51.2001C26.8489 51.2001 18.1333 42.4845 18.1333 31.7334ZM54.4 31.7334C54.4 22.455 46.8784 14.9334 37.6 14.9334C28.3216 14.9334 20.8 22.455 20.8 31.7334C20.8 41.0118 28.3216 48.5334 37.6 48.5334C46.8784 48.5334 54.4 41.0118 54.4 31.7334Z" fill="#000638"/>
<path fill-rule="evenodd" clip-rule="evenodd" d="M25.6 21.6001C25.6 19.98 26.9133 18.6667 28.5333 18.6667C30.1534 18.6667 31.4667 19.98 31.4667 21.6001C31.4667 23.2201 30.1534 24.5334 28.5333 24.5334C26.9133 24.5334 25.6 23.2201 25.6 21.6001ZM28.8 21.6001C28.8 21.4528 28.6806 21.3334 28.5333 21.3334C28.3861 21.3334 28.2667 21.4528 28.2667 21.6001C28.2667 21.7474 28.3861 21.8667 28.5333 21.8667C28.6806 21.8667 28.8 21.7474 28.8 21.6001Z" fill="#000638"/>
<path d="M33.8507 18.2937C36.2823 17.1932 38.6137 16.7989 40.8253 17.1379C43.1291 17.491 45.0231 18.6942 46.4438 20.6902C46.8708 21.2901 46.7306 22.1226 46.1307 22.5497C45.5308 22.9767 44.6983 22.8365 44.2713 22.2366C43.2611 20.8174 41.999 20.0156 40.4213 19.7738C38.7515 19.5178 36.9343 19.8252 34.9501 20.7231C34.2792 21.0267 33.4893 20.729 33.1857 20.0581C32.882 19.3872 33.1798 18.5973 33.8507 18.2937Z" fill="#000638"/>
<path fill-rule="evenodd" clip-rule="evenodd" d="M53.6044 54.139L59.2758 47.8436C59.7982 47.2637 60.7048 47.2546 61.2388 47.8237L73.0333 60.3959C74.8707 62.5239 74.8707 64.8963 73.0357 67.0335C71.1697 69.2069 68.648 69.3974 65.9543 67.6973C65.8791 67.6499 65.8089 67.5951 65.7446 67.5336L53.6737 55.9953C53.1525 55.4971 53.1218 54.6747 53.6044 54.139ZM60.2852 50.7052L56.4505 54.9612L67.4852 65.5084L67.5789 65.5658C69.0373 66.4291 70.0179 66.3598 70.8932 65.4287L71.012 65.2964C71.9883 64.1593 71.9883 63.2666 71.0512 62.1796L60.2852 50.7052Z" fill="#000638"/>
<path fill-rule="evenodd" clip-rule="evenodd" d="M52.4456 49.8667L55.7339 52.876L59.2982 49.8667L55.7339 46.4" fill="#000638"/>
<path d="M61.9208 50.7311C62.3996 50.1717 63.2413 50.1064 63.8007 50.5852C64.3228 51.0321 64.4146 51.7951 64.0351 52.3497L63.9466 52.4652L58.477 58.855C57.9981 59.4145 57.1565 59.4798 56.597 59.0009C56.0749 58.554 55.9832 57.791 56.3626 57.2364L56.4512 57.1209L61.9208 50.7311Z" fill="#000638"/>
</svg>
