<svg xmlns="http://www.w3.org/2000/svg" preserveAspectRatio="xMinYMin meet" viewBox="0 0 249 81">
  <g fill="none" transform="translate(-1 -1)">
    <path fill="#FFAD1D" d="M73.7261146 52.5477707C73.3375536 52.1103436 73.1322784 51.5401347 73.1528662 50.955414L73.1528662 33.7738854C73.1230976 33.1427159 73.3533003 32.5269239 73.7898089 32.0700637 74.795154 31.1991574 76.2876486 31.1991574 77.2929936 32.0700637 77.7295023 32.5269239 77.9597049 33.1427159 77.9299363 33.7738854L77.9299363 49.3630573 85.7802548 49.3630573C87.2770701 49.3630573 88.0254777 50.0159236 88.0254777 51.3216561 88.0254777 52.611465 87.2770701 53.2484076 85.7802548 53.2484076L75.3821656 53.2484076C74.7581508 53.2484076 74.1607733 52.9955055 73.7261146 52.5477707zM102.961783 49.2038217C103.229132 49.5671749 103.364001 50.0111185 103.343949 50.4617834 103.348558 50.8045169 103.242451 51.1395892 103.041401 51.4171975 102.817658 51.7349676 102.523339 51.9965839 102.181529 52.1815287 100.639688 52.9652378 98.9423909 53.3950022 97.2133758 53.4394904 95.7342625 53.4735928 94.2692356 53.1456017 92.9458599 52.4840764 91.7585535 51.8796928 90.781654 50.9305462 90.1433121 49.7611465 89.4541662 48.4925884 89.113516 47.064055 89.156051 45.6210191 89.1263693 44.2034546 89.4549916 42.8013329 90.111465 41.544586 90.7079545 40.3872375 91.6185629 39.4214407 92.7388535 38.7579618 93.9069986 38.0922474 95.2320505 37.7513627 96.5764331 37.7707006 97.8358781 37.7434607 99.0792795 38.0570619 100.175159 38.6783439 101.212653 39.2761777 102.049449 40.1683901 102.579618 41.2420382 103.198266 42.4544046 103.515096 43.7982006 103.503185 45.1592357 103.525915 45.5265376 103.412539 45.8893409 103.184713 46.1783439 102.946745 46.4203958 102.615953 46.5480697 102.27707 46.5286624L93.6305732 46.5286624C93.6718397 47.5074464 94.0615103 48.4392674 94.7292994 49.156051 95.4466018 49.7367919 96.3560059 50.0266644 97.2770701 49.9681529 97.8151815 49.9784485 98.3518336 49.9086837 98.8694268 49.7611465 99.4098037 49.5917209 99.9412678 49.3950792 100.461783 49.1719745 100.732484 49.044586 101.019108 48.9490446 101.273885 48.8535032 101.503066 48.7660742 101.745268 48.7176339 101.990446 48.7101911 102.375425 48.7061718 102.738088 48.8904764 102.961783 49.2038217zM94.5859873 41.7993631C93.9953769 42.476554 93.6577429 43.3375207 93.6305732 44.2356688L99.5541401 44.2356688C99.5541401 43.3496278 99.2632753 42.4880862 98.7261146 41.7834395 98.205682 41.2151332 97.4572198 40.9110705 96.6878981 40.955414 95.8990216 40.9244228 95.1343884 41.2314346 94.5859873 41.7993631zM127.547771 38.7579618C128.586355 39.4505487 129.408672 40.4218756 129.920382 41.5605096 130.502511 42.8505252 130.790772 44.2537578 130.764331 45.6687898 130.79378 47.0789657 130.50533 48.477675 129.920382 49.7611465 129.417975 50.8965953 128.599974 51.8638255 127.563694 52.5477707 126.529713 53.1964105 125.328612 53.528512 124.10828 53.5031847 123.147498 53.5115047 122.198277 53.2932929 121.33758 52.866242 120.535066 52.4561158 119.870641 51.819375 119.426752 51.0350318L119.426752 56.8312102C119.449193 57.3892049 119.228433 57.9294869 118.821656 58.3121019 118.375524 58.6822738 117.808607 58.8750256 117.229299 58.8535032 116.599961 58.8821686 115.982101 58.6781048 115.493631 58.2802548 115.039946 57.8800748 114.798582 57.2913835 114.840764 56.6878981L114.840764 40C114.810837 39.4048785 115.036846 38.8253674 115.461783 38.4076433 115.898476 38.0161413 116.46779 37.8054951 117.05414 37.8184713 117.641307 37.8005609 118.212396 38.0118638 118.646497 38.4076433 119.06736 38.8270008 119.28775 39.4069747 119.251592 40L119.251592 40.2547771C119.711961 39.4721543 120.385838 38.8369422 121.194268 38.4235669 122.066928 37.9806445 123.034211 37.7565847 124.012739 37.7707006 125.263884 37.7341064 126.496636 38.0783886 127.547771 38.7579618L127.547771 38.7579618zM125.270701 48.8216561C125.928907 47.8959217 126.2442 46.7698731 126.16242 45.6369427 126.216843 44.5069356 125.904009 43.3896718 125.270701 42.4522293 124.669332 41.6824845 123.730241 41.2545442 122.754777 41.3057325 121.787824 41.262614 120.85656 41.6751993 120.238854 42.4203822 119.595799 43.353285 119.282025 44.4739071 119.347134 45.6050955 119.274522 46.7370832 119.588972 47.8601193 120.238854 48.7898089 120.851843 49.541198 121.786395 49.95524 122.754777 49.9044586 123.716342 49.9553638 124.646651 49.5549777 125.270701 48.8216561L125.270701 48.8216561zM133.980892 34.7452229C133.501571 34.3125522 133.243964 33.6860988 133.280255 33.0414013 133.244189 32.4013644 133.502173 31.779856 133.980892 31.3535032 134.529145 30.9260293 135.213434 30.7111285 135.907643 30.7484076 136.599248 30.7136467 137.279446 30.934711 137.818471 31.3694268 138.282849 31.7682332 138.550306 32.3496617 138.550955 32.9617834 138.580925 33.6086624 138.317687 34.2345838 137.834395 34.6656051 136.695615 35.5308897 135.119671 35.5308897 133.980892 34.6656051L133.980892 34.7452229zM134.235669 52.8184713C133.791783 52.4113882 133.552445 51.8276373 133.582803 51.2261146L133.582803 40.0796178C133.549466 39.474309 133.796037 38.8872353 134.251592 38.4872611 134.705179 38.1306183 135.266978 37.9396065 135.843949 37.9458599 136.421961 37.9329715 136.985939 38.124724 137.436306 38.4872611 137.891861 38.8872353 138.138432 39.474309 138.105096 40.0796178L138.105096 51.2261146C138.138432 51.8314235 137.891861 52.4184972 137.436306 52.8184713 136.98746 53.1855162 136.423721 53.382825 135.843949 53.3757962 135.259817 53.3798858 134.692019 53.1831243 134.235669 52.8184713L134.235669 52.8184713zM142.420382 52.8184713C141.976497 52.4113882 141.737159 51.8276373 141.767516 51.2261146L141.767516 33.7101911C141.737159 33.1086685 141.976497 32.5249175 142.420382 32.1178344 142.872473 31.7566141 143.434063 31.5600574 144.012739 31.560328 144.59251 31.5534808 145.15625 31.7507895 145.605096 32.1178344 146.060651 32.5178086 146.307222 33.1048823 146.273885 33.7101911L146.273885 51.2261146C146.307222 51.8314235 146.060651 52.4184972 145.605096 52.8184713 145.15625 53.1855162 144.59251 53.382825 144.012739 53.3759777 143.434063 53.3762483 142.872473 53.1796916 142.420382 52.8184713L142.420382 52.8184713zM152.993631 52.5477707C151.813147 51.933892 150.838719 50.9871467 150.191083 49.8248408 148.896288 47.20541 148.896288 44.1321696 150.191083 41.5127389 150.834147 40.3469356 151.809783 39.3990169 152.993631 38.7898089 154.292935 38.1421759 155.730085 37.8197735 157.181529 37.8503185 158.637826 37.8222415 160.079556 38.1444463 161.38535 38.7898089 162.549374 39.3694084 163.518132 40.2772731 164.171975 41.4012739 165.489245 44.0154075 165.489245 47.0992422 164.171975 49.7133758 163.548555 50.9163884 162.577594 51.9039948 161.38535 52.5477707 160.084938 53.2113987 158.641256 53.5449768 157.181529 53.5191083 155.726682 53.5469642 154.287677 53.2132026 152.993631 52.5477707L152.993631 52.5477707zM160.557325 45.6687898C160.632045 44.5389156 160.323481 43.4168658 159.681529 42.4840764 159.067047 41.7471297 158.139418 41.3453541 157.181529 41.4012739 154.936306 41.4012739 153.821656 42.8503185 153.821656 45.7324841 153.821656 48.6146497 154.936306 50.0477707 157.181529 50.0477707 159.426752 50.0477707 160.557325 48.4713376 160.557325 45.589172L160.557325 45.6687898zM177.547771 50.4617834C177.867682 50.8234244 178.019134 51.3038159 177.964481 51.7835453 177.909829 52.2632746 177.654203 52.6972902 177.261146 52.977707 176.643683 53.3132601 175.934779 53.4416444 175.238854 53.343949L174.378981 53.343949C170.812102 53.0573248 169.028662 51.1889597 169.028662 47.7388535L169.028662 41.5923567 167.786624 41.5923567C167.218721 41.6485238 166.65043 41.4894023 166.194268 41.1464968 165.845269 40.8241808 165.65841 40.3628721 165.684713 39.888535 165.643574 39.3979216 165.831692 38.9158687 166.194268 38.5828025 166.65043 38.2398971 167.218721 38.0807756 167.786624 38.1369427L169.028662 38.1369427 169.028662 35.7484076C169.002785 35.1539502 169.228175 34.5760288 169.649682 34.156051 170.12297 33.7533219 170.733031 33.5480678 171.353503 33.5828025 171.96903 33.5489102 172.573825 33.7543122 173.041401 34.156051 173.452152 34.5818931 173.670788 35.1572497 173.646497 35.7484076L173.646497 38.2165605 175.796178 38.2165605C177.181529 38.2165605 177.882166 38.7898089 177.882166 39.9681529 177.90444 40.4450445 177.711568 40.9067688 177.356688 41.2261146 176.899149 41.5662249 176.331959 41.7250383 175.764331 41.6719745L173.61465 41.6719745 173.61465 48.0414013C173.57701 48.5410071 173.730703 49.0362392 174.044586 49.4267516 174.375144 49.7674429 174.827885 49.9622937 175.302548 49.9681529L176.16242 49.9681529C176.669058 49.9575844 177.161973 50.1332209 177.547771 50.4617834L177.547771 50.4617834zM191.369427 39.3789809C192.536946 40.7401166 193.11046 42.5122742 192.961783 44.2993631L192.961783 51.2261146C192.998366 51.8132268 192.790945 52.3893967 192.388535 52.8184713 191.952843 53.2099444 191.381418 53.4156574 190.796178 53.3917197 190.205625 53.4123241 189.63166 53.1942173 189.203822 52.7866242 188.788778 52.3645005 188.574318 51.7848801 188.61465 51.1942675L188.61465 50.955414C188.30597 51.7160838 187.743271 52.3463071 187.022293 52.7388535 186.260115 53.1848345 185.389234 53.4108227 184.506369 53.3917197 183.546681 53.4067962 182.597109 53.1939611 181.735669 52.7707006 180.934684 52.3856502 180.252509 51.7914977 179.761146 51.0509554 179.283856 50.3229412 179.034383 49.4691896 179.044586 48.5987261 178.992243 47.658556 179.293262 46.7327802 179.888535 46.0031847 180.625157 45.2715547 181.571261 44.7873724 182.595541 44.6178344 184.284407 44.2917801 186.00335 44.1476451 187.72293 44.1878981L188.519108 44.1878981 188.519108 43.6305732C188.646464 42.9490143 188.429511 42.2484939 187.939235 41.7582174 187.448958 41.2679408 186.748438 41.0509879 186.066879 41.1783439 184.757273 41.2819396 183.472564 41.5937099 182.261146 42.1019108 181.892426 42.2996806 181.484687 42.4138477 181.066879 42.4363057 180.655854 42.454037 180.26051 42.2770173 180 41.9585987 179.716644 41.6089403 179.574608 41.1657892 179.601911 40.7165605 179.629234 40.3893373 179.744802 40.0756527 179.936306 39.8089172 180.172355 39.4985557 180.47773 39.2477122 180.828025 39.0764331 181.649028 38.6433546 182.52876 38.3322299 183.43949 38.1528662 184.443851 37.9332592 185.46873 37.821163 186.496815 37.8184713 188.264871 37.6614451 190.021544 38.2240398 191.369427 39.3789809L191.369427 39.3789809zM187.72293 49.3630573C188.294462 48.7148034 188.591409 47.8696454 188.550955 47.0063694L188.550955 46.4968153 188.025478 46.4968153C186.854139 46.4308963 185.680147 46.5655285 184.55414 46.8949045 183.929631 47.0846101 183.515444 47.676306 183.550955 48.3280255 183.533043 48.8555683 183.741681 49.3655711 184.124204 49.7292994 184.510041 50.0825038 185.018564 50.2710573 185.541401 50.2547771 186.363167 50.2861586 187.158441 49.961083 187.72293 49.3630573L187.72293 49.3630573zM211.16242 38.4235669C211.587358 38.8412909 211.813367 39.420802 211.783439 40.0159236L211.783439 51.5764331C211.92998 53.6378177 211.161078 55.6590964 209.681529 57.1019108 207.906257 58.4402001 205.704074 59.08557 203.487261 58.9171975 201.529882 58.9899499 199.585732 58.568261 197.834395 57.6910828 197.493631 57.5116423 197.199256 57.2554272 196.974522 56.9426752 196.777258 56.6452883 196.672024 56.2963546 196.671975 55.9394904 196.656911 55.4918592 196.785228 55.0511194 197.038217 54.6815287 197.270404 54.3716639 197.638408 54.1935974 198.025478 54.2038217 198.295823 54.2053193 198.564339 54.2482819 198.821656 54.3312102L199.77707 54.6496815C200.365259 54.8798701 200.966008 55.0765754 201.576433 55.2388535 202.159073 55.3883913 202.758351 55.463301 203.359873 55.4617834 204.408903 55.5426233 205.44974 55.2241156 206.273885 54.5700637 206.959151 53.8424104 207.30601 52.8596436 207.229299 51.8630573L207.229299 50.2707006C206.782508 51.0679798 206.105404 51.7117835 205.286624 52.1178344 204.39469 52.5721198 203.405305 52.8017009 202.404459 52.7866242 201.185783 52.8100113 199.984382 52.4958836 198.933121 51.8789809 197.903985 51.2473033 197.075614 50.3360949 196.544586 49.2515924 195.410288 46.7466288 195.410288 43.8743903 196.544586 41.3694268 197.636076 39.1402963 199.923043 37.7482292 202.404459 37.8025478 203.387883 37.79027 204.359895 38.0141604 205.238854 38.455414 206.053151 38.8663202 206.732793 39.5017575 207.197452 40.2866242L207.197452 39.9681529C207.154436 39.370981 207.382513 38.7861677 207.818471 38.3757962 208.286719 37.9878838 208.8831 37.7890903 209.490446 37.8184713 210.106201 37.7888789 210.708222 38.0067528 211.16242 38.4235669zM206.289809 48.1847134C206.942593 47.3591933 207.265997 46.320897 207.197452 45.2707006 207.259976 44.2212291 206.937226 43.1850305 206.289809 42.3566879 205.650545 41.636592 204.7198 41.2443912 203.757962 41.2898089 202.790652 41.2394832 201.853014 41.6321188 201.210191 42.3566879 200.557085 43.1827941 200.228603 44.2192098 200.286624 45.2707006 200.224093 46.3227575 200.553072 47.3607423 201.210191 48.1847134 201.856045 48.9033891 202.793249 49.2899858 203.757962 49.2356688 204.717214 49.2850838 205.64753 48.8989152 206.289809 48.1847134zM228.423567 49.2038217C228.690916 49.5671749 228.825785 50.0111185 228.805732 50.4617834 228.810341 50.8045169 228.704235 51.1395892 228.503185 51.4171975 228.279441 51.7349676 227.985123 51.9965839 227.643312 52.1815287 226.872772 52.5731212 226.060959 52.8775508 225.22293 53.089172 224.390372 53.3055655 223.535224 53.4231482 222.675159 53.4394904 221.190942 53.4736198 219.720751 53.145696 218.39172 52.4840764 217.207872 51.8748685 216.232237 50.9269497 215.589172 49.7611465 214.912565 48.488417 214.577875 47.0618662 214.617834 45.6210191 214.583243 44.2048266 214.906371 42.8027818 215.557325 41.544586 216.146562 40.3924365 217.045404 39.4274216 218.152866 38.7579618 219.315159 38.0920968 220.63515 37.7510992 221.974522 37.7707006 223.239074 37.742953 224.487735 38.0564935 225.589172 38.6783439 226.623118 39.2806442 227.458777 40.1716447 227.993631 41.2420382 228.590247 42.4599188 228.885167 43.80344 228.853503 45.1592357 228.876234 45.5265376 228.762858 45.8893409 228.535032 46.1783439 228.297063 46.4203958 227.966271 46.5480697 227.627389 46.5286624L219.044586 46.5286624C219.085852 47.5074464 219.475523 48.4392674 220.143312 49.156051 220.858317 49.7410399 221.769434 50.0314587 222.691083 49.9681529 223.229129 49.9772846 223.765611 49.9075419 224.283439 49.7611465 224.745223 49.6178344 225.270701 49.410828 225.875796 49.1719745 226.16242 49.044586 226.433121 48.9490446 226.703822 48.8535032 226.927466 48.7660613 227.164441 48.7175892 227.404459 48.7101911 227.805536 48.6929929 228.188421 48.8784527 228.423567 49.2038217L228.423567 49.2038217zM220.031847 41.7993631C219.452587 42.4820944 219.121458 43.3407845 219.092357 44.2356688L225.000055 44.2356688C225.004627 43.3514644 224.719371 42.4901044 224.187898 41.7834395 223.668807 41.2132065 222.919385 40.9087537 222.149682 40.955414 221.356386 40.9259252 220.587438 41.2323483 220.031847 41.7993631L220.031847 41.7993631z"/>
    <path fill="#000638" d="M84.6178344 64.0764331C84.7966029 64.2523816 84.8945892 64.4944652 84.888535 64.7452229L84.888535 79.9522293C84.8996465 80.2132551 84.8015626 80.4671193 84.6178344 80.6528662 84.4261456 80.8374452 84.1671241 80.9352978 83.9012739 80.9235669 83.6395967 80.9387341 83.3841391 80.8400345 83.2006369 80.6528662 83.0210351 80.4654952 82.9285639 80.2111995 82.9458599 79.9522293L82.9458599 78.6624204C82.6101169 79.3854799 82.0522296 79.9824194 81.3535032 80.366242 80.6323942 80.7799968 79.8120787 80.9892047 78.9808917 80.9713376 78.0222966 80.9940124 77.0790623 80.7276874 76.2738854 80.2070064 75.4932145 79.6584481 74.8810907 78.902944 74.5063694 78.0254777 74.0565263 77.0250506 73.8335772 75.9374941 73.8535032 74.8407643 73.8292831 73.7436426 74.0524243 72.6551489 74.5063694 71.656051 74.8963049 70.7951444 75.5266787 70.0652378 76.3216561 69.5541401 77.1332289 69.0495041 78.0731263 68.7896501 79.0286624 68.8057325 79.8598494 68.7878653 80.6801649 68.9970733 81.4012739 69.410828 82.0966144 69.7989913 82.6533282 70.3946751 82.9936306 71.1146497L82.9936306 64.7452229C82.9788955 64.4913733 83.0713197 64.2429832 83.2484076 64.0605096 83.6552083 63.7084376 84.2588044 63.7084376 84.6656051 64.0605096L84.6178344 64.0764331zM82.022293 78.2006369C82.7141678 77.2234192 83.0410277 76.0343255 82.9458599 74.8407643 83.0054142 73.7054799 82.6799913 72.5833321 82.022293 71.656051 81.3811371 70.8836793 80.4133563 70.4587999 79.410828 70.5095541 78.3973411 70.4485109 77.4154864 70.8743756 76.7675159 71.656051 76.0867239 72.5733837 75.7486881 73.7001698 75.8121019 74.8407643 75.7414145 76.0216851 76.0787244 77.1910259 76.7675159 78.1528662 77.4089675 78.9464295 78.3918309 79.3845735 79.410828 79.3312102 80.4106447 79.3858442 81.3779408 78.9670757 82.022293 78.2006369zM97.9458599 78.3121019C98.0760486 78.4617243 98.1443728 78.6553094 98.1369427 78.8535032 98.1369427 79.2675159 97.866242 79.6178344 97.3089172 79.9522293 96.7387632 80.2943703 96.1219138 80.5518379 95.477707 80.7165605 94.8694149 80.8772116 94.2437401 80.962774 93.6146497 80.9713376 92.0329749 81.0546649 90.4876196 80.4780399 89.3471338 79.3789809 88.2393981 78.1795432 87.6649078 76.5824602 87.7547771 74.9522293 87.7284336 73.851493 87.9630706 72.7601581 88.4394904 71.7675159 88.8756771 70.879982 89.5548749 70.134521 90.3980892 69.6178344 91.2574178 69.1000954 92.2453306 68.8351802 93.2484076 68.8535032 94.6159539 68.7899427 95.9407987 69.3385568 96.8630573 70.3503185 97.8012891 71.4700801 98.2793653 72.9043089 98.2006369 74.3630573 98.2194954 74.6116361 98.152003 74.8591084 98.0095541 75.0636943 97.8417999 75.2185404 97.6156461 75.293925 97.388535 75.2707006L89.7133758 75.2707006C89.8566879 78.0095541 91.1624204 79.3949045 93.6146497 79.3949045 94.1560379 79.4008292 94.6944939 79.3146762 95.2070064 79.1401274 95.699947 78.9452464 96.1787995 78.7164613 96.6401274 78.455414 96.8946521 78.2790762 97.1814318 78.1546246 97.4840764 78.089172 97.6639656 78.0890881 97.8340369 78.1711915 97.9458599 78.3121019zM90.8598726 71.3216561C90.1923113 72.0702207 89.8041358 73.0265951 89.7611465 74.0286624L96.544586 74.0286624C96.5687232 73.0455682 96.2538584 72.084106 95.6528662 71.3057325 95.0490564 70.6631114 94.1926428 70.3193808 93.3121019 70.366242 92.3951769 70.3162797 91.501312 70.6645388 90.8598726 71.3216561zM110.286624 80.4299363C109.831069 80.0299621 109.584498 79.4428884 109.617834 78.8375796L109.617834 61.3216561C109.584498 60.7163472 109.831069 60.1292735 110.286624 59.7292994 111.260568 58.9887548 112.608859 58.9887548 113.582803 59.7292994 114.038358 60.1292735 114.284929 60.7163472 114.251592 61.3216561L114.251592 78.8375796C114.284929 79.4428884 114.038358 80.0299621 113.582803 80.4299363 112.608859 81.1704809 111.260568 81.1704809 110.286624 80.4299363L110.286624 80.4299363zM121.878981 59.9044586C122.414389 60.6354666 122.673864 61.5323473 122.611465 62.4363057 122.618378 64.5281276 121.786759 66.5354834 120.302548 68.0095541 120.087237 68.2782138 119.770069 68.4454478 119.426752 68.4713376 119.090372 68.4758477 118.765231 68.3503547 118.519108 68.1210191 118.263901 67.9157235 118.117134 67.6045791 118.121019 67.2770701 118.124456 66.978238 118.244441 66.6925587 118.455414 66.4808917 119.080779 65.8337529 119.544526 65.0481118 119.808917 64.1878981 119.167288 64.1529063 118.563366 63.8737347 118.121019 63.4076433 117.684984 62.9494327 117.449961 62.3360819 117.468153 61.7038217 117.445877 61.0020899 117.703687 60.3203246 118.184713 59.8089172 118.654261 59.3199804 119.306289 59.048783 119.984076 59.0605096 120.710817 59.0408904 121.407414 59.3511395 121.878981 59.9044586L121.878981 59.9044586zM126.178344 62.3566879C125.699024 61.9240172 125.441417 61.2975638 125.477707 60.6528662 125.426548 59.996512 125.685869 59.3541034 126.178344 58.9171975 126.726597 58.4897235 127.410887 58.2748228 128.105096 58.3121019 128.796701 58.277341 129.476898 58.4984053 130.015924 58.933121 130.501974 59.3498094 130.771619 59.9653021 130.748408 60.6050955 130.778377 61.2519745 130.515139 61.8778959 130.031847 62.3089172 128.881114 63.1379538 127.329077 63.1379538 126.178344 62.3089172L126.178344 62.3566879zM126.433121 80.4299363C125.989236 80.0228532 125.749898 79.4391022 125.780255 78.8375796L125.780255 67.6910828C125.746918 67.085774 125.993489 66.4987003 126.449045 66.0987261 126.902631 65.7420833 127.46443 65.5510715 128.041401 65.5573248 128.619413 65.5444364 129.183391 65.7361889 129.633758 66.0987261 130.089313 66.4987003 130.335884 67.085774 130.302548 67.6910828L130.302548 78.8375796C130.335884 79.4428884 130.089313 80.0299621 129.633758 80.4299363 129.184912 80.7969812 128.621173 80.9942899 128.041401 80.9872611 127.457269 80.9913508 126.889471 80.7945893 126.433121 80.4299363L126.433121 80.4299363zM147.420382 66.9585987C148.402671 68.3489904 148.869994 70.0381095 148.742038 71.7356688L148.742038 78.8216561C148.776448 79.4206464 148.54311 80.0039918 148.105096 80.4140127 147.643482 80.8275288 147.03587 81.0396199 146.417197 81.0031847 145.798025 81.0432492 145.189046 80.8306813 144.729299 80.4140127 144.302603 79.9974506 144.076271 79.4171133 144.10828 78.8216561L144.10828 71.9426752C144.167667 71.1539014 143.97231 70.3668932 143.550955 69.6974522 143.101287 69.2039302 142.449115 68.9454115 141.783439 68.9968153 140.912244 68.9590362 140.066373 69.2950668 139.458599 69.9203822 138.862336 70.5939014 138.553656 71.4742092 138.598726 72.3726115L138.598726 78.7420382C138.630735 79.3374955 138.404403 79.9178327 137.977707 80.3343949 137.516093 80.7479109 136.908481 80.960002 136.289809 80.9235669 135.666712 80.9572791 135.055162 80.7458088 134.585987 80.3343949 134.159291 79.9178327 133.932959 79.3374955 133.964968 78.7420382L133.964968 67.5477707C133.930019 66.9454719 134.170134 66.3598265 134.617834 65.955414 135.096535 65.5623507 135.702715 65.3584021 136.321656 65.3821656 136.906722 65.3393862 137.483323 65.5411965 137.914013 65.9394904 138.316528 66.3183987 138.536905 66.8519431 138.519108 67.4044586L138.519108 67.8184713C139.030211 67.0235965 139.745037 66.3802531 140.589172 65.955414 141.480145 65.5176335 142.462884 65.2992471 143.455414 65.3184713 144.958395 65.229763 146.419267 65.8340597 147.420382 66.9585987L147.420382 66.9585987zM155.079618 80.0955414C153.935888 79.4828614 153.003561 78.5394355 152.404459 77.388535 151.755362 76.1182397 151.432502 74.7064113 151.464968 73.2802548 151.437813 71.8318409 151.783251 70.4007418 152.468153 69.1242038 153.113619 67.9482046 154.087402 66.9854873 155.270701 66.3535032 156.557636 65.6842768 157.992487 65.3502084 159.442675 65.3821656 160.27646 65.3854551 161.106226 65.4978751 161.910828 65.7165605 162.692838 65.9208388 163.439184 66.2430025 164.124204 66.6719745 164.738756 67.0140417 165.108289 67.6730429 165.079618 68.3757962 165.099355 68.8388962 164.971074 69.2962459 164.713376 69.6815287 164.492011 70.0078309 164.120325 70.1996688 163.726115 70.1910828 163.469818 70.1911687 163.215841 70.1425348 162.977707 70.0477707 162.657021 69.9275086 162.343361 69.7892856 162.038217 69.633758 161.669487 69.4351563 161.286222 69.2648161 160.89172 69.1242038 160.524511 68.9907197 160.135874 68.9259469 159.745223 68.933121 158.748016 68.8616438 157.775121 69.2625942 157.117834 70.0159236 155.928358 71.9724669 155.928358 74.428807 157.117834 76.3853503 157.771974 77.1445861 158.745336 77.5516281 159.745223 77.4840764 160.128303 77.4940562 160.510375 77.4402432 160.875796 77.3248408 161.286567 77.1737678 161.685724 76.9928168 162.070064 76.7834395L162.993631 76.3694268C163.225752 76.2731557 163.474827 76.2244237 163.726115 76.2261146 164.118481 76.2235192 164.484924 76.4217588 164.697452 76.7515924 164.965115 77.1388923 165.099276 77.6028676 165.079618 78.0732484 165.109713 78.7721919 164.738949 79.4272071 164.124204 79.7611465 163.420999 80.1842153 162.659018 80.500813 161.863057 80.7006369 160.984433 80.9306376 160.0802 81.0483484 159.171975 81.0509554 157.749118 81.0826397 156.341356 80.7539794 155.079618 80.0955414zM168.009554 80.4299363C167.559895 80.0269034 167.319375 79.440271 167.356688 78.8375796L167.356688 61.3216561C167.319375 60.7189647 167.559895 60.1323322 168.009554 59.7292994 168.461645 59.3680791 169.023235 59.1715224 169.601911 59.1719043 170.181239 59.167633 170.744092 59.3646316 171.194268 59.7292994 171.638153 60.1363825 171.877491 60.7201334 171.847134 61.3216561L171.847134 78.8375796C171.877491 79.4391022 171.638153 80.0228532 171.194268 80.4299363 170.744092 80.7946041 170.181239 80.9916027 169.601911 80.9873314 169.023235 80.9877133 168.461645 80.7911566 168.009554 80.4299363L168.009554 80.4299363zM189.490446 66.0191083C189.913654 66.4379706 190.139349 67.0166767 190.111465 67.611465L190.111465 78.8694268C190.153647 79.4729122 189.912284 80.0616035 189.458599 80.4617834 188.986887 80.8688113 188.37716 81.0796513 187.754777 81.0509554 187.170729 81.0862428 186.596987 80.885433 186.16242 80.4936306 185.762236 80.1142897 185.547137 79.5794485 185.573248 79.0286624L185.573248 78.7101911C185.13183 79.4620993 184.493044 80.0788585 183.726115 80.4936306 181.459331 81.5972055 178.749398 81.2127731 176.878981 79.522293 175.849843 78.1522837 175.357128 76.4532678 175.493631 74.7452229L175.493631 67.611465C175.465746 67.0166767 175.691442 66.4379706 176.11465 66.0191083 176.58955 65.6192375 177.198443 65.4143764 177.818471 65.4458599 178.433998 65.4119675 179.038793 65.6173695 179.506369 66.0191083 179.929577 66.4379706 180.155273 67.0166767 180.127389 67.611465L180.127389 74.8407643C180.066655 75.5497832 180.264626 76.2568212 180.684713 76.8312102 181.141459 77.2884233 181.776312 77.5213969 182.420382 77.4681529 183.248967 77.4938142 184.048876 77.1634172 184.617834 76.5605096 185.197234 75.8844183 185.498811 75.0138288 185.461783 74.1242038L185.461783 67.611465C185.427693 67.0187563 185.647772 66.439602 186.066879 66.0191083 186.534456 65.6173695 187.13925 65.4119675 187.754777 65.4458599 188.38559 65.4061169 189.007388 65.6114813 189.490446 66.0191083zM196.050955 80.7324841C195.192652 80.5557674 194.372923 80.2267974 193.630573 79.7611465 193.327351 79.5824326 193.07938 79.3234412 192.914013 79.0127389 192.758386 78.7068215 192.676583 78.3687024 192.675159 78.0254777 192.657734 77.5970057 192.799543 77.1772512 193.073248 76.8471338 193.310401 76.5433553 193.675132 76.3668725 194.06051 76.3694268 194.332092 76.3718889 194.601294 76.4203452 194.856688 76.5127389 195.111465 76.6082803 195.398089 76.7038217 195.684713 76.8312102 196.226567 77.0908302 196.791703 77.2987576 197.372611 77.4522293 198.03756 77.6264763 198.72361 77.7068728 199.410828 77.6910828 199.987336 77.7210337 200.562161 77.6060687 201.082803 77.3566879 201.442998 77.1881152 201.677188 76.8306666 201.687898 76.433121 201.697035 76.1801436 201.605402 75.9338804 201.433121 75.7484076 201.148394 75.5197059 200.816742 75.3565983 200.461783 75.2707006 199.984076 75.1273885 199.251592 74.9522293 198.216561 74.7452229 196.798288 74.5500821 195.451533 74.0026206 194.299363 73.1528662 193.484568 72.4096727 193.046222 71.3401077 193.105096 70.2388535 193.098898 69.3394559 193.396241 68.4642575 193.949045 67.7547771 194.553829 66.9844376 195.349903 66.3860096 196.257962 66.0191083 197.309268 65.5923877 198.435582 65.3812038 199.570064 65.3980892 200.440782 65.3974896 201.307896 65.5098933 202.149682 65.7324841 202.937788 65.9335466 203.689862 66.2558639 204.378981 66.6878981 204.993533 67.0299652 205.363066 67.6889665 205.334395 68.3917197 205.354698 68.8351661 205.213229 69.2708904 204.936306 69.6178344 204.710822 69.929094 204.349316 70.1128103 203.964968 70.111465 203.36308 70.0775382 202.780821 69.885283 202.27707 69.5541401 201.825075 69.3236167 201.356717 69.1266935 200.875796 68.9649682 200.394982 68.8237463 199.896014 68.753998 199.394904 68.7579618 198.865937 68.7320941 198.340724 68.8592508 197.882166 69.1242038 197.530701 69.3316331 197.323165 69.7167786 197.343212 70.1243967 197.363259 70.5320148 197.607585 70.8949376 197.977707 71.066879 198.774048 71.3941685 199.608764 71.6188997 200.461783 71.7356688 201.559513 71.9261892 202.629292 72.2524717 203.646497 72.7070064 204.334128 73.0065811 204.920349 73.4987858 205.334395 74.1242038 205.707034 74.7891426 205.888873 75.5440484 205.859873 76.3057325 205.890359 77.6937618 205.212302 79.0018733 204.06051 79.7770701 202.645559 80.7034662 200.972371 81.1552271 199.283439 81.066879 198.196959 81.0739488 197.112981 80.9618132 196.050955 80.7324841zM208.917197 62.3566879C208.443538 61.9200548 208.187081 61.2963978 208.216561 60.6528662 208.17275 59.9976654 208.430813 59.3583745 208.917197 58.9171975 209.471678 58.489903 210.160822 58.2752518 210.859873 58.3121019 211.551478 58.277341 212.231675 58.4984053 212.770701 58.933121 213.245207 59.3569475 213.507598 59.9691932 213.487261 60.6050955 213.516741 61.2486271 213.260284 61.8722841 212.786624 62.3089172 211.629333 63.135772 210.074489 63.135772 208.917197 62.3089172L208.917197 62.3566879zM209.187898 80.4299363C208.732343 80.0299621 208.485772 79.4428884 208.519108 78.8375796L208.519108 67.6910828C208.484779 67.0822508 208.738316 66.492629 209.203822 66.0987261 209.657408 65.7420833 210.219207 65.5510715 210.796178 65.5573248 211.373769 65.5471479 211.936849 65.7385949 212.388535 66.0987261 212.832421 66.5058092 213.071758 67.0895602 213.041401 67.6910828L213.041401 78.8375796C213.071758 79.4391022 212.832421 80.0228532 212.388535 80.4299363 211.409568 81.1731136 210.0554 81.1731136 209.076433 80.4299363L209.187898 80.4299363zM219.745223 80.0796178C218.568391 79.458966 217.599505 78.5066895 216.958599 77.3407643 216.27715 76.0692698 215.936997 74.6428198 215.971338 73.2006369 215.938576 71.7535464 216.278554 70.3223509 216.958599 69.044586 217.595092 67.8793167 218.56555 66.9310402 219.745223 66.3216561 222.407724 65.0686804 225.490365 65.0686804 228.152866 66.3216561 229.311477 66.9432511 230.26338 67.8896193 230.89172 69.044586 231.566239 70.3238305 231.900714 71.754945 231.863057 73.2006369 231.903017 74.641484 231.568326 76.0680348 230.89172 77.3407643 230.246366 78.5033133 229.278629 79.4544612 228.105096 80.0796178 225.453162 81.3790093 222.349385 81.3790093 219.697452 80.0796178L219.745223 80.0796178zM227.324841 73.2484076C227.393388 72.1191684 227.085368 70.999094 226.449045 70.0636943 225.831472 69.3308906 224.906026 68.9300606 223.949045 68.9808917 221.703822 68.9808917 220.573248 70.4299363 220.573248 73.3121019 220.573248 76.1942675 221.703822 77.6273885 223.949045 77.6273885 226.194268 77.6273885 227.324841 76.0828025 227.324841 73.2484076zM248.200637 66.9585987C249.177301 68.3510657 249.638945 70.0400097 249.506369 71.7356688L249.506369 78.8216561C249.538378 79.4171133 249.312047 79.9974506 248.88535 80.4140127 248.417942 80.8284578 247.805109 81.0403722 247.181529 81.0031847 246.562857 81.0396199 245.955244 80.8275288 245.493631 80.4140127 245.077949 79.9913152 244.858469 79.4137378 244.888535 78.8216561L244.888535 71.9426752C244.951433 71.1514303 244.7498 70.3616986 244.315287 69.6974522 243.865618 69.2039302 243.213446 68.9454115 242.547771 68.9968153 241.681335 68.9595227 240.840553 69.2958353 240.238854 69.9203822 239.630727 70.5877779 239.315301 71.470972 239.363057 72.3726115L239.363057 78.7420382C239.393123 79.33412 239.173644 79.9116973 238.757962 80.3343949 238.296348 80.7479109 237.688736 80.960002 237.070064 80.9235669 236.446484 80.9607543 235.83365 80.74884 235.366242 80.3343949 234.93546 79.9194699 234.703509 79.3395923 234.729299 78.7420382L234.729299 67.5477707C234.693535 66.9420443 234.940536 66.3539468 235.398089 65.955414 235.874547 65.5583225 236.482321 65.353838 237.101911 65.3821656 237.686465 65.3431972 238.261601 65.5444948 238.694268 65.9394904 239.090922 66.321222 239.305349 66.8543912 239.283439 67.4044586L239.283439 67.8184713C239.798627 67.0270801 240.512404 66.3846811 241.353503 65.955414 242.246276 65.52278 243.227765 65.3046712 244.219745 65.3184713 245.726984 65.2319267 247.1918 65.8354311 248.200637 66.9585987L248.200637 66.9585987z"/>
    <path fill="#FFD68E" d="M35.4936306,39.1719425 C34.4517398,39.1693751 33.4155006,39.3250794 32.4203822,39.633758 C27.4626222,41.1317164 24.3550394,46.0407407 25.1221399,51.1627345 C25.8892404,56.2847282 30.2986284,60.067966 35.477707,60.0478512 C36.5203945,60.0449698 37.5566153,59.8838992 38.5509554,59.5700637 C43.4813242,58.0520514 46.5612468,53.1576858 45.7965769,48.055904 C45.0319071,42.9541221 40.6523963,39.177798 35.4936306,39.1719425"/>
    <path fill="#FFAD1D" d="M32.611465 43.6624204C33.5875541 46.7433574 32.6043714 50.1086744 30.1231695 52.1795583 27.6419677 54.2504422 24.1550793 54.6159778 21.2983518 53.1046768 18.4416243 51.5933758 16.7819039 48.5051182 17.097836 45.2887367 17.4137681 42.0723552 19.6426638 39.3660606 22.7388535 38.4394904 26.903757 37.1930955 31.2984585 39.5180344 32.611465 43.6624204L32.611465 43.6624204zM55.2070064 68.6783439C56.4749355 72.8050022 54.1582848 77.1783329 50.0320292 78.4475714 45.9057735 79.7168099 41.5317079 77.4015471 40.2611601 73.2756944 38.9906123 69.1498417 41.304487 64.7750416 45.4299363 63.5031847 49.5581939 62.2396439 53.9306212 64.5540395 55.2070064 68.6783439L55.2070064 68.6783439z"/>
    <path fill="#FFC560" d="M6.89490446,57.1178344 C6.35538968,57.1204008 5.81907161,57.2008485 5.30254777,57.3566879 C2.61162358,58.186251 1.01499292,60.9497889 1.6403914,63.6953534 C2.26578988,66.440918 4.90179118,68.2403257 7.68652919,67.822615 C10.4712672,67.4049043 12.4633151,64.9112892 12.2556453,62.1030653 C12.0479755,59.2948415 9.71079427,57.1213754 6.89490446,57.1178344"/>
    <path fill="#FFEDBA" d="M56.6878981,47.4681529 C56.2889874,47.4727879 55.8925651,47.5317155 55.5095541,47.6433121 C53.6422146,48.24206 52.4850731,50.1071018 52.7779011,52.0460983 C53.0707291,53.9850949 54.727023,55.4252505 56.6878981,55.4458599 C57.0873843,55.4489067 57.4849148,55.3898143 57.866242,55.2707006 C59.7335815,54.6719527 60.8907231,52.8069109 60.5978951,50.8679144 C60.305067,48.9289179 58.6487732,47.4887622 56.6878981,47.4681529"/>
    <path fill="#FFDEA5" d="M13.8375796,16.5923567 C12.9533007,16.5942867 12.0738656,16.7229845 11.2261146,16.9745223 C6.74927299,18.3279278 4.07416257,22.9052726 5.0922706,27.4700588 C6.11037863,32.0348451 10.4770174,35.0416319 15.1046727,34.3644141 C19.732328,33.6871962 23.0542742,29.5552506 22.7216666,24.8901472 C22.3890591,20.2250438 18.5145045,16.6061866 13.8375796,16.5923567"/>
    <path fill="#FFF7E8" d="M49.3630573,1.11463585 C47.7100629,1.11248281 46.0665948,1.36491092 44.4904459,1.86305732 C36.6575481,4.27346461 31.7657437,12.0505745 32.9849579,20.1547628 C34.204172,28.2589511 41.1676714,34.2525198 49.3630573,34.2515924 C58.3136591,33.9740793 65.4257857,26.6380239 65.4257857,17.683121 C65.4257857,8.72821815 58.3136591,1.3921627 49.3630573,1.11463585"/>
    <path fill="#FFBD4A" d="M65.589172,10.4457455 C61.9289597,10.4520262 58.9208401,13.3357363 58.7601732,16.9924258 C58.5995063,20.6491154 61.3431141,23.7855438 64.9886805,24.11271 C68.6342469,24.4398762 71.8924653,21.8420732 72.3854508,18.2152072 C72.8784363,14.5883411 70.4318376,11.215105 66.8312102,10.5573248 C66.4216891,10.4807209 66.0057888,10.4433965 65.589172,10.4457455"/>
  </g>
</svg>
