<?xml version="1.0" encoding="UTF-8" standalone="no"?>
<svg
   xmlns:dc="http://purl.org/dc/elements/1.1/"
   xmlns:cc="http://creativecommons.org/ns#"
   xmlns:rdf="http://www.w3.org/1999/02/22-rdf-syntax-ns#"
   xmlns:svg="http://www.w3.org/2000/svg"
   xmlns="http://www.w3.org/2000/svg"
   xmlns:sodipodi="http://sodipodi.sourceforge.net/DTD/sodipodi-0.dtd"
   xmlns:inkscape="http://www.inkscape.org/namespaces/inkscape"
   inkscape:version="1.0 (4035a4fb49, 2020-05-01)"
   sodipodi:docname="logo-marianne-itou.svg"
   id="svg128"
   version="1.1"
   height="35.850662"
   width="207.75">
  <metadata
     id="metadata132">
    <rdf:RDF>
      <cc:Work
         rdf:about="">
        <dc:format>image/svg+xml</dc:format>
        <dc:type
           rdf:resource="http://purl.org/dc/dcmitype/StillImage" />
        <dc:title></dc:title>
      </cc:Work>
    </rdf:RDF>
  </metadata>
  <sodipodi:namedview
     inkscape:current-layer="_-Logo-_-Fond"
     inkscape:window-maximized="0"
     inkscape:window-y="479"
     inkscape:window-x="1147"
     inkscape:cy="19.500662"
     inkscape:cx="220"
     inkscape:zoom="3.0386364"
     showgrid="false"
     id="namedview130"
     inkscape:window-height="973"
     inkscape:window-width="1728"
     inkscape:pageshadow="2"
     inkscape:pageopacity="0"
     guidetolerance="10"
     gridtolerance="10"
     objecttolerance="10"
     borderopacity="1"
     bordercolor="#666666"
     pagecolor="#ffffff" />
  <defs
     id="defs109">
    <style
       id="style107">.cls-1{fill:#fff}</style>
  </defs>
  <g
     transform="translate(0,6.6236407e-4)"
     id="_-Logo-_-Fond">
    <g
       data-name="icon-custom/GouvFr/BlocMarqueCompact"
       id="icon-custom_GouvFr_BlocMarqueCompact">
      <g
         id="Bloc">
        <g
           id="RepFr">
          <path
             d="M 100.28,13 V 7.91 h 1.32 L 105,13 h 3.08 l -4,-5.61 a 3.48,3.48 0 0 0 1.49,-1.29 3.72,3.72 0 0 0 0.53,-2 3.39,3.39 0 0 0 -1.21,-2.76 5,5 0 0 0 -3.29,-1 H 97.71 V 13 Z m 1.45,-7.31 h -1.45 V 2.55 h 1.45 A 1.8,1.8 0 0 1 103,3 1.48,1.48 0 0 1 103.45,4.14 1.54,1.54 0 0 1 103,5.3 1.8,1.8 0 0 1 101.73,5.72 Z M 117.2,13 v -2.16 h -4.81 V 7.67 h 4.09 V 5.48 h -4.09 V 2.55 h 4.81 V 0.36 h -7.38 V 13 Z m 5.74,0 V 7.91 h 1.61 a 4.9,4.9 0 0 0 3.28,-1 3.38,3.38 0 0 0 1.17,-2.77 3.39,3.39 0 0 0 -1.21,-2.76 4.9,4.9 0 0 0 -3.28,-1 h -4.18 V 13 Z m 1.72,-7.31 h -1.72 V 2.55 h 1.72 a 1.8,1.8 0 0 1 1.27,0.42 1.46,1.46 0 0 1 0.47,1.14 1.51,1.51 0 0 1 -0.47,1.19 1.8,1.8 0 0 1 -1.27,0.42 z m 11.43,7.67 A 5,5 0 0 0 139.85,12 5.37,5.37 0 0 0 141.23,8.1 V 0.36 h -2.57 v 7.93 a 2.78,2.78 0 0 1 -0.68,2 2.83,2.83 0 0 1 -3.75,0 2.74,2.74 0 0 1 -0.69,-2 V 0.36 H 131 v 7.71 a 5.37,5.37 0 0 0 1.38,3.9 5,5 0 0 0 3.71,1.42 z M 148.47,13 a 5.38,5.38 0 0 0 3.44,-1 3.29,3.29 0 0 0 1.27,-2.73 3,3 0 0 0 -0.55,-1.76 3.58,3.58 0 0 0 -1.53,-1.21 3.14,3.14 0 0 0 1,-1.1 2.9,2.9 0 0 0 0.34,-1.4 3.07,3.07 0 0 0 -1.13,-2.52 4.79,4.79 0 0 0 -3.1,-0.92 h -3.6 V 13 Z m -0.22,-7.71 h -1.08 V 2.55 h 1.08 a 1.68,1.68 0 0 1 1.14,0.37 1.3,1.3 0 0 1 0.4,1 1.31,1.31 0 0 1 -0.4,1 1.68,1.68 0 0 1 -1.14,0.36 z m 0.37,5.52 h -1.45 V 7.53 h 1.45 A 2.16,2.16 0 0 1 150,8 a 1.5,1.5 0 0 1 0.51,1.21 1.57,1.57 0 0 1 -0.51,1.23 2.07,2.07 0 0 1 -1.4,0.45 z M 163.36,13 v -2.31 h -4.81 V 0.36 H 156 V 13 Z m 5,0 V 0.36 h -2.57 V 13 Z M 185,16.18 a 3.91,3.91 0 0 0 0.73,-0.06 2.35,2.35 0 0 0 0.61,-0.18 v -2.17 a 2.47,2.47 0 0 1 -0.45,0.11 4.14,4.14 0 0 1 -0.45,0 3.4,3.4 0 0 1 -1.28,-0.28 4.64,4.64 0 0 1 -1.38,-0.94 L 182,12 a 6.51,6.51 0 0 0 1.82,-2.32 6.72,6.72 0 0 0 0.67,-3 A 6.77,6.77 0 0 0 184,4.12 6.24,6.24 0 0 0 182.6,2 6.7,6.7 0 0 0 177.75,0 6.79,6.79 0 0 0 175,0.54 6.63,6.63 0 0 0 172.88,2 6.24,6.24 0 0 0 171.51,4.13 6.77,6.77 0 0 0 171,6.7 a 6.75,6.75 0 0 0 0.49,2.57 6.24,6.24 0 0 0 1.37,2.13 6.63,6.63 0 0 0 2.14,1.45 6.79,6.79 0 0 0 2.73,0.54 c 0.3,0 0.6,0 0.9,-0.05 a 5.68,5.68 0 0 0 0.84,-0.17 l 1.5,1.34 a 6.76,6.76 0 0 0 1.92,1.24 5,5 0 0 0 2.11,0.43 z m -7.2,-5.2 A 4.12,4.12 0 0 1 176.15,10.65 3.86,3.86 0 0 1 174.86,9.74 4.05,4.05 0 0 1 174,8.39 4.53,4.53 0 0 1 173.69,6.7 4.55,4.55 0 0 1 174,5 a 4.05,4.05 0 0 1 0.84,-1.35 3.86,3.86 0 0 1 1.29,-0.91 4.12,4.12 0 0 1 1.65,-0.33 4,4 0 0 1 1.64,0.33 3.82,3.82 0 0 1 1.28,0.91 4.05,4.05 0 0 1 0.81,1.35 4.55,4.55 0 0 1 0.31,1.7 4.53,4.53 0 0 1 -0.31,1.69 4.05,4.05 0 0 1 -0.84,1.35 3.82,3.82 0 0 1 -1.28,0.91 4,4 0 0 1 -1.64,0.35 z m 14.11,2.41 A 5,5 0 0 0 195.62,12 5.37,5.37 0 0 0 197,8.07 V 0.36 h -2.57 v 7.93 a 2.78,2.78 0 0 1 -0.68,2 2.83,2.83 0 0 1 -3.75,0 2.74,2.74 0 0 1 -0.69,-2 V 0.36 h -2.57 v 7.71 a 5.37,5.37 0 0 0 1.38,3.9 4.94,4.94 0 0 0 3.74,1.42 z M 207.75,13 v -2.16 h -4.81 V 7.67 H 207 V 5.48 h -4.09 V 2.55 h 4.81 V 0.36 h -7.38 V 13 Z"
             id="REPUBLIQUE" />
          <path
             d="m 100.28,32.93 v -5.35 h 4.09 v -2.19 h -4.09 v -2.93 h 4.82 v -2.19 h -7.39 v 12.66 z m 9.83,0 v -5.12 h 1.32 l 3.37,5.12 h 3.07 l -4,-5.61 a 3.42,3.42 0 0 0 1.51,-1.32 3.58,3.58 0 0 0 0.54,-2 3.45,3.45 0 0 0 -1.21,-2.77 5,5 0 0 0 -3.3,-1 h -3.87 v 12.7 z m 1.45,-7.31 h -1.45 v -3.16 h 1.45 a 1.77,1.77 0 0 1 1.26,0.41 1.46,1.46 0 0 1 0.46,1.14 1.53,1.53 0 0 1 -0.46,1.2 1.82,1.82 0 0 1 -1.26,0.41 z m 9.23,7.31 1.21,-3.29 h 5.06 l 1.22,3.29 H 131 l -4.8,-12.66 h -3.36 l -4.8,12.66 z m 5.48,-5.48 h -3.48 l 1.74,-4.76 z m 9.44,5.48 v -9.1 l 5.67,9.1 h 3.29 V 20.27 h -2.57 v 9.06 l -5.66,-9.06 h -3.3 v 12.66 z m 17.76,2.92 1.53,-2.63 a 6.4,6.4 0 0 0 2.5,-0.85 6,6 0 0 0 1.84,-1.66 l -2,-1.56 a 4.31,4.31 0 0 1 -1.34,1.26 3.81,3.81 0 0 1 -1.93,0.48 4.09,4.09 0 0 1 -2.94,-1.24 4.34,4.34 0 0 1 -0.84,-1.36 4.91,4.91 0 0 1 0,-3.38 4.34,4.34 0 0 1 0.84,-1.36 4.09,4.09 0 0 1 2.87,-1.24 3.81,3.81 0 0 1 1.93,0.48 4.31,4.31 0 0 1 1.39,1.26 l 2,-1.58 A 6.65,6.65 0 0 0 154,19.9 a 6.83,6.83 0 0 0 -2.73,0.55 6.49,6.49 0 0 0 -3.47,3.55 7,7 0 0 0 -0.49,2.58 6.86,6.86 0 0 0 0.39,2.3 6.65,6.65 0 0 0 1.11,2 6.48,6.48 0 0 0 1.72,1.48 6.61,6.61 0 0 0 2.25,0.83 l -1.59,2.66 z m 9.46,-2.92 1.21,-3.29 h 5.07 l 1.21,3.29 h 2.73 L 168.36,20.27 H 165 l -4.8,12.66 z m 5.48,-5.48 h -3.47 l 1.74,-4.76 z m 9.45,5.48 V 20.27 h -2.57 v 12.66 z m 7.29,0.37 a 4.85,4.85 0 0 0 1.63,-0.27 3.73,3.73 0 0 0 2.22,-1.94 3.87,3.87 0 0 0 0.35,-1.59 3.12,3.12 0 0 0 -0.91,-2.43 8.13,8.13 0 0 0 -2,-1.35 l -2,-1 a 1.38,1.38 0 0 1 -0.9,-1.29 1.23,1.23 0 0 1 0.4,-0.94 1.48,1.48 0 0 1 1.06,-0.38 2.34,2.34 0 0 1 1.35,0.42 5.57,5.57 0 0 1 1.19,1.15 l 1.9,-1.68 a 6.24,6.24 0 0 0 -1.91,-1.55 5.32,5.32 0 0 0 -2.53,-0.55 4.53,4.53 0 0 0 -1.65,0.29 4.13,4.13 0 0 0 -1.28,0.79 3.65,3.65 0 0 0 -0.83,1.18 3.45,3.45 0 0 0 -0.3,1.42 3,3 0 0 0 0.91,2.39 8.34,8.34 0 0 0 2,1.33 l 2,1 a 1.45,1.45 0 0 1 0.47,2.37 1.73,1.73 0 0 1 -1.2,0.39 3,3 0 0 1 -1.51,-0.42 4.35,4.35 0 0 1 -1.29,-1.14 l -1.86,1.72 a 5.92,5.92 0 0 0 2,1.55 6,6 0 0 0 2.69,0.53 z m 14.46,-0.37 v -2.19 h -4.81 v -3.16 h 4.08 v -2.19 h -4.08 v -2.93 h 4.81 v -2.19 h -7.38 v 12.66 z"
             id="FRANÇAISE" />
        </g>
      </g>
      <g
         data-name="icon-custom/GouvFr/Marianne"
         id="icon-custom_GouvFr_Marianne">
        <path
           id="path115"
           d="M 0,0.36 H 90.98 V 33.11 H 0 Z"
           class="cls-1" />
        <path
           d="m 37.38,29.29 1.09,-1.09 a 19.58,19.58 0 0 1 2.09,-2.2 3.12,3.12 0 0 1 0.65,-0.55 0.34,0.34 0 0 1 0.11,-0.22 c -0.22,0.11 -0.54,0.44 -0.76,0.55 0,0 -0.11,0 0,-0.11 a 1.4,1.4 0 0 0 0.65,-0.55 V 25 a 2.69,2.69 0 0 0 -2.08,1 h -0.22 c -1,0.22 -1.64,1.09 -2.52,1.53 v -0.11 c -0.44,0.11 -0.66,0.43 -1.09,0.43 a 7.19,7.19 0 0 1 -1.54,0 16.94,16.94 0 0 0 -2.3,0.44 5.36,5.36 0 0 0 -1.21,0.44 0.11,0.11 0 0 1 -0.11,0.11 l -0.43,0.43 c -0.44,0.11 -0.66,0.55 -1.1,0.77 H 28.5 l -1,1 h -0.1 c 0,-0.11 0.11,-0.11 0.11,-0.22 0,-0.11 0.11,-0.11 0.11,-0.22 0,-0.11 0.11,-0.22 0.22,-0.43 v -0.11 h -0.11 a 4.74,4.74 0 0 1 1.1,-0.77 h -0.11 l 0.11,-0.11 a 0.24,0.24 0 0 0 -0.22,0.22 c -0.11,0.11 -0.22,0.44 -0.55,0.44 H 28 v -0.11 a 0.11,0.11 0 0 1 0.11,-0.11 V 29 l 0.44,-0.44 c 0.22,-0.11 0.55,-0.22 0.66,-0.44 a 0.11,0.11 0 0 0 0.11,-0.11 1.79,1.79 0 0 0 -1,0.55 H 28.1 c 0,-0.11 0.22,-0.11 0.44,-0.22 h 0.11 c 2.08,-1.53 4.71,-1.2 7,-2.07 0.11,-0.11 0.44,-0.22 0.55,-0.44 0.11,-0.22 0.55,-0.44 1,-0.66 a 3.14,3.14 0 0 0 1.09,-1.52 v -0.11 a 12.57,12.57 0 0 1 -2.74,2.07 c -1.31,0.66 -2.74,0.55 -4,0.77 0,-0.11 0.11,-0.11 0.22,-0.11 0.11,0 0.11,-0.22 0.22,-0.44 h 0.22 a 0.11,0.11 0 0 1 0.11,-0.11 h 0.22 c -0.11,-0.22 -0.55,0.11 -0.77,0 0.11,-0.11 0,-0.22 0.11,-0.44 h 0.33 a 0.34,0.34 0 0 1 0.11,-0.21 c 1,-0.55 1.75,-1 2.74,-1.53 a 0.86,0.86 0 0 1 -0.55,0 c 0.11,0 0,-0.11 0.11,-0.11 a 13.31,13.31 0 0 0 1.86,-0.77 c -0.22,0 -0.44,0.11 -0.66,0 0.11,0 0.11,-0.11 0.44,-0.11 v -0.1 c 0,-0.11 0.22,0 0.44,-0.11 h -0.2 c 0.11,-0.22 0.55,-0.22 0.77,-0.44 0,-0.11 -0.22,0 -0.22,-0.11 -0.11,0 0,-0.11 0,-0.22 A 2.58,2.58 0 0 0 37.6,20 H 37.49 A 5.32,5.32 0 0 1 35,21.21 h -0.22 a 1.86,1.86 0 0 1 -1.1,0 1.37,1.37 0 0 1 -0.66,-0.54 c -0.54,-0.22 -1,-0.55 -1.53,-0.77 A 11.58,11.58 0 0 0 26.78,19.25 8.2,8.2 0 0 1 28.97,18.59 17.78,17.78 0 0 1 32,17.94 h -0.66 a 8.83,8.83 0 0 0 -2.74,0.44 c -0.66,0.1 -1.21,0.43 -1.75,0.54 -0.54,0.11 -0.55,0.55 -1,0.44 v -0.11 c 0.66,-0.77 1.31,-1.53 2.3,-1.53 a 16.47,16.47 0 0 1 3.29,0.11 8.5,8.5 0 0 1 2.3,0.44 c 0.22,0 0.44,0.54 0.66,0.54 0.44,0.11 0.77,0 1.09,0.22 v -0.44 c 0.22,-0.21 0.55,0 0.77,0 0.55,-0.21 -0.44,-0.76 -0.66,-1.31 v -0.11 c 0.55,0.44 0.77,1 1.54,1.21 0.22,0.1 1.09,0.21 1,0 -0.22,-0.66 -1,-1.21 -1.54,-1.86 V 16 c -0.11,0 -0.11,0 -0.11,-0.11 v -0.21 c -0.22,-0.11 -0.11,-0.44 -0.22,-0.55 -0.11,-0.11 0,-0.76 -0.11,-1.09 C 36.05,13.71 36.05,13.38 35.94,12.95 35.83,11.86 35.5,10.87 35.4,10 A 5.06,5.06 0 0 1 36.6,6.94 6.41,6.41 0 0 1 38.35,4.87 5.12,5.12 0 0 1 39.56,2.79 6.22,6.22 0 0 1 41.42,1.59 3.41,3.41 0 0 1 43,0.36 h 12.14 l 0.21,0.11 a 8,8 0 0 0 1,0.55 2.67,2.67 0 0 1 1.21,1 0.89,0.89 0 0 1 0.11,0.76 C 57.56,3 57.56,3.55 57.12,3.78 A 4.93,4.93 0 0 1 55.8,3.89 1.8,1.8 0 0 1 55,3.75 5.29,5.29 0 0 1 57.41,5.38 c 0,0.11 0.22,0.11 0.55,0.11 V 5.6 c -0.11,0.11 -0.22,0.11 -0.11,0.44 h 0.43 C 58.5,5.93 58.5,5.27 58.94,5.49 a 0.8,0.8 0 0 1 0.22,1 C 58.94,6.7 58.61,6.92 58.39,7.14 v 0.44 a 2,2 0 0 1 0.22,0.76 4.59,4.59 0 0 0 0.44,1.31 5.26,5.26 0 0 1 0.55,2.84 c 0,0.55 -0.22,1 0,1.53 0.22,0.53 0.44,0.76 0.66,1.31 0.22,0.55 0.55,0.65 0.65,1 0.44,0.66 1.1,1.2 0.77,2.08 -0.11,0.43 -0.77,0.43 -1.31,0.65 -0.54,0.22 0,0.76 0.11,1.09 0.22,0.55 -0.44,1 -0.77,1.09 0.11,0.11 0.44,0.11 0.44,0.22 0,0.11 0.44,0.55 0.11,0.77 -0.22,0.43 -1,0.54 -0.66,1.09 a 1.79,1.79 0 0 1 0,1.31 c -0.11,0.54 -0.66,0.76 -1.1,1 a 2.22,2.22 0 0 1 -1.2,0 c -0.11,0 -0.22,-0.11 -0.44,-0.11 -1.1,-0.11 -2.19,-0.43 -3.07,-0.43 a 1.59,1.59 0 0 0 -0.77,0.21 c -0.22,0.22 -0.55,0.44 -0.76,0.66 l -0.11,0.11 -0.11,0.11 c -0.11,0.22 -0.44,0.43 -0.55,0.65 v 0.11 a 2.88,2.88 0 0 0 -0.41,1.06 4.06,4.06 0 0 0 0,2.95 c 0.11,0.11 2.08,0.66 3.4,1.31 0.66,0.22 1.09,0.55 1.53,0.66 H 30.14 c 1.21,-0.77 2.31,-1.2 4.06,-2.08 a 7.79,7.79 0 0 0 3.18,-1.53 m -9.54,-4.36 h -0.22 c 0,-0.22 0.55,-0.22 0.77,-0.44 0.11,0 0.22,-0.11 0.44,-0.11 0.22,0 0.22,0.11 0.44,0.22 -0.44,0.33 -1,0 -1.43,0.33 M 18.2,23.4 a 36.87,36.87 0 0 0 1.86,-3.28 10.88,10.88 0 0 0 2.19,-1.74 11.52,11.52 0 0 1 3.51,-2.73 4.12,4.12 0 0 1 1.64,0 c -0.11,0.21 -0.54,0.11 -0.76,0.43 H 26.53 V 16 c -0.66,0.66 -1.54,1 -2.09,1.75 -0.55,0.75 -0.65,1.53 -1.53,1.64 -0.22,0 0,-0.11 0,-0.11 A 39,39 0 0 0 18.2,23.4 m 5.37,-4 c 0,0.11 -0.11,0.11 -0.11,0.22 0,0.11 -0.11,0.11 -0.22,0.21 h -0.11 c -0.11,-0.21 0,-0.43 0.44,-0.43 m 2.85,9.28 a 0.11,0.11 0 0 1 -0.11,0.11 c 0.11,0 0.11,0 0.11,0.11 a 0.56,0.56 0 0 1 -0.44,0.21 h -0.11 l -0.22,0.22 c -0.11,0 -0.44,0 -0.22,-0.11 l 0.44,-0.43 0.22,-0.22 0.11,-0.11 c -0.11,0.11 0.22,0.11 0.22,0.22 m -1.1,-0.55 a 3.49,3.49 0 0 0 -0.66,0.55 2.78,2.78 0 0 0 -0.76,0.43 h -0.11 a 1.47,1.47 0 0 0 -0.66,0.55 l -0.11,0.11 -0.11,0.11 -0.11,0.12 -0.11,0.11 h -0.33 c -0.11,0 -0.11,0.11 -0.22,0.11 l -0.44,0.43 v -0.11 c 0,-0.11 0.11,-0.11 0.11,-0.21 v -0.11 l 0.11,-0.11 C 22,30 22,30 22,29.84 a 0.11,0.11 0 0 1 0.11,-0.11 0.11,0.11 0 0 1 0.11,-0.11 v -0.33 c 0.11,-0.11 0.11,-0.22 0.22,-0.22 -0.11,0 -0.11,0.11 -0.22,0.11 a 0.11,0.11 0 0 1 -0.11,-0.11 l 0.11,-0.1 c 0.11,-0.11 0.11,-0.22 0.22,-0.22 a 0.11,0.11 0 0 0 0.11,-0.11 l 0.11,-0.11 c 0.55,-0.55 1.64,-0.55 2.41,-1 0.22,-0.11 0.66,0 1,0 0.11,0 0.44,0 0.55,0.11 -0.44,-0.22 -1,0.21 -1.32,0.43 m 1.21,-4.26 a 0.36,0.36 0 0 0 0.22,-0.1 H 26.2 V 23.6 a 4.53,4.53 0 0 0 -1,0.21 c -0.44,0.11 -0.77,0.44 -1.31,0.55 -0.54,0.11 -1.21,0.76 -2.09,1.09 v -0.11 c 0,-0.11 0.22,-0.22 0.44,-0.43 V 24.69 A 24,24 0 0 1 24,23.07 V 23 c 0.1,-0.22 0.54,-0.44 0.65,-0.65 A 0.86,0.86 0 0 1 25.31,21.8 0.11,0.11 0 0 1 25.2,21.69 c -0.22,0 -0.55,0.11 -0.77,0 0.11,-0.11 0.22,-0.11 0.44,-0.22 a 0.11,0.11 0 0 1 -0.11,-0.11 0.23,0.23 0 0 1 0.22,-0.21 1,1 0 0 0 0.77,-0.22 c -0.44,0 -1,0.11 -1.32,-0.11 a 2.77,2.77 0 0 1 1.65,-1.86 h 0.11 a 0.67,0.67 0 0 1 -0.55,0.66 4.15,4.15 0 0 1 1.53,0.43 c 0,0.11 -0.11,0 -0.22,0 0.22,0.11 0.66,0 1,0.22 -0.11,0.11 -0.44,0 -0.55,0 1.87,0.55 4,1 5.59,2.29 a 18,18 0 0 1 -4.38,1.31 h -0.55 v 0.11 a 1.4,1.4 0 0 0 -0.66,0.11 c -0.33,-0.11 -0.65,0 -0.87,-0.22"
           class="cls-1"
           id="Fond" />
        <path
           fill="#000091"
           d="m 37.38,29.29 1.09,-1.09 a 19.58,19.58 0 0 1 2.09,-2.2 3.12,3.12 0 0 1 0.65,-0.55 0.34,0.34 0 0 1 0.11,-0.22 c -0.22,0.11 -0.54,0.44 -0.76,0.55 0,0 -0.11,0 0,-0.11 a 1.4,1.4 0 0 0 0.65,-0.55 V 25 a 2.69,2.69 0 0 0 -2.08,1 h -0.22 c -1,0.22 -1.64,1.09 -2.52,1.53 v -0.11 c -0.44,0.11 -0.66,0.43 -1.09,0.43 a 7.19,7.19 0 0 1 -1.54,0 16.94,16.94 0 0 0 -2.3,0.44 5.36,5.36 0 0 0 -1.21,0.44 0.11,0.11 0 0 1 -0.11,0.11 l -0.43,0.43 c -0.44,0.11 -0.66,0.55 -1.1,0.77 H 28.5 l -1,1 h -0.1 c 0,-0.11 0.11,-0.11 0.11,-0.22 0,-0.11 0.11,-0.11 0.11,-0.22 0,-0.11 0.11,-0.22 0.22,-0.43 v -0.11 h -0.11 a 4.74,4.74 0 0 1 1.1,-0.77 h -0.11 l 0.11,-0.11 a 0.24,0.24 0 0 0 -0.22,0.22 c -0.11,0.11 -0.22,0.44 -0.55,0.44 H 28 v -0.11 a 0.11,0.11 0 0 1 0.11,-0.11 V 29 l 0.44,-0.44 c 0.22,-0.11 0.55,-0.22 0.66,-0.44 a 0.11,0.11 0 0 0 0.11,-0.11 1.79,1.79 0 0 0 -1,0.55 H 28.1 c 0,-0.11 0.22,-0.11 0.44,-0.22 h 0.11 c 2.08,-1.53 4.71,-1.2 7,-2.07 0.11,-0.11 0.44,-0.22 0.55,-0.44 0.11,-0.22 0.55,-0.44 1,-0.66 a 3.14,3.14 0 0 0 1.09,-1.52 v -0.11 a 12.57,12.57 0 0 1 -2.74,2.07 c -1.31,0.66 -2.74,0.55 -4,0.77 0,-0.11 0.11,-0.11 0.22,-0.11 0.11,0 0.11,-0.22 0.22,-0.44 h 0.22 a 0.11,0.11 0 0 1 0.11,-0.11 h 0.22 c -0.11,-0.22 -0.55,0.11 -0.77,0 0.11,-0.11 0,-0.22 0.11,-0.44 h 0.33 a 0.34,0.34 0 0 1 0.11,-0.21 c 1,-0.55 1.75,-1 2.74,-1.53 a 0.86,0.86 0 0 1 -0.55,0 c 0.11,0 0,-0.11 0.11,-0.11 a 13.31,13.31 0 0 0 1.86,-0.77 c -0.22,0 -0.44,0.11 -0.66,0 0.11,0 0.11,-0.11 0.44,-0.11 v -0.1 c 0,-0.11 0.22,0 0.44,-0.11 h -0.2 c 0.11,-0.22 0.55,-0.22 0.77,-0.44 0,-0.11 -0.22,0 -0.22,-0.11 -0.11,0 0,-0.11 0,-0.22 A 2.58,2.58 0 0 0 37.6,20 H 37.49 A 5.32,5.32 0 0 1 35,21.21 h -0.22 a 1.86,1.86 0 0 1 -1.1,0 1.37,1.37 0 0 1 -0.66,-0.54 c -0.54,-0.22 -1,-0.55 -1.53,-0.77 A 11.58,11.58 0 0 0 26.78,19.25 8.2,8.2 0 0 1 28.97,18.59 17.78,17.78 0 0 1 32,17.94 h -0.66 a 8.83,8.83 0 0 0 -2.74,0.44 c -0.66,0.1 -1.21,0.43 -1.75,0.54 -0.54,0.11 -0.55,0.55 -1,0.44 v -0.11 c 0.66,-0.77 1.31,-1.53 2.3,-1.53 a 16.47,16.47 0 0 1 3.29,0.11 8.5,8.5 0 0 1 2.3,0.44 c 0.22,0 0.44,0.54 0.66,0.54 0.44,0.11 0.77,0 1.09,0.22 v -0.44 c 0.22,-0.21 0.55,0 0.77,0 0.55,-0.21 -0.44,-0.76 -0.66,-1.31 v -0.11 c 0.55,0.44 0.77,1 1.54,1.21 0.22,0.1 1.09,0.21 1,0 -0.22,-0.66 -1,-1.21 -1.54,-1.86 V 16 c -0.11,0 -0.11,0 -0.11,-0.11 v -0.21 c -0.22,-0.11 -0.11,-0.44 -0.22,-0.55 -0.11,-0.11 0,-0.76 -0.11,-1.09 C 36.05,13.71 36.05,13.38 35.94,12.95 35.83,11.86 35.5,10.87 35.4,10 A 5.06,5.06 0 0 1 36.6,6.94 6.41,6.41 0 0 1 38.35,4.87 5.12,5.12 0 0 1 39.56,2.79 6.22,6.22 0 0 1 41.42,1.59 3.41,3.41 0 0 1 43,0.36 H 0 v 32.75 h 30.25 c 1.21,-0.76 2.31,-1.2 4.06,-2.07 a 13.92,13.92 0 0 0 3.07,-1.75 m -9.54,-4.36 h -0.22 c 0,-0.22 0.55,-0.22 0.77,-0.44 0.11,0 0.22,-0.11 0.44,-0.11 0.22,0 0.22,0.11 0.44,0.22 -0.44,0.33 -1,0 -1.43,0.33 M 18.41,23.4 a 34.74,34.74 0 0 0 1.87,-3.28 10.88,10.88 0 0 0 2.19,-1.74 11.52,11.52 0 0 1 3.53,-2.73 4.12,4.12 0 0 1 1.64,0 c -0.11,0.21 -0.55,0.11 -0.76,0.43 H 26.66 V 16 c -0.66,0.66 -1.54,1 -2.09,1.75 -0.55,0.75 -0.67,1.5 -1.57,1.61 -0.22,0 0,-0.11 0,-0.11 a 23.51,23.51 0 0 0 -4.61,4.15 m 5.16,-4 c 0,0.11 -0.11,0.11 -0.11,0.22 0,0.11 -0.11,0.11 -0.22,0.21 h -0.11 c -0.11,-0.21 0,-0.43 0.44,-0.43 m 2.85,9.28 a 0.11,0.11 0 0 1 -0.11,0.11 c 0.11,0 0.11,0 0.11,0.11 a 0.56,0.56 0 0 1 -0.44,0.21 h -0.11 l -0.22,0.22 c -0.11,0 -0.44,0 -0.22,-0.11 l 0.44,-0.43 0.22,-0.22 0.11,-0.11 c -0.11,0.11 0.22,0.11 0.22,0.22 m -1.1,-0.55 a 3.49,3.49 0 0 0 -0.66,0.55 2.78,2.78 0 0 0 -0.76,0.43 h -0.11 a 1.47,1.47 0 0 0 -0.66,0.55 L 23,29.77 22.89,29.88 22.8,30 22.69,30.11 h -0.33 c -0.11,0 -0.11,0.11 -0.22,0.11 l -0.44,0.43 v -0.11 c 0,-0.11 0.11,-0.11 0.11,-0.21 v -0.11 l 0.11,-0.11 C 22,30 22,30 22,29.84 a 0.11,0.11 0 0 1 0.11,-0.11 0.11,0.11 0 0 1 0.11,-0.11 v -0.33 c 0.11,-0.11 0.11,-0.22 0.22,-0.22 -0.11,0 -0.11,0.11 -0.22,0.11 a 0.11,0.11 0 0 1 -0.11,-0.11 l 0.11,-0.1 c 0.11,-0.11 0.11,-0.22 0.22,-0.22 a 0.11,0.11 0 0 0 0.11,-0.11 l 0.11,-0.11 c 0.55,-0.55 1.64,-0.55 2.41,-1 0.22,-0.11 0.66,0 1,0 0.11,0 0.44,0 0.55,0.11 -0.44,-0.22 -0.77,0.21 -1.32,0.43 m 1.21,-4.26 a 0.36,0.36 0 0 0 0.22,-0.1 H 26.2 V 23.6 a 4.53,4.53 0 0 0 -1,0.21 c -0.44,0.11 -0.77,0.44 -1.31,0.55 -0.54,0.11 -1.21,0.76 -2.09,1.09 v -0.11 c 0,-0.11 0.22,-0.22 0.44,-0.43 V 24.69 A 24,24 0 0 1 24,23.07 V 23 c 0.1,-0.22 0.54,-0.44 0.65,-0.65 A 0.86,0.86 0 0 1 25.31,21.8 0.11,0.11 0 0 1 25.2,21.69 c -0.22,0 -0.55,0.11 -0.77,0 0.11,-0.11 0.22,-0.11 0.44,-0.22 a 0.11,0.11 0 0 1 -0.11,-0.11 0.23,0.23 0 0 1 0.22,-0.21 1,1 0 0 0 0.77,-0.22 c -0.44,0 -1,0.11 -1.32,-0.11 a 2.77,2.77 0 0 1 1.65,-1.86 h 0.11 a 0.67,0.67 0 0 1 -0.55,0.66 4.15,4.15 0 0 1 1.53,0.43 c 0,0.11 -0.11,0 -0.22,0 0.22,0.11 0.66,0 1,0.22 -0.11,0.11 -0.44,0 -0.55,0 1.87,0.55 4,1 5.59,2.29 a 18,18 0 0 1 -4.38,1.31 h -0.55 v 0.11 a 1.4,1.4 0 0 0 -0.66,0.11 c -0.33,-0.11 -0.65,0 -0.87,-0.22"
           id="Rouge" />
        <path
           fill="#e1000f"
           d="M 90.65,0.36 H 55.14 l 0.21,0.11 a 8,8 0 0 0 1,0.55 2.67,2.67 0 0 1 1.21,1 0.89,0.89 0 0 1 0.11,0.76 C 57.56,3 57.56,3.55 57.12,3.78 A 4.93,4.93 0 0 1 55.8,3.89 1.8,1.8 0 0 1 55,3.75 5.29,5.29 0 0 1 57.41,5.38 c 0,0.11 0.22,0.11 0.55,0.11 V 5.6 c -0.11,0.11 -0.22,0.11 -0.11,0.44 h 0.43 C 58.5,5.93 58.5,5.27 58.94,5.49 a 0.8,0.8 0 0 1 0.22,1 C 58.94,6.7 58.61,6.92 58.39,7.14 v 0.44 a 2,2 0 0 1 0.22,0.76 4.59,4.59 0 0 0 0.44,1.31 5.26,5.26 0 0 1 0.55,2.84 c 0,0.55 -0.22,1 0,1.53 0.22,0.53 0.44,0.76 0.66,1.31 0.22,0.55 0.55,0.65 0.65,1 0.44,0.66 1.1,1.2 0.77,2.08 -0.11,0.43 -0.77,0.43 -1.31,0.65 -0.54,0.22 0,0.76 0.11,1.09 0.22,0.55 -0.44,1 -0.77,1.09 0.11,0.11 0.44,0.11 0.44,0.22 0,0.11 0.44,0.55 0.11,0.77 -0.22,0.43 -1,0.54 -0.66,1.09 a 1.79,1.79 0 0 1 0,1.31 c -0.11,0.54 -0.66,0.76 -1.1,1 a 2.22,2.22 0 0 1 -1.2,0 c -0.11,0 -0.22,-0.11 -0.44,-0.11 -1.1,-0.11 -2.19,-0.43 -3.07,-0.43 a 1.59,1.59 0 0 0 -0.77,0.21 c -0.22,0.22 -0.55,0.44 -0.76,0.66 l -0.11,0.11 -0.11,0.11 c -0.11,0.22 -0.44,0.43 -0.55,0.65 v 0.11 a 2.88,2.88 0 0 0 -0.41,1.06 4.06,4.06 0 0 0 0,2.95 c 0.11,0.11 2.08,0.66 3.4,1.31 0.66,0.22 1.09,0.55 1.53,0.66 H 90.87 V 0.36 Z"
           id="Bleu" />
        <path
           fill="#9c9b9b"
           d="m 57.22,12.37 c 0.22,0 0.66,0 0.66,0.11 -0.11,0.55 -0.77,0.66 -1.21,1.09 h -0.11 c -0.11,0.11 -0.11,0.44 -0.22,0.44 h -0.55 a 1.39,1.39 0 0 0 1,0.44 0.34,0.34 0 0 1 0.11,0.21 h 0.22 v 0.22 c -0.11,0.22 -0.55,0.11 -0.77,0.11 a 3.63,3.63 0 0 0 1.54,0 c 0.43,-0.11 0,-0.76 0.21,-1.09 -0.1,0 0,-0.11 -0.1,-0.11 l 0.43,-0.44 a 0.83,0.83 0 0 0 0.44,-0.11 c 0,-0.1 -0.22,-0.1 -0.11,-0.21 a 0.89,0.89 0 0 0 0.55,-1 c 0,-0.11 -0.55,-0.11 -0.77,-0.21 a 3.54,3.54 0 0 0 -1.09,0 4,4 0 0 0 -1,0.21 7.52,7.52 0 0 0 -1.53,0.55 9.58,9.58 0 0 0 1.31,-0.44 c 0.33,0.22 0.66,0 1,0.22"
           id="Yeux" />
      </g>
    </g>
    <g
       data-name="icon-custom/GouvFr/inclusion.beta.gouv.fr"
       id="icon-custom_GouvFr_inclusion.beta.gouv.fr" />
  </g>
  <text
     id="text136"
     y="12.620663"
     x="276.20999"
     style="font-style:normal;font-weight:normal;font-size:40px;line-height:1.25;font-family:sans-serif;fill:#000000;fill-opacity:1;stroke:none"
     xml:space="preserve"><tspan
       y="12.620663"
       x="276.20999"
       id="tspan134"
       sodipodi:role="line" /></text>
</svg>
