<svg xmlns="http://www.w3.org/2000/svg" preserveAspectRatio="xMinYMid meet" width="189" height="61" viewBox="0 0 189 61">
  <g fill="none" transform="translate(-.5 -.779)">
    <path fill="#000638" d="M57.0847134 40.1784314C56.7479363 39.8229487 56.5727008 39.3432635 56.6006369 38.8533333L56.6006369 25.7603922C56.55023 25.2953173 56.712462 24.8323662 57.0417677 24.5015652 57.3710734 24.1707642 57.8319319 24.0077955 58.2949045 24.0584314L64.1401274 24.0584314C65.6467746 23.9709883 67.1315709 24.4522696 68.3031847 25.4078431 69.3218935 26.3864414 69.8653993 27.7624727 69.7917197 29.1764706 69.8689878 30.594626 69.3251912 31.9758349 68.3031847 32.9572549 67.142187 33.9355729 65.6529657 34.4313348 64.1401274 34.3431373L60.2312102 34.3431373 60.2312102 38.9019608C60.2544673 39.3934424 60.0749691 39.8728119 59.7350318 40.2270588 59.3831772 40.5697955 58.9054126 40.7503211 58.4159236 40.7254902 57.9158614 40.7364991 57.4337138 40.5383613 57.0847134 40.1784314L57.0847134 40.1784314zM66.3910828 29.2372549C66.3910828 27.6447059 65.4834395 26.8058824 63.6681529 26.8058824L60.2312102 26.8058824 60.2312102 31.6078431 63.6681529 31.6078431C65.4834395 31.6078431 66.3910828 30.7933333 66.3910828 29.1764706L66.3910828 29.2372549zM72.3573248 40.2513725C72.0199719 39.9405845 71.8380751 39.4949193 71.8611465 39.0356863L71.8611465 25.6631373C71.8380751 25.2039042 72.0199719 24.758239 72.3573248 24.447451 72.7009135 24.171677 73.1277224 24.0216156 73.5675159 24.0219071 74.0078055 24.0186462 74.4355739 24.169045 74.777707 24.447451 75.1194482 24.7551468 75.3022429 25.2030119 75.2738854 25.6631373L75.2738854 39.0356863C75.3022429 39.4958116 75.1194482 39.9436767 74.777707 40.2513725 74.4355739 40.5297785 74.0078055 40.6801773 73.5675159 40.6769164 73.1277224 40.6772079 72.7009135 40.5271465 72.3573248 40.2513725zM86.9401274 30.0031373C87.8226751 31.0449761 88.2578872 32.395888 88.1503185 33.7596078L88.1503185 39.0356863C88.1748914 39.4856893 88.0127826 39.9258109 87.7025478 40.2513725 87.3734946 40.5537088 86.9377409 40.7112925 86.4923567 40.6890196 86.0426103 40.7104779 85.6042282 40.5431363 85.2821656 40.2270588 84.9667322 39.9047881 84.803743 39.4622763 84.8343949 39.0113725L84.8343949 38.9019608C84.5871151 39.4715473 84.1624291 39.9450893 83.6242038 40.2513725 83.0437206 40.587612 82.3819282 40.7559152 81.7121019 40.7376471 80.9838063 40.752018 80.262392 40.5937524 79.6063694 40.2756863 79.0041051 39.9629677 78.5010386 39.4870957 78.1541401 38.9019608 77.7930353 38.3499183 77.6034756 37.7024887 77.6095541 37.0419608 77.5642823 36.3197691 77.7935141 35.6072271 78.2509554 35.0482353 78.8151586 34.4979967 79.5327437 34.1333348 80.3082803 34.0027451 81.5877013 33.7535702 82.8901142 33.643524 84.1929936 33.6745098L84.7980892 33.6745098 84.7980892 33.2490196C84.8948798 32.7286828 84.7299955 32.1938698 84.3573854 31.8195677 83.9847752 31.4452656 83.4523797 31.2796326 82.9343949 31.3768627 81.9428393 31.4549518 80.9702883 31.6930362 80.0541401 32.0819608 79.7729175 32.2304494 79.4635893 32.3174546 79.1464968 32.3372549 78.8306572 32.3508373 78.5265033 32.2160425 78.3235669 31.972549 78.1150434 31.7066301 78.0077679 31.3747212 78.0210191 31.0364706 78.0103835 30.7605667 78.0866076 30.4883168 78.2388535 30.2584314 78.4166531 30.0247095 78.6440216 29.8336833 78.9044586 29.6992157 79.5367532 29.3780609 80.2080083 29.1410331 80.9012739 28.9941176 81.6603943 28.8258471 82.4353578 28.7402548 83.2127389 28.7388235 84.573775 28.6405705 85.9169788 29.0961793 86.9401274 30.0031373L86.9401274 30.0031373zM84.1687898 37.6011765C84.595868 37.1068024 84.8207144 36.4682928 84.7980892 35.8141176L84.7980892 35.4129412 84.3987261 35.4129412C83.5087052 35.3690217 82.617527 35.4716851 81.7605096 35.7168627 81.2911674 35.8689474 80.9796943 36.3159295 80.9980892 36.8109804 80.9828954 37.2140162 81.1417158 37.6040067 81.433758 37.8807843 81.7250915 38.1548589 82.1117895 38.303257 82.510828 38.2941176 83.1378402 38.3182237 83.7438447 38.0649455 84.1687898 37.6011765L84.1687898 37.6011765zM98.1464968 38.4521569C98.3702487 38.691509 98.4881044 39.0116028 98.4732484 39.3396078 98.4820284 39.7525556 98.281483 40.1417319 97.9407643 40.3729412 97.4712065 40.628303 96.9327076 40.7262692 96.4038217 40.652549L95.7503185 40.652549C93.0394904 40.4337255 91.6840764 39.0073203 91.6840764 36.3733333L91.6840764 31.6929412 90.7643312 31.6929412C90.3347449 31.7335343 89.90501 31.616979 89.5541401 31.3647059 89.2810433 31.1181671 89.1341366 30.7604124 89.1547771 30.3921569 89.1265455 30.015596 89.274117 29.647238 89.5541401 29.3952941 89.9033686 29.138721 90.3332477 29.0178083 90.7643312 29.054902L91.6961783 29.054902 91.6961783 27.2313725C91.6749864 26.7772809 91.8465149 26.3354672 92.1681529 26.0156863 92.5173926 25.693586 92.9769497 25.5193808 93.4509554 25.5294118 93.9187557 25.5035366 94.3783998 25.660351 94.733758 25.9670588 95.0471577 26.2913839 95.2135291 26.7311916 95.1936306 27.1827451L95.1936306 29.0062745 96.8152866 29.0062745C97.8681529 29.0062745 98.388535 29.4560784 98.388535 30.3435294 98.4122283 30.7098178 98.2699019 31.0672495 98.0012739 31.3160784 97.6481357 31.5635042 97.2202005 31.6795714 96.7910828 31.6443137L95.1936306 31.6443137 95.1936306 36.5070588C95.1655421 36.8921591 95.2821236 37.2738537 95.5203822 37.5768627 95.7712584 37.8359787 96.1166189 37.9808983 96.4764331 37.9780392L97.1299363 37.9780392C97.5138413 38.0107249 97.8738953 38.1786519 98.1464968 38.4521569L98.1464968 38.4521569zM109.703822 37.4917647C109.905266 37.7700406 110.007577 38.1083431 109.994268 38.4521569 109.991831 38.7185355 109.907273 38.9776091 109.752229 39.1937255 109.581105 39.432197 109.357457 39.6277375 109.098726 39.765098 108.519995 40.067131 107.90617 40.2958085 107.271338 40.4458824 106.639761 40.61694 105.98913 40.7068079 105.335032 40.7133333 104.211866 40.7436322 103.098381 40.4973862 102.09172 39.9960784 101.192417 39.5360389 100.450648 38.8163046 99.9617834 37.9294118 98.977291 35.9553678 98.977291 33.6305145 99.9617834 31.6564706 100.415883 30.776599 101.108033 30.0433814 101.958599 29.5411765 102.842883 29.0230327 103.851578 28.7581515 104.875159 28.7752941 105.832337 28.7544978 106.777322 28.9939169 107.610191 29.4682353 108.390198 29.9315521 109.020516 30.6111653 109.425478 31.4254902 109.878906 32.3552823 110.103045 33.3809949 110.078981 34.4160784 110.102359 34.6972046 110.01551 34.976386 109.836943 35.1941176 109.658903 35.3831751 109.40545 35.4814433 109.147134 35.4615686L102.636306 35.4615686C102.667333 36.2053001 102.963733 36.9129843 103.471338 37.4552941 104.016487 37.8986613 104.707635 38.1199648 105.407643 38.0752941 105.816559 38.0822658 106.224285 38.0290207 106.617834 37.9172549 107.029781 37.7916407 107.433896 37.641439 107.828025 37.467451L108.457325 37.2243137C108.627013 37.1566038 108.807282 37.1195631 108.989809 37.114902 109.271496 37.1285861 109.532799 37.2665041 109.703822 37.4917647zM103.338217 31.8509804C102.894432 32.3710642 102.638562 33.0264967 102.612102 33.7109804L107.101953 33.7109804C107.105427 33.0359337 106.888633 32.3783275 106.484713 31.8388235 106.092297 31.4004743 105.521229 31.1674245 104.935669 31.2066667 104.335853 31.1814324 103.754113 31.4160704 103.338217 31.8509804zM116.904459 27.2070588C116.595292 27.6273752 116.445143 28.1445091 116.480892 28.6658824L116.480892 29.054902 118.11465 29.054902C119.167516 29.054902 119.687898 29.5047059 119.687898 30.3921569 119.687898 31.2796078 119.167516 31.6929412 118.11465 31.6929412L116.480892 31.6929412 116.480892 38.9870588C116.503963 39.4462919 116.322066 39.8919571 115.984713 40.2027451 115.64258 40.4811511 115.214812 40.6315499 114.774522 40.6282889 114.334399 40.630546 113.906957 40.480262 113.564331 40.2027451 113.22259 39.8950493 113.039795 39.4471842 113.068153 38.9870588L113.068153 31.6929412 112.136306 31.6929412C111.095541 31.6929412 110.575159 31.267451 110.575159 30.3921569 110.575159 29.5168627 111.095541 29.054902 112.136306 29.054902L113.068153 29.054902C112.989119 27.7648781 113.424576 26.4963194 114.278344 25.5294118 115.185506 24.6346989 116.396049 24.117882 117.666879 24.0827451L118.271975 24.0827451 118.695541 24.0827451C119.76051 24.0827451 120.292994 24.4879739 120.292994 25.2984314 120.292994 26.1129412 119.845223 26.5141176 118.949682 26.6356863L118.344586 26.6356863C117.804507 26.6056947 117.278378 26.8144374 116.904459 27.2070588zM122.99172 39.9839216C122.095169 39.5186866 121.35762 38.794724 120.873885 37.905098 119.890099 35.9095044 119.890099 33.5669662 120.873885 31.5713725 121.358346 30.6853399 122.096023 29.9654856 122.99172 29.5047059 125.007556 28.5328617 127.353591 28.5328617 129.369427 29.5047059 130.262536 29.9691012 130.999277 30.6880423 131.487261 31.5713725 132.471048 33.5669662 132.471048 35.9095044 131.487261 37.905098 131.000011 38.792042 130.26339 39.5150942 129.369427 39.9839216 127.353591 40.9557657 125.007556 40.9557657 122.99172 39.9839216L122.99172 39.9839216zM128.740127 34.7321569C128.799809 33.8692605 128.565043 33.011688 128.074522 32.3007843 127.607516 31.7381616 126.902518 31.4314256 126.174522 31.4741176 124.468153 31.4741176 123.621019 32.5803922 123.621019 34.7686275 123.621019 36.9568627 124.468153 38.0631373 126.174522 38.0631373 127.880892 38.0631373 128.740127 36.932549 128.740127 34.7321569zM142.294268 29.1764706C142.576259 29.4625386 142.721799 29.8568378 142.693631 30.2584314 142.744062 30.6965604 142.612759 31.1362269 142.330573 31.4741176 141.9487 31.7695159 141.481319 31.9317078 140.999363 31.9360784L140.297452 32.0090196C139.594158 32.0318482 138.92846 32.3334283 138.44586 32.8478431 138.052533 33.3622519 137.851255 33.9989397 137.87707 34.6470588L137.87707 39.1086275C137.905428 39.5687528 137.722633 40.0166179 137.380892 40.3243137 137.038759 40.6027197 136.61099 40.7531185 136.170701 40.7498039 135.710232 40.7643422 135.259691 40.6134797 134.9 40.3243137 134.562647 40.0135257 134.38075 39.5678605 134.403822 39.1086275L134.403822 30.3921569C134.368875 29.9284141 134.558 29.4760711 134.912102 29.1764706 135.255691 28.9006966 135.682499 28.7506352 136.122293 28.7509804 136.56465 28.7193483 137.000996 28.8683795 137.332484 29.1643137 137.654685 29.4480909 137.828788 29.865146 137.804459 30.294902L137.804459 30.9270588C138.056815 30.2915573 138.501241 29.751573 139.075159 29.3831373 139.632077 29.0282391 140.268679 28.8192547 140.926752 28.7752941L141.241401 28.7752941C141.630891 28.7666604 142.008457 28.9105255 142.294268 29.1764706L142.294268 29.1764706zM160.628662 29.9180392C161.381803 30.9763819 161.737643 32.2683913 161.633121 33.565098L161.633121 38.9627451C161.660988 39.4203242 161.48337 39.8663871 161.149045 40.1784314 160.807413 40.4577386 160.379311 40.6082545 159.938854 40.6039216 159.498896 40.6052426 159.071774 40.455071 158.728662 40.1784314 158.38244 39.8730707 158.195046 39.4248687 158.220382 38.9627451L158.220382 33.565098C158.273035 33.0132907 158.136399 32.4599762 157.833121 31.9968627 157.525245 31.659146 157.076375 31.4878009 156.62293 31.534902 156.026515 31.5112734 155.45187 31.7618648 155.061783 32.2156863 154.644875 32.7557752 154.438342 33.4300543 154.480892 34.1121569L154.480892 38.974902C154.508759 39.432481 154.33114 39.8785439 153.996815 40.1905882 153.655183 40.4698954 153.227082 40.6204114 152.786624 40.6161694 152.346667 40.6173994 151.919544 40.4672279 151.576433 40.1905882 151.230211 39.8852276 151.042817 39.4370256 151.068153 38.974902L151.068153 33.565098C151.120806 33.0132907 150.98417 32.4599762 150.680892 31.9968627 150.373016 31.659146 149.924146 31.4878009 149.470701 31.534902 148.874286 31.5112734 148.29964 31.7618648 147.909554 32.2156863 147.492646 32.7557752 147.286113 33.4300543 147.328662 34.1121569L147.328662 38.974902C147.351734 39.434135 147.169837 39.8798002 146.832484 40.1905882 146.490351 40.4689942 146.062583 40.619393 145.622293 40.6161694 145.182335 40.6173994 144.755213 40.4672279 144.412102 40.1905882 144.06588 39.8852276 143.878486 39.4370256 143.903822 38.974902L143.903822 30.3921569C143.867641 29.9256085 144.062225 29.471033 144.424204 29.1764706 144.785892 28.8910111 145.235053 28.7406111 145.694904 28.7509804 146.136727 28.7234332 146.571552 28.8719449 146.905096 29.1643137 147.224341 29.4493487 147.394161 29.8668478 147.364968 30.294902L147.364968 30.5258824C147.722057 29.9508622 148.228275 29.4843715 148.829299 29.1764706 149.457558 28.8519967 150.156114 28.6890957 150.86242 28.7023529 151.589609 28.6789032 152.309359 28.8554542 152.943949 29.2129412 153.549118 29.5910198 154.012884 30.1594683 154.263057 30.8298039 154.613498 30.1799324 155.137354 29.6410688 155.775796 29.2737255 156.46348 28.8888469 157.239608 28.6918378 158.026752 28.7023529 159.023442 28.7314676 159.964343 29.171083 160.628662 29.9180392L160.628662 29.9180392zM174.267516 37.4917647C174.46896 37.7700406 174.571271 38.1083431 174.557962 38.4521569 174.564102 38.7179536 174.483332 38.9784438 174.328025 39.1937255 174.153868 39.4293976 173.930911 39.6243335 173.674522 39.765098 173.091562 40.0671532 172.473732 40.2958083 171.835032 40.4458824 171.207423 40.6161797 170.56089 40.7060433 169.910828 40.7133333 168.783827 40.7431614 167.666533 40.4969917 166.655414 39.9960784 165.756111 39.5360389 165.014343 38.8163046 164.525478 37.9294118 163.54857 35.953573 163.54857 33.6323093 164.525478 31.6564706 164.972309 30.7714267 165.6662 30.0363647 166.522293 29.5411765 167.401604 29.0216895 168.406812 28.7566242 169.426752 28.7752941 170.38393 28.7544978 171.328915 28.9939169 172.161783 29.4682353 172.945398 29.9308129 173.579811 30.6103113 173.989172 31.4254902 174.442601 32.3552823 174.666739 33.3809949 174.642675 34.4160784 174.65995 34.6964954 174.573785 34.973478 174.400637 35.1941176 174.219781 35.3789123 173.968379 35.4763851 173.710828 35.4615686L167.127389 35.4615686C167.158416 36.2053001 167.454815 36.9129843 167.96242 37.4552941 168.502111 37.9000371 169.190103 38.1217158 169.886624 38.0752941 170.295629 38.0838846 170.703592 38.0306085 171.096815 37.9172549 171.509456 37.7937233 171.913699 37.6434742 172.307006 37.467451L172.936306 37.2243137C173.106601 37.1586674 173.286512 37.1217002 173.46879 37.114902 173.780695 37.1000836 174.079712 37.2411689 174.267516 37.4917647L174.267516 37.4917647zM167.901911 31.8509804C167.461673 32.3722123 167.210015 33.0277801 167.187898 33.7109804L171.677749 33.7109804C171.681223 33.0359337 171.464429 32.3783275 171.06051 31.8388235 170.666001 31.4034786 170.09644 31.1710438 169.511465 31.2066667 168.887367 31.1631101 168.276031 31.3989648 167.841401 31.8509804L167.901911 31.8509804zM63.9707006 48.8341176C64.1065647 48.9684457 64.1810343 49.1532647 64.1764331 49.3447059L64.1764331 60.9423529C64.1806907 61.1409186 64.1067562 61.3331473 63.9707006 61.4772549 63.8203205 61.6091631 63.6256375 61.678698 63.4261146 61.6717647 63.2301351 61.6793283 63.0389974 61.6095081 62.8936306 61.4772549 62.7661852 61.3287146 62.6973044 61.1384322 62.7 60.9423529L62.7 59.9576471C62.4387148 60.5054958 62.016284 60.9595491 61.4898089 61.2584314 60.9356698 61.5688067 60.3087803 61.7241415 59.6745223 61.7082353 58.9500892 61.7231015 58.237799 61.5198756 57.6292994 61.1247059 57.0265113 60.7223407 56.548456 60.1578644 56.2496815 59.4956863 55.5848305 57.9435673 55.5848305 56.1850601 56.2496815 54.6329412 56.5496931 53.9812678 57.0282234 53.4288808 57.6292994 53.0403922 58.8063542 52.3242343 60.2704119 52.2781307 61.4898089 52.9188235 62.016284 53.2177058 62.4387148 53.6717591 62.7 54.2196078L62.7 49.3568627C62.6943657 49.1639417 62.7638278 48.9764147 62.8936306 48.8341176 63.0389974 48.7018644 63.2301351 48.6320442 63.4261146 48.6396078 63.6264156 48.6273961 63.8230343 48.6976224 63.9707006 48.8341176L63.9707006 48.8341176zM62.0101911 59.5686275C62.4957774 58.8544106 62.73781 58.0013171 62.7 57.1372549 62.756863 56.2521157 62.5137277 55.3737113 62.0101911 54.645098 61.4949089 54.0867709 60.7712894 53.7694463 60.0133758 53.7694463 59.2554622 53.7694463 58.5318427 54.0867709 58.0165605 54.645098 57.5010018 55.3463641 57.2442985 56.2059275 57.2904459 57.0764706 57.2365531 57.9742883 57.4930569 58.8632447 58.0165605 59.5929412 58.5015027 60.1952247 59.2431154 60.529337 60.0133758 60.492549 60.787853 60.5235171 61.5302483 60.1800126 62.0101911 59.5686275zM74.0878981 59.6901961C74.1868415 59.8044255 74.2387679 59.9522182 74.233121 60.1035294 74.233121 60.407451 74.0152866 60.6870588 73.5917197 60.9423529 72.7404735 61.433762 71.7779166 61.6974695 70.7961783 61.7082353 69.5963999 61.7804772 68.4223159 61.3387487 67.5649682 60.492549 66.7237658 59.5813098 66.2870012 58.3659783 66.3547771 57.125098 66.338524 56.2837594 66.5210059 55.4505302 66.8872611 54.6937255 67.2184338 54.0229555 67.7298637 53.4586703 68.3636943 53.0647059 69.0175523 52.6712554 69.767838 52.4691479 70.5299363 52.4811765 71.5667598 52.4329569 72.5719574 52.8466479 73.2770701 53.6117647 73.9901262 54.4666478 74.3534642 55.5616112 74.2936306 56.6752941 74.307963 56.8650718 74.2566688 57.0540048 74.1484076 57.2101961 74.0209144 57.3284135 73.8490375 57.3859659 73.6764331 57.3682353L67.8433121 57.3682353C67.9522293 59.4592157 68.9324841 60.5047059 70.7961783 60.5047059 71.2080282 60.5148486 71.6182302 60.4489182 72.0063694 60.3101961 72.3809085 60.1658956 72.7448662 59.9952775 73.0955414 59.7996078 73.2819948 59.6605479 73.496983 59.5650251 73.7248408 59.52 73.8666081 59.5120168 74.0029267 59.575921 74.0878981 59.6901961zM68.7025478 54.3533333C68.203797 54.9291126 67.9137477 55.6575285 67.8796178 56.42L73.010828 56.42C73.0410853 55.6734617 72.8050529 54.940594 72.3452229 54.3533333 71.8915167 53.8539422 71.2382336 53.5860853 70.566242 53.6239216 69.8716317 53.5995031 69.1976264 53.8632949 68.7025478 54.3533333L68.7025478 54.3533333zM83.5031847 61.294902C83.1643948 60.9851224 82.9822069 60.5387438 83.0070064 60.0792157L83.0070064 46.7066667C82.9839349 46.2474336 83.1658317 45.8017684 83.5031847 45.4909804 83.8351008 45.1844364 84.2631045 45.0038586 84.7133758 44.9803922 85.152345 44.9726226 85.5802853 45.1187829 85.9235669 45.3937255 86.2609199 45.7045135 86.4428166 46.1501787 86.4197452 46.6094118L86.4197452 59.9819608C86.4445447 60.4414889 86.2623568 60.8878675 85.9235669 61.1976471 85.5814338 61.4760531 85.1536654 61.6264518 84.7133758 61.6231373 84.2849073 61.6515493 83.8591918 61.5360842 83.5031847 61.294902zM92.2528662 45.6490196C92.6542112 46.2098412 92.8508192 46.8925071 92.8095541 47.5819608 92.8193652 49.177472 92.191589 50.7102454 91.066879 51.8368627 90.8829037 52.045821 90.618463 52.1653596 90.3407643 52.1650985 90.0824362 52.1633909 89.8333238 52.0684709 89.6388535 51.8976471 89.4731004 51.7393002 89.3792672 51.5195818 89.3792672 51.2898039 89.3792672 51.060026 89.4731004 50.8403076 89.6388535 50.6819608 90.1227002 50.1945097 90.476478 49.592447 90.6675159 48.9313725 90.182731 48.9031649 89.7256176 48.6952302 89.3847134 48.3478431 89.0558673 47.992337 88.8816519 47.5198194 88.9006369 47.034902 88.8842626 46.5028773 89.0803473 45.9863647 89.4452229 45.6003922 89.7776613 45.2153718 90.2570577 44.9900486 90.7643312 44.9803922 91.3363928 44.9618335 91.8852189 45.2083579 92.2528662 45.6490196zM95.5082803 47.5211765C95.1355682 47.1865107 94.9388115 46.6968774 94.9757962 46.1960784 94.9701884 45.7326165 95.1643418 45.2893553 95.5082803 44.9803922 96.3713163 44.3259279 97.5618048 44.3259279 98.4248408 44.9803922 98.7732689 45.2871207 98.9719745 45.7306936 98.9694268 46.1960784 98.9882249 46.6832038 98.7936226 47.154147 98.4369427 47.4847059 97.5714702 48.1453083 96.3737528 48.1453083 95.5082803 47.4847059L95.5082803 47.5211765zM95.7019108 61.294902C95.3631209 60.9851224 95.180933 60.5387438 95.2057325 60.0792157L95.2057325 51.5694118C95.1803967 51.1072882 95.3677906 50.6590862 95.7140127 50.3537255 96.057124 50.0770859 96.4842461 49.9269143 96.9242038 49.9281817 97.3644934 49.9249207 97.7922618 50.0753195 98.1343949 50.3537255 98.4717479 50.6645135 98.6536447 51.1101787 98.6305732 51.5694118L98.6305732 60.0792157C98.6553728 60.5387438 98.4731848 60.9851224 98.1343949 61.294902 97.7922618 61.573308 97.3644934 61.7237067 96.9242038 61.7204458 96.4802632 61.7235144 96.0487371 61.5732966 95.7019108 61.294902zM111.628025 51.0588235C112.372153 52.1210235 112.72319 53.4111356 112.620382 54.7058824L112.620382 60.1035294C112.647961 60.55865 112.47544 61.0030213 112.148408 61.3192157 111.793177 61.6356242 111.327424 61.7974104 110.853503 61.7690196 110.407257 61.7826933 109.973229 61.6213739 109.643312 61.3192157 109.31628 61.0030213 109.143759 60.55865 109.171338 60.1035294L109.171338 54.827451C109.219095 54.2288766 109.070319 53.6310677 108.747771 53.1254902 108.41056 52.7410714 107.912956 52.5384238 107.404459 52.5784314 106.746502 52.553089 106.108735 52.8093543 105.649682 53.2835294 105.189847 53.7944635 104.950483 54.4677278 104.984076 55.1556863L104.984076 60.0184314C105.009985 60.4709353 104.842725 60.9130913 104.524204 61.2341176 104.173377 61.5498169 103.711592 61.711738 103.241401 61.6839216 102.767847 61.7096592 102.30307 61.548212 101.946497 61.2341176 101.619465 60.9179233 101.446943 60.473552 101.474522 60.0184314L101.474522 51.4843137C101.442464 51.0235822 101.6259 50.5741452 101.970701 50.2686275 102.332205 49.9631584 102.793478 49.8029285 103.265605 49.8188235 103.71181 49.7908942 104.149699 49.9492501 104.475796 50.2564706 104.775353 50.5441553 104.938284 50.9466983 104.923567 51.3627451L104.923567 51.6909804C105.315109 51.086792 105.85758 50.5963518 106.496815 50.2686275 107.173955 49.9344035 107.920837 49.7676761 108.675159 49.7823529 109.800578 49.7394552 110.885306 50.2083634 111.628025 51.0588235L111.628025 51.0588235zM117.388535 61.0396078C116.518781 60.5781705 115.809596 59.8615248 115.355414 58.985098 114.863579 58.0191058 114.618233 56.9455437 114.641401 55.8607843 114.617465 54.7546311 114.880198 53.6612266 115.403822 52.6878431 115.894376 51.7900254 116.634451 51.0550379 117.533758 50.572549 118.507485 50.0616371 119.594072 49.8065307 120.692357 49.8309804 121.32613 49.8320733 121.956938 49.9179256 122.568153 50.0862745 123.160134 50.2433232 123.726626 50.4848684 124.250318 50.8035294 124.715266 51.0727791 124.994491 51.5776659 124.976433 52.1164706 124.989769 52.4698289 124.892416 52.8184864 124.698089 53.1133333 124.5286 53.3595881 124.245577 53.5017422 123.947771 53.4901961 123.753741 53.4944342 123.560689 53.4614252 123.378981 53.3929412L122.67707 53.0768627C122.394394 52.9267252 122.103483 52.7927853 121.805732 52.6756863 121.525561 52.5792217 121.230458 52.5339319 120.934395 52.5419608 120.176517 52.4873914 119.437118 52.7934974 118.93758 53.3686275 118.426413 54.0705415 118.181768 54.9328458 118.247771 55.8 118.190138 56.6662846 118.433983 57.5257645 118.93758 58.2313725 119.434726 58.8110119 120.174481 59.1217685 120.934395 59.0701961 121.226088 59.0721414 121.516198 59.0269907 121.793631 58.9364706 122.104031 58.8214439 122.407144 58.6874687 122.701274 58.5352941 122.99172 58.3894118 123.221656 58.2921569 123.391083 58.2192157 123.567495 58.1457174 123.756792 58.108513 123.947771 58.1098039 124.245969 58.1078224 124.524466 58.2591686 124.685987 58.5109804 124.887685 58.8029174 124.989607 59.1527313 124.976433 59.5078431 125.00226 60.0421617 124.719651 60.5437036 124.250318 60.7964706 123.719022 61.1284454 123.139139 61.3745788 122.531847 61.5258824 121.863716 61.6981544 121.176408 61.7839473 120.486624 61.7811765 119.408059 61.8016837 118.341997 61.5465078 117.388535 61.0396078L117.388535 61.0396078zM127.251592 61.294902C126.90537 60.9895413 126.717976 60.5413393 126.743312 60.0792157L126.743312 46.7066667C126.717976 46.2445431 126.90537 45.7963411 127.251592 45.4909804 127.997108 44.9416935 129.011172 44.9416935 129.756688 45.4909804 130.10291 45.7963411 130.290304 46.2445431 130.264968 46.7066667L130.264968 60.0792157C130.290304 60.5413393 130.10291 60.9895413 129.756688 61.294902 129.016491 61.8602714 127.99179 61.8602714 127.251592 61.294902L127.251592 61.294902zM143.480255 50.3172549C143.813145 50.6302858 143.990482 51.0756414 143.964331 51.5329412L143.964331 60.0427451C143.997276 60.5061591 143.808518 60.9576254 143.456051 61.2584314 143.101893 61.5684159 142.642507 61.729496 142.173248 61.7082353 141.729372 61.7351755 141.293328 61.5818671 140.963057 61.2827451 140.657538 60.9940809 140.493796 60.5850897 140.515287 60.1643137L140.515287 59.9333333C140.202331 60.5038883 139.737121 60.9754205 139.171975 61.294902 137.454256 62.1317163 135.403518 61.8435974 133.980255 60.5654902 133.200134 59.5185407 132.825897 58.2222092 132.927389 56.9184314L132.927389 51.5329412C132.903062 51.0783387 133.075074 50.6352797 133.399363 50.3172549 133.757864 50.0065091 134.221256 49.8455431 134.694268 49.867451 135.13969 49.8587604 135.571939 50.0194188 135.904459 50.3172549 136.228748 50.6352797 136.40076 51.0783387 136.376433 51.5329412L136.376433 57.0035294C136.335652 57.5443092 136.485598 58.0822602 136.8 58.5231373 137.147127 58.8721971 137.629615 59.050061 138.119108 59.0094118 138.751902 59.0323735 139.362704 58.7744941 139.789172 58.3043137 140.225781 57.7962779 140.451108 57.1389916 140.418471 56.4686275L140.418471 51.5329412C140.394145 51.0783387 140.566157 50.6352797 140.890446 50.3172549 141.244844 49.988963 141.71602 49.8180435 142.197452 49.8431373 142.669802 49.8297959 143.129148 49.9995677 143.480255 50.3172549L143.480255 50.3172549zM148.51465 61.5380392C147.866119 61.3967579 147.247501 61.1416024 146.687261 60.7843137 146.457268 60.652706 146.268602 60.4589723 146.142675 60.225098 146.018748 59.9805752 145.956417 59.7092497 145.961146 59.434902 145.947904 59.1077846 146.055678 58.7873226 146.263694 58.5352941 146.44393 58.3033741 146.721126 58.1686382 147.014013 58.1705882 147.220415 58.1724679 147.425009 58.209462 147.619108 58.28 147.829237 58.3493001 148.035298 58.4304753 148.236306 58.5231373 148.652329 58.7111526 149.080984 58.8695816 149.519108 58.9972549 150.028753 59.1294001 150.554023 59.1907553 151.080255 59.1796078 151.499678 59.1947216 151.916063 59.102701 152.290446 58.9121569 152.561551 58.7887729 152.736397 58.5181925 152.738217 58.2192157 152.748444 58.0219317 152.678574 57.8289174 152.544586 57.6843137 152.32553 57.5166171 152.074127 57.3965549 151.806369 57.3317647 151.455414 57.2223529 150.886624 57.0886275 150.112102 56.9305882 149.034215 56.7816078 148.010681 56.3636477 147.135032 55.714902 146.514337 55.1485301 146.180899 54.3312458 146.227389 53.4901961 146.225397 52.8077108 146.45123 52.1442566 146.86879 51.6058824 147.322593 51.0118152 147.929373 50.5536132 148.623567 50.2807843 149.422183 49.9537195 150.278445 49.7924414 151.140764 49.8066667 151.79853 49.8061602 152.453543 49.8919846 153.089172 50.0619608 153.684964 50.2190244 154.255449 50.4605347 154.783439 50.7792157 155.248387 51.0484654 155.527612 51.5533522 155.509554 52.0921569 155.522805 52.4304075 155.41553 52.7623164 155.207006 53.0282353 155.028048 53.2632595 154.751233 53.4022955 154.456688 53.405098 154.004561 53.371259 153.5679 53.2250444 153.185987 52.9796078 152.845871 52.7963603 152.489301 52.6457583 152.121019 52.5298039 151.75709 52.4151925 151.376806 52.3617932 150.995541 52.3717647 150.598587 52.3486116 150.203459 52.4415084 149.857962 52.6392157 149.594436 52.7920472 149.432753 53.0751169 149.434395 53.3807843 149.434797 53.7061738 149.630792 53.9990995 149.930573 54.1223529 150.531758 54.374305 151.161892 54.5499102 151.806369 54.645098 152.641266 54.7816476 153.454903 55.026847 154.226752 55.3745098 154.746846 55.6072639 155.191348 55.9821729 155.509554 56.4564706 155.79276 56.9641187 155.930957 57.5404523 155.908917 58.1219608 155.959776 59.1707925 155.476543 60.1737024 154.626115 60.7843137 153.550752 61.4915717 152.279129 61.8364691 150.995541 61.7690196 150.162911 61.7769457 149.331647 61.6995518 148.51465 61.5380392L148.51465 61.5380392zM158.292994 47.5211765C157.930645 47.1946236 157.734885 46.7208789 157.76051 46.232549 157.744188 45.756458 157.93928 45.2976921 158.292994 44.9803922 159.15603 44.3259279 160.346518 44.3259279 161.209554 44.9803922 161.574457 45.3008559 161.774786 45.7704133 161.75414 46.2568627 161.772938 46.7439881 161.578336 47.2149314 161.221656 47.5454902 160.356184 48.2060926 159.158466 48.2060926 158.292994 47.5454902L158.292994 47.5211765zM158.535032 61.294902C158.196242 60.9851224 158.014054 60.5387438 158.038854 60.0792157L158.038854 51.5694118C158.013518 51.1072882 158.200912 50.6590862 158.547134 50.3537255 158.890245 50.0770859 159.317367 49.9269143 159.757325 49.9281817 160.197614 49.9249207 160.625383 50.0753195 160.967516 50.3537255 161.304869 50.6645135 161.486766 51.1101787 161.463694 51.5694118L161.463694 60.0792157C161.488494 60.5387438 161.306306 60.9851224 160.967516 61.294902 160.625383 61.573308 160.197614 61.7237067 159.757325 61.7204458 159.313384 61.7235144 158.881858 61.5732966 158.535032 61.294902zM166.498089 61.027451C165.604126 60.5586236 164.867505 59.8355714 164.380255 58.9486275 163.866034 57.9769608 163.611669 56.8878592 163.642038 55.7878431 163.613419 54.6841282 163.86762 53.5915424 164.380255 52.614902 164.871649 51.7341998 165.607496 51.0161316 166.498089 50.5482353 168.517444 49.5920513 170.856442 49.5920513 172.875796 50.5482353 173.768906 51.0126306 174.505647 51.7315717 174.993631 52.614902 175.510465 53.5904128 175.768848 54.6830604 175.743949 55.7878431 175.770048 56.8888791 175.511532 57.9779037 174.993631 58.9486275 174.509896 59.8382534 173.772347 60.562216 172.875796 61.027451 170.863663 62.0155062 168.510222 62.0155062 166.498089 61.027451L166.498089 61.027451zM172.246497 55.7878431C172.303284 54.9252395 172.068776 54.0686095 171.580892 53.3564706 171.116416 52.798729 170.415449 52.4963056 169.692994 52.5419608 167.986624 52.5419608 167.127389 53.6360784 167.127389 55.8364706 167.127389 58.0368627 167.986624 59.1309804 169.692994 59.1309804 171.399363 59.1309804 172.246497 57.9882353 172.246497 55.7878431zM188.087898 51.0588235C188.836301 52.1194313 189.191656 53.4096785 189.092357 54.7058824L189.092357 60.1035294C189.119936 60.55865 188.947414 61.0030213 188.620382 61.3192157 188.263809 61.63331 187.799032 61.7947572 187.325478 61.7690196 186.855287 61.796836 186.393502 61.6349149 186.042675 61.3192157 185.718676 61.0017706 185.550431 60.55701 185.582803 60.1035294L185.582803 54.827451C185.632562 54.2270302 185.479048 53.6273204 185.147134 53.1254902 184.814838 52.7414309 184.320906 52.5384502 183.815924 52.5784314 183.154339 52.5526856 182.512687 52.8087459 182.049045 53.2835294 181.598132 53.7990509 181.363865 54.4701769 181.395541 55.1556863L181.395541 60.0184314C181.42312 60.473552 181.250599 60.9179233 180.923567 61.2341176 180.574159 61.5522236 180.111336 61.7145089 179.640764 61.6839216 179.170762 61.7103855 178.709478 61.5486402 178.357962 61.2341176 178.022177 60.9230815 177.844269 60.4762918 177.873885 60.0184314L177.873885 51.4843137C177.84094 51.0208998 178.029699 50.5694334 178.382166 50.2686275 178.738787 49.9629285 179.196436 49.8024576 179.664968 49.8188235 180.111173 49.7908942 180.549063 49.9492501 180.875159 50.2564706 181.177873 50.5429028 181.345072 50.9451195 181.335032 51.3627451L181.335032 51.6909804C181.72069 51.0817634 182.264684 50.589945 182.90828 50.2686275 183.581455 49.9354038 184.324179 49.7686782 185.074522 49.7823529 186.220772 49.7206906 187.331709 50.1912853 188.087898 51.0588235L188.087898 51.0588235z"/>
    <path fill="#7F829B" d="M26.9267516,29.9666587 C26.138943,29.9655369 25.3555174,30.0844041 24.6031847,30.3192157 C20.841275,31.4619344 18.4839455,35.2045679 19.0669441,39.1088736 C19.6499427,43.0131793 22.9966462,45.8963228 26.9267516,45.880069 C27.718146,45.8760825 28.5048267,45.7573398 29.2624204,45.527451 C32.9914086,44.3531133 35.3120042,40.6239239 34.7293464,36.7421188 C34.1466887,32.8603137 30.8346508,29.9842763 26.9267516,29.9666587"/>
    <path fill="#000638" d="M24.7484076 33.394902C25.491987 35.7479275 24.7449634 38.3190116 22.8581261 39.9008182 20.9712888 41.4826247 18.3194699 41.7609176 16.1479176 40.6050155 13.9763652 39.4491133 12.7164719 37.0886434 12.9598616 34.6320412 13.2032514 32.1754391 14.9015732 30.1107243 17.2573248 29.407451 20.418858 28.463624 23.750488 30.2370274 24.7484076 33.394902zM41.8847134 52.4568627C42.8479267 55.6003203 41.0927384 58.9331196 37.9638547 59.9018958 34.8349709 60.8706721 31.5165729 59.1087748 30.5509921 55.9660503 29.5854114 52.8233257 31.3380889 49.4891933 34.466242 48.5180392 35.9699502 48.0512039 37.5967237 48.2040187 38.9881991 48.94282 40.3796745 49.6816213 41.4216952 50.9457977 41.8847134 52.4568627L41.8847134 52.4568627z"/>
    <path fill="#4C5073" d="M5.22802548,43.6552941 C4.81790218,43.6560404 4.41012621,43.7174845 4.01783439,43.8376471 C1.97273201,44.4709778 0.759292706,46.5808035 1.23459555,48.6769075 C1.7098984,50.7730114 3.71325939,52.146771 5.82966027,51.8278693 C7.94606116,51.5089677 9.46001755,49.6052148 9.30218852,47.4612736 C9.14435949,45.3173323 7.36810174,43.6579975 5.22802548,43.6552941"/>
    <path fill="#B2B4C3" d="M43.0101911,36.3003922 C42.710479,36.2971041 42.4121908,36.3422557 42.1267516,36.4341176 C40.6957719,36.8752298 39.8009929,38.3011889 40.0219984,39.7883451 C40.2430038,41.2755012 41.5133532,42.3767731 43.0101911,42.3788235 C43.3134237,42.3760532 43.6148087,42.3310493 43.9057325,42.245098 C45.3389196,41.8033192 46.2339222,40.373851 46.0096117,38.8848525 C45.7853012,37.3958539 44.50933,36.2964093 43.0101911,36.3003922"/>
    <path fill="#999BAF" d="M10.5044586,12.752541 C9.83138164,12.7522824 9.16217205,12.8547593 8.51974522,13.0564706 C5.15717648,14.1051314 3.16794924,17.5805197 3.95741685,21.027336 C4.74688446,24.4741523 8.04807139,26.7267813 11.5287483,26.1937811 C15.0094253,25.6607808 17.4925262,22.5223968 17.2237848,18.995841 C16.9550435,15.4692852 14.0253406,12.7471387 10.5044586,12.752541"/>
    <path fill="#E5E6EB" d="M37.5159236,0.960392157 C36.2597928,0.960652657 35.0110458,1.1533246 33.8127389,1.53176471 C27.8985619,3.38132214 24.2062585,9.28204433 25.1113786,15.4375316 C26.0164987,21.5930188 31.2493862,26.1694104 37.4433121,26.2223529 C38.698399,26.2203322 39.9462902,26.0318889 41.1464968,25.6631373 C47.0806737,23.828116 50.7930664,17.9166564 49.8862168,11.7463708 C48.9793673,5.57608532 43.7248069,0.994498197 37.5159236,0.960392157"/>
    <path fill="#333860" d="M49.7751592,8.07206952 C47.0899834,8.07329739 44.8487283,10.1310867 44.6067573,12.8174813 C44.3647862,15.5038758 46.2019499,17.9323634 48.8433121,18.4176471 C49.1545481,18.4761304 49.4706323,18.5046258 49.7872611,18.5028324 C52.472437,18.5016046 54.7136921,16.4438152 54.9556631,13.7574207 C55.1976341,11.0710262 53.3604705,8.64253855 50.7191083,8.1572549 C50.4078723,8.09877152 50.0917881,8.07027619 49.7751592,8.07206952"/>
  </g>
</svg>
