<svg xmlns="http://www.w3.org/2000/svg" viewBox="0 0 267.7 246.2"><path d="M111.3 200.7c.6 0 1.1.5.9 1.6l-2.8.6c.4-1.2 1.3-2.2 1.9-2.2m1.6 4.6h-.6c-.7.9-1.5 1.5-2.2 1.5s-1.2-.5-1.2-1.5c0-.4 0-.9.1-1.2l4.6-1.5c.9-2.1-.1-3.1-1.5-3.1-2.2 0-4.7 3.6-4.7 6.8 0 1.5.7 2.2 1.7 2.2 1.5 0 2.7-1.2 3.8-3.2m-1-6.7l3.2-3v-.4h-1.7l-2 3.3h.5zm-9.8 2.1h1.5l-2.5 6.7c-.2.6.1 1.1.6 1.1 1.4 0 3.6-1.4 4.3-3.2h-.4c-.6.6-1.9 1.5-2.8 1.7l2.2-6.2h2.2l.2-1h-2.2l.9-2.3h-.9l-1.6 2.3-1.9.2v.6h.4zm-2-.2c.1-.6-.2-1-.5-1-1.4 0-2.8 1.2-3.6 2.8h.4c.4-.6 1.1-1.2 1.9-1.4l-2.6 6.6c-.2.6.2 1 .5 1 1.2 0 2.7-1.2 3.3-2.8h-.4c-.4.6-1.1 1.2-1.9 1.4l2.9-6.6zm.4-3.3c.6 0 1.1-.5 1.1-1.1 0-.6-.5-1.1-1.1-1.1s-1.1.5-1.1 1.1c-.1.6.4 1.1 1.1 1.1m-14.6 10.1c-.4.7 0 1.2.7 1.2.5 0 .6-.1.9-.6l1.7-4.7c.9-1 2.5-2.1 3.2-2.1.5 0 .4.4.1 1l-2.7 5.2c-.2.5.1 1.1.6 1.1 1.4 0 3-1.2 3.6-2.8h-.4c-.4.6-1.1 1.2-1.9 1.4l2.3-4.7c.2-.6.5-1.1.5-1.6 0-.7-.4-1.2-1.2-1.2-1.1 0-2.3 1.2-3.7 2.8V201c0-.9-.2-1.6-1.1-1.6-.5 0-1 .4-1.5 1v.1c.9 0 1.2 1.2.6 2.6l-1.7 4.2zm0-5.8c.4-1.1.1-2-.7-2-1 0-1.2.7-2.2 2.8v-1.2c0-.9-.2-1.6-1.1-1.6-1 0-1.7 1.5-2.5 2.8h.4c.5-.6.9-1 1.2-1s.6.6 0 2l-1.9 4c-.4.7 0 1.2.7 1.2.5 0 .6-.1.9-.6l1.7-4.7c.5-.6 1-1.1 1.5-1.7h2zm-10.3-.8c.6 0 1.1.5.9 1.6l-2.8.6c.4-1.2 1.3-2.2 1.9-2.2m1.6 4.6h-.6c-.7.9-1.5 1.5-2.2 1.5s-1.2-.5-1.2-1.5c0-.4 0-.9.1-1.2l4.6-1.5c.9-2.1-.1-3.1-1.5-3.1-2.2 0-4.7 3.6-4.7 6.8 0 1.5.7 2.2 1.7 2.2 1.5 0 2.7-1.2 3.8-3.2m-10.9-4.6h1.5l-2.5 6.7c-.2.6.1 1.1.6 1.1 1.4 0 3.6-1.4 4.3-3.2h-.4c-.6.6-1.9 1.5-2.8 1.7l2.2-6.2h2.2l.2-1h-2.2l.9-2.3h-.6l-1.6 2.3-1.9.2v.7zm-8.2 5.2c0-2.1 2.2-4.8 3.6-4.8.2 0 .5 0 .7.1l-1.4 3.6c-.7 1-2 2.1-2.5 2.1-.3-.1-.4-.3-.4-1m6.9-6.8h-.7l-.7.7h-.1c-3.8 0-7 4.2-7 7.3 0 .9.5 1.4 1.4 1.4 1 0 2-1.4 3-2.8v.5c-.1 1.5.4 2.3 1.1 2.3 1 0 1.7-1.5 2.5-2.8h-.4c-.5.6-.9 1-1.2 1s-.6-.6 0-2l2.1-5.6zm-8.1 2.4c.4-1.1.1-2-.7-2-1 0-1.2.7-2.2 2.8v-1.2c0-.9-.2-1.6-1.1-1.6-1 0-1.7 1.5-2.5 2.8h.4c.5-.6.9-1 1.2-1 .4 0 .6.6 0 2l-1.9 4c-.4.7 0 1.2.7 1.2.5 0 .6-.1.9-.6l1.7-4.7c.5-.6 1-1.1 1.5-1.7h2zm-12.7 6.7l.1-.5c-2.2-.4-2.5-.4-1.6-2.8l.9-2.5h2.5c1.1 0 1.1.5 1 1.6h.6l1.5-4h-.6c-.5 1-1 1.6-2.2 1.6H44l1.2-3.5c.4-1.1.6-1.4 2.1-1.4h1.1c1.5 0 1.7.4 1.7 2h.6l.5-2.7h-9.1l-.1.5c1.7.4 2 .5 1.1 2.8l-2 5.4c-.9 2.2-1.2 2.5-3.2 2.8l-.2.5h6.5zM89.1 180c.6 0 1.1.5.9 1.6l-2.8.6c.4-1.2 1.3-2.2 1.9-2.2m1.6 4.6h-.6c-.7.9-1.5 1.5-2.2 1.5s-1.2-.5-1.2-1.5c0-.4 0-.9.1-1.2l4.6-1.5c.9-2.1-.1-3.1-1.5-3.1-2.2 0-4.7 3.6-4.7 6.8 0 1.5.7 2.2 1.7 2.2 1.4 0 2.7-1.3 3.8-3.2m-.9-6.7l3.2-3v-.4h-1.7l-2 3.3h.5zm-10 2.1h1.5l-2.5 6.7c-.2.6.1 1.1.6 1.1 1.4 0 3.6-1.4 4.3-3.2h-.4c-.6.6-1.9 1.5-2.8 1.7l2.2-6.2H85l.2-1h-1.9l.9-2.3h-.9l-1.6 2.3-1.9.2v.6zm-2-.3c.1-.6-.2-1-.5-1-1.4 0-2.8 1.2-3.6 2.8h.4c.4-.6 1.1-1.2 1.9-1.4l-2.6 6.6c-.2.6.2 1 .5 1 1.2 0 2.7-1.2 3.3-2.8h-.4c-.4.6-1.1 1.2-1.9 1.4l2.9-6.6zm.4-3.3c.6 0 1.1-.5 1.1-1.1s-.5-1.1-1.1-1.1-1.1.5-1.1 1.1c.1.6.5 1.1 1.1 1.1m-8.8 9.9l4.6-12.1-.1-.1-2.8.4v.4l.6.4c.5.4.4.7-.1 2l-3.6 9.5c-.2.5.1 1.1.6 1.1 1.4 0 2.7-1.2 3.3-2.8h-.4c-.5.4-1.3 1.1-2.1 1.2m-8.8-1.1c0-2.1 2.2-4.8 3.6-4.8.2 0 .5 0 .7.1l-1.4 3.6c-.7 1-2 2.1-2.5 2.1-.2-.2-.4-.4-.4-1m7-6.8h-.7l-.7.7H66c-3.8 0-7 4.2-7 7.3 0 .9.5 1.4 1.4 1.4 1 0 2-1.4 3-2.8v.5c-.1 1.5.4 2.3 1.1 2.3 1 0 1.7-1.5 2.5-2.8h-.4c-.5.6-.9 1-1.2 1-.4 0-.6-.6 0-2l2.2-5.6zm-16.8 11c0-.9.9-1.5 2.1-1.9.4.2 1 .4 1.7.7 1.2.4 1.7.6 1.7 1 0 .9-1.4 1.5-3.2 1.5-1.6-.2-2.3-.5-2.3-1.3m3.3-5.3c-.5 0-.7-.5-.7-1 0-1.5.7-3.7 2.1-3.7.5 0 .7.5.7 1 0 1.4-.7 3.7-2.1 3.7m3.7 4.4c0-1.1-1-1.5-2.5-1.9-1.4-.4-2-.5-2-1 0-.4.2-.7.9-1.1 2.2-.1 3.6-2.1 3.6-3.7 0-.4-.1-.6-.1-.9h1.9l.2-1h-3c-.4-.2-.7-.4-1.2-.4-2.3 0-3.8 2-3.8 3.7 0 1.2.7 2 1.7 2.2-1.1.5-1.7 1-1.7 1.7 0 .4.1.6.5.9-2.5.7-3.5 1.6-3.5 2.7s1.5 1.6 3.3 1.6c3.1.3 5.7-1.3 5.7-2.8m-11.6-7c1.1 0 1.1.5 1 1.6h.6l1.5-4h-.7c-.5 1-1 1.6-2.2 1.6H44l1.2-3.3c.4-1.1.6-1.4 2.1-1.4h1.1c1.5 0 1.7.4 1.7 2h.6l.5-2.7h-9.1l-.1.5c1.7.4 2 .5 1.1 2.8L41 184c-.9 2.2-1.2 2.5-3.2 2.8l-.1.5h10.1l1.9-2.8H49c-1.1 1.1-2.6 2.1-4.7 2.1-2.7 0-2.5-.1-1.6-2.6l1-2.6 2.5.1zm1.3-7l3.2-2.2v-.4h-2l-1.7 2.6h.5zm40.6-15.3c.6 0 1.1.5.9 1.6l-2.8.6c.3-1.2 1.1-2.2 1.9-2.2m1.5 4.6H89c-.7.9-1.5 1.5-2.2 1.5s-1.2-.5-1.2-1.5c0-.5 0-.9.1-1.2l4.6-1.5c.9-2.1-.1-3.1-1.5-3.1-2.2 0-4.7 3.6-4.7 6.8 0 1.5.7 2.2 1.7 2.2 1.4 0 2.8-1.2 3.8-3.2m-.9-6.7l3.2-3v-.4h-1.7l-2 3.3h.5zm-9.5 2.1h1.2l-2.5 6.7c-.2.6.1 1.1.6 1.1 1.4 0 3.6-1.4 4.3-3.2h-.4c-.6.6-1.7 1.5-2.8 1.7l2.2-6.2H84l.2-1H82l1-2.3h-.9l-1.6 2.3-1.6.2v.6h.3zm-1.2.8c.4-1.1.1-2-.7-2-1 0-1.2.7-2.2 2.8v-1.2c0-.9-.2-1.6-1.1-1.6-1 0-1.7 1.5-2.5 2.8h.4c.5-.6.9-1 1.2-1 .4 0 .6.6 0 2l-1.7 4c-.4.7 0 1.2.7 1.2.5 0 .6-.1.9-.6l1.9-4.6c.5-.6 1-1.1 1.5-1.7H78v-.1zm-10.2-.8c.6 0 1.1.5.9 1.6l-2.8.6c.4-1.2 1.2-2.2 1.9-2.2m1.6 4.6h-.6c-.7.9-1.5 1.5-2.2 1.5s-1.2-.5-1.2-1.5c0-.5 0-.9.1-1.2l4.6-1.5c.9-2.1-.1-3.1-1.5-3.1-2.2 0-4.7 3.6-4.7 6.8 0 1.5.7 2.2 1.7 2.2 1.5 0 2.7-1.2 3.8-3.2m-11.3 1.8c-.5 0-1.1-.4-1.1-.7 0-.1.2-.6.5-1.2l.7-2c.7-1 2-2 2.7-2 .4 0 .7.2.7.9 0 1.8-1.7 5-3.5 5m5.3-5.8c0-1.4-.5-1.9-1.5-1.9-1.1 0-2.2 1.2-3.3 2.7l2.7-7.3-.1-.1-2.8.4v.4l.6.4c.5.4.4.9-.1 2l-3 7.7c-.2.6-.5 1.2-.5 1.4 0 .7 1.1 1.5 2.1 1.5 2 0 5.9-4.1 5.9-7.2m-9.1-.8c.1-.6-.2-1-.5-1-1.4 0-2.8 1.2-3.6 2.8h.4c.4-.6 1.1-1.2 1.9-1.4l-2.6 6.6c-.2.6.2 1 .5 1 1.2 0 2.7-1.2 3.3-2.8h-.4c-.4.6-1.1 1.2-1.9 1.4l2.9-6.6zm.4-3.4c.6 0 1.1-.5 1.1-1.1 0-.6-.5-1.1-1.1-1.1-.6 0-1.1.5-1.1 1.1.1.6.5 1.1 1.1 1.1m-6.7-1.1h-6l-.1.5c1.7.4 2 .5 1.1 2.8l-2 5.4c-.9 2.2-1.2 2.5-3.2 2.8l-.1.5h9.1l2-3.6h-.6c-1.1 1.2-2.5 2.8-4.5 2.8-1.5 0-1.7-.2-.9-2.6l2-5.4c.9-2.2 1.2-2.5 3.2-2.8v-.4z"/><path d="M71.8 64.2l1-1c.6-.7 1.2-1.4 1.9-2 .2-.2.4-.4.6-.5 0 0 0-.1.1-.2-.2.1-.5.4-.7.5 0 0-.1 0 0-.1.2-.1.4-.2.6-.5v-.1c-.7-.1-1.4.4-1.9.9h-.2c-.9.2-1.5 1-2.3 1.4v-.1c-.4.1-.6.4-1 .4-.5.1-1 0-1.4 0-.7.1-1.4.2-2.1.4-.4.1-.7.2-1.1.4 0 0 0 .1-.1.1l-.4.4c-.4.1-.6.5-1 .7h-.1l-.9.9h-.1c0-.1.1-.1.1-.2s.1-.1.1-.2c.1-.1.1-.2.2-.4v-.1H63c.2-.2.6-.5 1-.7h-.1l.1-.1c-.1 0-.2.1-.2.2-.1.1-.2.4-.5.4h-.1v-.1s0-.1.1-.1v-.6l.4-.4c.2-.1.5-.2.6-.4 0 0 .1 0 .1-.1-.4.1-.6.2-.9.5h-.2c0-.1.2-.1.4-.2h.1c1.9-1.4 4.3-1.1 6.4-1.9.1-.1.4-.2.5-.4.2-.1.5-.4.9-.6.5-.4.7-.7 1-1.4v-.1c-.7.7-1.6 1.4-2.5 1.9-1.2.6-2.5.5-3.7.7 0-.1.1-.1.2-.1 0-.1.1-.2.2-.4h.2s0-.1.1-.1h.2c-.1-.2-.5.1-.7 0 .1-.1 0-.2.1-.4h.3c0-.1.1-.2.1-.2.9-.5 1.6-.9 2.5-1.4-.1 0-.2.1-.5 0 .1 0 0-.1.1-.1.6-.1 1.1-.5 1.7-.7-.2 0-.4.1-.6 0 .1 0 .1-.1.4-.1v-.1h.1-.1c0-.1.2 0 .4-.1H71c.1-.2.5-.2.7-.4 0-.1-.2 0-.2-.1h.1-.1c-.1 0 0-.1 0-.2.4-.4.4-.9.5-1.4h-.1c-.6.6-1.5.9-2.3 1.1h-.2c-.2.1-.7.1-1 0-.2-.1-.4-.2-.6-.5-.5-.2-.9-.5-1.4-.7-1.4-.5-2.8-.7-4.3-.6.6-.4 1.4-.4 2-.6 1-.2 1.9-.6 2.8-.6h-.6c-.7 0-1.6.1-2.5.4-.6.1-1.1.4-1.6.5-.4.1-.5.5-.9.4V55c.6-.7 1.2-1.4 2.1-1.4 1-.1 2 0 3 .1.7 0 1.4.2 2.1.4.2 0 .4.5.6.5.4.1.7 0 1 .2v-.4c.2-.2.5 0 .7 0 .5-.2-.4-.7-.6-1.2v-.1c.5.4.7.9 1.4 1.1.2.1 1 .2.9 0-.2-.6-.9-1.1-1.4-1.7V52c-.1 0-.1 0-.1-.1v-.2c-.2-.1-.1-.4-.2-.5-.1-.2 0-.7-.1-1-.1-.4-.1-.6-.2-1-.1-1-.4-1.9-.5-2.7-.1-1.1.6-2 1.1-2.8.4-.7.9-1.4 1.6-1.9.1-.7.6-1.2 1.1-1.9.5-.5 1.2-.9 1.7-1.1.7-.9 1.4-1.1 1.4-1.1H88l.2.1c.2.1.6.4.9.5.4.2.9.5 1.1.9.1.1.2.5.1.7-.1.2-.1.7-.5.9-.4.1-.7.1-1.2.1-.2 0-.5 0-.7-.1.9.4 1.6.7 2.2 1.5 0 .1.2.1.5.1v.1c-.1.1-.2.1-.1.4h.4c.2-.1.2-.7.6-.5.2.1.4.6.2.9-.2.2-.5.4-.7.6v.4c.1.2.2.5.2.7.1.4.2.9.4 1.2.4.9.6 1.7.5 2.6 0 .5-.2.9 0 1.4.1.5.4.7.6 1.2.2.4.5.6.6.9.4.6 1 1.1.7 1.9-.1.4-.7.4-1.2.6-.4.2 0 .7.1 1 .2.5-.4.9-.7 1 .1.1.4.1.4.2 0 .2.4.5.1.7-.2.4-.9.5-.6 1 .2.4.1.9 0 1.2-.1.5-.6.7-1 .9-.4.1-.7.1-1.1 0-.1 0-.2-.1-.4-.1-1-.1-2-.4-2.8-.4-.2 0-.6.1-.7.2-.2.2-.5.4-.7.6l-.1.1-.1.1c-.1.2-.4.4-.5.6v.1c-.2.4-.4.7-.4 1-.4 1.4-.2 2.5 0 2.7.1.1 1.9.6 3.1 1.2.6.2 1 .5 1.4.6H65.2c1.1-.7 2.1-1.1 3.7-1.9.8-.1 2.4-.9 2.9-1.4m-8.7-4h-.2c0-.2.5-.2.7-.4.1 0 .2-.1.4-.1.1.1.2.1.4.2-.4.3-.9 0-1.3.3m-8.8-1.4c.7-1.1 1.2-2 1.7-3 .7-.4 1.4-1 2-1.6 1-1 2-2 3.2-2.5.5-.1 1-.1 1.5 0-.1.2-.5.1-.7.4h-.1V52c-.6.6-1.4.9-1.9 1.6-.4.6-.6 1.4-1.4 1.5-.2 0 0-.1 0-.1-1.5 1.1-2.8 2.3-4.3 3.8m4.9-3.7c0 .1-.1.1-.1.2s-.1.1-.2.2h-.1c-.1-.2 0-.4.4-.4 0-.1 0 0 0 0m2.6 8.5c0 .1-.1.1-.1.1.1 0 .1 0 .1.1-.1.1-.2.2-.4.2h-.1l-.2.2c-.1 0-.4 0-.2-.1l.4-.4.2-.2.1-.1c-.1.1.2.1.2.2m-1-.5c-.2.1-.5.4-.6.5-.2.1-.5.2-.7.4h-.1c-.2.1-.4.2-.6.5l-.1.1-.1.1-.1.1-.1.1h-.2-.1c-.1 0-.1.1-.2.1l-.4.4v-.1c0-.1.1-.1.1-.2V65l.1-.1c.1-.1.1-.1.1-.2 0 0 0-.1.1-.1 0 0 0-.1.1-.1v-.1-.1-.1c.1-.1.1-.2.2-.2-.1 0-.1.1-.2.1 0 0-.1 0-.1-.1l.1-.1c.1-.1.1-.2.2-.2s.1-.1.1-.1l.1-.1c.5-.5 1.5-.5 2.2-.9.2-.1.6 0 .9 0 .1 0 .4 0 .5.1-.4-.2-.9.2-1.2.4m1.1-3.9s.1 0 .2-.1h-.5V59c-.2 0-.6.1-.9.2-.4.1-.7.4-1.2.5-.6.2-1.1.7-1.9 1v-.1c0-.1.2-.2.4-.4V60c.5-.6 1.1-1 1.6-1.5v-.1c.1-.2.5-.4.6-.6 0-.1.2-.4.6-.5 0 0-.1 0-.1-.1-.2 0-.5.1-.7 0 .1-.1.2-.1.4-.2 0 0-.1 0-.1-.1s.1-.2.2-.2c.2 0 .5 0 .7-.2-.4 0-.9.1-1.2-.1.2-.7.7-1.4 1.5-1.7h.1c0 .2-.1.5-.5.6.5.1.9.1 1.4.4 0 .1-.1 0-.2 0 .2.1.6 0 .9.2-.1.1-.4 0-.5 0 1.7.5 3.6.9 5.1 2.1-1.2.6-2.6.9-4 1.2h-.5v.1c-.2 0-.4 0-.6.1-.3-.1-.6 0-.8-.2" fill="#fff"/><path d="M71.8 64.2l1-1c.6-.7 1.2-1.4 1.9-2 .2-.2.4-.4.6-.5 0 0 0-.1.1-.2-.2.1-.5.4-.7.5 0 0-.1 0 0-.1.2-.1.4-.2.6-.5v-.1c-.7-.1-1.4.4-1.9.9h-.2c-.9.2-1.5 1-2.3 1.4v-.1c-.4.1-.6.4-1 .4-.5.1-1 0-1.4 0-.7.1-1.4.2-2.1.4-.4.1-.7.2-1.1.4 0 0 0 .1-.1.1l-.4.4c-.4.1-.6.5-1 .7h-.1l-.9.9h-.1c0-.1.1-.1.1-.2s.1-.1.1-.2c.1-.1.1-.2.2-.4v-.1H63c.2-.2.6-.5 1-.7h-.1l.1-.1c-.1 0-.2.1-.2.2-.1.1-.2.4-.5.4h-.1v-.1s0-.1.1-.1v-.6l.4-.4c.2-.1.5-.2.6-.4 0 0 .1 0 .1-.1-.4.1-.6.2-.9.5h-.2c0-.1.2-.1.4-.2h.1c1.9-1.4 4.3-1.1 6.4-1.9.1-.1.4-.2.5-.4.2-.1.5-.4.9-.6.5-.4.7-.7 1-1.4v-.1c-.7.7-1.6 1.4-2.5 1.9-1.2.6-2.5.5-3.7.7 0-.1.1-.1.2-.1 0-.1.1-.2.2-.4h.2s0-.1.1-.1h.2c-.1-.2-.5.1-.7 0 .1-.1 0-.2.1-.4h.3c0-.1.1-.2.1-.2.9-.5 1.6-.9 2.5-1.4-.1 0-.2.1-.5 0 .1 0 0-.1.1-.1.6-.1 1.1-.5 1.7-.7-.2 0-.4.1-.6 0 .1 0 .1-.1.4-.1v-.1h.1-.1c0-.1.2 0 .4-.1H71c.1-.2.5-.2.7-.4 0-.1-.2 0-.2-.1h.1-.1c-.1 0 0-.1 0-.2.4-.4.4-.9.5-1.4h-.1c-.6.6-1.5.9-2.3 1.1h-.2c-.2.1-.7.1-1 0-.2-.1-.4-.2-.6-.5-.5-.2-.9-.5-1.4-.7-1.4-.5-2.8-.7-4.3-.6.6-.4 1.4-.4 2-.6 1-.2 1.9-.6 2.8-.6h-.6c-.7 0-1.6.1-2.5.4-.6.1-1.1.4-1.6.5-.4.1-.5.5-.9.4V55c.6-.7 1.2-1.4 2.1-1.4 1-.1 2 0 3 .1.7 0 1.4.2 2.1.4.2 0 .4.5.6.5.4.1.7 0 1 .2v-.4c.2-.2.5 0 .7 0 .5-.2-.4-.7-.6-1.2v-.1c.5.4.7.9 1.4 1.1.2.1 1 .2.9 0-.2-.6-.9-1.1-1.4-1.7V52c-.1 0-.1 0-.1-.1v-.2c-.2-.1-.1-.4-.2-.5-.1-.2 0-.7-.1-1-.1-.4-.1-.6-.2-1-.1-1-.4-1.9-.5-2.7-.1-1.1.6-2 1.1-2.8.4-.7.9-1.4 1.6-1.9.1-.7.6-1.2 1.1-1.9.5-.5 1.2-.9 1.7-1.1.7-.9 1.4-1.1 1.4-1.1H37.7v30h27.6c1.1-.7 2.1-1.1 3.7-1.9.7-.3 2.3-1.1 2.8-1.6m-8.7-4h-.2c0-.2.5-.2.7-.4.1 0 .2-.1.4-.1.1.1.2.1.4.2-.4.3-.9 0-1.3.3m-8.6-1.4s-.2 0 0 0c.7-1.1 1.2-2 1.7-3 .7-.4 1.4-1 2-1.6 1-1 2-2 3.2-2.5.5-.1 1-.1 1.5 0-.1.2-.5.1-.7.4H62V52c-.6.6-1.4.9-1.9 1.6-.4.6-.6 1.4-1.4 1.5-.2 0 0-.1 0-.1-1.6 1.1-2.9 2.3-4.2 3.8m4.7-3.7c0 .1-.1.1-.1.2s-.1.1-.2.2h-.1c-.1-.2 0-.4.4-.4 0-.1 0 0 0 0m2.6 8.5c0 .1-.1.1-.1.1.1 0 .1 0 .1.1-.1.1-.2.2-.4.2h-.1l-.2.2c-.1 0-.4 0-.2-.1l.4-.4.2-.2.1-.1c-.1.1.2.1.2.2m-1-.5c-.2.1-.5.4-.6.5-.2.1-.5.2-.7.4h-.1c-.2.1-.4.2-.6.5l-.1.1-.1.1-.1.1-.1.1h-.2-.1c-.1 0-.1.1-.2.1l-.4.4v-.1c0-.1.1-.1.1-.2V65l.1-.1c.1-.1.1-.1.1-.2 0 0 0-.1.1-.1 0 0 0-.1.1-.1v-.1-.1-.1c.1-.1.1-.2.2-.2-.1 0-.1.1-.2.1 0 0-.1 0-.1-.1l.1-.1c.1-.1.1-.2.2-.2s.1-.1.1-.1l.1-.1c.5-.5 1.5-.5 2.2-.9.2-.1.6 0 .9 0 .1 0 .4 0 .5.1-.4-.2-.7.2-1.2.4m1.1-3.9s.1 0 .2-.1h-.5V59c-.2 0-.6.1-.9.2-.4.1-.7.4-1.2.5-.6.2-1.1.7-1.9 1v-.1c0-.1.2-.2.4-.4V60c.5-.6 1.1-1 1.6-1.5v-.1c.1-.2.5-.4.6-.6 0-.1.2-.4.6-.5 0 0-.1 0-.1-.1-.2 0-.5.1-.7 0 .1-.1.2-.1.4-.2 0 0-.1 0-.1-.1s.1-.2.2-.2c.2 0 .5 0 .7-.2-.4 0-.9.1-1.2-.1.2-.7.7-1.4 1.5-1.7h.1c0 .2-.1.5-.5.6.5.1.9.1 1.4.4 0 .1-.1 0-.2 0 .2.1.6 0 .9.2-.1.1-.4 0-.5 0 1.7.5 3.6.9 5.1 2.1-1.2.6-2.6.9-4 1.2h-.5v.1c-.2 0-.4 0-.6.1-.3-.1-.6 0-.8-.2" fill="#000091"/><path d="M120.4 37.7H88l.2.1c.2.1.6.4.9.5.4.2.9.5 1.1.9.1.1.2.5.1.7-.1.2-.1.7-.5.9-.4.1-.7.1-1.2.1-.2 0-.5 0-.7-.1.9.4 1.6.7 2.2 1.5 0 .1.2.1.5.1v.1c-.1.1-.2.1-.1.4h.4c.2-.1.2-.7.6-.5.2.1.4.6.2.9-.2.2-.5.4-.7.6v.4c.1.2.2.5.2.7.1.4.2.9.4 1.2.4.9.6 1.7.5 2.6 0 .5-.2.9 0 1.4.1.5.4.7.6 1.2.2.4.5.6.6.9.4.6 1 1.1.7 1.9-.1.4-.7.4-1.2.6-.4.2 0 .7.1 1 .2.5-.4.9-.7 1 .1.1.4.1.4.2 0 .2.4.5.1.7-.2.4-.9.5-.6 1 .2.4.1.9 0 1.2-.1.5-.6.7-1 .9-.4.1-.7.1-1.1 0-.1 0-.2-.1-.4-.1-1-.1-2-.4-2.8-.4-.2 0-.6.1-.7.2-.2.2-.5.4-.7.6l-.1.1-.1.1c-.1.2-.4.4-.5.6v.1c-.2.4-.4.7-.4 1-.4 1.4-.2 2.5 0 2.7.1.1 1.9.6 3.1 1.2.6.2 1 .5 1.4.6h31.8V37.7z" fill="#e1000f"/><path d="M89.9 48.7c.2 0 .6 0 .6.1-.1.5-.7.6-1.1 1h-.1c-.1.1-.1.4-.2.4h-.5c.2.2.5.4.9.4 0 0 .1.1.1.2h.2v.2c-.1.2-.5.1-.7.1.5.1.9.1 1.4 0 .4-.1 0-.7.2-1-.1 0 0-.1-.1-.1l.4-.4c.1 0 .2 0 .4-.1 0-.1-.2-.1-.1-.2.4-.2.6-.6.5-.9 0-.1-.5-.1-.7-.2-.2-.1-.6 0-1 0-.2 0-.6.1-.9.2-.7.1-1 .4-1.4.5.4-.1.7-.2 1.2-.4.3.2.6 0 .9.2" fill="#9c9b9b"/><path d="M37.7 105.4V83h5.7l5.4 9.2 5.4-9.2H60v22.4h-4.5v-16l-5 8.3h-3.2l-5-8.3v15.9h-4.6zm28.8 0V83H71v22.4h-4.5zm11.2 0V83h5.8l10 16V83H98v22.4h-5.8l-10-16.1v16.1h-4.5zm26.9 0V83h4.5v22.4h-4.5zm9.2-3.1l3.3-3c.7.9 1.4 1.5 2.3 2 .9.5 1.8.7 2.7.7.9 0 1.6-.2 2.1-.7.5-.5.8-1.1.8-1.9 0-1-.5-1.8-1.6-2.3-1.1-.5-2.2-1.1-3.5-1.7-1.3-.6-2.5-1.4-3.5-2.4-1.1-1-1.6-2.4-1.6-4.2 0-.9.2-1.7.5-2.5.4-.8.8-1.5 1.5-2.1s1.4-1.1 2.3-1.4c.9-.3 1.8-.5 2.9-.5 1.7 0 3.2.3 4.5 1 1.3.7 2.4 1.6 3.4 2.7l-3.3 3c-.7-.9-1.4-1.5-2.1-2-.7-.5-1.5-.8-2.4-.8-.8 0-1.4.2-1.9.7-.5.4-.7 1-.7 1.7 0 1 .5 1.8 1.6 2.3 1.1.5 2.2 1.1 3.5 1.7 1.3.6 2.5 1.4 3.5 2.4 1.1 1 1.6 2.4 1.6 4.3 0 1-.2 2-.6 2.8-.4.8-.9 1.5-1.6 2.1-.7.6-1.4 1-2.3 1.3-.9.3-1.9.5-2.9.5-1.9 0-3.5-.3-4.8-1-1.6-.6-2.8-1.6-3.7-2.7zm18.3-15.2V83h18.4v4.1h-6.9v18.3H139V87.1h-6.9zm22.7 18.3V83h13.1v3.9h-8.5V92h7.2v3.9h-7.2v5.6h8.5v3.9h-13.1zm4.5-24.3l-4.1-4.3h4.7l3.6 4.3h-4.2zm14.2 24.3V83h6.8c2.5 0 4.4.6 5.8 1.8 1.4 1.2 2.1 2.8 2.1 4.9 0 1.3-.3 2.5-.9 3.5-.6 1-1.5 1.8-2.6 2.3l7 9.9h-5.4l-6-9.1H178v9.1h-4.5zm7.1-18.5H178v5.6h2.6c1 0 1.7-.2 2.2-.7.5-.5.8-1.2.8-2.1 0-.9-.3-1.5-.8-2-.5-.6-1.3-.8-2.2-.8zm14.3 18.5V83H208v3.9h-8.5V92h7.2v3.9h-7.2v5.6h8.5v3.9h-13.1zm-157.2 32V115h8.8c1.8 0 3.4.3 4.9.9 1.5.6 2.7 1.4 3.8 2.4 1 1 1.8 2.2 2.4 3.6s.9 2.8.9 4.3-.3 2.9-.9 4.3c-.6 1.4-1.4 2.5-2.4 3.6-1 1-2.3 1.8-3.8 2.4-1.5.6-3.1.9-4.9.9h-8.8zm8.9-18.3h-4.3v14.1h4.3c1 0 2-.2 2.9-.5.9-.4 1.6-.9 2.3-1.5.6-.6 1.1-1.4 1.5-2.3.4-.9.5-1.8.5-2.8 0-1-.2-1.9-.5-2.8-.4-.9-.9-1.6-1.5-2.2-.6-.6-1.4-1.1-2.3-1.5-.9-.3-1.9-.5-2.9-.5zm29.7 9.9v-14h4.5v13.6c0 2.9-.8 5.2-2.4 6.9-1.6 1.7-3.8 2.5-6.6 2.5s-5-.8-6.6-2.5-2.4-4-2.4-6.9V115h4.5v14c0 1.5.4 2.7 1.2 3.5s1.9 1.3 3.3 1.3 2.5-.4 3.3-1.3c.8-.8 1.2-2 1.2-3.5zm16.9-9.9V115h18.4v4.1h-6.9v18.3h-4.5v-18.3h-7zm22.6 18.3V115h6.8c2.5 0 4.4.6 5.8 1.8 1.4 1.2 2.1 2.8 2.1 4.9 0 1.3-.3 2.5-.9 3.5-.6 1-1.5 1.8-2.6 2.3l7 9.9h-5.4l-6-9.1h-2.3v9.1h-4.5zm7.1-18.5h-2.6v5.6h2.6c1 0 1.7-.2 2.2-.7.5-.5.8-1.2.8-2.1 0-.9-.3-1.5-.8-2-.4-.6-1.2-.8-2.2-.8zm12.5 18.5l8.5-22.4h6l8.5 22.4h-4.8l-2.1-5.8h-9l-2.1 5.8h-5zm8.4-9.7h6.1l-3.1-8.4-3 8.4zm13.5-12.7h4.8l6.6 17.5 6.6-17.5h4.8l-8.5 22.4h-6l-8.3-22.4zm21.9 22.4l8.5-22.4h6l8.5 22.4h-4.8l-2.1-5.8h-9l-2.1 5.8h-5zm8.4-9.7h6.1l-3.1-8.4-3 8.4zm18.3 9.7V115h4.5v22.4h-4.5zm11.1 0V115h4.5v18.3h8.5v4.1h-13z"/></svg>