<?xml version="1.0" encoding="UTF-8"?>
<svg width="125px" height="102px" viewBox="0 0 125 102" version="1.1" xmlns="http://www.w3.org/2000/svg" xmlns:xlink="http://www.w3.org/1999/xlink">
    <title>D6E3C2BD-946C-455B-95AA-087E3157F44F</title>
    <g id="Landing-Plateforme-Copy" stroke="none" stroke-width="1" fill="none" fill-rule="evenodd">
        <g id="Landing-desktop-PI" transform="translate(-142.000000, 0.000000)">
            <g id="Group-2" transform="translate(0.000000, -0.000000)">
                <g id="01-Fondamentaux/bloc-marque/Marianne-⭥12" transform="translate(142.000000, -0.000000)">
                    <rect id="fond" fill="#FFFFFF" x="0" y="-6.36105875e-15" width="124.438281" height="102"></rect>
                    <g id="devises" transform="translate(10.742873, 71.619155)" fill="#000000" fill-rule="nonzero">
                        <path d="M26.5886112,16.6514535 C26.8249544,16.6514535 27.029069,16.8340823 26.9216403,17.2530544 L25.8366101,17.543112 C26.0084961,17.0274541 26.3307823,16.6514535 26.5886112,16.6514535 M27.1902121,18.4132847 L26.9753547,18.4132847 C26.7067828,18.7355709 26.4059824,18.9933999 26.1159248,18.9933999 C25.8151244,18.9933999 25.6647241,18.810771 25.6647241,18.4132847 C25.6647241,18.2521416 25.6862099,18.0802556 25.7184385,17.9298554 L27.4695268,17.3497403 C27.8132988,16.5332819 27.4050696,16.1787671 26.9216403,16.1787671 C26.0944391,16.1787671 25.1490662,17.629055 25.1490662,18.7892853 C25.1490662,19.3371718 25.4068952,19.6379723 25.8151244,19.6379723 C26.2878108,19.6272294 26.781983,19.1652858 27.1902121,18.4132847 M26.9108974,15.7920236 L27.9099846,14.8788794 L27.9099846,14.7499649 L27.2439265,14.7499649 L26.6530685,15.7920236 L26.9108974,15.7920236 Z M23.1723775,16.6729392 L23.7524927,16.6729392 L22.8286056,19.2082573 C22.7426626,19.4231148 22.8608342,19.6379723 23.0864346,19.6379723 C23.7417498,19.6379723 24.5259796,19.0793429 24.82678,18.2843702 L24.6656369,18.2843702 C24.4292937,18.6173993 23.9136358,18.982657 23.5268924,19.0471142 L24.3755794,16.6729392 L25.2457521,16.6729392 L25.3531808,16.3076816 L24.5044938,16.3076816 L24.82678,15.3945373 L24.493751,15.3945373 L23.8921501,16.3076816 L23.1723775,16.4043674 L23.1723775,16.6729392 L23.1723775,16.6729392 Z M22.5707766,16.5547676 C22.6459768,16.3184244 22.4848337,16.18951 22.3666621,16.18951 C21.861747,16.18951 21.2601461,16.6407106 21.01306,17.285283 L21.1742031,17.285283 C21.3353462,17.0489398 21.6146609,16.7911109 21.8832328,16.7481394 L20.9163742,19.2727146 C20.8304312,19.5090578 21.0023172,19.6379723 21.1204888,19.6379723 C21.6039181,19.6379723 22.1625475,19.1760287 22.4096336,18.5421992 L22.2377476,18.5421992 C22.0766045,18.7785424 21.7972898,19.0363714 21.5287179,19.0793429 L22.5707766,16.5547676 Z M22.6674625,15.5449376 C22.88232,15.5449376 23.0649488,15.3730516 23.0649488,15.1474512 C23.0649488,14.9325938 22.88232,14.7499649 22.6674625,14.7499649 C22.4418622,14.7499649 22.2699762,14.9325938 22.2699762,15.1474512 C22.2699762,15.3623087 22.452605,15.5449376 22.6674625,15.5449376 M17.9728269,16.8877967 C18.1232271,16.8877967 18.2091701,17.1241399 17.9728269,17.6397978 L17.285283,19.1652858 C17.1563685,19.4553434 17.2960259,19.6379723 17.5753406,19.6379723 C17.7472266,19.6379723 17.8224267,19.5950008 17.8976268,19.4123719 L18.5744278,17.629055 C18.8859711,17.2530544 19.4660863,16.8448252 19.7131724,16.8448252 C19.8958012,16.8448252 19.8743155,16.9952254 19.7561439,17.2208258 L18.724828,19.2082573 C18.6281422,19.401629 18.7570567,19.6379723 18.982657,19.6379723 C19.487572,19.6379723 20.0891729,19.1867716 20.336259,18.5421992 L20.1751159,18.5421992 C20.0139728,18.7785424 19.7346581,19.0363714 19.4660863,19.0793429 L20.3577448,17.285283 C20.4759164,17.0596827 20.5296307,16.8448252 20.5296307,16.6729392 C20.5296307,16.3828817 20.3684876,16.18951 20.0569443,16.18951 C19.6164865,16.18951 19.2404859,16.6836821 18.7140852,17.2960259 L18.7140852,16.8233395 C18.7140852,16.4903104 18.6066564,16.18951 18.305856,16.18951 C17.9513412,16.18951 17.629055,16.7373965 17.3819689,17.285283 L17.543112,17.285283 C17.6935122,17.0274541 17.8439124,16.8877967 17.9728269,16.8877967 M17.2745401,16.952254 C17.3927118,16.5440248 17.3282545,16.1787671 17.0167112,16.1787671 C16.6192249,16.1787671 16.5010533,16.4473389 16.103567,17.285283 L16.103567,16.8125966 C16.103567,16.4795675 15.9961382,16.1787671 15.6953378,16.1787671 C15.340823,16.1787671 15.0185368,16.7266536 14.7714507,17.2745401 L14.9325938,17.2745401 C15.1044798,17.0274541 15.2656229,16.8770538 15.3945373,16.8770538 C15.5449376,16.8770538 15.6308805,17.1133971 15.3945373,17.629055 L14.7069934,19.154543 C14.578079,19.4446005 14.7177363,19.6272294 14.997051,19.6272294 C15.168937,19.6272294 15.2441371,19.5842579 15.3193372,19.401629 L15.9961382,17.6183121 C16.18951,17.3819689 16.3613959,17.1778543 16.5762534,16.952254 L17.2745401,16.952254 L17.2745401,16.952254 Z M13.5467631,16.6514535 C13.7831063,16.6514535 13.9872209,16.8340823 13.8797922,17.2530544 L12.794762,17.543112 C12.966648,17.0274541 13.2889342,16.6514535 13.5467631,16.6514535 M14.148364,18.4132847 L13.9335066,18.4132847 C13.6649347,18.7355709 13.3641343,18.9933999 13.0740767,18.9933999 C12.7732763,18.9933999 12.622876,18.810771 12.622876,18.4132847 C12.622876,18.2521416 12.6443618,18.0802556 12.6765904,17.9298554 L14.4276787,17.3497403 C14.7714507,16.5332819 14.3632215,16.1787671 13.8797922,16.1787671 C13.052591,16.1787671 12.1072181,17.629055 12.1072181,18.7892853 C12.1072181,19.3371718 12.3650471,19.6379723 12.7732763,19.6379723 C13.2459627,19.6272294 13.7401349,19.1652858 14.148364,18.4132847 M10.1305295,16.6729392 L10.7106446,16.6729392 L9.78675751,19.2082573 C9.70081452,19.4231148 9.81898613,19.6379723 10.0445865,19.6379723 C10.6999017,19.6379723 11.4841315,19.0793429 11.7849319,18.2843702 L11.6237888,18.2843702 C11.3874456,18.6173993 10.8717877,18.982657 10.4850443,19.0471142 L11.3337313,16.6729392 L12.203904,16.6729392 L12.3113327,16.3076816 L11.4626457,16.3076816 L11.7849319,15.3945373 L11.4519029,15.3945373 L10.850302,16.3076816 L10.1305295,16.4043674 L10.1305295,16.6729392 L10.1305295,16.6729392 Z M7.05806771,18.638885 C7.05806771,17.8546553 7.92824044,16.8018537 8.41166974,16.8018537 C8.51909847,16.8018537 8.6265272,16.8125966 8.71247019,16.8448252 L8.20755515,18.1984272 C7.91749757,18.5529421 7.46629689,18.982657 7.25143943,18.982657 C7.13326782,18.982657 7.05806771,18.8752283 7.05806771,18.638885 M9.72230027,16.0391097 L9.45372844,16.017624 L9.15292799,16.3184244 L9.09921362,16.3184244 C7.82081171,16.3184244 6.45646681,17.9083697 6.45646681,19.154543 C6.45646681,19.4446005 6.61760991,19.6379723 6.92915323,19.6379723 C7.30515379,19.6379723 7.67041148,19.1008286 8.07864067,18.5314563 L8.05715492,18.7355709 C8.00344055,19.3156861 8.1860694,19.6379723 8.48686985,19.6379723 C8.84138467,19.6379723 9.16367086,19.0900857 9.41075695,18.5421992 L9.24961385,18.5421992 C9.07772788,18.7892853 8.91658478,18.9396855 8.7876703,18.9396855 C8.65875582,18.9396855 8.56206996,18.7033423 8.7876703,18.1876844 L9.72230027,16.0391097 Z M6.99361047,16.952254 C7.11178208,16.5440248 7.04732484,16.1787671 6.73578151,16.1787671 C6.3382952,16.1787671 6.2201236,16.4473389 5.82263729,17.285283 L5.82263729,16.8125966 C5.82263729,16.4795675 5.71520856,16.1787671 5.41440811,16.1787671 C5.05989329,16.1787671 4.73760709,16.7266536 4.49052101,17.2745401 L4.65166411,17.2745401 C4.82355008,17.0274541 4.98469318,16.8770538 5.10286478,16.8770538 C5.25326501,16.8770538 5.33920799,17.1133971 5.10286478,17.629055 L4.4153209,19.1652858 C4.28640642,19.4553434 4.42606377,19.6379723 4.70537847,19.6379723 C4.87726444,19.6379723 4.95246456,19.5950008 5.02766467,19.4123719 L5.70446568,17.629055 C5.8978374,17.3927118 6.06972337,17.1885972 6.28458084,16.9629968 L6.99361047,16.9629968 L6.99361047,16.952254 Z M2.50308946,19.5090578 L2.5675467,19.3156861 C1.71885972,19.154543 1.61143098,19.154543 1.95520293,18.2413987 L2.26674625,17.3819689 L2.94354726,17.3819689 C3.36251932,17.3819689 3.36251932,17.5645977 3.30880495,18.0265413 L3.54514816,18.0265413 L4.10377757,16.5010533 L3.86743436,16.5010533 C3.66331977,16.866311 3.4914338,17.1456257 3.04023312,17.1456257 L2.36343211,17.1456257 L2.82537566,15.8887095 C2.98651876,15.4375088 3.06171887,15.3515658 3.64183402,15.3515658 L3.79223425,15.3515658 C4.38309228,15.3515658 4.44754952,15.5127089 4.44754952,16.1357956 L4.68389273,16.1357956 L4.87726444,15.0937369 L1.62217386,15.0937369 L1.55771662,15.2871086 C2.23451763,15.426766 2.29897487,15.4912232 1.98743155,16.3613959 L1.28914479,18.2306559 C0.96685859,19.1008286 0.837944112,19.1652858 0.0644572394,19.3049432 L0,19.5090578 L2.50308946,19.5090578 Z" id="Shape"></path>
                        <path d="M18.6925994,9.28184247 C18.9289426,9.28184247 19.1330572,9.46447131 19.0256285,9.8727005 L17.9405983,10.1627581 C18.1232271,9.65784303 18.4455133,9.28184247 18.6925994,9.28184247 M19.2942003,11.0329308 L19.0793429,11.0329308 C18.810771,11.355217 18.5099706,11.613046 18.219913,11.613046 C17.9191125,11.613046 17.7687123,11.4304171 17.7687123,11.0329308 C17.7687123,10.8717877 17.7901981,10.6999017 17.8224267,10.5495015 L19.5842579,9.96938635 C19.9280298,9.15292799 19.5090578,8.79841317 19.0363714,8.79841317 C18.2091701,8.79841317 17.2637973,10.2487011 17.2637973,11.4089314 C17.2637973,11.9568179 17.5216262,12.2576184 17.9298554,12.2576184 C18.4025418,12.2576184 18.896714,11.7956748 19.2942003,11.0329308 M19.0148856,8.42241261 L20.0139728,7.50926839 L20.0139728,7.38035391 L19.3479147,7.38035391 L18.7570567,8.42241261 L19.0148856,8.42241261 Z M15.2871086,9.30332821 L15.8672238,9.30332821 L14.9433367,11.8386463 C14.8573937,12.0535038 14.9755653,12.2683612 15.2011656,12.2683612 C15.8564809,12.2683612 16.6407106,11.7097318 16.9415111,10.9147592 L16.780368,10.9147592 C16.5440248,11.2477883 16.0283669,11.613046 15.6416234,11.6775032 L16.4903104,9.30332821 L17.3604831,9.30332821 L17.4679119,8.93807052 L16.6192249,8.93807052 L16.9415111,8.0249263 L16.608482,8.0249263 L16.0068811,8.93807052 L15.2871086,9.03475638 L15.2871086,9.30332821 L15.2871086,9.30332821 Z M14.6855077,9.17441374 C14.7499649,8.93807052 14.5995647,8.80915605 14.4706502,8.80915605 C13.9657352,8.80915605 13.3641343,9.27109959 13.1170482,9.90492911 L13.2781913,9.90492911 C13.4393344,9.6685859 13.7186491,9.41075695 13.9872209,9.36778545 L13.0203624,11.8923607 C12.9344194,12.1287039 13.1063053,12.2576184 13.2244769,12.2576184 C13.7079062,12.2576184 14.2665356,11.7956748 14.5136217,11.1618453 L14.3524786,11.1618453 C14.1913355,11.3981885 13.9120208,11.6560175 13.643449,11.6989889 L14.6855077,9.17441374 Z M14.7821936,8.17532653 C14.997051,8.17532653 15.1796799,7.99269768 15.1796799,7.77784022 C15.1796799,7.56298275 14.997051,7.38035391 14.7821936,7.38035391 C14.5565932,7.38035391 14.3847073,7.56298275 14.3847073,7.77784022 C14.3847073,7.99269768 14.5673361,8.17532653 14.7821936,8.17532653 M11.6775032,11.6989889 L13.2781913,7.44481115 L13.2244769,7.38035391 L12.117961,7.50926839 L12.117961,7.63818286 L12.3328185,7.79932596 C12.5261902,7.94972619 12.4617329,8.08938354 12.289847,8.56206996 L11.0651594,11.8279034 C10.9684736,12.0212751 11.097388,12.2576184 11.3229884,12.2576184 C11.8279034,12.2576184 12.3650471,11.7956748 12.6121332,11.1618453 L12.4509901,11.1618453 C12.2791041,11.3981885 11.9353322,11.6560175 11.6775032,11.6989889 M8.40092686,11.269274 C8.40092686,10.4850443 9.27109959,9.43224269 9.75452889,9.43224269 C9.86195762,9.43224269 9.95864348,9.44298557 10.0553293,9.47521419 L9.5504143,10.8288162 C9.26035672,11.183331 8.80915605,11.613046 8.60504145,11.613046 C8.47612698,11.613046 8.40092686,11.5056172 8.40092686,11.269274 M11.0651594,8.66949869 L10.7965876,8.64801295 L10.4957871,8.9488134 L10.4420728,8.9488134 C9.16367086,8.9488134 7.79932596,10.5387586 7.79932596,11.7849319 C7.79932596,12.0749895 7.96046906,12.2683612 8.27201238,12.2683612 C8.64801295,12.2683612 9.01327064,11.7312176 9.42149982,11.1618453 L9.40001407,11.3659599 C9.34629971,11.946075 9.52892855,12.2683612 9.829729,12.2683612 C10.1842438,12.2683612 10.50653,11.7204747 10.7536161,11.1725882 L10.592473,11.1725882 C10.420587,11.4196742 10.2594439,11.5700745 10.1305295,11.5700745 C10.001615,11.5700745 9.90492911,11.3337313 10.1305295,10.8180733 L11.0651594,8.66949869 Z M4.86652157,12.880705 C4.86652157,12.5476759 5.18880777,12.3328185 5.65075132,12.1501896 C5.80115154,12.2253897 6.02675188,12.3113327 6.3382952,12.4080186 C6.8217245,12.5691617 7.00435334,12.6336189 7.00435334,12.7732763 C7.00435334,13.0848196 6.56389554,13.3211628 5.75818005,13.3211628 C5.15657915,13.3211628 4.86652157,13.1922483 4.86652157,12.880705 M6.18789498,10.8288162 C5.97303751,10.8288162 5.8978374,10.6461874 5.8978374,10.4528156 C5.8978374,9.829729 6.19863785,9.05624213 6.68206715,9.05624213 C6.89692461,9.05624213 6.97212472,9.23887097 6.97212472,9.43224269 C6.96138185,10.0660722 6.6605814,10.8288162 6.18789498,10.8288162 M7.55223988,12.5691617 C7.55223988,12.1609325 7.18698219,12.0212751 6.59612416,11.8386463 C6.09120912,11.6882461 5.86560878,11.6452746 5.86560878,11.4733886 C5.86560878,11.3444741 5.97303751,11.183331 6.18789498,11.0651594 C7.02583909,11.0221879 7.55223988,10.2701868 7.55223988,9.61487154 C7.55223988,9.49669993 7.53075413,9.3892712 7.49852551,9.29258534 L8.06789779,9.29258534 L8.17532653,8.92732765 L7.20846794,8.92732765 C7.07955346,8.84138467 6.91841036,8.79841317 6.73578151,8.79841317 C5.85486591,8.79841317 5.2962365,9.57190004 5.2962365,10.2487011 C5.2962365,10.6891589 5.55406546,10.9899593 5.95155177,11.0436737 C5.54332258,11.2370454 5.30697937,11.44116 5.30697937,11.6989889 C5.30697937,11.8493892 5.36069374,11.9568179 5.48960822,12.0427609 C4.54423537,12.3220756 4.15749194,12.6658475 4.15749194,13.0848196 C4.15749194,13.5252774 4.73760709,13.7079062 5.41440811,13.7079062 C6.58538129,13.7186491 7.55223988,13.0955625 7.55223988,12.5691617 M3.19063335,10.001615 C3.6096054,10.001615 3.62034828,10.1842438 3.55589104,10.6461874 L3.79223425,10.6461874 L4.35086366,9.12069937 L4.11452045,9.12069937 C3.91040585,9.48595706 3.73851988,9.76527176 3.28731921,9.76527176 L2.36343211,9.76527176 L2.81463279,8.5083556 C2.97577588,8.05715492 3.050976,7.97121193 3.63109115,7.97121193 L4.03932033,7.97121193 C4.63017836,7.97121193 4.6946356,8.13235503 4.6946356,8.75544168 L4.93097881,8.75544168 L5.12435053,7.71338298 L1.62217386,7.71338298 L1.55771662,7.90675469 C2.23451763,8.04641205 2.29897487,8.11086929 1.98743155,8.98104202 L1.28914479,10.8610448 C0.96685859,11.7312176 0.837944112,11.7956748 0.0537143661,11.9353322 L0,12.1394467 L3.88892011,12.1394467 L4.58720687,11.0329308 L4.31863504,11.0329308 C3.86743436,11.4733886 3.41623369,11.8816178 2.53531808,11.8816178 C1.50400225,11.8816178 1.58994524,11.8279034 1.93371718,10.8717877 L2.25600338,10.0123578 L3.19063335,10.0123578 L3.19063335,10.001615 Z M3.69554839,7.38035391 L4.6946356,6.6605814 L4.6946356,6.53166692 L4.02857746,6.53166692 L3.43771943,7.39109678 L3.69554839,7.39109678 L3.69554839,7.38035391 Z" id="Shape"></path>
                        <path d="M18.5744278,1.91223143 C18.810771,1.91223143 19.0148856,2.09486028 18.9074569,2.50308946 L17.8224267,2.79314704 C17.9943127,2.288232 18.3165989,1.91223143 18.5744278,1.91223143 M19.1760287,3.66331977 L18.9611712,3.66331977 C18.6925994,3.98560597 18.391799,4.24343492 18.1017414,4.24343492 C17.8009409,4.24343492 17.6505407,4.06080608 17.6505407,3.66331977 C17.6505407,3.50217667 17.6720265,3.3302907 17.7042551,3.17989048 L19.4553434,2.59977532 C19.7991154,1.78331696 19.3801433,1.42880214 18.9074569,1.42880214 C18.0802556,1.42880214 17.1348828,2.87909002 17.1348828,4.03932033 C17.1348828,4.58720687 17.3927118,4.87726444 17.8009409,4.87726444 C18.2736274,4.88800732 18.7677995,4.42606377 19.1760287,3.66331977 M18.896714,1.05280158 L19.8958012,0.139657352 L19.8958012,0.0107428732 L19.2297431,0.0107428732 L18.638885,1.05280158 L18.896714,1.05280158 Z M15.1581941,1.93371718 L15.7383093,1.93371718 L14.8144222,4.46903526 C14.7284792,4.68389273 14.8466508,4.89875019 15.0722511,4.89875019 C15.7275664,4.89875019 16.5117961,4.34012078 16.8125966,3.54514816 L16.6514535,3.54514816 C16.4151103,3.87817723 15.8994524,4.24343492 15.5127089,4.30789216 L16.3613959,1.93371718 L17.2315687,1.93371718 L17.3389974,1.56845949 L16.4903104,1.56845949 L16.8125966,0.655315267 L16.4795675,0.655315267 L15.8779666,1.56845949 L15.1581941,1.66514535 L15.1581941,1.93371718 L15.1581941,1.93371718 Z M14.8573937,2.21303188 C14.9755653,1.8048027 14.911108,1.43954501 14.5995647,1.43954501 C14.2020784,1.43954501 14.0839068,1.70811684 13.6864205,2.54606095 L13.6864205,2.07337453 C13.6864205,1.74034546 13.5789918,1.43954501 13.2781913,1.43954501 C12.9236765,1.43954501 12.6013903,1.98743155 12.3543042,2.53531808 L12.5154473,2.53531808 C12.6873333,2.288232 12.8484764,2.13783177 12.966648,2.13783177 C13.1170482,2.13783177 13.2029912,2.37417498 12.966648,2.8898329 L12.2791041,4.4153209 C12.1501896,4.70537847 12.289847,4.88800732 12.5691617,4.88800732 C12.7410476,4.88800732 12.8162478,4.84503583 12.8914479,4.66240698 L13.5682489,2.87909002 C13.7616206,2.64274681 13.9335066,2.43863222 14.148364,2.21303188 L14.8573937,2.21303188 Z M11.1188738,1.91223143 C11.355217,1.91223143 11.5593316,2.09486028 11.4519029,2.50308946 L10.3668727,2.79314704 C10.5495015,2.288232 10.8610448,1.91223143 11.1188738,1.91223143 M11.7204747,3.66331977 L11.5056172,3.66331977 C11.2370454,3.98560597 10.9362449,4.24343492 10.6461874,4.24343492 C10.3453869,4.24343492 10.1949867,4.06080608 10.1949867,3.66331977 C10.1949867,3.50217667 10.2164724,3.3302907 10.2487011,3.17989048 L11.9997894,2.59977532 C12.3435613,1.78331696 11.9353322,1.42880214 11.4519029,1.42880214 C10.6247016,1.42880214 9.67932878,2.87909002 9.67932878,4.03932033 C9.67932878,4.58720687 9.93715773,4.87726444 10.3453869,4.87726444 C10.8180733,4.88800732 11.3122455,4.42606377 11.7204747,3.66331977 M7.62743999,4.3723494 C7.45555402,4.3723494 7.20846794,4.2112063 7.20846794,4.07154895 C7.20846794,4.02857746 7.28366805,3.83520574 7.38035391,3.58811966 L7.65966861,2.83611853 C7.96046906,2.47086084 8.43315548,2.08411741 8.69098444,2.08411741 C8.85212754,2.08411741 8.97029914,2.18080327 8.97029914,2.41714648 C8.98104202,3.11543324 8.32572675,4.3723494 7.62743999,4.3723494 M9.58264292,2.14857465 C9.58264292,1.63291673 9.45372844,1.43954501 9.08847075,1.43954501 C8.63727007,1.43954501 8.21829802,1.92297431 7.79932596,2.50308946 L8.70172731,0.0859429858 L8.64801295,0.0107428732 L7.54149701,0.139657352 L7.54149701,0.268571831 L7.75635447,0.429714929 C7.94972619,0.580115154 7.88526895,0.730515379 7.71338298,1.19245893 L6.73578151,3.74926276 C6.64983853,3.96412022 6.55315267,4.22194918 6.55315267,4.28640642 C6.55315267,4.58720687 6.96138185,4.87726444 7.33738241,4.87726444 C8.17532653,4.88800732 9.58264292,3.34103357 9.58264292,2.14857465 M6.29532371,1.8048027 C6.35978095,1.56845949 6.20938073,1.43954501 6.08046625,1.43954501 C5.5755512,1.43954501 4.9739503,1.90148856 4.72686422,2.53531808 L4.88800732,2.53531808 C5.04915042,2.29897487 5.32846512,2.04114591 5.59703695,1.99817442 L4.63017836,4.52274963 C4.54423537,4.75909284 4.71612135,4.88800732 4.84503583,4.88800732 C5.32846512,4.88800732 5.88709453,4.42606377 6.13418061,3.79223425 L5.97303751,3.79223425 C5.81189442,4.02857746 5.53257971,4.28640642 5.26400788,4.32937791 L6.29532371,1.8048027 Z M6.40275244,0.794972619 C6.61760991,0.794972619 6.80023875,0.612343774 6.80023875,0.397486309 C6.80023875,0.182628845 6.61760991,-3.18052938e-15 6.40275244,-3.18052938e-15 C6.17715211,-3.18052938e-15 6.00526613,0.182628845 6.00526613,0.397486309 C6.00526613,0.623086647 6.17715211,0.794972619 6.40275244,0.794972619 M3.9318916,0.322286197 L1.62217386,0.322286197 L1.55771662,0.515657915 C2.23451763,0.655315267 2.29897487,0.719772506 1.98743155,1.58994524 L1.28914479,3.4914338 C0.96685859,4.36160653 0.837944112,4.42606377 0.0644572394,4.56572112 L-4.77079406e-15,4.75909284 L3.51291955,4.75909284 L4.27566354,3.40549081 L4.00709171,3.40549081 C3.56663391,3.88892011 3.07246174,4.50126388 2.288232,4.50126388 C1.69737397,4.50126388 1.61143098,4.39383515 1.94446005,3.4914338 L2.63200394,1.60068811 C2.95429014,0.730515379 3.08320462,0.66605814 3.86743436,0.526400788 L3.9318916,0.322286197 Z" id="Shape"></path>
                    </g>
                    <path d="M13.3748771,34.9143378 L13.3748771,29.5214155 L15.0507653,32.3360483 L16.1250526,32.3360483 L17.8009409,29.5214155 L17.8009409,34.9143378 L19.3264289,34.9143378 L19.3264289,27.3943266 L17.4249403,27.3943266 L15.587909,30.5527313 L13.7508777,27.3943266 L11.8493891,27.3943266 L11.8493891,34.9143378 L13.3748771,34.9143378 Z M23.1034445,34.9143378 L23.1034445,27.3943266 L21.5779565,27.3943266 L21.5779565,34.9143378 L23.1034445,34.9143378 Z M26.891203,34.9143378 L26.891203,29.478444 L30.2537223,34.9143378 L32.2089252,34.9143378 L32.2089252,27.3943266 L30.6834372,27.3943266 L30.6834372,32.8302204 L27.3209179,27.3943266 L25.365715,27.3943266 L25.365715,34.9143378 L26.891203,34.9143378 Z M35.9966837,34.9143378 L35.9966837,27.3943266 L34.4711957,27.3943266 L34.4711957,34.9143378 L35.9966837,34.9143378 Z M40.3645573,35.1291953 C41.7503879,35.1291953 42.846161,34.2805083 42.8676468,32.8624491 C42.8676468,30.2841595 39.4514131,30.6709029 39.4514131,29.306558 C39.4514131,28.8553574 39.8059279,28.5115854 40.3430716,28.5115854 C40.9124438,28.5115854 41.406616,28.887586 41.8470738,29.4569583 L42.9643326,28.4471282 C42.3197602,27.6843842 41.4603304,27.1794692 40.3323287,27.1794692 C38.8927837,27.1794692 37.9044393,28.1678135 37.9044393,29.3602724 C37.9044393,31.9063334 41.320673,31.5303328 41.320673,32.9161634 C41.320673,33.4533071 40.9554153,33.7755933 40.3538144,33.7755933 C39.7414707,33.7755933 39.1398698,33.4318213 38.6886691,32.8517062 L37.5821531,33.8722791 C38.2482113,34.6672518 39.0968983,35.1291953 40.3645573,35.1291953 Z M47.6437496,34.9143378 L47.6437496,28.7801573 L49.9642102,28.7801573 L49.9642102,27.3943266 L43.797801,27.3943266 L43.797801,28.7801573 L46.1182616,28.7801573 L46.1182616,34.9143378 L47.6437496,34.9143378 Z M54.3750553,26.7497542 L53.1611106,25.2994663 L51.5926512,25.2994663 L52.9784818,26.7497542 L54.3750553,26.7497542 Z M55.8468289,34.9143378 L55.8468289,33.6466788 L52.9892247,33.6466788 L52.9892247,31.7129616 L55.417114,31.7129616 L55.417114,30.4453026 L52.9892247,30.4453026 L52.9892247,28.6619857 L55.8468289,28.6619857 L55.8468289,27.3943266 L51.4637367,27.3943266 L51.4637367,34.9143378 L55.8468289,34.9143378 Z M59.3015583,34.9143378 L59.3015583,31.8741047 L60.0857881,31.8741047 L62.0947054,34.9143378 L63.8887652,34.9143378 L61.536076,31.5840472 C62.3095628,31.2295323 62.7500206,30.5527313 62.7500206,29.6395871 C62.7500206,28.2430136 61.7294477,27.3943266 60.0750452,27.3943266 L57.7760704,27.3943266 L57.7760704,34.9143378 L59.3015583,34.9143378 Z M60.1609882,30.6064457 L59.3015583,30.6064457 L59.3015583,28.6619857 L60.1609882,28.6619857 C60.8055606,28.6619857 61.1815612,29.0487291 61.1815612,29.6181014 C61.1815612,30.2304451 60.8055606,30.6064457 60.1609882,30.6064457 Z M69.3953834,34.9143378 L69.3953834,33.6466788 L66.5377791,33.6466788 L66.5377791,31.7129616 L68.9656685,31.7129616 L68.9656685,30.4453026 L66.5377791,30.4453026 L66.5377791,28.6619857 L69.3953834,28.6619857 L69.3953834,27.3943266 L65.0122911,27.3943266 L65.0122911,34.9143378 L69.3953834,34.9143378 Z M14.8036792,45.657211 C17.1885971,45.657211 18.8000281,43.9276084 18.8000281,41.8972054 C18.8000281,39.8668024 17.1885971,38.1371998 14.8036792,38.1371998 L11.8493891,38.1371998 L11.8493891,45.657211 L14.8036792,45.657211 Z M14.825165,44.2713804 L13.3748771,44.2713804 L13.3748771,39.5230304 L14.825165,39.5230304 C16.2217385,39.5230304 17.2315686,40.5543463 17.2315686,41.8972054 C17.2315686,43.2293217 16.2217385,44.2713804 14.825165,44.2713804 Z M23.3397877,45.8720685 C25.2305334,45.8720685 26.3907637,44.6903524 26.3907637,42.7136638 L26.3907637,38.1371998 L24.8652757,38.1371998 L24.8652757,42.8425783 C24.8652757,43.8524083 24.2851605,44.4432664 23.3505306,44.4432664 C22.3944148,44.4432664 21.8250426,43.8524083 21.8250426,42.8425783 L21.8250426,38.1371998 L20.2995546,38.1371998 L20.2995546,42.7136638 C20.2995546,44.6903524 21.4597849,45.8720685 23.3397877,45.8720685 Z M34.4604528,45.657211 L34.4604528,39.5230304 L36.7809134,39.5230304 L36.7809134,38.1371998 L30.6145042,38.1371998 L30.6145042,39.5230304 L32.9349648,39.5230304 L32.9349648,45.657211 L34.4604528,45.657211 Z M39.8059279,45.657211 L39.8059279,42.6169779 L40.5901576,42.6169779 L42.5990749,45.657211 L44.3931347,45.657211 L42.0404455,42.3269203 C42.8139324,41.9724055 43.2543902,41.2956045 43.2543902,40.3824603 C43.2543902,38.9858868 42.2338172,38.1371998 40.5794148,38.1371998 L38.2804399,38.1371998 L38.2804399,45.657211 L39.8059279,45.657211 Z M40.6653577,41.3493189 L39.8059279,41.3493189 L39.8059279,39.4048588 L40.6653577,39.4048588 C41.3099301,39.4048588 41.6859307,39.7916023 41.6859307,40.3609746 C41.6859307,40.9733183 41.3099301,41.3493189 40.6653577,41.3493189 Z M46.5157479,45.657211 L47.2355204,43.7020081 L50.2435249,43.7020081 L50.9632974,45.657211 L52.5854712,45.657211 L49.7386098,38.1371998 L47.7404354,38.1371998 L44.893574,45.657211 L46.5157479,45.657211 Z M49.7708385,42.4021205 L47.7082068,42.4021205 L48.7395226,39.5767448 L49.7708385,42.4021205 Z M57.1359737,45.657211 L59.9828351,38.1371998 L58.3606613,38.1371998 L56.1368865,44.0135514 L53.9131118,38.1371998 L52.2909379,38.1371998 L55.1377993,45.657211 L57.1359737,45.657211 Z M61.3104756,45.657211 L62.0302481,43.7020081 L65.0382526,43.7020081 L65.7580251,45.657211 L67.380199,45.657211 L64.5333376,38.1371998 L62.5351632,38.1371998 L59.6883018,45.657211 L61.3104756,45.657211 Z M64.5655662,42.4021205 L62.5029346,42.4021205 L63.5342504,39.5767448 L64.5655662,42.4021205 Z M70.2225846,45.657211 L70.2225846,38.1371998 L68.6970966,38.1371998 L68.6970966,45.657211 L70.2225846,45.657211 Z M76.8679474,45.657211 L76.8679474,44.2713804 L74.0103431,44.2713804 L74.0103431,38.1371998 L72.4848551,38.1371998 L72.4848551,45.657211 L76.8679474,45.657211 Z M79.291361,47.3760707 L80.5375343,44.1639517 L79.0013034,44.1639517 L78.0237019,47.3760707 L79.291361,47.3760707 Z M14.8036792,56.4000842 C17.1885971,56.4000842 18.8000281,54.6704816 18.8000281,52.6400786 C18.8000281,50.6096756 17.1885971,48.880073 14.8036792,48.880073 L11.8493891,48.880073 L11.8493891,56.4000842 L14.8036792,56.4000842 Z M14.825165,55.0142536 L13.3748771,55.0142536 L13.3748771,50.2659036 L14.825165,50.2659036 C16.2217385,50.2659036 17.2315686,51.2972195 17.2315686,52.6400786 C17.2315686,53.9721949 16.2217385,55.0142536 14.825165,55.0142536 Z M24.8115613,56.4000842 L24.8115613,55.1324252 L21.953957,55.1324252 L21.953957,53.198708 L24.3818464,53.198708 L24.3818464,51.931049 L21.953957,51.931049 L21.953957,50.147732 L24.8115613,50.147732 L24.8115613,48.880073 L20.428469,48.880073 L20.428469,56.4000842 L24.8115613,56.4000842 Z M34.0737094,56.4000842 L34.0737094,55.0142536 L31.2161051,55.0142536 L31.2161051,48.880073 L29.6906171,48.880073 L29.6906171,56.4000842 L34.0737094,56.4000842 Z M35.8525506,51.9740205 L36.0136937,48.880073 L34.4882057,48.880073 L34.6600916,51.9740205 L35.8525506,51.9740205 Z M42.2400844,56.4000842 L42.2400844,55.1324252 L39.3824801,55.1324252 L39.3824801,53.198708 L41.8103694,53.198708 L41.8103694,51.931049 L39.3824801,51.931049 L39.3824801,50.147732 L42.2400844,50.147732 L42.2400844,48.880073 L37.8569921,48.880073 L37.8569921,56.4000842 L42.2400844,56.4000842 Z M45.6948138,56.4000842 L45.6948138,51.0071619 L47.370702,53.8217947 L48.4449893,53.8217947 L50.1208775,51.0071619 L50.1208775,56.4000842 L51.6463655,56.4000842 L51.6463655,48.880073 L49.744877,48.880073 L47.9078456,52.0384777 L46.0708143,48.880073 L44.1693258,48.880073 L44.1693258,56.4000842 L45.6948138,56.4000842 Z M55.4233811,56.4000842 L55.4233811,53.3598511 L56.3794968,53.3598511 C58.0338993,53.3598511 59.0437294,52.5111641 59.0437294,51.1253335 C59.0437294,49.72876 58.0338993,48.880073 56.3794968,48.880073 L53.8978931,48.880073 L53.8978931,56.4000842 L55.4233811,56.4000842 Z M56.4439541,52.0921921 L55.4233811,52.0921921 L55.4233811,50.147732 L56.4439541,50.147732 C57.0885265,50.147732 57.4752699,50.5344755 57.4752699,51.1038477 C57.4752699,51.7161915 57.0885265,52.0921921 56.4439541,52.0921921 Z M64.8404052,56.4000842 L64.8404052,55.0142536 L61.9828009,55.0142536 L61.9828009,48.880073 L60.4573129,48.880073 L60.4573129,56.4000842 L64.8404052,56.4000842 Z M69.4231363,56.6149417 C71.7865684,56.6149417 73.4087422,54.7886532 73.4087422,52.6400786 C73.4087422,50.491504 71.7865684,48.6652155 69.4231363,48.6652155 C67.0489613,48.6652155 65.4267874,50.491504 65.4267874,52.6400786 C65.4267874,54.7886532 67.0489613,56.6149417 69.4231363,56.6149417 Z M69.4231363,55.1861395 C68.005077,55.1861395 66.9952469,54.0796236 66.9952469,52.6400786 C66.9952469,51.2005336 68.005077,50.0940177 69.4231363,50.0940177 C70.8304526,50.0940177 71.8402827,51.2005336 71.8402827,52.6400786 C71.8402827,54.0796236 70.8304526,55.1861395 69.4231363,55.1861395 Z M76.5519283,56.4000842 L76.5519283,48.880073 L75.0264403,48.880073 L75.0264403,56.4000842 L76.5519283,56.4000842 Z M16.2324814,67.1429574 L16.2324814,65.8752984 L13.3748771,65.8752984 L13.3748771,63.9415812 L15.8027665,63.9415812 L15.8027665,62.6739222 L13.3748771,62.6739222 L13.3748771,60.8906052 L16.2324814,60.8906052 L16.2324814,59.6229462 L11.8493891,59.6229462 L11.8493891,67.1429574 L16.2324814,67.1429574 Z M21.3953276,67.1429574 L21.3953276,61.0087768 L23.7157882,61.0087768 L23.7157882,59.6229462 L17.549379,59.6229462 L17.549379,61.0087768 L19.8698396,61.0087768 L19.8698396,67.1429574 L21.3953276,67.1429574 Z M31.1194192,67.1429574 C33.5043371,67.1429574 35.1157681,65.4133548 35.1157681,63.3829518 C35.1157681,61.3525488 33.5043371,59.6229462 31.1194192,59.6229462 L28.1651291,59.6229462 L28.1651291,67.1429574 L31.1194192,67.1429574 Z M31.140905,65.7571268 L29.6906171,65.7571268 L29.6906171,61.0087768 L31.140905,61.0087768 C32.5374785,61.0087768 33.5473086,62.0400926 33.5473086,63.3829518 C33.5473086,64.7150681 32.5374785,65.7571268 31.140905,65.7571268 Z M41.1273013,67.1429574 L41.1273013,65.8752984 L38.269697,65.8752984 L38.269697,63.9415812 L40.6975864,63.9415812 L40.6975864,62.6739222 L38.269697,62.6739222 L38.269697,60.8906052 L41.1273013,60.8906052 L41.1273013,59.6229462 L36.744209,59.6229462 L36.744209,67.1429574 L41.1273013,67.1429574 Z M50.3894494,67.1429574 L50.3894494,65.7571268 L47.5318451,65.7571268 L47.5318451,59.6229462 L46.0063571,59.6229462 L46.0063571,67.1429574 L50.3894494,67.1429574 Z M52.1682906,62.7168936 L52.3294337,59.6229462 L50.8039457,59.6229462 L50.9758316,62.7168936 L52.1682906,62.7168936 Z M55.6982201,67.1429574 L55.6982201,59.6229462 L54.1727321,59.6229462 L54.1727321,67.1429574 L55.6982201,67.1429574 Z M59.4859786,67.1429574 L59.4859786,61.7070636 L62.8484979,67.1429574 L64.8037008,67.1429574 L64.8037008,59.6229462 L63.2782128,59.6229462 L63.2782128,65.05884 L59.9156935,59.6229462 L57.9604906,59.6229462 L57.9604906,67.1429574 L59.4859786,67.1429574 Z M69.1715744,67.3578149 C70.5574051,67.3578149 71.6531781,66.5091279 71.6746639,65.0910686 C71.6746639,62.5127791 68.2584302,62.8995225 68.2584302,61.5351776 C68.2584302,61.0839769 68.612945,60.740205 69.1500887,60.740205 C69.719461,60.740205 70.2136331,61.1162055 70.6540909,61.6855778 L71.7713497,60.6757477 C71.1267773,59.9130037 70.2673475,59.4080887 69.1393458,59.4080887 C67.6998008,59.4080887 66.7114565,60.396433 66.7114565,61.588892 C66.7114565,64.1349529 70.1276901,63.7589523 70.1276901,65.144783 C70.1276901,65.6819266 69.7624325,66.0042128 69.1608316,66.0042128 C68.5484878,66.0042128 67.9468869,65.6604409 67.4956862,65.0803257 L66.3891703,66.1008987 C67.0552284,66.8958713 67.9039154,67.3578149 69.1715744,67.3578149 Z M77.8151116,67.1429574 L77.8151116,65.8752984 L74.9575073,65.8752984 L74.9575073,63.9415812 L77.3853967,63.9415812 L77.3853967,62.6739222 L74.9575073,62.6739222 L74.9575073,60.8906052 L77.8151116,60.8906052 L77.8151116,59.6229462 L73.4320193,59.6229462 L73.4320193,67.1429574 L77.8151116,67.1429574 Z M81.269841,67.1429574 L81.269841,64.1027243 L82.0540707,64.1027243 L84.062988,67.1429574 L85.8570479,67.1429574 L83.5043586,63.8126667 C84.2778455,63.4581519 84.7183033,62.7813509 84.7183033,61.8682067 C84.7183033,60.4716332 83.6977303,59.6229462 82.0433279,59.6229462 L79.744353,59.6229462 L79.744353,67.1429574 L81.269841,67.1429574 Z M82.1292709,62.8350653 L81.269841,62.8350653 L81.269841,60.8906052 L82.1292709,60.8906052 C82.7738433,60.8906052 83.1498438,61.2773486 83.1498438,61.8467209 C83.1498438,62.4590647 82.7738433,62.8350653 82.1292709,62.8350653 Z M89.7200065,67.1429574 L89.7200065,61.0087768 L92.0404671,61.0087768 L92.0404671,59.6229462 L85.8740579,59.6229462 L85.8740579,61.0087768 L88.1945185,61.0087768 L88.1945185,67.1429574 L89.7200065,67.1429574 Z M95.0654815,67.1429574 L95.0654815,59.6229462 L93.5399936,59.6229462 L93.5399936,67.1429574 L95.0654815,67.1429574 Z M100.679528,67.3578149 C103.042961,67.3578149 104.665134,65.5315264 104.665134,63.3829518 C104.665134,61.2343771 103.042961,59.4080887 100.679528,59.4080887 C98.3053535,59.4080887 96.6831796,61.2343771 96.6831796,63.3829518 C96.6831796,65.5315264 98.3053535,67.3578149 100.679528,67.3578149 Z M100.679528,65.9290127 C99.2614692,65.9290127 98.2516391,64.8224968 98.2516391,63.3829518 C98.2516391,61.9434068 99.2614692,60.8368908 100.679528,60.8368908 C102.086845,60.8368908 103.096675,61.9434068 103.096675,63.3829518 C103.096675,64.8224968 102.086845,65.9290127 100.679528,65.9290127 Z M107.808321,67.1429574 L107.808321,61.7070636 L111.17084,67.1429574 L113.126043,67.1429574 L113.126043,59.6229462 L111.600555,59.6229462 L111.600555,65.05884 L108.238035,59.6229462 L106.282833,59.6229462 L106.282833,67.1429574 L107.808321,67.1429574 Z" id="MINISTÈREDUTRAVAIL,DEL'EMPLOIETDEL'INSERTION" fill="#1E1E1E" fill-rule="nonzero"></path>
                    <g id="⭥12" transform="translate(10.742873, 10.742873)">
                        <rect id="Rectangle" fill="#FFFFFF" x="0" y="0" width="29.5429013" height="10.7428732"></rect>
                        <path d="M12.2556064,9.47981429 C12.3704375,9.36467469 12.4852685,9.24255694 12.6000996,9.11695011 L12.5966199,9.11695011 C12.8123631,8.8727146 13.0211468,8.63894633 13.2716873,8.42611254 C13.3482414,8.35633096 13.4213157,8.29701662 13.4909103,8.24816952 C13.5117886,8.22723505 13.5117886,8.18536611 13.532667,8.16792071 C13.4317549,8.20630058 13.3725995,8.29003847 13.2682076,8.32841833 C13.2473292,8.32841833 13.2264508,8.30748386 13.2473292,8.28654939 C13.3204035,8.23421321 13.3934778,8.17838795 13.4630724,8.12256269 C13.4595927,8.12256269 13.4526332,8.12256269 13.4491535,8.12256269 C13.4282751,8.12256269 13.4282751,8.10162822 13.4282751,8.08069375 C13.1638157,8.0388248 12.9619914,8.22374597 12.7810455,8.38424359 C12.7392888,8.40517806 12.7010117,8.36330912 12.6801334,8.36330912 C12.3773969,8.4644924 12.1546942,8.72966238 11.8519578,8.84829105 L11.8519578,8.80642211 C11.7301673,8.84829105 11.6118565,8.9215617 11.4865862,8.94947433 C11.3056403,8.99134328 11.142093,8.97040881 10.9820255,8.97040881 C10.7349647,8.99483236 10.4913837,9.05065761 10.2478026,9.10299379 C10.2408432,9.10648287 10.2338837,9.10648287 10.2269242,9.10997195 C10.0946945,9.14486274 9.972904,9.19370984 9.85111348,9.26349141 L9.83719456,9.27046957 C9.82675538,9.28442588 9.81631619,9.29489312 9.80935673,9.30536036 C9.76759998,9.35420746 9.72932296,9.3960764 9.67016756,9.42747811 C9.54489731,9.49028153 9.44398516,9.60193204 9.33611355,9.68915901 C9.32915409,9.69613717 9.31523518,9.69962624 9.30479599,9.69962624 C9.19692438,9.8042986 9.08905278,9.90897096 8.97770144,10.0101542 C8.97074198,10.0171324 8.93942442,10.0206215 8.91506632,10.0171324 C8.91506632,10.0171324 8.91854604,10.0171324 8.91854604,10.0136433 C8.92202577,10.0066652 8.9255055,9.99968701 8.92898523,9.99270885 C8.94638388,9.96479622 8.96378252,9.93688359 8.98118117,9.90897096 C9.00205955,9.87756926 9.01945819,9.84616755 9.04033657,9.81476584 C9.0681744,9.7728969 9.09601224,9.73102795 9.1273298,9.69264809 C9.13428926,9.68218085 9.13428926,9.67171362 9.1273298,9.66473546 C9.12037034,9.6577573 9.10993115,9.65426822 9.09949196,9.65426822 C9.20040411,9.55657402 9.31871491,9.47283613 9.44050543,9.39956548 L9.44050543,9.3960764 C9.42658651,9.39956548 9.40570814,9.38909824 9.41614733,9.37514193 C9.43006624,9.35769654 9.44050543,9.33676206 9.45094462,9.31931667 C9.45442435,9.31233851 9.45442435,9.30884944 9.45790408,9.30187128 C9.45442435,9.29489312 9.44746489,9.29140404 9.44398516,9.28442588 C9.4126676,9.30536036 9.3778703,9.32629483 9.35003247,9.35071838 C9.30131626,9.39258732 9.26303924,9.48330337 9.18996493,9.48330337 C9.1864852,9.48330337 9.16908655,9.48330337 9.15864736,9.47981429 C9.14820817,9.47981429 9.14124872,9.47632521 9.13776899,9.47283613 C9.13776899,9.46934705 9.13776899,9.46934705 9.14124872,9.46934705 C9.14124872,9.46934705 9.14472845,9.46585797 9.14472845,9.4623689 C9.14472845,9.4623689 9.14472845,9.45887982 9.14820817,9.45887982 C9.1516879,9.45190166 9.15516763,9.44841258 9.15864736,9.44143442 C9.16212709,9.43445627 9.16560682,9.43096719 9.16908655,9.42398903 C9.17256628,9.42049995 9.17256628,9.41352179 9.17604601,9.41003272 C9.17952574,9.40305456 9.1864852,9.39258732 9.18996493,9.38212009 C9.19344465,9.37514193 9.19692438,9.37165285 9.20040411,9.36467469 C9.2108433,9.35071838 9.21780276,9.33327299 9.22824195,9.31931667 C9.23172168,9.31233851 9.23520141,9.30536036 9.24216086,9.2983822 C9.24912032,9.28442588 9.25607978,9.27395865 9.26303924,9.26000233 C9.27347843,9.24255694 9.26303924,9.22860063 9.24912032,9.22511155 C9.28739734,9.17626445 9.33263382,9.1343955 9.38830949,9.10299379 L9.38135003,9.10299379 C9.45790408,9.06461393 9.53793785,9.01576683 9.61449189,8.97389788 C9.62493108,8.96343065 9.63537027,8.95296341 9.64928918,8.94598525 C9.53445812,8.98436512 9.43006624,9.0367013 9.32915409,9.10648287 C9.32915409,9.10648287 9.30131626,9.11695011 9.2943568,9.12392827 C9.2943568,9.12392827 9.27347843,9.13090642 9.24564059,9.10648287 C9.24216086,9.10299379 9.24216086,9.09950472 9.24216086,9.09252656 C9.26303924,9.05065761 9.32219464,9.03321222 9.36395139,8.99134328 C9.38482976,8.99134328 9.40222841,8.99134328 9.40222841,9.01227775 C10.049458,8.50636134 10.9402687,8.6284791 11.6884105,8.36330912 C11.7475659,8.32144018 11.810201,8.28306031 11.8693564,8.24119137 C11.9702686,8.19932242 12.0503024,8.09813914 12.1720929,8.0388248 C12.3321604,7.91670705 12.453951,7.7771439 12.5165861,7.57128826 C12.5165861,7.55035379 12.4957077,7.52941932 12.4957077,7.52941932 C12.2312483,7.81203469 11.9285118,8.03533573 11.604897,8.19932242 C11.1803701,8.42262346 10.7140863,8.38424359 10.2721607,8.44355793 C10.2930391,8.40168898 10.3347958,8.40168898 10.3730729,8.40168898 C10.3730729,8.33888557 10.4113499,8.32144018 10.4531066,8.27957123 L10.512262,8.27957123 C10.5331404,8.27957123 10.5331404,8.23770229 10.5540188,8.23770229 C10.5957755,8.23770229 10.6549309,8.21676782 10.6340526,8.21676782 C10.5714174,8.13651901 10.4531066,8.27608215 10.3521945,8.21676782 C10.3904715,8.17489887 10.3730729,8.11558453 10.4113499,8.09465006 L10.4913837,8.09465006 C10.4913837,8.05278112 10.5331404,8.01440125 10.5331404,8.01440125 C10.8358769,7.83296916 11.1212147,7.68991694 11.4030727,7.52941932 C11.3439173,7.52941932 11.3021606,7.59222274 11.2430052,7.55035379 C11.2847619,7.55035379 11.2430052,7.49103946 11.2847619,7.49103946 C11.5074646,7.43172512 11.6884105,7.30960736 11.9111132,7.22586948 C11.8310794,7.22586948 11.7684443,7.28867289 11.6884105,7.22586948 C11.7301673,7.20493501 11.7475659,7.16655514 11.810201,7.16655514 L11.810201,7.1072408 C11.810201,7.08630633 11.8310794,7.08630633 11.8519578,7.08630633 C11.8310794,7.08630633 11.810201,7.06537186 11.810201,7.06537186 C11.8310794,7.02350292 11.8902348,7.04443739 11.9319916,7.00605752 C11.9111132,7.00605752 11.8728362,7.00605752 11.8728362,6.98512305 C11.9319916,6.90487424 12.0329037,6.88393977 12.1338159,6.8630053 C12.1129375,6.82113635 12.0537821,6.8630053 12.0537821,6.82113635 C12.0537821,6.80020188 12.0746605,6.80020188 12.0955388,6.80020188 L12.0537821,6.80020188 C12.0120253,6.77926741 12.0329037,6.73739847 12.0329037,6.71995307 C12.1546942,6.57690085 12.1546942,6.39546876 12.2138496,6.23497114 C12.1929713,6.23497114 12.1720929,6.23497114 12.1720929,6.21403667 C11.9702686,6.4373377 11.6466538,6.51758651 11.3439173,6.59783532 L11.2430052,6.59783532 C11.142093,6.63970426 10.9994241,6.63970426 10.898512,6.57690085 C10.8184782,6.5350319 10.7767215,6.47571757 10.6966877,6.41640323 C10.5331404,6.31521995 10.3730729,6.23497114 10.1921269,6.17216772 C9.68756621,6.0116701 9.16212709,5.92793222 8.63668798,5.94886669 C8.85939065,5.82674894 9.10297169,5.8162817 9.34307301,5.74650013 C9.68756621,5.64531685 10.011181,5.52319909 10.3730729,5.54413356 C10.3139175,5.52319909 10.230404,5.54413356 10.1712486,5.54413356 C9.8893905,5.52319909 9.6040527,5.6034479 9.30131626,5.66625132 C9.09949196,5.70812026 8.91854604,5.78836907 8.71324202,5.82674894 C8.5914515,5.86861788 8.5322961,5.98724655 8.3896272,5.96980116 L8.3896272,5.90699774 C8.5914515,5.66276224 8.83503254,5.42201581 9.15864736,5.40108134 C9.52401893,5.341767 9.8650324,5.40108134 10.230404,5.44295028 C10.4913837,5.46388476 10.7349647,5.52319909 10.9994241,5.58600251 C11.1003363,5.58600251 11.1212147,5.74650013 11.2012484,5.7674346 C11.3230389,5.80930354 11.4448295,5.7674346 11.56662,5.84768341 C11.56662,5.80581446 11.5457416,5.7674346 11.56662,5.72556565 C11.6466538,5.64531685 11.7475659,5.74650013 11.8275997,5.70463118 C11.991147,5.6034479 11.6849308,5.42201581 11.604897,5.27896359 C11.604897,5.25802911 11.6257754,5.23709464 11.6257754,5.23709464 C11.7858429,5.38014687 11.9076335,5.54064449 12.1094578,5.64182777 C12.2103699,5.68369671 12.453951,5.74301105 12.4121942,5.6208933 C12.3112821,5.39759226 12.1094578,5.21616017 11.9459105,5.01379361 L11.9459105,4.9335448 C11.9041537,4.9335448 11.9041537,4.91261033 11.8867551,4.89167586 L11.8867551,4.81142705 C11.8067213,4.7695581 11.82412,4.68930929 11.7858429,4.62999496 C11.7232078,4.52881168 11.7649646,4.38575945 11.7232078,4.2636417 C11.6814511,4.14152394 11.6640524,4.04034066 11.643174,3.91822291 C11.5805389,3.57280412 11.5005051,3.26925428 11.4622281,2.94476997 C11.4204714,2.56097131 11.6849308,2.25393239 11.8658767,1.91200268 C12.0085456,1.66776718 12.1686132,1.42702075 12.4330726,1.26303405 C12.492228,1.01879855 12.6557752,0.816431985 12.8158428,0.614065423 C12.9759103,0.415187939 13.2473292,0.296559265 13.4387143,0.209332299 C13.7205724,0.0837254671 13.9745926,0.00347665799 13.9780724,0.00347665799 L0,0.00347665799 L0,10.7463498 L9.91722834,10.7463498 C10.3034783,10.4672235 10.6862485,10.3381276 11.2256065,10.0694686 C11.476147,9.94386175 12.0572618,9.67520269 12.2556064,9.47981429 M9.14472845,8.02835757 C9.10297169,8.02835757 9.02293792,8.04929204 9.0438163,8.0074231 C9.06469467,7.90623982 9.20388384,7.90623982 9.28739734,7.86437087 C9.32915409,7.8434364 9.38830949,7.80505653 9.43006624,7.82250193 C9.47182299,7.88181626 9.53097839,7.86437087 9.57273514,7.90275074 C9.44746489,8.02835757 9.28739734,7.96555415 9.14472845,8.02835757 M6.05124915,7.5817555 C6.05124915,7.5817555 6.03037077,7.56082103 6.03037077,7.53988656 C6.2948302,7.19446777 6.49665449,6.86998345 6.67760041,6.50711927 C6.94205984,6.36406705 7.15780305,6.15821141 7.3665868,5.93839945 C7.71108,5.57204619 8.07297184,5.24756188 8.49749881,5.04519532 C8.65756635,4.9823919 8.86287038,5.00332637 9.02293792,5.06612979 C8.96378252,5.1463786 8.86287038,5.12544413 8.77935687,5.18824754 C8.7584785,5.18824754 8.73760012,5.18824754 8.71672175,5.16731307 C8.73760012,5.1463786 8.73760012,5.12544413 8.73760012,5.10450965 C8.53577583,5.32781069 8.25391776,5.42899397 8.09037049,5.69416395 C7.96857996,5.89653051 7.88854619,6.16170049 7.6275665,6.22101482 C7.54753272,6.2419493 7.64844487,6.16170049 7.60668812,6.17914588 C6.98033686,6.56643361 6.53841124,7.03397015 6.05124915,7.5817555 M7.72847864,6.2419493 C7.70760027,6.28381824 7.68672189,6.28730732 7.66932325,6.32219811 C7.64844487,6.36406705 7.6275665,6.38151244 7.58928947,6.40244691 C7.5684111,6.40244691 7.54753272,6.40244691 7.54753272,6.38151244 C7.5684111,6.30126363 7.6275665,6.22101482 7.70760027,6.20008035 C7.72847864,6.20356943 7.72847864,6.2245039 7.72847864,6.2419493 M8.66800554,9.28093681 C8.65756635,9.30187128 8.63668798,9.32280575 8.61928933,9.34025114 C8.64364743,9.34374022 8.66104608,9.35769654 8.64712716,9.37165285 C8.60189068,9.41352179 8.5566542,9.45887982 8.49401908,9.47981429 C8.49053935,9.47981429 8.47662043,9.48330337 8.46270151,9.48330337 C8.43834341,9.50772692 8.4139853,9.53215047 8.38614747,9.55308494 C8.36178937,9.57401941 8.25043803,9.5600631 8.28523532,9.52866139 C8.33743126,9.48330337 8.38614747,9.43445627 8.43486368,9.38560917 C8.46270151,9.35769654 8.49401908,9.33327299 8.51837718,9.30536036 C8.5322961,9.28791496 8.54273529,9.27395865 8.56013393,9.26000233 C8.57753258,9.2495351 8.68540419,9.23906786 8.66800554,9.28093681 M8.3061137,9.11346103 C8.30263397,9.11346103 8.30263397,9.11346103 8.30263397,9.11695011 C8.22607993,9.16928629 8.15300561,9.22511155 8.07297184,9.27046957 C7.98597861,9.31931667 7.89550565,9.35769654 7.80503269,9.40305456 C7.80503269,9.40305456 7.80503269,9.39956548 7.80155296,9.39956548 C7.7945935,9.38909824 7.78067458,9.38560917 7.76675567,9.39258732 C7.69020162,9.43445627 7.62408677,9.49028153 7.56493137,9.54959586 C7.55449218,9.55657402 7.54405299,9.56704126 7.53709354,9.57750849 L7.53709354,9.57750849 C7.53709354,9.57750849 7.53709354,9.57750849 7.53709354,9.57750849 L7.5092557,9.60542112 C7.5092557,9.60542112 7.50577597,9.6089102 7.50577597,9.6089102 C7.50577597,9.6089102 7.50577597,9.6089102 7.50577597,9.61239928 C7.49185706,9.62635559 7.47793814,9.64031191 7.46053949,9.66124638 C7.4501003,9.67171362 7.44662058,9.68218085 7.43270166,9.68915901 C7.41878274,9.69613717 7.38398545,9.69613717 7.38746518,9.67520269 C7.38746518,9.67520269 7.38746518,9.67171362 7.38746518,9.67171362 C7.37702599,9.67869177 7.36310707,9.68566993 7.35266789,9.68915901 C7.3422287,9.69613717 7.33178951,9.69962624 7.32135032,9.7066044 C7.31787059,9.70311532 7.31091114,9.70311532 7.30743141,9.70311532 C7.30395168,9.70311532 7.29699222,9.70311532 7.29351249,9.7066044 C7.26915438,9.72753887 7.24479628,9.74498427 7.22043817,9.76940782 C7.17868142,9.80778768 7.1404044,9.84965663 7.10212738,9.89501465 C7.10212738,9.89501465 7.10212738,9.89850373 7.09864765,9.89850373 C7.09864765,9.90199281 7.09516792,9.90199281 7.09516792,9.90548189 C7.09168819,9.90897096 7.09168819,9.90897096 7.08820846,9.91246004 C7.08472873,9.91594912 7.08472873,9.9194382 7.08124901,9.9194382 C7.08124901,9.9194382 7.08124901,9.9194382 7.07776928,9.92292728 C7.07428955,9.92990544 7.07080982,9.93688359 7.06385036,9.94386175 C7.06385036,9.94386175 7.06385036,9.94386175 7.06385036,9.94386175 C7.06037063,9.94735083 7.05341117,9.95083991 7.04645171,9.95083991 C7.04297198,9.94735083 7.03949225,9.94386175 7.03949225,9.94037267 C7.03601253,9.93688359 7.03601253,9.93339451 7.0325328,9.92990544 C7.02557334,9.9194382 7.02209361,9.90897096 7.01513415,9.89850373 C7.01513415,9.89850373 7.01513415,9.89850373 7.01513415,9.89501465 C7.01513415,9.89152557 7.01165442,9.88803649 7.01165442,9.88454741 C7.0325328,9.86012386 7.05341117,9.83570031 7.07428955,9.81127676 C7.07428955,9.81127676 7.07776928,9.80778768 7.07776928,9.80778768 C7.08472873,9.80080953 7.09168819,9.79034229 7.09864765,9.78336413 C7.10908684,9.76940782 7.12300576,9.7554515 7.13344494,9.74149519 C7.13692467,9.73451703 7.1404044,9.73102795 7.14388413,9.7240498 C7.16476251,9.69613717 7.18564088,9.66822454 7.20651926,9.63682283 C7.20651926,9.63682283 7.20651926,9.63682283 7.20651926,9.63333375 C7.20999899,9.62984467 7.21347872,9.62635559 7.21347872,9.61937744 C7.2239179,9.60542112 7.23435709,9.59146481 7.24131655,9.57750849 C7.24827601,9.56355218 7.25523547,9.54959586 7.26219493,9.53563955 L7.26219493,9.53215047 L7.26567465,9.52866139 C7.26567465,9.52517231 7.26915438,9.52517231 7.26915438,9.52168323 C7.27611384,9.50423784 7.2830733,9.49028153 7.29003276,9.47283613 C7.29003276,9.47283613 7.29003276,9.46934705 7.29003276,9.46934705 L7.29351249,9.45539074 C7.29699222,9.44841258 7.29699222,9.44143442 7.30047195,9.43445627 C7.30047195,9.43445627 7.30047195,9.43096719 7.30047195,9.43096719 C7.30395168,9.42049995 7.30395168,9.41003272 7.30743141,9.39956548 C7.30743141,9.3960764 7.30743141,9.38909824 7.30395168,9.38560917 C7.32483005,9.3472293 7.35266789,9.31233851 7.38398545,9.27744773 C7.38050572,9.27744773 7.37702599,9.28093681 7.37354626,9.28093681 C7.34570843,9.2983822 7.32483005,9.32629483 7.29699222,9.3472293 C7.27611384,9.36467469 7.23435709,9.33676206 7.26219493,9.31582759 C7.27959357,9.30187128 7.29351249,9.28791496 7.30743141,9.27395865 C7.30743141,9.27395865 7.30743141,9.27046957 7.31091114,9.27046957 C7.34570843,9.23906786 7.37702599,9.19719892 7.41530301,9.16928629 C7.43966112,9.1518409 7.45705976,9.13788458 7.47793814,9.12043919 C7.48141787,9.11695011 7.4848976,9.11346103 7.48837733,9.11346103 C7.50229624,9.09601564 7.51621516,9.07857024 7.53361381,9.06112485 C7.53361381,9.06112485 7.53709354,9.06112485 7.53709354,9.05763577 C7.73195837,8.86922552 8.05557319,8.87969276 8.31307316,8.76106409 C8.4139853,8.71919514 8.53577583,8.78199856 8.63668798,8.76106409 C8.69584337,8.76106409 8.7584785,8.76106409 8.8176339,8.80293303 C8.64016771,8.89713815 8.4731407,9.00878867 8.3061137,9.11346103 M8.49749881,5.99422471 C8.51837718,5.99422471 8.56013393,5.99422471 8.56013393,6.01515918 C8.56013393,6.11634246 8.49749881,6.19659127 8.39658666,6.21752575 C8.56013393,6.25939469 8.72020148,6.25939469 8.88026902,6.3396435 C8.85939065,6.38151244 8.82111363,6.36057797 8.80023525,6.36057797 C8.9011474,6.41989231 9.02293792,6.38151244 9.12385007,6.46176125 C9.06121494,6.52107559 9.00205955,6.46176125 8.94290415,6.46176125 C9.56925541,6.64319334 10.2373634,6.78624557 10.7628025,7.19097869 C10.3173972,7.41427972 9.85111348,7.51546301 9.36743112,7.61664629 C9.30827572,7.61664629 9.26651897,7.61664629 9.20736357,7.59571181 C9.20736357,7.61664629 9.20736357,7.65502615 9.1864852,7.65502615 C9.10645142,7.65502615 9.0438163,7.65502615 8.9846609,7.6968951 C8.9011474,7.74225312 8.77935687,7.76318759 8.72020148,7.70387325 C8.6993231,7.68293878 8.7828366,7.70387325 8.80023525,7.66200431 L8.64016771,7.66200431 C8.61928933,7.66200431 8.61928933,7.64106984 8.61928933,7.62013537 L8.29567451,7.70038417 L8.29567451,7.70038417 C8.15300561,7.74225312 8.03121509,7.8434364 7.87114754,7.88181626 C7.64844487,7.96206507 7.46749895,8.14698624 7.2239179,8.22723505 C7.20303953,8.22723505 7.20303953,8.20630058 7.20303953,8.18536611 C7.2239179,8.12605177 7.30395168,8.1051173 7.34570843,8.04231388 C7.34570843,8.02137941 7.34570843,8.00044494 7.32483005,8.00044494 C7.4848976,7.7771439 7.70760027,7.65502615 7.91290429,7.47359406 L7.91290429,7.41079065 C7.97205969,7.33054184 8.07297184,7.28867289 8.11472859,7.18748961 C8.13560697,7.12817527 8.21564074,7.04443739 8.31655289,7.00605752 C8.29567451,6.98512305 8.25739749,6.98512305 8.25739749,6.94674318 C8.17736372,6.94674318 8.09385021,6.98861213 8.01381644,6.92580871 C8.05209346,6.88742885 8.09385021,6.86649438 8.13908669,6.85253806 C8.12168805,6.84904898 8.10776913,6.84207082 8.09385021,6.82462543 C8.07297184,6.78275649 8.13212724,6.73739847 8.19476236,6.72344215 C8.27479613,6.70250768 8.37570828,6.70250768 8.43834341,6.64319334 C8.29567451,6.62225887 8.13560697,6.68506229 7.99293807,6.6013244 C8.09385021,6.3396435 8.25739749,6.11634246 8.49749881,5.99422471 Z" id="Shape" fill="#000091" fill-rule="nonzero"></path>
                        <path d="M29.5150634,0 L18.0041191,0 C18.0041191,0 18.0249975,0.00349248153 18.1119907,0.0488947414 C18.2059434,0.0977894828 18.3277339,0.164146632 18.4008082,0.202563929 C18.5504366,0.279398522 18.6931055,0.377188005 18.7870582,0.527364711 C18.8288149,0.586736897 18.8879703,0.70897375 18.8496933,0.789300826 C18.8079365,0.89058279 18.7870582,1.05472942 18.686146,1.09314672 C18.5643555,1.15601139 18.404288,1.15601139 18.2616191,1.1350565 C18.1815853,1.1350565 18.1015515,1.11410161 18.018038,1.09314672 C18.3207745,1.21538357 18.6061123,1.35857531 18.8079365,1.64146632 C18.8288149,1.6833761 18.9088487,1.7008385 18.9888825,1.7008385 C19.0097608,1.7008385 19.0097608,1.74274828 19.0097608,1.76021069 C18.9680041,1.80212047 18.9297271,1.82307536 18.9506054,1.88244754 L19.0097608,1.88244754 C19.110673,1.84053777 19.0897946,1.63797384 19.2324635,1.7008385 C19.3333757,1.76021069 19.3751324,1.90340243 19.3124973,2.0046844 C19.2324635,2.08501147 19.1524297,2.14787614 19.0689162,2.20724833 C19.0480379,2.2491581 19.0480379,2.30853029 19.0689162,2.35044007 C19.1280716,2.43076714 19.14895,2.51109422 19.1698284,2.59491378 C19.2324635,2.73810552 19.2498622,2.89875967 19.3124973,3.04195141 C19.3925311,3.3457973 19.4725648,3.6496432 19.4551662,3.95698157 C19.4551662,4.11763572 19.3751324,4.26082747 19.4342878,4.4249741 C19.4760446,4.58562825 19.5769567,4.7078651 19.6569905,4.85105684 C19.7370243,4.9732937 19.817058,5.05362077 19.8796932,5.17585763 C20.0014837,5.37842155 20.2241863,5.58098548 20.1232742,5.82545919 C20.0641188,5.96865093 19.8414161,5.94769604 19.6987472,6.02802312 C19.5769567,6.12930508 19.6778689,6.29345172 19.740504,6.39473368 C19.8414161,6.57634272 19.6187135,6.69857957 19.4760446,6.76144424 C19.5178013,6.82430891 19.5978351,6.80335402 19.6187135,6.84177132 C19.6395918,6.94305328 19.740504,7.00242547 19.6778689,7.10719991 C19.5978351,7.22943677 19.354254,7.28880895 19.4760446,7.47391047 C19.5560783,7.61710222 19.5038824,7.77426388 19.4551662,7.92094811 C19.3960108,8.10255715 19.2324635,8.18288422 19.0897946,8.224794 C18.9680041,8.26670378 18.8253352,8.26670378 18.7070244,8.24574889 C18.6652676,8.224794 18.6269906,8.20383911 18.5852339,8.20383911 C18.2407407,8.16192933 17.8962475,8.06413985 17.555234,8.06413985 C17.4543219,8.08509474 17.3534097,8.10255715 17.273376,8.14446693 C17.182903,8.21082408 17.0993895,8.28416619 17.0297949,8.36100078 C17.0297949,8.36100078 17.0297949,8.36100078 17.0263152,8.36449326 C17.0123963,8.38195567 16.9949976,8.3959256 16.9810787,8.413388 C16.9741192,8.42386545 16.96368,8.43434289 16.9567206,8.44482034 C16.9497611,8.4518053 16.9462814,8.45879026 16.9393219,8.46577523 C16.8801665,8.53911734 16.8279706,8.61944441 16.7792544,8.69977149 C16.7757747,8.70675645 16.7722949,8.71024893 16.7688152,8.71374142 C16.7653355,8.72421886 16.758376,8.73120382 16.7514166,8.74168127 C16.6853017,8.86391812 16.6365855,8.98964746 16.5983085,9.11537679 C16.4591193,9.57987683 16.5217544,9.97801973 16.6191869,10.0758092 C16.6470247,10.1037491 17.2872949,10.3028205 17.7327002,10.501892 C17.941484,10.596189 18.0876326,10.6660386 18.2094231,10.7428732 L29.5115837,10.7428732 L29.5115837,0 L29.5150634,0 Z" id="Path" fill="#E1000F" fill-rule="nonzero"></path>
                        <path d="M18.6896258,3.91471689 C18.7696595,3.93557684 18.89145,3.93557684 18.89145,3.97729674 C18.8496933,4.13722301 18.609592,4.1789429 18.4878015,4.34234583 L18.4251663,4.34234583 C18.3660109,4.38406572 18.3834096,4.4848888 18.3242542,4.4848888 C18.2650988,4.46402886 18.2024637,4.4848888 18.1433083,4.50574875 C18.223342,4.58571189 18.3242542,4.64829173 18.4460447,4.62743178 C18.4669231,4.62743178 18.5052001,4.66915168 18.5052001,4.70739492 C18.5052001,4.70739492 18.5260785,4.70739492 18.5469569,4.68653497 C18.5678352,4.68653497 18.5887136,4.68653497 18.5887136,4.70739492 L18.5887136,4.78735805 C18.5295582,4.86732118 18.4251663,4.82907795 18.3451326,4.84646124 C18.5086798,4.88818113 18.6687474,4.88818113 18.8114163,4.84646124 C18.9332068,4.80474134 18.8114163,4.60309518 18.89145,4.50227209 C18.8496933,4.50227209 18.89145,4.43969225 18.8496933,4.43969225 C18.89145,4.39797236 18.9297271,4.33886917 18.9714838,4.31800922 C19.0132406,4.31800922 19.072396,4.29714927 19.0932743,4.25542938 C19.0932743,4.21370948 19.0132406,4.19632619 19.0306392,4.1546063 C19.1524297,4.07464316 19.2533419,3.95296013 19.2115851,3.8312771 C19.1907068,3.76869726 19.0306392,3.76869726 18.9297271,3.73045402 C18.8288149,3.69221078 18.7070244,3.73045402 18.5852339,3.75131397 C18.4843217,3.75131397 18.3834096,3.81389381 18.2824974,3.8312771 C18.1398285,3.872997 18.018038,3.95296013 17.8997272,4.03292327 C18.0423961,3.97382008 18.1815853,3.95296013 18.3451326,3.91124024 C18.4669231,3.91471689 18.5678352,3.88690363 18.6896258,3.91471689" id="Path" fill="#808080" fill-rule="nonzero"></path>
                    </g>
                </g>
            </g>
        </g>
    </g>
</svg>