<?xml version="1.0" encoding="UTF-8"?>
<svg width="169px" height="151px" viewBox="0 0 169 151" version="1.1" xmlns="http://www.w3.org/2000/svg" xmlns:xlink="http://www.w3.org/1999/xlink">
    <title>272E66B6-B4DA-4155-91E7-490A57A756C9</title>
    <g id="Landing-Plateforme-Copy" stroke="none" stroke-width="1" fill="none" fill-rule="evenodd">
        <g id="Landing-desktop-PI" transform="translate(-131.000000, -5439.000000)">
            <g id="02-Composants/Pied-de-page/Thème-clair/desktop/Pied-de-page-simple-Copy" transform="translate(-1.000000, 5419.221115)">
                <g id="Bloc-marque" transform="translate(132.000000, 19.895288)">
                    <rect id="fond" fill="#FFFFFF" x="0" y="0" width="169" height="150.209424"></rect>
                    <g id="devises" transform="translate(20.000000, 93.209424)" fill="#1E1E1E" fill-rule="nonzero">
                        <path d="M49.5,31 C49.94,31 50.32,31.34 50.12,32.12 L48.1,32.66 C48.42,31.7 49.02,31 49.5,31 M50.62,34.28 L50.22,34.28 C49.72,34.88 49.16,35.36 48.62,35.36 C48.06,35.36 47.78,35.02 47.78,34.28 C47.78,33.98 47.82,33.66 47.88,33.38 L51.14,32.3 C51.78,30.78 51.02,30.12 50.12,30.12 C48.58,30.12 46.82,32.82 46.82,34.98 C46.82,36 47.3,36.56 48.06,36.56 C48.94,36.54 49.86,35.68 50.62,34.28 M50.1,29.4 L51.96,27.7 L51.96,27.46 L50.72,27.46 L49.62,29.4 L50.1,29.4 Z M43.14,31.04 L44.22,31.04 L42.5,35.76 C42.34,36.16 42.56,36.56 42.98,36.56 C44.2,36.56 45.66,35.52 46.22,34.04 L45.92,34.04 C45.48,34.66 44.52,35.34 43.8,35.46 L45.38,31.04 L47,31.04 L47.2,30.36 L45.62,30.36 L46.22,28.66 L45.6,28.66 L44.48,30.36 L43.14,30.54 L43.14,31.04 L43.14,31.04 Z M42.02,30.82 C42.16,30.38 41.86,30.14 41.64,30.14 C40.7,30.14 39.58,30.98 39.12,32.18 L39.42,32.18 C39.72,31.74 40.24,31.26 40.74,31.18 L38.94,35.88 C38.78,36.32 39.1,36.56 39.32,36.56 C40.22,36.56 41.26,35.7 41.72,34.52 L41.4,34.52 C41.1,34.96 40.58,35.44 40.08,35.52 L42.02,30.82 Z M42.2,28.94 C42.6,28.94 42.94,28.62 42.94,28.2 C42.94,27.8 42.6,27.46 42.2,27.46 C41.78,27.46 41.46,27.8 41.46,28.2 C41.46,28.6 41.8,28.94 42.2,28.94 M33.46,31.44 C33.74,31.44 33.9,31.88 33.46,32.84 L32.18,35.68 C31.94,36.22 32.2,36.56 32.72,36.56 C33.04,36.56 33.18,36.48 33.32,36.14 L34.58,32.82 C35.16,32.12 36.24,31.36 36.7,31.36 C37.04,31.36 37,31.64 36.78,32.06 L34.86,35.76 C34.68,36.12 34.92,36.56 35.34,36.56 C36.28,36.56 37.4,35.72 37.86,34.52 L37.56,34.52 C37.26,34.96 36.74,35.44 36.24,35.52 L37.9,32.18 C38.12,31.76 38.22,31.36 38.22,31.04 C38.22,30.5 37.92,30.14 37.34,30.14 C36.52,30.14 35.82,31.06 34.84,32.2 L34.84,31.32 C34.84,30.7 34.64,30.14 34.08,30.14 C33.42,30.14 32.82,31.16 32.36,32.18 L32.66,32.18 C32.94,31.7 33.22,31.44 33.46,31.44 M32.16,31.56 C32.38,30.8 32.26,30.12 31.68,30.12 C30.94,30.12 30.72,30.62 29.98,32.18 L29.98,31.3 C29.98,30.68 29.78,30.12 29.22,30.12 C28.56,30.12 27.96,31.14 27.5,32.16 L27.8,32.16 C28.12,31.7 28.42,31.42 28.66,31.42 C28.94,31.42 29.1,31.86 28.66,32.82 L27.38,35.66 C27.14,36.2 27.4,36.54 27.92,36.54 C28.24,36.54 28.38,36.46 28.52,36.12 L29.78,32.8 C30.14,32.36 30.46,31.98 30.86,31.56 L32.16,31.56 L32.16,31.56 Z M25.22,31 C25.66,31 26.04,31.34 25.84,32.12 L23.82,32.66 C24.14,31.7 24.74,31 25.22,31 M26.34,34.28 L25.94,34.28 C25.44,34.88 24.88,35.36 24.34,35.36 C23.78,35.36 23.5,35.02 23.5,34.28 C23.5,33.98 23.54,33.66 23.6,33.38 L26.86,32.3 C27.5,30.78 26.74,30.12 25.84,30.12 C24.3,30.12 22.54,32.82 22.54,34.98 C22.54,36 23.02,36.56 23.78,36.56 C24.66,36.54 25.58,35.68 26.34,34.28 M18.86,31.04 L19.94,31.04 L18.22,35.76 C18.06,36.16 18.28,36.56 18.7,36.56 C19.92,36.56 21.38,35.52 21.94,34.04 L21.64,34.04 C21.2,34.66 20.24,35.34 19.52,35.46 L21.1,31.04 L22.72,31.04 L22.92,30.36 L21.34,30.36 L21.94,28.66 L21.32,28.66 L20.2,30.36 L18.86,30.54 L18.86,31.04 L18.86,31.04 Z M13.14,34.7 C13.14,33.24 14.76,31.28 15.66,31.28 C15.86,31.28 16.06,31.3 16.22,31.36 L15.28,33.88 C14.74,34.54 13.9,35.34 13.5,35.34 C13.28,35.34 13.14,35.14 13.14,34.7 M18.1,29.86 L17.6,29.82 L17.04,30.38 L16.94,30.38 C14.56,30.38 12.02,33.34 12.02,35.66 C12.02,36.2 12.32,36.56 12.9,36.56 C13.6,36.56 14.28,35.56 15.04,34.5 L15,34.88 C14.9,35.96 15.24,36.56 15.8,36.56 C16.46,36.56 17.06,35.54 17.52,34.52 L17.22,34.52 C16.9,34.98 16.6,35.26 16.36,35.26 C16.12,35.26 15.94,34.82 16.36,33.86 L18.1,29.86 Z M13.02,31.56 C13.24,30.8 13.12,30.12 12.54,30.12 C11.8,30.12 11.58,30.62 10.84,32.18 L10.84,31.3 C10.84,30.68 10.64,30.12 10.08,30.12 C9.42,30.12 8.82,31.14 8.36,32.16 L8.66,32.16 C8.98,31.7 9.28,31.42 9.5,31.42 C9.78,31.42 9.94,31.86 9.5,32.82 L8.22,35.68 C7.98,36.22 8.24,36.56 8.76,36.56 C9.08,36.56 9.22,36.48 9.36,36.14 L10.62,32.82 C10.98,32.38 11.3,32 11.7,31.58 L13.02,31.58 L13.02,31.56 Z M4.66,36.32 L4.78,35.96 C3.2,35.66 3,35.66 3.64,33.96 L4.22,32.36 L5.48,32.36 C6.26,32.36 6.26,32.7 6.16,33.56 L6.6,33.56 L7.64,30.72 L7.2,30.72 C6.82,31.4 6.5,31.92 5.66,31.92 L4.4,31.92 L5.26,29.58 C5.56,28.74 5.7,28.58 6.78,28.58 L7.06,28.58 C8.16,28.58 8.28,28.88 8.28,30.04 L8.72,30.04 L9.08,28.1 L3.02,28.1 L2.9,28.46 C4.16,28.72 4.28,28.84 3.7,30.46 L2.4,33.94 C1.8,35.56 1.56,35.68 0.12,35.94 L2.13162821e-14,36.32 L4.66,36.32 Z" id="Shape"></path>
                        <path d="M34.8,17.28 C35.24,17.28 35.62,17.62 35.42,18.38 L33.4,18.92 C33.74,17.98 34.34,17.28 34.8,17.28 M35.92,20.54 L35.52,20.54 C35.02,21.14 34.46,21.62 33.92,21.62 C33.36,21.62 33.08,21.28 33.08,20.54 C33.08,20.24 33.12,19.92 33.18,19.64 L36.46,18.56 C37.1,17.04 36.32,16.38 35.44,16.38 C33.9,16.38 32.14,19.08 32.14,21.24 C32.14,22.26 32.62,22.82 33.38,22.82 C34.26,22.82 35.18,21.96 35.92,20.54 M35.4,15.68 L37.26,13.98 L37.26,13.74 L36.02,13.74 L34.92,15.68 L35.4,15.68 Z M28.46,17.32 L29.54,17.32 L27.82,22.04 C27.66,22.44 27.88,22.84 28.3,22.84 C29.52,22.84 30.98,21.8 31.54,20.32 L31.24,20.32 C30.8,20.94 29.84,21.62 29.12,21.74 L30.7,17.32 L32.32,17.32 L32.52,16.64 L30.94,16.64 L31.54,14.94 L30.92,14.94 L29.8,16.64 L28.46,16.82 L28.46,17.32 L28.46,17.32 Z M27.34,17.08 C27.46,16.64 27.18,16.4 26.94,16.4 C26,16.4 24.88,17.26 24.42,18.44 L24.72,18.44 C25.02,18 25.54,17.52 26.04,17.44 L24.24,22.14 C24.08,22.58 24.4,22.82 24.62,22.82 C25.52,22.82 26.56,21.96 27.02,20.78 L26.72,20.78 C26.42,21.22 25.9,21.7 25.4,21.78 L27.34,17.08 Z M27.52,15.22 C27.92,15.22 28.26,14.88 28.26,14.48 C28.26,14.08 27.92,13.74 27.52,13.74 C27.1,13.74 26.78,14.08 26.78,14.48 C26.78,14.88 27.12,15.22 27.52,15.22 M21.74,21.78 L24.72,13.86 L24.62,13.74 L22.56,13.98 L22.56,14.22 L22.96,14.52 C23.32,14.8 23.2,15.06 22.88,15.94 L20.6,22.02 C20.42,22.38 20.66,22.82 21.08,22.82 C22.02,22.82 23.02,21.96 23.48,20.78 L23.18,20.78 C22.86,21.22 22.22,21.7 21.74,21.78 M15.64,20.98 C15.64,19.52 17.26,17.56 18.16,17.56 C18.36,17.56 18.54,17.58 18.72,17.64 L17.78,20.16 C17.24,20.82 16.4,21.62 16.02,21.62 C15.78,21.62 15.64,21.42 15.64,20.98 M20.6,16.14 L20.1,16.1 L19.54,16.66 L19.44,16.66 C17.06,16.66 14.52,19.62 14.52,21.94 C14.52,22.48 14.82,22.84 15.4,22.84 C16.1,22.84 16.78,21.84 17.54,20.78 L17.5,21.16 C17.4,22.24 17.74,22.84 18.3,22.84 C18.96,22.84 19.56,21.82 20.02,20.8 L19.72,20.8 C19.4,21.26 19.1,21.54 18.86,21.54 C18.62,21.54 18.44,21.1 18.86,20.14 L20.6,16.14 Z M9.06,23.98 C9.06,23.36 9.66,22.96 10.52,22.62 C10.8,22.76 11.22,22.92 11.8,23.1 C12.7,23.4 13.04,23.52 13.04,23.78 C13.04,24.36 12.22,24.8 10.72,24.8 C9.6,24.8 9.06,24.56 9.06,23.98 M11.52,20.16 C11.12,20.16 10.98,19.82 10.98,19.46 C10.98,18.3 11.54,16.86 12.44,16.86 C12.84,16.86 12.98,17.2 12.98,17.56 C12.96,18.74 12.4,20.16 11.52,20.16 M14.06,23.4 C14.06,22.64 13.38,22.38 12.28,22.04 C11.34,21.76 10.92,21.68 10.92,21.36 C10.92,21.12 11.12,20.82 11.52,20.6 C13.08,20.52 14.06,19.12 14.06,17.9 C14.06,17.68 14.02,17.48 13.96,17.3 L15.02,17.3 L15.22,16.62 L13.42,16.62 C13.18,16.46 12.88,16.38 12.54,16.38 C10.9,16.38 9.86,17.82 9.86,19.08 C9.86,19.9 10.34,20.46 11.08,20.56 C10.32,20.92 9.88,21.3 9.88,21.78 C9.88,22.06 9.98,22.26 10.22,22.42 C8.46,22.94 7.74,23.58 7.74,24.36 C7.74,25.18 8.82,25.52 10.08,25.52 C12.26,25.54 14.06,24.38 14.06,23.4 M5.94,18.62 C6.72,18.62 6.74,18.96 6.62,19.82 L7.06,19.82 L8.1,16.98 L7.66,16.98 C7.28,17.66 6.96,18.18 6.12,18.18 L4.4,18.18 L5.24,15.84 C5.54,15 5.68,14.84 6.76,14.84 L7.52,14.84 C8.62,14.84 8.74,15.14 8.74,16.3 L9.18,16.3 L9.54,14.36 L3.02,14.36 L2.9,14.72 C4.16,14.98 4.28,15.1 3.7,16.72 L2.4,20.22 C1.8,21.84 1.56,21.96 0.1,22.22 L-3.55271368e-15,22.6 L7.24,22.6 L8.54,20.54 L8.04,20.54 C7.2,21.36 6.36,22.12 4.72,22.12 C2.8,22.12 2.96,22.02 3.6,20.24 L4.2,18.64 L5.94,18.64 L5.94,18.62 Z M6.88,13.74 L8.74,12.4 L8.74,12.16 L7.5,12.16 L6.4,13.76 L6.88,13.76 L6.88,13.74 Z" id="Shape"></path>
                        <path d="M34.58,3.56 C35.02,3.56 35.4,3.9 35.2,4.66 L33.18,5.2 C33.5,4.26 34.1,3.56 34.58,3.56 M35.7,6.82 L35.3,6.82 C34.8,7.42 34.24,7.9 33.7,7.9 C33.14,7.9 32.86,7.56 32.86,6.82 C32.86,6.52 32.9,6.2 32.96,5.92 L36.22,4.84 C36.86,3.32 36.08,2.66 35.2,2.66 C33.66,2.66 31.9,5.36 31.9,7.52 C31.9,8.54 32.38,9.08 33.14,9.08 C34.02,9.1 34.94,8.24 35.7,6.82 M35.18,1.96 L37.04,0.26 L37.04,0.02 L35.8,0.02 L34.7,1.96 L35.18,1.96 Z M28.22,3.6 L29.3,3.6 L27.58,8.32 C27.42,8.72 27.64,9.12 28.06,9.12 C29.28,9.12 30.74,8.08 31.3,6.6 L31,6.6 C30.56,7.22 29.6,7.9 28.88,8.02 L30.46,3.6 L32.08,3.6 L32.28,2.92 L30.7,2.92 L31.3,1.22 L30.68,1.22 L29.56,2.92 L28.22,3.1 L28.22,3.6 L28.22,3.6 Z M27.66,4.12 C27.88,3.36 27.76,2.68 27.18,2.68 C26.44,2.68 26.22,3.18 25.48,4.74 L25.48,3.86 C25.48,3.24 25.28,2.68 24.72,2.68 C24.06,2.68 23.46,3.7 23,4.72 L23.3,4.72 C23.62,4.26 23.92,3.98 24.14,3.98 C24.42,3.98 24.58,4.42 24.14,5.38 L22.86,8.22 C22.62,8.76 22.88,9.1 23.4,9.1 C23.72,9.1 23.86,9.02 24,8.68 L25.26,5.36 C25.62,4.92 25.94,4.54 26.34,4.12 L27.66,4.12 Z M20.7,3.56 C21.14,3.56 21.52,3.9 21.32,4.66 L19.3,5.2 C19.64,4.26 20.22,3.56 20.7,3.56 M21.82,6.82 L21.42,6.82 C20.92,7.42 20.36,7.9 19.82,7.9 C19.26,7.9 18.98,7.56 18.98,6.82 C18.98,6.52 19.02,6.2 19.08,5.92 L22.34,4.84 C22.98,3.32 22.22,2.66 21.32,2.66 C19.78,2.66 18.02,5.36 18.02,7.52 C18.02,8.54 18.5,9.08 19.26,9.08 C20.14,9.1 21.06,8.24 21.82,6.82 M14.2,8.14 C13.88,8.14 13.42,7.84 13.42,7.58 C13.42,7.5 13.56,7.14 13.74,6.68 L14.26,5.28 C14.82,4.6 15.7,3.88 16.18,3.88 C16.48,3.88 16.7,4.06 16.7,4.5 C16.72,5.8 15.5,8.14 14.2,8.14 M17.84,4 C17.84,3.04 17.6,2.68 16.92,2.68 C16.08,2.68 15.3,3.58 14.52,4.66 L16.2,0.16 L16.1,0.02 L14.04,0.26 L14.04,0.5 L14.44,0.8 C14.8,1.08 14.68,1.36 14.36,2.22 L12.54,6.98 C12.38,7.38 12.2,7.86 12.2,7.98 C12.2,8.54 12.96,9.08 13.66,9.08 C15.22,9.1 17.84,6.22 17.84,4 M11.72,3.36 C11.84,2.92 11.56,2.68 11.32,2.68 C10.38,2.68 9.26,3.54 8.8,4.72 L9.1,4.72 C9.4,4.28 9.92,3.8 10.42,3.72 L8.62,8.42 C8.46,8.86 8.78,9.1 9.02,9.1 C9.92,9.1 10.96,8.24 11.42,7.06 L11.12,7.06 C10.82,7.5 10.3,7.98 9.8,8.06 L11.72,3.36 Z M11.92,1.48 C12.32,1.48 12.66,1.14 12.66,0.74 C12.66,0.34 12.32,0 11.92,0 C11.5,0 11.18,0.34 11.18,0.74 C11.18,1.16 11.5,1.48 11.92,1.48 M7.32,0.6 L3.02,0.6 L2.9,0.96 C4.16,1.22 4.28,1.34 3.7,2.96 L2.4,6.5 C1.8,8.12 1.56,8.24 0.12,8.5 L-1.77635684e-14,8.86 L6.54,8.86 L7.96,6.34 L7.46,6.34 C6.64,7.24 5.72,8.38 4.26,8.38 C3.16,8.38 3,8.18 3.62,6.5 L4.9,2.98 C5.5,1.36 5.74,1.24 7.2,0.98 L7.32,0.6 Z" id="Shape"></path>
                    </g>
                    <path d="M24.9,64.6492147 L24.9,58.9892147 L26.36,58.9892147 L30.1,64.6492147 L33.44,64.6492147 L29.06,58.4492147 C30.5,57.7892147 31.32,56.5292147 31.32,54.8292147 C31.32,52.2292147 29.42,50.6492147 26.34,50.6492147 L22.06,50.6492147 L22.06,64.6492147 L24.9,64.6492147 Z M26.5,56.6292147 L24.9,56.6292147 L24.9,53.0092147 L26.5,53.0092147 C27.7,53.0092147 28.4,53.7292147 28.4,54.7892147 C28.4,55.9292147 27.7,56.6292147 26.5,56.6292147 Z M40.88,49.4492147 L43.48,46.7492147 L40.56,46.7492147 L38.3,49.4492147 L40.88,49.4492147 Z M43.7,64.6492147 L43.7,62.2892147 L38.38,62.2892147 L38.38,58.6892147 L42.9,58.6892147 L42.9,56.3292147 L38.38,56.3292147 L38.38,53.0092147 L43.7,53.0092147 L43.7,50.6492147 L35.54,50.6492147 L35.54,64.6492147 L43.7,64.6492147 Z M50.14,64.6492147 L50.14,58.9892147 L51.92,58.9892147 C55,58.9892147 56.88,57.4092147 56.88,54.8292147 C56.88,52.2292147 55,50.6492147 51.92,50.6492147 L47.3,50.6492147 L47.3,64.6492147 L50.14,64.6492147 Z M52.04,56.6292147 L50.14,56.6292147 L50.14,53.0092147 L52.04,53.0092147 C53.24,53.0092147 53.96,53.7292147 53.96,54.7892147 C53.96,55.9292147 53.24,56.6292147 52.04,56.6292147 Z M64.94,65.0492147 C68.46,65.0492147 70.62,62.8492147 70.62,59.1692147 L70.62,50.6492147 L67.78,50.6492147 L67.78,59.4092147 C67.78,61.2892147 66.7,62.3892147 64.96,62.3892147 C63.18,62.3892147 62.12,61.2892147 62.12,59.4092147 L62.12,50.6492147 L59.28,50.6492147 L59.28,59.1692147 C59.28,62.8492147 61.44,65.0492147 64.94,65.0492147 Z M78.86,64.6492147 C82.08,64.6492147 84.06,63.0892147 84.06,60.5292147 C84.06,59.0692147 83.24,57.8692147 81.76,57.2092147 C82.74,56.5692147 83.26,55.5892147 83.26,54.4492147 C83.26,52.0892147 81.48,50.6492147 78.56,50.6492147 L74.44,50.6492147 L74.44,64.6492147 L78.86,64.6492147 Z M78.62,56.1692147 L77.28,56.1692147 L77.28,53.0092147 L78.62,53.0092147 C79.7,53.0092147 80.34,53.5892147 80.34,54.5692147 C80.34,55.5892147 79.7,56.1692147 78.62,56.1692147 Z M79.02,62.2892147 L77.28,62.2892147 L77.28,58.5292147 L79.02,58.5292147 C80.34,58.5292147 81.14,59.2092147 81.14,60.4092147 C81.14,61.5892147 80.34,62.2892147 79.02,62.2892147 Z M95.44,64.6492147 L95.44,62.0692147 L90.12,62.0692147 L90.12,50.6492147 L87.28,50.6492147 L87.28,64.6492147 L95.44,64.6492147 Z M101.08,64.6492147 L101.08,50.6492147 L98.24,50.6492147 L98.24,64.6492147 L101.08,64.6492147 Z M119.5,68.1292147 C120.12,68.1292147 120.52,68.0492147 120.98,67.8692147 L120.98,65.4692147 C120.68,65.5892147 120.28,65.6292147 119.98,65.6292147 C119.08,65.6292147 118.12,65.2692147 117.04,64.2892147 L116.2,63.4892147 C117.92,62.1292147 118.96,59.9892147 118.96,57.6492147 C118.96,53.6492147 115.94,50.2492147 111.54,50.2492147 C107.12,50.2492147 104.1,53.6492147 104.1,57.6492147 C104.1,61.6492147 107.12,65.0492147 111.54,65.0492147 C112.22,65.0492147 112.86,64.9692147 113.46,64.8092147 L115.12,66.2892147 C116.5,67.4892147 117.94,68.1292147 119.5,68.1292147 Z M111.54,62.3892147 C108.9,62.3892147 107.02,60.3292147 107.02,57.6492147 C107.02,54.9692147 108.9,52.9092147 111.54,52.9092147 C114.16,52.9092147 116.04,54.9692147 116.04,57.6492147 C116.04,60.3292147 114.16,62.3892147 111.54,62.3892147 Z M127.4,65.0492147 C130.92,65.0492147 133.08,62.8492147 133.08,59.1692147 L133.08,50.6492147 L130.24,50.6492147 L130.24,59.4092147 C130.24,61.2892147 129.16,62.3892147 127.42,62.3892147 C125.64,62.3892147 124.58,61.2892147 124.58,59.4092147 L124.58,50.6492147 L121.74,50.6492147 L121.74,59.1692147 C121.74,62.8492147 123.9,65.0492147 127.4,65.0492147 Z M145.06,64.6492147 L145.06,62.2892147 L139.74,62.2892147 L139.74,58.6892147 L144.26,58.6892147 L144.26,56.3292147 L139.74,56.3292147 L139.74,53.0092147 L145.06,53.0092147 L145.06,50.6492147 L136.9,50.6492147 L136.9,64.6492147 L145.06,64.6492147 Z M24.9,85.6492147 L24.9,79.6892147 L29.42,79.6892147 L29.42,77.3292147 L24.9,77.3292147 L24.9,74.0092147 L30.22,74.0092147 L30.22,71.6492147 L22.06,71.6492147 L22.06,85.6492147 L24.9,85.6492147 Z M35.86,85.6492147 L35.86,79.9892147 L37.32,79.9892147 L41.06,85.6492147 L44.4,85.6492147 L40.02,79.4492147 C41.46,78.7892147 42.28,77.5292147 42.28,75.8292147 C42.28,73.2292147 40.38,71.6492147 37.3,71.6492147 L33.02,71.6492147 L33.02,85.6492147 L35.86,85.6492147 Z M37.46,77.6292147 L35.86,77.6292147 L35.86,74.0092147 L37.46,74.0092147 C38.66,74.0092147 39.36,74.7292147 39.36,75.7892147 C39.36,76.9292147 38.66,77.6292147 37.46,77.6292147 Z M48.36,85.6492147 L49.7,82.0092147 L55.3,82.0092147 L56.64,85.6492147 L59.66,85.6492147 L54.36,71.6492147 L50.64,71.6492147 L45.34,85.6492147 L48.36,85.6492147 Z M54.42,79.5892147 L50.58,79.5892147 L52.5,74.3292147 L54.42,79.5892147 Z M64.96,85.6492147 L64.96,75.5292147 L71.22,85.6492147 L74.86,85.6492147 L74.86,71.6492147 L72.02,71.6492147 L72.02,81.7692147 L65.76,71.6492147 L62.12,71.6492147 L62.12,85.6492147 L64.96,85.6492147 Z M84.68,88.8692147 L86.42,85.9692147 C88.46,85.7092147 90.14,84.6692147 91.22,83.1892147 L88.98,81.4692147 C88.18,82.6092147 86.92,83.3892147 85.32,83.3892147 C82.68,83.3892147 80.8,81.3292147 80.8,78.6492147 C80.8,75.9692147 82.68,73.9092147 85.32,73.9092147 C86.92,73.9092147 88.18,74.6892147 88.98,75.8292147 L91.22,74.0892147 C89.94,72.3892147 87.86,71.2492147 85.32,71.2492147 C80.9,71.2492147 77.88,74.6492147 77.88,78.6492147 C77.88,82.2092147 80.28,85.2892147 83.92,85.9292147 L82.16,88.8692147 L84.68,88.8692147 Z M95.14,85.6492147 L96.48,82.0092147 L102.08,82.0092147 L103.42,85.6492147 L106.44,85.6492147 L101.14,71.6492147 L97.42,71.6492147 L92.12,85.6492147 L95.14,85.6492147 Z M101.2,79.5892147 L97.36,79.5892147 L99.28,74.3292147 L101.2,79.5892147 Z M111.74,85.6492147 L111.74,71.6492147 L108.9,71.6492147 L108.9,85.6492147 L111.74,85.6492147 Z M119.88,86.0492147 C122.46,86.0492147 124.5,84.4692147 124.54,81.8292147 C124.54,77.0292147 118.18,77.7492147 118.18,75.2092147 C118.18,74.3692147 118.84,73.7292147 119.84,73.7292147 C120.9,73.7292147 121.82,74.4292147 122.64,75.4892147 L124.72,73.6092147 C123.52,72.1892147 121.92,71.2492147 119.82,71.2492147 C117.14,71.2492147 115.3,73.0892147 115.3,75.3092147 C115.3,80.0492147 121.66,79.3492147 121.66,81.9292147 C121.66,82.9292147 120.98,83.5292147 119.86,83.5292147 C118.72,83.5292147 117.6,82.8892147 116.76,81.8092147 L114.7,83.7092147 C115.94,85.1892147 117.52,86.0492147 119.88,86.0492147 Z M135.98,85.6492147 L135.98,83.2892147 L130.66,83.2892147 L130.66,79.6892147 L135.18,79.6892147 L135.18,77.3292147 L130.66,77.3292147 L130.66,74.0092147 L135.98,74.0092147 L135.98,71.6492147 L127.82,71.6492147 L127.82,85.6492147 L135.98,85.6492147 Z" id="RÉPUBLIQUEFRANÇAISE" fill="#1E1E1E" fill-rule="nonzero"></path>
                    <g id="MARIANNE-20" transform="translate(20.000000, 20.000000)">
                        <rect id="Rectangle" fill="#FFFFFF" x="0" y="0" width="55" height="20"></rect>
                        <path d="M22.8162544,17.6485641 C23.0300353,17.4342088 23.2438163,17.2068622 23.4575972,16.9730201 L23.451119,16.9730201 C23.852768,16.518327 24.2414605,16.0831208 24.7078916,15.6868882 C24.8504122,15.5569759 24.9864547,15.4465504 25.1160188,15.3556118 C25.1548881,15.3166381 25.1548881,15.2386907 25.1937574,15.2062127 C25.0058893,15.2776644 24.8957597,15.4335592 24.7014134,15.505011 C24.6625442,15.505011 24.6236749,15.4660373 24.6625442,15.4270636 C24.7985866,15.3296294 24.934629,15.2256995 25.0641932,15.1217697 C25.057715,15.1217697 25.0447585,15.1217697 25.0382803,15.1217697 C24.9994111,15.1217697 24.9994111,15.082796 24.9994111,15.0438223 C24.5070671,14.9658749 24.131331,15.3101425 23.7944641,15.6089408 C23.7167256,15.6479145 23.6454653,15.5699671 23.606596,15.5699671 C23.0429918,15.75834 22.6283863,16.2520068 22.0647821,16.4728577 L22.0647821,16.3949103 C21.8380448,16.4728577 21.6177856,16.6092656 21.3845701,16.6612305 C21.0477032,16.7391779 20.7432273,16.7002042 20.4452297,16.7002042 C19.9852768,16.7456735 19.5318021,16.8496034 19.0783274,16.9470376 C19.065371,16.9535332 19.0524146,16.9535332 19.0394582,16.9600288 C18.7932862,17.024985 18.5665489,17.1159236 18.3398115,17.2458359 L18.3138987,17.2588272 C18.2944641,17.2848096 18.2750294,17.3042965 18.262073,17.3237833 C18.1843345,17.4147219 18.1130742,17.4926693 18.0029446,17.5511298 C17.7697291,17.6680509 17.581861,17.8759106 17.3810365,18.038301 C17.3680801,18.0512922 17.3421673,18.0577879 17.3227326,18.0577879 C17.1219081,18.2526563 16.9210836,18.4475248 16.7137809,18.6358976 C16.7008245,18.6488889 16.6425206,18.6553845 16.5971731,18.6488889 C16.5971731,18.6488889 16.6036514,18.6488889 16.6036514,18.6423932 C16.6101296,18.629402 16.6166078,18.6164108 16.623086,18.6034196 C16.655477,18.5514546 16.6878681,18.4994897 16.7202591,18.4475248 C16.7591284,18.3890642 16.7915194,18.3306037 16.8303887,18.2721432 C16.8822144,18.1941958 16.93404,18.1162484 16.9923439,18.0447966 C17.0053004,18.0253098 17.0053004,18.0058229 16.9923439,17.9928317 C16.9793875,17.9798405 16.9599529,17.9733449 16.9405183,17.9733449 C17.1283863,17.7914676 17.3486455,17.6355728 17.5753828,17.4991649 L17.5753828,17.4926693 C17.54947,17.4991649 17.5106007,17.4796781 17.5300353,17.4536956 C17.5559482,17.4212175 17.5753828,17.3822438 17.5948174,17.3497658 C17.6012956,17.3367745 17.6012956,17.3302789 17.6077739,17.3172877 C17.6012956,17.3042965 17.5883392,17.2978008 17.581861,17.2848096 C17.5235571,17.3237833 17.458775,17.362757 17.4069494,17.4082263 C17.3162544,17.4861737 17.2449941,17.6550597 17.1089517,17.6550597 C17.1024735,17.6550597 17.0700824,17.6550597 17.0506478,17.6485641 C17.0312132,17.6485641 17.0182568,17.6420685 17.0117786,17.6355728 C17.0117786,17.6290772 17.0117786,17.6290772 17.0182568,17.6290772 C17.0182568,17.6290772 17.024735,17.6225816 17.024735,17.616086 C17.024735,17.616086 17.024735,17.6095904 17.0312132,17.6095904 C17.0376914,17.5965992 17.0441696,17.5901035 17.0506478,17.5771123 C17.057126,17.5641211 17.0636042,17.5576255 17.0700824,17.5446342 C17.0765607,17.5381386 17.0765607,17.5251474 17.0830389,17.5186518 C17.0895171,17.5056605 17.1024735,17.4861737 17.1089517,17.4666868 C17.1154299,17.4536956 17.1219081,17.4472 17.1283863,17.4342088 C17.147821,17.4082263 17.1607774,17.3757482 17.180212,17.3497658 C17.1866902,17.3367745 17.1931684,17.3237833 17.2061249,17.3107921 C17.2190813,17.2848096 17.2320377,17.2653228 17.2449941,17.2393403 C17.2644287,17.2068622 17.2449941,17.1808798 17.2190813,17.1743842 C17.2903416,17.0834455 17.3745583,17.0054981 17.4782097,16.9470376 L17.4652532,16.9470376 C17.6077739,16.8755858 17.7567727,16.7846472 17.8992933,16.7066998 C17.9187279,16.687213 17.9381625,16.6677261 17.9640754,16.6547349 C17.7502945,16.7261867 17.5559482,16.8236209 17.3680801,16.9535332 C17.3680801,16.9535332 17.3162544,16.9730201 17.303298,16.9860113 C17.303298,16.9860113 17.2644287,16.9990025 17.2126031,16.9535332 C17.2061249,16.9470376 17.2061249,16.940542 17.2061249,16.9275508 C17.2449941,16.8496034 17.3551237,16.8171253 17.4328622,16.7391779 C17.4717314,16.7391779 17.5041225,16.7391779 17.5041225,16.7781516 C18.7090695,15.8362874 20.3674912,16.0636339 21.7603062,15.5699671 C21.8704358,15.4920197 21.9870436,15.420568 22.0971731,15.3426206 C22.2850412,15.2646732 22.43404,15.0763004 22.6607774,14.9658749 C22.958775,14.7385284 23.1855124,14.4787037 23.3021201,14.0954624 C23.3021201,14.0564887 23.2632509,14.017515 23.2632509,14.017515 C22.7709069,14.5436599 22.2073027,14.9593793 21.6048292,15.2646732 C20.8144876,15.6803926 19.9464075,15.6089408 19.1236749,15.7193663 C19.1625442,15.6414189 19.2402827,15.6414189 19.311543,15.6414189 C19.311543,15.5244978 19.3828033,15.4920197 19.4605418,15.4140724 L19.5706714,15.4140724 C19.6095406,15.4140724 19.6095406,15.336125 19.6484099,15.336125 C19.7261484,15.336125 19.836278,15.2971513 19.7974087,15.2971513 C19.6808009,15.1477521 19.4605418,15.4075767 19.2726737,15.2971513 C19.343934,15.2192039 19.311543,15.1087784 19.3828033,15.0698047 L19.5318021,15.0698047 C19.5318021,14.9918574 19.6095406,14.9204056 19.6095406,14.9204056 C20.1731449,14.5826336 20.7043581,14.3163133 21.2290931,14.017515 C21.1189635,14.017515 21.041225,14.1344361 20.9310954,14.0564887 C21.0088339,14.0564887 20.9310954,13.9460633 21.0088339,13.9460633 C21.4234393,13.8356378 21.7603062,13.6082913 22.1749117,13.4523965 C22.0259128,13.4523965 21.9093051,13.5693176 21.7603062,13.4523965 C21.8380448,13.4134228 21.8704358,13.341971 21.9870436,13.341971 L21.9870436,13.2315456 C21.9870436,13.1925719 22.0259128,13.1925719 22.0647821,13.1925719 C22.0259128,13.1925719 21.9870436,13.1535982 21.9870436,13.1535982 C22.0259128,13.0756508 22.1360424,13.1146245 22.2137809,13.0431727 C22.1749117,13.0431727 22.1036514,13.0431727 22.1036514,13.004199 C22.2137809,12.8547999 22.401649,12.8158262 22.5895171,12.7768525 C22.5506478,12.6989051 22.4405183,12.7768525 22.4405183,12.6989051 C22.4405183,12.6599314 22.4793875,12.6599314 22.5182568,12.6599314 L22.4405183,12.6599314 C22.3627797,12.6209577 22.401649,12.5430103 22.401649,12.5105323 C22.6283863,12.244212 22.6283863,11.90644 22.7385159,11.6076417 C22.6996466,11.6076417 22.6607774,11.6076417 22.6607774,11.568668 C22.2850412,11.9843874 21.6825677,12.1337866 21.1189635,12.2831857 L20.9310954,12.2831857 C20.7432273,12.3611331 20.4776207,12.3611331 20.2897527,12.244212 C20.1407538,12.1662646 20.0630153,12.0558392 19.9140165,11.9454137 C19.6095406,11.7570409 19.311543,11.6076417 18.9746761,11.4907206 C18.0353357,11.1919223 17.057126,11.0360275 16.0789164,11.0750012 C16.4935218,10.8476547 16.9469965,10.8281678 17.3939929,10.6982555 C18.0353357,10.5098827 18.6378092,10.2825361 19.311543,10.3215098 C19.2014134,10.2825361 19.0459364,10.3215098 18.9358068,10.3215098 C18.4110718,10.2825361 17.8798587,10.4319353 17.3162544,10.5488564 C16.9405183,10.6268038 16.6036514,10.7762029 16.221437,10.8476547 C15.9946996,10.9256021 15.8845701,11.146453 15.6189635,11.1139749 L15.6189635,10.9970538 C15.9946996,10.5423608 16.4481743,10.0941633 17.0506478,10.0551896 C17.7308598,9.94476415 18.3657244,10.0551896 19.0459364,10.133137 C19.5318021,10.1721107 19.9852768,10.2825361 20.4776207,10.3994572 C20.6654888,10.3994572 20.7043581,10.6982555 20.8533569,10.7372292 C21.0800942,10.8151766 21.3068316,10.7372292 21.5335689,10.8866284 C21.5335689,10.808681 21.4946996,10.7372292 21.5335689,10.6592818 C21.6825677,10.5098827 21.8704358,10.6982555 22.0194346,10.6203082 C22.3239105,10.4319353 21.753828,10.0941633 21.6048292,9.82784307 C21.6048292,9.78886937 21.6436985,9.74989568 21.6436985,9.74989568 C21.9416961,10.0162159 22.1684335,10.3150142 22.5441696,10.5033871 C22.7320377,10.5813345 23.1855124,10.6917599 23.1077739,10.4644134 C22.9199058,10.048694 22.5441696,9.71092199 22.2396938,9.33417629 L22.2396938,9.18477714 C22.1619552,9.18477714 22.1619552,9.14580344 22.1295642,9.10682975 L22.1295642,8.9574306 C21.9805654,8.87948321 22.0129564,8.73008405 21.9416961,8.61965859 C21.8250883,8.43128574 21.9028269,8.16496551 21.8250883,7.93761897 C21.7473498,7.71027243 21.7149588,7.52189958 21.6760895,7.29455304 C21.5594817,6.65148711 21.4104829,6.08636856 21.3392226,5.48227632 C21.2614841,4.76775862 21.753828,4.19614446 22.0906949,3.55957415 C22.3563015,3.10488107 22.6542992,2.6566836 23.1466431,2.35138967 C23.2567727,1.89669659 23.5612485,1.51995089 23.8592462,1.1432052 C24.1572438,0.772955116 24.6625442,0.552104191 25.0188457,0.389713804 C25.5435807,0.155871647 26.01649,0.00647249191 26.0229682,0.00647249191 L0,0.00647249191 L0,20.0064725 L18.4628975,20.0064725 C19.1819788,19.4868233 19.8945819,19.2464855 20.8987044,18.7463231 C21.3651355,18.5124809 22.4469965,18.0123185 22.8162544,17.6485641 M17.024735,14.946388 C16.9469965,14.946388 16.7979976,14.9853617 16.8368669,14.9074144 C16.8757362,14.7190415 17.1348645,14.7190415 17.2903416,14.6410941 C17.3680801,14.6021204 17.4782097,14.5306687 17.5559482,14.5631467 C17.6336867,14.6735722 17.7438163,14.6410941 17.8215548,14.7125459 C17.5883392,14.946388 17.2903416,14.829467 17.024735,14.946388 M11.2656066,14.1149493 C11.2656066,14.1149493 11.2267373,14.0759756 11.2267373,14.0370019 C11.7190813,13.393936 12.0948174,12.7898437 12.4316843,12.1142997 C12.9240283,11.8479795 13.3256773,11.4647382 13.7143698,11.0555144 C14.3557126,10.3734748 15.0294464,9.76938253 15.819788,9.39263683 C16.1177856,9.27571575 16.5,9.31468945 16.7979976,9.43161052 C16.6878681,9.58100968 16.5,9.54203599 16.344523,9.65895706 C16.3056537,9.65895706 16.2667845,9.65895706 16.2279152,9.61998337 C16.2667845,9.58100968 16.2667845,9.54203599 16.2667845,9.50306229 C15.8910483,9.91878168 15.3663133,10.1071545 15.0618375,10.6008213 C14.8351001,10.977567 14.6861013,11.4712338 14.2002356,11.5816592 C14.0512367,11.6206329 14.2391048,11.4712338 14.1613663,11.5037119 C12.9952886,12.2247252 12.1725559,13.0951376 11.2656066,14.1149493 M14.3881037,11.6206329 C14.3492344,11.6985803 14.3103651,11.7050759 14.2779741,11.7700321 C14.2391048,11.8479795 14.2002356,11.8804576 14.1289753,11.9194312 C14.090106,11.9194312 14.0512367,11.9194312 14.0512367,11.8804576 C14.090106,11.7310584 14.2002356,11.5816592 14.3492344,11.5426855 C14.3881037,11.5491812 14.3881037,11.5881549 14.3881037,11.6206329 M16.1372203,17.278314 C16.1177856,17.3172877 16.0789164,17.3562614 16.0465253,17.3887395 C16.0918728,17.3952351 16.1242638,17.4212175 16.098351,17.4472 C16.0141343,17.5251474 15.9299176,17.6095904 15.8133098,17.6485641 C15.8068316,17.6485641 15.7809187,17.6550597 15.7550059,17.6550597 C15.7096584,17.700529 15.664311,17.7459983 15.6124853,17.784972 C15.5671378,17.8239457 15.3598351,17.7979632 15.4246172,17.7395027 C15.5217903,17.6550597 15.6124853,17.5641211 15.7031802,17.4731825 C15.7550059,17.4212175 15.8133098,17.3757482 15.8586572,17.3237833 C15.8845701,17.2913052 15.9040047,17.2653228 15.9363958,17.2393403 C15.9687868,17.2198535 16.1696113,17.2003666 16.1372203,17.278314 M15.4634865,16.9665245 C15.4570082,16.9665245 15.4570082,16.9665245 15.4570082,16.9730201 C15.3144876,17.0704543 15.1784452,17.1743842 15.0294464,17.2588272 C14.8674912,17.3497658 14.6990577,17.4212175 14.5306243,17.5056605 C14.5306243,17.5056605 14.5306243,17.4991649 14.5241461,17.4991649 C14.5111896,17.4796781 14.4852768,17.4731825 14.459364,17.4861737 C14.3168433,17.5641211 14.1937574,17.6680509 14.0836278,17.7784764 C14.0641932,17.7914676 14.0447585,17.8109545 14.0318021,17.8304413 L14.0318021,17.8304413 C14.0318021,17.8304413 14.0318021,17.8304413 14.0318021,17.8304413 L13.9799764,17.8824062 C13.9799764,17.8824062 13.9734982,17.8889019 13.9734982,17.8889019 C13.9734982,17.8889019 13.9734982,17.8889019 13.9734982,17.8953975 C13.9475854,17.9213799 13.9216726,17.9473624 13.8892815,17.9863361 C13.8698469,18.0058229 13.8633687,18.0253098 13.8374558,18.038301 C13.811543,18.0512922 13.7467609,18.0512922 13.7532391,18.0123185 C13.7532391,18.0123185 13.7532391,18.0058229 13.7532391,18.0058229 C13.7338045,18.0188142 13.7078916,18.0318054 13.688457,18.038301 C13.6690224,18.0512922 13.6495878,18.0577879 13.6301531,18.0707791 C13.6236749,18.0642835 13.6107185,18.0642835 13.6042403,18.0642835 C13.5977621,18.0642835 13.5848057,18.0642835 13.5783274,18.0707791 C13.53298,18.1097528 13.4876325,18.1422309 13.442285,18.1877002 C13.3645465,18.2591519 13.2932862,18.3370993 13.2220259,18.4215423 C13.2220259,18.4215423 13.2220259,18.4280379 13.2155477,18.4280379 C13.2155477,18.4345336 13.2090695,18.4345336 13.2090695,18.4410292 C13.2025913,18.4475248 13.2025913,18.4475248 13.1961131,18.4540204 C13.1896349,18.460516 13.1896349,18.4670116 13.1831567,18.4670116 C13.1831567,18.4670116 13.1831567,18.4670116 13.1766784,18.4735072 C13.1702002,18.4864985 13.163722,18.4994897 13.1507656,18.5124809 C13.1507656,18.5124809 13.1507656,18.5124809 13.1507656,18.5124809 C13.1442874,18.5189766 13.131331,18.5254722 13.1183746,18.5254722 C13.1118963,18.5189766 13.1054181,18.5124809 13.1054181,18.5059853 C13.0989399,18.4994897 13.0989399,18.4929941 13.0924617,18.4864985 C13.0795053,18.4670116 13.0730271,18.4475248 13.0600707,18.4280379 C13.0600707,18.4280379 13.0600707,18.4280379 13.0600707,18.4215423 C13.0600707,18.4150467 13.0535925,18.4085511 13.0535925,18.4020555 C13.0924617,18.3565862 13.131331,18.3111169 13.1702002,18.2656475 C13.1702002,18.2656475 13.1766784,18.2591519 13.1766784,18.2591519 C13.1896349,18.2461607 13.2025913,18.2266739 13.2155477,18.2136826 C13.2349823,18.1877002 13.2608952,18.1617177 13.2803298,18.1357352 C13.286808,18.122744 13.2932862,18.1162484 13.2997644,18.1032572 C13.3386337,18.0512922 13.3775029,17.9993273 13.4163722,17.9408668 C13.4163722,17.9408668 13.4163722,17.9408668 13.4163722,17.9343712 C13.4228504,17.9278755 13.4293286,17.9213799 13.4293286,17.9083887 C13.4487633,17.8824062 13.4681979,17.8564238 13.4811543,17.8304413 C13.4941107,17.8044589 13.5070671,17.7784764 13.5200236,17.7524939 L13.5200236,17.7459983 L13.5265018,17.7395027 C13.5265018,17.7330071 13.53298,17.7330071 13.53298,17.7265115 C13.5459364,17.6940334 13.5588928,17.6680509 13.5718492,17.6355728 C13.5718492,17.6355728 13.5718492,17.6290772 13.5718492,17.6290772 L13.5783274,17.6030948 C13.5848057,17.5901035 13.5848057,17.5771123 13.5912839,17.5641211 C13.5912839,17.5641211 13.5912839,17.5576255 13.5912839,17.5576255 C13.5977621,17.5381386 13.5977621,17.5186518 13.6042403,17.4991649 C13.6042403,17.4926693 13.6042403,17.4796781 13.5977621,17.4731825 C13.6366313,17.4017307 13.688457,17.3367745 13.7467609,17.2718184 C13.7402827,17.2718184 13.7338045,17.278314 13.7273263,17.278314 C13.6755006,17.3107921 13.6366313,17.362757 13.5848057,17.4017307 C13.5459364,17.4342088 13.4681979,17.3822438 13.5200236,17.3432702 C13.5524146,17.3172877 13.5783274,17.2913052 13.6042403,17.2653228 C13.6042403,17.2653228 13.6042403,17.2588272 13.6107185,17.2588272 C13.6755006,17.2003666 13.7338045,17.1224192 13.8050648,17.0704543 C13.8504122,17.0379762 13.8828033,17.0119938 13.9216726,16.9795157 C13.9281508,16.9730201 13.934629,16.9665245 13.9411072,16.9665245 C13.96702,16.9340464 13.9929329,16.9015683 14.0253239,16.8690902 C14.0253239,16.8690902 14.0318021,16.8690902 14.0318021,16.8625946 C14.3945819,16.5118314 14.9970554,16.5313182 15.4764429,16.3104673 C15.664311,16.2325199 15.8910483,16.349441 16.0789164,16.3104673 C16.1890459,16.3104673 16.3056537,16.3104673 16.4157833,16.3884147 C16.0853946,16.5637963 15.7744405,16.771656 15.4634865,16.9665245 M15.819788,11.1594442 C15.8586572,11.1594442 15.9363958,11.1594442 15.9363958,11.1984179 C15.9363958,11.3867908 15.819788,11.5361899 15.6319199,11.5751636 C15.9363958,11.653111 16.2343934,11.653111 16.532391,11.8025102 C16.4935218,11.8804576 16.4222615,11.8414839 16.3833922,11.8414839 C16.5712603,11.9519093 16.7979976,11.8804576 16.9858657,12.0298567 C16.869258,12.1402822 16.7591284,12.0298567 16.6489988,12.0298567 C17.8150766,12.3676287 19.0588928,12.6339489 20.0371025,13.3874403 C19.2078916,13.8031597 18.3398115,13.9915326 17.4393404,14.1799054 C17.3292108,14.1799054 17.2514723,14.1799054 17.1413428,14.1409317 C17.1413428,14.1799054 17.1413428,14.2513572 17.1024735,14.2513572 C16.9534747,14.2513572 16.8368669,14.2513572 16.7267373,14.3293046 C16.5712603,14.4137476 16.344523,14.4527213 16.2343934,14.3422958 C16.1955241,14.3033221 16.3510012,14.3422958 16.3833922,14.2643484 L16.0853946,14.2643484 C16.0465253,14.2643484 16.0465253,14.2253747 16.0465253,14.186401 C15.8586572,14.2253747 15.6319199,14.2968265 15.4440518,14.3358002 C15.1784452,14.4137476 14.9517079,14.6021204 14.6537102,14.6735722 C14.2391048,14.8229714 13.9022379,15.167239 13.4487633,15.3166381 C13.409894,15.3166381 13.409894,15.2776644 13.409894,15.2386907 C13.4487633,15.1282653 13.5977621,15.0892916 13.6755006,14.9723705 C13.6755006,14.9333968 13.6755006,14.8944231 13.6366313,14.8944231 C13.934629,14.4787037 14.3492344,14.2513572 14.7314488,13.9135852 L14.7314488,13.7966641 C14.8415783,13.647265 15.0294464,13.5693176 15.1071849,13.3809447 C15.1460542,13.2705193 15.295053,13.1146245 15.4829211,13.0431727 C15.4440518,13.004199 15.3727915,13.004199 15.3727915,12.9327473 C15.2237927,12.9327473 15.0683157,13.0106946 14.9193168,12.8937736 C14.9905771,12.8223218 15.0683157,12.7833481 15.1525324,12.7573656 C15.1201413,12.75087 15.0942285,12.7378788 15.0683157,12.7054007 C15.0294464,12.6274533 15.139576,12.5430103 15.2561837,12.5170279 C15.4051826,12.4780542 15.5930506,12.4780542 15.7096584,12.3676287 C15.4440518,12.328655 15.1460542,12.4455761 14.8804476,12.2896813 C15.0683157,11.8025102 15.3727915,11.3867908 15.819788,11.1594442 Z" id="Shape" fill="#000091" fill-rule="nonzero"></path>
                        <path d="M54.9481743,0.0323624595 L33.5182568,0.0323624595 C33.5182568,0.0323624595 33.557126,0.0388644101 33.7190813,0.123389768 C33.8939929,0.214417076 34.1207303,0.337954137 34.2567727,0.409475593 C34.5353357,0.552518506 34.8009423,0.734573123 34.9758539,1.014157 C35.0535925,1.12469016 35.163722,1.35225843 35.0924617,1.50180329 C35.0147232,1.69035986 34.9758539,1.99595154 34.7879859,2.06747299 C34.5612485,2.1845081 34.2632509,2.1845081 33.9976443,2.1454964 C33.8486455,2.1454964 33.6996466,2.1064847 33.5441696,2.06747299 C34.1077739,2.29504126 34.638987,2.56162124 35.0147232,3.08827923 C35.0535925,3.16630264 35.2025913,3.19881239 35.3515901,3.19881239 C35.3904594,3.19881239 35.3904594,3.2768358 35.3904594,3.30934555 C35.3127208,3.38736896 35.2414605,3.42638067 35.2803298,3.53691382 L35.3904594,3.53691382 C35.5783274,3.45889042 35.5394582,3.08177728 35.8050648,3.19881239 C35.9929329,3.30934555 36.0706714,3.57592553 35.9540636,3.7644821 C35.8050648,3.91402696 35.656066,4.03106207 35.5005889,4.14159523 C35.4617197,4.21961864 35.4617197,4.3301518 35.5005889,4.4081752 C35.6107185,4.55772007 35.6495878,4.70726493 35.688457,4.86331174 C35.8050648,5.12989172 35.8374558,5.42898145 35.9540636,5.69556142 C36.1030624,6.26123112 36.2520612,6.82690082 36.2196702,7.39907247 C36.2196702,7.6981622 36.0706714,7.96474217 36.1808009,8.27033385 C36.2585395,8.56942358 36.4464075,8.79699185 36.5954064,9.06357182 C36.7444052,9.29114009 36.893404,9.44068496 37.0100118,9.66825323 C37.2367491,10.0453664 37.6513545,10.4224795 37.4634865,10.877616 C37.3533569,11.144196 36.9387515,11.1051843 36.6731449,11.2547292 C36.4464075,11.4432857 36.6342756,11.7488774 36.7508834,11.937434 C36.9387515,12.2755354 36.5241461,12.5031037 36.2585395,12.6201388 C36.336278,12.7371739 36.4852768,12.6981622 36.5241461,12.7696837 C36.5630153,12.9582402 36.7508834,13.0687734 36.6342756,13.2638319 C36.4852768,13.4914002 36.0318021,13.6019333 36.2585395,13.9465367 C36.4075383,14.2131167 36.3103651,14.5057045 36.2196702,14.7787864 C36.1095406,15.1168878 35.8050648,15.2664327 35.5394582,15.3444561 C35.3127208,15.4224795 35.0471143,15.4224795 34.8268551,15.3834678 C34.7491166,15.3444561 34.6778563,15.3054444 34.6001178,15.3054444 C33.958775,15.227421 33.3174323,15.0453664 32.6825677,15.0453664 C32.4946996,15.0843781 32.3068316,15.1168878 32.1578327,15.1949112 C31.9893993,15.3184483 31.8339223,15.4549892 31.7043581,15.5980322 C31.7043581,15.5980322 31.7043581,15.5980322 31.6978799,15.6045341 C31.671967,15.6370439 31.639576,15.6630517 31.6136631,15.6955614 C31.6007067,15.7150673 31.5812721,15.7345731 31.5683157,15.754079 C31.5553592,15.7670829 31.548881,15.7800868 31.5359246,15.7930907 C31.4257951,15.9296316 31.3286219,16.0791765 31.237927,16.2287214 C31.2314488,16.2417253 31.2249706,16.2482272 31.2184923,16.2547292 C31.2120141,16.274235 31.1990577,16.2872389 31.1861013,16.3067448 C31.0630153,16.534313 30.9723204,16.7683833 30.9010601,17.0024535 C30.6419317,17.8672129 30.7585395,18.6084353 30.9399293,18.7904899 C30.991755,18.8425055 32.1837456,19.2131167 33.0129564,19.5837279 C33.401649,19.7592805 33.6737338,19.8893195 33.9004711,20.0323625 L54.9416961,20.0323625 L54.9416961,0.0323624595 L54.9481743,0.0323624595 Z" id="Path" fill="#E1000F" fill-rule="nonzero"></path>
                        <path d="M34.7944641,7.28802589 C34.9434629,7.32686084 35.1702002,7.32686084 35.1702002,7.40453074 C35.0924617,7.70226537 34.6454653,7.77993528 34.4187279,8.08414239 L34.3021201,8.08414239 C34.1919906,8.1618123 34.2243816,8.34951456 34.1142521,8.34951456 C34.0041225,8.31067961 33.8875147,8.34951456 33.7773852,8.38834951 C33.926384,8.53721683 34.1142521,8.65372168 34.3409894,8.61488673 C34.3798587,8.61488673 34.451119,8.69255663 34.451119,8.76375405 C34.451119,8.76375405 34.4899882,8.76375405 34.5288575,8.72491909 C34.5677267,8.72491909 34.606596,8.72491909 34.606596,8.76375405 L34.606596,8.91262136 C34.4964664,9.06148867 34.3021201,8.99029126 34.1531213,9.02265372 C34.4575972,9.10032362 34.7555948,9.10032362 35.0212014,9.02265372 C35.2479388,8.94498382 35.0212014,8.56957929 35.1702002,8.38187702 C35.0924617,8.38187702 35.1702002,8.26537217 35.0924617,8.26537217 C35.1702002,8.18770227 35.2414605,8.0776699 35.3191991,8.03883495 C35.3969376,8.03883495 35.5070671,8 35.5459364,7.9223301 C35.5459364,7.84466019 35.3969376,7.81229773 35.4293286,7.73462783 C35.656066,7.58576052 35.843934,7.3592233 35.7661955,7.13268608 C35.7273263,7.01618123 35.4293286,7.01618123 35.2414605,6.94498382 C35.0535925,6.87378641 34.8268551,6.94498382 34.6001178,6.98381877 C34.4122497,6.98381877 34.2243816,7.10032362 34.0365135,7.13268608 C33.7709069,7.21035599 33.5441696,7.3592233 33.3239105,7.50809061 C33.5895171,7.39805825 33.8486455,7.3592233 34.1531213,7.2815534 C34.3798587,7.28802589 34.5677267,7.23624595 34.7944641,7.28802589" id="Path" fill="#808080" fill-rule="nonzero"></path>
                    </g>
                </g>
            </g>
        </g>
    </g>
</svg>