<?xml version="1.0" encoding="UTF-8"?>
<svg width="103px" height="103px" viewBox="0 0 103 103" version="1.1" xmlns="http://www.w3.org/2000/svg" xmlns:xlink="http://www.w3.org/1999/xlink">
    <title>DF8AEB4E-86A1-4048-8D12-B207E08978DD</title>
    <g id="Page-d'accueil" stroke="none" stroke-width="1" fill="none" fill-rule="evenodd">
        <g id="Page-d'accueil-ok" transform="translate(-115.000000, -514.000000)">
            <g id="oeil-ouvert" transform="translate(115.000000, 514.000000)">
                <path d="M7.65108941,19.1870216 C8.37943141,18.5800699 9.43829232,18.6314523 10.104959,19.2754677 L10.2415499,19.422518 L17.5986927,28.2510894 C18.2489981,29.0314558 18.1435627,30.1912445 17.3631963,30.8415499 C16.6348543,31.4485015 15.5759934,31.3971191 14.9093267,30.7531037 L14.7727359,30.6060534 L7.415593,21.777482 C6.76528764,20.9971156 6.87072297,19.8373269 7.65108941,19.1870216 Z" id="Path-7" fill="#0E70DB" fill-rule="nonzero"></path>
                <path d="M28.9824791,9.98705933 C29.9063665,9.75608747 30.8417955,10.2682633 31.1581178,11.145198 L31.2129407,11.3253363 L34.1557978,23.0967648 C34.4021678,24.0822448 33.8030008,25.0808564 32.8175209,25.3272264 C31.8936335,25.5581982 30.9582045,25.0460224 30.6418822,24.1690877 L30.5870593,23.9889495 L27.6442022,12.2175209 C27.3978322,11.232041 27.9969992,10.2334293 28.9824791,9.98705933 Z" id="Path-17" fill="#0E70DB" fill-rule="nonzero"></path>
                <path d="M51.4581915,6.18668831 C52.4105128,6.18668831 53.1937913,6.91044675 53.2879811,7.83791775 L53.2974772,8.02597403 L53.2974772,21.4025974 C53.2974772,22.4184069 52.4740009,23.2418831 51.4581915,23.2418831 C50.5058701,23.2418831 49.7225916,22.5181247 49.6284018,21.5906537 L49.6189057,21.4025974 L49.6189057,8.02597403 C49.6189057,7.01016458 50.442382,6.18668831 51.4581915,6.18668831 Z" id="Path-41" fill="#0E70DB" fill-rule="nonzero"></path>
                <path d="M73.3206803,11.1256122 C73.6773548,10.1744802 74.7375414,9.69257718 75.6886735,10.0492517 C76.5803597,10.383634 77.0596377,11.3363376 76.8221736,12.237828 L76.765034,12.4172449 L72.3507483,24.1886735 C71.9940738,25.1398055 70.9338871,25.6217085 69.9827551,25.265034 C69.0910688,24.9306517 68.6117908,23.9779481 68.849255,23.0764577 L68.9063945,22.8970408 L73.3206803,11.1256122 Z" id="Path-53" fill="#0E70DB" fill-rule="nonzero"></path>
                <path d="M95.8137143,19.2994286 C96.5320001,18.5811428 97.6965714,18.5811428 98.4148571,19.2994286 C99.0852571,19.9698286 99.1299505,21.028993 98.5489371,21.7512282 L98.4148571,21.9005714 L89.5862857,30.7291428 C88.8679999,31.4474286 87.7034286,31.4474286 86.9851429,30.7291428 C86.3147429,30.0587428 86.2700495,28.9995785 86.8510629,28.2773432 L86.9851429,28.128 L95.8137143,19.2994286 Z" id="Path-54" fill="#0E70DB" fill-rule="nonzero"></path>
                <path d="M51.5,29.0607143 C45.379593,29.0607143 38.1663264,30.4974088 31.1863601,32.7509695 L29.8806742,33.1829334 C28.7954206,33.5506284 27.7178863,33.9373206 26.6531302,34.3406456 L25.3818803,34.832468 C25.1711355,34.9157185 24.9609828,34.9995966 24.7514626,35.0840832 L23.5022558,35.5981544 L22.2701727,36.1259232 L21.0571559,36.6664816 C20.8566832,36.75759 20.6570859,36.8491935 20.4584044,36.9412732 L19.2776294,37.4993137 L18.1207773,38.0678739 C17.7393629,38.2590464 17.3622594,38.4518208 16.9897906,38.6460459 L15.886612,39.2329218 C14.9794228,39.7253595 14.1032239,40.2259178 13.2630742,40.7322325 L12.2725219,41.3424218 C6.43691515,45.0183196 2.575,48.9435934 2.575,52.2357143 C2.575,54.6679207 4.79721601,57.4761932 8.40464383,60.2801482 L9.22875611,60.9030236 C11.6264183,62.6667599 14.5486459,64.4176145 17.7865173,66.0606412 L18.9420616,66.6359011 C19.5260467,66.9211378 20.1190961,67.2026687 20.7200616,67.479972 L21.9322074,68.0287871 C22.1358774,68.1192653 22.340342,68.2092351 22.5455586,68.2986772 L23.7855418,68.8288426 C23.9935962,68.9160966 24.2023176,69.0027842 24.4116635,69.0888861 L25.6748915,69.5983146 C25.8865649,69.6819965 26.0987778,69.765054 26.3114875,69.8474678 L27.5933676,70.3340724 C28.0224216,70.4935962 28.4531229,70.6503907 28.8851312,70.8043014 L30.1847368,71.2572272 C31.4875832,71.7011922 32.7991312,72.117811 34.1101954,72.5029094 L35.4207581,72.8773463 L36.7289573,73.2298419 C41.954305,74.594705 47.0739375,75.4107143 51.5,75.4107143 C55.3274323,75.4107143 59.7049355,74.7755933 64.2326901,73.6908538 L65.5300774,73.368854 L66.8335693,73.0233466 C69.4452764,72.3094652 72.0811778,71.4603073 74.6666717,70.5104854 L75.9548726,70.027346 C76.3826424,69.8636102 76.8086667,69.6972384 77.2326,69.5283908 L78.4977816,69.0145812 L79.7483451,68.4868787 L80.9822183,67.9462447 C81.3904974,67.763985 81.7956493,67.5797303 82.1973288,67.3936408 L83.3916045,66.8300283 C83.588799,66.7352289 83.7850391,66.6400109 83.9802816,66.5443943 L85.1394194,65.9660718 C85.5215778,65.77181 85.8994003,65.5761142 86.2725415,65.3791444 L87.3775758,64.7845736 C95.0096731,60.5980694 100.425,55.9204429 100.425,52.2357143 C100.425,49.116826 96.7485436,45.342222 91.1582506,41.7529671 L90.1814957,41.1396389 C89.6840733,40.8340395 89.17333,40.530155 88.6503759,40.228515 L87.5885153,39.6283846 C87.229354,39.4294433 86.8650946,39.2316565 86.4960658,39.0351811 L85.3750006,38.4498461 C85.1858814,38.3529983 84.9956521,38.2565176 84.8043538,38.1604236 L83.6440651,37.588657 C83.4486553,37.4941882 83.2522587,37.4001455 83.0549165,37.3065482 L81.8598442,36.7504685 C81.0560026,36.3835223 80.238346,36.0243328 79.4095056,35.6741554 L78.158186,35.1558052 C77.1089778,34.7297408 76.0443504,34.3187387 74.9694426,33.9252509 L73.6749475,33.4616293 C73.2420235,33.3099956 72.8077835,33.1613212 72.3725565,33.015763 L71.0642429,32.5885937 C70.6273705,32.4494247 70.18984,32.3135288 69.7519801,32.1810629 L68.4377413,31.7941122 C68.2186464,31.7313877 67.9995515,31.66956 67.7804975,31.6086487 L66.4669948,31.2543337 C66.0295438,31.1399988 65.5925857,31.0294862 65.1564493,30.9229529 L63.8508345,30.6154478 C59.5091954,29.6312699 55.2826221,29.0607143 51.5,29.0607143 Z M51.5,32.7392857 C60.0910237,32.7392857 71.3701472,35.825978 81.4228495,40.6037727 L82.4569574,41.1040932 L83.4648528,41.6092416 C83.7963191,41.7783031 84.1232215,41.9479806 84.4453648,42.118085 L85.3973226,42.6294906 L86.3195553,43.1423254 C86.4707187,43.2278541 86.6205947,43.3133951 86.7691589,43.3989248 L87.6446088,43.9117795 L88.4874066,44.4232313 L89.2963815,44.9321474 L90.0703626,45.4373948 L90.8081791,45.9378408 L91.5086603,46.4323524 L92.1706352,46.9197968 C92.7059114,47.3227411 93.1998575,47.7171437 93.6494242,48.1000543 L94.1674071,48.553842 C95.8217089,50.0468221 96.7464286,51.33705 96.7464286,52.2357143 C96.7464286,53.1456516 95.73927,54.4773958 93.9465097,56.0243137 L93.413107,56.4719668 L92.8380988,56.930259 C92.7388608,57.0074681 92.637937,57.0850759 92.5353515,57.1630601 L91.9000882,57.635303 C91.7909511,57.7147034 91.6802002,57.7944355 91.5678592,57.874477 L90.8749245,58.3582608 C90.7563192,58.4394507 90.6361716,58.5209055 90.5145059,58.6026028 L89.7664836,59.0955177 L88.9831716,59.5931814 C88.8497426,59.6764616 88.7148911,59.759895 88.5786409,59.8434594 L87.7445476,60.346238 L86.8780356,60.851088 L85.980253,61.3569382 L85.0523483,61.8627177 L84.0954698,62.3673555 L83.1107659,62.8697807 L82.0993848,63.3689222 L81.0624749,63.863709 C70.91694,68.6232682 59.6553591,71.7321429 51.5,71.7321429 C43.304833,71.7321429 32.0106961,68.6701565 21.9315262,63.9859219 L21.3969429,63.7352521 L20.3481202,63.2302177 C20.175625,63.1456797 20.0043001,63.0609738 19.8341697,62.9761226 L18.8279124,62.4654501 C18.6626559,62.3801071 18.498642,62.2946636 18.3358947,62.2091421 L17.374803,61.6952563 L16.4452661,61.1805754 C16.140808,61.0090024 15.8418016,60.8374765 15.5484395,60.6661773 L14.6854789,60.1531396 C14.5445385,60.0678066 14.4050573,59.9825752 14.2670594,59.8974678 L13.4570643,59.3884915 C13.3250959,59.3039701 13.194659,59.2196177 13.0657776,59.1354566 L12.3113481,58.6329668 L11.5954067,58.1361483 L10.919109,57.646079 L10.2836107,57.1638366 L9.6900671,56.6904987 C7.49670679,54.8944814 6.25357143,53.3184919 6.25357143,52.2357143 C6.25357143,51.0648129 7.62469093,49.3445058 10.0275238,47.4033906 L10.6495297,46.9137018 C10.9710832,46.6667475 11.3083153,46.4167709 11.6605631,46.1644139 L12.3848832,45.656716 C12.5088745,45.5716341 12.6344852,45.4863352 12.7616906,45.4008431 L13.5438638,44.8857627 C13.67735,44.7995929 13.8123819,44.7132775 13.9489348,44.6268403 L14.7863094,44.1069444 C14.9288486,44.0201147 15.0728598,43.9332107 15.2183183,43.8462561 L16.1082428,43.324112 L17.0317273,42.8018953 L17.9875935,42.2807469 C18.3114816,42.1073356 18.6405701,41.9342925 18.9746628,41.7618078 L19.9917567,41.246219 C20.163709,41.1606302 20.3368631,41.0752284 20.5111946,40.9900376 L21.5711158,40.4816135 C31.5592526,35.7788707 42.8689227,32.7392857 51.5,32.7392857 Z" id="Path-6" fill="#006ADC" fill-rule="nonzero"></path>
                <circle id="Oval" fill="#FFFFFF" cx="52.2357143" cy="52.2357143" r="21.3357143"></circle>
                <circle id="Oval" fill="#FDE0D7" cx="50.0285714" cy="48.5571429" r="16.1857143"></circle>
                <path d="M52.2357143,29.0607143 C39.4365152,29.0607143 29.0607143,39.4365152 29.0607143,52.2357143 C29.0607143,65.0349134 39.4365152,75.4107143 52.2357143,75.4107143 C65.0349134,75.4107143 75.4107143,65.0349134 75.4107143,52.2357143 C75.4107143,39.4365152 65.0349134,29.0607143 52.2357143,29.0607143 Z M52.2357143,32.7392857 C63.0032945,32.7392857 71.7321429,41.4681341 71.7321429,52.2357143 C71.7321429,63.0032945 63.0032945,71.7321429 52.2357143,71.7321429 C41.4681341,71.7321429 32.7392857,63.0032945 32.7392857,52.2357143 C32.7392857,41.4681341 41.4681341,32.7392857 52.2357143,32.7392857 Z" id="Oval" fill="#0E70DB" fill-rule="nonzero"></path>
                <path d="M52.2816964,41.2 C58.4019484,41.2 63.3633929,46.1408576 63.3633929,52.2357143 C63.3633929,58.330571 58.4019484,63.2714286 52.2816964,63.2714286 C46.1614445,63.2714286 41.2,58.330571 41.2,52.2357143 C41.2,51.6970589 41.2387528,51.1674171 41.3136334,50.6494031 C42.5287642,52.0706359 44.3341864,52.9714286 46.35,52.9714286 C50.006914,52.9714286 52.9714286,50.006914 52.9714286,46.35 C52.9714286,44.3365731 52.0727677,42.5330397 50.6546682,41.3186219 C51.1855431,41.2403093 51.7288928,41.2 52.2816964,41.2 Z" id="Combined-Shape" fill="#006ADC"></path>
            </g>
        </g>
    </g>
</svg>