<svg width="28" height="25" viewBox="0 0 28 25" fill="none" xmlns="http://www.w3.org/2000/svg">
<path d="M20.555 25C20.1261 25 19.7257 24.8905 19.3254 24.644L13.492 21.0843L7.77304 24.644C7.00097 25.1095 6.00015 25.0821 5.22808 24.5619C4.48461 24.0416 4.14147 23.138 4.37023 22.2618L6.11453 15.8269L0.824452 11.7196C0.109577 11.1446 -0.176373 10.241 0.109577 9.39211C0.395527 8.54326 1.19619 7.94085 2.11123 7.88609L9.03122 7.47536L11.4618 1.36911C11.8049 0.547645 12.6342 0 13.5778 0C14.5215 0 15.3507 0.547645 15.6938 1.36911L18.2388 7.58489L25.0444 7.91347C25.988 7.96824 26.7601 8.54326 27.0461 9.4195C27.332 10.2683 27.0461 11.1993 26.3312 11.747L21.0411 15.9365L22.7568 22.2892C22.9856 23.1654 22.6424 24.069 21.899 24.5893C21.4986 24.8631 21.0411 25 20.555 25Z" fill="#000638"/>
</svg>
