<svg width="28" height="25" viewBox="0 0 28 25" fill="none" xmlns="http://www.w3.org/2000/svg">
<path fill-rule="evenodd" clip-rule="evenodd" d="M19.3254 24.644C19.7257 24.8905 20.1261 25 20.555 25C21.0411 25 21.4986 24.8631 21.899 24.5893C22.6424 24.069 22.9856 23.1654 22.7568 22.2892L21.0411 15.9365L26.3312 11.747C27.0461 11.1993 27.332 10.2683 27.0461 9.4195C26.7601 8.54326 25.988 7.96824 25.0444 7.91347L18.2388 7.58489L15.6938 1.36911C15.3507 0.547645 14.5215 0 13.5778 0C12.6342 0 11.8049 0.547645 11.4618 1.36911L9.03122 7.47536L2.11123 7.88609C1.19619 7.94085 0.395527 8.54326 0.109577 9.39211C-0.176373 10.241 0.109577 11.1446 0.824452 11.7196L6.11453 15.8269L4.37023 22.2618C4.14147 23.138 4.48461 24.0416 5.22808 24.5619C6.00015 25.0821 7.00097 25.1095 7.77304 24.644L13.492 21.0843L19.3254 24.644ZM14.7788 19.1402C14.4071 18.9211 13.9782 18.8116 13.5492 18.8116C13.1203 18.8116 12.72 18.9485 12.2911 19.1676L6.68646 22.5903L8.37356 16.4019C8.60232 15.5805 8.31637 14.7042 7.63009 14.184L2.5116 10.1588L9.17422 9.77544C10.0607 9.72067 10.8327 9.17303 11.1473 8.40633L13.5778 2.49176L16.0084 8.43371C16.3229 9.22779 17.095 9.74806 17.9815 9.80282L24.6155 10.1862L19.4684 14.2387C18.8107 14.7864 18.4962 15.6352 18.7249 16.4567L20.3834 22.563L14.7788 19.1402Z" fill="#000638"/>
</svg>
