<svg width="25" height="25" viewBox="0 0 25 25" fill="none" xmlns="http://www.w3.org/2000/svg">
<path d="M17.6457 14.1337C21.0916 14.1337 23.8851 11.3355 23.8851 7.88372C23.8851 4.43194 21.0916 1.63372 17.6457 1.63372C14.1997 1.63372 11.4062 4.43194 11.4062 7.88372C11.4062 11.3355 14.1997 14.1337 17.6457 14.1337Z" fill="#FE5455"/>
<g clip-path="url(#clip0)">
<path fill-rule="evenodd" clip-rule="evenodd" d="M16.7599 4.46707C16.8286 4.51473 16.8847 4.57833 16.9235 4.65243C16.9622 4.72652 16.9825 4.8089 16.9824 4.89252V20.4199C16.9824 20.5571 16.9279 20.6888 16.8308 20.7858C16.7338 20.8829 16.6021 20.9374 16.4648 20.9374H13.3594C13.2221 20.9374 13.0905 20.8829 12.9934 20.7858C12.8963 20.6888 12.8418 20.5571 12.8418 20.4199V18.8671H11.8066V20.4199C11.8066 20.5571 11.7521 20.6888 11.655 20.7858C11.558 20.8829 11.4263 20.9374 11.2891 20.9374H1.97266C1.83539 20.9374 1.70374 20.8829 1.60667 20.7858C1.50961 20.6888 1.45508 20.5571 1.45508 20.4199V14.2089C1.45513 14.0864 1.49865 13.9679 1.57788 13.8744C1.65711 13.781 1.76692 13.7187 1.88777 13.6986L7.66602 12.7359V7.99799C7.66602 7.89271 7.69812 7.78994 7.75805 7.70338C7.81797 7.61682 7.90287 7.55059 8.00141 7.51354L16.2827 4.40807C16.3609 4.37874 16.4451 4.36878 16.528 4.37906C16.6109 4.38933 16.6901 4.41953 16.7588 4.46707H16.7599ZM8.70117 8.35615V13.1738C8.70112 13.2963 8.6576 13.4148 8.57837 13.5083C8.49914 13.6017 8.38933 13.664 8.26848 13.6841L2.49023 14.6468V19.9023H10.7715V18.3496C10.7715 18.2123 10.826 18.0806 10.9231 17.9836C11.0201 17.8865 11.1518 17.832 11.2891 17.832H13.3594C13.4966 17.832 13.6283 17.8865 13.7254 17.9836C13.8224 18.0806 13.877 18.2123 13.877 18.3496V19.9023H15.9473V5.6399L8.70117 8.35615Z" fill="#000638"/>
<path fill-rule="evenodd" clip-rule="evenodd" d="M7.66602 20.4199V13.1738H8.70117V20.4199H7.66602Z" fill="#000638"/>
<path d="M3.52539 15.7617H4.56055V16.7969H3.52539V15.7617ZM5.5957 15.7617H6.63086V16.7969H5.5957V15.7617ZM3.52539 17.832H4.56055V18.8672H3.52539V17.832ZM5.5957 17.832H6.63086V18.8672H5.5957V17.832ZM11.8066 7.48047H12.8418V8.51562H11.8066V7.48047ZM13.877 7.48047H14.9121V8.51562H13.877V7.48047ZM9.73633 9.55078H10.7715V10.5859H9.73633V9.55078ZM11.8066 9.55078H12.8418V10.5859H11.8066V9.55078ZM13.877 9.55078H14.9121V10.5859H13.877V9.55078ZM11.8066 11.6211H12.8418V12.6562H11.8066V11.6211ZM13.877 11.6211H14.9121V12.6562H13.877V11.6211ZM9.73633 11.6211H10.7715V12.6562H9.73633V11.6211ZM9.73633 13.6914H10.7715V14.7266H9.73633V13.6914ZM11.8066 13.6914H12.8418V14.7266H11.8066V13.6914ZM13.877 13.6914H14.9121V14.7266H13.877V13.6914ZM9.73633 15.7617H10.7715V16.7969H9.73633V15.7617ZM11.8066 15.7617H12.8418V16.7969H11.8066V15.7617ZM13.877 15.7617H14.9121V16.7969H13.877V15.7617Z" fill="#000638"/>
</g>
<defs>
<clipPath id="clip0">
<rect width="16.5625" height="16.5625" fill="white" transform="translate(0.9375 4.375)"/>
</clipPath>
</defs>
</svg>
