<?xml version="1.0" encoding="UTF-8"?>
<svg width="17px" height="21px" viewBox="0 0 17 21" version="1.1" xmlns="http://www.w3.org/2000/svg" xmlns:xlink="http://www.w3.org/1999/xlink">
    <title>20226BBB-AE95-49E8-88C9-B2C01553A573</title>
    <defs>
        <filter id="filter-1">
            <feColorMatrix in="SourceGraphic" type="matrix" values="0 0 0 0 0.000000 0 0 0 0 0.000000 0 0 0 0 0.000000 0 0 0 1.000000 0"></feColorMatrix>
        </filter>
    </defs>
    <g id="Page-entreprise" stroke="none" stroke-width="1" fill="none" fill-rule="evenodd">
        <g id="Page-de-resultats-v1-Copy" transform="translate(-479.000000, -542.000000)">
            <g id="Group-Copy" transform="translate(84.000000, 453.000000)" filter="url(#filter-1)">
                <g transform="translate(395.000000, 89.000000)">
                    <path d="M16.7709788,12.491136 C16.7499871,12.2790624 16.6240367,12.0881961 16.4141195,12.0033667 L11.8799076,9.69176425 C12.7615599,7.86793116 13.433295,6.1289275 13.433295,5.08976679 C13.433295,2.29039505 11.166189,0 8.39528174,0 C5.62437444,0 3.35726847,2.29039505 3.35726847,5.08976679 C3.35726847,6.23496431 4.17594563,8.2284563 5.18354828,10.264363 L2.20272376,10.7733397 C1.99280654,10.8157544 1.82487277,10.9429986 1.71991416,11.1338648 L0.0615681243,14.8239458 C-0.0853739294,15.1208488 0.0405764023,15.5025813 0.33446051,15.6510329 L8.24833969,20.0409567 C8.3532983,20.0833714 8.45825691,20.1257862 8.56321551,20.1257862 C8.60519896,20.1257862 8.6471824,20.1257862 8.68916585,20.1045788 L15.4485003,18.7048929 C15.6374258,18.6624782 15.8053596,18.535234 15.8893265,18.3655752 C15.9732934,18.1959163 15.9732934,17.9838426 15.9103182,17.8141837 L14.566848,14.781531 L16.5820533,13.02132 C16.7080036,12.9152832 16.7919705,12.7032096 16.7709788,12.491136 Z M8.37429002,1.29364906 C10.4524705,1.29364906 12.1318082,2.99023799 12.1318082,5.08976679 C12.1318082,6.23496431 10.8513132,9.16158021 8.71015757,12.9152832 C8.60519896,13.0849421 8.43726518,13.1061495 8.37429002,13.1061495 C8.31131485,13.1061495 8.14338108,13.0849421 8.03842247,12.9152832 C5.89726683,9.16158021 4.61677179,6.23496431 4.61677179,5.08976679 C4.61677179,2.99023799 6.29610954,1.29364906 8.37429002,1.29364906 Z M13.3493281,14.1453102 C13.1394109,14.3361764 13.0764357,14.6330795 13.1813943,14.8875678 L14.3989142,17.6233175 L8.6471824,18.8109297 L1.44702177,14.8239458 L2.72751681,11.9821593 L5.7713165,11.4519753 C6.14916749,12.1730256 6.54801021,12.8940759 6.9258612,13.5515041 C7.21974531,14.0816881 7.76553008,14.3997985 8.37429002,14.3997985 C8.98304995,14.3997985 9.507843,14.0816881 9.82271883,13.5515041 C10.3055284,12.7032096 10.8303215,11.7700857 11.3131311,10.8369618 L15.0076742,12.7032096 L13.3493281,14.1453102 Z" id="Shape" fill="#007BFF" fill-rule="nonzero"></path>
                    <path d="M10.3225806,5.51836072 C10.3225806,4.26469662 9.31034483,3.24609454 8.06451613,3.24609454 C6.81868743,3.24609454 5.80645161,4.26469662 5.80645161,5.51836072 C5.80645161,6.77202482 6.81868743,7.7906269 8.06451613,7.7906269 C9.31034483,7.7906269 10.3225806,6.77202482 10.3225806,5.51836072 Z M6.99388209,5.51836072 C6.99388209,4.93070568 7.48053393,4.44099314 8.06451613,4.44099314 C8.64849833,4.44099314 9.13515017,4.93070568 9.13515017,5.51836072 C9.13515017,6.10601577 8.64849833,6.59572831 8.06451613,6.59572831 C7.48053393,6.59572831 6.99388209,6.12560427 6.99388209,5.51836072 Z" id="Shape" fill="#007BFF" fill-rule="nonzero"></path>
                </g>
            </g>
        </g>
    </g>
</svg>