<?xml version="1.0" encoding="UTF-8"?>
<svg width="11px" height="15px" viewBox="0 0 11 15" version="1.1" xmlns="http://www.w3.org/2000/svg" xmlns:xlink="http://www.w3.org/1999/xlink">
    <title>BB6B655D-C273-4921-BE9A-3534A8BB6311</title>
    <g id="Page-entreprise" stroke="none" stroke-width="1" fill="none" fill-rule="evenodd">
        <g id="Page-de-resultats-v1-Copy" transform="translate(-482.000000, -514.000000)" fill="#000000">
            <g id="liste-de-structures" transform="translate(84.000000, 453.000000)">
                <g id="Group" transform="translate(398.000000, 61.000000)">
                    <path d="M6.38167939,6 C6.33171756,6 6.28177481,6.00875997 6.23562977,6.02560568 C6.18946565,6.04245308 6.1471374,6.0673778 6.11179389,6.09850345 C6.07646947,6.12962741 6.04818702,6.16692707 6.02906489,6.20759284 C6.00994275,6.24825862 6,6.29225856 6,6.33627532 L6,9.66372468 C6,9.70774312 6.00994275,9.75174474 6.02906489,9.79240043 C6.04818702,9.83307293 6.07646947,9.87036586 6.11179389,9.90148814 C6.1471374,9.93262724 6.18946565,9.95754524 6.23562977,9.97439263 C6.28177481,9.99124003 6.33171756,10 6.38167939,10 L8.61832061,10 C8.66828244,10 8.71822519,9.99125684 8.76437023,9.97439263 C8.81053435,9.95754524 8.8528626,9.93262724 8.88820611,9.90148814 C8.92353053,9.87036586 8.95181298,9.83307293 8.97093511,9.79240043 C8.99005725,9.75174474 9,9.70774312 9,9.66372468 L9,6.33627532 C9,6.29225856 8.99005725,6.24825862 8.97093511,6.20759284 C8.95181298,6.16692707 8.92353053,6.12962741 8.88820611,6.09850345 C8.8528626,6.0673778 8.81053435,6.04245308 8.76437023,6.02560568 C8.71822519,6.00875997 8.66828244,6 8.61832061,6 L6.38167939,6 Z M6.76335878,6.67255064 L8.23664122,6.67255064 L8.23664122,9.32744936 L6.76335878,9.32744936 L6.76335878,6.67255064 Z" id="Shape"></path>
                    <path d="M2.38143675,6 C2.33150668,6 2.28159568,6.00875997 2.23547997,6.02560568 C2.1893452,6.04245308 2.14704387,6.0673778 2.11172282,6.09850345 C2.07642085,6.12962741 2.04815639,6.16692707 2.02904641,6.20759284 C2.00993643,6.24825862 2,6.29225856 2,6.33627532 L2,9.66372468 C2,9.70774312 2.00993643,9.75174474 2.02904641,9.79240043 C2.04815639,9.83307293 2.07642085,9.87036586 2.11172282,9.90148814 C2.14704387,9.93262724 2.1893452,9.95754524 2.23547997,9.97439263 C2.28159568,9.99124003 2.33150668,10 2.38143675,10 L4.61856325,10 C4.66849332,10 4.71840432,9.99125684 4.76452003,9.97439263 C4.8106548,9.95754524 4.85295613,9.93262724 4.88827718,9.90148814 C4.92357915,9.87036586 4.95184361,9.83307293 4.97095359,9.79240043 C4.99006357,9.75174474 5,9.70774312 5,9.66372468 L5,6.33627532 C5,6.29225856 4.99006357,6.24825862 4.97095359,6.20759284 C4.95184361,6.16692707 4.92357915,6.12962741 4.88827718,6.09850345 C4.85295613,6.0673778 4.8106548,6.04245308 4.76452003,6.02560568 C4.71840432,6.00875997 4.66849332,6 4.61856325,6 L2.38143675,6 Z M2.76287349,6.67255064 L4.23712651,6.67255064 L4.23712651,9.32744936 L2.76287349,9.32744936 L2.76287349,6.67255064 Z" id="Shape"></path>
                    <path d="M6.38167939,1 C6.33171756,1 6.28177481,1.00875998 6.23562977,1.02560572 C6.18946565,1.04245313 6.1471374,1.06737789 6.11179389,1.09850357 C6.07646947,1.12962757 6.04818702,1.16692896 6.02906489,1.20759311 C6.00994275,1.24825893 6,1.29225893 6,1.33627575 L6,4.66372425 C6,4.70774107 6.00994275,4.75174107 6.02906489,4.79240689 C6.04818702,4.83307272 6.07646947,4.87037243 6.11179389,4.90149643 C6.1471374,4.93262211 6.18946565,4.95754687 6.23562977,4.97439428 C6.28177481,4.99124002 6.33171756,5 6.38167939,5 L8.61832061,5 C8.66828244,5 8.71822519,4.99124002 8.76437023,4.97439428 C8.81053435,4.95754687 8.8528626,4.93262211 8.88820611,4.90149643 C8.92353053,4.87037243 8.95181298,4.83307272 8.97093511,4.79240689 C8.99005725,4.75174107 9,4.70774107 9,4.66372425 L9,1.33627575 C9,1.29225893 8.99005725,1.24825893 8.97093511,1.20759311 C8.95181298,1.16692896 8.92353053,1.12962757 8.88820611,1.09850357 C8.8528626,1.06737789 8.81053435,1.04245313 8.76437023,1.02560572 C8.71822519,1.00875998 8.66828244,1 8.61832061,1 L6.38167939,1 Z M6.76335878,1.67255149 L8.23664122,1.67255149 L8.23664122,4.32744851 L6.76335878,4.32744851 L6.76335878,1.67255149 Z" id="Shape"></path>
                    <path d="M2.37151703,1 C2.32288545,1 2.27427245,1.00875998 2.22935604,1.02560572 C2.18442105,1.04245313 2.14321981,1.06737789 2.10881734,1.09850357 C2.07443344,1.12962757 2.04690402,1.16692896 2.02829102,1.20759311 C2.00967802,1.24825893 2,1.29225893 2,1.33627575 L2,4.66372425 C2,4.70774107 2.00967802,4.75174107 2.02829102,4.79240689 C2.04690402,4.83307272 2.07443344,4.87037243 2.10881734,4.90149643 C2.14321981,4.93262211 2.18442105,4.95754687 2.22935604,4.97439428 C2.27427245,4.99124002 2.32288545,5 2.37151703,5 L4.62848297,5 C4.67711455,5 4.72572755,4.99124002 4.77064396,4.97439428 C4.81557895,4.95754687 4.85678019,4.93262211 4.89118266,4.90149643 C4.92556656,4.87037243 4.95309598,4.83307272 4.97170898,4.79240689 C4.99032198,4.75174107 5,4.70774107 5,4.66372425 L5,1.33627575 C5,1.29225893 4.99032198,1.24825893 4.97170898,1.20759311 C4.95309598,1.16692896 4.92556656,1.12962757 4.89118266,1.09850357 C4.85678019,1.06737789 4.81557895,1.04245313 4.77064396,1.02560572 C4.72572755,1.00875998 4.67711455,1 4.62848297,1 L2.37151703,1 Z M2.74303406,1.67255149 L4.25696594,1.67255149 L4.25696594,4.32744851 L2.74303406,4.32744851 L2.74303406,1.67255149 Z" id="Shape"></path>
                    <path d="M0.351325455,0 C0.305336953,0 0.259366017,0.00908720613 0.21689077,0.0265622 C0.174397956,0.0440389381 0.135435963,0.0698947431 0.102903226,0.102183104 C0.0703880549,0.134469721 0.0443548387,0.173164474 0.0267534334,0.215347599 C0.00915202811,0.257532468 0,0.303176057 0,0.348837088 L0,14.6511629 C0,14.6968257 0.00915202811,14.742471 0.0267534334,14.7846454 C0.0443548387,14.8268373 0.0703880549,14.8655233 0.102903226,14.8978082 C0.135435963,14.9301105 0.174397956,14.9559593 0.21689077,14.9734361 C0.259366017,14.9909128 0.305336953,15 0.351325455,15 L10.6486745,15 C10.694663,15 10.740634,14.9909302 10.7831092,14.9734361 C10.825602,14.9559593 10.864564,14.9301105 10.8970968,14.8978082 C10.9296119,14.8655233 10.9556452,14.8268373 10.9732466,14.7846454 C10.990848,14.742471 11,14.6968257 11,14.6511629 L11,0.348837088 C11,0.303176057 10.990848,0.257532468 10.9732466,0.215347599 C10.9556452,0.173164474 10.9296119,0.134469721 10.8970968,0.102183104 C10.864564,0.0698947431 10.825602,0.0440389381 10.7831092,0.0265622 C10.740634,0.00908720613 10.694663,0 10.6486745,0 L0.351325455,0 Z M0.70265091,0.697674175 L10.2973491,0.697674175 L10.2973491,14.3023258 L8.05764931,14.3023258 L8.05764931,11.949315 C8.05764931,11.9036522 8.04849729,11.8580069 8.03089588,11.8158151 C8.01329447,11.7736407 7.98726126,11.7349372 7.95474609,11.7026523 C7.92221335,11.6703674 7.88325136,11.6445012 7.84075854,11.6270244 C7.7982833,11.6095651 7.75231236,11.6004779 7.70632386,11.6004779 L3.29367614,11.6004779 C3.24768764,11.6004779 3.2017167,11.6095477 3.15924146,11.6270244 C3.11674864,11.6445012 3.07778665,11.6703674 3.04525391,11.7026523 C3.01273874,11.7349372 2.98670553,11.7736407 2.96910412,11.8158151 C2.95150271,11.8580069 2.94235069,11.9036522 2.94235069,11.949315 L2.94235069,14.3023258 L0.70265091,14.3023258 L0.70265091,0.697674175 Z M3.6450016,12.2981521 L5.14867454,12.2981521 L5.14867454,14.3023258 L3.6450016,14.3023258 L3.6450016,12.2981521 Z M5.85132546,12.2981521 L7.3549984,12.2981521 L7.3549984,14.3023258 L5.85132546,14.3023258 L5.85132546,12.2981521 Z" id="Shape"></path>
                </g>
            </g>
        </g>
    </g>
</svg>