<svg width="25" height="25" viewBox="0 0 25 25" fill="none" xmlns="http://www.w3.org/2000/svg">
<path d="M16.2172 15.3571C19.6631 15.3571 22.4566 12.5589 22.4566 9.10712C22.4566 5.65534 19.6631 2.85712 16.2172 2.85712C12.7713 2.85712 9.97778 5.65534 9.97778 9.10712C9.97778 12.5589 12.7713 15.3571 16.2172 15.3571Z" fill="#FE5455"/>
<g clip-path="url(#clip0)">
<path fill-rule="evenodd" clip-rule="evenodd" d="M8.21418 23.5715C8.21418 23.5715 14.3749 17.7332 14.3749 13.3036C14.3749 11.6697 13.7258 10.1027 12.5705 8.94731C11.4151 7.79196 9.8481 7.14288 8.21418 7.14288C6.58026 7.14288 5.01326 7.79196 3.8579 8.94731C2.70254 10.1027 2.05347 11.6697 2.05347 13.3036C2.05347 17.7332 8.21418 23.5715 8.21418 23.5715ZM8.21418 16.384C9.03114 16.384 9.81464 16.0594 10.3923 15.4817C10.97 14.9041 11.2945 14.1206 11.2945 13.3036C11.2945 12.4866 10.97 11.7031 10.3923 11.1255C9.81464 10.5478 9.03114 10.2232 8.21418 10.2232C7.39722 10.2232 6.61372 10.5478 6.03604 11.1255C5.45836 11.7031 5.13382 12.4866 5.13382 13.3036C5.13382 14.1206 5.45836 14.9041 6.03604 15.4817C6.61372 16.0594 7.39722 16.384 8.21418 16.384V16.384Z" fill="#000638"/>
</g>
<defs>
<clipPath id="clip0">
<rect width="16.4286" height="16.4286" fill="white" transform="translate(0 7.14288)"/>
</clipPath>
</defs>
</svg>
