<svg width="25" height="25" viewBox="0 0 25 25" fill="none" xmlns="http://www.w3.org/2000/svg">
<path d="M18.2745 14.3312C21.7263 14.3312 24.5245 11.5329 24.5245 8.08117C24.5245 4.62939 21.7263 1.83117 18.2745 1.83117C14.8227 1.83117 12.0245 4.62939 12.0245 8.08117C12.0245 11.5329 14.8227 14.3312 18.2745 14.3312Z" fill="#FE5455"/>
<g clip-path="url(#clip0)">
<path fill-rule="evenodd" clip-rule="evenodd" d="M2.1875 18.7695C2.1875 19.158 2.34492 19.5306 2.62512 19.8053C2.90533 20.08 3.28537 20.2344 3.68164 20.2344H16.6309C17.0271 20.2344 17.4072 20.08 17.6874 19.8053C17.9676 19.5306 18.125 19.158 18.125 18.7695V12.9102H17.1289V18.7695C17.1289 18.899 17.0764 19.0232 16.983 19.1148C16.8896 19.2064 16.7629 19.2578 16.6309 19.2578H3.68164C3.54955 19.2578 3.42287 19.2064 3.32947 19.1148C3.23607 19.0232 3.18359 18.899 3.18359 18.7695V12.9102H2.1875V18.7695Z" fill="#000638"/>
<path fill-rule="evenodd" clip-rule="evenodd" d="M2.1875 10.957C2.1875 10.5685 2.34492 10.1959 2.62512 9.92123C2.90533 9.64652 3.28537 9.49219 3.68164 9.49219H16.6309C17.0271 9.49219 17.4072 9.64652 17.6874 9.92123C17.9676 10.1959 18.125 10.5685 18.125 10.957V13.2852L10.5407 15.2676C10.2888 15.3334 10.0237 15.3334 9.77176 15.2676L2.1875 13.2852V10.957ZM3.68164 10.4688C3.54955 10.4688 3.42287 10.5202 3.32947 10.6118C3.23607 10.7033 3.18359 10.8275 3.18359 10.957V12.5352L10.0278 14.3242C10.1119 14.3463 10.2006 14.3463 10.2847 14.3242L17.1289 12.5352V10.957C17.1289 10.8275 17.0764 10.7033 16.983 10.6118C16.8896 10.5202 16.7629 10.4688 16.6309 10.4688H3.68164ZM7.16797 9.00391C7.16797 8.61541 7.32539 8.24282 7.60559 7.96811C7.8858 7.69339 8.26584 7.53906 8.66211 7.53906H11.6504C12.0467 7.53906 12.4267 7.69339 12.7069 7.96811C12.9871 8.24282 13.1445 8.61541 13.1445 9.00391V9.49219H12.1484V9.00391C12.1484 8.87441 12.096 8.75021 12.0026 8.65864C11.9092 8.56707 11.7825 8.51562 11.6504 8.51562H8.66211C8.53002 8.51562 8.40334 8.56707 8.30994 8.65864C8.21654 8.75021 8.16406 8.87441 8.16406 9.00391V9.49219H7.16797V9.00391Z" fill="#000638"/>
</g>
<defs>
<clipPath id="clip0">
<rect width="15.9375" height="15.625" fill="white" transform="translate(2.1875 6.5625)"/>
</clipPath>
</defs>
</svg>
