<?xml version="1.0" encoding="UTF-8"?>
<svg width="15px" height="14px" viewBox="0 0 15 14" version="1.1" xmlns="http://www.w3.org/2000/svg" xmlns:xlink="http://www.w3.org/1999/xlink">
    <title>040150F6-F7C1-4311-8236-6365E6700126</title>
    <g id="Page-entreprise" stroke="none" stroke-width="1" fill="none" fill-rule="evenodd">
        <g id="Page-de-resultats-v1-Copy" transform="translate(-201.000000, -546.000000)" fill="#000000" fill-rule="nonzero">
            <g id="Group-3" transform="translate(84.000000, 453.000000)">
                <path d="M129.902208,95.1262754 L127.236593,95.1262754 L127.236593,94.0323221 C127.236593,93.4622338 126.763407,93 126.179811,93 L122.804416,93 C122.22082,93 121.747634,93.4622338 121.747634,94.0323221 L121.747634,95.1262754 L119.082019,95.1262754 C117.930599,95.1262754 117,96.0353352 117,97.1601041 L117,104.201465 C117,105.326234 117.930599,106.235294 119.082019,106.235294 L129.917981,106.235294 C131.069401,106.235294 132,105.326234 132,104.201465 L132,97.1601041 C131.984227,96.0353352 131.053628,95.1262754 129.902208,95.1262754 Z M122.294118,94.0446247 C122.294118,93.9533469 122.394548,93.8823529 122.523673,93.8823529 L125.593974,93.8823529 C125.723099,93.8823529 125.823529,93.9533469 125.823529,94.0446247 L125.823529,94.7647059 L122.294118,94.7647059 L122.294118,94.0446247 Z M119.131253,95.6470588 L129.853457,95.6470588 C130.540178,95.6470588 131.117647,96.1854437 131.117647,96.8584247 L131.117647,98.3838485 C129.66617,98.8025922 127.964976,99.0717846 126.185745,99.1764706 L126.185745,98.8474576 C126.185745,98.4137587 125.811171,98.0548355 125.358559,98.0548355 L123.641758,98.0548355 C123.189147,98.0548355 122.814572,98.4137587 122.814572,98.8474576 L122.814572,99.1764706 C121.035342,99.0717846 119.334148,98.8025922 117.88267,98.3838485 L117.88267,96.8584247 C117.867063,96.1854437 118.428925,95.6470588 119.131253,95.6470588 Z M125.823529,99.2283737 L125.823529,100.906574 C125.823529,100.923875 125.807913,100.941176 125.792296,100.941176 L124.058824,100.906574 L124.090057,99.1764706 L125.823529,99.2283737 Z M129.853427,105.352941 L119.146573,105.352941 C118.459836,105.352941 117.882353,104.770865 117.882353,104.043271 L117.882353,99.1764706 C119.349473,99.6130274 121.0351,99.8878965 122.814373,100.001078 L122.814373,100.389128 C122.814373,100.858023 123.188957,101.246073 123.641579,101.246073 L125.327206,101.246073 C125.779828,101.246073 126.154412,100.858023 126.154412,100.389128 L126.154412,100.001078 C127.949292,99.8878965 129.650527,99.6130274 131.117647,99.1764706 L131.117647,104.059439 C131.117647,104.770865 130.555771,105.352941 129.853427,105.352941 Z" id="Shape"></path>
            </g>
        </g>
    </g>
</svg>