<svg width="17" height="17" viewBox="0 0 17 17" fill="none" xmlns="http://www.w3.org/2000/svg">
<g clip-path="url(#clip0)">
<path fill-rule="evenodd" clip-rule="evenodd" d="M8.21429 16.5714C8.21429 16.5714 14.375 10.7331 14.375 6.30357C14.375 4.66964 13.7259 3.10264 12.5706 1.94728C11.4152 0.791926 9.84821 0.142853 8.21429 0.142853C6.58037 0.142853 5.01336 0.791926 3.85801 1.94728C2.70265 3.10264 2.05357 4.66964 2.05357 6.30357C2.05357 10.7331 8.21429 16.5714 8.21429 16.5714ZM8.21429 9.38392C9.03125 9.38392 9.81475 9.05939 10.3924 8.48171C10.9701 7.90403 11.2946 7.12053 11.2946 6.30357C11.2946 5.48661 10.9701 4.7031 10.3924 4.12543C9.81475 3.54775 9.03125 3.22321 8.21429 3.22321C7.39733 3.22321 6.61383 3.54775 6.03615 4.12543C5.45847 4.7031 5.13393 5.48661 5.13393 6.30357C5.13393 7.12053 5.45847 7.90403 6.03615 8.48171C6.61383 9.05939 7.39733 9.38392 8.21429 9.38392Z" fill="#000638"/>
</g>
<defs>
<clipPath id="clip0">
<rect width="16.4286" height="16.4286" fill="white" transform="translate(0 0.142853)"/>
</clipPath>
</defs>
</svg>
