<svg width="25" height="25" viewBox="0 0 25 25" fill="none" xmlns="http://www.w3.org/2000/svg">
<path d="M17.1163 14.0908C20.5681 14.0908 23.3663 11.2925 23.3663 7.84076C23.3663 4.38898 20.5681 1.59076 17.1163 1.59076C13.6645 1.59076 10.8663 4.38898 10.8663 7.84076C10.8663 11.2925 13.6645 14.0908 17.1163 14.0908Z" fill="#FE5455"/>
<path d="M14.4531 9.0625C14.4531 9.9949 14.0827 10.8891 13.4234 11.5484C12.7641 12.2077 11.8699 12.5781 10.9375 12.5781C10.0051 12.5781 9.11089 12.2077 8.45158 11.5484C7.79227 10.8891 7.42188 9.9949 7.42188 9.0625C7.42188 8.1301 7.79227 7.23589 8.45158 6.57658C9.11089 5.91727 10.0051 5.54688 10.9375 5.54688C11.8699 5.54688 12.7641 5.91727 13.4234 6.57658C14.0827 7.23589 14.4531 8.1301 14.4531 9.0625Z" fill="#000638"/>
<path d="M10.3516 9.0625H11.5234V19.6094C11.5234 19.7648 11.4617 19.9138 11.3518 20.0237C11.2419 20.1336 11.0929 20.1953 10.9375 20.1953C10.7821 20.1953 10.6331 20.1336 10.5232 20.0237C10.4133 19.9138 10.3516 19.7648 10.3516 19.6094V9.0625Z" fill="#000638"/>
<path fill-rule="evenodd" clip-rule="evenodd" d="M9.1668 18.5488C9.19951 18.7006 9.17061 18.8592 9.08645 18.9897C9.00229 19.1203 8.86976 19.212 8.71797 19.2449C8.05586 19.389 7.54258 19.5871 7.21094 19.798C6.85703 20.023 6.83594 20.1742 6.83594 20.1953C6.83594 20.2105 6.8418 20.2949 7.00703 20.4414C7.17109 20.5867 7.44297 20.7461 7.82852 20.889C8.59609 21.1773 9.69531 21.3672 10.9375 21.3672C12.1797 21.3672 13.2789 21.1773 14.0465 20.889C14.432 20.7449 14.7027 20.5867 14.868 20.4414C15.032 20.2949 15.0391 20.2105 15.0391 20.1953C15.0391 20.1742 15.018 20.023 14.6641 19.798C14.3324 19.5871 13.8191 19.3879 13.157 19.2449C13.0804 19.2301 13.0074 19.2001 12.9425 19.1567C12.8776 19.1134 12.822 19.0574 12.779 18.9923C12.736 18.9271 12.7065 18.854 12.6921 18.7772C12.6778 18.7005 12.6789 18.6216 12.6955 18.5453C12.7121 18.469 12.7437 18.3968 12.7886 18.3329C12.8334 18.269 12.8906 18.2147 12.9567 18.1732C13.0229 18.1317 13.0967 18.1039 13.1737 18.0913C13.2508 18.0787 13.3296 18.0817 13.4055 18.1C14.1438 18.2605 14.8035 18.4984 15.2922 18.8101C15.7609 19.1066 16.2109 19.566 16.2109 20.1953C16.2109 20.6664 15.9543 21.0437 15.6449 21.3179C15.3355 21.5933 14.9207 21.8136 14.4578 21.9859C13.5285 22.3351 12.284 22.539 10.9375 22.539C9.59102 22.539 8.34766 22.3351 7.41719 21.9871C6.9543 21.8137 6.53945 21.5933 6.23008 21.3179C5.9207 21.0437 5.66406 20.6664 5.66406 20.1953C5.66406 19.566 6.11406 19.1066 6.58164 18.8101C7.07148 18.4984 7.73008 18.2594 8.46953 18.1C8.54479 18.0836 8.62253 18.0822 8.69832 18.0959C8.77411 18.1096 8.84645 18.1382 8.91121 18.1798C8.97597 18.2215 9.03188 18.2756 9.07574 18.3389C9.11959 18.4022 9.15053 18.4735 9.1668 18.5488Z" fill="#000638"/>
</svg>
