<svg width="25" height="25" viewBox="0 0 25 25" fill="none" xmlns="http://www.w3.org/2000/svg">
<circle cx="17.5" cy="7.5" r="6.25" fill="#FE5455"/>
<g clip-path="url(#clip0)">
<path fill-rule="evenodd" clip-rule="evenodd" d="M12.8934 6.0125L10.9375 5L8.98165 6.0125L6.80431 6.34297L5.81759 8.31172L4.25079 9.85859L4.60939 12.0312L4.25079 14.2039L5.81759 15.7508L6.80431 17.7195L8.98165 18.05L10.9375 19.0625L12.8934 18.05L15.0707 17.7195L16.0574 15.7508L17.6242 14.2039L17.2656 12.0312L17.6242 9.85859L16.0574 8.31172L15.0707 6.34297L12.8934 6.0125ZM14.2949 7.41055L12.5254 7.14219L10.9375 6.31953L9.34962 7.14219L7.58009 7.41055L6.77853 9.01016L5.50587 10.2664L5.79767 12.0312L5.5047 13.7961L6.77853 15.0523L7.58009 16.652L9.34962 16.9203L10.9375 17.743L12.5266 16.9203L14.2949 16.652L15.0965 15.0523L16.3692 13.7961L16.0785 12.0312L16.3692 10.2664L15.0965 9.01016L14.2949 7.41055Z" fill="#000638"/>
<path d="M6.25 18.8211V23.75L10.9375 22.5781L15.625 23.75V18.8211L13.2602 19.1797L10.9375 20.382L8.61484 19.1797L6.25 18.8211Z" fill="#000638"/>
</g>
<defs>
<clipPath id="clip0">
<rect width="18.75" height="18.75" fill="white" transform="translate(1.5625 5)"/>
</clipPath>
</defs>
</svg>
