<?xml version="1.0" encoding="UTF-8"?>
<svg width="14px" height="15px" viewBox="0 0 14 15" version="1.1" xmlns="http://www.w3.org/2000/svg" xmlns:xlink="http://www.w3.org/1999/xlink">
    <title>711AAA69-600C-4664-B493-70F51D5DF3C0</title>
    <g id="Page-entreprise" stroke="none" stroke-width="1" fill="none" fill-rule="evenodd">
        <g id="Page-de-resultats-v1-Copy" transform="translate(-202.000000, -516.000000)" fill="#000000" fill-rule="nonzero">
            <g id="liste-de-structures" transform="translate(84.000000, 453.000000)">
                <g id="noun_first-class-operations_1827513" transform="translate(118.000000, 63.000000)">
                    <path d="M10.250605,2.74941181 C9.33752112,1.83613313 8.12347813,1.33333333 6.83219542,1.33333333 C5.54082075,1.33333333 4.32677778,1.83613315 3.41369388,2.74941181 C1.52876871,4.63426745 1.52876871,7.70145666 3.41369388,9.5863123 C4.35620244,10.5288321 5.59415296,11 6.83219542,11 C8.07014594,11 9.3081884,10.5288321 10.250605,9.5863123 C11.1637809,8.67321754 11.6666667,7.45925209 11.6666667,6.16786207 C11.6666667,4.87647204 11.1637809,3.66250659 10.250605,2.74941181 Z M9.98431188,9.32001599 C8.24623413,11.0579305 5.41806477,11.0579305 3.67998703,9.32001599 C1.94190928,7.58191757 1.94190928,4.75380654 3.67998703,3.01570813 C4.52199199,2.17360119 5.64150826,1.70997341 6.83219542,1.70997341 C8.02288258,1.70997341 9.14230689,2.17360119 9.98431186,3.01570813 C10.8263168,3.85763117 11.290031,4.97706879 11.290031,6.16786207 C11.290031,7.35865534 10.8263168,8.47809296 9.98431188,9.32001599 Z" id="Shape"></path>
                    <path d="M11.8800538,9.32175719 C13.3916333,6.98113441 13.1236536,3.81838635 11.0739018,1.77066787 C9.93088895,0.6288336 8.41112221,0 6.7946672,0 C5.17821218,0 3.65844544,0.6288336 2.5154326,1.77066787 C0.449088304,3.83488156 0.192437901,7.03259026 1.74517176,9.37857398 L0.0266735036,12.2462183 C-0.00754349275,12.3034017 -0.00891950789,12.3743311 0.0230041299,12.4327974 C0.0550195058,12.4910804 0.115564323,12.5282862 0.182163628,12.5303023 L2.90778141,12.6122284 L4.13142894,14.8885658 C4.16335258,14.9481318 4.22490648,14.9858874 4.29251487,14.987537 C4.29398262,14.987537 4.29545037,14.987537 4.29691813,14.987537 C4.36287528,14.987537 4.42415399,14.9528971 4.45809579,14.8962635 L6.1591186,12.0574858 C6.36890412,12.0792503 6.58085685,12.0909802 6.79466722,12.0909802 C7.03067736,12.0909802 7.264268,12.0759741 7.49529005,12.0495131 L9.20866262,14.9087266 C9.24260442,14.9653601 9.3038831,15 9.36984028,15 C9.37130803,15 9.37277579,15 9.37424354,15 C9.44185193,14.9983505 9.50340582,14.9605948 9.53532946,14.9010288 L10.758977,12.6248747 L13.484503,12.5427653 C13.5511023,12.5407492 13.6116472,12.5035434 13.6436625,12.4450771 C13.6755862,12.386794 13.6742102,12.3158647 13.6399932,12.2586813 L11.8800538,9.32175719 Z M4.30581636,14.4195523 L3.18748013,12.3391413 C3.15573997,12.2799419 3.0948282,12.2421862 3.0276785,12.2401701 L0.513508928,12.1646587 L1.98386515,9.71099802 C2.14570788,9.9226864 2.32181533,10.1269061 2.51543262,10.3203123 C3.40939754,11.213344 4.53428134,11.7908134 5.75516537,12.0008522 L4.30581636,14.4195523 Z M2.78109596,10.0549229 C0.567999256,7.84401654 0.567999256,4.24696366 2.78109596,2.03605728 C3.85319797,0.965152364 5.27856983,0.375357397 6.7946672,0.375357397 C8.31076456,0.375357397 9.73613644,0.965152364 10.8082384,2.03605728 C13.0212434,4.24678039 13.0212434,7.8441998 10.8082384,10.0549229 C9.73613642,11.1258278 8.31076456,11.7156228 6.7946672,11.7156228 C5.27856983,11.7156228 3.85319795,11.1258278 2.78109596,10.0549229 Z M10.6390799,12.2528164 C10.5719302,12.2550158 10.5110184,12.2925882 10.4792783,12.3517876 L9.36094202,14.4321987 L7.89745444,11.9899013 C9.09392561,11.7709963 10.1953942,11.1979027 11.0739018,10.3203123 C11.283091,10.1113273 11.4727981,9.89024587 11.6449037,9.66006913 L13.1532495,12.1771218 L10.6390799,12.2528164 Z" id="Shape"></path>
                </g>
            </g>
        </g>
    </g>
</svg>