<svg width="25" height="25" fill="none" xmlns="http://www.w3.org/2000/svg"><circle cx="17.5" cy="7.5" r="6.25" fill="#006ADC"/><path fill-rule="evenodd" clip-rule="evenodd" d="M5 4.86a1.14 1.14 0 100 2.28 1.14 1.14 0 000-2.28zM3 6a2 2 0 114 0 2 2 0 01-4 0zm8.543.904a.603.603 0 00-.612.594v.634c0 .25-.208.452-.465.452A.459.459 0 0110 8.132v-.634C10 6.67 10.69 6 11.543 6h7.914C20.309 6 21 6.67 21 7.498v6.004c0 .827-.69 1.498-1.543 1.498h-7.914C10.691 15 10 14.33 10 13.502v-2.479c0-.25.208-.452.466-.452.257 0 .465.203.465.452v2.479c0 .328.274.594.612.594h7.914a.603.603 0 00.612-.594V7.498a.603.603 0 00-.612-.594h-7.914z" fill="#000638"/><path fill-rule="evenodd" clip-rule="evenodd" d="M3.397 8.995c-.248 0-.45.222-.45.473v3.692c.218.029.396.15.517.29.137.16.234.382.234.626v5.73c0 .119.076.199.19.199s.19-.08.19-.2v-4.001c0-.275.212-.498.474-.498h1.703c.262 0 .474.223.474.498v4.001c0 .12.076.2.19.2s.19-.08.19-.2V19.8l.03-2.847V9.559c0-.275.211-.498.473-.498h3.377a.098.098 0 00.062-.023v-.007a.059.059 0 00-.027-.034.024.024 0 00-.005-.002H6.398l-.639.697a.463.463 0 01-.345.152.464.464 0 01-.343-.16l-.61-.689H3.397zm7.655.041zM2 9.468C2 8.688 2.607 8 3.397 8h1.27c.132 0 .258.058.348.159l.41.464.431-.47A.463.463 0 016.197 8h4.821c.613 0 1.118.626.949 1.29a1.009 1.009 0 01-.978.766H8.086v6.905l-.03 2.847c0 .668-.501 1.192-1.137 1.192-.637 0-1.138-.526-1.138-1.195v-3.504h-.755v3.504c0 .67-.501 1.195-1.138 1.195-.637 0-1.137-.526-1.137-1.195v-5.662A.849.849 0 012 13.287v-3.82zm13.296 4.568a.438.438 0 01.513.127l5.066 5.974a.55.55 0 01-.024.725.438.438 0 01-.66-.025l-4.257-5.02v4.67c0 .283-.209.513-.467.513S15 20.77 15 20.487v-5.974c0-.21.117-.4.296-.477z" fill="#000638"/><path fill-rule="evenodd" clip-rule="evenodd" d="M15.851 14.138a.55.55 0 01.024.725l-5.066 5.974a.438.438 0 01-.66.025.55.55 0 01-.024-.725l5.066-5.974a.438.438 0 01.66-.025z" fill="#000638"/></svg>