<svg width="25" height="25" fill="none" xmlns="http://www.w3.org/2000/svg"><circle cx="14.25" cy="7.25" r="6.25" fill="#FE5455"/><path d="M20.26 14.119a.417.417 0 01.043.831l-.042.002h-1.542l-.002.018a.501.501 0 01-.46.432l-.05.002a.872.872 0 01-.371-.095l-.043-.021-.057-.001c-1.012-.018-1.787.043-2.316.176l-.078.02c-.759.211-1.433.5-2.025.837-.374.212-.857.327-1.456.354l-.13.005-2.51-.001-.41-.008h-.148l-.076.002-.061.003a.778.778 0 00-.049.006l-.041.009.001.003.002.017-.002.1-.006.115-.016.231a5.14 5.14 0 00-.008.131l-.003.109c0 .065.002.117.008.159l.005.03.138.012.185.014.202.013.337.017.377.014.432.01h3.449l.006.834-.727.009-.897.006h-.51l-.602-.003-.373-.005-.382-.007H8.564a1.1 1.1 0 01-.516-.116l-.01-.006a3.089 3.089 0 01-.427-.083l-.034-.01c-.772-.247-1.945-.806-2.594-1.212l-.089-.057c-.465-.304-.89-.327-1-.113-.198.38-.186.643-.003.984a.186.186 0 00.06.052l.059.034.035.018.083.041.097.045.112.048.19.078.14.055.229.086.33.12.352.122.364.12.275.088.182.056.355.105.255.072c.175.047.373.12.623.227l.317.14.827.383.133.06.249.11.23.099c.111.046.217.088.322.128.307.117.584.204.836.261 1.442.326 2.471.35 3.665.006a18.872 18.872 0 001.895-.678l.338-.141c.057-.024.115-.05.174-.074l.356-.156.369-.166.465-.214h.083v-.928h.834v1.846h2.698c.215 0 .393.164.414.375l.002.042a.417.417 0 01-.374.415l-.042.002h-3.531v-.873l-.013.007c-.48.22-.933.42-1.358.595l-.358.146-.174.069-.337.129c-.387.144-.745.266-1.077.366l-.134.039c-1.345.388-2.511.36-4.079.006a7.084 7.084 0 01-.948-.295c-.187-.07-.377-.149-.585-.24l-.26-.115-1.08-.497-.175-.077-.156-.065a5.245 5.245 0 00-.138-.053l-.122-.043a2.15 2.15 0 00-.107-.032l-.23-.063-.343-.098-.227-.068-.223-.068-.22-.07-.216-.071-.21-.072-.205-.073-.198-.073a15.157 15.157 0 01-.096-.036l-.185-.074-.177-.074a8.631 8.631 0 01-.085-.037l-.162-.073-.152-.074c-.363-.183-.618-.362-.706-.526-.307-.574-.332-1.125-.002-1.762.398-.769 1.326-.74 2.132-.241l.065.041c.486.318 1.433.785 2.156 1.058l.063.023v-.059l.004-.076.029-.449.002-.055v-.05c0-.408.203-.696.565-.81l.073-.021a1.24 1.24 0 01.071-.016l.075-.012.082-.009.093-.005.108-.002h.126l.511.01h2.412c.524-.012.919-.1 1.184-.25a9.768 9.768 0 012.214-.915c.62-.171 1.49-.245 2.62-.227l.274.006.007.005.013-.018a.911.911 0 01.382-.28l.061-.023.068-.024h1.717z" fill="#000638"/><path fill-rule="evenodd" clip-rule="evenodd" d="M12.412 3.296a7.75 7.75 0 00-6.998 12.42.417.417 0 00.661-.507 6.917 6.917 0 016.247-11.085.417.417 0 10.09-.828zM19.314 11a7.752 7.752 0 00-5.041-7.264.417.417 0 00-.292.781 6.919 6.919 0 014.027 9.002.417.417 0 10.777.303c.348-.891.53-1.845.53-2.822z" fill="#000638"/><path fill-rule="evenodd" clip-rule="evenodd" d="M11.148 7.167a1.25 1.25 0 112.5 0 1.25 1.25 0 01-2.5 0zm1.666 0a.417.417 0 10-.833 0 .417.417 0 00.833 0zm-1.817 1.988a.417.417 0 10-.209-.806 3.084 3.084 0 00-1.861 4.583.417.417 0 00.712-.433 2.251 2.251 0 011.358-3.344zm3.55 2.958a.417.417 0 00-.806-.21 2.251 2.251 0 01-3.306 1.377.417.417 0 10-.419.72 3.084 3.084 0 004.532-1.888z" fill="#000638"/><path d="M10.617 9.63l1.742-1.587.235 2.456h1.731l.989 1.225v.855a.417.417 0 01-.831.042l-.003-.042v-.56l-.553-.686h-2.09l-.149-1.552-.51.466a.417.417 0 01-.557.004l-.032-.032a.417.417 0 01-.004-.556l.031-.032z" fill="#000638"/><circle cx="19.564" cy="19" fill="#000638" r=".333"/></svg>