<svg xmlns="http://www.w3.org/2000/svg" width="16" height="15" fill="none"><path fill="currentColor" fill-rule="evenodd" d="M8.073 15s5.574-5.33 5.574-9.375a5.652 5.652 0 00-1.633-3.977A5.548 5.548 0 008.074 0a5.548 5.548 0 00-3.942 1.648A5.652 5.652 0 002.5 5.625C2.5 9.669 8.073 15 8.073 15zm0-6.563c.74 0 1.448-.296 1.97-.823a2.826 2.826 0 00.817-1.989c0-.746-.293-1.461-.816-1.989a2.774 2.774 0 00-1.97-.824c-.74 0-1.448.297-1.971.824a2.826 2.826 0 00-.816 1.989c0 .746.293 1.461.816 1.989a2.774 2.774 0 001.97.824z" clip-rule="evenodd"/></svg>
