<svg width="26" height="25" fill="none" xmlns="http://www.w3.org/2000/svg"><circle cx="19.25" cy="6.25" r="6.25" fill="#FE5455"/><g fill="#000638"><path fill-rule="evenodd" clip-rule="evenodd" d="M13.482 2.657a.417.417 0 10-.524-.648C8.87 5.32 6.804 8.704 6.804 12.167c0 .835.12 1.656.362 2.46a.417.417 0 10.798-.24 7.678 7.678 0 01-.327-2.22c0-3.174 1.934-6.344 5.846-9.51zM8.88 16.134l-.072-.105a.417.417 0 10-.69.468l.044.064.097.135.108.144.058.076.125.157.136.166.147.175.077.09.164.188.175.197.186.206.197.214.209.224.22.232.35.365.376.385.264.268.382.382.532.526.568.556.4.386a.417.417 0 10.578-.6l-.69-.669-.638-.628-.358-.358-.34-.342-.425-.434-.2-.207-.286-.299-.266-.284-.248-.268-.155-.171-.147-.165-.205-.234-.186-.219-.114-.137-.105-.131-.098-.125-.089-.117-.08-.111z"/><path fill-rule="evenodd" clip-rule="evenodd" d="M19.18 12.667c0-3.49-1.734-6.816-5.172-9.972a.417.417 0 10-.563.614c3.277 3.01 4.901 6.125 4.901 9.358 0 .605-.057 1.186-.17 1.741a.417.417 0 10.816.167 9.523 9.523 0 00.187-1.908zm-.875 3.856a.417.417 0 00-.724-.411c-.01.015-.018.03-.027.046l-.06.096a4.107 4.107 0 01-.07.104l-.079.11-.088.115-.097.123-.106.128-.116.136-.124.141-.134.148-.143.154-.152.16-.16.167-.085.086-.265.267-.188.185-.3.29-.319.304-.34.317-.36.332-.251.229-.394.354-.273.243a.417.417 0 10.553.624l.282-.252.536-.483.5-.46.236-.22.337-.318.213-.205.203-.199.289-.286.268-.273.085-.088.162-.172.154-.165.144-.16.136-.153.126-.147.117-.142.109-.135.099-.13.09-.124c.057-.08.108-.157.153-.23l.063-.106z"/><path d="M13.394 7.727c.216 0 .393.164.415.374l.002.043v14.71a.417.417 0 01-.831.043l-.003-.043V8.144c0-.23.187-.417.417-.417z"/><path d="M15.32 9.389a.417.417 0 01.65.52l-.029.035-2.236 2.5a.417.417 0 01-.65-.52l.029-.035 2.236-2.5zm-4.897 2.141a.417.417 0 01.556-.014l.033.03 2.684 2.834a.417.417 0 01-.572.604l-.033-.03-2.684-2.834a.417.417 0 01.016-.59zm5.361 1.842a.417.417 0 01.62.556l-.031.033-2.858 2.856a.417.417 0 01-.62-.556l.03-.034 2.859-2.855zm-5.372 2.336a.417.417 0 01.555-.036l.034.03 2.684 2.63a.417.417 0 01-.549.625l-.034-.03-2.684-2.63a.417.417 0 01-.006-.589z"/><path fill-rule="evenodd" clip-rule="evenodd" d="M3.916 7.5a1.25 1.25 0 112.5 0 1.25 1.25 0 01-2.5 0zm1.667 0a.417.417 0 10-.834 0 .417.417 0 00.834 0zm0 12a1.25 1.25 0 112.5 0 1.25 1.25 0 01-2.5 0zm1.667 0a.417.417 0 10-.834 0 .417.417 0 00.834 0zM18.583 6.167a1.25 1.25 0 112.5 0 1.25 1.25 0 01-2.5 0zm1.667 0a.417.417 0 10-.834 0 .417.417 0 00.834 0z"/></g></svg>