<svg width="25" height="26" fill="none" xmlns="http://www.w3.org/2000/svg"><circle cx="17.813" cy="8.125" r="6.25" fill="#FE5455"/><path d="M18.5 8.5c.46 0 .834.373.834.833V21c0 .46-.374.833-.834.833H6.38L2.666 24.75V9.333c0-.46.373-.833.833-.833h15zm-.833 1.667H4.334V21.32l1.469-1.154h11.864v-10zm-7.904 2.01l.372.573c-1.39.752-1.366 1.96-1.366 2.22.13-.017.265-.02.4-.008.752.07 1.345.688 1.345 1.455a1.46 1.46 0 01-1.459 1.458 1.61 1.61 0 01-1.145-.492c-.429-.455-.66-.966-.66-1.795 0-1.459 1.024-2.765 2.513-3.411zm4.167 0l.372.573c-1.39.752-1.366 1.96-1.366 2.22.13-.017.265-.02.4-.008.752.07 1.344.688 1.344 1.455 0 .805-.653 1.458-1.458 1.458a1.61 1.61 0 01-1.145-.492c-.43-.455-.66-.966-.66-1.795 0-1.459 1.023-2.765 2.513-3.411z" fill="#000"/></svg>