<svg width="25" height="25" fill="none" xmlns="http://www.w3.org/2000/svg"><circle cx="15.265" cy="6.25" r="6.25" fill="#FE5455"/><path d="M13.168 3.238a.415.415 0 01.042.828l-.042.002H3.785v17.098l10.207-.11a.415.415 0 01.417.369l.002.042a.415.415 0 01-.368.417l-.042.003L3.373 22a.415.415 0 01-.417-.372l-.002-.043V3.653c0-.215.163-.392.372-.413l.043-.002h9.798z" fill="#000638"/><path fill-rule="evenodd" clip-rule="evenodd" d="M17.398 3.61a.415.415 0 00-.413-.372H15.49l-.043.002a.415.415 0 00-.373.413l.003.042c.02.21.198.373.413.373h1.079v6.983l.002.042a.415.415 0 00.828-.042V3.653l-.002-.043zm0 13.819a.415.415 0 00-.413-.373l-.043.002a.415.415 0 00-.372.413v3.65h-1.08l-.042.003a.415.415 0 00.042.828h1.495l.042-.002a.415.415 0 00.373-.413v-4.066l-.002-.042zM7.936 6.808a2.242 2.242 0 114.483 0 2.242 2.242 0 01-4.483 0zm3.652 0a1.411 1.411 0 10-2.822 0 1.411 1.411 0 002.822 0z" fill="#000638"/><path d="M14.992 9.547a.415.415 0 01.043.828l-.043.002h-8.8a.415.415 0 01-.042-.828l.042-.002h8.8zm-4.815 1.329a.415.415 0 01.042.828l-.042.002H5.03a.415.415 0 01-.043-.828l.043-.002h5.147zm3.487.996a.415.415 0 01.042.828l-.042.002H8.35a.415.415 0 01-.043-.828l.043-.002h5.313zM9.347 13.2a.415.415 0 01.042.828l-.042.002H5.03a.415.415 0 01-.043-.828l.043-.002h4.317zm9.415-1.6a.415.415 0 01.57.14l.154.25.146.233.07.11.137.205c.089.132.173.251.252.359l.115.152a3.48 3.48 0 00.376.416l.071.058c.006.005.005.008-.004.009h-.012H21.8a.415.415 0 01.042.828l-.042.002h-1.163c-.367 0-.756-.331-1.263-1.033l-.114-.162-.119-.175-.122-.187-.063-.098-.13-.205-.135-.219a41.16 41.16 0 01-.069-.114.415.415 0 01.14-.57zm-1.777 1.6a.415.415 0 01.042.828l-.042.002h-2.99c-.012 0-.018.003-.016.04l.008.07.011.074c.014.09.044.181.08.256l.023.043.31-.053c1.056-.173 2.018-.097 3.092.445.911.459 1.216.84 1.425 1.526l.022.075c.071.25.111.32.256.416.378.25 1.121.431 2.21.521l.269.02.139.009a.415.415 0 11-.048.829c-1.45-.084-2.45-.304-3.028-.687-.323-.214-.458-.429-.574-.803l-.057-.192c-.141-.44-.32-.637-.987-.973-.857-.432-1.618-.508-2.468-.385l-.406.068c-.116.02-.188.03-.26.03-.441 0-.734-.49-.818-1.015-.094-.591.148-1.108.754-1.142l.064-.002h2.989z" fill="#000638"/><path d="M19.172 8.891a.415.415 0 01.57-.036l.034.032.913.954a.415.415 0 01.026.544l-.029.033-3.071 3.155a.415.415 0 01-.625-.545l.03-.035 2.792-2.867-.332-.347-3.52 3.787a.415.415 0 01-.551.05l-.035-.029a.415.415 0 01-.05-.552l.029-.034 3.819-4.11zm-3.838 5.792a.415.415 0 01.673.484l-.027.037-1.66 2.063a.418.418 0 01-.1.089l-.039.022-2.324 1.157c-.37.184-.743-.223-.55-.57l.021-.034 1.286-1.9.713-.997a.415.415 0 01.7.445l-.025.038-.706.987-.395.584.83-.414 1.603-1.99z" fill="#000638"/><path d="M17.284 11.15a.415.415 0 01.065.829l-.394.032-.48.043-.429.044-.287.034-.257.033-.226.033-.134.022-.12.022-.107.021-.092.022-.078.021a1.279 1.279 0 00-.034.01l-.057.022c-.005.002-.007.003-.01.017l-.002.033-.001.026c-.01.154.044.399.166.723a.415.415 0 11-.777.293c-.352-.933-.314-1.6.304-1.858.061-.026.136-.05.225-.075l.114-.028.127-.028.141-.027.076-.014.162-.027.176-.026.29-.038.324-.038.233-.024.378-.037.556-.047.148-.012z" fill="#000638"/><path fill-rule="evenodd" clip-rule="evenodd" d="M15.012 15.343l.05-.182c.218-.758 1.79-.981 2.468-.573.306.183.63.608 1.01 1.295l.11.203.056.107.115.225a.415.415 0 01-.34.6l-2.128.166a.415.415 0 01-.298-.095l-.996-.83a.415.415 0 01-.15-.32c0-.143.035-.337.103-.596zm2.504.444c-.16-.244-.292-.403-.39-.473l-.023-.015c-.162-.097-.556-.09-.858-.042l-.108.02c-.154.03-.266.073-.277.113l-.044.158-.034.135-.018.083.692.577 1.331-.104-.038-.069a9.04 9.04 0 00-.05-.085l-.094-.158-.09-.14z" fill="#000638"/></svg>