<svg width="25" height="25" fill="none" xmlns="http://www.w3.org/2000/svg"><path d="M16.217 15.357a6.245 6.245 0 006.24-6.25 6.245 6.245 0 00-6.24-6.25 6.245 6.245 0 00-6.24 6.25 6.245 6.245 0 006.24 6.25z" fill="#FE5455"/><g clip-path="url(#clip0)"><path fill-rule="evenodd" clip-rule="evenodd" d="M8.214 23.571s6.16-5.838 6.16-10.267a6.16 6.16 0 10-12.32 0c0 4.43 6.16 10.267 6.16 10.267zm0-7.187a3.08 3.08 0 100-6.16 3.08 3.08 0 000 6.16z" fill="#000638"/></g><defs><clipPath id="clip0"><path fill="#fff" transform="translate(0 7.143)" d="M0 0h16.429v16.429H0z"/></clipPath></defs></svg>