<svg width="25" height="25" fill="none" xmlns="http://www.w3.org/2000/svg"><circle cx="15.25" cy="8.25" r="6.25" fill="#FE5455"/><path fill-rule="evenodd" clip-rule="evenodd" d="M11.915 4.29a.417.417 0 00-.831.043V12l.002.043a.417.417 0 00.831-.043V4.333l-.002-.042zm1.667 0a.417.417 0 00-.831.043V12l.002.043a.417.417 0 00.831-.043V4.333l-.002-.042z" fill="#000638"/><path d="M12.247 2.917c.713 0 1.317.53 1.353 1.23l.001.066v.11l1.274-.893.428.203.288.14.174.086.16.082.147.078.134.075.122.071.056.035.104.067c.325.221.457.408.457.631a.417.417 0 01-.781.202l-.021-.044-.04-.033-.066-.047-.082-.054-.11-.066-.14-.08-.16-.088-.18-.094a15.327 15.327 0 00-.097-.05l-.312-.153-2.188 1.535V4.213c0-.254-.23-.463-.52-.463-.292 0-.61.242-.642.432l-.003.031v1.774L9.599 4.4l-.063.031c-1.397.7-2.305 1.4-2.726 2.075l-.042.07c-.054.094-.11.198-.166.31l-.086.177c-.029.06-.058.124-.088.19l-.09.204-.092.219-.095.232-.096.247-.048.128-.1.268-.1.281-.104.295-.105.31-.16.49-.11.344-.168.542-.147.484H4c-.169 0-.235.058-.247.313l-.001.043.005.013c.068.18.136.319.199.412l.027.037.025.032c.011.015.011.02.001.02h10.908a.417.417 0 01.043.832l-.043.002H4c-.464 0-.774-.377-1.027-1.051l-.031-.086-.024-.067v-.07c-.003-.75.355-1.23 1.013-1.262L4 10.463h.396l.141-.453.113-.353.111-.34.055-.165.108-.319.107-.305.105-.29.103-.278.101-.263.1-.25.098-.236.048-.112.095-.215.094-.202.092-.187c.046-.09.09-.175.135-.255l.045-.079c.513-.893 1.602-1.734 3.264-2.548l.163-.078.234-.113 1.062.841v-.05c0-.678.702-1.26 1.412-1.295l.066-.001z" fill="#000638"/><path d="M17.505 12.168h2.97l.116-.001.05-.002.084-.006c.161-.016.193-.057.203-.153l.005-.062v-.309l-.003-.12-.002-.035a.979.979 0 00-.02-.15l-.01-.033H19.21l.02-.576.005-.277c.008-.854-.063-1.488-.205-1.892-.171-.487-.448-.999-.832-1.533a.417.417 0 01.677-.486c.428.595.742 1.176.941 1.743.168.477.25 1.14.253 1.996l-.002.191h.855c.544 0 .781.37.832.898l.005.062.006.114.001.134v.277l-.002.066-.003.034c-.046.581-.432.929-1.203.952l-.084.001h-2.003l-.047.277a33.595 33.595 0 01-.306 1.532c-.341 1.52-.745 2.806-1.221 3.7-1.172 2.199-2.895 3.63-4.65 3.63-1.702 0-3.575-1.518-4.834-3.612-.75-1.25-1.2-3.218-1.368-5.918a.417.417 0 01.831-.051c.16 2.577.584 4.428 1.252 5.54 1.123 1.87 2.775 3.207 4.12 3.207 1.386 0 2.871-1.233 3.913-3.189.433-.81.818-2.038 1.144-3.49.092-.41.175-.816.247-1.205l.075-.421h-.122v-.833z" fill="#000638"/><path d="M10.885 18.811a.417.417 0 01.58.1c.183.257.43.38.783.38.227 0 .437-.076.625-.206.115-.078.193-.155.225-.195a.417.417 0 11.65.522c-.08.1-.214.231-.403.36a1.916 1.916 0 01-1.097.352c-.619 0-1.12-.249-1.462-.732a.417.417 0 01.1-.581zm-1.086-4.947c.688-.231 1.286-.231 1.778.025a.417.417 0 01-.344.758l-.041-.019c-.267-.139-.638-.139-1.129.026-.51.17-.856.403-1.053.69a.417.417 0 01-.687-.472c.31-.45.806-.784 1.476-1.008zm3.065-.018c.68-.093 1.281-.054 1.8.123.712.243 1.268.598 1.452.943a.417.417 0 01-.735.392c-.027-.05-.122-.13-.267-.218l-.104-.06a3.963 3.963 0 00-.616-.269c-.386-.131-.857-.162-1.417-.085a.417.417 0 11-.113-.826z" fill="#000638"/></svg>