<svg width="25" height="25" fill="none" xmlns="http://www.w3.org/2000/svg"><path fill-rule="evenodd" clip-rule="evenodd" d="M12.926 7.277a.417.417 0 00-.52-.651c-2.312 1.844-3.49 3.747-3.49 5.71 0 .477.07.945.21 1.403a.417.417 0 00.797-.243 3.958 3.958 0 01-.174-1.16c0-1.67 1.045-3.358 3.177-5.06zm-2.559 7.138l-.03-.041a.417.417 0 10-.676.488l.035.046.077.1.042.053.094.111.104.12.116.127.127.136.137.144.15.152.16.16.26.256.188.181.2.19.32.3.345.318.37.337a.417.417 0 00.56-.617l-.123-.111-.463-.425-.318-.296-.385-.366-.26-.252-.16-.158-.217-.22-.193-.202-.115-.123-.103-.115-.092-.106-.08-.098-.07-.089z" fill="#000638"/><circle cx="17.25" cy="6.25" r="6.25" fill="#FE5455"/><path fill-rule="evenodd" clip-rule="evenodd" d="M16.083 12.331c0-1.897-1.065-3.689-3.155-5.371a.417.417 0 10-.523.65c1.91 1.536 2.845 3.109 2.845 4.721 0 .3-.032.586-.096.859a.417.417 0 00.812.189c.078-.336.117-.686.117-1.048zm-.403 2.185a.417.417 0 10-.693-.463 1.632 1.632 0 01-.111.145l-.073.083-.086.091-.097.098-.11.106-.12.112-.133.12-.145.126-.156.134-.168.14-.18.147-.19.154-.309.244-.334.259-.36.273a.417.417 0 00.503.666l.256-.195.243-.187.232-.18.22-.173.208-.167.29-.237.262-.223.16-.14.148-.133.137-.127.125-.121.114-.114.101-.108.09-.102c.071-.083.13-.159.176-.228z" fill="#000638"/><path d="M12.75 9.535c.215 0 .393.163.414.374l.002.042v8a.417.417 0 01-.83.043l-.003-.043v-8c0-.23.187-.416.417-.416z" fill="#000638"/><path d="M13.705 10.657a.417.417 0 01.62.555l-.03.034-1.334 1.333a.417.417 0 01-.62-.555l.031-.034 1.333-1.333z" fill="#000638"/><path d="M11.072 11.626a.417.417 0 01.556.031l.03.034 1.333 1.667a.417.417 0 01-.62.554l-.03-.034-1.334-1.667a.417.417 0 01.065-.585z" fill="#000638"/><path d="M13.675 12.69a.417.417 0 01.677.485l-.027.036-1.333 1.667a.417.417 0 01-.677-.483l.026-.037 1.334-1.667z" fill="#000638"/><path d="M11.038 13.99a.417.417 0 01.556-.03l.033.03 1.334 1.333a.416.416 0 01-.556.62l-.034-.03-1.333-1.334a.417.417 0 010-.59z" fill="#000638"/><path fill-rule="evenodd" clip-rule="evenodd" d="M12.987 3.548a8.917 8.917 0 00-3.586 17.267l.29-.782-.125-.047a8.086 8.086 0 013.596-15.591l.068-.831-.243-.016zm8.43 8.903a8.92 8.92 0 00-5.764-8.343l-.295.78.126.048a8.086 8.086 0 01-3.326 15.591l-.034.833.187.006.189.002a8.917 8.917 0 008.916-8.917z" fill="#000638"/><path d="M11.726 1.685a.417.417 0 01.556.01l.032.032L14.28 3.99 11.9 6.087a.417.417 0 01-.583-.594l.032-.031 1.758-1.55-1.424-1.639a.417.417 0 01.01-.556l.032-.032zm1.764 17.253a.417.417 0 01.559.617l-.034.03L12.267 21l1.573 1.768c.143.16.14.401-.002.557l-.032.032a.417.417 0 01-.556-.002l-.032-.033-2.153-2.42 2.426-1.964z" fill="#000638"/></svg>