<svg width="25" height="25" fill="none" xmlns="http://www.w3.org/2000/svg"><circle cx="17.5" cy="7.5" r="6.25" fill="#006ADC"/><path fill-rule="evenodd" clip-rule="evenodd" d="M4.043 6.42C4.043 5.081 5.055 4 6.306 4c.444 0 .832.129 1.181.346a.44.44 0 01.085.07l.582.623c.02.02.037.044.053.068.243.39.361.842.361 1.312 0 1.337-1.012 2.42-2.262 2.42s-2.263-1.083-2.263-2.42zm2.263-1.523c-.787 0-1.424.68-1.424 1.522s.637 1.522 1.424 1.522c.786 0 1.423-.68 1.423-1.522 0-.292-.068-.555-.2-.78l-.51-.545a1.375 1.375 0 00-.713-.197zM4.614 9.491c-.354-.19-.775.092-.775.507v2.748a1.152 1.152 0 00.072.444l.194.57c.016.05.025.1.025.153v5.601c0 .316.242.563.526.563.295 0 .527-.258.527-.563v-2.93c0-.662.503-1.2 1.123-1.2s1.122.537 1.122 1.2v2.956c0 .316.242.563.527.563.295 0 .526-.259.526-.563v-5.393c0-.061.012-.121.034-.177l.148-.369c.074-.178.11-.35.11-.544 0-.247.187-.448.419-.448.231 0 .42.2.42.448 0 .324-.062.618-.181.906l-.11.276v5.301c0 .785-.594 1.46-1.366 1.46-.734 0-1.366-.634-1.366-1.46v-2.956c0-.167-.127-.303-.283-.303-.157 0-.284.136-.284.303v2.93c0 .785-.593 1.46-1.366 1.46-.734 0-1.365-.634-1.365-1.46v-5.522l-.165-.485a2.098 2.098 0 01-.126-.76v-2.75C3 8.91 4.083 8.205 4.99 8.69l1.316.704 1.316-.704c.906-.485 1.99.22 1.99 1.309v.492c0 .248-.189.449-.42.449-.232 0-.42-.2-.42-.449v-.492c0-.415-.42-.696-.775-.507l-1.504.804a.395.395 0 01-.375 0l-1.504-.804z" fill="#000638"/><path fill-rule="evenodd" clip-rule="evenodd" d="M9.139 11.556c.26 0 .472.16.472.358v.228c0 .198-.211.358-.472.358-.26 0-.472-.16-.472-.358v-.228c0-.198.211-.358.472-.358zM11.028 4c.26 0 .472.203.472.453v16.094c0 .25-.211.453-.472.453a.463.463 0 01-.472-.453V4.453c0-.25.211-.453.472-.453zm3.724 3.238c0-.224.21-.405.47-.405h4.307c.173 0 .332.082.414.213.083.13.075.29-.02.414l-.974 1.272.972 1.25a.356.356 0 01.023.416.487.487 0 01-.415.213H13.86c-.26 0-.471-.18-.471-.404V8.734c0-.223.21-.404.471-.404h.892V7.238zm.942.404v1.092c0 .223-.21.404-.471.404h-.891v.664h4.316l-.656-.844a.357.357 0 01-.002-.446l.666-.87h-2.962z" fill="#000638"/><path fill-rule="evenodd" clip-rule="evenodd" d="M10.556 5.438c0-.273.24-.494.536-.494h4.593c.297 0 .537.221.537.494v3.735c0 .273-.24.494-.537.494h-4.593c-.296 0-.536-.221-.536-.494V5.438zm1.073.493v2.75h3.52V5.93h-3.52z" fill="#000638"/><path fill-rule="evenodd" clip-rule="evenodd" d="M13.389 9.057c0-.185.26-.335.58-.335h1.674c.222 0 .425.074.521.19.097.115.07.252-.067.353l-1.675 1.22c-.153.111-.412.154-.645.107-.232-.046-.388-.173-.388-.316V9.057z" fill="#000638"/></svg>