<svg width="44" height="31" fill="none" xmlns="http://www.w3.org/2000/svg"><path fill-rule="evenodd" clip-rule="evenodd" d="M4.012 28.07c.022.275.17.533.45.548.869.048 1.74.072 2.61.073 2.64.406 5.29.487 7.906.243a28.345 28.345 0 01-7.1.551c-1.396-.067-3.275-.289-4.417-1.556.183.05.367.096.551.141zm19.863-1.908a37.747 37.747 0 01-6.479 1.42c2.94-.5 5.784-1.264 8.46-2.321-.649.32-1.31.62-1.981.901zm10.46-8.634c.295-.281.59-.569.88-.861a29.813 29.813 0 01-9.16 7.383c-2.809 1.457-5.791 2.442-8.869 3.02a40.07 40.07 0 007.145-2.64 39.262 39.262 0 0010.003-6.902zm-.7 2.54a39.68 39.68 0 005.051-7.022c-1.209 2.698-2.995 5.04-5.05 7.023zm5.899-11.557a24.802 24.802 0 01-.163 2.578 1.868 1.868 0 00-.548-.352 41.06 41.06 0 00.71-2.226zm3.224 4.198c.065.704.136 1.41.209 2.116a.626.626 0 00-.221.076c-.003-.273-.01-.548-.015-.821l.026-1.371zM21.483 28.101c.956-.4 1.893-.847 2.811-1.337a33.228 33.228 0 001.62-.72c6.82-3.264 14.39-9.697 14.965-19.063 0 .928.034 1.862.052 2.787.052 2.807.135 5.617.241 8.428.027.71.891.788.941.095l.078-1.08a.613.613 0 00.044-.19c.023-.308.04-.616.06-.924.023.359.048.718.084 1.079.067.676.81.809.95.22a.532.532 0 00.124-.35c.012-.483.02-.966.028-1.449.324-4.362.477-8.748.437-13.163a.612.612 0 00-.16-.436c.002-.27-.157-.55-.372-.606.208-.424-.187-1.113-.607-.8-2.551 1.897-5.093 3.828-7.334 6.149a55.764 55.764 0 00-4.213 3.678c-.39.378.178 1.083.573.726.142-.13.286-.257.43-.386-.104.296.11.604.367.692-.21.23-.423.457-.633.686-.422.46.202 1.234.651.826l7.042-6.387c-.065.18-.129.36-.196.537-1.544 3.542-4.051 6.428-6.635 8.931a38.705 38.705 0 01-9.553 6.8c-5.992 3.008-12.601 4.314-19.306 3.843a46.144 46.144 0 01-2.25-.384c-.112-.022-.223.028-.31.116-.222-.031-.444-.057-.665-.091-.512-.08-.64.863-.129 1.035.324.109.65.211.975.311 1.652 3.24 5.917 3.028 8.602 2.933 3.898-.139 7.701-1.004 11.288-2.506z" fill="#000638"/></svg>