<svg width="25" height="26" fill="none" xmlns="http://www.w3.org/2000/svg"><circle cx="17.334" cy="6.25" r="6.25" fill="#FE5455"/><path fill-rule="evenodd" clip-rule="evenodd" d="M11.75 1.917a7.78 7.78 0 011.605.166.417.417 0 01-.172.816 6.917 6.917 0 10-2.267 13.635.417.417 0 11-.1.827 7.751 7.751 0 01.934-15.444zm5.006 13.125a.417.417 0 01-.054.587 7.716 7.716 0 01-4.385 1.767.417.417 0 11-.06-.831 6.883 6.883 0 003.912-1.577.417.417 0 01.587.054zM19.5 9.667a7.75 7.75 0 00-4.425-7.003.417.417 0 00-.358.753 6.917 6.917 0 013.95 6.25c0 1.597-.543 3.11-1.522 4.329a.417.417 0 10.65.522A7.718 7.718 0 0019.5 9.667z" fill="#000638"/><path fill-rule="evenodd" clip-rule="evenodd" d="M5.667 9.667a6.083 6.083 0 1112.167 0 6.083 6.083 0 01-12.167 0zm11.333 0a5.25 5.25 0 10-10.5 0 5.25 5.25 0 0010.5 0z" fill="#000638"/><path fill-rule="evenodd" clip-rule="evenodd" d="M8 6.5a.917.917 0 111.833 0A.917.917 0 018 6.5zm1 0a.083.083 0 10-.167 0A.083.083 0 009 6.5z" fill="#000638"/><path d="M10.578 5.467c.76-.344 1.488-.467 2.18-.361.72.11 1.311.486 1.755 1.11a.417.417 0 11-.679.483c-.315-.444-.71-.694-1.203-.77-.521-.08-1.09.016-1.71.297a.417.417 0 11-.343-.76z" fill="#000638"/><path fill-rule="evenodd" clip-rule="evenodd" d="M16.752 16.669l1.772-1.968a.417.417 0 01.613-.006l3.686 3.929c.574.665.574 1.406 0 2.074-.582.68-1.37.739-2.212.207a.41.41 0 01-.066-.05l-3.772-3.607a.417.417 0 01-.021-.58zm2.087-1.074l-1.198 1.33 3.448 3.296.03.018c.455.27.762.248 1.035-.043l.038-.04c.305-.356.305-.635.012-.975l-3.365-3.586z" fill="#000638"/><path fill-rule="evenodd" clip-rule="evenodd" d="M16.39 15.333l1.027.94 1.114-.94-1.114-1.083" fill="#000638"/><path d="M19.35 15.604a.417.417 0 01.661.505l-.027.036-1.71 1.997a.417.417 0 01-.66-.506l.027-.036 1.71-1.997z" fill="#000638"/></svg>