<svg width="25" height="25" fill="none" xmlns="http://www.w3.org/2000/svg"><path d="M22 12.89a.891.891 0 100 1.781.891.891 0 000-1.782z" fill="#000638"/><circle cx="17.25" cy="7.25" r="6.25" fill="#FE5455"/><path d="M2.995 8.057a.417.417 0 01.467-.217l.042.013L6.69 8.97c.153.054.26.19.276.35l.002.043v.808h.034c.56-.021.957-.081 1.18-.171l.06-.027 1.323-.684.247-.124.313-.154.193-.09.18-.083.167-.073.156-.065.145-.055c.254-.093.453-.14.607-.14.607 0 .966.402.966 1.032 0 .191-.13.357-.314.404l-.112.03-.213.058c-.856.247-1.339.515-1.438.736-.11.246-.313.485-.651.805l-.216.2-.45.408-.08.078-.048.048-.046.048a1.615 1.615 0 00-.129.15l-.02.027-.005.008v.068c.005.111.014.23.027.34l.019.13.006.035.07.02c.184.047.363.075.522.075.169 0 .294-.033.368-.09a3.25 3.25 0 00.232-.2l.112-.107.122-.12.199-.205.142-.15.073-.08c.09-.096.177-.193.263-.289l.284-.323a.417.417 0 01.31-.146l.263.018c.169.011.337.017.492.017l.106-.002.098-.003.157-.01.1-.01c.06-.043.098-.106.117-.21l.007-.048c.058-.505.783-.48.828 0l.002.047v.357l1.102.936a.415.415 0 01.075.55l-.027.037a.417.417 0 01-.551.075l-.037-.027-1.146-.974-.018.008c-.176.076-.408.103-.724.107h-.088c-.116 0-.238-.002-.36-.008l-.213-.012-.026.03a26.61 26.61 0 01-.264.296l-.137.15-.17.18-.08.086-.157.16a5.96 5.96 0 01-.58.533c-.24.182-.537.259-.872.26-.2 0-.403-.026-.608-.072l-.148-.036-.28-.084c-.264-.08-.38-.386-.423-.82l-.011-.142a4.827 4.827 0 01-.004-.074l-.005-.153-.001-.192.002-.06a.618.618 0 01.143-.374l.05-.06.027-.033.064-.069.074-.076.086-.084.099-.093.173-.16.462-.42.123-.117.055-.054.1-.102c.122-.128.204-.231.246-.31l.014-.029c.068-.15.172-.288.313-.417l.031-.027-.141.072-1.174.608-.154.077c-.348.163-.886.248-1.633.27l-.257.004h-.134a.417.417 0 01-.415-.374l-.002-.042v-.937l-2.563-.9-.333.657a.417.417 0 01-.519.201l-.041-.018a.417.417 0 01-.201-.52l.018-.04.499-.982z" fill="#000638"/><path d="M21.362 6.906a.417.417 0 01.51.194l.02.04 1.285 3.163a.417.417 0 01-.754.352l-.018-.038-1.134-2.79-2.585.946-.008.113-.005.12.001.027.001.004.042.079.09.156.119.2.046.076c.215.352-.155.76-.519.6l-.036-.017-.58-.316h-5.482a.417.417 0 01-.415-.374l-.002-.042c0-.216.164-.393.374-.415l.043-.002h5.488v-.007a3.281 3.281 0 01.036-.474l.013-.093a.417.417 0 01.227-.312l.042-.018 3.201-1.172zM2.053 11.975a.417.417 0 01.215.549l-.22.512-.186.447-.095.236-.13.336-.043.114-.036.101-.043.129-.022.07-.015.056-.01.042a.271.271 0 00-.002.017v.013a.87.87 0 01-.018.183l-.02.09-.028.115-.008.042-.006.037.008.007c.035.031.108.07.23.113l.056.018c.09.027.183.055.28.081l.196.05.237.056.55.118.754.16.204.048.043.012c.13.04.338-.07.486-.29l.045-.073.05-.093.09-.175.149-.3.273-.571.142-.303.224-.487.249-.533c.23-.49.95-.172.773.309l-.016.04-.002.002-.293.636-.112.25-.149.337-.086.2-.075.182-.062.156-.05.132a6.46 6.46 0 00-.022.06l-.036.104-.026.086-.01.033.007.036c.009.07 0 .144-.03.213l-.02.04a.416.416 0 01-.314.21l-.027.003c-.324.46-.838.732-1.342.609l-.08-.022-.183-.042-1.092-.231-.343-.077-.157-.038a9.533 9.533 0 01-.472-.132c-.627-.195-.917-.538-.875-1.014.005-.066.015-.12.032-.195l.03-.124.01-.052.002-.016c0-.037.004-.08.012-.129l.016-.079.01-.043.025-.095.03-.106.038-.117.044-.128.05-.14.122-.316.07-.176.161-.391.19-.444.104-.242a.417.417 0 01.549-.216zm16.863 2.333l-.006.066a2.32 2.32 0 01-.058.315c-.119.472-.334.763-.732.903l-.067.021.003.056.01.071.017.09c.101.528.05.832-.389 1.12-.469.307-.853.474-1.191.427l-.048-.008-.015.053c-.057.18-.131.346-.223.498l-.057.09c-.242.36-.545.466-.927.374l-.02-.006v.004a.869.869 0 01-.368.553l-.053.036c-.29.185-.553.259-.834.229l-.028-.004-.006.023c-.084.293-.361.505-.73.664l-.075.031a1.942 1.942 0 01-.438.124.709.709 0 01-.258-.005.454.454 0 01-.347-.308l-.002-.008-.037-.045-.07-.077-.09-.094-.093-.093-.11-.106-.125-.118-.213-.197-.245-.221-.277-.246a.417.417 0 11.552-.625l.495.44.205.187.178.166.105.101.094.093.084.087.074.08.033.038.06.072.014.018.053-.018.048-.018c.083-.034.162-.073.226-.112l.012-.01-.026-.032a2.48 2.48 0 00-.076-.089l-.095-.101-.055-.057-.123-.12-.14-.13-.156-.14-.173-.15-.214-.18-.209-.17-.201-.165c-.426-.35.094-.991.524-.647l.239.192.237.194.332.262.232.176.137.102.122.087.11.075.093.06.042.026.07.038c.284.149.39.16.583.045l.043-.026c.035-.023.051-.032.052-.05l-.002-.015-1.591-1.668c-.37-.389.182-.944.569-.608l.03.027.268.27.17.165.16.154.077.072.148.137.139.124.13.113.062.052.117.095.109.083c.069.052.132.096.189.131.213.134.361.203.448.22l.032.005.008-.016.01-.015c.07-.104.127-.222.171-.356l.02-.064-1.967-2.191c-.348-.387.181-.92.567-.608l.03.028 2.054 1.945.256.234c.037.033.229-.02.576-.24l.09-.058c.026-.019.034-.032.03-.08l-.008-.05-.022-.117a2.281 2.281 0 01-.041-.275l-.003-.063-.006-.004a.722.722 0 00-.107-.1l-.06-.045-.235-.163a.776.776 0 01-.075-.06.433.433 0 01-.128-.195.426.426 0 01.227-.524.461.461 0 01.209-.043c.093 0 .18.02.271.054l.1.041.083.042.193.102.032.015.054.024.034.012c.011.005.012.006.004.008.123-.036.168-.093.227-.329.046-.18.058-.36.037-.537a.417.417 0 01.364-.463l.043-.003.512-.009-.085-1.083c-.04-.498.66-.622.809-.171l.012.044.069.288.034.138.069.264c.034.127.068.249.102.364l.067.223c.112.357.223.645.331.862l.063.122c.218.415.34.475.715.475a.733.733 0 00.096-.007l.08-.014.095-.02a2.95 2.95 0 00.052-.012l.114-.03.062-.018.134-.04.147-.047.159-.053.172-.06.28-.102.203-.076.326-.127.217-.086v-.83c0-.215.164-.393.374-.414l.043-.002c.215 0 .393.164.414.374l.002.043v1.11c0 .169-.102.32-.258.385l-.394.16-.246.096-.233.09-.22.082-.207.075-.195.068-.183.06-.17.054-.159.047-.146.039c-.234.06-.42.088-.56.088-.738 0-1.126-.26-1.523-1.06a4.922 4.922 0 01-.158-.354l-.046-.12-.542.01z" fill="#000638"/><path d="M5.341 14.384a.417.417 0 01.52-.203l.039.017 1.265.633a.417.417 0 01-.334.762l-.039-.017-1.265-.633a.417.417 0 01-.186-.559zm11.571-2.399a.417.417 0 01.41.724l-.037.02-1.265.633a.417.417 0 01-.41-.724l.037-.021 1.265-.633z" fill="#000638"/><path fill-rule="evenodd" clip-rule="evenodd" d="M6.246 15.836c0-.558.369-1.05.891-1.05.523 0 .891.492.891 1.05 0 .557-.368 1.049-.89 1.049-.523 0-.892-.492-.892-1.05zm.9-.205l-.009-.011-.002.003-.013.022a.414.414 0 00-.042.19c0 .095.025.16.042.192l.013.022.002.003.008-.011.017-.033a.432.432 0 00.033-.172c0-.11-.034-.18-.05-.205zm1.946 2.419a1.05 1.05 0 112.098 0 1.05 1.05 0 01-2.098 0zm1.265 0a.216.216 0 10-.432 0 .216.216 0 00.432 0z" fill="#000638"/><path fill-rule="evenodd" clip-rule="evenodd" d="M10.357 18.84c0-.522.491-.891 1.05-.891.557 0 1.048.369 1.048.891s-.491.891-1.049.891c-.558 0-1.05-.369-1.05-.891zm1.254-.008a.396.396 0 00-.205-.05c-.11 0-.18.034-.205.05l-.01.008.002.002.022.014a.415.415 0 00.191.042c.11 0 .18-.034.205-.05l.01-.008-.01-.008zm-4.416-2.047a1.365 1.365 0 112.73 0 1.365 1.365 0 01-2.73 0zm1.897 0a.532.532 0 10-1.064 0 .532.532 0 001.064 0z" fill="#000638"/></svg>