<svg width="26" height="25" fill="none" xmlns="http://www.w3.org/2000/svg"><circle cx="19.063" cy="7.813" fill="#FE5455" r="6.25"/><g clip-path="url(#clip0)"><path fill-rule="evenodd" clip-rule="evenodd" d="M7.5 6.719H2.031V10H7.5V6.719zM2.031 5.625A1.094 1.094 0 00.937 6.719V10a1.094 1.094 0 001.094 1.094H7.5A1.094 1.094 0 008.594 10V6.719A1.094 1.094 0 007.5 5.625H2.031zM17.344 18.75h-5.469v3.281h5.469V18.75zm-5.469-1.094a1.094 1.094 0 00-1.094 1.094v3.281a1.094 1.094 0 001.094 1.094h5.469a1.093 1.093 0 001.093-1.094V18.75a1.093 1.093 0 00-1.093-1.094h-5.469zM7.5 14.375H2.031v7.656H7.5v-7.656zm-5.469-1.094a1.094 1.094 0 00-1.094 1.094v7.656a1.094 1.094 0 001.094 1.094H7.5a1.093 1.093 0 001.094-1.094v-7.656A1.094 1.094 0 007.5 13.281H2.031zM17.344 6.72h-5.469v7.656h5.469V6.719zm-5.469-1.094a1.094 1.094 0 00-1.094 1.094v7.656a1.094 1.094 0 001.094 1.094h5.469a1.094 1.094 0 001.093-1.094V6.719a1.093 1.093 0 00-1.093-1.094h-5.469z" fill="#000638"/></g><defs><clipPath id="clip0"><path fill="#fff" transform="translate(.938 5.625)" d="M0 0h17.5v17.5H0z"/></clipPath></defs></svg>