<svg width="25" height="25" fill="none" xmlns="http://www.w3.org/2000/svg"><circle cx="17.5" cy="7.5" r="6.25" fill="#006ADC"/><path fill-rule="evenodd" clip-rule="evenodd" d="M7.922 5.509c-.532.426-.867 1.051-.867 1.886 0 .86.35 1.85.93 2.625.582.778 1.343 1.27 2.134 1.27.79 0 1.551-.492 2.134-1.27.58-.774.93-1.766.93-2.625 0-.835-.335-1.46-.867-1.886-.542-.434-1.314-.68-2.197-.68-.884 0-1.655.246-2.197.68zm-.514-.65C8.128 4.285 9.093 4 10.118 4c1.027 0 1.992.284 2.711.86.73.584 1.178 1.448 1.178 2.535 0 1.061-.422 2.224-1.096 3.125-.672.897-1.65 1.6-2.792 1.6-1.143 0-2.12-.703-2.792-1.6-.675-.9-1.096-2.064-1.096-3.125 0-1.087.448-1.951 1.177-2.535zm6.9 4.53a.79.79 0 01.78-.784h3.133c.405 0 .779.316.779.784v1.848a.79.79 0 01-.78.784h-.666c-.613.693-1.21.936-1.71.96a1.635 1.635 0 01-.805-.169 1.044 1.044 0 01-.054-.03l-.018-.012-.007-.004-.003-.002h-.001v-.001l.23-.344-.231.343a.415.415 0 01.046-.714.337.337 0 00.046-.028.792.792 0 01-.739-.784V9.39zm1.74 2.72c.255-.076.6-.276.997-.765a.411.411 0 01.319-.153h.811V9.435h-3.042v1.756h.787a.416.416 0 01.268.73l-.018.02a1.42 1.42 0 00-.055.073l-.053.076a1.452 1.452 0 01-.014.02zm-8.186 1.078a.416.416 0 01-.244.532l-2.325.862-.007.002a2.214 2.214 0 00-1.462 2.096v2.906c0 .23-.184.415-.412.415A.414.414 0 013 19.585V16.68c0-1.277.79-2.447 2.01-2.878l2.323-.86c.213-.08.45.03.53.245zm4.602-.115a.41.41 0 01.465-.131l2.327.862a3.066 3.066 0 012.006 2.876v2.906a.411.411 0 01-.757.227l-4.063-6.255a.417.417 0 01.022-.486zm1.35 1.08l2.624 4.04V16.68c0-.931-.575-1.763-1.47-2.098l-1.154-.428zm-5.688-.032a.573.573 0 01.671-.022l.706.507c.122.088.176.218.145.345l-.65 2.618 1.002.594 1.001-.594-.65-2.619c-.03-.126.024-.256.146-.344l.706-.507a.573.573 0 01.671.022c.178.151.166.386-.028.525l-.51.367.655 2.642c.035.138-.035.28-.179.366l-1.524.904a.585.585 0 01-.576 0l-1.524-.904c-.144-.085-.214-.228-.18-.366l.656-2.642-.51-.367c-.194-.139-.206-.374-.028-.525z" fill="#000638"/></svg>