<svg width="25" height="25" fill="none" xmlns="http://www.w3.org/2000/svg"><circle cx="16.25" cy="7.25" r="6.25" fill="#FE5455"/><path d="M20.26 13.119a.417.417 0 01.043.831l-.042.002h-1.542l-.002.018a.501.501 0 01-.46.432l-.05.002a.872.872 0 01-.371-.095l-.043-.021-.057-.001c-1.012-.018-1.787.043-2.316.176l-.078.02c-.759.211-1.433.5-2.025.837-.374.212-.857.327-1.456.354l-.13.005-2.51-.001-.41-.008h-.148l-.076.002-.061.003a.778.778 0 00-.049.006l-.041.009.001.003.002.017-.002.1-.006.115-.016.231a5.14 5.14 0 00-.008.131l-.003.109c0 .065.002.117.008.159l.005.03.138.012.185.014.202.013.337.017.377.014.432.01h3.449l.006.834-.727.009-.897.006h-.51l-.602-.003-.373-.005-.382-.007H8.564a1.1 1.1 0 01-.516-.116l-.01-.006a3.089 3.089 0 01-.427-.083l-.034-.01c-.772-.247-1.945-.806-2.594-1.212l-.089-.057c-.465-.304-.89-.327-1-.113-.198.38-.186.643-.003.984a.186.186 0 00.06.052l.059.034.035.018.083.041.097.045.112.048.19.078.14.055.229.086.33.12.352.122.364.12.275.088.182.056.355.105.255.072c.175.047.373.12.623.227l.317.14.827.383.133.06.249.11.23.099c.111.046.217.088.322.128.307.117.584.204.836.261 1.442.326 2.471.35 3.665.006a18.872 18.872 0 001.895-.678l.338-.141c.057-.024.115-.05.174-.074l.356-.156.369-.166.465-.214h.083v-.928h.834v1.846h2.698c.215 0 .393.164.414.375l.002.042a.417.417 0 01-.374.415l-.042.002h-3.531v-.873l-.013.007c-.48.22-.933.42-1.358.595l-.358.146-.174.069-.337.129c-.387.144-.745.266-1.077.366l-.134.039c-1.345.388-2.511.36-4.079.006a7.084 7.084 0 01-.948-.295c-.187-.07-.377-.149-.585-.24l-.26-.115-1.08-.497-.175-.077-.156-.065a5.245 5.245 0 00-.138-.053l-.122-.043a2.048 2.048 0 00-.107-.032l-.23-.063-.343-.098-.227-.068-.223-.068-.22-.07-.216-.071-.21-.072-.205-.073-.198-.073a15.157 15.157 0 01-.096-.036l-.185-.074-.177-.074a8.631 8.631 0 01-.085-.037l-.162-.073-.152-.074c-.363-.183-.618-.362-.706-.526-.307-.574-.332-1.125-.002-1.762.398-.769 1.326-.74 2.132-.241l.065.041c.486.318 1.433.785 2.156 1.058l.063.023v-.059l.004-.076.029-.449.002-.055v-.05c0-.408.203-.696.565-.81l.073-.021a1.24 1.24 0 01.071-.016l.075-.012.082-.009.093-.005.108-.002h.126l.511.01h2.412c.524-.012.919-.1 1.184-.25a9.768 9.768 0 012.214-.915c.62-.171 1.49-.245 2.62-.227l.274.006.007.005.013-.018a.911.911 0 01.382-.28l.061-.023.068-.024h1.717z" fill="#000638"/><path fill-rule="evenodd" clip-rule="evenodd" d="M19.064 18a.5.5 0 111 0 .5.5 0 01-1 0zm.667 0a.167.167 0 10-.333 0 .167.167 0 00.333 0z" fill="#000638"/><path d="M10.731 4.25c.362 0 .717.05 1.058.145l.146.044-.256.793a3.083 3.083 0 00-4.031 2.935c0 .67.499 1.752 1.328 3.01l.17.254.088.129c.373.538.778 1.07 1.146 1.516l.125.15.115.133.029.033.097-.105.126-.143.067-.076c.388-.447.814-.98 1.206-1.516l.09-.125.174-.247.165-.242.157-.237.147-.232c.593-.955.937-1.765.937-2.302 0-.898-.386-1.731-1.043-2.312l-.077-.066.53-.642a3.909 3.909 0 011.423 3.02c0 .913-.613 2.157-1.634 3.602l-.196.273-.128.175-.192.256-.19.248-.188.239-.184.226-.12.144-.174.203-.112.126-.108.118-.104.11-.099.1a5.382 5.382 0 01-.094.091l-.089.08-.082.07c-.133.107-.24.166-.312.166-.075 0-.182-.061-.315-.172l-.083-.072a3.688 3.688 0 01-.043-.04l-.09-.09-.096-.099-.1-.109-.105-.118-.109-.128-.17-.205-.116-.147-.119-.153-.182-.24-.187-.254-.251-.352-.127-.181c-1.078-1.558-1.735-2.902-1.735-3.867a3.917 3.917 0 013.917-3.917z" fill="#000638"/><path fill-rule="evenodd" clip-rule="evenodd" d="M8.814 8.333a2.083 2.083 0 114.167 0 2.083 2.083 0 01-4.167 0zm3.334 0a1.25 1.25 0 10-2.5 0 1.25 1.25 0 002.5 0z" fill="#000638"/></svg>