<svg width="157" height="51" preserveAspectRatio="xMinYMin meet" fill="none" xmlns="http://www.w3.org/2000/svg"><path d="M46.3 33a1.43 1.43 0 01-.36-1V21.21a1.45 1.45 0 01.4-1.07 1.68 1.68 0 012.2 0c.274.287.419.674.4 1.07V31h4.93c.94 0 1.41.41 1.41 1.23 0 .81-.47 1.21-1.41 1.21h-6.53A1.45 1.45 0 0146.3 33z" fill="#FE5455"/><path fill-rule="evenodd" clip-rule="evenodd" d="M64.9 31.69a1.24 1.24 0 00-.24-.79.74.74 0 00-.61-.31 1.38 1.38 0 00-.45.09l-.116.043a4.723 4.723 0 00-.394.157c-.327.14-.66.264-1 .37a3.407 3.407 0 01-1 .13 2.31 2.31 0 01-1.6-.51 2.58 2.58 0 01-.69-1.65h5.43a.74.74 0 00.57-.22.94.94 0 00.2-.64 5.31 5.31 0 00-.58-2.46 3.8 3.8 0 00-1.51-1.61 4.39 4.39 0 00-2.26-.57 4.731 4.731 0 00-2.41.62 4.35 4.35 0 00-1.65 1.75 5.291 5.291 0 00-.6 2.56 5.13 5.13 0 00.62 2.6 4.15 4.15 0 001.76 1.71 5.7 5.7 0 002.68.6 7.3 7.3 0 003.12-.79c.215-.116.4-.28.54-.48a1 1 0 00.19-.6zm-6.1-3.91a2.44 2.44 0 01.6-1.53 1.74 1.74 0 011.32-.53 1.61 1.61 0 011.28.52c.337.443.52.984.52 1.54H58.8z" fill="#FE5455"/><path d="M86.1 24.65a4.56 4.56 0 01.83 3.05v4.45a1.26 1.26 0 01-.4 1 1.56 1.56 0 01-1 .35 1.59 1.59 0 01-1-.35 1.22 1.22 0 01-.43-1v-4.49a2 2 0 00-.32-1.29 1.16 1.16 0 00-1-.38 1.62 1.62 0 00-1.29.56 2.31 2.31 0 00-.49 1.56v4a1.26 1.26 0 01-.4 1 1.56 1.56 0 01-1 .35 1.59 1.59 0 01-1-.35 1.25 1.25 0 01-.43-1v-4.45a2 2 0 00-.31-1.29 1.2 1.2 0 00-1-.38 1.65 1.65 0 00-1.29.56 2.31 2.31 0 00-.57 1.56v4a1.27 1.27 0 01-.41 1 1.57 1.57 0 01-1 .35 1.59 1.59 0 01-1-.35 1.24 1.24 0 01-.42-1v-7.03a1.18 1.18 0 01.43-1 1.63 1.63 0 011-.34c.363-.02.72.098 1 .33.264.24.407.584.39.94v.19a3.07 3.07 0 011.2-1.12 3.65 3.65 0 011.68-.38 3.43 3.43 0 011.73.41c.5.313.88.785 1.08 1.34a3.26 3.26 0 011.27-1.28 3.66 3.66 0 011.85-.47 3 3 0 012.3.95z" fill="#FE5455"/><path fill-rule="evenodd" clip-rule="evenodd" d="M97.46 27.82a4.21 4.21 0 00-1-3.09 4.14 4.14 0 00-3.1-1.04 9.101 9.101 0 00-1.92.21 6.005 6.005 0 00-1.64.58 1.492 1.492 0 00-.56.46 1.06 1.06 0 00-.17.63c-.017.282.072.56.25.78a.82.82 0 00.67.3 1.79 1.79 0 00.75-.21 7.763 7.763 0 012.39-.58 1.32 1.32 0 011.54 1.54v.35h-.5a15.13 15.13 0 00-3.22.27 3.14 3.14 0 00-1.7.87 2.37 2.37 0 00-.53 1.63 2.75 2.75 0 00.45 1.54 3 3 0 001.23 1.08c.544.266 1.144.4 1.75.39a3 3 0 001.58-.41 2.28 2.28 0 001-1.12v.15a1.3 1.3 0 00.37 1 1.35 1.35 0 001 .38 1.41 1.41 0 001-.36 1.34 1.34 0 00.36-1v-4.35zm-2.77 1.7a2.09 2.09 0 01-.52 1.48 1.79 1.79 0 01-1.37.56 1.24 1.24 0 01-.89-.33 1.16 1.16 0 01-.36-.88.89.89 0 01.63-.9 6.433 6.433 0 012.18-.25h.33v.32z" fill="#FE5455"/><path d="M106.19 24c.243.23.368.557.34.89.03.343-.082.683-.31.94a1.74 1.74 0 01-1.1.39l-.57.06A2.16 2.16 0 00103 27a2.25 2.25 0 00-.48 1.48v3.68c.023.379-.128.747-.41 1a1.57 1.57 0 01-1 .35 1.6 1.6 0 01-1-.35 1.24 1.24 0 01-.41-1v-7.08a1.2 1.2 0 01.42-1 1.55 1.55 0 011-.34 1.4 1.4 0 011 .33c.264.24.407.584.39.94v.52a2.6 2.6 0 011-1.27c.458-.298.985-.47 1.53-.5h.27a1.17 1.17 0 01.88.24zm2.81 9a3.997 3.997 0 01-1.69-1.7 5.4 5.4 0 01-.59-2.58 5.25 5.25 0 01.63-2.6 4.3 4.3 0 011.76-1.75 5.42 5.42 0 012.62-.61 5.999 5.999 0 011.55.21c.494.13.965.332 1.4.6.38.22.608.631.59 1.07.017.291-.064.58-.23.82a.72.72 0 01-.61.32 1.28 1.28 0 01-.48-.09 5.706 5.706 0 01-.58-.26 4.787 4.787 0 00-.73-.32 2.29 2.29 0 00-2.36.56 3.79 3.79 0 000 4 2 2 0 001.64.69 2.16 2.16 0 00.71-.1c.261-.096.514-.21.76-.34.24-.12.43-.2.57-.26.149-.061.309-.092.47-.09a.72.72 0 01.6.33c.168.243.252.535.24.83.019.436-.209.846-.59 1.06a5.434 5.434 0 01-1.43.59 6.264 6.264 0 01-1.69.22A5.238 5.238 0 01109 33zm17-5.3v4.45c.022.376-.125.743-.4 1a1.48 1.48 0 01-1.07.37 1.46 1.46 0 01-1.06-.37 1.33 1.33 0 01-.38-1v-4.49a1.893 1.893 0 00-.36-1.26 1.38 1.38 0 00-1.1-.41 1.911 1.911 0 00-1.46.58 2.164 2.164 0 00-.54 1.54v4a1.3 1.3 0 01-.39 1 1.46 1.46 0 01-1.06.37 1.48 1.48 0 01-1.07-.37 1.3 1.3 0 01-.39-1V21.06a1.19 1.19 0 01.41-1 1.57 1.57 0 011.09-.37 1.49 1.49 0 011 .35c.261.233.404.57.39.92v4.2a3.191 3.191 0 011.28-1.11 4.172 4.172 0 011.8-.37c2.207.027 3.31 1.367 3.31 4.02z" fill="#FE5455"/><path fill-rule="evenodd" clip-rule="evenodd" d="M131.87 22.6c.136.14.325.216.52.21a.86.86 0 00.5-.21l2.35-1.71c.349-.219.575-.59.61-1 0-.309-.131-.603-.36-.81a1.22 1.22 0 00-.85-.35 1.39 1.39 0 00-1.15.66l-1.66 2.21a.837.837 0 00-.17.5.692.692 0 00.21.5zm4.47 8.3c.171.227.26.506.25.79a1 1 0 01-.2.6 1.58 1.58 0 01-.54.48c-.482.25-.993.44-1.52.57a6.81 6.81 0 01-1.6.22 5.698 5.698 0 01-2.68-.6 4.148 4.148 0 01-1.76-1.71 5.235 5.235 0 01-.62-2.6 5.29 5.29 0 01.6-2.56 4.35 4.35 0 011.65-1.75 4.733 4.733 0 012.41-.62 4.39 4.39 0 012.26.57 3.798 3.798 0 011.51 1.61c.375.765.56 1.609.54 2.46a.89.89 0 01-.2.64.71.71 0 01-.57.22h-5.39c.026.615.271 1.2.69 1.65a2.31 2.31 0 001.6.51 3.38 3.38 0 001-.13c.339-.106.673-.23 1-.37.17-.075.343-.142.52-.2a1.28 1.28 0 01.44-.09.73.73 0 01.61.31zm-5.26-4.65a2.5 2.5 0 00-.6 1.53h3.72a2.538 2.538 0 00-.51-1.54 1.6 1.6 0 00-1.28-.52 1.74 1.74 0 00-1.33.53z" fill="#FE5455"/><path fill-rule="evenodd" clip-rule="evenodd" d="M53.31 40.66a.57.57 0 00-.17-.42l.03-.01a.68.68 0 00-.89 0 .57.57 0 00-.16.43v4a2.4 2.4 0 00-1-1.07 2.87 2.87 0 00-1.49-.38 3.12 3.12 0 00-1.7.47c-.5.321-.895.78-1.14 1.32a4.59 4.59 0 00-.41 2 4.67 4.67 0 00.41 2 3.22 3.22 0 001.11 1.37 3 3 0 001.7.48 2.868 2.868 0 001.49-.38 2.35 2.35 0 001-1.07v.81a.57.57 0 00.6.61.61.61 0 00.45-.17.59.59 0 00.17-.44v-9.55zM52.09 47a3.21 3.21 0 01-.58 2.11 2 2 0 01-1.64.71 2 2 0 01-1.66-.74 3.24 3.24 0 01-.6-2.08 3.07 3.07 0 01.6-2 2 2 0 011.66-.72 2 2 0 011.64.72 3.17 3.17 0 01.58 2zm9.54 2.52a.49.49 0 00-.12-.34.37.37 0 00-.29-.14c-.19.041-.37.12-.53.23-.29.164-.59.308-.9.43-.322.11-.66.164-1 .16-1.54 0-2.36-.87-2.45-2.59h4.82a.5.5 0 00.39-.13.68.68 0 00.12-.44 3.62 3.62 0 00-.84-2.52 2.89 2.89 0 00-2.27-.94 3.35 3.35 0 00-1.79.48 3.28 3.28 0 00-1.23 1.35 4.38 4.38 0 00-.43 2 3.79 3.79 0 001 2.78 3.59 3.59 0 002.68 1 4.84 4.84 0 001.17-.16 4.307 4.307 0 001.15-.48c.35-.21.52-.43.52-.69zm-5.26-3.03c.027-.63.27-1.23.69-1.7a2 2 0 011.54-.6 1.88 1.88 0 011.47.59 2.69 2.69 0 01.56 1.71h-4.26z" fill="#000638"/><path d="M69.26 50.51a1.24 1.24 0 01-.42-1v-11a1.24 1.24 0 01.42-1 1.71 1.71 0 012.07 0c.286.251.44.62.42 1v11c.02.38-.134.749-.42 1a1.71 1.71 0 01-2.07 0zm7.28-12.89c.336.46.5 1.022.46 1.59a4.91 4.91 0 01-1.45 3.5.78.78 0 01-.55.29.82.82 0 01-.57-.22.67.67 0 01-.25-.53.72.72 0 01.21-.5c.393-.406.684-.9.85-1.44a1.58 1.58 0 01-1.06-.49 1.49 1.49 0 01-.41-1.07 1.66 1.66 0 01.45-1.19 1.53 1.53 0 011.13-.47 1.51 1.51 0 011.19.53z" fill="#000638"/><path fill-rule="evenodd" clip-rule="evenodd" d="M78.8 38.09a1.34 1.34 0 00.44 1.07v-.03a2.07 2.07 0 002.42 0 1.35 1.35 0 00.45-1.07 1.32 1.32 0 00-.46-1.05 1.77 1.77 0 00-1.2-.39 1.81 1.81 0 00-1.21.38 1.32 1.32 0 00-.44 1.09zm.19 11.42a1.27 1.27 0 00.41 1 1.6 1.6 0 001.01.35 1.55 1.55 0 001-.35 1.24 1.24 0 00.42-1v-7a1.24 1.24 0 00-.42-1 1.54 1.54 0 00-1-.34 1.59 1.59 0 00-1 .34 1.24 1.24 0 00-.42 1v7z" fill="#000638"/><path d="M92.58 42.05a4.6 4.6 0 01.83 3v4.45a1.27 1.27 0 01-.4 1 1.46 1.46 0 01-1.06.37 1.44 1.44 0 01-1.06-.37 1.3 1.3 0 01-.39-1v-4.32a2.32 2.32 0 00-.35-1.41 1.36 1.36 0 00-1.11-.44 1.92 1.92 0 00-1.46.58 2.16 2.16 0 00-.54 1.54v4a1.3 1.3 0 01-.39 1 1.46 1.46 0 01-1.06.37 1.5 1.5 0 01-1.07-.37 1.3 1.3 0 01-.39-1v-7.03a1.25 1.25 0 01.41-1 1.59 1.59 0 011.07-.36c.368-.027.73.1 1 .35.253.238.391.573.38.92v.26c.321-.5.77-.903 1.3-1.17a3.911 3.911 0 011.8-.4 3.09 3.09 0 012.49 1.03zm4.81 8.25a4.05 4.05 0 01-1.68-1.7 5.4 5.4 0 01-.59-2.58 5.31 5.31 0 01.63-2.61 4.34 4.34 0 011.76-1.74c.808-.42 1.71-.63 2.62-.61a5.999 5.999 0 011.55.21 5 5 0 011.39.6c.386.215.618.629.6 1.07.012.29-.068.578-.23.82a.73.73 0 01-.62.32c-.161 0-.32-.03-.47-.09a5.792 5.792 0 01-.59-.26 5.212 5.212 0 00-.72-.32 2.003 2.003 0 00-.72-.12 2 2 0 00-1.65.68 3.85 3.85 0 000 4 2 2 0 001.65.69 2.16 2.16 0 00.71-.1c.258-.095.509-.209.75-.34l.58-.26a1.19 1.19 0 01.46-.09.72.72 0 01.61.33c.168.243.252.535.24.83a1.15 1.15 0 01-.6 1.06 5.23 5.23 0 01-1.42.59 6.75 6.75 0 01-1.69.22 5.3 5.3 0 01-2.57-.6zm8.12.21a1.243 1.243 0 01-.41-1v-11a1.243 1.243 0 01.41-1 1.601 1.601 0 012 0c.279.256.429.622.41 1v11a1.27 1.27 0 01-.41 1 1.57 1.57 0 01-1 .35 1.6 1.6 0 01-1-.35zM119 41.46c.266.263.408.627.39 1v7.07a1.22 1.22 0 01-.41 1 1.53 1.53 0 01-1.07.37 1.37 1.37 0 01-1-.35 1.192 1.192 0 01-.37-.92v-.2c-.277.472-.678.86-1.16 1.12a3.88 3.88 0 01-4.3-.61 4.41 4.41 0 01-.87-3v-4.48a1.317 1.317 0 01.39-1 1.54 1.54 0 011.07-.36 1.5 1.5 0 011.06.36c.266.263.408.627.39 1V47c-.038.445.086.89.35 1.25a1.38 1.38 0 001.09.4 1.82 1.82 0 001.38-.57 2.21 2.21 0 00.53-1.53v-4.09a1.312 1.312 0 01.38-1 1.5 1.5 0 011.06-.36 1.54 1.54 0 011.09.36zm4.12 9.24a4.605 4.605 0 01-1.52-.61 1.203 1.203 0 01-.45-.47A1.378 1.378 0 01121 49a1.09 1.09 0 01.25-.74.78.78 0 01.62-.3c.171.002.34.032.5.09.16.06.34.12.52.2.34.163.695.294 1.06.39.418.11.848.16 1.28.15.362.019.723-.053 1.05-.21a.66.66 0 00.38-.58.6.6 0 00-.16-.43 1.562 1.562 0 00-.61-.3c-.3-.09-.76-.2-1.41-.33a5.38 5.38 0 01-2.46-1 2.309 2.309 0 01-.75-1.83 2.51 2.51 0 01.53-1.56c.38-.484.88-.86 1.45-1.09.66-.268 1.368-.4 2.08-.39.547 0 1.091.07 1.62.21.495.126.967.329 1.4.6.386.215.618.629.6 1.07a1.15 1.15 0 01-.25.77.75.75 0 01-.61.31 2.148 2.148 0 01-1.06-.35 6.512 6.512 0 00-.88-.37 3.215 3.215 0 00-.93-.13 1.732 1.732 0 00-.95.23.688.688 0 00.06 1.22 6.34 6.34 0 001.56.42c.689.12 1.361.325 2 .61.432.188.8.497 1.06.89.234.418.348.892.33 1.37a2.561 2.561 0 01-1.13 2.18 5 5 0 01-3 .81 9.324 9.324 0 01-2.03-.21z" fill="#000638"/><path fill-rule="evenodd" clip-rule="evenodd" d="M130.76 38.09c-.018.404.143.796.44 1.07v-.03a2.09 2.09 0 002.43 0 1.37 1.37 0 00.44-1.07 1.35 1.35 0 00-.45-1.05 1.77 1.77 0 00-1.2-.39 1.84 1.84 0 00-1.22.38 1.353 1.353 0 00-.44 1.09zm.19 11.42c-.021.38.134.749.42 1h-.07a1.72 1.72 0 002.08 0 1.27 1.27 0 00.41-1v-7a1.27 1.27 0 00-.41-1 1.561 1.561 0 00-1-.34 1.592 1.592 0 00-1 .34 1.22 1.22 0 00-.43 1v7zm5.3-.94a4.273 4.273 0 001.75 1.72h-.03a6 6 0 005.28 0 4.328 4.328 0 001.75-1.72 5.23 5.23 0 00.61-2.6 5.292 5.292 0 00-.61-2.61 4.24 4.24 0 00-1.72-1.71 6.2 6.2 0 00-5.28 0 4.18 4.18 0 00-1.75 1.71 5.296 5.296 0 00-.62 2.61 5.235 5.235 0 00.62 2.6zm5.96-4.57c.4.587.593 1.29.55 2 0 1.78-.71 2.75-2.12 2.75-1.41 0-2.12-.9-2.12-2.71s.71-2.72 2.12-2.72a1.92 1.92 0 011.57.68z" fill="#000638"/><path d="M155.87 42.05c.613.875.903 1.935.82 3v4.45a1.3 1.3 0 01-.39 1 1.48 1.48 0 01-1.07.37 1.46 1.46 0 01-1.06-.37 1.33 1.33 0 01-.38-1v-4.32a2.246 2.246 0 00-.36-1.41 1.36 1.36 0 00-1.11-.44 1.9 1.9 0 00-1.45.58 2.12 2.12 0 00-.55 1.54v4a1.33 1.33 0 01-.38 1 1.46 1.46 0 01-1.06.37 1.48 1.48 0 01-1.07-.37 1.309 1.309 0 01-.4-1v-7.03c-.022-.38.133-.75.42-1a1.56 1.56 0 011.07-.36c.367-.024.728.102 1 .35.249.24.384.575.37.92v.26c.324-.497.772-.9 1.3-1.17a4.002 4.002 0 011.8-.4 3.12 3.12 0 012.5 1.03z" fill="#000638"/><path d="M22.29 24.6a6.46 6.46 0 00-1.93.29 6.55 6.55 0 103.85 12.52 6.55 6.55 0 00-1.92-12.81z" fill="#FDD"/><path d="M20.48 27.42a5 5 0 11-9.533 3.02 5 5 0 019.533-3.02z" fill="#FE5455"/><path d="M31 .7a10.11 10.11 0 00-3.06.47A10.4 10.4 0 0031 21.51 10.41 10.41 0 0031 .7z" fill="#FDD"/><path d="M41.19 6.56a4.3 4.3 0 10.015 8.6 4.3 4.3 0 00-.015-8.6zm-6.52 36.57a4.91 4.91 0 11-6.14-3.25 4.92 4.92 0 016.14 3.25zM4.33 35.87a3.38 3.38 0 10-.008 6.76 3.38 3.38 0 00.008-6.76" fill="#FE5455"/><path d="M35.6 29.81c-.25.003-.5.04-.74.11a2.51 2.51 0 00.74 4.9c.25.002.5-.035.74-.11a2.51 2.51 0 00-.74-4.9M8.69 10.42a5.61 5.61 0 10-.033 11.22 5.61 5.61 0 00.033-11.22z" fill="#FDD"/></svg>