<svg width="560" height="165" fill="none" xmlns="http://www.w3.org/2000/svg"><path d="M6.5 70a7.15 7.15 0 01-1.8-5V11.05a7.25 7.25 0 012-5.35 8.4 8.4 0 0111 0 7.25 7.25 0 012 5.35V60h24.65c4.7 0 7.05 2.05 7.05 6.15 0 4.05-2.35 6.05-7.05 6.05H11.7A7.25 7.25 0 016.5 70z" fill="#FFAD1D"/><path fill-rule="evenodd" clip-rule="evenodd" d="M99.5 63.45a6.2 6.2 0 00-1.2-3.95 3.7 3.7 0 00-3.05-1.55c-.77.023-1.53.176-2.25.45l-.58.213c-.641.234-1.32.481-1.97.787a52.733 52.733 0 01-5 1.85 17.05 17.05 0 01-5 .65 11.55 11.55 0 01-8-2.55A12.9 12.9 0 0169 51.1h27.15A3.7 3.7 0 0099 50a4.702 4.702 0 001-3.2 26.542 26.542 0 00-2.9-12.3 19 19 0 00-7.55-8.05 21.95 21.95 0 00-11.3-2.85 23.65 23.65 0 00-12.05 3.1 21.75 21.75 0 00-8.25 8.75 26.45 26.45 0 00-3 12.8 25.65 25.65 0 003.1 13 20.75 20.75 0 008.8 8.55 28.5 28.5 0 0013.4 3 36.5 36.5 0 0015.6-3.95 7.9 7.9 0 002.7-2.4 5 5 0 00.95-3zM69 43.9a12.2 12.2 0 013-7.65 8.7 8.7 0 016.6-2.65 8.05 8.05 0 016.4 2.6 12.7 12.7 0 012.6 7.7H69zm113.95-8.4a20.853 20.853 0 00-7.45-8.8 19.398 19.398 0 00-11.1-3.1 18.95 18.95 0 00-8.85 2.05 15.005 15.005 0 00-6.1 5.75v-.8a6.496 6.496 0 00-1.9-5 7.099 7.099 0 00-5-1.85 7.25 7.25 0 00-5 1.85 6.55 6.55 0 00-1.95 5V83a6.103 6.103 0 002.05 5 8.05 8.05 0 005.45 1.8 7.4 7.4 0 005-1.7 6.05 6.05 0 001.9-4.65v-18.2a14.45 14.45 0 006 5.75 19.202 19.202 0 008.7 2 19.65 19.65 0 0010.85-3 20.346 20.346 0 007.4-8.75 29.489 29.489 0 002.65-12.85 29.999 29.999 0 00-2.65-12.9zm-11.8 12.8a15.347 15.347 0 01-2.8 10 9.699 9.699 0 01-7.9 3.4 9.55 9.55 0 01-7.9-3.5 15.704 15.704 0 01-2.8-10 16.004 16.004 0 012.8-10 9.7 9.7 0 017.9-3.5 9.4 9.4 0 017.9 3.6 16.446 16.446 0 012.8 10zM193.5 8.75a6.7 6.7 0 002.2 5.35v-.25a10 10 0 0012.1 0 6.749 6.749 0 002.25-5.35 6.6 6.6 0 00-2.3-5 8.85 8.85 0 00-6-1.95 9.05 9.05 0 00-6.05 1.9 6.601 6.601 0 00-2.2 5.3zm.95 57.1a6.35 6.35 0 002.05 5 8 8 0 005.05 1.75 7.75 7.75 0 005-1.75 6.2 6.2 0 002.1-5v-35a6.2 6.2 0 00-2.1-5 7.7 7.7 0 00-5-1.7 7.95 7.95 0 00-5 1.7 6.2 6.2 0 00-2.1 5v35z" fill="#FFAD1D"/><path d="M222.2 70.85a6.35 6.35 0 01-2.05-5v-55a6.35 6.35 0 012.05-5 8 8 0 015-1.75 7.75 7.75 0 015 1.75 6.2 6.2 0 012.1 5v55a6.2 6.2 0 01-2.1 5 7.75 7.75 0 01-5 1.75 8.001 8.001 0 01-5-1.75z" fill="#FFAD1D"/><path fill-rule="evenodd" clip-rule="evenodd" d="M246.6 61.45a21.357 21.357 0 008.8 8.55 27.604 27.604 0 0013.15 3.05 27.948 27.948 0 0013.2-3.05 21.195 21.195 0 008.75-8.9 29.001 29.001 0 000-26.1 20.9 20.9 0 00-8.75-8.2 28.548 28.548 0 00-13.2-2.95 28.152 28.152 0 00-13.15 2.95 21.05 21.05 0 00-8.8 8.55 29.454 29.454 0 000 26.1zm29.8-23.05a15.796 15.796 0 012.75 10v-.25c0 9.05-3.55 14-10.6 14S258 57.65 258 48.6 261.5 35 268.55 35a9.5 9.5 0 017.85 3.4z" fill="#FFAD1D"/><path d="M332.5 63.45a5.351 5.351 0 01-.9 7.9 10.3 10.3 0 01-6.35 1.15h-2.7c-11.2-.9-16.8-6.766-16.8-17.6V35.6h-3.9a7.15 7.15 0 01-5-1.4 4.998 4.998 0 01-1.6-3.95 5.002 5.002 0 011.6-4.1 7.15 7.15 0 015-1.4h3.9v-7.5a6.653 6.653 0 011.95-5 7.6 7.6 0 015.35-1.8 7.5 7.5 0 015.3 1.8 6.8 6.8 0 011.9 5V25H327c4.35 0 6.55 1.8 6.55 5.5a5 5 0 01-1.65 3.95 7.25 7.25 0 01-5 1.4h-6.75v20a6.199 6.199 0 001.35 4.35 5.6 5.6 0 003.95 1.7h2.7a6.499 6.499 0 014.35 1.55z" fill="#FFAD1D"/><path fill-rule="evenodd" clip-rule="evenodd" d="M380.9 44.1a21.05 21.05 0 00-5-15.45 20.7 20.7 0 00-15.3-4.9c-3.228.009-6.446.36-9.6 1.05a30 30 0 00-8.2 2.9A7.849 7.849 0 00340 30a5.705 5.705 0 00-1.05 2.85 5.647 5.647 0 001.25 3.9 4.1 4.1 0 003.35 1.5 8.95 8.95 0 003.75-1.05 38.804 38.804 0 0111.95-2.9 6.6 6.6 0 017.7 7.7v1.75h-2.5a75.603 75.603 0 00-16.1 1.35 15.701 15.701 0 00-8.5 4.35 11.853 11.853 0 00-2.65 8.15 13.748 13.748 0 002.25 7.7 15.501 15.501 0 006.2 5.4 19.05 19.05 0 008.7 1.95 15 15 0 007.9-2.05 11.148 11.148 0 005-5.6v.75a6.5 6.5 0 001.85 5 6.9 6.9 0 005 1.9 7.049 7.049 0 005-1.8 6.698 6.698 0 001.8-5V44.1zm-13.85 8.5a10.448 10.448 0 01-2.6 7.4 8.95 8.95 0 01-6.85 2.8 6.3 6.3 0 01-4.45-1.65 5.801 5.801 0 01-1.8-4.4 4.45 4.45 0 013.15-4.5A32.354 32.354 0 01365.4 51h1.65v1.6zM440 30.65a6.551 6.551 0 00-1.95-5 7.249 7.249 0 00-5.25-1.9 7.65 7.65 0 00-5.25 1.75 6.25 6.25 0 00-1.95 5v1a15 15 0 00-6.15-5.75 19.301 19.301 0 00-8.9-2.05 20 20 0 00-18.4 11.2 29.998 29.998 0 000 24.75 20 20 0 007.5 8.25 20.748 20.748 0 0010.9 2.85 19.299 19.299 0 009.05-2.1 14.25 14.25 0 006.1-5.8v5a11.148 11.148 0 01-3 8.5 13.1 13.1 0 01-9.15 2.8 22.27 22.27 0 01-5.6-.7 52.523 52.523 0 01-5.65-1.85l-3-1a8.3 8.3 0 00-2.5-.4 3.75 3.75 0 00-3.1 1.5 6.605 6.605 0 00-1.15 3.95c0 1.12.331 2.216.95 3.15a7.802 7.802 0 002.7 2.35A36.599 36.599 0 00413.95 90a28.699 28.699 0 0019.45-5.7 22.05 22.05 0 006.6-17.35v-36.3zm-14.4 16.5a13.35 13.35 0 01-2.85 9.15 10 10 0 01-7.95 3.3 10 10 0 01-8-3.3 13.403 13.403 0 01-2.9-9.15 13.55 13.55 0 012.9-9.15 10 10 0 018-3.35 10 10 0 017.95 3.35 13.551 13.551 0 012.85 9.15zm67.85 16.3a6.197 6.197 0 00-1.2-3.95 3.749 3.749 0 00-3.2-1.55 6.595 6.595 0 00-2.2.45c-.85.3-1.7.6-2.6 1-1.9.75-3.55 1.4-5 1.85-1.626.46-3.31.679-5 .65a11.4 11.4 0 01-8-2.55 12.901 12.901 0 01-3.45-8.25h26.95a3.7 3.7 0 002.85-1.1 4.694 4.694 0 001-3.2c.1-4.257-.826-8.476-2.7-12.3a19.294 19.294 0 00-7.55-8.05A22.098 22.098 0 00472 23.6a23.452 23.452 0 00-12 3.1 21.851 21.851 0 00-8.15 8.75 26.457 26.457 0 00-2.95 12.8 26.161 26.161 0 003.05 13 21.05 21.05 0 008.8 8.55 28.701 28.701 0 0013.45 3 34.393 34.393 0 008-1.1 36.478 36.478 0 007.6-2.85 7.897 7.897 0 002.7-2.4 4.998 4.998 0 00.95-3zm-30.5-19.55a12.453 12.453 0 012.95-7.65 8.85 8.85 0 016.65-2.65 8 8 0 016.4 2.6 12.696 12.696 0 012.55 7.7h-18.55z" fill="#FFAD1D"/><path fill-rule="evenodd" clip-rule="evenodd" d="M41.55 108.3a2.851 2.851 0 00-.85-2.1l.15-.05a3.401 3.401 0 00-4.45 0 2.85 2.85 0 00-.8 2.15v20a11.999 11.999 0 00-5-5.35 14.353 14.353 0 00-7.45-1.9 15.6 15.6 0 00-8.5 2.35 15.402 15.402 0 00-5.7 6.6 22.95 22.95 0 00-2.05 10 23.348 23.348 0 002.05 10 16.098 16.098 0 005.55 6.85 15.001 15.001 0 008.5 2.4c2.61.056 5.186-.601 7.45-1.9a11.75 11.75 0 005-5.35v4.05a2.9 2.9 0 00.8 2.2 2.848 2.848 0 002.2.85 3.048 3.048 0 002.25-.85 2.95 2.95 0 00.85-2.2V108.3zm-6.1 31.7a16.049 16.049 0 01-2.9 10.55 9.998 9.998 0 01-8.2 3.55 9.998 9.998 0 01-8.3-3.7 16.2 16.2 0 01-3-10.4 15.35 15.35 0 013-10 10 10 0 018.3-3.6 10.002 10.002 0 018.2 3.6 15.85 15.85 0 012.9 10zm47.7 12.6a2.451 2.451 0 00-.6-1.7 1.852 1.852 0 00-1.45-.7c-.95.206-1.85.596-2.65 1.15a36.02 36.02 0 01-4.5 2.15c-1.61.548-3.3.819-5 .8-7.7 0-11.8-4.35-12.25-12.95h24.1a2.5 2.5 0 001.95-.65c.447-.642.66-1.419.6-2.2a18.1 18.1 0 00-4.2-12.6 14.448 14.448 0 00-11.35-4.7 16.743 16.743 0 00-8.95 2.4 16.396 16.396 0 00-6.15 6.75 21.9 21.9 0 00-2.15 10 18.95 18.95 0 005 13.9 17.949 17.949 0 0013.4 5 24.227 24.227 0 005.85-.8 21.553 21.553 0 005.75-2.4c1.75-1.05 2.6-2.15 2.6-3.45zm-26.3-15.15a13.65 13.65 0 013.45-8.5 10 10 0 017.7-3 9.4 9.4 0 017.35 2.95 13.45 13.45 0 012.8 8.55h-21.3z" fill="#000638"/><path d="M121.3 157.55a6.2 6.2 0 01-2.1-5v-55a6.2 6.2 0 012.1-5 8.55 8.55 0 0110.35 0 6.197 6.197 0 012.1 5v55a6.197 6.197 0 01-2.1 5 8.55 8.55 0 01-10.35 0zm36.4-64.45a12.05 12.05 0 012.3 7.95 24.552 24.552 0 01-7.25 17.5A3.897 3.897 0 01150 120a4.102 4.102 0 01-2.85-1.1 3.353 3.353 0 01-1.25-2.65 3.604 3.604 0 011.05-2.5 17.944 17.944 0 004.25-7.2 7.898 7.898 0 01-5.3-2.45 7.452 7.452 0 01-2.05-5.35 8.302 8.302 0 012.25-5.95 7.65 7.65 0 015.65-2.35 7.55 7.55 0 015.95 2.65z" fill="#000638"/><path fill-rule="evenodd" clip-rule="evenodd" d="M169 95.45a6.7 6.7 0 002.2 5.35v-.15a10.35 10.35 0 0012.1 0 6.749 6.749 0 002.25-5.35 6.6 6.6 0 00-2.3-5.25 8.849 8.849 0 00-6-1.95 9.051 9.051 0 00-6.05 1.9 6.6 6.6 0 00-2.2 5.45zm.95 57.1a6.35 6.35 0 002.05 5 8 8 0 005.05 1.75 7.746 7.746 0 005-1.75 6.197 6.197 0 002.1-5v-35a6.197 6.197 0 00-2.1-5 7.704 7.704 0 00-5-1.7 7.946 7.946 0 00-5 1.7 6.2 6.2 0 00-2.1 5v35z" fill="#000638"/><path d="M237.9 115.25a22.996 22.996 0 014.15 15v22.25a6.347 6.347 0 01-2 5 7.294 7.294 0 01-5.3 1.85 7.201 7.201 0 01-5.3-1.85 6.5 6.5 0 01-1.95-5v-21.6a11.596 11.596 0 00-1.75-7.05 6.8 6.8 0 00-5.55-2.2 9.606 9.606 0 00-7.3 2.9 10.804 10.804 0 00-2.7 7.7v20a6.497 6.497 0 01-1.95 5 7.294 7.294 0 01-5.3 1.85 7.5 7.5 0 01-5.35-1.85 6.5 6.5 0 01-1.95-5V117.1a6.249 6.249 0 012.05-5 7.955 7.955 0 015.35-1.8 6.65 6.65 0 015 1.75 6.05 6.05 0 011.9 4.6v1.3a16.604 16.604 0 016.5-5.85 19.552 19.552 0 019-2 15.45 15.45 0 0112.45 5.15zm24.05 41.25a20.25 20.25 0 01-8.4-8.5 27.002 27.002 0 01-2.95-12.9c-.085-4.548 1-9.042 3.15-13.05a21.7 21.7 0 018.8-8.7 27.11 27.11 0 0113.1-3.05 29.97 29.97 0 017.75 1.05 24.98 24.98 0 016.95 3 5.849 5.849 0 013 5.35 6.852 6.852 0 01-1.15 4.1 3.649 3.649 0 01-3.1 1.6 6.347 6.347 0 01-2.35-.45 28.79 28.79 0 01-2.95-1.3 26.006 26.006 0 00-3.6-1.6 9.991 9.991 0 00-3.6-.6 10.003 10.003 0 00-8.25 3.4 19.25 19.25 0 000 20 10.001 10.001 0 008.25 3.45 10.867 10.867 0 003.55-.5 28.16 28.16 0 003.75-1.7l2.9-1.3a5.912 5.912 0 012.3-.45 3.6 3.6 0 013.05 1.65 6.794 6.794 0 011.2 4.15 5.748 5.748 0 01-3 5.3 26.09 26.09 0 01-7.1 2.95 33.75 33.75 0 01-8.45 1.1 26.5 26.5 0 01-12.85-3zm40.6 1.05a6.199 6.199 0 01-2.05-5v-55a6.2 6.2 0 012.05-5 8.001 8.001 0 015-1.75 7.849 7.849 0 015 1.75 6.35 6.35 0 012.05 5v55a6.35 6.35 0 01-2.05 5 7.847 7.847 0 01-5 1.75 7.999 7.999 0 01-5-1.75zM370 112.3a6.597 6.597 0 011.95 5v35.35a6.1 6.1 0 01-2.05 5 7.651 7.651 0 01-5.35 1.85 6.85 6.85 0 01-5-1.75 5.949 5.949 0 01-1.85-4.6v-1a14.998 14.998 0 01-5.8 5.6 19.4 19.4 0 01-21.5-3.05 22.051 22.051 0 01-4.35-15v-22.4a6.597 6.597 0 011.95-5 7.697 7.697 0 015.35-1.8 7.503 7.503 0 015.3 1.8 6.597 6.597 0 011.95 5V140a9.25 9.25 0 001.75 6.25 6.9 6.9 0 005.45 2 9.098 9.098 0 006.9-2.85 11.054 11.054 0 002.65-7.65V117.3a6.55 6.55 0 011.9-5 7.503 7.503 0 015.3-1.8 7.699 7.699 0 015.45 1.8zm20.6 46.2a23.056 23.056 0 01-7.6-3.05 5.995 5.995 0 01-2.25-2.35 6.913 6.913 0 01-.75-3.1 5.457 5.457 0 011.25-3.7 3.9 3.9 0 013.1-1.5 7.56 7.56 0 012.5.45c.8.3 1.7.6 2.6 1a30.043 30.043 0 005.3 1.95c2.088.547 4.242.8 6.4.75 1.81.094 3.615-.267 5.25-1.05a3.299 3.299 0 001.9-2.9 2.998 2.998 0 00-.8-2.15 7.802 7.802 0 00-3.05-1.5c-1.5-.45-3.8-1-7.05-1.65a26.908 26.908 0 01-12.3-5 11.551 11.551 0 01-3.75-9.15 12.552 12.552 0 012.65-7.8 17.6 17.6 0 017.25-5.45 26.6 26.6 0 0110.4-1.95 31.591 31.591 0 018.1 1.05 24.627 24.627 0 017 3 5.849 5.849 0 013 5.35 5.745 5.745 0 01-1.25 3.85 3.751 3.751 0 01-3.05 1.55 10.743 10.743 0 01-5.3-1.75 32.444 32.444 0 00-4.4-1.85 16.079 16.079 0 00-4.65-.65 8.652 8.652 0 00-4.75 1.15 3.451 3.451 0 00.3 6.1 31.913 31.913 0 007.8 2.1 42.198 42.198 0 0110 3.05c2.159.941 4 2.486 5.3 4.45a13 13 0 011.65 6.85 12.799 12.799 0 01-5.65 10.9 25.003 25.003 0 01-15 4.05 46.673 46.673 0 01-10.15-1.05z" fill="#000638"/><path fill-rule="evenodd" clip-rule="evenodd" d="M428.8 95.45a6.853 6.853 0 002.2 5.35v-.15a10.451 10.451 0 0012.15 0 6.85 6.85 0 002.2-5.35 6.75 6.75 0 00-2.25-5.25 8.848 8.848 0 00-6-1.95A9.2 9.2 0 00431 90a6.752 6.752 0 00-2.2 5.45zm.95 57.1a6.2 6.2 0 002.1 5h-.35a8.599 8.599 0 0010.4 0 6.35 6.35 0 002.05-5v-35a6.35 6.35 0 00-2.05-5 7.797 7.797 0 00-5-1.7 7.946 7.946 0 00-5 1.7 6.098 6.098 0 00-2.15 5v35zm26.5-4.7a21.356 21.356 0 008.75 8.6h-.15a30 30 0 0026.4 0 21.65 21.65 0 008.75-8.6 26.14 26.14 0 003.05-13A26.504 26.504 0 00500 121.8a21.199 21.199 0 00-8.6-8.55 31.002 31.002 0 00-26.4 0 20.9 20.9 0 00-8.75 8.55 26.501 26.501 0 00-3.1 13.05 26.198 26.198 0 003.1 13zm29.8-22.85a16.051 16.051 0 012.75 10c0 8.9-3.55 13.75-10.6 13.75s-10.6-4.5-10.6-13.55 3.55-13.6 10.6-13.6a9.599 9.599 0 017.85 3.4z" fill="#000638"/><path d="M554.35 115.25a23 23 0 014.1 15v22.25a6.497 6.497 0 01-1.95 5 7.4 7.4 0 01-5.35 1.85 7.305 7.305 0 01-5.3-1.85 6.652 6.652 0 01-1.9-5v-21.6a11.242 11.242 0 00-1.8-7.05 6.8 6.8 0 00-5.55-2.2 9.502 9.502 0 00-7.25 2.9 10.603 10.603 0 00-2.75 7.7v20a6.648 6.648 0 01-1.9 5 7.302 7.302 0 01-5.3 1.85 7.401 7.401 0 01-5.35-1.85 6.553 6.553 0 01-2-5V117.1a6.15 6.15 0 012.1-5 7.8 7.8 0 015.35-1.8 6.751 6.751 0 015 1.75 6.048 6.048 0 011.85 4.6v1.3a16.953 16.953 0 016.5-5.85 20.012 20.012 0 019-2 15.598 15.598 0 0112.5 5.15z" fill="#000638"/></svg>