<svg width="157" height="52" fill="none" xmlns="http://www.w3.org/2000/svg"><path d="M47.312 33.23a1.39 1.39 0 01-.37-1V21.44a1.38 1.38 0 011.5-1.47 1.46 1.46 0 011.09.4c.274.287.418.674.4 1.07v9.71h4.92c.93 0 1.4.41 1.4 1.23 0 .82-.47 1.21-1.4 1.21h-6.51a1.39 1.39 0 01-1.03-.36z" fill="#fff"/><path fill-rule="evenodd" clip-rule="evenodd" d="M65.841 31.88a1.21 1.21 0 00-.24-.78.74.74 0 00-.6-.26c-.15.005-.298.032-.44.08l-.52.21c-.38.15-.71.27-1 .36a3.414 3.414 0 01-1 .13 2.26 2.26 0 01-1.59-.5 2.58 2.58 0 01-.69-1.64h5.37a.73.73 0 00.57-.23.93.93 0 00.2-.64 5.23 5.23 0 00-.54-2.44 3.92 3.92 0 00-1.5-1.62 4.48 4.48 0 00-2.26-.56 4.709 4.709 0 00-2.4.62 4.459 4.459 0 00-1.65 1.74 5.389 5.389 0 00-.59 2.5 5.23 5.23 0 00.61 2.6 4.18 4.18 0 001.76 1.7 5.65 5.65 0 002.67.59 6.392 6.392 0 001.6-.22 6.514 6.514 0 001.51-.56 1.66 1.66 0 00.54-.47 1 1 0 00.19-.61zm-6.08-3.89a2.49 2.49 0 01.59-1.53 1.77 1.77 0 011.33-.53 1.61 1.61 0 011.27.52c.334.444.513.985.51 1.54h-3.7z" fill="#fff"/><path d="M69.181 33.55a4.649 4.649 0 01-1.51-.61 1.24 1.24 0 01-.45-.46 1.4 1.4 0 01-.15-.66 1.06 1.06 0 01.25-.73.77.77 0 01.61-.3c.17.002.339.029.5.08l.52.21c.344.155.699.285 1.06.39.419.106.85.153 1.28.14a2.17 2.17 0 001-.21.63.63 0 00.37-.57.56.56 0 00-.16-.43 1.49 1.49 0 00-.61-.3c-.29-.09-.76-.2-1.4-.33a5.23 5.23 0 01-2.45-1 2.28 2.28 0 01-.75-1.82 2.49 2.49 0 01.53-1.55 3.381 3.381 0 011.5-1.05 5.231 5.231 0 012.07-.39 6.18 6.18 0 011.63.19 5.22 5.22 0 011.4.59c.386.22.618.636.6 1.08a1.25 1.25 0 01-.25.77.78.78 0 01-.62.3 2.23 2.23 0 01-1-.34 5.709 5.709 0 00-.88-.38 3.184 3.184 0 00-.93-.12 1.72 1.72 0 00-.94.22.68.68 0 00-.34.6.67.67 0 00.4.62 6.403 6.403 0 001.55.42 9.004 9.004 0 012 .6c.414.197.761.51 1 .9.235.414.349.885.33 1.36a2.53 2.53 0 01-1.12 2.17 5 5 0 01-3 .8 9.435 9.435 0 01-2.04-.19z" fill="#fff"/><path fill-rule="evenodd" clip-rule="evenodd" d="M90.772 31.88a1.21 1.21 0 00-.24-.78.74.74 0 00-.58-.31 1.648 1.648 0 00-.45.08l-.51.21c-.38.15-.71.27-1 .36a3.462 3.462 0 01-1 .13 2.26 2.26 0 01-1.59-.5 2.58 2.58 0 01-.69-1.64h5.37a.75.75 0 00.57-.23.93.93 0 00.2-.64 5.23 5.23 0 00-.54-2.44 3.88 3.88 0 00-1.51-1.62 4.42 4.42 0 00-2.25-.56 4.66 4.66 0 00-2.4.62 4.46 4.46 0 00-1.65 1.74 5.83 5.83 0 000 5.15 4.13 4.13 0 001.76 1.7 5.65 5.65 0 002.67.59 6.25 6.25 0 001.59-.22 6.433 6.433 0 001.52-.56 1.68 1.68 0 00.54-.47 1 1 0 00.19-.61zm-6.08-3.89a2.49 2.49 0 01.59-1.53 1.75 1.75 0 011.33-.53 1.61 1.61 0 011.27.52c.333.444.512.985.51 1.54h-3.7z" fill="#fff"/><path d="M106.542 24.87c.622.87.916 1.933.83 3v4.48c.017.375-.129.74-.4 1a1.607 1.607 0 01-2 0 1.237 1.237 0 01-.42-1v-4.48a2.007 2.007 0 00-.32-1.29 1.192 1.192 0 00-1-.38 1.62 1.62 0 00-1.29.56 2.296 2.296 0 00-.52 1.59v4a1.26 1.26 0 01-.4 1 1.61 1.61 0 01-2 0 1.24 1.24 0 01-.42-1v-4.48a2 2 0 00-.31-1.29 1.22 1.22 0 00-1-.38 1.62 1.62 0 00-1.29.56 2.3 2.3 0 00-.48 1.55v4a1.27 1.27 0 01-.41 1 1.69 1.69 0 01-2.09.04 1.22 1.22 0 01-.43-1v-7a1.21 1.21 0 01.43-1 1.63 1.63 0 011-.34 1.4 1.4 0 011 .33c.26.237.4.579.38.93v.19a3.19 3.19 0 011.2-1.11 3.711 3.711 0 011.68-.38c.603-.03 1.204.1 1.74.38.497.312.877.78 1.08 1.33.296-.53.732-.97 1.26-1.27a3.686 3.686 0 011.85-.47 3.001 3.001 0 012.33.93z" fill="#fff"/><path fill-rule="evenodd" clip-rule="evenodd" d="M119.022 26.35a4.189 4.189 0 00-1.47-1.79 3.881 3.881 0 00-2.16-.62 3.767 3.767 0 00-1.76.41c-.53.25-.975.65-1.28 1.15v-.15a1.316 1.316 0 00-.39-1 1.401 1.401 0 00-1-.37 1.448 1.448 0 00-1 .37 1.309 1.309 0 00-.39 1v10.43c-.027.38.125.749.41 1 .303.248.688.377 1.08.36a1.42 1.42 0 001-.35c.262-.232.405-.57.39-.92v-3.62c.283.473.696.855 1.19 1.1a3.839 3.839 0 001.74.39 3.851 3.851 0 003.64-2.29 5.9 5.9 0 00.53-2.52 6.017 6.017 0 00-.53-2.58zm-2.34 2.51a3.062 3.062 0 01-.56 2v-.01a2.142 2.142 0 01-3.15 0 3.89 3.89 0 010-4 1.898 1.898 0 011.58-.71 1.88 1.88 0 011.57.72c.399.588.595 1.29.56 2z" fill="#fff"/><path d="M121.732 33.35a1.266 1.266 0 01-.41-1v-11c-.02-.378.131-.744.41-1a1.598 1.598 0 011-.34c.362-.006.716.114 1 .34.278.256.429.622.41 1v11c.019.378-.132.744-.41 1a1.572 1.572 0 01-1 .35c-.364 0-.717-.123-1-.35z" fill="#fff"/><path fill-rule="evenodd" clip-rule="evenodd" d="M126.602 31.43a4.218 4.218 0 001.74 1.71c1.661.8 3.598.8 5.26 0a4.186 4.186 0 001.75-1.71 5.855 5.855 0 000-5.2 4.225 4.225 0 00-1.75-1.7 6.16 6.16 0 00-5.26 0 4.24 4.24 0 00-1.74 1.7 5.76 5.76 0 000 5.2zm5.94-4.6a3.21 3.21 0 01.54 2c0 1.81-.71 2.74-2.11 2.74s-2.11-.91-2.11-2.71c0-1.8.71-2.71 2.11-2.71a1.92 1.92 0 011.57.68zm5.039-5.85c-.022.405.139.798.44 1.07v-.04a2.07 2.07 0 002.42 0c.298-.274.459-.666.44-1.07a1.308 1.308 0 00-.45-1 1.718 1.718 0 00-1.2-.4 1.762 1.762 0 00-1.21.39c-.302.262-.465.65-.44 1.05zm.15 11.37c-.019.378.132.744.41 1 .286.23.643.354 1.01.35.365.007.72-.117 1-.35.287-.251.441-.62.42-1v-7a1.237 1.237 0 00-.42-1 1.508 1.508 0 00-1-.34 1.592 1.592 0 00-1 .34c-.286.251-.44.62-.42 1v7z" fill="#fff"/><path d="M144.391 33.55a4.713 4.713 0 01-1.52-.61 1.211 1.211 0 01-.44-.46 1.412 1.412 0 01-.15-.66 1.062 1.062 0 01.25-.73.76.76 0 01.61-.3c.17.002.339.03.5.08l.52.21c.341.155.692.285 1.05.39.422.105.856.152 1.29.14.346.011.689-.06 1-.21a.637.637 0 00.38-.57.56.56 0 00-.17-.43 1.489 1.489 0 00-.6-.3c-.29-.09-.76-.2-1.4-.33a5.278 5.278 0 01-2.46-1 2.282 2.282 0 01-.75-1.82 2.494 2.494 0 01.53-1.55c.394-.478.908-.84 1.49-1.05a5.3 5.3 0 012.07-.39c.547 0 1.092.07 1.62.21.493.13.964.328 1.4.59.381.224.607.639.59 1.08.01.278-.079.55-.25.77a.758.758 0 01-.61.3 2.232 2.232 0 01-1.06-.34 6.017 6.017 0 00-.87-.38 3.172 3.172 0 00-.93-.12 1.7 1.7 0 00-.94.22.681.681 0 00.06 1.22 6.141 6.141 0 001.55.42c.689.12 1.36.32 2 .6.433.192.801.504 1.06.9a2.749 2.749 0 01-.8 3.53 4.998 4.998 0 01-3 .8 9.282 9.282 0 01-2.02-.21z" fill="#fff"/><path fill-rule="evenodd" clip-rule="evenodd" d="M53.181 40.82a.61.61 0 00-.16-.42h.05a.71.71 0 00-.9 0 .57.57 0 00-.15.42v4a2.4 2.4 0 00-1-1.07 2.87 2.87 0 00-1.49-.37 3 3 0 00-2.83 1.78 4.58 4.58 0 00-.4 2 4.68 4.68 0 00.4 2 3.19 3.19 0 001.14 1.34 3 3 0 001.69.48 2.87 2.87 0 001.49-.38 2.37 2.37 0 001-1.06v.81a.61.61 0 101.16 0v-9.53zm-1.16 6.37a3.28 3.28 0 01-.62 2.06l.04-.04a2.22 2.22 0 01-3.29 0 3.19 3.19 0 01-.6-2.07 3 3 0 01.6-2 2 2 0 011.65-.72 2 2 0 011.64.72 3.21 3.21 0 01.58 2.05zm9.471 2.51a.51.51 0 00-.12-.35.37.37 0 00-.29-.14 1.372 1.372 0 00-.52.22 7.2 7.2 0 01-.9.43 3 3 0 01-1 .16c-1.54 0-2.36-.86-2.45-2.58h4.81a.5.5 0 00.39-.13.66.66 0 00.12-.44 3.59 3.59 0 00-.84-2.51 2.9 2.9 0 00-2.26-.93 3.35 3.35 0 00-1.79.48 3.17 3.17 0 00-1.22 1.34 4.311 4.311 0 00-.44 2 3.81 3.81 0 001 2.77 3.59 3.59 0 002.68 1 4.75 4.75 0 002.3-.63c.35-.21.53-.44.53-.69zm-5.25-3.03a2.76 2.76 0 01.69-1.69v-.04a2 2 0 011.53-.59 1.88 1.88 0 011.47.62 2.6 2.6 0 01.55 1.7h-4.24z" fill="#fff"/><path d="M69.082 50.64a1.27 1.27 0 01-.41-1v-11a1.27 1.27 0 01.41-1 1.6 1.6 0 011-.34 1.56 1.56 0 011 .34c.278.256.429.622.41 1v11a1.27 1.27 0 01-.41 1c-.283.23-.637.353-1 .35a1.6 1.6 0 01-1-.35zm7.27-12.85a2.47 2.47 0 01.46 1.56 4.88 4.88 0 01-1.44 3.49.8.8 0 01-.6.27.87.87 0 01-.57-.22.69.69 0 01-.04-1.03 3.46 3.46 0 00.86-1.41 1.61 1.61 0 01-1-.48 1.48 1.48 0 01-.4-1.07 1.62 1.62 0 01.4-1.18 1.46 1.46 0 011.12-.47 1.54 1.54 0 011.21.54z" fill="#fff"/><path fill-rule="evenodd" clip-rule="evenodd" d="M78.582 38.28a1.37 1.37 0 00.44 1.07 2.07 2.07 0 002.43 0 1.34 1.34 0 00.43-1.06 1.31 1.31 0 00-.45-1 1.72 1.72 0 00-1.2-.4 1.78 1.78 0 00-1.21.39 1.32 1.32 0 00-.44 1zm.19 11.38c-.021.38.133.749.42 1a1.71 1.71 0 002.07 0 1.27 1.27 0 00.41-1v-7a1.27 1.27 0 00-.41-1 1.73 1.73 0 00-2.06 0 1.22 1.22 0 00-.43 1v7z" fill="#fff"/><path d="M92.332 42.21a4.57 4.57 0 01.83 3v4.43a1.26 1.26 0 01-.4 1 1.7 1.7 0 01-2.12 0 1.32 1.32 0 01-.38-1v-4.29a2.23 2.23 0 00-.36-1.4 1.33 1.33 0 00-1.1-.44 1.9 1.9 0 00-1.45.58 2.13 2.13 0 00-.54 1.53v4a1.29 1.29 0 01-.39 1 1.48 1.48 0 01-1.05.37 1.53 1.53 0 01-1.07-.37 1.29 1.29 0 01-.39-1v-7a1.22 1.22 0 01.41-1 1.57 1.57 0 011.07-.36 1.35 1.35 0 011 .35c.25.236.388.567.38.91v.27a3.302 3.302 0 011.25-1.17 3.941 3.941 0 011.8-.4 3.09 3.09 0 012.51.99zm4.8 8.22a4.08 4.08 0 01-1.68-1.69 5.379 5.379 0 01-.58-2.57 5.209 5.209 0 01.62-2.6 4.31 4.31 0 011.75-1.74 5.408 5.408 0 012.61-.61 5.92 5.92 0 011.549.21 5.3 5.3 0 011.39.59 1.2 1.2 0 01.6 1.08c.011.288-.069.571-.23.81a.72.72 0 01-.62.32c-.161.001-.32-.03-.47-.09-.15 0-.34-.14-.58-.25a5.333 5.333 0 00-.72-.33 1.994 1.994 0 00-.72-.12 2 2 0 00-1.64.69 3 3 0 00-.57 2 3.08 3.08 0 00.57 2 2 2 0 001.64.69 2.2 2.2 0 00.71-.11c.254-.093.502-.203.74-.33l.58-.26c.146-.061.303-.092.46-.09.246 0 .476.124.61.33.167.24.251.528.24.82.022.44-.212.852-.6 1.06-.441.266-.92.465-1.42.59a6.692 6.692 0 01-1.69.21 5.22 5.22 0 01-2.55-.61zm8.09.21a1.237 1.237 0 01-.42-1v-11c-.021-.38.133-.749.42-1a1.75 1.75 0 012.07 0c.282.253.433.622.41 1v11c.023.379-.128.747-.41 1a1.71 1.71 0 01-2.07 0zm13.39-9.02c.27.26.416.625.4 1v7c.027.381-.129.753-.42 1a1.551 1.551 0 01-1.06.37 1.369 1.369 0 01-1-.35 1.227 1.227 0 01-.37-.92v-.19a2.948 2.948 0 01-1.14 1.11 3.92 3.92 0 01-4.28-.6 4.427 4.427 0 01-.87-3v-4.42a1.297 1.297 0 01.39-1c.298-.251.68-.38 1.07-.36.383-.024.761.106 1.05.36.267.262.41.626.39 1v4.49c-.032.442.092.88.35 1.24.286.287.685.434 1.09.4a1.75 1.75 0 001.37-.58c.365-.416.555-.957.53-1.51v-4a1.296 1.296 0 01.38-1 1.498 1.498 0 011.06-.36c.381-.031.759.083 1.06.32zm4.159 9.21a4.713 4.713 0 01-1.52-.61 1.211 1.211 0 01-.44-.46 1.412 1.412 0 01-.15-.66 1.062 1.062 0 01.25-.73.76.76 0 01.61-.3c.171 0 .34.031.5.09.177.057.351.124.52.2.325.152.659.283 1 .39.422.105.856.152 1.29.14.346.012.689-.06 1-.21a.637.637 0 00.38-.57.56.56 0 00-.17-.43 1.427 1.427 0 00-.6-.3c-.29-.09-.76-.2-1.4-.33a5.278 5.278 0 01-2.46-1 2.282 2.282 0 01-.75-1.82 2.494 2.494 0 01.53-1.55c.38-.484.88-.86 1.45-1.09a5.3 5.3 0 012.07-.39c.547 0 1.092.07 1.62.21.493.13.964.328 1.4.59.379.226.605.64.59 1.08.011.278-.077.551-.25.77a.758.758 0 01-.61.3 2.232 2.232 0 01-1.06-.34 6.017 6.017 0 00-.87-.38 3.172 3.172 0 00-.93-.12 1.7 1.7 0 00-.94.22.681.681 0 00.06 1.22 6.145 6.145 0 001.55.42 8.987 8.987 0 012 .6c.428.195.792.507 1.05.9a2.749 2.749 0 01-.8 3.53 4.998 4.998 0 01-3 .8 9.291 9.291 0 01-1.92-.17z" fill="#fff"/><path fill-rule="evenodd" clip-rule="evenodd" d="M130.392 38.28a1.34 1.34 0 00.44 1.07 2.06 2.06 0 002.41 0c.303-.27.468-.664.45-1.07a1.292 1.292 0 00-.46-1 2 2 0 00-2.4 0 1.277 1.277 0 00-.44 1zm.22 11.36c-.024.379.127.747.41 1h-.06a1.71 1.71 0 002.07 0c.282-.253.433-.621.41-1v-7a1.243 1.243 0 00-.41-1 1.54 1.54 0 00-1-.34 1.578 1.578 0 00-1 .34c-.287.251-.441.62-.42 1v7zm5.239-.93a4.246 4.246 0 001.75 1.71c1.662.8 3.599.8 5.26 0a4.234 4.234 0 001.75-1.71 5.848 5.848 0 000-5.2 4.28 4.28 0 00-1.75-1.7 6.16 6.16 0 00-5.26 0 4.292 4.292 0 00-1.75 1.7 5.855 5.855 0 000 5.2zm5.94-4.6c.406.585.6 1.29.55 2 0 1.81-.7 2.74-2.11 2.74s-2.11-.91-2.11-2.71c0-1.8.7-2.7 2.11-2.7a1.88 1.88 0 011.56.67z" fill="#fff"/><path d="M155.412 42.21c.615.873.905 1.935.82 3v4.43a1.29 1.29 0 01-.39 1 1.53 1.53 0 01-1.07.37 1.49 1.49 0 01-1.05-.37 1.276 1.276 0 01-.38-1v-4.29a2.236 2.236 0 00-.36-1.4 1.34 1.34 0 00-1.1-.44 1.879 1.879 0 00-1.45.58c-.382.415-.58.967-.55 1.53v4c.02.372-.118.735-.38 1a1.7 1.7 0 01-2.12 0 1.258 1.258 0 01-.4-1v-7a1.196 1.196 0 01.42-1 1.55 1.55 0 011.06-.36 1.37 1.37 0 011 .35c.247.237.382.568.37.91v.27a3.38 3.38 0 011.3-1.17 3.889 3.889 0 011.79-.4 3.091 3.091 0 012.49.99z" fill="#fff"/><path d="M22.25 25.65a6.436 6.436 0 00-1.92.29 6.54 6.54 0 001.92 12.8 6.793 6.793 0 001.93-.29 6.55 6.55 0 00-1.93-12.8z" fill="#80829B"/><path d="M20.45 28.47a5 5 0 11-9.531 3.026 5 5 0 019.531-3.026zm14.16 15.68a4.9 4.9 0 11-9.366 2.883 4.9 4.9 0 019.366-2.883zM4.32 36.91a3.38 3.38 0 10-.009 6.76 3.38 3.38 0 00.009-6.76" fill="#fff"/><path d="M35.54 30.86a2.5 2.5 0 10.74 4.89 2.5 2.5 0 00-.74-4.89zM8.68 11.49a5.56 5.56 0 10.017 11.12 5.56 5.56 0 00-.017-11.12zM31 1.79a10.39 10.39 0 00-.06 20.78A10.39 10.39 0 0031 1.79" fill="#CCCDD7"/><path d="M41.13 7.64a4.29 4.29 0 10.01 8.58 4.29 4.29 0 10-.01-8.58z" fill="#fff"/></svg>