<svg xmlns="http://www.w3.org/2000/svg" preserveAspectRatio="xMinYMid meet" width="189" height="61"><g fill="none"><path fill="#000638" d="M56.585 39.4a1.78 1.78 0 01-.484-1.326V24.981c-.05-.465.111-.928.44-1.258.33-.331.79-.494 1.254-.444h5.845a6.033 6.033 0 014.163 1.35 4.874 4.874 0 011.489 3.768 4.874 4.874 0 01-1.489 3.781 5.925 5.925 0 01-4.163 1.386h-3.909v4.559c.023.491-.156.97-.496 1.325-.352.343-.83.523-1.32.498-.5.011-.981-.187-1.33-.547zm9.306-10.942c0-1.592-.908-2.431-2.723-2.431h-3.437v4.802h3.437c1.815 0 2.723-.815 2.723-2.432v.061zm5.966 11.014a1.547 1.547 0 01-.496-1.215V24.884c-.023-.46.159-.905.496-1.216a1.937 1.937 0 012.42 0c.342.308.525.756.497 1.216v13.373a1.51 1.51 0 01-.496 1.215c-.342.279-.77.43-1.21.426-.44 0-.867-.15-1.21-.426zM86.44 29.224a5.182 5.182 0 011.21 3.757v5.276c.025.45-.137.89-.447 1.215-.33.303-.765.46-1.21.438a1.618 1.618 0 01-1.21-.462 1.585 1.585 0 01-.449-1.216v-.109a2.865 2.865 0 01-1.21 1.35 3.618 3.618 0 01-1.912.486 4.617 4.617 0 01-2.106-.462 3.637 3.637 0 01-1.452-1.374 3.342 3.342 0 01-.544-1.86 2.865 2.865 0 01.641-1.994 3.866 3.866 0 012.057-1.045c1.28-.25 2.582-.36 3.885-.328h.605v-.426a1.61 1.61 0 00-.44-1.43 1.593 1.593 0 00-1.424-.442 9.224 9.224 0 00-2.88.705 2.25 2.25 0 01-.908.255 1.015 1.015 0 01-.822-.364 1.427 1.427 0 01-.303-.937c-.01-.275.066-.548.218-.778.178-.233.405-.424.665-.559a8.132 8.132 0 011.997-.705c.76-.168 1.534-.254 2.312-.255a5.068 5.068 0 013.727 1.264zm-2.771 7.598a2.597 2.597 0 00.63-1.787v-.401h-.4a8.134 8.134 0 00-2.638.304c-.47.152-.781.599-.763 1.094-.015.403.144.793.436 1.07a1.52 1.52 0 001.077.413 2.137 2.137 0 001.658-.693zm13.977.851c.224.24.342.56.327.888.009.413-.192.802-.532 1.033a2.495 2.495 0 01-1.537.28h-.654c-2.71-.22-4.066-1.646-4.066-4.28v-4.68h-.92c-.43.04-.859-.076-1.21-.328a1.218 1.218 0 01-.4-.973c-.027-.376.12-.745.4-.997a1.79 1.79 0 011.21-.34h.932v-1.824c-.021-.454.15-.896.472-1.215.35-.322.809-.497 1.283-.487a1.81 1.81 0 011.283.438c.313.324.48.764.46 1.216v1.823h1.621c1.053 0 1.574.45 1.574 1.338.023.366-.12.723-.388.972a1.845 1.845 0 01-1.21.328h-1.597v4.863a1.55 1.55 0 00.326 1.07c.251.259.597.404.956.401h.654c.384.033.744.2 1.016.474zm11.558-.96c.201.278.304.616.29.96a1.293 1.293 0 01-.242.742 1.903 1.903 0 01-.653.571 7.856 7.856 0 01-1.828.68 7.7 7.7 0 01-1.936.268 6.86 6.86 0 01-3.243-.717 5.069 5.069 0 01-2.13-2.067 7.03 7.03 0 010-6.273 5.254 5.254 0 011.997-2.115 5.584 5.584 0 012.916-.766 5.294 5.294 0 012.735.693 4.72 4.72 0 011.815 1.957 6.48 6.48 0 01.654 2.991c.023.281-.063.56-.242.778a.857.857 0 01-.69.268h-6.51c.03.743.327 1.451.834 1.993a2.787 2.787 0 001.937.62 4.17 4.17 0 001.21-.158c.412-.125.816-.276 1.21-.45l.63-.243c.169-.067.35-.104.532-.11a.955.955 0 01.714.378zm-6.366-5.641c-.444.52-.7 1.175-.726 1.86h4.49a3.097 3.097 0 00-.617-1.872 1.908 1.908 0 00-1.55-.632 2.09 2.09 0 00-1.597.644zm13.566-4.644c-.309.42-.459.938-.423 1.459v.389h1.634c1.053 0 1.573.45 1.573 1.337 0 .888-.52 1.3-1.573 1.3h-1.634v7.295c.023.46-.159.905-.496 1.216-.342.278-.77.429-1.21.425a1.907 1.907 0 01-1.21-.425 1.51 1.51 0 01-.497-1.216v-7.294h-.932c-1.04 0-1.56-.426-1.56-1.3 0-.876.52-1.338 1.56-1.338h.932a4.876 4.876 0 011.21-3.526 5.023 5.023 0 013.389-1.446h1.029c1.065 0 1.597.405 1.597 1.215 0 .815-.448 1.216-1.343 1.338h-.605a1.847 1.847 0 00-1.44.571zm6.088 12.777a5.07 5.07 0 01-2.118-2.079 7.165 7.165 0 010-6.334 5.045 5.045 0 012.118-2.066 7.34 7.34 0 016.377 0 5.118 5.118 0 012.118 2.066 7.165 7.165 0 010 6.334 5.142 5.142 0 01-2.118 2.079 7.34 7.34 0 01-6.377 0zm5.748-5.252a3.818 3.818 0 00-.665-2.431 2.295 2.295 0 00-1.9-.827c-1.707 0-2.554 1.106-2.554 3.295 0 2.188.847 3.294 2.554 3.294 1.706 0 2.565-1.13 2.565-3.33zm13.554-5.556c.282.287.428.68.4 1.082.05.439-.081.878-.363 1.216-.382.296-.85.458-1.332.462l-.702.073a2.657 2.657 0 00-1.851.839 2.78 2.78 0 00-.569 1.8v4.46a1.51 1.51 0 01-.496 1.216c-.342.279-.77.43-1.21.426a1.93 1.93 0 01-1.271-.426 1.547 1.547 0 01-.496-1.215v-8.717a1.45 1.45 0 01.508-1.216 1.93 1.93 0 011.21-.425c.443-.032.879.117 1.21.413.323.284.497.701.472 1.13v.633a3.267 3.267 0 011.271-1.544 3.933 3.933 0 011.852-.608h.314c.39-.008.767.136 1.053.401zm18.335.742a5.525 5.525 0 011.004 3.647v5.398c.028.457-.15.903-.484 1.215-.342.28-.77.43-1.21.426a1.919 1.919 0 01-1.21-.426 1.51 1.51 0 01-.509-1.215v-5.398a2.44 2.44 0 00-.387-1.568 1.437 1.437 0 00-1.21-.462 1.956 1.956 0 00-1.561.68 2.817 2.817 0 00-.581 1.897v4.863c.028.457-.15.904-.484 1.216-.342.279-.77.43-1.21.425a1.92 1.92 0 01-1.21-.425 1.51 1.51 0 01-.509-1.216v-5.41a2.44 2.44 0 00-.387-1.568 1.437 1.437 0 00-1.21-.462 1.956 1.956 0 00-1.561.68 2.817 2.817 0 00-.581 1.897v4.863c.023.46-.16.905-.497 1.216-.342.278-.77.428-1.21.425a1.92 1.92 0 01-1.21-.425 1.51 1.51 0 01-.508-1.216v-8.583a1.425 1.425 0 01.52-1.216 1.983 1.983 0 011.27-.425c.443-.028.878.12 1.211.413.32.285.49.703.46 1.13v.232a3.722 3.722 0 011.464-1.35 4.256 4.256 0 012.033-.474 3.98 3.98 0 012.082.51 3.243 3.243 0 011.32 1.618c.35-.65.873-1.189 1.512-1.556a4.486 4.486 0 012.25-.572c.997.03 1.938.47 2.603 1.216zm13.639 7.574c.201.278.303.616.29.96a1.22 1.22 0 01-.23.742c-.174.235-.397.43-.653.571a7.949 7.949 0 01-1.84.68 7.633 7.633 0 01-1.924.268 6.92 6.92 0 01-3.256-.717 5.069 5.069 0 01-2.13-2.067 7.08 7.08 0 010-6.273 5.096 5.096 0 011.997-2.115 5.511 5.511 0 012.905-.766 5.294 5.294 0 012.735.693 4.745 4.745 0 011.827 1.957 6.48 6.48 0 01.654 2.991c.017.28-.07.557-.242.778a.893.893 0 01-.69.268h-6.584a3.11 3.11 0 00.835 1.993c.54.445 1.228.667 1.925.62.409.009.817-.044 1.21-.158a9.943 9.943 0 001.21-.45l.63-.243a1.7 1.7 0 01.532-.11.942.942 0 01.799.378zm-6.366-5.641a3.035 3.035 0 00-.714 1.86h4.49a3.097 3.097 0 00-.617-1.872 1.932 1.932 0 00-1.55-.632 2.113 2.113 0 00-1.67.644h.06zM63.47 48.055c.136.134.21.32.205.51v11.598a.756.756 0 01-.205.535.784.784 0 01-.545.195.748.748 0 01-.532-.195.805.805 0 01-.194-.535v-.984a2.96 2.96 0 01-1.21 1.3 3.533 3.533 0 01-1.815.45 3.618 3.618 0 01-2.046-.583 3.873 3.873 0 01-1.38-1.63 6.177 6.177 0 010-4.862c.3-.652.78-1.204 1.38-1.593a3.918 3.918 0 013.86-.121 2.96 2.96 0 011.211 1.3v-4.862a.744.744 0 01.194-.523.748.748 0 01.532-.194c.2-.013.397.058.545.194zM61.51 58.79a4.013 4.013 0 00.689-2.432 3.94 3.94 0 00-.69-2.492 2.717 2.717 0 00-3.993 0 3.768 3.768 0 00-.727 2.431 3.915 3.915 0 00.727 2.517 2.416 2.416 0 001.996.9 2.416 2.416 0 001.997-.924zm12.077.121a.6.6 0 01.145.414c0 .303-.218.583-.641.838a5.716 5.716 0 01-2.796.766 4.237 4.237 0 01-3.231-1.215 4.595 4.595 0 01-1.21-3.368 5.345 5.345 0 01.532-2.431 4.005 4.005 0 011.477-1.63 4.076 4.076 0 012.166-.583 3.514 3.514 0 012.747 1.13 4.414 4.414 0 011.017 3.064.83.83 0 01-.146.535.603.603 0 01-.472.158h-5.833c.11 2.091 1.09 3.137 2.953 3.137a3.35 3.35 0 001.21-.195 8.526 8.526 0 001.09-.51 1.54 1.54 0 01.629-.28.423.423 0 01.363.17zm-5.385-5.337a3.388 3.388 0 00-.823 2.067h5.13a3.146 3.146 0 00-.665-2.067 2.234 2.234 0 00-1.779-.73 2.523 2.523 0 00-1.863.73zm14.8 6.942a1.535 1.535 0 01-.496-1.216V45.928c-.023-.46.159-.905.496-1.216.332-.307.76-.487 1.21-.51.44-.008.867.138 1.21.413.338.31.52.756.497 1.215v13.373c.025.46-.158.906-.496 1.216a1.9 1.9 0 01-1.21.425 1.93 1.93 0 01-1.21-.328zm8.75-15.646c.401.56.598 1.244.557 1.933a5.97 5.97 0 01-1.743 4.255.966.966 0 01-.726.328 1.074 1.074 0 01-.702-.267.84.84 0 010-1.216 4.1 4.1 0 001.029-1.75 1.957 1.957 0 01-1.283-.584 1.828 1.828 0 01-.484-1.313 1.999 1.999 0 01.544-1.435 1.79 1.79 0 011.32-.62 1.86 1.86 0 011.488.669zm3.255 1.872a1.62 1.62 0 01-.532-1.325 1.608 1.608 0 01.532-1.216 2.412 2.412 0 012.917 0c.348.307.547.75.544 1.216a1.67 1.67 0 01-.532 1.289c-.866.66-2.063.66-2.929 0v.036zm.194 13.774a1.535 1.535 0 01-.496-1.216v-8.51a1.51 1.51 0 01.508-1.215 1.92 1.92 0 011.21-.426c.44-.003.868.147 1.21.426.338.31.52.756.497 1.215v8.51c.024.46-.158.906-.497 1.216-.342.278-.77.429-1.21.425a1.931 1.931 0 01-1.222-.425zm15.926-10.236a5.587 5.587 0 01.992 3.647v5.398c.028.455-.145.899-.472 1.215a1.786 1.786 0 01-1.294.45 1.714 1.714 0 01-1.21-.45 1.56 1.56 0 01-.473-1.215v-5.277a2.757 2.757 0 00-.423-1.702 1.618 1.618 0 00-1.344-.547 2.318 2.318 0 00-1.754.706c-.46.51-.7 1.184-.666 1.872v4.862c.026.453-.141.895-.46 1.216-.35.316-.812.478-1.283.45a1.81 1.81 0 01-1.295-.45 1.56 1.56 0 01-.471-1.216v-8.534c-.033-.46.15-.91.496-1.215a1.907 1.907 0 011.295-.45c.446-.028.884.13 1.21.437.3.288.462.69.448 1.107v.328a4.109 4.109 0 011.573-1.422 4.714 4.714 0 012.178-.487 3.732 3.732 0 012.953 1.277zm5.76 9.98a4.852 4.852 0 01-2.033-2.054 6.577 6.577 0 01-.714-3.124 6.406 6.406 0 01.763-3.173 5.264 5.264 0 012.13-2.115 6.487 6.487 0 013.158-.742 7.11 7.11 0 011.876.255 6.386 6.386 0 011.682.718c.465.269.744.774.726 1.312.014.354-.084.702-.278.997a.87.87 0 01-.75.377 1.519 1.519 0 01-.569-.097l-.702-.316a8.453 8.453 0 00-.871-.401 2.47 2.47 0 00-.872-.134 2.415 2.415 0 00-1.996.827 3.659 3.659 0 00-.69 2.431 3.757 3.757 0 00.69 2.431c.497.58 1.236.89 1.996.84.292.001.582-.044.86-.135.31-.115.613-.249.907-.4.29-.147.52-.244.69-.317.176-.073.366-.11.557-.11a.87.87 0 01.738.402c.202.292.304.642.29.997a1.387 1.387 0 01-.726 1.288 5.964 5.964 0 01-1.718.73 8.062 8.062 0 01-2.045.255 6.342 6.342 0 01-3.098-.741zm9.864.256a1.51 1.51 0 01-.509-1.216V45.928a1.51 1.51 0 01.509-1.216 2.11 2.11 0 012.505 0c.346.305.533.754.508 1.216V59.3a1.51 1.51 0 01-.508 1.216 2.062 2.062 0 01-2.505 0zm16.228-10.978c.333.313.51.759.484 1.216v8.51c.033.463-.155.915-.508 1.215-.354.31-.813.471-1.283.45a1.653 1.653 0 01-1.21-.425 1.438 1.438 0 01-.448-1.119v-.23a3.494 3.494 0 01-1.343 1.36 4.691 4.691 0 01-5.192-.729 5.403 5.403 0 01-1.053-3.647v-5.385a1.584 1.584 0 01.472-1.216c.359-.31.822-.471 1.295-.45.446-.008.878.152 1.21.45.325.318.497.761.472 1.216v5.47c-.04.541.11 1.08.424 1.52.347.35.83.527 1.32.486a2.15 2.15 0 001.67-.705 2.621 2.621 0 00.628-1.835v-4.936a1.584 1.584 0 01.472-1.216 1.79 1.79 0 011.307-.474c.473-.013.932.157 1.283.474zm5.035 11.221a5.625 5.625 0 01-1.828-.754 1.42 1.42 0 01-.544-.559 1.684 1.684 0 01-.182-.79 1.329 1.329 0 01.303-.9.942.942 0 01.75-.364c.206.001.411.038.605.109.21.07.416.15.617.243.416.188.845.347 1.283.474a5.75 5.75 0 001.561.183c.42.015.836-.077 1.21-.268a.766.766 0 00.448-.693.731.731 0 00-.193-.535 1.98 1.98 0 00-.739-.352c-.35-.11-.92-.243-1.694-.401a6.495 6.495 0 01-2.977-1.216 2.802 2.802 0 01-.908-2.225 3.06 3.06 0 01.642-1.884 4.092 4.092 0 011.755-1.325 6.364 6.364 0 012.517-.474 7.52 7.52 0 011.948.255 6.47 6.47 0 011.694.717c.465.27.745.774.727 1.313.013.338-.094.67-.303.936a.955.955 0 01-.75.377 2.727 2.727 0 01-1.271-.425 6.12 6.12 0 00-1.065-.45 3.447 3.447 0 00-1.125-.158 2.05 2.05 0 00-1.138.267.852.852 0 00-.424.742c0 .325.197.618.497.741a7.802 7.802 0 001.875.523 9.71 9.71 0 012.42.73c.52.232.965.607 1.284 1.081.283.508.421 1.084.399 1.666a3.093 3.093 0 01-1.283 2.662 6.03 6.03 0 01-3.63.985c-.833.008-1.664-.07-2.481-.231zm9.778-14.017a1.62 1.62 0 01-.532-1.288 1.608 1.608 0 01.532-1.253 2.412 2.412 0 012.917 0c.364.32.565.79.544 1.277a1.67 1.67 0 01-.532 1.288 2.411 2.411 0 01-2.929 0v-.024zm.242 13.774a1.535 1.535 0 01-.496-1.216v-8.51a1.51 1.51 0 01.508-1.215 1.92 1.92 0 011.21-.426c.44-.003.868.147 1.21.426.338.31.52.756.497 1.215v8.51a1.54 1.54 0 01-.496 1.216c-.343.278-.77.429-1.21.425a1.931 1.931 0 01-1.223-.425zm7.963-.268a5.142 5.142 0 01-2.118-2.078 6.382 6.382 0 01-.738-3.161 6.467 6.467 0 01.738-3.173 5.19 5.19 0 012.118-2.067 7.448 7.448 0 016.378 0 5.118 5.118 0 012.118 2.067c.516.975.775 2.068.75 3.173a6.394 6.394 0 01-.75 3.16 5.07 5.07 0 01-2.118 2.08 7.232 7.232 0 01-6.378 0zm5.748-5.24a3.855 3.855 0 00-.665-2.43 2.27 2.27 0 00-1.888-.815c-1.706 0-2.566 1.094-2.566 3.294s.86 3.295 2.566 3.295 2.553-1.143 2.553-3.343zm15.842-4.728a5.586 5.586 0 011.004 3.647v5.398c.028.455-.145.899-.472 1.215a1.81 1.81 0 01-1.295.45 1.762 1.762 0 01-1.282-.45 1.548 1.548 0 01-.46-1.215v-5.277c.05-.6-.104-1.2-.436-1.702a1.594 1.594 0 00-1.331-.547 2.342 2.342 0 00-1.767.706 2.658 2.658 0 00-.653 1.872v4.862c.027.456-.145.9-.472 1.216-.35.318-.813.48-1.283.45a1.774 1.774 0 01-1.283-.45 1.523 1.523 0 01-.484-1.216v-8.534a1.462 1.462 0 01.508-1.215 1.87 1.87 0 011.283-.45c.446-.028.884.13 1.21.437.303.287.47.69.46 1.107v.328c.386-.61.93-1.101 1.573-1.422a4.69 4.69 0 012.167-.487 3.731 3.731 0 013.013 1.277z"/><path fill="#7F829B" d="M26.427 29.188a7.761 7.761 0 00-2.324.352c-3.762 1.143-6.12 4.886-5.536 8.79.583 3.904 3.93 6.787 7.86 6.771a8.185 8.185 0 002.335-.353c3.73-1.174 6.05-4.903 5.467-8.785-.582-3.882-3.894-6.758-7.802-6.775"/><path fill="#000638" d="M24.248 32.616a6.096 6.096 0 01-1.89 6.506 6.029 6.029 0 01-6.71.704 6.085 6.085 0 01-3.188-5.973 6.072 6.072 0 014.297-5.225c3.162-.943 6.493.83 7.491 3.988zm17.137 19.062c.963 3.143-.792 6.476-3.921 7.445-3.129.969-6.447-.793-7.413-3.936-.966-3.143.787-6.477 3.915-7.448a5.906 5.906 0 014.522.425 5.95 5.95 0 012.897 3.514z"/><path fill="#4C5073" d="M4.728 42.876c-.41.001-.818.062-1.21.183a4.111 4.111 0 00-2.783 4.839 4.091 4.091 0 004.595 3.15 4.105 4.105 0 003.472-4.366 4.098 4.098 0 00-4.074-3.806"/><path fill="#B2B4C3" d="M42.51 35.521c-.3-.003-.598.042-.883.134a3.04 3.04 0 00-2.105 3.354 3.03 3.03 0 002.988 2.59 3.24 3.24 0 00.896-.133 3.04 3.04 0 002.104-3.36 3.03 3.03 0 00-3-2.585"/><path fill="#999BAF" d="M10.004 11.974a6.64 6.64 0 00-1.984.303c-3.363 1.05-5.352 4.525-4.563 7.971.79 3.447 4.091 5.7 7.572 5.167 3.48-.533 5.964-3.672 5.695-7.198-.269-3.527-3.199-6.249-6.72-6.243"/><path fill="#E5E6EB" d="M37.016.181c-1.256 0-2.505.193-3.703.572-5.914 1.85-9.607 7.75-8.702 13.906.905 6.155 6.138 10.731 12.332 10.784a12.678 12.678 0 003.703-.559c5.935-1.835 9.647-7.746 8.74-13.917C48.48 4.797 43.225.215 37.016.181"/><path fill="#333860" d="M49.275 7.293c-2.685.001-4.926 2.06-5.168 4.745-.242 2.687 1.595 5.115 4.236 5.6.312.06.628.088.944.086 2.685-.001 4.927-2.06 5.169-4.746a5.213 5.213 0 00-4.237-5.6 4.96 4.96 0 00-.944-.085"/></g></svg>