<svg width="715" height="165" fill="none" xmlns="http://www.w3.org/2000/svg"><g clip-path="url(#clip0)"><path fill-rule="evenodd" clip-rule="evenodd" d="M41.55 113.3a2.852 2.852 0 00-.85-2.1l.15-.05a3.401 3.401 0 00-4.45 0 2.85 2.85 0 00-.8 2.15v20a11.999 11.999 0 00-5-5.35 14.353 14.353 0 00-7.45-1.9 15.6 15.6 0 00-8.5 2.35 15.402 15.402 0 00-5.7 6.6 22.95 22.95 0 00-2.05 10 23.348 23.348 0 002.05 10 16.098 16.098 0 005.55 6.85 15.001 15.001 0 008.5 2.4c2.61.056 5.185-.601 7.45-1.9a11.999 11.999 0 005-5.35v4.05a2.9 2.9 0 00.8 2.2 2.848 2.848 0 002.2.85 3.048 3.048 0 002.25-.85 2.95 2.95 0 00.85-2.2V113.3zm-6.1 31.7a16.049 16.049 0 01-2.9 10.55 9.998 9.998 0 01-8.2 3.55 9.998 9.998 0 01-8.3-3.7 16.2 16.2 0 01-3-10.4 15.35 15.35 0 013-10 10 10 0 018.3-3.6 10.002 10.002 0 018.2 3.6 15.85 15.85 0 012.9 10zm47.7 12.6a2.451 2.451 0 00-.6-1.7 1.852 1.852 0 00-1.45-.7c-.95.206-1.85.596-2.65 1.15a36.02 36.02 0 01-4.5 2.15c-1.61.548-3.3.819-5 .8-7.7 0-11.8-4.35-12.25-12.95h24.1a2.5 2.5 0 001.95-.65c.447-.642.66-1.419.6-2.2a18.1 18.1 0 00-4.2-12.6 14.448 14.448 0 00-11.35-4.7 16.743 16.743 0 00-8.95 2.4 16.396 16.396 0 00-6.15 6.75 21.9 21.9 0 00-2.15 10 18.95 18.95 0 005 13.9 17.949 17.949 0 0013.4 5 24.227 24.227 0 005.85-.8 21.553 21.553 0 005.75-2.4c1.75-1.05 2.6-2.15 2.6-3.45zm-26.3-15.15a13.65 13.65 0 013.45-8.5 10 10 0 017.7-3 9.4 9.4 0 017.35 2.95 13.45 13.45 0 012.8 8.55h-21.3z" fill="#000638"/><path d="M121.3 162.55a6.2 6.2 0 01-2.1-5v-55a6.2 6.2 0 012.1-5 8.55 8.55 0 0110.35 0 6.197 6.197 0 012.1 5v55a6.197 6.197 0 01-2.1 5 8.55 8.55 0 01-10.35 0zm36.4-64.45a12.05 12.05 0 012.3 7.95 24.552 24.552 0 01-7.25 17.5A3.897 3.897 0 01150 125a4.102 4.102 0 01-2.85-1.1 3.353 3.353 0 01-1.25-2.65 3.604 3.604 0 011.05-2.5 17.944 17.944 0 004.25-7.2 7.898 7.898 0 01-5.3-2.45 7.452 7.452 0 01-2.05-5.35 8.302 8.302 0 012.25-5.95 7.65 7.65 0 015.65-2.35 7.55 7.55 0 015.95 2.65z" fill="#000638"/><path fill-rule="evenodd" clip-rule="evenodd" d="M169 100.45a6.701 6.701 0 002.2 5.35v-.15a10.35 10.35 0 0012.1 0 6.749 6.749 0 002.25-5.35 6.6 6.6 0 00-2.3-5.25 8.849 8.849 0 00-6-1.95 9.051 9.051 0 00-6.05 1.9 6.6 6.6 0 00-2.2 5.45zm.95 57.1a6.35 6.35 0 002.05 5 8 8 0 005.05 1.75 7.746 7.746 0 005-1.75 6.197 6.197 0 002.1-5v-35a6.197 6.197 0 00-2.1-5 7.704 7.704 0 00-5-1.7 7.946 7.946 0 00-5 1.7 6.2 6.2 0 00-2.1 5v35z" fill="#000638"/><path d="M237.9 120.25a23.008 23.008 0 014.15 15v22.25a6.35 6.35 0 01-2 5 7.305 7.305 0 01-5.3 1.85 7.199 7.199 0 01-5.3-1.85 6.497 6.497 0 01-1.95-5v-21.6a11.603 11.603 0 00-1.75-7.05 6.8 6.8 0 00-5.55-2.2 9.596 9.596 0 00-7.3 2.9 10.795 10.795 0 00-2.7 7.7v20a6.504 6.504 0 01-1.95 5 7.305 7.305 0 01-5.3 1.85 7.498 7.498 0 01-5.35-1.85 6.497 6.497 0 01-1.95-5V122.1a6.249 6.249 0 012.05-5 7.948 7.948 0 015.35-1.8 6.65 6.65 0 015 1.75 6.057 6.057 0 011.9 4.6v1.3a16.59 16.59 0 016.5-5.85 19.547 19.547 0 019-2 15.45 15.45 0 0112.45 5.15zm24.05 41.25a20.245 20.245 0 01-8.4-8.5 26.99 26.99 0 01-2.95-12.9 26.537 26.537 0 013.15-13.05 21.688 21.688 0 018.8-8.7 27.107 27.107 0 0113.1-3.05c2.618.01 5.223.363 7.75 1.05a24.993 24.993 0 016.95 3 5.85 5.85 0 013 5.35 6.852 6.852 0 01-1.15 4.1 3.65 3.65 0 01-3.1 1.6 6.343 6.343 0 01-2.35-.45l-2.95-1.3a26.06 26.06 0 00-3.6-1.6 9.995 9.995 0 00-3.6-.6 10.002 10.002 0 00-8.25 3.4 19.25 19.25 0 000 20 10 10 0 008.25 3.45 10.87 10.87 0 003.55-.5 28.217 28.217 0 003.75-1.7l2.9-1.3a5.912 5.912 0 012.3-.45 3.6 3.6 0 013.05 1.65 6.808 6.808 0 011.2 4.15 5.752 5.752 0 01-3 5.3 26.103 26.103 0 01-7.1 2.95 33.756 33.756 0 01-8.45 1.1 26.5 26.5 0 01-12.85-3zm40.6 1.05a6.196 6.196 0 01-2.05-5v-55a6.198 6.198 0 012.05-5 7.997 7.997 0 015-1.75 7.851 7.851 0 015 1.75 6.353 6.353 0 012.05 5v55a6.353 6.353 0 01-2.05 5 7.85 7.85 0 01-5 1.75 7.995 7.995 0 01-5-1.75zM370 117.3a6.6 6.6 0 011.95 5v35.35a6.104 6.104 0 01-2.05 5 7.651 7.651 0 01-5.35 1.85 6.85 6.85 0 01-5-1.75 5.949 5.949 0 01-1.85-4.6v-1a14.998 14.998 0 01-5.8 5.6 19.4 19.4 0 01-21.5-3.05 22.046 22.046 0 01-4.35-15v-22.4a6.597 6.597 0 011.95-5 7.697 7.697 0 015.35-1.8 7.505 7.505 0 015.3 1.8 6.6 6.6 0 011.95 5V145a9.25 9.25 0 001.75 6.25 6.898 6.898 0 005.45 2 9.1 9.1 0 006.9-2.85 11.054 11.054 0 002.65-7.65V122.3a6.55 6.55 0 011.9-5 7.503 7.503 0 015.3-1.8 7.7 7.7 0 015.45 1.8zm20.6 46.2a23.056 23.056 0 01-7.6-3.05 5.995 5.995 0 01-2.25-2.35 6.887 6.887 0 01-.75-3.1 5.447 5.447 0 011.25-3.7 3.899 3.899 0 013.1-1.5c.852.008 1.698.16 2.5.45.8.3 1.7.6 2.6 1a30.013 30.013 0 005.3 1.95c2.088.547 4.242.8 6.4.75 1.81.094 3.615-.267 5.25-1.05a3.3 3.3 0 001.9-2.9 3.003 3.003 0 00-.8-2.15 7.81 7.81 0 00-3.05-1.5c-1.5-.45-3.8-1-7.05-1.65a26.899 26.899 0 01-12.3-5 11.548 11.548 0 01-3.75-9.15 12.546 12.546 0 012.65-7.8 17.594 17.594 0 017.25-5.45 26.596 26.596 0 0110.4-1.95 31.597 31.597 0 018.1 1.05 24.639 24.639 0 017 3 5.85 5.85 0 013 5.35 5.755 5.755 0 01-1.25 3.85 3.753 3.753 0 01-3.05 1.55 10.74 10.74 0 01-5.3-1.75 32.498 32.498 0 00-4.4-1.85 16.084 16.084 0 00-4.65-.65 8.65 8.65 0 00-4.75 1.15 3.45 3.45 0 00.3 6.1 31.89 31.89 0 007.8 2.1 42.212 42.212 0 0110 3.05c2.159.941 4 2.486 5.3 4.45a13 13 0 011.65 6.85 12.804 12.804 0 01-5.65 10.9 25.003 25.003 0 01-15 4.05 46.66 46.66 0 01-10.15-1.05z" fill="#000638"/><path fill-rule="evenodd" clip-rule="evenodd" d="M428.8 100.45a6.85 6.85 0 002.2 5.35v-.15a10.451 10.451 0 0012.15 0 6.852 6.852 0 002.2-5.35 6.75 6.75 0 00-2.25-5.25 8.852 8.852 0 00-6-1.95A9.2 9.2 0 00431 95a6.75 6.75 0 00-2.2 5.45zm.95 57.1a6.197 6.197 0 002.1 5h-.35a8.599 8.599 0 0010.4 0 6.35 6.35 0 002.05-5v-35a6.35 6.35 0 00-2.05-5 7.8 7.8 0 00-5-1.7 7.946 7.946 0 00-5 1.7 6.098 6.098 0 00-2.15 5v35zm26.5-4.7a21.35 21.35 0 008.75 8.6h-.15a30 30 0 0026.4 0 21.656 21.656 0 008.75-8.6 26.16 26.16 0 003.05-13A26.504 26.504 0 00500 126.8a21.199 21.199 0 00-8.6-8.55 31.002 31.002 0 00-26.4 0 20.895 20.895 0 00-8.75 8.55 26.49 26.49 0 00-3.1 13.05 26.198 26.198 0 003.1 13zm29.8-22.85a16.051 16.051 0 012.75 10c0 8.9-3.55 13.75-10.6 13.75s-10.6-4.5-10.6-13.55 3.55-13.6 10.6-13.6a9.599 9.599 0 017.85 3.4z" fill="#000638"/><path d="M554.35 120.25a23 23 0 014.1 15v22.25a6.5 6.5 0 01-1.95 5 7.401 7.401 0 01-5.35 1.85 7.302 7.302 0 01-5.3-1.85 6.648 6.648 0 01-1.9-5v-21.6a11.255 11.255 0 00-1.8-7.05 6.8 6.8 0 00-5.55-2.2 9.5 9.5 0 00-7.25 2.9 10.599 10.599 0 00-2.75 7.7v20a6.652 6.652 0 01-1.9 5 7.304 7.304 0 01-5.3 1.85 7.401 7.401 0 01-5.35-1.85 6.55 6.55 0 01-2-5V122.1a6.15 6.15 0 012.1-5 7.798 7.798 0 015.35-1.8 6.754 6.754 0 015 1.75 6.052 6.052 0 011.85 4.6v1.3a16.953 16.953 0 016.5-5.85 20.01 20.01 0 019-2 15.598 15.598 0 0112.5 5.15z" fill="#000638"/><path d="M5.95 70.45a7.05 7.05 0 01-1.85-5V11.5a6.95 6.95 0 017.5-7.35 7.45 7.45 0 015.5 2 7.25 7.25 0 012 5.35V60h24.6c4.65 0 7 2.05 7 6.15 0 4.1-2.35 6.05-7 6.05H11.15a6.9 6.9 0 01-5.2-1.75z" fill="#18A47D"/><path fill-rule="evenodd" clip-rule="evenodd" d="M98.6 44.45a21.2 21.2 0 00-5-15.4 20.85 20.85 0 00-15.35-5.1A44.7 44.7 0 0068.7 25a29.996 29.996 0 00-8.25 3.1 7.65 7.65 0 00-2.75 2.3 5 5 0 00-.85 3.15 5.8 5.8 0 001.25 3.9 4.05 4.05 0 003.35 1.5 9.301 9.301 0 003.75-1.05A36.847 36.847 0 0177.1 35a8.1 8.1 0 016.15 1.75 8.5 8.5 0 011.75 5.9v1.7h-2.75a74.592 74.592 0 00-16 1.35 16 16 0 00-8.5 4.3A11.95 11.95 0 0055 58.1a13.7 13.7 0 002.3 7.65 15.4 15.4 0 006.15 5.4 20 20 0 008.7 1.9 15 15 0 007.85-2 11.15 11.15 0 005-5.6v.7a6.45 6.45 0 006.75 6.75 7.1 7.1 0 005-1.75 6.5 6.5 0 001.85-5v-21.7zM85 52.9a10.4 10.4 0 01-2.85 7.35 8.7 8.7 0 01-6.55 2.8 6.3 6.3 0 01-4.45-1.65 5.8 5.8 0 01-1.8-4.4 4.55 4.55 0 013.15-4.5 33.498 33.498 0 0110.9-1.25H85v1.65z" fill="#18A47D"/><path d="M145.25 70a20.399 20.399 0 01-8.4-8.45 27.001 27.001 0 01-2.95-12.9 26.196 26.196 0 013.15-13 21.55 21.55 0 018.75-8.7 27.049 27.049 0 0113.05-3.05 29.54 29.54 0 017.75 1.05 25.005 25.005 0 016.95 3 5.85 5.85 0 013 5.35 6.95 6.95 0 01-1.15 4.1 3.651 3.651 0 01-3.1 1.55 6.3 6.3 0 01-2.35-.4l-2.9-1.3a35.024 35.024 0 00-3.6-1.65A11.349 11.349 0 00160 35a10 10 0 00-8.2 3.4 18.801 18.801 0 000 20 10 10 0 008.2 3.45 11.051 11.051 0 003.55-.5 27.451 27.451 0 003.75-1.7l2.85-1.3a6.945 6.945 0 012.3-.4 3.701 3.701 0 013.05 1.6 6.903 6.903 0 011.2 4.15 5.8 5.8 0 01-3 5.3 26.103 26.103 0 01-7.1 2.95 33.454 33.454 0 01-8.45 1.05 26.649 26.649 0 01-12.9-3z" fill="#18A47D"/><path fill-rule="evenodd" clip-rule="evenodd" d="M184.4 61.45a21.499 21.499 0 008.75 8.55 30.3 30.3 0 0026.3 0 21.852 21.852 0 008.75-8.55 29.354 29.354 0 000-26.05 21.402 21.402 0 00-8.75-8.5 30.8 30.8 0 00-26.3 0 21.1 21.1 0 00-8.75 8.5 29.347 29.347 0 000 26.05zm29.7-23a15.808 15.808 0 012.75 10v.05c0 9-3.5 13.65-10.55 13.65-7.05 0-10.55-4.45-10.55-13.5s3.5-13.55 10.55-13.55a9.4 9.4 0 017.8 3.35z" fill="#18A47D"/><path d="M310 28.65a22.755 22.755 0 014.15 15v22.2a6.301 6.301 0 01-2 5 7.753 7.753 0 01-5 1.7 8.049 8.049 0 01-5-1.7 6.197 6.197 0 01-2.1-5V43.7a10.002 10.002 0 00-1.6-6.5 5.95 5.95 0 00-5-1.85 8.049 8.049 0 00-6.4 2.75 11.546 11.546 0 00-2.4 7.8v20a6.354 6.354 0 01-2.05 5 7.55 7.55 0 01-5 1.7 7.95 7.95 0 01-5-1.7 6.197 6.197 0 01-2.1-5V43.7a10.002 10.002 0 00-1.6-6.5 5.95 5.95 0 00-5-1.85 7.948 7.948 0 00-6.4 2.75 11.546 11.546 0 00-2.4 7.8v20a6.204 6.204 0 01-2.1 5 7.55 7.55 0 01-5 1.7 7.95 7.95 0 01-5-1.7 6.197 6.197 0 01-2.1-5V30.8a5.898 5.898 0 012.15-5 8.148 8.148 0 015-1.7 7.2 7.2 0 015 1.65 6.053 6.053 0 011.9 4.7v.95a15.7 15.7 0 016-5.6 18.247 18.247 0 018.4-1.9c2.997-.09 5.965.618 8.6 2.05a13.154 13.154 0 015.4 6.7 16.496 16.496 0 016.3-6.4 18.299 18.299 0 019.25-2.35 15 15 0 0111.1 4.75zm85 0a22.748 22.748 0 014.1 15v22.2a6.301 6.301 0 01-2 5 8.75 8.75 0 01-10.35 0 6.099 6.099 0 01-2.15-5V43.7a9.998 9.998 0 00-1.55-6.5 6.1 6.1 0 00-5-1.85 8.1 8.1 0 00-6.45 2.75 11.546 11.546 0 00-2.4 7.8v20a6.301 6.301 0 01-2 5 7.75 7.75 0 01-5 1.7 8.05 8.05 0 01-5-1.7 6.197 6.197 0 01-2.1-5V43.7a10.002 10.002 0 00-1.6-6.5 5.95 5.95 0 00-5-1.85 8.05 8.05 0 00-6.4 2.75 11.546 11.546 0 00-2.4 7.8v20a6.35 6.35 0 01-2.05 5 7.8 7.8 0 01-5 1.7 7.95 7.95 0 01-5-1.7 6.197 6.197 0 01-2.1-5V30.8a5.898 5.898 0 012.15-5 8.148 8.148 0 015.25-1.7 7.2 7.2 0 015 1.65 6.05 6.05 0 011.9 4.7v.95a15.7 15.7 0 016-5.6 18.247 18.247 0 018.4-1.9c2.997-.09 5.965.618 8.6 2.05a13.154 13.154 0 015.4 6.7 16.503 16.503 0 016.3-6.4 18.497 18.497 0 019.3-2.35A15 15 0 01395 28.65zM453.45 26a6.602 6.602 0 011.95 5v35a6.051 6.051 0 01-2.05 5 7.85 7.85 0 01-5.35 1.8 6.7 6.7 0 01-5-1.7 5.948 5.948 0 01-1.85-4.6v-1a15 15 0 01-5.8 5.6 17.3 17.3 0 01-8.1 1.9 16.8 16.8 0 01-13.3-5 21.749 21.749 0 01-4.4-15V31a6.6 6.6 0 012-5 7.55 7.55 0 015.3-1.8 7.5 7.5 0 015.3 1.8 6.75 6.75 0 011.9 5v22.45a9.15 9.15 0 001.8 6.25 6.8 6.8 0 005.4 2.05 9.05 9.05 0 006.9-2.9 10.801 10.801 0 002.6-7.6v-20a6.598 6.598 0 011.95-5 7.35 7.35 0 015.25-1.8 7.6 7.6 0 015.5 1.55zm55.25 2.95a22.852 22.852 0 014.1 15v22.2a6.5 6.5 0 01-1.95 5 7.55 7.55 0 01-5.3 1.8 7.4 7.4 0 01-5.3-1.8 6.497 6.497 0 01-1.9-5v-21.5a11.006 11.006 0 00-1.8-7 6.55 6.55 0 00-5.5-2.2 9.5 9.5 0 00-7.25 2.85 10.698 10.698 0 00-2.75 7.7v20a6.653 6.653 0 01-1.9 5 7.5 7.5 0 01-5.3 1.8 7.7 7.7 0 01-5.35-1.8 6.498 6.498 0 01-1.95-5V30.8a6.248 6.248 0 012.05-5 7.849 7.849 0 015.35-1.8 6.95 6.95 0 015 1.75 6.051 6.051 0 011.85 4.6v1.3a16.598 16.598 0 016.5-5.85 19.449 19.449 0 018.95-2 15.45 15.45 0 0112.45 5.15z" fill="#18A47D"/><path fill-rule="evenodd" clip-rule="evenodd" d="M565.25 44.45a21.204 21.204 0 00-5-15.4A20.85 20.85 0 00545 24c-3.281.008-6.55.377-9.75 1.1A29.992 29.992 0 00527 28a7.644 7.644 0 00-2.75 2.3 5.003 5.003 0 00-.9 3.15 6.043 6.043 0 001.25 3.9 4.2 4.2 0 003.4 1.5 8.95 8.95 0 003.7-1.05 37.4 37.4 0 0111.95-2.9 8.1 8.1 0 015.9 1.8 8.5 8.5 0 011.75 5.9v1.7h-2.5a74.6 74.6 0 00-16 1.35 15.85 15.85 0 00-8.5 4.3 11.75 11.75 0 00-2.65 8.2 13.7 13.7 0 002.25 7.65 15.393 15.393 0 006.15 5.4 20 20 0 008.7 1.9 15 15 0 007.85-2 11.148 11.148 0 005-5.6v.7a6.349 6.349 0 006.8 6.7 7.1 7.1 0 005-1.75 6.701 6.701 0 001.85-5v-21.7zM551.4 52.9a10.4 10.4 0 01-2.6 7.35 8.7 8.7 0 01-6.6 2.8 6.2 6.2 0 01-4.45-1.65 5.801 5.801 0 01-1.8-4.4 4.55 4.55 0 013.15-4.5 33.499 33.499 0 0110.9-1.25h1.4v1.65z" fill="#18A47D"/><path d="M619.5 26a6.45 6.45 0 012 5v35a6.052 6.052 0 01-2.1 5 7.75 7.75 0 01-5.3 1.8 6.799 6.799 0 01-5-1.7 6.097 6.097 0 01-1.8-4.6v-1a15.307 15.307 0 01-5.85 5.6 17.3 17.3 0 01-8.1 1.9 16.799 16.799 0 01-13.3-5 22 22 0 01-4.35-15V31a6.598 6.598 0 011.95-5 7.6 7.6 0 015.35-1.8 7.251 7.251 0 015 1.8 6.601 6.601 0 011.95 5v22.45a9.4 9.4 0 001.75 6.25 6.9 6.9 0 005.45 2.05 8.95 8.95 0 006.85-2.9 10.802 10.802 0 002.65-7.6v-20a6.75 6.75 0 011.9-5 8.7 8.7 0 0110.6 0l.35-.25zm43.55 37.75a5.299 5.299 0 01-.85 7.85 10 10 0 01-6.35 1.15h-2.7c-11.2-.9-16.8-6.8-16.8-17.6V36h-3.8a6.95 6.95 0 01-5-1.4 4.999 4.999 0 01-1.65-4 4.998 4.998 0 011.65-4.05 6.95 6.95 0 015-1.4h3.8v-7.5a6.45 6.45 0 012-5 8.7 8.7 0 0110.6 0 6.75 6.75 0 011.9 5V25h6.75c4.35 0 6.5 1.8 6.5 5.45a5 5 0 01-1.6 4 7.35 7.35 0 01-5 1.4h-6.75v20a6.347 6.347 0 001.35 4.4 5.65 5.65 0 003.95 1.65h2.7a6.75 6.75 0 014.3 1.85z" fill="#18A47D"/><path fill-rule="evenodd" clip-rule="evenodd" d="M688.4 18.65a3.499 3.499 0 002.6 1.05v-.2a4.3 4.3 0 002.5-.85l11.7-8.55a6.553 6.553 0 003.05-5 5.451 5.451 0 00-1.8-4.05 5.95 5.95 0 00-4.2-1.7 6.998 6.998 0 00-5.8 3.25l-8.25 11.05c-.533.727-.83 1.6-.85 2.5a3.448 3.448 0 001.05 2.5zM710.7 60a6.302 6.302 0 011.2 3.95 5.005 5.005 0 01-.95 3 7.3 7.3 0 01-2.7 2.35 35.01 35.01 0 01-7.55 2.85 31.952 31.952 0 01-8 1.1c-4.622.1-9.201-.911-13.35-2.95a20.947 20.947 0 01-8.8-8.5 28.797 28.797 0 010-25.8 22.296 22.296 0 018.25-8.7 23.448 23.448 0 0112-3.1c3.954-.085 7.859.9 11.3 2.85a18.856 18.856 0 017.4 7.95 26.353 26.353 0 012.7 12.25 4.456 4.456 0 01-1 3.2 3.55 3.55 0 01-2.85 1.1H681.5a12.75 12.75 0 003.45 8.2 11.348 11.348 0 007.95 2.55 17.053 17.053 0 005-.65 41.175 41.175 0 005-1.85l2.6-1a6.6 6.6 0 012.2-.45 3.801 3.801 0 013 1.65zm-26.25-23.2a12.697 12.697 0 00-2.95 7.65H700a12.702 12.702 0 00-2.55-7.7 8.001 8.001 0 00-6.35-2.55 8.799 8.799 0 00-6.65 2.4v.2z" fill="#18A47D"/></g><defs><clipPath id="clip0"><path fill="#fff" transform="scale(5)" d="M0 0h143v33H0z"/></clipPath></defs></svg>