<svg width="785" height="255" preserveAspectRatio="xMinYMin meet" fill="none" xmlns="http://www.w3.org/2000/svg"><path fill-rule="evenodd" clip-rule="evenodd" d="M233.85 159.8a7.303 7.303 0 002 5.45 7.453 7.453 0 005.5 2.25 7.302 7.302 0 005.45-2.05 7.349 7.349 0 002.05-5.45v-18.75H265a24.556 24.556 0 0017.2-5.7 20 20 0 006.15-15.55 19.997 19.997 0 00-6.15-15.5 25 25 0 00-17.2-5.55h-24.15a6.35 6.35 0 00-7 7v53.85zm40.45-39.674v.124-.25.126zm-11.25-9.876c7.453 0 11.203 3.406 11.25 9.876-.047 6.566-3.797 9.874-11.25 9.874h-14.2v-19.75h14.2z" fill="#000638"/><path d="M298.95 165.55a6.35 6.35 0 01-2.05-5v-55a6.35 6.35 0 012.05-5 8 8 0 015-1.75 7.848 7.848 0 015 1.75 6.2 6.2 0 012.05 5v55a6.201 6.201 0 01-2.05 5 7.847 7.847 0 01-5 1.75 8.005 8.005 0 01-5-1.75z" fill="#000638"/><path fill-rule="evenodd" clip-rule="evenodd" d="M364.2 138.85a21.249 21.249 0 00-5-15.45 21.001 21.001 0 00-15.4-5.2 44.708 44.708 0 00-9.55 1.05 33.683 33.683 0 00-8.25 2.9 8.157 8.157 0 00-2.75 2.3 5.398 5.398 0 00-.9 3.2 5.852 5.852 0 001.25 3.85 4.202 4.202 0 003.4 1.5 9.305 9.305 0 003.75-1.05 38.231 38.231 0 0111.9-2.9 6.598 6.598 0 017.7 7.7v1.75h-2.5a74.953 74.953 0 00-16.05 1.35 16 16 0 00-8.5 4.3 11.75 11.75 0 00-2.65 8.2 13.7 13.7 0 002.25 7.65 15.003 15.003 0 006 5.65 19.153 19.153 0 008.7 1.9 14.998 14.998 0 007.9-2 11.805 11.805 0 005-5.55v.45a6.501 6.501 0 001.85 5 6.702 6.702 0 005 1.9 6.904 6.904 0 005-1.8 6.697 6.697 0 001.85-5v-21.7zm-13.85 8.45a10.646 10.646 0 01-2.6 7.35 8.852 8.852 0 01-6.85 2.85 6.304 6.304 0 01-4.45-1.7 5.75 5.75 0 01-1.8-4.4 4.55 4.55 0 013.15-4.5 33.724 33.724 0 0110.9-1.25h1.65v1.65z" fill="#000638"/><path d="M405.5 158.15a4.995 4.995 0 011.35 3.65 4.998 4.998 0 01-2.2 4.25 10.354 10.354 0 01-6.35 1.15h-2.7c-11.2-.9-16.8-6.767-16.8-17.6v-19.25H375a7.403 7.403 0 01-5-1.35 5.003 5.003 0 01-1.65-4 5.001 5.001 0 011.65-4.1 7.394 7.394 0 015-1.4h3.85V112a6.6 6.6 0 011.95-5 7.596 7.596 0 015.3-2 7.494 7.494 0 015.3 1.8 6.747 6.747 0 011.9 5v7.5h6.7c4.35 0 6.5 1.85 6.5 5.5a5 5 0 01-1.6 4 7.654 7.654 0 01-5 1.35h-6.6v20a6.352 6.352 0 001.35 4.4 5.454 5.454 0 003.95 1.65h2.7a6.747 6.747 0 014.2 1.95z" fill="#000638"/><path fill-rule="evenodd" clip-rule="evenodd" d="M454.45 158.15a6.3 6.3 0 00-1.2-3.95 3.948 3.948 0 00-2.95-1.55 6.384 6.384 0 00-2.2.45l-2.6 1a44.861 44.861 0 01-5 1.85 17.28 17.28 0 01-5 .65 11.55 11.55 0 01-8-2.55 12.751 12.751 0 01-3.45-8.2h26.9a3.552 3.552 0 002.85-1.1 4.448 4.448 0 001-3.2 26.56 26.56 0 00-2.7-12.3 19.445 19.445 0 00-7.5-8.05 21.943 21.943 0 00-11.3-2.85 23.145 23.145 0 00-12.05 3.15 21.646 21.646 0 00-8.25 8.7 28.797 28.797 0 000 25.8 20.896 20.896 0 008.8 8.5 28.456 28.456 0 0013.4 2.95 31.983 31.983 0 008-1.1 32.546 32.546 0 007.55-2.8 7.848 7.848 0 002.7-2.35 5.298 5.298 0 001-3.05zm-30.5-19.5a12.496 12.496 0 013-7.65 8.648 8.648 0 016.6-2.65 7.898 7.898 0 016.4 2.6 12.695 12.695 0 012.55 7.7h-18.55z" fill="#000638"/><path d="M483 111.9a9.051 9.051 0 00-1.75 6v1.6H488c4.35 0 6.5 1.85 6.5 5.5s-2.15 5.35-6.5 5.35h-6.75v30a6.35 6.35 0 01-2.05 5 7.85 7.85 0 01-5 1.75 7.907 7.907 0 01-5-1.75 6.201 6.201 0 01-2.05-5v-30h-3.85c-4.3 0-6.45-1.75-6.45-5.35 0-3.6 2.15-5.5 6.45-5.5h3.85a20 20 0 015-14.5 20.798 20.798 0 0114-5.95h4.25c4.4 0 6.6 1.667 6.6 5 0 3.35-1.85 5-5.55 5.5h-2.5a7.651 7.651 0 00-5.95 2.35z" fill="#000638"/><path fill-rule="evenodd" clip-rule="evenodd" d="M499.4 155.9a20.9 20.9 0 008.75 8.55 30.45 30.45 0 0026.35 0 21.2 21.2 0 008.75-8.55 29.354 29.354 0 000-26.05 21.1 21.1 0 00-8.75-8.5 30.45 30.45 0 00-26.35 0 20.795 20.795 0 00-8.75 8.5 29.347 29.347 0 000 26.05zm29.75-23.05a15.657 15.657 0 012.75 10c0 9.05-3.55 13.7-10.6 13.7S510.75 152 510.75 143s3.5-13.55 10.55-13.55a9.5 9.5 0 017.85 3.4z" fill="#000638"/><path d="M587.9 120a5.747 5.747 0 011.65 4.45 6.597 6.597 0 01-1.5 5 9.15 9.15 0 01-5.5 1.9l-2.9.3a10.999 10.999 0 00-7.65 3.45 11.404 11.404 0 00-2.35 7.4v18.35a6.201 6.201 0 01-2.05 5 7.847 7.847 0 01-5 1.75 8.001 8.001 0 01-5.25-1.75 6.35 6.35 0 01-2.05-5V125a5.951 5.951 0 012.1-5 7.999 7.999 0 015-1.75 6.8 6.8 0 015 1.7 5.748 5.748 0 011.95 4.65v2.6a13.45 13.45 0 015.25-6.35 16.298 16.298 0 017.65-2.5h1.3a6.198 6.198 0 014.35 1.65zm75.75 3.05a22.648 22.648 0 014.15 15v22.2a6.302 6.302 0 01-2 5 7.796 7.796 0 01-5 1.75 7.952 7.952 0 01-5-1.75 6.2 6.2 0 01-2.1-5v-22.2a9.997 9.997 0 00-1.6-6.45 5.949 5.949 0 00-5-1.9 8.1 8.1 0 00-6.45 2.8 11.55 11.55 0 00-2.4 7.8v20a6.302 6.302 0 01-2 5 7.796 7.796 0 01-5 1.75 7.952 7.952 0 01-5-1.75 6.2 6.2 0 01-2.1-5v-22.25a9.997 9.997 0 00-1.6-6.45 5.949 5.949 0 00-5-1.9 8.1 8.1 0 00-6.45 2.8 11.55 11.55 0 00-2.4 7.8v20a6.35 6.35 0 01-2.05 5 7.847 7.847 0 01-5 1.75 7.952 7.952 0 01-5-1.75 6.2 6.2 0 01-2.1-5V125a5.852 5.852 0 012.15-5 8.2 8.2 0 015.25-1.75 6.948 6.948 0 015 1.7 5.698 5.698 0 011.9 4.65v.95a15.353 15.353 0 016.05-5.55 17.64 17.64 0 018.4-1.95c3.005-.097 5.978.63 8.6 2.1a13.349 13.349 0 015.45 6.65 16.35 16.35 0 016.25-6.4 18.602 18.602 0 019.3-2.35 15.002 15.002 0 0110.75 5z" fill="#000638"/><path fill-rule="evenodd" clip-rule="evenodd" d="M721.2 158.15a6.3 6.3 0 00-1.2-3.95 3.899 3.899 0 00-3.3-1.55 6.854 6.854 0 00-2.2.45l-2.6 1a41.175 41.175 0 01-5 1.85c-1.624.466-3.31.685-5 .65a11.35 11.35 0 01-7.95-2.55 12.751 12.751 0 01-3.45-8.2h27.2a3.7 3.7 0 002.85-1.1 4.695 4.695 0 001-3.2c.1-4.257-.826-8.476-2.7-12.3a19.54 19.54 0 00-7.55-8.05 21.943 21.943 0 00-11.3-2.85 22.844 22.844 0 00-12 3.15 21.002 21.002 0 00-8.25 8.7 29.001 29.001 0 000 25.8 20.902 20.902 0 008.8 8.5 28.7 28.7 0 0013.45 2.95c2.686-.03 5.357-.4 7.95-1.1a32.942 32.942 0 007.6-2.8 8.351 8.351 0 002.7-2.35 4.995 4.995 0 00.95-3.05zm-30.45-19.5a12.453 12.453 0 012.95-7.65h-.25a8.752 8.752 0 016.9-2.65 7.997 7.997 0 016.4 2.6 12.695 12.695 0 012.55 7.7h-18.55zm-425.6 64.3a2.85 2.85 0 00-.85-2.1 3.048 3.048 0 00-2.25-.8 3.1 3.1 0 00-2.2.8 3.051 3.051 0 00-.8 2.15v20a12.198 12.198 0 00-5-5.35 16.249 16.249 0 00-15.95.5 15.559 15.559 0 00-5.7 6.55 25.299 25.299 0 000 20 15.961 15.961 0 005.7 6.7 15.003 15.003 0 008.45 2.4 14.657 14.657 0 007.5-1.85 12.198 12.198 0 005-5.35v4.05a3.304 3.304 0 00.8 2.2 3.1 3.1 0 002.2.8 3.255 3.255 0 002.25-.8 3.099 3.099 0 00.85-2.2v-47.7zm-6.1 32.05a16.454 16.454 0 01-2.85 10 10.002 10.002 0 01-8.25 3.8 10.002 10.002 0 01-8.25-3.7 16.048 16.048 0 01-3-10.35 15.447 15.447 0 013-10 11.253 11.253 0 0116.5 0 16.146 16.146 0 012.85 10.25zm47.65 12.2a2.451 2.451 0 00-.6-1.7 1.75 1.75 0 00-1.5-.7 6.447 6.447 0 00-2.6 1.15 35.376 35.376 0 01-4.5 2.1c-1.604.57-3.298.842-5 .8-7.7 0-11.75-4.3-12.2-12.9h24.1a2.501 2.501 0 001.95-.65c.447-.642.659-1.42.6-2.2a18.1 18.1 0 00-4.2-12.6 14.55 14.55 0 00-11.35-4.65 16.898 16.898 0 00-8.95 2.4 16.493 16.493 0 00-6.1 6.7 21.907 21.907 0 00-2.2 10 18.852 18.852 0 005 13.85 17.551 17.551 0 0013.35 5 23.699 23.699 0 0011.55-3.15c1.75-1.05 2.65-2.2 2.65-3.45zm-26.25-15.15a13.897 13.897 0 013.4-8.5 10.449 10.449 0 017.7-3 9.248 9.248 0 017.35 3 12.9 12.9 0 012.75 8.5h-21.2z" fill="#000638"/><path d="M345 252.1a6.297 6.297 0 01-2.05-5v-55a6.35 6.35 0 012.05-5 8.001 8.001 0 015-2.1 7.797 7.797 0 015 1.7 6.35 6.35 0 012.05 5v55a6.3 6.3 0 01-2.05 5 7.85 7.85 0 01-5 1.75 8 8 0 01-5-1.35zm36.15-64.35a12.347 12.347 0 012.3 7.95 24.498 24.498 0 01-7.2 17.5 4.002 4.002 0 01-3 1.35 4.455 4.455 0 01-2.9-1.1 3.45 3.45 0 010-5 16.848 16.848 0 004.25-7.2 8.1 8.1 0 01-5.3-2.4 7.5 7.5 0 01-2-5.4 8.2 8.2 0 012.25-5.9A7.396 7.396 0 01375 185a7.696 7.696 0 016.15 2.75z" fill="#000638"/><path fill-rule="evenodd" clip-rule="evenodd" d="M392.4 190a6.65 6.65 0 002.2 5.45v-.15a10 10 0 0012.1 0 6.852 6.852 0 002.2-5.3 6.603 6.603 0 00-2.25-5 10 10 0 00-12.05 0 6.601 6.601 0 00-2.2 5zm.95 57.1a6.297 6.297 0 002.05 5 8 8 0 005.05 1.75 7.855 7.855 0 005-1.75 6.3 6.3 0 002.05-5v-35a6.35 6.35 0 00-2.05-5 7.85 7.85 0 00-5-1.75 7.944 7.944 0 00-5 1.75 6.197 6.197 0 00-2.1 5v35z" fill="#000638"/><path d="M461.2 210a22.896 22.896 0 014.1 15v22.2a6.4 6.4 0 01-1.95 5 7.401 7.401 0 01-5.35 1.85 7.1 7.1 0 01-5-1.85 6.4 6.4 0 01-1.95-5v-21.7a11.299 11.299 0 00-1.75-7 6.699 6.699 0 00-5.55-2.25 9.603 9.603 0 00-7.25 2.9 10.697 10.697 0 00-2.75 7.7v20a6.55 6.55 0 01-1.9 5 7.302 7.302 0 01-5.3 1.85 7.5 7.5 0 01-5.35-1.85 6.4 6.4 0 01-1.95-5v-35.1a6.102 6.102 0 012.05-5 7.904 7.904 0 015.35-1.85 6.697 6.697 0 015 1.8 5.998 5.998 0 011.85 4.55v1.35a16.953 16.953 0 016.5-5.85 19.552 19.552 0 019-2 15.448 15.448 0 0112.2 5.25zm23.8 41.05a19.999 19.999 0 01-8.4-8.45 26.949 26.949 0 01-2.95-12.85 26.25 26.25 0 013.15-13.05 21.694 21.694 0 018.8-8.7 26.898 26.898 0 0113.05-3.05c2.618.004 5.225.357 7.75 1.05a26.442 26.442 0 016.95 2.95 5.999 5.999 0 013 5.4 6.951 6.951 0 01-1.15 4.1 3.6 3.6 0 01-3.1 1.55 6.302 6.302 0 01-2.35-.4l-2.9-1.3a34.791 34.791 0 00-3.6-1.65 10.247 10.247 0 00-3.6-.55 9.997 9.997 0 00-8.25 3.4 14.997 14.997 0 00-2.85 10 15.398 15.398 0 002.85 10 10 10 0 008.25 3.45 11.258 11.258 0 003.55-.55 33.529 33.529 0 003.75-1.65c1.2-.6 2.15-1 2.85-1.3a5.912 5.912 0 012.3-.45 3.6 3.6 0 013.05 1.65 6.755 6.755 0 011.2 4.1 5.7 5.7 0 01-3 5.3 24.702 24.702 0 01-7.1 3 33.49 33.49 0 01-8.45 1.05 26.302 26.302 0 01-12.8-3.05zm40.75 1.05a6.2 6.2 0 01-2.1-5v-55a6.2 6.2 0 012.1-5 8.75 8.75 0 0110.35 0 6.197 6.197 0 012.1 5v55a6.197 6.197 0 01-2.1 5 8.55 8.55 0 01-10.35 0zm67.05-45.15a6.347 6.347 0 012 5v35a6 6 0 01-2.1 5 7.551 7.551 0 01-5.3 1.85 6.85 6.85 0 01-5-1.75 5.9 5.9 0 01-1.85-4.6v-.95a14.397 14.397 0 01-5.55 5.6 19.449 19.449 0 01-21.45-3 22.153 22.153 0 01-4.35-15v-22.15a6.5 6.5 0 011.95-5 7.651 7.651 0 015.35-1.85 7.3 7.3 0 015 1.85 6.497 6.497 0 011.95 5v22.5a9.502 9.502 0 001.75 6.25 6.9 6.9 0 005.45 2 8.9 8.9 0 006.9-2.9 10.75 10.75 0 002.6-7.55v-20.3a6.5 6.5 0 011.95-5 7.402 7.402 0 015.4-1.95 7.596 7.596 0 015.3 1.95zm20.8 46.15a23.316 23.316 0 01-7.55-3.1 5.854 5.854 0 01-2.25-2.3 6.909 6.909 0 01-.75-3.25 5.449 5.449 0 011.25-3.7 3.9 3.9 0 013.1-1.5c.853.007 1.698.16 2.5.45.868.285 1.72.619 2.55 1a40.292 40.292 0 005.3 1.95c2.106.543 4.276.796 6.45.75a10.26 10.26 0 005-1.1 3.15 3.15 0 001.85-2.85 2.997 2.997 0 00-.8-2.2 8.19 8.19 0 00-3.05-1.45c-1.45-.45-3.8-1-7-1.65a26.908 26.908 0 01-12.3-5 11.503 11.503 0 01-3.75-9.15 12.552 12.552 0 012.65-7.75 16.895 16.895 0 017.25-5.45 26.395 26.395 0 0110.4-1.95 31.205 31.205 0 018.05 1.05 26.778 26.778 0 017 2.95 5.999 5.999 0 013 5.4 5.847 5.847 0 01-1.25 3.85 3.953 3.953 0 01-3.1 1.55 11.304 11.304 0 01-5.25-1.75 25.312 25.312 0 00-4.4-1.85 14.282 14.282 0 00-4.65-.65 8.504 8.504 0 00-4.7 1.1 3.499 3.499 0 00-1.75 3.05 3.302 3.302 0 002.05 3.05 32.383 32.383 0 007.75 2.15c3.45.561 6.811 1.57 10 3a12.547 12.547 0 015.3 4.45 13 13 0 011.65 6.85 12.701 12.701 0 01-5.3 10.95 25.003 25.003 0 01-15 4.05 50.667 50.667 0 01-10.25-.95z" fill="#000638"/><path fill-rule="evenodd" clip-rule="evenodd" d="M651.8 190.15a6.65 6.65 0 002.2 5.3v.1a10 10 0 0012.1 0 6.849 6.849 0 002.2-5.3 6.6 6.6 0 00-2.25-5.25 10 10 0 00-12.05 0 6.603 6.603 0 00-2.2 5.15zm1.15 56.95a6.3 6.3 0 002.05 5 8 8 0 005.05 1.75 7.855 7.855 0 005-1.75 6.3 6.3 0 002.05-5v-35a6.35 6.35 0 00-2.05-5 7.85 7.85 0 00-5-1.75 7.946 7.946 0 00-5 1.75 6.2 6.2 0 00-2.1 5v35zm26.2-4.65a21.2 21.2 0 008.75 8.55 29.999 29.999 0 0026.35 0 20.9 20.9 0 008.75-8.55 26.198 26.198 0 003.1-13 26.501 26.501 0 00-3.1-13.05 21.1 21.1 0 00-8.75-8.5 30.898 30.898 0 00-26.35 0 21.4 21.4 0 00-8.75 8.5 26.502 26.502 0 00-3.05 13.05 26.163 26.163 0 003.05 13zm29.75-23a15.796 15.796 0 012.75 10c0 9.05-3.5 13.75-10.55 13.75-7.05 0-10.6-4.5-10.6-13.55s3.55-13.55 10.6-13.55a9.399 9.399 0 017.8 3.35z" fill="#000638"/><path d="M777.1 210a22.902 22.902 0 014.15 15v22.2a6.4 6.4 0 01-1.95 5 7.5 7.5 0 01-5.35 1.85 7.302 7.302 0 01-5.3-1.85 6.349 6.349 0 01-1.9-5v-21.7a11.005 11.005 0 00-1.8-7 6.598 6.598 0 00-5.5-2.25 9.698 9.698 0 00-7.3 2.9 10.898 10.898 0 00-2.7 7.7v20a6.4 6.4 0 01-1.95 5 7.201 7.201 0 01-5.3 1.85 7.347 7.347 0 01-5.3-1.85 6.252 6.252 0 01-2-5v-35.1a6 6 0 012.1-5 7.752 7.752 0 015.3-1.85 6.698 6.698 0 015 1.8 6.05 6.05 0 011.9 4.55v1.35a16.291 16.291 0 016.5-5.85 19.446 19.446 0 018.95-2A15.449 15.449 0 01777.1 210z" fill="#000638"/><path d="M111.25 123.25a32.179 32.179 0 00-9.6 1.45c-15.543 4.7-25.282 20.093-22.874 36.151 2.41 16.058 16.236 27.916 32.474 27.849 3.27-.016 6.52-.505 9.65-1.45 15.407-4.83 24.994-20.168 22.587-36.133-2.407-15.966-16.091-27.795-32.237-27.867z" fill="#80829B"/><path d="M102.25 137.35a25 25 0 01-35.534 29.654A25 25 0 0171.3 120.95c13.062-3.882 26.827 3.412 30.95 16.4zm70.8 78.4c3.979 12.928-3.272 26.636-16.199 30.62-12.928 3.985-26.638-3.262-30.627-16.187-3.99-12.926 3.252-26.639 16.176-30.633a24.499 24.499 0 0130.65 16.2zM21.6 179.55c-1.694.003-3.38.256-5 .75-8.45 2.605-13.463 11.282-11.5 19.903 1.965 8.621 10.242 14.271 18.986 12.96 8.744-1.312 14.999-9.142 14.347-17.96-.652-8.817-7.991-15.642-16.833-15.653" fill="#000638"/><path d="M177.7 149.3a11.531 11.531 0 00-3.65.55 12.5 12.5 0 003.65 24.45 13.515 13.515 0 003.7-.55 12.5 12.5 0 00-3.7-24.45z" fill="#CCCDD7"/><path d="M43.4 52.45a27.45 27.45 0 00-8.2 1.25c-13.893 4.313-22.11 18.607-18.85 32.783 3.262 14.177 16.901 23.442 31.282 21.249 14.38-2.192 24.64-15.1 23.53-29.604-1.11-14.504-13.215-25.7-27.762-25.678z" fill="#80829B"/><path d="M155 3.95a51.05 51.05 0 00-15.3 2.35c-24.435 7.607-39.69 31.876-35.95 57.193 3.739 25.317 25.359 44.139 50.95 44.357a52.576 52.576 0 0015.3-2.3c24.518-7.547 39.856-31.86 36.109-57.238S180.653 4.09 155 3.95" fill="#CCCDD7"/><path d="M205.65 33.2c-11.094.005-20.354 8.468-21.354 19.517s6.591 21.037 17.504 23.033c1.286.24 2.592.358 3.9.35 11.094-.005 20.354-8.468 21.353-19.517 1-11.05-6.59-21.037-17.503-23.033a20.558 20.558 0 00-3.9-.35z" fill="#000638"/></svg>