<svg width="940" height="255" preserveAspectRatio="xMinYMin meet" fill="none" xmlns="http://www.w3.org/2000/svg"><path fill-rule="evenodd" clip-rule="evenodd" d="M266.55 203.3a2.853 2.853 0 00-.85-2.1l.15-.05a3.401 3.401 0 00-4.45 0 2.851 2.851 0 00-.8 2.15v20a11.998 11.998 0 00-5-5.35 14.352 14.352 0 00-7.45-1.9c-3-.05-5.952.766-8.5 2.35a15.408 15.408 0 00-5.7 6.6 22.956 22.956 0 00-2.05 10 23.364 23.364 0 002.05 10 16.104 16.104 0 005.55 6.85 15 15 0 008.5 2.4c2.61.056 5.186-.601 7.45-1.9a11.998 11.998 0 005-5.35v4.05a2.9 2.9 0 00.8 2.2 2.847 2.847 0 002.2.85 3.047 3.047 0 002.25-.85c.577-.583.885-1.38.85-2.2V203.3zm-6.1 31.7a16.045 16.045 0 01-2.9 10.55 9.997 9.997 0 01-8.2 3.55 9.998 9.998 0 01-8.3-3.7 16.198 16.198 0 01-3-10.4 15.35 15.35 0 013-10 10.001 10.001 0 018.3-3.6 10.001 10.001 0 018.2 3.6 15.851 15.851 0 012.9 10zm47.7 12.6a2.451 2.451 0 00-.6-1.7 1.852 1.852 0 00-1.45-.7 7.404 7.404 0 00-2.65 1.15 36.034 36.034 0 01-4.5 2.15 14.99 14.99 0 01-5 .8c-7.7 0-11.8-4.35-12.25-12.95h24.1a2.501 2.501 0 001.95-.65 3.402 3.402 0 00.6-2.2 18.102 18.102 0 00-4.2-12.6 14.449 14.449 0 00-11.35-4.7 16.742 16.742 0 00-8.95 2.4 16.397 16.397 0 00-6.15 6.75 21.897 21.897 0 00-2.15 10 18.952 18.952 0 005 13.9 17.95 17.95 0 0013.4 5 24.23 24.23 0 005.85-.8 21.547 21.547 0 005.75-2.4c1.75-1.05 2.6-2.15 2.6-3.45zm-26.3-15.15a13.65 13.65 0 013.45-8.5 10 10 0 017.7-3 9.4 9.4 0 017.35 2.95 13.45 13.45 0 012.8 8.55h-21.3z" fill="#000638"/><path d="M346.3 252.55a6.2 6.2 0 01-2.1-5v-55a6.201 6.201 0 012.1-5 8.55 8.55 0 0110.35 0 6.198 6.198 0 012.1 5v55a6.197 6.197 0 01-2.1 5 8.548 8.548 0 01-10.35 0zm36.4-64.45a12.052 12.052 0 012.3 7.95 24.55 24.55 0 01-7.25 17.5A3.897 3.897 0 01375 215a4.102 4.102 0 01-2.85-1.1 3.35 3.35 0 01-1.25-2.65 3.604 3.604 0 011.05-2.5 17.944 17.944 0 004.25-7.2 7.898 7.898 0 01-5.3-2.45 7.452 7.452 0 01-2.05-5.35 8.303 8.303 0 012.25-5.95 7.65 7.65 0 015.65-2.35 7.554 7.554 0 015.95 2.65z" fill="#000638"/><path fill-rule="evenodd" clip-rule="evenodd" d="M394 190.45a6.698 6.698 0 002.2 5.35v-.15a10.35 10.35 0 0012.1 0 6.749 6.749 0 002.25-5.35 6.601 6.601 0 00-2.3-5.25 8.85 8.85 0 00-6-1.95 9.052 9.052 0 00-6.05 1.9 6.6 6.6 0 00-2.2 5.45zm.95 57.1a6.35 6.35 0 002.05 5 8 8 0 005.05 1.75 7.746 7.746 0 005-1.75 6.197 6.197 0 002.1-5v-35a6.198 6.198 0 00-2.1-5 7.704 7.704 0 00-5-1.7 7.952 7.952 0 00-5 1.7 6.201 6.201 0 00-2.1 5v35z" fill="#000638"/><path d="M462.9 210.25a23.002 23.002 0 014.15 15v22.25a6.35 6.35 0 01-2 5 7.297 7.297 0 01-5.3 1.85 7.2 7.2 0 01-5.3-1.85 6.497 6.497 0 01-1.95-5v-21.6a11.603 11.603 0 00-1.75-7.05 6.8 6.8 0 00-5.55-2.2 9.603 9.603 0 00-7.3 2.9 10.8 10.8 0 00-2.7 7.7v20a6.5 6.5 0 01-1.95 5 7.297 7.297 0 01-5.3 1.85 7.498 7.498 0 01-5.35-1.85 6.497 6.497 0 01-1.95-5V212.1a6.249 6.249 0 012.05-5 7.953 7.953 0 015.35-1.8 6.65 6.65 0 015 1.75 6.05 6.05 0 011.9 4.6v1.3a16.597 16.597 0 016.5-5.85 19.55 19.55 0 019-2 15.453 15.453 0 0112.45 5.15zm24.05 41.25a20.25 20.25 0 01-8.4-8.5 27.002 27.002 0 01-2.95-12.9 26.548 26.548 0 013.15-13.05 21.706 21.706 0 018.8-8.7 27.107 27.107 0 0113.1-3.05 29.97 29.97 0 017.75 1.05 25.023 25.023 0 016.95 3 5.85 5.85 0 013 5.35 6.852 6.852 0 01-1.15 4.1 3.649 3.649 0 01-3.1 1.6 6.347 6.347 0 01-2.35-.45l-2.95-1.3a26.126 26.126 0 00-3.6-1.6 10.013 10.013 0 00-3.6-.6 10.003 10.003 0 00-8.25 3.4 19.25 19.25 0 000 20 10 10 0 008.25 3.45 10.84 10.84 0 003.55-.5 28.033 28.033 0 003.75-1.7l2.9-1.3a5.912 5.912 0 012.3-.45 3.6 3.6 0 013.05 1.65 6.801 6.801 0 011.2 4.15 5.75 5.75 0 01-3 5.3 26.072 26.072 0 01-7.1 2.95 33.75 33.75 0 01-8.45 1.1c-4.468.1-8.888-.932-12.85-3zm40.6 1.05a6.199 6.199 0 01-2.05-5v-55a6.201 6.201 0 012.05-5 8.003 8.003 0 015-1.75 7.85 7.85 0 015 1.75 6.35 6.35 0 012.05 5v55a6.35 6.35 0 01-2.05 5 7.85 7.85 0 01-5 1.75 7.997 7.997 0 01-5-1.75zM595 207.3a6.598 6.598 0 011.95 5v35.35a6.1 6.1 0 01-2.05 5 7.651 7.651 0 01-5.35 1.85 6.85 6.85 0 01-5-1.75 5.948 5.948 0 01-1.85-4.6v-1a14.998 14.998 0 01-5.8 5.6 19.4 19.4 0 01-21.5-3.05 22.051 22.051 0 01-4.35-15v-22.4a6.598 6.598 0 011.95-5 7.702 7.702 0 015.35-1.8 7.503 7.503 0 015.3 1.8 6.598 6.598 0 011.95 5V235a9.248 9.248 0 001.75 6.25 6.9 6.9 0 005.45 2 9.098 9.098 0 006.9-2.85 11.052 11.052 0 002.65-7.65V212.3a6.551 6.551 0 011.9-5 7.503 7.503 0 015.3-1.8 7.699 7.699 0 015.45 1.8zm20.6 46.2a23.056 23.056 0 01-7.6-3.05 5.995 5.995 0 01-2.25-2.35 6.887 6.887 0 01-.75-3.1 5.447 5.447 0 011.25-3.7 3.9 3.9 0 013.1-1.5 7.56 7.56 0 012.5.45c.8.3 1.7.6 2.6 1a30.013 30.013 0 005.3 1.95c2.088.547 4.242.8 6.4.75 1.81.094 3.615-.267 5.25-1.05a3.3 3.3 0 001.9-2.9 3 3 0 00-.8-2.15 7.81 7.81 0 00-3.05-1.5c-1.5-.45-3.8-1-7.05-1.65a26.908 26.908 0 01-12.3-5 11.547 11.547 0 01-3.75-9.15 12.546 12.546 0 012.65-7.8 17.6 17.6 0 017.25-5.45 26.6 26.6 0 0110.4-1.95 31.591 31.591 0 018.1 1.05 24.683 24.683 0 017 3 5.85 5.85 0 013 5.35 5.75 5.75 0 01-1.25 3.85 3.749 3.749 0 01-3.05 1.55 10.743 10.743 0 01-5.3-1.75 32.444 32.444 0 00-4.4-1.85 16.084 16.084 0 00-4.65-.65 8.652 8.652 0 00-4.75 1.15 3.45 3.45 0 00.3 6.1 31.845 31.845 0 007.8 2.1 42.198 42.198 0 0110 3.05c2.159.941 4 2.486 5.3 4.45a13.003 13.003 0 011.65 6.85 12.798 12.798 0 01-5.65 10.9 24.996 24.996 0 01-15 4.05 46.667 46.667 0 01-10.15-1.05z" fill="#000638"/><path fill-rule="evenodd" clip-rule="evenodd" d="M653.8 190.45a6.85 6.85 0 002.2 5.35v-.15a10.448 10.448 0 0012.15 0 6.852 6.852 0 002.2-5.35 6.75 6.75 0 00-2.25-5.25 8.853 8.853 0 00-6-1.95 9.208 9.208 0 00-6.1 1.9 6.75 6.75 0 00-2.2 5.45zm.95 57.1a6.197 6.197 0 002.1 5h-.35a8.599 8.599 0 0010.4 0 6.35 6.35 0 002.05-5v-35a6.35 6.35 0 00-2.05-5 7.8 7.8 0 00-5-1.7 7.952 7.952 0 00-5 1.7 6.098 6.098 0 00-2.15 5v35zm26.5-4.7a21.356 21.356 0 008.75 8.6h-.15a30 30 0 0026.4 0 21.643 21.643 0 008.75-8.6 26.14 26.14 0 003.05-13A26.504 26.504 0 00725 216.8a21.205 21.205 0 00-8.6-8.55 31.002 31.002 0 00-26.4 0 20.906 20.906 0 00-8.75 8.55 26.501 26.501 0 00-3.1 13.05 26.193 26.193 0 003.1 13zm29.8-22.85a16.051 16.051 0 012.75 10c0 8.9-3.55 13.75-10.6 13.75s-10.6-4.5-10.6-13.55 3.55-13.6 10.6-13.6a9.601 9.601 0 017.85 3.4z" fill="#000638"/><path d="M779.35 210.25a23.002 23.002 0 014.1 15v22.25a6.5 6.5 0 01-1.95 5 7.397 7.397 0 01-5.35 1.85 7.294 7.294 0 01-5.3-1.85 6.648 6.648 0 01-1.9-5v-21.6a11.257 11.257 0 00-1.8-7.05 6.8 6.8 0 00-5.55-2.2 9.5 9.5 0 00-7.25 2.9 10.599 10.599 0 00-2.75 7.7v20a6.652 6.652 0 01-1.9 5 7.295 7.295 0 01-5.3 1.85 7.397 7.397 0 01-5.35-1.85 6.55 6.55 0 01-2-5V212.1a6.15 6.15 0 012.1-5 7.798 7.798 0 015.35-1.8 6.754 6.754 0 015 1.75 6.052 6.052 0 011.85 4.6v1.3a16.953 16.953 0 016.5-5.85 20.01 20.01 0 019-2 15.598 15.598 0 0112.5 5.15z" fill="#000638"/><circle opacity=".5" cx="111.45" cy="155.75" r="32.75" fill="#D1EDE5"/><circle cx="78.7" cy="144.4" r="24.8" fill="#18A47D"/><path d="M155 3.5a50.547 50.547 0 00-15.3 2.35c-24.595 7.569-39.956 31.989-36.127 57.436 3.828 25.447 25.693 44.267 51.427 44.264 28.105-.871 50.437-23.906 50.437-52.025 0-28.118-22.332-51.154-50.437-52.025z" fill="#D1EDE5"/><path d="M173.35 215.651c3.981 12.957-3.293 26.69-16.249 30.675-12.957 3.985-26.691-3.285-30.681-16.24-3.989-12.955 3.276-26.692 16.23-30.685 12.963-3.968 26.692 3.299 30.7 16.25zM21.65 179.35c-1.694.008-3.378.26-5 .75a16.9 16.9 0 005 33.05 15.453 15.453 0 005-.75 16.9 16.9 0 00-5-33.05z" fill="#18A47D"/><path d="M178 149.051a13.754 13.754 0 00-3.7.55 12.548 12.548 0 00-8.577 13.824A12.55 12.55 0 00178 174.101a12.118 12.118 0 003.7-.55 12.55 12.55 0 00-3.7-24.5M43.45 52.1a29.04 29.04 0 00-8.2 1.2c-14.057 4.25-22.457 18.623-19.26 32.956 3.196 14.333 16.908 23.775 31.438 21.648 14.531-2.126 24.962-15.1 23.918-29.749C70.302 63.507 58.136 52.143 43.45 52.1z" fill="#D1EDE5"/><path d="M205.95 32.8c-11.493.02-20.939 9.074-21.443 20.556-.505 11.482 8.11 21.33 19.557 22.358 11.447 1.027 21.678-7.13 23.226-18.518 1.548-11.389-6.134-21.98-17.44-24.046a20.558 20.558 0 00-3.9-.35zm25 127.65a7.053 7.053 0 01-1.85-5V101.5a6.953 6.953 0 017.5-7.35 7.45 7.45 0 015.5 2 7.246 7.246 0 012 5.35V150h24.6c4.65 0 7 2.05 7 6.15 0 4.1-2.35 6.05-7 6.05h-32.55a6.898 6.898 0 01-5.2-1.75z" fill="#18A47D"/><path fill-rule="evenodd" clip-rule="evenodd" d="M323.6 134.45a21.196 21.196 0 00-5-15.4 20.85 20.85 0 00-15.35-5.1 44.708 44.708 0 00-9.55 1.05 30.024 30.024 0 00-8.25 3.1 7.65 7.65 0 00-2.75 2.3 5.003 5.003 0 00-.85 3.15 5.802 5.802 0 001.25 3.9 4.05 4.05 0 003.35 1.5 9.29 9.29 0 003.75-1.05 36.839 36.839 0 0111.9-2.9 8.099 8.099 0 016.15 1.75 8.5 8.5 0 011.75 5.9v1.7h-2.75a74.62 74.62 0 00-16 1.35 16 16 0 00-8.5 4.3 11.95 11.95 0 00-2.75 8.1 13.707 13.707 0 002.3 7.65 15.403 15.403 0 006.15 5.4 19.994 19.994 0 008.7 1.9 14.998 14.998 0 007.85-2 11.148 11.148 0 005-5.6v.7a6.453 6.453 0 006.75 6.75 7.095 7.095 0 005-1.75 6.498 6.498 0 001.85-5v-21.7zM310 142.9a10.4 10.4 0 01-2.85 7.35 8.702 8.702 0 01-6.55 2.8 6.301 6.301 0 01-4.45-1.65 5.8 5.8 0 01-1.8-4.4 4.55 4.55 0 013.15-4.5 33.502 33.502 0 0110.9-1.25h1.6v1.65z" fill="#18A47D"/><path d="M370.25 160a20.397 20.397 0 01-8.4-8.45 27.002 27.002 0 01-2.95-12.9 26.196 26.196 0 013.15-13 21.548 21.548 0 018.75-8.7 27.052 27.052 0 0113.05-3.05 29.54 29.54 0 017.75 1.05 25.023 25.023 0 016.95 3 5.85 5.85 0 013 5.35 6.951 6.951 0 01-1.15 4.1 3.65 3.65 0 01-3.1 1.55 6.282 6.282 0 01-2.35-.4l-2.9-1.3a35.217 35.217 0 00-3.6-1.65 11.349 11.349 0 00-3.45-.6 10.001 10.001 0 00-8.2 3.4 18.801 18.801 0 000 20 9.998 9.998 0 008.2 3.45 11.037 11.037 0 003.55-.5 27.427 27.427 0 003.75-1.7l2.85-1.3a6.955 6.955 0 012.3-.4 3.701 3.701 0 013.05 1.6 6.903 6.903 0 011.2 4.15 5.8 5.8 0 01-3 5.3 26.072 26.072 0 01-7.1 2.95 33.404 33.404 0 01-8.45 1.05 26.639 26.639 0 01-12.9-3z" fill="#18A47D"/><path fill-rule="evenodd" clip-rule="evenodd" d="M409.4 151.45a21.503 21.503 0 008.75 8.55 30.3 30.3 0 0026.3 0 21.854 21.854 0 008.75-8.55 29.347 29.347 0 000-26.05 21.395 21.395 0 00-8.75-8.5 30.8 30.8 0 00-26.3 0 21.1 21.1 0 00-8.75 8.5 29.347 29.347 0 000 26.05zm29.7-23a15.796 15.796 0 012.75 10v.05c0 9-3.5 13.65-10.55 13.65-7.05 0-10.55-4.45-10.55-13.5s3.5-13.55 10.55-13.55a9.399 9.399 0 017.8 3.35z" fill="#18A47D"/><path d="M535 118.65a22.75 22.75 0 014.15 15v22.2a6.3 6.3 0 01-2 5 7.749 7.749 0 01-5 1.7 8.048 8.048 0 01-5-1.7 6.2 6.2 0 01-2.1-5V133.7a10.004 10.004 0 00-1.6-6.5 5.95 5.95 0 00-5-1.85 8.049 8.049 0 00-6.4 2.75 11.546 11.546 0 00-2.4 7.8v20a6.35 6.35 0 01-2.05 5 7.55 7.55 0 01-5 1.7 7.946 7.946 0 01-5-1.7 6.2 6.2 0 01-2.1-5v-22.2a10.004 10.004 0 00-1.6-6.5 5.95 5.95 0 00-5-1.85 7.952 7.952 0 00-6.4 2.75 11.546 11.546 0 00-2.4 7.8v20a6.2 6.2 0 01-2.1 5 7.55 7.55 0 01-5 1.7 7.946 7.946 0 01-5-1.7 6.2 6.2 0 01-2.1-5v-35.1a5.899 5.899 0 012.15-5 8.15 8.15 0 015-1.7 7.203 7.203 0 015 1.65 6.05 6.05 0 011.9 4.7v.95a15.7 15.7 0 016-5.6 18.25 18.25 0 018.4-1.9 16.955 16.955 0 018.6 2.05 13.155 13.155 0 015.4 6.7 16.503 16.503 0 016.3-6.4 18.292 18.292 0 019.25-2.35 15.002 15.002 0 0111.1 4.75zm85 0a22.749 22.749 0 014.1 15v22.2a6.3 6.3 0 01-2 5 8.75 8.75 0 01-10.35 0 6.098 6.098 0 01-2.15-5V133.7a9.999 9.999 0 00-1.55-6.5 6.1 6.1 0 00-5-1.85 8.098 8.098 0 00-6.45 2.75 11.546 11.546 0 00-2.4 7.8v20a6.3 6.3 0 01-2 5 7.749 7.749 0 01-5 1.7 8.048 8.048 0 01-5-1.7 6.197 6.197 0 01-2.1-5v-22.2a10.004 10.004 0 00-1.6-6.5 5.95 5.95 0 00-5-1.85 8.049 8.049 0 00-6.4 2.75 11.546 11.546 0 00-2.4 7.8v20a6.35 6.35 0 01-2.05 5 7.797 7.797 0 01-5 1.7 7.946 7.946 0 01-5-1.7 6.197 6.197 0 01-2.1-5v-35.1a5.899 5.899 0 012.15-5 8.149 8.149 0 015.25-1.7 7.203 7.203 0 015 1.65 6.05 6.05 0 011.9 4.7v.95a15.7 15.7 0 016-5.6 18.25 18.25 0 018.4-1.9 16.957 16.957 0 018.6 2.05 13.155 13.155 0 015.4 6.7 16.503 16.503 0 016.3-6.4 18.501 18.501 0 019.3-2.35 15.003 15.003 0 0111.15 4.75zm58.45-2.65a6.602 6.602 0 011.95 5v35a6.052 6.052 0 01-2.05 5 7.85 7.85 0 01-5.35 1.8 6.697 6.697 0 01-5-1.7 5.948 5.948 0 01-1.85-4.6v-1a14.998 14.998 0 01-5.8 5.6 17.298 17.298 0 01-8.1 1.9 16.797 16.797 0 01-13.3-5 21.748 21.748 0 01-4.4-15v-22a6.6 6.6 0 012-5 7.551 7.551 0 015.3-1.8 7.503 7.503 0 015.3 1.8 6.75 6.75 0 011.9 5v22.45a9.148 9.148 0 001.8 6.25 6.8 6.8 0 005.4 2.05 9.05 9.05 0 006.9-2.9 10.8 10.8 0 002.6-7.6v-20a6.598 6.598 0 011.95-5 7.35 7.35 0 015.25-1.8 7.605 7.605 0 015.5 1.55zm55.25 2.95a22.853 22.853 0 014.1 15v22.2a6.5 6.5 0 01-1.95 5 7.551 7.551 0 01-5.3 1.8 7.4 7.4 0 01-5.3-1.8 6.497 6.497 0 01-1.9-5v-21.5a11.006 11.006 0 00-1.8-7 6.55 6.55 0 00-5.5-2.2 9.499 9.499 0 00-7.25 2.85 10.7 10.7 0 00-2.75 7.7v20a6.652 6.652 0 01-1.9 5 7.499 7.499 0 01-5.3 1.8 7.697 7.697 0 01-5.35-1.8 6.497 6.497 0 01-1.95-5v-35.2a6.249 6.249 0 012.05-5 7.847 7.847 0 015.35-1.8 6.95 6.95 0 015 1.75 6.052 6.052 0 011.85 4.6v1.3a16.597 16.597 0 016.5-5.85 19.46 19.46 0 018.95-2 15.453 15.453 0 0112.45 5.15z" fill="#18A47D"/><path fill-rule="evenodd" clip-rule="evenodd" d="M790.25 134.45a21.204 21.204 0 00-5-15.4A20.853 20.853 0 00770 114c-3.281.008-6.55.377-9.75 1.1A30.022 30.022 0 00752 118a7.641 7.641 0 00-2.75 2.3 5.003 5.003 0 00-.9 3.15 6.042 6.042 0 001.25 3.9 4.197 4.197 0 003.4 1.5 8.955 8.955 0 003.7-1.05 37.418 37.418 0 0111.95-2.9 8.101 8.101 0 015.9 1.8 8.5 8.5 0 011.75 5.9v1.7h-2.5a74.614 74.614 0 00-16 1.35 15.85 15.85 0 00-8.5 4.3 11.75 11.75 0 00-2.65 8.2 13.698 13.698 0 002.25 7.65 15.39 15.39 0 006.15 5.4 19.994 19.994 0 008.7 1.9 15 15 0 007.85-2 11.144 11.144 0 005-5.6v.7a6.349 6.349 0 006.8 6.7 7.097 7.097 0 005-1.75 6.7 6.7 0 001.85-5v-21.7zm-13.85 8.45a10.4 10.4 0 01-2.6 7.35 8.697 8.697 0 01-6.6 2.8 6.197 6.197 0 01-4.45-1.65 5.8 5.8 0 01-1.8-4.4 4.55 4.55 0 013.15-4.5 33.499 33.499 0 0110.9-1.25h1.4v1.65z" fill="#18A47D"/><path d="M844.5 116a6.45 6.45 0 012 5v35a6.048 6.048 0 01-2.1 5 7.753 7.753 0 01-5.3 1.8 6.803 6.803 0 01-5-1.7 6.1 6.1 0 01-1.8-4.6v-1a15.292 15.292 0 01-5.85 5.6 17.298 17.298 0 01-8.1 1.9 16.798 16.798 0 01-13.3-5 22 22 0 01-4.35-15v-22a6.6 6.6 0 011.95-5 7.603 7.603 0 015.35-1.8 7.253 7.253 0 015 1.8 6.597 6.597 0 011.95 5v22.45a9.4 9.4 0 001.75 6.25 6.9 6.9 0 005.45 2.05 8.948 8.948 0 006.85-2.9 10.798 10.798 0 002.65-7.6v-20a6.75 6.75 0 011.9-5 8.7 8.7 0 0110.6 0l.35-.25zm43.55 37.75a5.3 5.3 0 01-.85 7.85 9.996 9.996 0 01-6.35 1.15h-2.7c-11.2-.9-16.8-6.8-16.8-17.6V126h-3.8a6.95 6.95 0 01-5-1.4 5.001 5.001 0 01-1.65-4 5 5 0 011.65-4.05 6.95 6.95 0 015-1.4h3.8v-7.5a6.45 6.45 0 012-5 8.7 8.7 0 0110.6 0 6.75 6.75 0 011.9 5V115h6.75c4.35 0 6.5 1.8 6.5 5.45a4.998 4.998 0 01-1.6 4 7.353 7.353 0 01-5 1.4h-6.75v20a6.352 6.352 0 001.35 4.4 5.65 5.65 0 003.95 1.65h2.7a6.75 6.75 0 014.3 1.85z" fill="#18A47D"/><path fill-rule="evenodd" clip-rule="evenodd" d="M913.4 108.65a3.498 3.498 0 002.6 1.05v-.2a4.297 4.297 0 002.5-.85l11.7-8.55a6.547 6.547 0 003.05-5 5.448 5.448 0 00-1.8-4.05 5.95 5.95 0 00-4.2-1.7 7 7 0 00-5.8 3.25l-8.25 11.05a4.4 4.4 0 00-.85 2.5 3.447 3.447 0 001.05 2.5zM935.7 150a6.303 6.303 0 011.2 3.95 5.006 5.006 0 01-.95 3 7.302 7.302 0 01-2.7 2.35 35.007 35.007 0 01-7.55 2.85 31.937 31.937 0 01-8 1.1 28.84 28.84 0 01-13.35-2.95 20.943 20.943 0 01-8.8-8.5 28.803 28.803 0 010-25.8 22.298 22.298 0 018.25-8.7 23.454 23.454 0 0112-3.1 21.953 21.953 0 0111.3 2.85 18.856 18.856 0 017.4 7.95 26.355 26.355 0 012.7 12.25 4.447 4.447 0 01-1 3.2 3.549 3.549 0 01-2.85 1.1H906.5a12.749 12.749 0 003.45 8.2 11.35 11.35 0 007.95 2.55c1.69.033 3.375-.187 5-.65a41.175 41.175 0 005-1.85l2.6-1a6.605 6.605 0 012.2-.45 3.801 3.801 0 013 1.65zm-26.25-23.2a12.704 12.704 0 00-2.95 7.65H925a12.697 12.697 0 00-2.55-7.7 8 8 0 00-6.35-2.55 8.8 8.8 0 00-6.65 2.4v.2z" fill="#18A47D"/></svg>