<svg width="157" height="51" fill="none" xmlns="http://www.w3.org/2000/svg"><path fill-rule="evenodd" clip-rule="evenodd" d="M46.77 31.96a1.46 1.46 0 00.4 1.09 1.49 1.49 0 001.1.45c.404.02.8-.128 1.09-.41.28-.292.43-.686.41-1.09v-3.75H53a4.91 4.91 0 003.44-1.14A4 4 0 0057.67 24a4 4 0 00-1.23-3.1A5 5 0 0053 19.79h-4.83a1.27 1.27 0 00-1.4 1.4v10.77zm8.09-7.935v.025V24v.025zm-2.25-1.975c1.49 0 2.24.681 2.25 1.975C54.85 25.338 54.1 26 52.61 26h-2.84v-3.95h2.84z" fill="#fff"/><path d="M59.79 33.11a1.27 1.27 0 01-.41-1v-11a1.27 1.27 0 01.41-1 1.6 1.6 0 011-.35 1.57 1.57 0 011 .35c.282.253.434.622.41 1v11a1.24 1.24 0 01-.41 1 1.57 1.57 0 01-1 .35 1.6 1.6 0 01-1-.35z" fill="#fff"/><path fill-rule="evenodd" clip-rule="evenodd" d="M72.84 27.77a4.25 4.25 0 00-1-3.09 4.2 4.2 0 00-3.08-1.04 8.93 8.93 0 00-1.91.21 6.738 6.738 0 00-1.65.58 1.63 1.63 0 00-.55.46 1.08 1.08 0 00-.18.64c-.01.278.078.551.25.77a.84.84 0 00.68.3c.262-.016.518-.088.75-.21a7.647 7.647 0 012.38-.58 1.32 1.32 0 011.54 1.54v.35h-.5a14.997 14.997 0 00-3.21.27 3.2 3.2 0 00-1.7.86 2.35 2.35 0 00-.53 1.64 2.74 2.74 0 00.45 1.53 3 3 0 001.2 1.13 3.83 3.83 0 001.74.38 3 3 0 001.58-.4 2.36 2.36 0 001-1.11v.09a1.3 1.3 0 00.37 1c.266.26.628.398 1 .38a1.38 1.38 0 001-.36c.256-.268.39-.63.37-1v-4.34zm-2.77 1.69a2.13 2.13 0 01-.52 1.47 1.77 1.77 0 01-1.37.57 1.26 1.26 0 01-.89-.34 1.15 1.15 0 01-.36-.88.91.91 0 01.63-.9 6.748 6.748 0 012.18-.25h.33v.33z" fill="#fff"/><path d="M81.1 31.63a1 1 0 01.27.73 1 1 0 01-.44.85 2.07 2.07 0 01-1.27.23h-.54c-2.24-.18-3.36-1.353-3.36-3.52v-3.85H75a1.48 1.48 0 01-1-.27 1 1 0 01-.33-.8 1 1 0 01.33-.82 1.48 1.48 0 011-.28h.77v-1.5a1.32 1.32 0 01.39-1 1.52 1.52 0 011.06-.4 1.5 1.5 0 011.06.36c.259.267.397.628.38 1v1.5H80c.87 0 1.3.37 1.3 1.1a1 1 0 01-.32.8 1.53 1.53 0 01-1 .27h-1.32v4c-.023.317.073.63.27.88.207.213.493.332.79.33h.54c.317.027.615.165.84.39z" fill="#fff"/><path fill-rule="evenodd" clip-rule="evenodd" d="M90.89 31.63a1.26 1.26 0 00-.24-.79.79.79 0 00-.59-.31c-.15.004-.3.034-.44.09l-.52.2a8.96 8.96 0 01-1 .37 3.462 3.462 0 01-1 .13 2.31 2.31 0 01-1.6-.51 2.55 2.55 0 01-.69-1.64h5.38a.71.71 0 00.57-.22.89.89 0 00.2-.64 5.31 5.31 0 00-.54-2.46 3.89 3.89 0 00-1.5-1.61 4.39 4.39 0 00-2.26-.57 4.63 4.63 0 00-2.41.63 4.33 4.33 0 00-1.65 1.74 5.76 5.76 0 000 5.16 4.18 4.18 0 001.76 1.7 5.691 5.691 0 002.68.59 6.392 6.392 0 001.6-.22 6.514 6.514 0 001.51-.56 1.57 1.57 0 00.54-.47 1.06 1.06 0 00.2-.61zm-6.1-3.9a2.5 2.5 0 01.6-1.53 1.73 1.73 0 011.32-.53 1.58 1.58 0 011.28.52c.334.444.513.985.51 1.54h-3.71z" fill="#fff"/><path d="M96.6 22.38a1.81 1.81 0 00-.35 1.2v.32h1.35c.87 0 1.3.37 1.3 1.1 0 .73-.43 1.07-1.3 1.07h-1.35v6a1.27 1.27 0 01-.41 1 1.57 1.57 0 01-1 .35 1.58 1.58 0 01-1-.35 1.24 1.24 0 01-.41-1v-6h-.77c-.86 0-1.29-.35-1.29-1.07 0-.72.43-1.1 1.29-1.1h.77a4 4 0 011-2.9 4.16 4.16 0 012.8-1.19h.85c.88 0 1.32.333 1.32 1 0 .67-.37 1-1.11 1.1h-.5a1.53 1.53 0 00-1.19.47z" fill="#fff"/><path fill-rule="evenodd" clip-rule="evenodd" d="M99.88 31.18a4.18 4.18 0 001.75 1.71c1.666.8 3.604.8 5.27 0a4.24 4.24 0 001.75-1.71 5.87 5.87 0 000-5.21 4.219 4.219 0 00-1.75-1.7 6.09 6.09 0 00-5.27 0c-.74.379-1.35.971-1.75 1.7a5.87 5.87 0 000 5.21zm5.95-4.61c.405.585.599 1.29.55 2 0 1.81-.71 2.74-2.12 2.74-1.41 0-2.11-.91-2.11-2.71 0-1.8.7-2.71 2.11-2.71a1.9 1.9 0 011.57.68z" fill="#fff"/><path d="M117.58 24c.233.235.353.56.33.89a1.32 1.32 0 01-.3 1 1.832 1.832 0 01-1.1.38l-.58.06a2.2 2.2 0 00-1.53.69 2.282 2.282 0 00-.47 1.48v3.67c.023.378-.128.747-.41 1a1.57 1.57 0 01-1 .35 1.601 1.601 0 01-1.05-.35 1.27 1.27 0 01-.41-1V25a1.188 1.188 0 01.42-1 1.6 1.6 0 011-.35 1.36 1.36 0 011 .34c.266.233.41.577.39.93v.52a2.694 2.694 0 011.05-1.27c.46-.292.986-.464 1.53-.5h.26a1.24 1.24 0 01.87.33zm15.15.61c.622.87.916 1.933.83 3v4.44c.023.376-.124.743-.4 1a1.56 1.56 0 01-1 .35 1.59 1.59 0 01-1-.35 1.24 1.24 0 01-.42-1v-4.44a1.995 1.995 0 00-.32-1.29 1.189 1.189 0 00-1-.38 1.62 1.62 0 00-1.29.56 2.313 2.313 0 00-.48 1.56v4c.023.376-.124.743-.4 1a1.56 1.56 0 01-1 .35 1.59 1.59 0 01-1-.35 1.24 1.24 0 01-.42-1v-4.45a1.995 1.995 0 00-.32-1.29 1.189 1.189 0 00-1-.38 1.62 1.62 0 00-1.29.56 2.313 2.313 0 00-.48 1.56v4a1.27 1.27 0 01-.41 1 1.57 1.57 0 01-1 .35 1.59 1.59 0 01-1-.35 1.24 1.24 0 01-.42-1V25a1.17 1.17 0 01.43-1 1.64 1.64 0 011.05-.35c.365-.023.724.1 1 .34.264.234.404.578.38.93v.19a3.067 3.067 0 011.21-1.11 3.529 3.529 0 011.68-.39 3.298 3.298 0 011.72.42c.5.311.883.779 1.09 1.33a3.27 3.27 0 011.25-1.28 3.72 3.72 0 011.86-.47 2.999 2.999 0 012.15 1z" fill="#fff"/><path fill-rule="evenodd" clip-rule="evenodd" d="M144.24 31.63a1.263 1.263 0 00-.24-.79.78.78 0 00-.66-.31 1.37 1.37 0 00-.44.09l-.52.2a8.235 8.235 0 01-1 .37 3.374 3.374 0 01-1 .13 2.27 2.27 0 01-1.59-.51 2.554 2.554 0 01-.69-1.64h5.44a.74.74 0 00.57-.22.942.942 0 00.2-.64 5.304 5.304 0 00-.54-2.46 3.905 3.905 0 00-1.51-1.61 4.389 4.389 0 00-2.26-.57 4.57 4.57 0 00-2.4.63 4.201 4.201 0 00-1.65 1.74 5.802 5.802 0 000 5.16 4.181 4.181 0 001.76 1.7 5.743 5.743 0 002.69.59 6.373 6.373 0 001.59-.22 6.596 6.596 0 001.52-.56 1.67 1.67 0 00.54-.47c.128-.177.195-.391.19-.61zm-6.09-3.9a2.487 2.487 0 01.59-1.53h-.05a1.75 1.75 0 011.38-.53 1.6 1.6 0 011.28.52c.334.444.513.985.51 1.54h-3.71zM53.03 40.59a.57.57 0 00-.17-.42.61.61 0 00-.45-.16.62.62 0 00-.44.16.61.61 0 00-.16.43v4a2.44 2.44 0 00-1-1.07 3.25 3.25 0 00-3.19.1 3.11 3.11 0 00-1.14 1.31 5.06 5.06 0 000 4 3.19 3.19 0 001.14 1.34 3 3 0 001.69.48 2.93 2.93 0 001.5-.37 2.44 2.44 0 001-1.07v.81a.66.66 0 00.16.44.62.62 0 00.44.16.65.65 0 00.45-.16.62.62 0 00.17-.44v-9.54zM51.81 47a3.29 3.29 0 01-.57 2 2 2 0 01-1.65.76 2 2 0 01-1.65-.74 3.21 3.21 0 01-.6-2.07 3.09 3.09 0 01.6-2 2.25 2.25 0 013.3 0c.416.6.617 1.322.57 2.05zm9.53 2.44a.49.49 0 00-.12-.34.35.35 0 00-.3-.14 1.29 1.29 0 00-.52.23c-.29.16-.59.301-.9.42-.32.114-.66.168-1 .16-1.54 0-2.35-.86-2.44-2.58h4.82a.5.5 0 00.39-.13.68.68 0 00.12-.44 3.62 3.62 0 00-.84-2.52 2.91 2.91 0 00-2.27-.93 3.38 3.38 0 00-1.79.48 3.3 3.3 0 00-1.22 1.34 4.38 4.38 0 00-.44 2 3.77 3.77 0 001 2.77 3.51 3.51 0 002.67 1 4.74 4.74 0 002.31-.63c.35-.21.53-.44.53-.69zm-5.25-3.03a2.78 2.78 0 01.68-1.7 2.09 2.09 0 011.54-.6 1.85 1.85 0 011.47.6 2.58 2.58 0 01.55 1.7h-4.24z" fill="#fff"/><path d="M69 50.42a1.26 1.26 0 01-.41-1v-11a1.27 1.27 0 01.41-1 1.6 1.6 0 011-.42 1.56 1.56 0 011 .34c.279.256.429.622.41 1v11c.02.378-.13.745-.41 1a1.57 1.57 0 01-1 .35 1.6 1.6 0 01-1-.27zm7.23-12.87a2.47 2.47 0 01.46 1.59 4.9 4.9 0 01-1.44 3.5.8.8 0 01-.6.27.89.89 0 01-.58-.22.69.69 0 010-1c.4-.401.692-.896.85-1.44a1.62 1.62 0 01-1.06-.48 1.5 1.5 0 01-.4-1.08 1.64 1.64 0 01.45-1.18A1.48 1.48 0 0175 37a1.54 1.54 0 011.23.55z" fill="#fff"/><path fill-rule="evenodd" clip-rule="evenodd" d="M78.48 38c-.03.412.132.815.44 1.09v-.03a2 2 0 002.42 0 1.37 1.37 0 00.44-1.06 1.32 1.32 0 00-.45-1 2 2 0 00-2.41 0 1.32 1.32 0 00-.44 1zm.19 11.42c-.02.378.13.745.41 1a1.6 1.6 0 001.01.35 1.57 1.57 0 001-.35c.28-.255.43-.622.41-1v-7a1.27 1.27 0 00-.41-1 1.57 1.57 0 00-1-.35 1.59 1.59 0 00-1 .35 1.24 1.24 0 00-.42 1v7z" fill="#fff"/><path d="M92.24 42a4.58 4.58 0 01.82 3v4.44c.023.374-.12.74-.39 1a1.48 1.48 0 01-1.07.37 1.42 1.42 0 01-1-.37 1.28 1.28 0 01-.39-1V45.1a2.26 2.26 0 00-.35-1.4 1.34 1.34 0 00-1.11-.45 1.92 1.92 0 00-1.45.58 2.14 2.14 0 00-.55 1.54v4a1.31 1.31 0 01-.38 1 1.46 1.46 0 01-1.06.37 1.5 1.5 0 01-1.07-.37 1.28 1.28 0 01-.39-1v-7.02a1.22 1.22 0 01.41-1 1.58 1.58 0 011.07-.37 1.34 1.34 0 011 .36 1.2 1.2 0 01.37.91v.27a3.39 3.39 0 011.3-1.17 3.91 3.91 0 011.8-.4A3.09 3.09 0 0192.24 42zM97 50.21a4 4 0 01-1.68-1.69 5.39 5.39 0 01-.59-2.57 5.25 5.25 0 01.63-2.61 4.34 4.34 0 011.76-1.74 5.38 5.38 0 012.61-.61 5.88 5.88 0 011.55.21c.489.13.957.328 1.39.59a1.2 1.2 0 01.6 1.08 1.39 1.39 0 01-.23.82.72.72 0 01-.62.31c-.16.004-.32-.024-.47-.08l-.58-.26a7.04 7.04 0 00-.72-.33 2.05 2.05 0 00-.72-.11 2 2 0 00-1.65.68 3 3 0 00-.57 2 3.08 3.08 0 00.57 2 2 2 0 001.65.69 2.25 2.25 0 00.71-.11c.256-.095.507-.205.75-.33.24-.12.43-.2.57-.26a1.19 1.19 0 01.46-.09.72.72 0 01.61.33c.167.24.251.528.24.82a1.14 1.14 0 01-.6 1.06 4.94 4.94 0 01-1.42.6 6.693 6.693 0 01-1.69.21 5.262 5.262 0 01-2.56-.61zm8.15.21a1.24 1.24 0 01-.42-1v-11a1.24 1.24 0 01.42-1 1.75 1.75 0 012.07 0c.286.251.441.62.42 1v11a1.24 1.24 0 01-.42 1 1.71 1.71 0 01-2.07 0zm13.41-9.03c.275.258.422.624.4 1v7c.027.381-.129.752-.42 1a1.51 1.51 0 01-1.06.37 1.37 1.37 0 01-1-.35 1.18 1.18 0 01-.37-.92v-.19a2.88 2.88 0 01-1.11 1.12 3.89 3.89 0 01-4.29-.6 4.427 4.427 0 01-.87-3v-4.43a1.3 1.3 0 01.39-1 1.53 1.53 0 011.07-.37 1.46 1.46 0 011 .37 1.3 1.3 0 01.39 1v4.5c-.034.445.09.887.35 1.25.287.287.686.433 1.09.4a1.78 1.78 0 001.38-.58 2.15 2.15 0 00.52-1.51v-4.06a1.3 1.3 0 01.39-1 1.48 1.48 0 011.08-.39c.39-.011.77.129 1.06.39zm4.16 9.23a4.664 4.664 0 01-1.51-.62 1.17 1.17 0 01-.45-.46 1.384 1.384 0 01-.15-.65 1.09 1.09 0 01.25-.74.78.78 0 01.62-.3c.171.002.34.032.5.09.174.057.344.124.51.2.344.155.698.285 1.06.39.421.109.855.16 1.29.15a2.05 2.05 0 001-.22.629.629 0 00.37-.57.6.6 0 00-.16-.44 1.64 1.64 0 00-.61-.29c-.29-.09-.76-.2-1.4-.33a5.382 5.382 0 01-2.46-1 2.301 2.301 0 01-.75-1.83 2.508 2.508 0 01.53-1.55 3.377 3.377 0 011.45-1.09 5.276 5.276 0 012.08-.39c.544 0 1.085.07 1.61.21.492.13.964.328 1.4.59a1.2 1.2 0 01.6 1.08c.011.278-.078.551-.25.77a.791.791 0 01-.62.31 2.262 2.262 0 01-1.05-.35 5.068 5.068 0 00-.88-.37 2.858 2.858 0 00-.93-.13 1.7 1.7 0 00-.94.22.7.7 0 00-.35.61.66.66 0 00.41.61 6.47 6.47 0 001.55.43 8.05 8.05 0 012 .6c.43.191.797.5 1.06.89.234.418.348.892.33 1.37a2.54 2.54 0 01-1.06 2.19 5 5 0 01-3 .81 10.118 10.118 0 01-2.05-.19z" fill="#fff"/><path fill-rule="evenodd" clip-rule="evenodd" d="M130.36 38.03c-.021.402.141.791.44 1.06v.02a2 2 0 002.42 0c.295-.272.456-.66.44-1.06a1.32 1.32 0 00-.45-1.05 2 2 0 00-2.41 0 1.322 1.322 0 00-.44 1.03zm.23 11.39c-.02.378.13.745.41 1a1.6 1.6 0 001.01.35 1.57 1.57 0 001-.35c.28-.255.43-.622.41-1v-7a1.27 1.27 0 00-.41-1 1.57 1.57 0 00-1-.35 1.59 1.59 0 00-1 .35 1.24 1.24 0 00-.42 1v7zm5.24-.93a4.241 4.241 0 001.75 1.71 6 6 0 005.27 0 4.181 4.181 0 001.75-1.71 5.235 5.235 0 00.62-2.6 5.296 5.296 0 00-.62-2.61 4.218 4.218 0 00-1.75-1.7 6.18 6.18 0 00-5.27 0 4.278 4.278 0 00-1.75 1.7 5.292 5.292 0 00-.61 2.61 5.23 5.23 0 00.61 2.6zm5.95-4.6a3.16 3.16 0 01.55 2c0 1.81-.7 2.75-2.11 2.75s-2.12-.9-2.12-2.71.71-2.71 2.12-2.71a1.88 1.88 0 011.56.67z" fill="#fff"/><path d="M155.42 42c.618.872.912 1.934.83 3v4.44c.023.374-.12.74-.39 1a1.5 1.5 0 01-1.07.37 1.46 1.46 0 01-1.06-.37 1.268 1.268 0 01-.38-1V45.1a2.202 2.202 0 00-.36-1.4 1.32 1.32 0 00-1.1-.45 1.94 1.94 0 00-1.46.58 2.179 2.179 0 00-.54 1.54v4c.023.374-.12.74-.39 1a1.44 1.44 0 01-1.06.37 1.47 1.47 0 01-1.06-.37 1.253 1.253 0 01-.4-1v-7.02a1.201 1.201 0 01.42-1 1.55 1.55 0 011.06-.37c.369-.023.731.107 1 .36.25.236.388.566.38.91v.27a3.261 3.261 0 011.3-1.17 3.889 3.889 0 011.79-.4 3.09 3.09 0 012.49 1.05z" fill="#fff"/><path d="M22.25 24.65a6.436 6.436 0 00-1.92.29 6.54 6.54 0 001.92 12.8 6.793 6.793 0 001.93-.29 6.55 6.55 0 00-1.93-12.8z" fill="#80829B"/><path d="M20.45 27.47a5 5 0 11-9.532 3.025 5 5 0 019.532-3.025zm14.16 15.68a4.9 4.9 0 11-9.366 2.883 4.9 4.9 0 019.366-2.883zM4.32 35.91a3.38 3.38 0 10-.009 6.76 3.38 3.38 0 00.009-6.76" fill="#fff"/><path d="M35.54 29.86a2.5 2.5 0 10.74 4.89 2.5 2.5 0 00-.74-4.89zM8.68 10.49a5.56 5.56 0 10.017 11.12 5.56 5.56 0 00-.017-11.12zM31 .79a10.39 10.39 0 00-.06 20.78A10.39 10.39 0 0031 .79" fill="#CCCDD7"/><path d="M41.13 6.64a4.29 4.29 0 10.01 8.58 4.29 4.29 0 10-.01-8.58z" fill="#fff"/></svg>