<svg width="560" height="165" fill="none" xmlns="http://www.w3.org/2000/svg"><g fill="#000638"><path fill-rule="evenodd" clip-rule="evenodd" d="M3.85 64.8a7.3 7.3 0 002 5.45 7.45 7.45 0 005.5 2.25 7.3 7.3 0 005.45-2.05A7.35 7.35 0 0018.85 65V46.25H35a24.55 24.55 0 0017.2-5.7A20 20 0 0058.35 25 20 20 0 0052.2 9.5 25 25 0 0035 3.95H10.85a6.35 6.35 0 00-7 7V64.8zM44.3 25.126v.124V25v.126zM33.05 15.25c7.453 0 11.203 3.407 11.25 9.876C44.253 31.692 40.503 35 33.05 35h-14.2V15.25h14.2z"/><path d="M68.95 70.55a6.35 6.35 0 01-2.05-5v-55a6.35 6.35 0 012.05-5 8 8 0 015-1.75 7.85 7.85 0 015 1.75 6.2 6.2 0 012.05 5v55a6.2 6.2 0 01-2.05 5 7.85 7.85 0 01-5 1.75 8 8 0 01-5-1.75z"/><path fill-rule="evenodd" clip-rule="evenodd" d="M134.2 43.85a21.249 21.249 0 00-5-15.45 21 21 0 00-15.4-5.2 44.696 44.696 0 00-9.55 1.05 33.7 33.7 0 00-8.25 2.9 8.15 8.15 0 00-2.75 2.3 5.4 5.4 0 00-.9 3.2 5.85 5.85 0 001.25 3.85A4.2 4.2 0 0097 38a9.3 9.3 0 003.75-1.05 38.245 38.245 0 0111.9-2.9 6.6 6.6 0 017.7 7.7v1.75h-2.5a74.991 74.991 0 00-16.05 1.35 16 16 0 00-8.5 4.3 11.75 11.75 0 00-2.65 8.2A13.7 13.7 0 0092.9 65a15 15 0 006 5.65 19.15 19.15 0 008.7 1.9 14.998 14.998 0 007.9-2 11.8 11.8 0 005-5.55v.45a6.5 6.5 0 001.85 5 6.701 6.701 0 005 1.9 6.9 6.9 0 005-1.8 6.697 6.697 0 001.85-5v-21.7zm-13.85 8.45a10.645 10.645 0 01-2.6 7.35 8.85 8.85 0 01-6.85 2.85 6.3 6.3 0 01-4.45-1.7 5.748 5.748 0 01-1.8-4.4 4.55 4.55 0 013.15-4.5 33.75 33.75 0 0110.9-1.25h1.65v1.65z"/><path d="M175.5 63.15a4.995 4.995 0 011.35 3.65 4.998 4.998 0 01-2.2 4.25 10.35 10.35 0 01-6.35 1.15h-2.7c-11.2-.9-16.8-6.767-16.8-17.6V35.35H145a7.4 7.4 0 01-5-1.35 5.002 5.002 0 01-1.65-4 5.002 5.002 0 011.65-4.1 7.4 7.4 0 015-1.4h3.85V17a6.602 6.602 0 011.95-5 7.6 7.6 0 015.3-2 7.5 7.5 0 015.3 1.8 6.746 6.746 0 011.9 5v7.5h6.7c4.35 0 6.5 1.85 6.5 5.5a5 5 0 01-1.6 4 7.65 7.65 0 01-5 1.35h-6.6v20a6.352 6.352 0 001.35 4.4 5.452 5.452 0 003.95 1.65h2.7a6.75 6.75 0 014.2 1.95z"/><path fill-rule="evenodd" clip-rule="evenodd" d="M224.45 63.15a6.302 6.302 0 00-1.2-3.95 3.95 3.95 0 00-2.95-1.55 6.4 6.4 0 00-2.2.45l-2.6 1a44.663 44.663 0 01-5 1.85 17.3 17.3 0 01-5 .65 11.55 11.55 0 01-8-2.55 12.75 12.75 0 01-3.45-8.2h26.9a3.55 3.55 0 002.85-1.1 4.447 4.447 0 001-3.2 26.56 26.56 0 00-2.7-12.3 19.447 19.447 0 00-7.5-8.05 21.95 21.95 0 00-11.3-2.85 23.149 23.149 0 00-12.05 3.15 21.65 21.65 0 00-8.25 8.7 28.797 28.797 0 000 25.8 20.899 20.899 0 008.8 8.5 28.451 28.451 0 0013.4 2.95 31.946 31.946 0 008-1.1 32.546 32.546 0 007.55-2.8 7.85 7.85 0 002.7-2.35 5.296 5.296 0 001-3.05zm-30.5-19.5a12.495 12.495 0 013-7.65 8.65 8.65 0 016.6-2.65 7.9 7.9 0 016.4 2.6 12.696 12.696 0 012.55 7.7h-18.55z"/><path d="M253 16.9a9.05 9.05 0 00-1.75 6v1.6H258c4.35 0 6.5 1.85 6.5 5.5s-2.15 5.35-6.5 5.35h-6.75v30a6.35 6.35 0 01-2.05 5 7.852 7.852 0 01-5 1.75 7.902 7.902 0 01-5-1.75 6.2 6.2 0 01-2.05-5v-30h-3.85c-4.3 0-6.45-1.75-6.45-5.35 0-3.6 2.15-5.5 6.45-5.5h3.85a20 20 0 015-14.5 20.799 20.799 0 0114-5.95h4.25c4.4 0 6.6 1.667 6.6 5 0 3.35-1.85 5-5.55 5.5h-2.5A7.65 7.65 0 00253 16.9z"/><path fill-rule="evenodd" clip-rule="evenodd" d="M269.4 60.9a20.903 20.903 0 008.75 8.55 30.45 30.45 0 0026.35 0 21.196 21.196 0 008.75-8.55 29.347 29.347 0 000-26.05 21.1 21.1 0 00-8.75-8.5 30.45 30.45 0 00-26.35 0 20.807 20.807 0 00-8.75 8.5 29.354 29.354 0 000 26.05zm29.75-23.05a15.645 15.645 0 012.75 10c0 9.05-3.55 13.7-10.6 13.7S280.75 57 280.75 48s3.5-13.55 10.55-13.55a9.5 9.5 0 017.85 3.4z"/><path d="M357.9 25a5.748 5.748 0 011.65 4.45 6.597 6.597 0 01-1.5 5 9.152 9.152 0 01-5.5 1.9l-2.9.3A11 11 0 00342 40.1a11.404 11.404 0 00-2.35 7.4v18.35a6.2 6.2 0 01-2.05 5 7.849 7.849 0 01-5 1.75 8 8 0 01-5.25-1.75 6.35 6.35 0 01-2.05-5V30a5.951 5.951 0 012.1-5 8.001 8.001 0 015-1.75 6.799 6.799 0 015 1.7 5.75 5.75 0 011.95 4.65v2.6a13.453 13.453 0 015.25-6.35 16.3 16.3 0 017.65-2.5h1.3A6.2 6.2 0 01357.9 25zm75.75 3.05a22.647 22.647 0 014.15 15v22.2a6.301 6.301 0 01-2 5 7.798 7.798 0 01-5 1.75 7.95 7.95 0 01-5-1.75 6.2 6.2 0 01-2.1-5v-22.2a9.997 9.997 0 00-1.6-6.45 5.95 5.95 0 00-5-1.9 8.1 8.1 0 00-6.45 2.8 11.552 11.552 0 00-2.4 7.8v20a6.301 6.301 0 01-2 5 7.798 7.798 0 01-5 1.75 7.95 7.95 0 01-5-1.75 6.2 6.2 0 01-2.1-5V43.05a9.997 9.997 0 00-1.6-6.45 5.95 5.95 0 00-5-1.9 8.1 8.1 0 00-6.45 2.8 11.552 11.552 0 00-2.4 7.8v20a6.35 6.35 0 01-2.05 5 7.848 7.848 0 01-5 1.75 7.95 7.95 0 01-5-1.75 6.2 6.2 0 01-2.1-5V30a5.853 5.853 0 012.15-5 8.202 8.202 0 015.25-1.75 6.949 6.949 0 015 1.7 5.699 5.699 0 011.9 4.65v.95A15.356 15.356 0 01384.9 25a17.652 17.652 0 018.4-1.95 16.5 16.5 0 018.6 2.1 13.349 13.349 0 015.45 6.65 16.35 16.35 0 016.25-6.4 18.601 18.601 0 019.3-2.35 15 15 0 0110.75 5z"/><path fill-rule="evenodd" clip-rule="evenodd" d="M491.2 63.15a6.302 6.302 0 00-1.2-3.95 3.9 3.9 0 00-3.3-1.55 6.854 6.854 0 00-2.2.45l-2.6 1a41.191 41.191 0 01-5 1.85c-1.624.466-3.31.685-5 .65a11.35 11.35 0 01-7.95-2.55 12.75 12.75 0 01-3.45-8.2h27.2a3.7 3.7 0 002.85-1.1 4.694 4.694 0 001-3.2c.1-4.257-.826-8.476-2.7-12.3a19.545 19.545 0 00-7.55-8.05 21.95 21.95 0 00-11.3-2.85 22.85 22.85 0 00-12 3.15 21 21 0 00-8.25 8.7 29.001 29.001 0 000 25.8 20.904 20.904 0 008.8 8.5A28.702 28.702 0 00472 72.45a31.85 31.85 0 007.95-1.1 32.937 32.937 0 007.6-2.8 8.347 8.347 0 002.7-2.35 4.994 4.994 0 00.95-3.05zm-30.45-19.5A12.453 12.453 0 01463.7 36h-.25a8.751 8.751 0 016.9-2.65 8 8 0 016.4 2.6 12.696 12.696 0 012.55 7.7h-18.55zm-425.6 64.3a2.85 2.85 0 00-.85-2.1 3.052 3.052 0 00-2.25-.8 3.1 3.1 0 00-2.2.8 3.05 3.05 0 00-.8 2.15v20a12.2 12.2 0 00-5-5.35 16.251 16.251 0 00-15.95.5 15.553 15.553 0 00-5.7 6.55 25.3 25.3 0 000 20 15.954 15.954 0 005.7 6.7 15.003 15.003 0 008.45 2.4 14.65 14.65 0 007.5-1.85 12.2 12.2 0 005-5.35v4.05a3.301 3.301 0 00.8 2.2 3.1 3.1 0 002.2.8 3.245 3.245 0 002.25-.8 3.1 3.1 0 00.85-2.2v-47.7zM29.05 140a16.448 16.448 0 01-2.85 10 10 10 0 01-8.25 3.8 10.001 10.001 0 01-8.25-3.7 16.05 16.05 0 01-3-10.35 15.45 15.45 0 013-10 11.25 11.25 0 0116.5 0A16.15 16.15 0 0129.05 140zm47.65 12.2a2.45 2.45 0 00-.6-1.7 1.75 1.75 0 00-1.5-.7 6.447 6.447 0 00-2.6 1.15 35.331 35.331 0 01-4.5 2.1c-1.604.57-3.298.842-5 .8-7.7 0-11.75-4.3-12.2-12.9h24.1a2.5 2.5 0 001.95-.65 3.4 3.4 0 00.6-2.2 18.099 18.099 0 00-4.2-12.6 14.55 14.55 0 00-11.35-4.65 16.897 16.897 0 00-8.95 2.4 16.497 16.497 0 00-6.1 6.7 21.903 21.903 0 00-2.2 10 18.85 18.85 0 005 13.85 17.552 17.552 0 0013.35 5 23.698 23.698 0 0011.55-3.15c1.75-1.05 2.65-2.2 2.65-3.45zm-26.25-15.15a13.9 13.9 0 013.4-8.5 10.45 10.45 0 017.7-3 9.249 9.249 0 017.35 3 12.9 12.9 0 012.75 8.5h-21.2z"/><path d="M115 157.1a6.297 6.297 0 01-2.05-5v-55a6.35 6.35 0 012.05-5 8 8 0 015-2.1 7.799 7.799 0 015 1.7 6.35 6.35 0 012.05 5v55a6.3 6.3 0 01-2.05 5 7.85 7.85 0 01-5 1.75 8 8 0 01-5-1.35zm36.15-64.35a12.348 12.348 0 012.3 7.95 24.498 24.498 0 01-7.2 17.5 4.002 4.002 0 01-3 1.35 4.455 4.455 0 01-2.9-1.1 3.448 3.448 0 010-5 16.848 16.848 0 004.25-7.2 8.1 8.1 0 01-5.3-2.4 7.5 7.5 0 01-2-5.4 8.2 8.2 0 012.25-5.9A7.4 7.4 0 01145 90a7.7 7.7 0 016.15 2.75z"/><path fill-rule="evenodd" clip-rule="evenodd" d="M162.4 95a6.65 6.65 0 002.2 5.45v-.15a10 10 0 0012.1 0 6.851 6.851 0 002.2-5.3 6.604 6.604 0 00-2.25-5 10 10 0 00-12.05 0 6.6 6.6 0 00-2.2 5zm.95 57.1a6.297 6.297 0 002.05 5 8 8 0 005.05 1.75 7.85 7.85 0 005-1.75 6.3 6.3 0 002.05-5v-35a6.35 6.35 0 00-2.05-5 7.85 7.85 0 00-5-1.75 7.944 7.944 0 00-5 1.75 6.197 6.197 0 00-2.1 5v35z"/><path d="M231.2 115a22.896 22.896 0 014.1 15v22.2a6.4 6.4 0 01-1.95 5 7.401 7.401 0 01-5.35 1.85 7.1 7.1 0 01-5-1.85 6.4 6.4 0 01-1.95-5v-21.7a11.299 11.299 0 00-1.75-7 6.699 6.699 0 00-5.55-2.25 9.603 9.603 0 00-7.25 2.9 10.697 10.697 0 00-2.75 7.7v20a6.55 6.55 0 01-1.9 5 7.302 7.302 0 01-5.3 1.85 7.5 7.5 0 01-5.35-1.85 6.4 6.4 0 01-1.95-5v-35.1a6.102 6.102 0 012.05-5 7.904 7.904 0 015.35-1.85 6.697 6.697 0 015 1.8 5.998 5.998 0 011.85 4.55v1.35a16.953 16.953 0 016.5-5.85 19.552 19.552 0 019-2 15.448 15.448 0 0112.2 5.25zm23.8 41.05a19.999 19.999 0 01-8.4-8.45 26.946 26.946 0 01-2.95-12.85 26.25 26.25 0 013.15-13.05 21.694 21.694 0 018.8-8.7 26.898 26.898 0 0113.05-3.05c2.618.004 5.225.358 7.75 1.05a26.442 26.442 0 016.95 2.95 5.999 5.999 0 013 5.4 6.951 6.951 0 01-1.15 4.1 3.6 3.6 0 01-3.1 1.55 6.302 6.302 0 01-2.35-.4l-2.9-1.3a35.003 35.003 0 00-3.6-1.65 10.247 10.247 0 00-3.6-.55 10.003 10.003 0 00-8.25 3.4 14.997 14.997 0 00-2.85 10 15.398 15.398 0 002.85 10 10 10 0 008.25 3.45 11.258 11.258 0 003.55-.55 33.529 33.529 0 003.75-1.65c1.2-.6 2.15-1 2.85-1.3a5.912 5.912 0 012.3-.45 3.6 3.6 0 013.05 1.65 6.755 6.755 0 011.2 4.1 5.7 5.7 0 01-3 5.3 24.702 24.702 0 01-7.1 3c-2.76.709-5.6 1.061-8.45 1.05a26.302 26.302 0 01-12.8-3.05zm40.75 1.05a6.2 6.2 0 01-2.1-5v-55a6.2 6.2 0 012.1-5 8.75 8.75 0 0110.35 0 6.197 6.197 0 012.1 5v55a6.197 6.197 0 01-2.1 5 8.55 8.55 0 01-10.35 0zm67.05-45.15a6.347 6.347 0 012 5v35a6 6 0 01-2.1 5 7.551 7.551 0 01-5.3 1.85 6.85 6.85 0 01-5-1.75 5.9 5.9 0 01-1.85-4.6v-.95a14.397 14.397 0 01-5.55 5.6 19.449 19.449 0 01-21.45-3 22.153 22.153 0 01-4.35-15v-22.15a6.5 6.5 0 011.95-5 7.651 7.651 0 015.35-1.85 7.3 7.3 0 015 1.85 6.497 6.497 0 011.95 5v22.5a9.502 9.502 0 001.75 6.25 6.9 6.9 0 005.45 2 8.9 8.9 0 006.9-2.9 10.75 10.75 0 002.6-7.55v-20.3a6.5 6.5 0 011.95-5 7.402 7.402 0 015.4-1.95 7.596 7.596 0 015.3 1.95zm20.8 46.15a23.316 23.316 0 01-7.55-3.1 5.847 5.847 0 01-2.25-2.3 6.909 6.909 0 01-.75-3.25 5.45 5.45 0 011.25-3.7 3.9 3.9 0 013.1-1.5 7.56 7.56 0 012.5.45c.868.285 1.72.619 2.55 1a40.292 40.292 0 005.3 1.95c2.106.543 4.276.796 6.45.75a10.249 10.249 0 005-1.1 3.15 3.15 0 001.85-2.85 2.999 2.999 0 00-.8-2.2 8.19 8.19 0 00-3.05-1.45c-1.45-.45-3.8-1-7-1.65a26.908 26.908 0 01-12.3-5 11.503 11.503 0 01-3.75-9.15 12.552 12.552 0 012.65-7.75 16.903 16.903 0 017.25-5.45 26.395 26.395 0 0110.4-1.95 31.205 31.205 0 018.05 1.05 26.778 26.778 0 017 2.95 5.999 5.999 0 013 5.4 5.847 5.847 0 01-1.25 3.85 3.95 3.95 0 01-3.1 1.55 11.304 11.304 0 01-5.25-1.75 25.312 25.312 0 00-4.4-1.85 14.31 14.31 0 00-4.65-.65 8.504 8.504 0 00-4.7 1.1 3.499 3.499 0 00-1.75 3.05 3.302 3.302 0 002.05 3.05 32.383 32.383 0 007.75 2.15c3.45.562 6.811 1.57 10 3a12.547 12.547 0 015.3 4.45 13 13 0 011.65 6.85 12.699 12.699 0 01-5.3 10.95 25.003 25.003 0 01-15 4.05 50.596 50.596 0 01-10.25-.95z"/><path fill-rule="evenodd" clip-rule="evenodd" d="M421.8 95.15a6.65 6.65 0 002.2 5.3v.1a10 10 0 0012.1 0 6.848 6.848 0 002.2-5.3 6.6 6.6 0 00-2.25-5.25A10 10 0 00424 90a6.603 6.603 0 00-2.2 5.15zm1.15 56.95a6.3 6.3 0 002.05 5 8 8 0 005.05 1.75 7.85 7.85 0 005-1.75 6.3 6.3 0 002.05-5v-35a6.35 6.35 0 00-2.05-5 7.85 7.85 0 00-5-1.75 7.946 7.946 0 00-5 1.75 6.2 6.2 0 00-2.1 5v35zm26.2-4.65a21.2 21.2 0 008.75 8.55 29.999 29.999 0 0026.35 0 20.9 20.9 0 008.75-8.55 26.198 26.198 0 003.1-13 26.501 26.501 0 00-3.1-13.05 21.1 21.1 0 00-8.75-8.5 30.898 30.898 0 00-26.35 0 21.4 21.4 0 00-8.75 8.5 26.502 26.502 0 00-3.05 13.05 26.16 26.16 0 003.05 13zm29.75-23a15.796 15.796 0 012.75 10c0 9.05-3.5 13.75-10.55 13.75-7.05 0-10.6-4.5-10.6-13.55s3.55-13.55 10.6-13.55a9.399 9.399 0 017.8 3.35z"/><path d="M547.1 115a22.902 22.902 0 014.15 15v22.2a6.4 6.4 0 01-1.95 5 7.5 7.5 0 01-5.35 1.85 7.302 7.302 0 01-5.3-1.85 6.349 6.349 0 01-1.9-5v-21.7a11.005 11.005 0 00-1.8-7 6.598 6.598 0 00-5.5-2.25 9.698 9.698 0 00-7.3 2.9 10.898 10.898 0 00-2.7 7.7v20a6.4 6.4 0 01-1.95 5 7.201 7.201 0 01-5.3 1.85 7.347 7.347 0 01-5.3-1.85 6.252 6.252 0 01-2-5v-35.1a6 6 0 012.1-5 7.752 7.752 0 015.3-1.85 6.698 6.698 0 015 1.8 6.05 6.05 0 011.9 4.55v1.35a16.291 16.291 0 016.5-5.85 19.446 19.446 0 018.95-2A15.449 15.449 0 01547.1 115z"/></g></svg>