<svg width="169" height="151" preserveAspectRatio="xMinYMin meet" xmlns="http://www.w3.org/2000/svg"><g fill="none" fill-rule="evenodd"><path fill="#FFF" d="M0 .116h169v150.21H0z"/><path d="M69.5 124.326c.44 0 .82.34.62 1.12l-2.02.54c.32-.96.92-1.66 1.4-1.66m1.12 3.28h-.4c-.5.6-1.06 1.08-1.6 1.08-.56 0-.84-.34-.84-1.08 0-.3.04-.62.1-.9l3.26-1.08c.64-1.52-.12-2.18-1.02-2.18-1.54 0-3.3 2.7-3.3 4.86 0 1.02.48 1.58 1.24 1.58.88-.02 1.8-.88 2.56-2.28m-.52-4.88l1.86-1.7v-.24h-1.24l-1.1 1.94h.48zm-6.96 1.64h1.08l-1.72 4.72c-.16.4.06.8.48.8 1.22 0 2.68-1.04 3.24-2.52h-.3c-.44.62-1.4 1.3-2.12 1.42l1.58-4.42H67l.2-.68h-1.58l.6-1.7h-.62l-1.12 1.7-1.34.18v.5zm-1.12-.22c.14-.44-.16-.68-.38-.68-.94 0-2.06.84-2.52 2.04h.3c.3-.44.82-.92 1.32-1l-1.8 4.7c-.16.44.16.68.38.68.9 0 1.94-.86 2.4-2.04h-.32c-.3.44-.82.92-1.32 1l1.94-4.7zm.18-1.88c.4 0 .74-.32.74-.74 0-.4-.34-.74-.74-.74-.42 0-.74.34-.74.74 0 .4.34.74.74.74m-8.74 2.5c.28 0 .44.44 0 1.4l-1.28 2.84c-.24.54.02.88.54.88.32 0 .46-.08.6-.42l1.26-3.32c.58-.7 1.66-1.46 2.12-1.46.34 0 .3.28.08.7l-1.92 3.7c-.18.36.06.8.48.8.94 0 2.06-.84 2.52-2.04h-.3c-.3.44-.82.92-1.32 1l1.66-3.34c.22-.42.32-.82.32-1.14 0-.54-.3-.9-.88-.9-.82 0-1.52.92-2.5 2.06v-.88c0-.62-.2-1.18-.76-1.18-.66 0-1.26 1.02-1.72 2.04h.3c.28-.48.56-.74.8-.74m-1.3.12c.22-.76.1-1.44-.48-1.44-.74 0-.96.5-1.7 2.06v-.88c0-.62-.2-1.18-.76-1.18-.66 0-1.26 1.02-1.72 2.04h.3c.32-.46.62-.74.86-.74.28 0 .44.44 0 1.4l-1.28 2.84c-.24.54.02.88.54.88.32 0 .46-.08.6-.42l1.26-3.32c.36-.44.68-.82 1.08-1.24h1.3zm-6.94-.56c.44 0 .82.34.62 1.12l-2.02.54c.32-.96.92-1.66 1.4-1.66m1.12 3.28h-.4c-.5.6-1.06 1.08-1.6 1.08-.56 0-.84-.34-.84-1.08 0-.3.04-.62.1-.9l3.26-1.08c.64-1.52-.12-2.18-1.02-2.18-1.54 0-3.3 2.7-3.3 4.86 0 1.02.48 1.58 1.24 1.58.88-.02 1.8-.88 2.56-2.28m-7.48-3.24h1.08l-1.72 4.72c-.16.4.06.8.48.8 1.22 0 2.68-1.04 3.24-2.52h-.3c-.44.62-1.4 1.3-2.12 1.42l1.58-4.42h1.62l.2-.68h-1.58l.6-1.7h-.62l-1.12 1.7-1.34.18v.5zm-5.72 3.66c0-1.46 1.62-3.42 2.52-3.42.2 0 .4.02.56.08l-.94 2.52c-.54.66-1.38 1.46-1.78 1.46-.22 0-.36-.2-.36-.64m4.96-4.84l-.5-.04-.56.56h-.1c-2.38 0-4.92 2.96-4.92 5.28 0 .54.3.9.88.9.7 0 1.38-1 2.14-2.06l-.04.38c-.1 1.08.24 1.68.8 1.68.66 0 1.26-1.02 1.72-2.04h-.3c-.32.46-.62.74-.86.74s-.42-.44 0-1.4l1.74-4zm-5.08 1.7c.22-.76.1-1.44-.48-1.44-.74 0-.96.5-1.7 2.06v-.88c0-.62-.2-1.18-.76-1.18-.66 0-1.26 1.02-1.72 2.04h.3c.32-.46.62-.74.84-.74.28 0 .44.44 0 1.4l-1.28 2.86c-.24.54.02.88.54.88.32 0 .46-.08.6-.42l1.26-3.32c.36-.44.68-.82 1.08-1.24h1.32v-.02zm-8.36 4.76l.12-.36c-1.58-.3-1.78-.3-1.14-2l.58-1.6h1.26c.78 0 .78.34.68 1.2h.44l1.04-2.84h-.44c-.38.68-.7 1.2-1.54 1.2H24.4l.86-2.34c.3-.84.44-1 1.52-1h.28c1.1 0 1.22.3 1.22 1.46h.44l.36-1.94h-6.06l-.12.36c1.26.26 1.38.38.8 2l-1.3 3.48c-.6 1.62-.84 1.74-2.28 2l-.12.38h4.66zm30.14-19.04c.44 0 .82.34.62 1.1l-2.02.54c.34-.94.94-1.64 1.4-1.64m1.12 3.26h-.4c-.5.6-1.06 1.08-1.6 1.08-.56 0-.84-.34-.84-1.08 0-.3.04-.62.1-.9l3.28-1.08c.64-1.52-.14-2.18-1.02-2.18-1.54 0-3.3 2.7-3.3 4.86 0 1.02.48 1.58 1.24 1.58.88 0 1.8-.86 2.54-2.28m-.52-4.86l1.86-1.7v-.24h-1.24l-1.1 1.94h.48zm-6.94 1.64h1.08l-1.72 4.72c-.16.4.06.8.48.8 1.22 0 2.68-1.04 3.24-2.52h-.3c-.44.62-1.4 1.3-2.12 1.42l1.58-4.42h1.62l.2-.68h-1.58l.6-1.7h-.62l-1.12 1.7-1.34.18v.5zm-1.12-.24c.12-.44-.16-.68-.4-.68-.94 0-2.06.86-2.52 2.04h.3c.3-.44.82-.92 1.32-1l-1.8 4.7c-.16.44.16.68.38.68.9 0 1.94-.86 2.4-2.04h-.3c-.3.44-.82.92-1.32 1l1.94-4.7zm.18-1.86c.4 0 .74-.34.74-.74 0-.4-.34-.74-.74-.74-.42 0-.74.34-.74.74 0 .4.34.74.74.74m-5.78 6.56l2.98-7.92-.1-.12-2.06.24v.24l.4.3c.36.28.24.54-.08 1.42l-2.28 6.08c-.18.36.06.8.48.8.94 0 1.94-.86 2.4-2.04h-.3c-.32.44-.96.92-1.44 1m-6.1-.8c0-1.46 1.62-3.42 2.52-3.42.2 0 .38.02.56.08l-.94 2.52c-.54.66-1.38 1.46-1.76 1.46-.24 0-.38-.2-.38-.64m4.96-4.84l-.5-.04-.56.56h-.1c-2.38 0-4.92 2.96-4.92 5.28 0 .54.3.9.88.9.7 0 1.38-1 2.14-2.06l-.04.38c-.1 1.08.24 1.68.8 1.68.66 0 1.26-1.02 1.72-2.04h-.3c-.32.46-.62.74-.86.74s-.42-.44 0-1.4l1.74-4zm-11.54 7.84c0-.62.6-1.02 1.46-1.36.28.14.7.3 1.28.48.9.3 1.24.42 1.24.68 0 .58-.82 1.02-2.32 1.02-1.12 0-1.66-.24-1.66-.82m2.46-3.82c-.4 0-.54-.34-.54-.7 0-1.16.56-2.6 1.46-2.6.4 0 .54.34.54.7-.02 1.18-.58 2.6-1.46 2.6m2.54 3.24c0-.76-.68-1.02-1.78-1.36-.94-.28-1.36-.36-1.36-.68 0-.24.2-.54.6-.76 1.56-.08 2.54-1.48 2.54-2.7 0-.22-.04-.42-.1-.6h1.06l.2-.68h-1.8c-.24-.16-.54-.24-.88-.24-1.64 0-2.68 1.44-2.68 2.7 0 .82.48 1.38 1.22 1.48-.76.36-1.2.74-1.2 1.22 0 .28.1.48.34.64-1.76.52-2.48 1.16-2.48 1.94 0 .82 1.08 1.16 2.34 1.16 2.18.02 3.98-1.14 3.98-2.12m-8.12-4.78c.78 0 .8.34.68 1.2h.44l1.04-2.84h-.44c-.38.68-.7 1.2-1.54 1.2H24.4l.84-2.34c.3-.84.44-1 1.52-1h.76c1.1 0 1.22.3 1.22 1.46h.44l.36-1.94h-6.52l-.12.36c1.26.26 1.38.38.8 2l-1.3 3.5c-.6 1.62-.84 1.74-2.3 2l-.1.38h7.24l1.3-2.06h-.5c-.84.82-1.68 1.58-3.32 1.58-1.92 0-1.76-.1-1.12-1.88l.6-1.6h1.74v-.02zm.94-4.88l1.86-1.34v-.24H27.5l-1.1 1.6h.48v-.02zm27.7-10.18c.44 0 .82.34.62 1.1l-2.02.54c.32-.94.92-1.64 1.4-1.64m1.12 3.26h-.4c-.5.6-1.06 1.08-1.6 1.08-.56 0-.84-.34-.84-1.08 0-.3.04-.62.1-.9l3.26-1.08c.64-1.52-.14-2.18-1.02-2.18-1.54 0-3.3 2.7-3.3 4.86 0 1.02.48 1.56 1.24 1.56.88.02 1.8-.84 2.56-2.26m-.52-4.86l1.86-1.7v-.24H55.8l-1.1 1.94h.48zm-6.96 1.64h1.08l-1.72 4.72c-.16.4.06.8.48.8 1.22 0 2.68-1.04 3.24-2.52H51c-.44.62-1.4 1.3-2.12 1.42l1.58-4.42h1.62l.2-.68H50.7l.6-1.7h-.62l-1.12 1.7-1.34.18v.5zm-.56.52c.22-.76.1-1.44-.48-1.44-.74 0-.96.5-1.7 2.06v-.88c0-.62-.2-1.18-.76-1.18-.66 0-1.26 1.02-1.72 2.04h.3c.32-.46.62-.74.84-.74.28 0 .44.44 0 1.4l-1.28 2.84c-.24.54.02.88.54.88.32 0 .46-.08.6-.42l1.26-3.32c.36-.44.68-.82 1.08-1.24h1.32zm-6.96-.56c.44 0 .82.34.62 1.1l-2.02.54c.34-.94.92-1.64 1.4-1.64m1.12 3.26h-.4c-.5.6-1.06 1.08-1.6 1.08-.56 0-.84-.34-.84-1.08 0-.3.04-.62.1-.9l3.26-1.08c.64-1.52-.12-2.18-1.02-2.18-1.54 0-3.3 2.7-3.3 4.86 0 1.02.48 1.56 1.24 1.56.88.02 1.8-.84 2.56-2.26m-7.62 1.32c-.32 0-.78-.3-.78-.56 0-.08.14-.44.32-.9l.52-1.4c.56-.68 1.44-1.4 1.92-1.4.3 0 .52.18.52.62.02 1.3-1.2 3.64-2.5 3.64m3.64-4.14c0-.96-.24-1.32-.92-1.32-.84 0-1.62.9-2.4 1.98l1.68-4.5-.1-.14-2.06.24v.24l.4.3c.36.28.24.56-.08 1.42l-1.82 4.76c-.16.4-.34.88-.34 1 0 .56.76 1.1 1.46 1.1 1.56.02 4.18-2.86 4.18-5.08m-6.12-.64c.12-.44-.16-.68-.4-.68-.94 0-2.06.86-2.52 2.04h.3c.3-.44.82-.92 1.32-1l-1.8 4.7c-.16.44.16.68.4.68.9 0 1.94-.86 2.4-2.04h-.3c-.3.44-.82.92-1.32 1l1.92-4.7zm.2-1.88c.4 0 .74-.34.74-.74 0-.4-.34-.74-.74-.74-.42 0-.74.34-.74.74 0 .42.32.74.74.74m-4.6-.88h-4.3l-.12.36c1.26.26 1.38.38.8 2l-1.3 3.54c-.6 1.62-.84 1.74-2.28 2l-.12.36h6.54l1.42-2.52h-.5c-.82.9-1.74 2.04-3.2 2.04-1.1 0-1.26-.2-.64-1.88l1.28-3.52c.6-1.62.84-1.74 2.3-2l.12-.38zm-2.42-29.16v-5.66h1.46l3.74 5.66h3.34l-4.38-6.2c1.44-.66 2.26-1.92 2.26-3.62 0-2.6-1.9-4.18-4.98-4.18h-4.28v14h2.84zm1.6-8.02h-1.6v-3.62h1.6c1.2 0 1.9.72 1.9 1.78 0 1.14-.7 1.84-1.9 1.84zm14.38-7.18l2.6-2.7h-2.92l-2.26 2.7h2.58zm2.82 15.2v-2.36h-5.32v-3.6h4.52v-2.36h-4.52v-3.32h5.32v-2.36h-8.16v14h8.16zm6.44 0v-5.66h1.78c3.08 0 4.96-1.58 4.96-4.16 0-2.6-1.88-4.18-4.96-4.18H47.3v14h2.84zm1.9-8.02h-1.9v-3.62h1.9c1.2 0 1.92.72 1.92 1.78 0 1.14-.72 1.84-1.92 1.84zm12.9 8.42c3.52 0 5.68-2.2 5.68-5.88v-8.52h-2.84v8.76c0 1.88-1.08 2.98-2.82 2.98-1.78 0-2.84-1.1-2.84-2.98v-8.76h-2.84v8.52c0 3.68 2.16 5.88 5.66 5.88zm13.92-.4c3.22 0 5.2-1.56 5.2-4.12 0-1.46-.82-2.66-2.3-3.32.98-.64 1.5-1.62 1.5-2.76 0-2.36-1.78-3.8-4.7-3.8h-4.12v14h4.42zm-.24-8.48h-1.34v-3.16h1.34c1.08 0 1.72.58 1.72 1.56 0 1.02-.64 1.6-1.72 1.6zm.4 6.12h-1.74v-3.76h1.74c1.32 0 2.12.68 2.12 1.88 0 1.18-.8 1.88-2.12 1.88zm16.42 2.36v-2.58h-5.32v-11.42h-2.84v14h8.16zm5.64 0v-14h-2.84v14h2.84zm18.42 3.48c.62 0 1.02-.08 1.48-.26v-2.4c-.3.12-.7.16-1 .16-.9 0-1.86-.36-2.94-1.34l-.84-.8c1.72-1.36 2.76-3.5 2.76-5.84 0-4-3.02-7.4-7.42-7.4-4.42 0-7.44 3.4-7.44 7.4s3.02 7.4 7.44 7.4c.68 0 1.32-.08 1.92-.24l1.66 1.48c1.38 1.2 2.82 1.84 4.38 1.84zm-7.96-5.74c-2.64 0-4.52-2.06-4.52-4.74s1.88-4.74 4.52-4.74c2.62 0 4.5 2.06 4.5 4.74s-1.88 4.74-4.5 4.74zm15.86 2.66c3.52 0 5.68-2.2 5.68-5.88v-8.52h-2.84v8.76c0 1.88-1.08 2.98-2.82 2.98-1.78 0-2.84-1.1-2.84-2.98v-8.76h-2.84v8.52c0 3.68 2.16 5.88 5.66 5.88zm17.66-.4v-2.36h-5.32v-3.6h4.52v-2.36h-4.52v-3.32h5.32v-2.36h-8.16v14h8.16zm-120.16 21v-5.96h4.52v-2.36H24.9v-3.32h5.32v-2.36h-8.16v14h2.84zm10.96 0v-5.66h1.46l3.74 5.66h3.34l-4.38-6.2c1.44-.66 2.26-1.92 2.26-3.62 0-2.6-1.9-4.18-4.98-4.18h-4.28v14h2.84zm1.6-8.02h-1.6v-3.62h1.6c1.2 0 1.9.72 1.9 1.78 0 1.14-.7 1.84-1.9 1.84zm10.9 8.02l1.34-3.64h5.6l1.34 3.64h3.02l-5.3-14h-3.72l-5.3 14h3.02zm6.06-6.06h-3.84l1.92-5.26 1.92 5.26zm10.54 6.06v-10.12l6.26 10.12h3.64v-14h-2.84v10.12l-6.26-10.12h-3.64v14h2.84zm19.72 3.22l1.74-2.9c2.04-.26 3.72-1.3 4.8-2.78l-2.24-1.72c-.8 1.14-2.06 1.92-3.66 1.92-2.64 0-4.52-2.06-4.52-4.74s1.88-4.74 4.52-4.74c1.6 0 2.86.78 3.66 1.92l2.24-1.74c-1.28-1.7-3.36-2.84-5.9-2.84-4.42 0-7.44 3.4-7.44 7.4 0 3.56 2.4 6.64 6.04 7.28l-1.76 2.94h2.52zm10.46-3.22l1.34-3.64h5.6l1.34 3.64h3.02l-5.3-14h-3.72l-5.3 14h3.02zm6.06-6.06h-3.84l1.92-5.26 1.92 5.26zm10.54 6.06v-14h-2.84v14h2.84zm8.14.4c2.58 0 4.62-1.58 4.66-4.22 0-4.8-6.36-4.08-6.36-6.62 0-.84.66-1.48 1.66-1.48 1.06 0 1.98.7 2.8 1.76l2.08-1.88c-1.2-1.42-2.8-2.36-4.9-2.36-2.68 0-4.52 1.84-4.52 4.06 0 4.74 6.36 4.04 6.36 6.62 0 1-.68 1.6-1.8 1.6-1.14 0-2.26-.64-3.1-1.72l-2.06 1.9c1.24 1.48 2.82 2.34 5.18 2.34zm16.1-.4v-2.36h-5.32v-3.6h4.52v-2.36h-4.52v-3.32h5.32v-2.36h-8.16v14h8.16z" fill="#1E1E1E" fill-rule="nonzero"/><path fill="#FFF" d="M20 20.116h55v20H20z"/><path d="M42.816 37.765c.214-.214.428-.442.642-.676h-.007c.402-.454.79-.89 1.257-1.286.142-.13.278-.24.408-.331.039-.039.039-.117.078-.15-.188.072-.298.228-.493.3-.038 0-.077-.04-.038-.079.136-.097.272-.2.401-.305h-.026C45 35.238 45 35.2 45 35.16c-.492-.078-.868.267-1.205.565-.077.04-.149-.039-.187-.039-.564.189-.979.682-1.542.903v-.078c-.227.078-.447.215-.68.267-.337.078-.642.039-.94.039-.46.045-.913.149-1.367.246-.013.007-.026.007-.039.013a2.834 2.834 0 00-.7.286l-.025.013c-.02.026-.039.046-.052.065a.874.874 0 01-.26.228c-.232.116-.42.324-.621.487-.013.013-.039.02-.058.02-.201.194-.402.389-.61.577-.012.013-.07.02-.116.013 0 0 .007 0 .007-.006l.02-.04.096-.155c.04-.059.072-.117.11-.175.052-.078.104-.156.162-.228.013-.02.013-.039 0-.052a.073.073 0 00-.051-.02c.187-.181.408-.337.634-.473v-.007c-.026.007-.064-.013-.045-.039.026-.032.045-.071.065-.104.006-.013.006-.02.013-.032-.007-.013-.02-.02-.026-.033-.058.04-.123.078-.175.124-.09.078-.162.246-.298.246-.007 0-.039 0-.058-.006a.06.06 0 01-.04-.013c0-.007 0-.007.007-.007 0 0 .007-.006.007-.013 0 0 0-.006.006-.006l.02-.032c.006-.013.013-.02.02-.033.006-.006.006-.02.012-.026.007-.013.02-.032.026-.052.006-.013.013-.02.02-.032.019-.026.032-.059.051-.085a.136.136 0 01.026-.039c.013-.026.026-.045.039-.071.02-.033 0-.059-.026-.065a.874.874 0 01.26-.228h-.014c.143-.071.292-.162.434-.24a.27.27 0 01.065-.052 2.332 2.332 0 00-.596.299s-.052.02-.065.032c0 0-.039.013-.09-.032-.007-.007-.007-.013-.007-.026.039-.078.15-.11.227-.188.039 0 .071 0 .071.039 1.205-.942 2.863-.715 4.256-1.209.11-.078.227-.149.337-.227.188-.078.337-.266.564-.377.298-.227.525-.487.641-.87 0-.04-.039-.078-.039-.078a5.958 5.958 0 01-1.658 1.247c-.79.416-1.659.344-2.481.455.039-.078.116-.078.188-.078 0-.117.07-.15.149-.228h.11c.039 0 .039-.077.077-.077.078 0 .188-.04.15-.04-.117-.149-.337.111-.525 0 .07-.077.039-.188.11-.227h.149c0-.078.078-.15.078-.15.563-.337 1.094-.603 1.62-.902-.111 0-.189.117-.299.039.078 0 0-.11.078-.11.414-.111.751-.338 1.166-.494-.15 0-.266.117-.415 0 .078-.04.11-.11.227-.11v-.111c0-.039.039-.039.078-.039-.04 0-.078-.039-.078-.039.039-.078.149-.039.227-.11-.04 0-.11 0-.11-.04.11-.149.298-.188.486-.227-.04-.078-.15 0-.15-.078 0-.039.04-.039.078-.039h-.077c-.078-.039-.04-.117-.04-.15.227-.265.227-.603.338-.902-.04 0-.078 0-.078-.039-.376.416-.978.565-1.542.715h-.188a.744.744 0 01-.641-.04c-.15-.077-.227-.188-.376-.298a4.644 4.644 0 00-.94-.455 8.457 8.457 0 00-2.895-.416c.415-.227.868-.246 1.315-.376.641-.189 1.244-.416 1.918-.377-.11-.04-.266 0-.376 0-.525-.04-1.056.11-1.62.227-.375.078-.712.228-1.095.3-.226.077-.336.298-.602.265v-.117c.376-.454.83-.902 1.432-.941.68-.11 1.315 0 1.995.078.486.039.94.149 1.432.266.187 0 .226.299.375.338.227.078.454 0 .68.149 0-.078-.038-.15 0-.227.15-.15.337.039.486-.04.305-.188-.265-.525-.414-.792 0-.039.039-.078.039-.078.298.267.524.565.9.754.188.078.642.188.564-.04-.188-.415-.564-.753-.868-1.13v-.149c-.078 0-.078-.039-.11-.078v-.15c-.15-.077-.117-.227-.188-.337-.117-.188-.04-.455-.117-.682a3.842 3.842 0 01-.149-.643c-.117-.643-.266-1.208-.337-1.812-.078-.715.415-1.286.752-1.923.265-.455.563-.903 1.056-1.208.11-.455.414-.832.712-1.208.298-.37.804-.591 1.16-.754a9.65 9.65 0 011.004-.383H20v20h18.463c.719-.52 1.432-.76 2.436-1.26.466-.234 1.548-.734 1.917-1.098m-5.791-2.702c-.078 0-.227.039-.188-.04.039-.188.298-.188.453-.266.078-.038.188-.11.266-.077.078.11.188.077.266.149-.234.234-.532.117-.797.234m-5.76-.832s-.038-.039-.038-.078a11.59 11.59 0 001.205-1.922c.492-.267.894-.65 1.282-1.06.642-.681 1.315-1.285 2.106-1.662.298-.117.68-.078.978.039-.11.15-.298.11-.453.227-.04 0-.078 0-.117-.039.039-.039.039-.078.039-.117-.376.416-.9.605-1.205 1.098-.227.377-.376.87-.862.981-.149.039.04-.11-.039-.078-1.166.721-1.988 1.592-2.895 2.611m3.122-2.494c-.039.078-.078.084-.11.15a.304.304 0 01-.149.149c-.039 0-.078 0-.078-.04.04-.149.15-.298.298-.337.04.007.04.046.04.078m1.748 5.658a.484.484 0 01-.09.11c.045.007.077.033.051.059-.084.078-.168.162-.285.201-.006 0-.032.006-.058.006a1.18 1.18 0 01-.143.13c-.045.04-.252.013-.187-.045a5.4 5.4 0 00.278-.266c.052-.052.11-.098.156-.15.026-.032.045-.058.077-.084.033-.02.234-.04.201.039m-.674-.312c-.006 0-.006 0-.006.006-.143.098-.279.202-.428.286-.162.091-.33.163-.498.247 0 0 0-.006-.007-.006-.013-.02-.039-.026-.065-.013a1.668 1.668 0 00-.375.292.197.197 0 00-.052.052l-.052.052-.007.006v.007a1.249 1.249 0 00-.084.09c-.02.02-.026.04-.052.053-.025.013-.09.013-.084-.026v-.007a.302.302 0 01-.065.033c-.019.013-.038.02-.058.032-.006-.006-.02-.006-.026-.006-.006 0-.02 0-.026.006-.045.04-.09.072-.136.117-.077.072-.149.15-.22.234 0 0 0 .006-.006.006 0 .007-.007.007-.007.013l-.013.013c-.006.007-.006.013-.013.013l-.006.007a.136.136 0 01-.026.039.05.05 0 01-.033.013c-.006-.007-.013-.013-.013-.02-.006-.006-.006-.013-.013-.02-.012-.019-.019-.038-.032-.058v-.006c0-.007-.006-.013-.006-.02l.116-.136.007-.006c.013-.013.026-.033.039-.046.019-.026.045-.052.064-.078l.02-.032c.039-.052.078-.104.116-.163v-.006c.007-.007.013-.013.013-.026a.542.542 0 00.052-.078l.039-.078v-.007l.007-.006c0-.007.006-.007.006-.013.013-.033.026-.059.039-.091v-.007l.006-.026c.007-.012.007-.025.013-.038v-.007c.007-.02.007-.039.013-.058 0-.007 0-.02-.006-.026a1.04 1.04 0 01.149-.202c-.007 0-.013.007-.02.007-.051.032-.09.084-.142.123-.04.033-.117-.02-.065-.058.032-.026.058-.052.084-.078 0 0 0-.007.007-.007.065-.058.123-.136.194-.188a1.83 1.83 0 00.117-.091c.006-.007.013-.013.02-.013a.9.9 0 01.083-.098s.007 0 .007-.006c.363-.35.965-.331 1.444-.552.188-.078.415.039.603 0 .11 0 .227 0 .337.078-.33.175-.642.383-.953.578m.357-5.807c.039 0 .116 0 .116.039a.37.37 0 01-.304.377c.304.078.602.078.9.227-.038.078-.11.039-.149.039.188.11.415.039.603.188-.117.11-.227 0-.337 0 1.166.338 2.41.604 3.388 1.358-.83.416-1.697.604-2.598.792-.11 0-.188 0-.298-.039 0 .04 0 .11-.039.11-.149 0-.265 0-.375.079-.156.084-.382.123-.493.013-.038-.04.117 0 .15-.078h-.299c-.038 0-.038-.04-.038-.078-.188.039-.415.11-.603.15-.266.077-.492.266-.79.337-.415.15-.752.494-1.205.643-.04 0-.04-.039-.04-.078.04-.11.189-.15.267-.266 0-.04 0-.078-.04-.078.299-.416.713-.643 1.095-.981v-.117c.11-.15.298-.227.376-.416.04-.11.188-.266.376-.337-.039-.04-.11-.04-.11-.11-.15 0-.305.077-.454-.04a.54.54 0 01.234-.136.132.132 0 01-.085-.052c-.039-.078.072-.163.188-.189.15-.039.337-.039.454-.149-.266-.039-.564.078-.83-.078.188-.487.493-.903.94-1.13z" fill="#000091" fill-rule="nonzero"/><path d="M74.948 20.149h-21.43s.04.006.201.09c.175.092.402.215.538.287.278.143.544.325.719.605.078.11.188.338.116.487-.077.189-.116.494-.304.566-.227.117-.525.117-.79.078-.15 0-.298-.04-.454-.078.564.227 1.095.494 1.47 1.02.04.079.189.111.338.111.038 0 .038.078.038.11-.077.079-.149.118-.11.228h.11c.188-.078.15-.455.415-.338.188.11.266.377.15.566a3.4 3.4 0 01-.454.377.32.32 0 000 .267c.11.15.149.299.187.455.117.266.15.565.266.832.15.566.298 1.131.266 1.703 0 .3-.15.566-.04.872.079.299.266.526.415.793.15.228.298.377.415.605.227.377.641.754.453 1.209-.11.267-.524.228-.79.377-.227.189-.039.494.078.683.188.338-.227.566-.492.683.077.117.226.078.265.15.039.188.227.298.11.493-.149.228-.602.338-.375.683.149.267.051.56-.04.832-.11.338-.414.488-.68.566a1.479 1.479 0 01-.712.039c-.078-.04-.15-.078-.227-.078-.641-.078-1.283-.26-1.917-.26-.188.039-.376.071-.525.15-.169.123-.324.26-.454.402l-.006.007c-.026.032-.058.058-.084.091-.013.02-.033.039-.046.058-.013.013-.02.026-.032.04a4.03 4.03 0 00-.298.435.09.09 0 01-.02.026c-.006.02-.019.033-.032.052a3.746 3.746 0 00-.285.696c-.26.865-.142 1.606.039 1.788.052.052 1.244.423 2.073.793.389.176.66.306.887.449h21.042v-20h.006z" fill="#E1000F" fill-rule="nonzero"/><path d="M54.794 27.404c.15.04.376.04.376.117-.078.298-.525.375-.751.68h-.117c-.11.077-.078.265-.188.265-.11-.039-.226 0-.337.039.15.149.337.265.564.226.039 0 .11.078.11.15 0 0 .039 0 .078-.04.039 0 .078 0 .078.04v.148c-.11.149-.305.078-.454.11.305.078.603.078.868 0 .227-.078 0-.453.15-.64-.079 0 0-.117-.079-.117.078-.078.15-.188.227-.227.078 0 .188-.039.227-.116 0-.078-.15-.11-.117-.188.227-.149.415-.375.337-.602-.039-.116-.337-.116-.525-.188-.187-.07-.414 0-.64.04-.189 0-.377.116-.564.148-.266.078-.493.227-.713.375.266-.11.525-.148.83-.226.226.006.414-.045.64.006" fill="gray" fill-rule="nonzero"/></g></svg>