<svg width="139" height="114" preserveAspectRatio="xMinYMin meet" fill="none" xmlns="http://www.w3.org/2000/svg"><path fill="#fff" d="M0 0h139v113.936H0z"/><path fill-rule="evenodd" clip-rule="evenodd" d="M43.176 96.62l-1.116 1.02h-.288l.66-1.164h.744v.144zm-.804 3.948h-.24c-.3.36-.636.648-.96.648-.336 0-.504-.204-.504-.648 0-.18.024-.372.06-.54l1.956-.648c.384-.912-.072-1.308-.612-1.308-.924 0-1.98 1.62-1.98 2.916 0 .612.288.948.744.948.528-.012 1.08-.528 1.536-1.368zM41.7 98.6c.264 0 .492.204.372.672l-1.212.324c.192-.576.552-.996.84-.996zm-3.816.024h.648l-1.032 2.832c-.096.24.036.48.288.48.732 0 1.608-.624 1.944-1.512h-.18c-.264.372-.84.78-1.272.852l.948-2.652h.972l.12-.408h-.948l.36-1.02h-.372l-.672 1.02-.804.108v.3zm-.9-.54c.132 0 .312.144.228.408l-1.164 2.82c.3-.048.612-.336.792-.6h.192c-.276.708-.9 1.224-1.44 1.224-.132 0-.324-.144-.228-.408l1.08-2.82c-.3.048-.612.336-.792.6h-.18c.276-.72.948-1.224 1.512-1.224zm.336-.72a.443.443 0 100-.888.443.443 0 100 .888zm-5.244 2.34c.264-.576.168-.84 0-.84-.144 0-.312.156-.48.444h-.18c.276-.612.636-1.224 1.032-1.224.336 0 .456.336.456.708v.528a55.5 55.5 0 00.16-.187c.507-.595.894-1.049 1.34-1.049.348 0 .528.216.528.54 0 .192-.06.432-.192.684l-.996 2.004c.3-.048.612-.336.792-.6h.18c-.276.72-.948 1.224-1.512 1.224-.252 0-.396-.264-.288-.48l1.152-2.22c.132-.252.156-.42-.048-.42-.276 0-.924.456-1.272.876l-.756 1.992c-.084.204-.168.252-.36.252-.312 0-.468-.204-.324-.528l.768-1.704zm-.78-.768c.132-.456.06-.864-.288-.864-.434 0-.57.287-.99 1.174l-.03.062v-.528c0-.372-.12-.708-.456-.708-.396 0-.756.612-1.032 1.224h.18c.192-.276.372-.444.516-.444.168 0 .264.264 0 .84l-.768 1.704c-.144.324.012.528.324.528.192 0 .276-.048.36-.252l.756-1.992c.216-.264.408-.492.648-.744h.78zm-3.792.336c.12-.468-.108-.672-.372-.672-.288 0-.648.42-.84.996l1.212-.324zm.3 1.296h-.24c-.3.36-.636.648-.96.648-.336 0-.504-.204-.504-.648 0-.18.024-.372.06-.54l1.956-.648c.384-.912-.072-1.308-.612-1.308-.924 0-1.98 1.62-1.98 2.916 0 .612.288.948.744.948.528-.012 1.08-.528 1.536-1.368zm-3.84-1.944h-.648v-.3l.804-.108.672-1.02h.372l-.36 1.02h.948l-.12.408h-.972l-.948 2.652c.432-.072 1.008-.48 1.272-.852h.18c-.336.888-1.212 1.512-1.944 1.512-.252 0-.384-.24-.288-.48l1.032-2.832zm-4.08 2.196c0-.876.972-2.052 1.512-2.052.12 0 .24.012.336.048l-.564 1.512c-.324.396-.828.876-1.068.876-.132 0-.216-.12-.216-.384zm2.676-2.928l.3.024-1.044 2.4c-.252.576-.144.84 0 .84s.324-.168.516-.444h.18c-.276.612-.636 1.224-1.032 1.224-.336 0-.54-.36-.48-1.008l.024-.228-.065.091c-.43.601-.82 1.145-1.219 1.145-.348 0-.528-.216-.528-.54 0-1.392 1.524-3.168 2.952-3.168h.06l.336-.336zm-2.748 1.044c.132-.456.06-.864-.288-.864-.434 0-.57.287-.99 1.174l-.03.062v-.528c0-.372-.12-.708-.456-.708-.396 0-.756.612-1.032 1.224h.18c.192-.276.372-.444.504-.444.168 0 .264.264 0 .84l-.768 1.716c-.144.324.012.528.324.528.192 0 .276-.048.36-.252l.756-1.992c.216-.264.408-.492.648-.744h.792v-.012zm-4.944 2.64l-.072.216H12l.072-.228c.864-.156 1.008-.228 1.368-1.2l.78-2.088c.348-.972.276-1.044-.48-1.2l.072-.216h3.636l-.216 1.164h-.264c0-.696-.072-.876-.732-.876h-.168c-.648 0-.732.096-.912.6l-.516 1.404h.756c.504 0 .696-.312.924-.72h.264l-.624 1.704h-.264c.06-.516.06-.72-.408-.72h-.756l-.348.96c-.376.999-.269 1.02.627 1.189l.057.011zm2.376-14.136l-1.116.804v.012h-.288l.66-.96h.744v.144zm7.8 5.628l1.788-4.752-.06-.072-1.236.144v.144l.24.18c.205.16.15.308-.02.773l-.028.079-1.368 3.648c-.108.216.036.48.288.48.564 0 1.164-.516 1.44-1.224h-.18c-.192.264-.576.552-.864.6zm8.196-3.66l1.116-1.02v-.144h-.744l-.66 1.164h.288zm.072 2.916h.24c-.444.852-.996 1.368-1.524 1.368-.456 0-.744-.336-.744-.948 0-1.296 1.056-2.916 1.98-2.916.528 0 .996.396.612 1.308l-1.968.648c-.036.168-.06.36-.06.54 0 .444.168.648.504.648.324 0 .66-.288.96-.648zm-.06-1.296c.12-.456-.108-.66-.372-.66-.276 0-.636.42-.84.984l1.212-.324zm-3.528-.636h-.648v-.3l.804-.108.672-1.02h.372l-.36 1.02h.948l-.12.408h-.972l-.948 2.652c.432-.072 1.008-.48 1.272-.852h.18c-.336.888-1.212 1.512-1.944 1.512-.252 0-.384-.24-.288-.48l1.032-2.832zm-1.32-.144c.072-.264-.096-.408-.24-.408-.564 0-1.236.516-1.512 1.224h.18c.18-.264.492-.552.792-.6l-1.08 2.82c-.096.264.096.408.228.408.54 0 1.164-.516 1.44-1.224h-.18c-.18.264-.492.552-.792.6l1.164-2.82zm.552-1.56a.45.45 0 01-.444.444.443.443 0 11.444-.444zm-6.06 1.848c-.54 0-1.512 1.176-1.512 2.052 0 .264.084.384.228.384.228 0 .732-.48 1.056-.876l.564-1.512a1.035 1.035 0 00-.336-.048zm1.464-.852l-.3-.024-.336.336h-.06c-1.428 0-2.952 1.776-2.952 3.168 0 .324.18.54.528.54.4 0 .789-.544 1.219-1.145l.065-.091-.024.228c-.06.648.144 1.008.48 1.008.396 0 .756-.612 1.032-1.224h-.18c-.192.276-.372.444-.516.444-.144 0-.252-.264 0-.84l1.044-2.4zm-6.048 3.888c-.516.204-.876.444-.876.816 0 .348.324.492.996.492.9 0 1.392-.264 1.392-.612 0-.156-.204-.228-.744-.408a5.37 5.37 0 01-.768-.288zm.6-1.476c-.24 0-.324-.204-.324-.42 0-.696.336-1.56.876-1.56.24 0 .324.204.324.42-.012.708-.348 1.56-.876 1.56zm.456 1.128c.66.204 1.068.36 1.068.816 0 .588-1.08 1.284-2.388 1.272-.756 0-1.404-.204-1.404-.696 0-.468.432-.852 1.488-1.164a.422.422 0 01-.204-.384c0-.288.264-.516.72-.732-.444-.06-.732-.396-.732-.888 0-.756.624-1.62 1.608-1.62a.94.94 0 01.528.144h1.08l-.12.408h-.636c.036.108.06.228.06.36 0 .732-.588 1.572-1.524 1.62-.24.132-.36.312-.36.456 0 .17.196.227.63.353l.186.055zm-3.804-2.052c.468 0 .48.204.408.72h.264l.624-1.704h-.264c-.228.408-.42.72-.924.72H14.64l.504-1.404c.18-.504.264-.6.912-.6h.456c.66 0 .732.18.732.876h.264l.216-1.164h-3.912l-.072.216c.756.156.828.228.48 1.2l-.78 2.1c-.36.972-.504 1.044-1.38 1.2l-.06.228h4.344l.78-1.236h-.3c-.504.492-1.008.948-1.992.948-1.082 0-1.063-.053-.738-.945l.066-.183.36-.96h1.044v-.012zm3.588-10.284a.45.45 0 00.444-.444.443.443 0 10-.888 0c0 .252.192.444.444.444zm1.044 4.56c.936.012 2.508-1.716 2.508-3.048 0-.576-.144-.792-.552-.792-.504 0-.972.54-1.44 1.188l1.008-2.7-.06-.084-1.236.144v.144l.24.18c.209.162.148.325-.03.803l-.018.049-1.092 2.856c-.096.24-.204.528-.204.6 0 .336.456.66.876.66zm12.912-4.272l1.116-1.02v-.144h-.744l-.66 1.164h.288zm.072 2.916h.24c-.456.852-1.008 1.368-1.536 1.356-.456 0-.744-.324-.744-.936 0-1.296 1.056-2.916 1.98-2.916.528 0 .996.396.612 1.308l-1.956.648c-.036.168-.06.36-.06.54 0 .444.168.648.504.648.324 0 .66-.288.96-.648zm-.06-1.296c.12-.456-.108-.66-.372-.66-.288 0-.648.42-.84.984l1.212-.324zm-3.54-.636h-.648v-.3l.804-.108.672-1.02h.372l-.36 1.02h.948l-.12.408h-.972l-.948 2.652c.432-.072 1.008-.48 1.272-.852h.18c-.336.888-1.212 1.512-1.944 1.512-.252 0-.384-.24-.288-.48l1.032-2.832zm-.984.312c.132-.456.06-.864-.288-.864-.434 0-.57.287-.99 1.174l-.03.062v-.528c0-.372-.12-.708-.456-.708-.396 0-.756.612-1.032 1.224h.18c.192-.276.372-.444.504-.444.168 0 .264.264 0 .84l-.768 1.704c-.144.324.012.528.324.528.192 0 .276-.048.36-.252l.756-1.992c.216-.264.408-.492.648-.744h.792zm-3.804.324c.12-.456-.108-.66-.372-.66-.288 0-.636.42-.84.984l1.212-.324zm.3 1.296h-.24c-.3.36-.636.648-.96.648-.336 0-.504-.204-.504-.648 0-.18.024-.372.06-.54l1.956-.648c.384-.912-.072-1.308-.612-1.308-.924 0-1.98 1.62-1.98 2.916 0 .612.288.936.744.936.528.012 1.08-.504 1.536-1.356zm-5.04.456c0 .156.276.336.468.336.78 0 1.512-1.404 1.5-2.184 0-.264-.132-.372-.312-.372-.288 0-.816.432-1.152.84l-.312.84c-.108.276-.192.492-.192.54zm-1.26-2.94c.144 0 .312.144.24.408l-1.152 2.82c.3-.048.612-.336.792-.6h.18c-.276.708-.9 1.224-1.44 1.224-.144 0-.336-.144-.24-.408l1.08-2.82c-.3.048-.612.336-.792.6h-.18c.276-.708.948-1.224 1.512-1.224zm-4.98-1.248h2.58l-.072.228c-.876.156-1.02.228-1.38 1.2l-.768 2.112c-.372 1.008-.276 1.128.384 1.128.815 0 1.35-.593 1.817-1.11l.103-.114h.3l-.852 1.512H12l.072-.216c.864-.156 1.008-.228 1.368-1.2l.78-2.124c.348-.972.276-1.044-.48-1.2l.072-.216z" fill="#000"/><path fill-rule="evenodd" clip-rule="evenodd" d="M60.738 29.88l-1.356-1.62H57.63l1.548 1.62h1.56zm-15.65 9.36c1.548 0 2.772-.948 2.796-2.532 0-1.667-1.279-2.224-2.356-2.694-.783-.341-1.46-.636-1.46-1.278 0-.504.396-.888.996-.888.636 0 1.188.42 1.68 1.056l1.248-1.128c-.72-.852-1.68-1.416-2.94-1.416-1.608 0-2.712 1.104-2.712 2.436 0 1.637 1.264 2.192 2.337 2.664.791.348 1.479.65 1.479 1.308 0 .6-.408.96-1.08.96-.684 0-1.356-.384-1.86-1.032l-1.236 1.14c.744.888 1.692 1.404 3.108 1.404zM14.94 32.976V39h-1.704v-8.4h2.124l2.052 3.528 2.052-3.528h2.124V39h-1.704v-6.024l-1.872 3.144h-1.2l-1.872-3.144zM25.807 30.6V39h-1.704v-8.4h1.704zm4.231 8.4v-6.072L33.794 39h2.184v-8.4h-1.704v6.072L30.518 30.6h-2.184V39h1.704zm10.171-8.4V39h-1.704v-8.4h1.704zm13.01 1.548V39h-1.704v-6.852h-2.592V30.6h6.888v1.548h-2.592zm9.163 5.436V39h-4.896v-8.4h4.896v1.416H59.19v1.992h2.712v1.416H59.19v2.16h3.192zM66.241 39v-3.396h.876L69.361 39h2.004l-2.628-3.72c.864-.396 1.356-1.152 1.356-2.172 0-1.56-1.14-2.508-2.988-2.508h-2.568V39h1.704zm0-4.812h.96c.72 0 1.14-.42 1.14-1.104 0-.636-.42-1.068-1.14-1.068h-.96v2.172zM77.516 39v-1.416h-3.192v-2.16h2.712v-1.416h-2.712v-1.992h3.192V30.6H72.62V39h4.896zM21 46.8c0 2.268-1.8 4.2-4.464 4.2h-3.3v-8.4h3.3C19.2 42.6 21 44.532 21 46.8zm-4.44 2.652h-1.62v-5.304h1.62c1.56 0 2.688 1.152 2.688 2.652 0 1.488-1.128 2.652-2.688 2.652zm12.919-1.74c0 2.208-1.296 3.528-3.408 3.528-2.1 0-3.396-1.32-3.396-3.528V42.6h1.704v5.256c0 1.128.636 1.788 1.704 1.788 1.044 0 1.692-.66 1.692-1.788V42.6h1.704v5.112zM38.493 51v-6.852h2.592V42.6h-6.888v1.548h2.592V51h1.704zm5.971-3.396V51H42.76v-8.4h2.568c1.848 0 2.988.948 2.988 2.508 0 1.02-.492 1.776-1.356 2.172L49.588 51h-2.004l-2.244-3.396h-.876zm.96-1.416h-.96v-2.172h.96c.72 0 1.14.432 1.14 1.068 0 .684-.42 1.104-1.14 1.104zm7.339 2.628L51.959 51h-1.812l3.18-8.4h2.232l3.18 8.4h-1.812l-.804-2.184h-3.36zm.528-1.452l1.152-3.156 1.152 3.156h-2.304zM65.19 42.6h1.812l-3.18 8.4H61.59l-3.18-8.4h1.812l2.484 6.564L65.19 42.6zm3.295 8.4l.804-2.184h3.36L73.453 51h1.812l-3.18-8.4h-2.232l-3.18 8.4h1.812zm2.484-6.792l-1.152 3.156h2.304l-1.152-3.156zM78.44 42.6h-1.704V51h1.704v-8.4zm7.423 6.852V51h-4.896v-8.4h1.704v6.852h3.192zm2.707 3.468l1.392-3.588h-1.716l-1.092 3.588h1.416zM21 58.8c0 2.268-1.8 4.2-4.464 4.2h-3.3v-8.4h3.3C19.2 54.6 21 56.532 21 58.8zm-4.44 2.652h-1.62v-5.304h1.62c1.56 0 2.688 1.152 2.688 2.652 0 1.488-1.128 2.652-2.688 2.652zm11.155.132V63h-4.896v-8.4h4.896v1.416h-3.192v1.992h2.712v1.416h-2.712v2.16h3.192zM38.061 63v-1.548h-3.192V54.6h-1.704V63h4.896zm2.167-8.4l-.18 3.456h-1.332l-.192-3.456h1.704zm6.955 8.4v-1.416h-3.192v-2.16h2.712v-1.416h-2.712v-1.992h3.192V54.6h-4.896V63h4.896zm3.859-6.024V63h-1.704v-8.4h2.124l2.052 3.528 2.052-3.528h2.124V63h-1.704v-6.024l-1.872 3.144h-1.2l-1.872-3.144zM61.909 63v-3.396h1.068c1.848 0 2.976-.948 2.976-2.496 0-1.56-1.128-2.508-2.976-2.508h-2.772V63h1.704zm0-4.812h1.14c.72 0 1.152-.42 1.152-1.104 0-.636-.432-1.068-1.152-1.068h-1.14v2.172zM72.428 63v-1.548h-3.192V54.6h-1.704V63h4.896zm9.571-4.2c0 2.4-1.812 4.44-4.452 4.44-2.652 0-4.464-2.04-4.464-4.44 0-2.4 1.812-4.44 4.464-4.44 2.64 0 4.452 2.04 4.452 4.44zm-4.452 2.844c-1.584 0-2.712-1.236-2.712-2.844 0-1.608 1.128-2.844 2.712-2.844 1.572 0 2.7 1.236 2.7 2.844 0 1.608-1.128 2.844-2.7 2.844zm6.259-7.044h1.704V63h-1.704v-8.4zM18.132 75v-1.416H14.94v-2.16h2.712v-1.416H14.94v-1.992h3.192V66.6h-4.896V75h4.896zm5.767-6.852V75h-1.704v-6.852h-2.592V66.6h6.888v1.548h-2.592zM34.761 75c2.664 0 4.464-1.932 4.464-4.2 0-2.268-1.8-4.2-4.464-4.2h-3.3V75h3.3zm-1.596-1.548h1.62c1.56 0 2.688-1.164 2.688-2.652 0-1.5-1.128-2.652-2.688-2.652h-1.62v5.304zM45.94 75v-1.416h-3.192v-2.16h2.712v-1.416h-2.712v-1.992h3.192V66.6h-4.896V75h4.896zm10.346-1.548V75H51.39v-8.4h1.704v6.852h3.192zm1.987-3.396l.18-3.456h-1.704l.192 3.456h1.332zm2.239-3.456h1.704V75h-1.704v-8.4zm5.935 8.4v-6.072L70.203 75h2.184v-8.4h-1.704v6.072L66.927 66.6h-2.184V75h1.704zm13.615-2.292c-.024 1.584-1.248 2.532-2.796 2.532-1.416 0-2.364-.516-3.108-1.404l1.236-1.14c.504.648 1.176 1.032 1.86 1.032.672 0 1.08-.36 1.08-.96 0-.657-.688-.96-1.48-1.308-1.072-.472-2.336-1.027-2.336-2.664 0-1.332 1.104-2.436 2.712-2.436 1.26 0 2.22.564 2.94 1.416l-1.248 1.128c-.492-.636-1.044-1.056-1.68-1.056-.6 0-.996.384-.996.888 0 .642.677.937 1.46 1.278 1.077.47 2.356 1.027 2.356 2.694zM86.921 75v-1.416h-3.192v-2.16h2.712v-1.416h-2.712v-1.992h3.192V66.6h-4.896V75h4.896zm3.859-3.396V75h-1.704v-8.4h2.568c1.848 0 2.988.948 2.988 2.508 0 1.02-.492 1.776-1.356 2.172L95.904 75H93.9l-2.244-3.396h-.876zm.96-1.416h-.96v-2.172h.96c.72 0 1.14.432 1.14 1.068 0 .684-.42 1.104-1.14 1.104zm8.479-2.04V75h-1.704v-6.852h-2.592V66.6h6.888v1.548h-2.592zm5.971-1.548h-1.704V75h1.704v-8.4zm10.723 4.2c0 2.4-1.812 4.44-4.452 4.44-2.652 0-4.464-2.04-4.464-4.44 0-2.4 1.812-4.44 4.464-4.44 2.64 0 4.452 2.04 4.452 4.44zm-4.452 2.844c-1.584 0-2.712-1.236-2.712-2.844 0-1.608 1.128-2.844 2.712-2.844 1.572 0 2.7 1.236 2.7 2.844 0 1.608-1.128 2.844-2.7 2.844zm7.963-4.716V75h-1.704v-8.4h2.184l3.756 6.072V66.6h1.704V75h-2.184l-3.756-6.072z" fill="#1E1E1E"/><path fill="#fff" d="M12 12h33v12H12z"/><path fill-rule="evenodd" clip-rule="evenodd" d="M25.69 22.59c.128-.13.256-.266.385-.406h-.004c.24-.273.474-.534.754-.772.085-.078.167-.144.245-.199a.117.117 0 00.023-.045c.006-.017.011-.034.023-.044a.58.58 0 00-.144.088.586.586 0 01-.151.091c-.024 0-.047-.023-.024-.047.082-.058.164-.12.241-.183h-.015c-.023 0-.023-.023-.023-.047-.29-.046-.512.152-.71.328l-.013.011c-.031.016-.06 0-.084-.012a.07.07 0 00-.029-.011c-.176.059-.328.167-.48.277-.141.1-.283.201-.445.265v-.047c-.055.019-.11.044-.164.068a1.27 1.27 0 01-.244.092c-.152.035-.293.03-.43.026l-.134-.003a6.665 6.665 0 00-.74.131l-.08.017a.049.049 0 01-.012.004 1.703 1.703 0 00-.431.175l-.016.008-.015.02a.526.526 0 01-.17.156 1.263 1.263 0 00-.266.198 2.265 2.265 0 01-.108.094c-.008.008-.024.012-.035.012-.12.117-.241.233-.366.346-.008.008-.043.012-.07.008 0 0 .004 0 .004-.004l.012-.023.058-.093.033-.053c.01-.018.022-.035.033-.053.031-.047.063-.093.097-.136.008-.012.008-.024 0-.031a.044.044 0 00-.03-.012c.112-.11.244-.203.38-.284v-.004c-.015.004-.039-.008-.027-.024.011-.014.02-.03.03-.046l.009-.016.004-.01c0-.003.002-.006.004-.01l-.008-.01a.04.04 0 01-.008-.01l-.023.016a.75.75 0 00-.082.059c-.017.015-.033.035-.05.056-.035.045-.073.092-.129.092-.003 0-.023 0-.035-.004a.033.033 0 01-.023-.008v-.003h.004s.004-.004.004-.008c0 0 0-.004.004-.004l.003-.005.003-.005a.1.1 0 00.005-.01l.006-.01a.071.071 0 00.006-.01.019.019 0 00.004-.007c0-.003.002-.006.004-.008l.004-.008c.004-.007.009-.015.011-.023l.006-.01.006-.01c.006-.007.01-.016.016-.025a.214.214 0 01.015-.025c.004-.008.008-.016.016-.023a.413.413 0 00.023-.043c.012-.02 0-.035-.016-.04a.526.526 0 01.156-.136h-.008a3.46 3.46 0 00.164-.09l.097-.054a.152.152 0 01.038-.031 1.404 1.404 0 00-.357.18s-.031.01-.039.019c0 0-.023.007-.054-.02-.004-.004-.004-.008-.004-.015.013-.028.041-.046.071-.065a.419.419 0 00.065-.048c.023 0 .043 0 .043.023.447-.35 1-.431 1.553-.512.34-.05.682-.1 1-.213l.101-.068.101-.068a.71.71 0 00.162-.107c.053-.042.109-.087.176-.12a.999.999 0 00.385-.522c0-.023-.023-.047-.023-.047a3.576 3.576 0 01-.995.749c-.345.181-.714.208-1.08.235-.137.01-.274.02-.409.038.023-.047.07-.047.113-.047 0-.056.026-.08.06-.11l.03-.026h.065c.012 0 .018-.012.024-.024.006-.012.011-.023.023-.023.047 0 .113-.024.09-.024-.036-.045-.088-.027-.145-.007-.055.019-.115.04-.17.007.02-.022.026-.05.032-.074.006-.026.012-.05.034-.062h.09c0-.047.046-.09.046-.09.203-.121.398-.227.59-.332.129-.07.255-.138.381-.21-.025 0-.048.011-.07.021-.035.016-.068.032-.108.003.023 0 .023-.017.023-.033 0-.017 0-.033.023-.033a2.4 2.4 0 00.409-.166 3.46 3.46 0 01.29-.13.308.308 0 00-.085.016c-.053.015-.104.03-.163-.017a.165.165 0 00.04-.027c.025-.02.05-.039.096-.039v-.066c0-.023.023-.023.047-.023-.024 0-.047-.024-.047-.024.013-.025.037-.03.064-.035a.141.141 0 00.072-.031c-.023 0-.066 0-.066-.024.066-.09.179-.113.292-.136-.012-.023-.034-.023-.054-.023-.02 0-.036 0-.036-.024 0-.023.024-.023.047-.023h-.047c-.036-.018-.03-.051-.025-.074l.002-.016c.091-.107.121-.233.151-.36.015-.061.03-.123.051-.181-.023 0-.047 0-.047-.024-.218.242-.564.334-.894.42l-.03.009h-.113a.446.446 0 01-.385-.024c-.054-.027-.092-.063-.133-.1a1.095 1.095 0 00-.093-.079 2.786 2.786 0 00-.563-.273 5.076 5.076 0 00-1.738-.249c.164-.09.338-.126.515-.162.091-.019.183-.038.274-.064l.172-.052c.323-.098.635-.194.979-.174a.38.38 0 00-.156-.005.73.73 0 01-.07.005c-.26-.02-.522.038-.796.098l-.175.038c-.108.023-.21.055-.312.087a2.98 2.98 0 01-.345.093c-.052.017-.094.048-.135.078-.066.048-.128.093-.227.081v-.07c.226-.273.498-.541.86-.565.349-.057.678-.016 1.022.026l.175.02c.281.023.545.086.829.154l.03.007c.062 0 .097.054.13.107.028.043.055.085.095.095.055.02.11.023.166.026.08.006.161.01.242.064a.273.273 0 00-.005-.046c-.005-.03-.01-.06.005-.09.05-.05.108-.037.164-.024.045.01.088.02.128 0 .123-.076.007-.193-.108-.31a.9.9 0 01-.141-.165c0-.024.023-.047.023-.047.051.046.099.093.146.14.118.117.233.231.394.312.113.047.385.113.339-.023-.08-.177-.217-.33-.354-.485-.057-.064-.114-.128-.167-.194v-.09c-.036 0-.044-.013-.055-.03a.14.14 0 00-.011-.016v-.09c-.057-.03-.07-.077-.083-.124a.274.274 0 00-.03-.078.441.441 0 01-.045-.22.657.657 0 00-.025-.19 2.298 2.298 0 01-.09-.385 12.05 12.05 0 00-.08-.404 8.033 8.033 0 01-.122-.684c-.035-.33.132-.61.303-.896.051-.085.102-.17.148-.257.16-.273.339-.542.634-.725.064-.266.24-.488.414-.708l.014-.017c.172-.214.46-.345.671-.441l.024-.011c.315-.14.599-.23.603-.23H12v12h11.078c.296-.214.59-.35.94-.51h.001c.16-.073.332-.152.52-.246l.14-.07c.317-.155.82-.402 1.01-.589zm-3.515-1.62c-.044.005-.09.01-.073-.025.016-.08.098-.103.177-.127a.586.586 0 00.095-.033l.008-.004.014-.008c.044-.023.098-.052.138-.035.026.038.06.048.092.057a.16.16 0 01.067.032c-.084.085-.182.093-.282.102-.066.005-.133.01-.196.039a.406.406 0 00-.04.003zm-3.439-.548c0 .024.023.047.023.047.544-.612 1.038-1.134 1.738-1.567.018-.008.012.002.002.015-.014.02-.032.046.021.032.232-.053.336-.25.437-.443.026-.05.052-.1.08-.146.106-.172.257-.282.409-.393.11-.08.22-.16.314-.265 0 .023 0 .047-.023.07.023.023.046.023.07.023.04-.03.085-.043.128-.056.055-.015.107-.03.144-.08-.179-.07-.408-.094-.587-.023-.474.226-.879.588-1.263.997-.234.246-.475.476-.77.636a6.925 6.925 0 01-.723 1.153zm1.897-1.45a.18.18 0 01-.036.05.153.153 0 00-.03.04.182.182 0 01-.09.09c-.023 0-.046 0-.046-.024.023-.09.09-.179.178-.202.024.004.024.027.024.046zm.995 3.461a.275.275 0 00.054-.066c.02-.047-.1-.035-.12-.023-.018.014-.029.028-.043.045l-.004.005a.64.64 0 01-.054.054l-.04.036a3.148 3.148 0 01-.166.16c-.04.035.085.05.113.027a.778.778 0 00.085-.078c.01 0 .02-.002.028-.003h.007a.447.447 0 00.159-.11l.012-.012c.016-.015-.004-.03-.031-.035zm-.35-.253c-.004 0-.004 0-.004.004a5.967 5.967 0 00-.07.05c-.061.042-.122.085-.186.121a2.78 2.78 0 01-.189.095l-.11.053s0-.003-.005-.003c-.007-.012-.023-.016-.038-.008a1 1 0 00-.226.175.118.118 0 00-.03.031l-.032.032-.004.003v.004a.708.708 0 00-.06.067c-.006.007-.011.014-.022.019-.015.008-.054.008-.05-.016v-.003a.18.18 0 01-.039.019l-.017.01-.018.01c-.004-.004-.012-.004-.015-.004-.004 0-.012 0-.016.004l-.027.022a1.527 1.527 0 00-.187.188s0 .004-.004.004c0 .002 0 .003-.002.004v.001l-.002.003-.007.007c-.002.002-.003.003-.003.005-.002.002-.003.003-.005.003l-.004.004a.083.083 0 01-.015.024.03.03 0 01-.02.007c-.004-.004-.008-.007-.008-.011v-.002h-.002a.024.024 0 01-.002-.004.022.022 0 00-.004-.006l-.01-.018a.07.07 0 00-.009-.017v-.004c0-.002 0-.004-.002-.006a.014.014 0 01-.002-.006l.07-.082.004-.003.012-.014.011-.014.02-.023a.4.4 0 00.02-.024l.005-.01a2.054 2.054 0 00.076-.107v-.003c.004-.004.008-.008.008-.016a.318.318 0 00.03-.047l.024-.047v-.003l.004-.004c0-.002 0-.003.002-.004l.002-.004.011-.027a.74.74 0 00.012-.028v-.003l.004-.016.004-.012c0-.004.002-.008.004-.012v-.003a.123.123 0 00.004-.018c0-.006.002-.012.004-.017 0-.004 0-.012-.004-.016a.644.644 0 01.09-.12l-.007.001a.013.013 0 01-.006.002c-.017.01-.032.025-.047.04-.012.012-.024.024-.038.034-.023.02-.07-.012-.039-.035a.596.596 0 00.05-.047s0-.004.004-.004a.786.786 0 00.046-.046.529.529 0 01.071-.067l.07-.054c.004-.004.008-.008.012-.008a.66.66 0 01.05-.058s.004 0 .004-.004c.134-.13.321-.175.513-.221.12-.03.243-.06.354-.11.063-.027.133-.017.202-.006.055.008.11.016.16.005.065 0 .135 0 .201.047-.153.082-.3.175-.445.267l-.126.08zm.483-1.588c-.019.002-.03.003-.02.013.066.067.202.043.295-.007.066-.047.136-.047.226-.047.023 0 .023-.043.023-.066a.48.48 0 00.179.023c.54-.113 1.06-.226 1.558-.476-.503-.387-1.124-.56-1.732-.73-.1-.027-.201-.055-.3-.084.021 0 .043.007.065.015.045.014.09.03.137-.015a.377.377 0 00-.199-.068c-.056-.008-.112-.015-.163-.045l.019.002c.023.005.052.01.07-.026-.118-.059-.236-.079-.355-.1a2.254 2.254 0 01-.185-.036.222.222 0 00.183-.226c0-.023-.047-.023-.07-.023-.268.136-.451.385-.564.678.102.06.211.053.319.046a.862.862 0 01.179 0c-.051.049-.125.062-.196.075a.98.98 0 00-.076.015c-.07.016-.136.066-.113.113a.08.08 0 00.05.031.323.323 0 00-.14.082c.065.05.13.04.196.031a.534.534 0 01.077-.007c0 .028.018.038.038.048.01.005.02.01.028.018a.405.405 0 00-.226.203.416.416 0 01-.13.154.582.582 0 00-.095.095v.07a4.23 4.23 0 01-.229.184c-.156.12-.308.237-.428.405.023 0 .023.023.023.046a.312.312 0 01-.08.076c-.035.025-.067.049-.08.084 0 .024 0 .047.024.047a1.7 1.7 0 00.387-.204c.11-.07.218-.14.336-.182.097-.023.181-.067.263-.11a1.2 1.2 0 01.211-.092c.057-.012.119-.029.181-.045a2.78 2.78 0 01.18-.045c0 .023 0 .047.024.047h.179c-.011.026-.046.03-.07.033zm.932 1.965c.004 0 .008-.006.008-.006a.48.48 0 00.092-.088c-.004 0-.008 0-.012-.006a1.79 1.79 0 00-.088.1zm4.429-1.487l-.07.06c.04-.01.07-.02.07-.06z" fill="#000091"/><path d="M44.969 12H32.11s.023.004.12.055c.105.054.241.128.323.171.167.086.326.195.431.363.047.066.113.203.07.293-.046.113-.07.296-.182.34-.136.07-.315.07-.474.046-.09 0-.18-.024-.273-.047.339.137.657.297.883.613.023.046.112.066.202.066.023 0 .023.047.023.066-.046.047-.09.07-.066.137h.066c.113-.047.09-.273.249-.203.113.066.16.226.09.34-.09.089-.18.16-.273.226a.192.192 0 000 .16c.066.09.09.179.113.273.07.16.09.339.16.499.089.34.178.679.159 1.022 0 .18-.09.34-.023.523.046.18.159.316.248.476.09.136.179.226.249.363.136.226.385.452.272.725-.066.16-.315.137-.474.226-.136.114-.023.297.047.41.112.203-.137.34-.296.41.047.07.136.046.16.09.023.113.136.179.066.296-.09.136-.362.203-.226.41.09.16.031.335-.023.499-.066.203-.249.292-.408.34a.888.888 0 01-.428.023c-.047-.024-.09-.047-.136-.047-.385-.047-.77-.156-1.15-.156-.113.023-.226.043-.315.09a1.828 1.828 0 00-.272.241l-.004.004c-.016.02-.035.035-.05.055-.009.012-.02.023-.028.035-.008.008-.012.016-.02.023a2.418 2.418 0 00-.19.277c-.004.012-.012.02-.02.032a2.254 2.254 0 00-.17.417c-.156.519-.086.964.023 1.073.031.031.746.254 1.244.476.233.105.396.183.532.269h12.625V12h.004z" fill="#E1000F"/><path d="M32.877 16.373c.09.023.225.023.225.07-.046.178-.315.225-.45.407h-.07c-.067.047-.047.16-.113.16-.066-.024-.136 0-.203.023.09.09.203.16.339.136.023 0 .066.046.066.09 0 0 .023 0 .046-.024.024 0 .047 0 .047.023v.09c-.066.089-.183.046-.272.066a.987.987 0 00.52 0c.137-.047 0-.272.09-.385-.046 0 0-.07-.046-.07.046-.046.089-.112.136-.136.046 0 .112-.023.136-.07 0-.046-.09-.066-.07-.112.136-.09.248-.225.202-.361-.024-.07-.202-.07-.315-.113-.113-.043-.249 0-.385.023-.113 0-.225.07-.338.09a1.55 1.55 0 00-.428.225c.16-.066.315-.09.498-.136.136.004.249-.027.385.004z" fill="gray"/></svg>