<svg width="157" height="51" fill="none" xmlns="http://www.w3.org/2000/svg"><path d="M46.3 33a1.43 1.43 0 01-.36-1V21.21a1.45 1.45 0 01.4-1.07 1.68 1.68 0 012.2 0c.274.287.419.674.4 1.07V31h4.93c.94 0 1.41.41 1.41 1.23 0 .81-.47 1.21-1.41 1.21h-6.53A1.45 1.45 0 0146.3 33z" fill="#fff"/><path fill-rule="evenodd" clip-rule="evenodd" d="M64.9 31.69a1.24 1.24 0 00-.24-.79.74.74 0 00-.61-.31 1.38 1.38 0 00-.45.09l-.116.043a4.723 4.723 0 00-.394.157c-.327.14-.66.264-1 .37a3.407 3.407 0 01-1 .13 2.31 2.31 0 01-1.6-.51 2.58 2.58 0 01-.69-1.65h5.43a.74.74 0 00.57-.22.94.94 0 00.2-.64 5.31 5.31 0 00-.58-2.46 3.8 3.8 0 00-1.51-1.61 4.39 4.39 0 00-2.26-.57 4.731 4.731 0 00-2.41.62 4.35 4.35 0 00-1.65 1.75 5.291 5.291 0 00-.6 2.56 5.13 5.13 0 00.62 2.6 4.15 4.15 0 001.76 1.71 5.7 5.7 0 002.68.6 7.3 7.3 0 003.12-.79c.215-.116.4-.28.54-.48a1 1 0 00.19-.6zm-6.1-3.91a2.44 2.44 0 01.6-1.53 1.74 1.74 0 011.32-.53 1.61 1.61 0 011.28.52c.337.443.52.984.52 1.54H58.8zm22.79-1.68a4.17 4.17 0 00-1.49-1.76 3.88 3.88 0 00-2.22-.62 3.792 3.792 0 00-1.77.41 3 3 0 00-1.22 1.15v-.16a1.3 1.3 0 00-.38-1 1.42 1.42 0 00-1-.37 1.45 1.45 0 00-1 .37 1.31 1.31 0 00-.39 1V35.6a1.22 1.22 0 00.41 1c.307.25.695.378 1.09.36a1.48 1.48 0 001-.34c.255-.24.394-.58.38-.93v-3.64a2.89 2.89 0 001.2 1.15 3.84 3.84 0 001.74.4 3.93 3.93 0 002.17-.6 4.07 4.07 0 001.48-1.75 5.9 5.9 0 00.53-2.57 6 6 0 00-.53-2.58zm-2.36 2.56a3.07 3.07 0 01-.56 2 1.94 1.94 0 01-1.58.68 1.91 1.91 0 01-1.58-.7 3.14 3.14 0 01-.56-2 3.2 3.2 0 01.56-2 1.94 1.94 0 011.58-.7 1.88 1.88 0 011.58.72 3.29 3.29 0 01.56 2zm4.47-7.91a1.34 1.34 0 00.44 1.07v-.05a2 2 0 002.42 0 1.35 1.35 0 00.45-1.07c0-.384-.168-.75-.46-1a1.77 1.77 0 00-1.2-.39 1.81 1.81 0 00-1.21.38 1.32 1.32 0 00-.44 1.06zm.19 11.42c-.02.378.131.744.41 1a1.6 1.6 0 001.01.35 1.55 1.55 0 001-.35c.286-.251.44-.62.42-1v-7a1.24 1.24 0 00-.42-1 1.54 1.54 0 00-1-.34 1.59 1.59 0 00-1 .34 1.24 1.24 0 00-.42 1v7z" fill="#fff"/><path d="M89.44 33.17a1.27 1.27 0 01-.41-1v-11a1.27 1.27 0 01.41-1 1.6 1.6 0 011-.35 1.55 1.55 0 011 .35c.286.251.44.62.42 1v11c.02.38-.134.749-.42 1a1.55 1.55 0 01-1 .35 1.6 1.6 0 01-1-.35z" fill="#fff"/><path fill-rule="evenodd" clip-rule="evenodd" d="M94.32 31.29A4.269 4.269 0 0096.08 33a5.52 5.52 0 002.63.61 5.59 5.59 0 002.64-.61 4.235 4.235 0 001.75-1.78 5.802 5.802 0 000-5.22 4.183 4.183 0 00-1.75-1.64 5.711 5.711 0 00-2.64-.59 5.63 5.63 0 00-2.63.59 4.21 4.21 0 00-1.76 1.71 5.89 5.89 0 000 5.22zm5.96-4.61a3.16 3.16 0 01.55 2v-.05c0 1.81-.71 2.8-2.12 2.8-1.41 0-2.11-.9-2.11-2.71S97.3 26 98.71 26a1.9 1.9 0 011.57.68z" fill="#fff"/><path d="M111.5 31.69a1.071 1.071 0 01-.18 1.58 2.06 2.06 0 01-1.27.23h-.54c-2.24-.18-3.36-1.353-3.36-3.52v-3.86h-.78a1.428 1.428 0 01-1-.28.999.999 0 01-.32-.79.999.999 0 01.32-.82 1.43 1.43 0 011-.28h.78v-1.5a1.33 1.33 0 01.39-1 1.52 1.52 0 011.07-.36 1.5 1.5 0 011.06.36c.258.268.395.629.38 1V24h1.35c.87 0 1.31.36 1.31 1.1a1 1 0 01-.33.79 1.45 1.45 0 01-1 .28h-1.35v4c-.024.314.073.625.27.87.208.214.492.336.79.34h.54a1.3 1.3 0 01.87.31z" fill="#fff"/><path fill-rule="evenodd" clip-rule="evenodd" d="M121.18 27.82a4.212 4.212 0 00-1-3.09 4.14 4.14 0 00-3.06-.98 9.1 9.1 0 00-1.92.21 6.002 6.002 0 00-1.64.58c-.22.107-.412.265-.56.46a1.14 1.14 0 00-.21.57c-.017.282.072.56.25.78a.82.82 0 00.67.3c.262-.014.518-.086.75-.21a7.762 7.762 0 012.39-.58 1.32 1.32 0 011.54 1.54v.35h-.5a15.118 15.118 0 00-3.22.27 3.142 3.142 0 00-1.7.87 2.369 2.369 0 00-.53 1.63 2.75 2.75 0 00.45 1.54c.309.465.737.838 1.24 1.08a3.8 3.8 0 001.74.39 3.002 3.002 0 001.58-.41 2.23 2.23 0 001-1.12v.15a1.3 1.3 0 00.37 1 1.38 1.38 0 001 .38 1.41 1.41 0 001-.36 1.34 1.34 0 00.36-1v-4.35zm-2.77 1.7a2.092 2.092 0 01-.52 1.48 1.79 1.79 0 01-1.37.56 1.26 1.26 0 01-.89-.33 1.162 1.162 0 01-.36-.88.89.89 0 01.63-.9 6.467 6.467 0 012.18-.25h.33v.32zM133 25.13a1.309 1.309 0 00-.39-1 1.449 1.449 0 00-1.05-.38 1.53 1.53 0 00-1.05.35 1.25 1.25 0 00-.39 1v.2a3.003 3.003 0 00-1.23-1.15 3.86 3.86 0 00-1.78-.41 4 4 0 00-3.68 2.24 6.003 6.003 0 000 4.95 4 4 0 001.5 1.65 4.15 4.15 0 002.18.57c.629.01 1.25-.135 1.81-.42.514-.255.939-.66 1.22-1.16v1a2.232 2.232 0 01-.6 1.7 2.62 2.62 0 01-1.83.56 4.5 4.5 0 01-1.12-.14 10.518 10.518 0 01-1.13-.37l-.6-.2a1.659 1.659 0 00-.5-.08.75.75 0 00-.62.3 1.322 1.322 0 00-.23.79c0 .224.066.443.19.63.141.196.326.357.54.47 1.1.55 2.321.816 3.55.77a5.74 5.74 0 003.89-1.14 4.41 4.41 0 001.32-3.47v-7.26zm-2.88 3.3a2.67 2.67 0 01-.57 1.83 2 2 0 01-1.59.66 2 2 0 01-1.6-.66 2.68 2.68 0 01-.58-1.83c-.036-.66.17-1.311.58-1.83a2 2 0 011.6-.67 2 2 0 011.59.67c.407.52.609 1.17.57 1.83zm13.57 3.26a1.237 1.237 0 00-.24-.79.75.75 0 00-.64-.31c-.151.005-.3.035-.44.09-.17.06-.34.12-.52.2-.38.15-.71.28-1 .37a3.461 3.461 0 01-1 .13 2.28 2.28 0 01-1.6-.51 2.583 2.583 0 01-.69-1.65h5.39a.74.74 0 00.57-.22.942.942 0 00.2-.64 5.304 5.304 0 00-.54-2.46 3.862 3.862 0 00-1.51-1.61 4.42 4.42 0 00-2.27-.57 4.69 4.69 0 00-2.4.62 4.373 4.373 0 00-1.63 1.75 5.284 5.284 0 00-.59 2.56 5.23 5.23 0 00.61 2.6 4.214 4.214 0 001.76 1.71 5.742 5.742 0 002.69.6 6.884 6.884 0 001.6-.22 7.31 7.31 0 001.52-.57c.215-.116.4-.28.54-.48a1 1 0 00.19-.6zm-6.1-3.91a2.487 2.487 0 01.59-1.53 1.77 1.77 0 011.33-.53 1.6 1.6 0 011.28.52c.334.444.513.985.51 1.54h-3.71zM53.31 40.66a.57.57 0 00-.17-.42l.03-.01a.68.68 0 00-.89 0 .57.57 0 00-.16.43v4a2.4 2.4 0 00-1-1.07 2.87 2.87 0 00-1.49-.38 3.12 3.12 0 00-1.7.47c-.5.321-.895.78-1.14 1.32a4.59 4.59 0 00-.41 2 4.67 4.67 0 00.41 2 3.22 3.22 0 001.11 1.37 3 3 0 001.7.48 2.868 2.868 0 001.49-.38 2.35 2.35 0 001-1.07v.81a.57.57 0 00.6.61.61.61 0 00.45-.17.59.59 0 00.17-.44v-9.55zM52.09 47a3.21 3.21 0 01-.58 2.11 2 2 0 01-1.64.71 2 2 0 01-1.66-.74 3.24 3.24 0 01-.6-2.08 3.07 3.07 0 01.6-2 2 2 0 011.66-.72 2 2 0 011.64.72 3.17 3.17 0 01.58 2zm9.54 2.52a.49.49 0 00-.12-.34.37.37 0 00-.29-.14c-.19.041-.37.12-.53.23-.29.164-.59.308-.9.43-.322.11-.66.164-1 .16-1.54 0-2.36-.87-2.45-2.59h4.82a.5.5 0 00.39-.13.68.68 0 00.12-.44 3.62 3.62 0 00-.84-2.52 2.89 2.89 0 00-2.27-.94 3.35 3.35 0 00-1.79.48 3.28 3.28 0 00-1.23 1.35 4.38 4.38 0 00-.43 2 3.79 3.79 0 001 2.78 3.59 3.59 0 002.68 1c.395-.005.788-.06 1.17-.16a4.307 4.307 0 001.15-.48c.35-.21.52-.43.52-.69zm-5.26-3.03c.027-.63.27-1.23.69-1.7a2 2 0 011.54-.6 1.88 1.88 0 011.47.59 2.69 2.69 0 01.56 1.71h-4.26z" fill="#fff"/><path d="M69.26 50.51a1.24 1.24 0 01-.42-1v-11a1.24 1.24 0 01.42-1 1.71 1.71 0 012.07 0c.286.251.44.62.42 1v11c.02.38-.134.749-.42 1a1.71 1.71 0 01-2.07 0zm7.28-12.89c.336.459.5 1.022.46 1.59a4.91 4.91 0 01-1.45 3.5.78.78 0 01-.55.29.82.82 0 01-.57-.22.67.67 0 01-.25-.53.72.72 0 01.21-.5c.393-.407.684-.9.85-1.44a1.58 1.58 0 01-1.06-.49 1.49 1.49 0 01-.41-1.07 1.66 1.66 0 01.45-1.19 1.53 1.53 0 011.13-.47 1.51 1.51 0 011.19.53z" fill="#fff"/><path fill-rule="evenodd" clip-rule="evenodd" d="M78.8 38.09a1.34 1.34 0 00.44 1.07v-.03a2.07 2.07 0 002.42 0 1.35 1.35 0 00.45-1.07 1.32 1.32 0 00-.46-1.05 1.77 1.77 0 00-1.2-.39 1.81 1.81 0 00-1.21.38 1.32 1.32 0 00-.44 1.09zm.19 11.42a1.27 1.27 0 00.41 1 1.6 1.6 0 001.01.35 1.55 1.55 0 001-.35 1.24 1.24 0 00.42-1v-7a1.24 1.24 0 00-.42-1 1.54 1.54 0 00-1-.34 1.59 1.59 0 00-1 .34 1.24 1.24 0 00-.42 1v7z" fill="#fff"/><path d="M92.58 42.05a4.6 4.6 0 01.83 3v4.45a1.27 1.27 0 01-.4 1 1.46 1.46 0 01-1.06.37 1.44 1.44 0 01-1.06-.37 1.3 1.3 0 01-.39-1v-4.32a2.32 2.32 0 00-.35-1.41 1.36 1.36 0 00-1.11-.44 1.92 1.92 0 00-1.46.58 2.16 2.16 0 00-.54 1.54v4a1.3 1.3 0 01-.39 1 1.46 1.46 0 01-1.06.37 1.5 1.5 0 01-1.07-.37 1.3 1.3 0 01-.39-1v-7.03a1.25 1.25 0 01.41-1 1.59 1.59 0 011.07-.36c.368-.027.73.1 1 .35.253.238.391.573.38.92v.26c.321-.5.77-.903 1.3-1.17a3.911 3.911 0 011.8-.4 3.09 3.09 0 012.49 1.03zm4.81 8.25a4.05 4.05 0 01-1.68-1.7 5.399 5.399 0 01-.59-2.58c-.017-.91.2-1.808.63-2.61a4.34 4.34 0 011.76-1.74c.808-.42 1.71-.63 2.62-.61a5.999 5.999 0 011.55.21 5 5 0 011.39.6c.386.215.618.629.6 1.07.012.29-.068.578-.23.82a.73.73 0 01-.62.32c-.161 0-.32-.03-.47-.09a5.792 5.792 0 01-.59-.26 5.212 5.212 0 00-.72-.32 2.003 2.003 0 00-.72-.12 2 2 0 00-1.65.68 3.85 3.85 0 000 4 2 2 0 001.65.69c.241.006.481-.028.71-.1.258-.095.509-.209.75-.34l.58-.26a1.18 1.18 0 01.46-.09.72.72 0 01.61.33c.168.243.252.534.24.83a1.15 1.15 0 01-.6 1.06 5.23 5.23 0 01-1.42.59 6.749 6.749 0 01-1.69.22 5.3 5.3 0 01-2.57-.6zm8.12.21a1.243 1.243 0 01-.41-1v-11a1.243 1.243 0 01.41-1 1.6 1.6 0 011-.35 1.57 1.57 0 011 .35c.279.256.429.622.41 1v11a1.27 1.27 0 01-.41 1 1.602 1.602 0 01-2 0zM119 41.46c.266.263.408.626.39 1v7.07a1.22 1.22 0 01-.41 1 1.53 1.53 0 01-1.07.37 1.37 1.37 0 01-1-.35 1.193 1.193 0 01-.37-.92v-.2c-.277.472-.678.86-1.16 1.12a3.88 3.88 0 01-4.3-.61 4.41 4.41 0 01-.87-3v-4.48a1.317 1.317 0 01.39-1 1.54 1.54 0 011.07-.36 1.5 1.5 0 011.06.36c.266.263.408.626.39 1V47c-.038.445.086.89.35 1.25.287.287.686.433 1.09.4a1.82 1.82 0 001.38-.57 2.21 2.21 0 00.53-1.53v-4.09a1.312 1.312 0 01.38-1 1.5 1.5 0 011.06-.36 1.54 1.54 0 011.09.36zm4.12 9.24a4.607 4.607 0 01-1.52-.61 1.204 1.204 0 01-.45-.47A1.378 1.378 0 01121 49a1.09 1.09 0 01.25-.74.78.78 0 01.62-.3c.171.002.34.032.5.09.16.06.34.12.52.2.34.163.695.294 1.06.39.418.11.848.16 1.28.15a2.17 2.17 0 001.05-.21.66.66 0 00.38-.58.6.6 0 00-.16-.43 1.562 1.562 0 00-.61-.3c-.3-.09-.76-.2-1.41-.33a5.38 5.38 0 01-2.46-1 2.309 2.309 0 01-.75-1.83 2.51 2.51 0 01.53-1.56c.38-.484.88-.86 1.45-1.09a5.32 5.32 0 012.08-.39c.547 0 1.091.07 1.62.21.495.126.967.329 1.4.6.386.215.618.629.6 1.07a1.15 1.15 0 01-.25.77.75.75 0 01-.61.31 2.148 2.148 0 01-1.06-.35 6.512 6.512 0 00-.88-.37 3.208 3.208 0 00-.93-.13 1.73 1.73 0 00-.95.23.688.688 0 00.06 1.22 6.34 6.34 0 001.56.42c.689.12 1.361.325 2 .61.432.188.8.497 1.06.89.234.418.348.892.33 1.37a2.561 2.561 0 01-1.13 2.18 5 5 0 01-3 .81 9.33 9.33 0 01-2.03-.21z" fill="#fff"/><path fill-rule="evenodd" clip-rule="evenodd" d="M130.76 38.09c-.018.404.143.796.44 1.07v-.03a2.09 2.09 0 002.43 0 1.37 1.37 0 00.44-1.07c.013-.4-.152-.784-.45-1.05a1.77 1.77 0 00-1.2-.39 1.839 1.839 0 00-1.22.38 1.353 1.353 0 00-.44 1.09zm.19 11.42c-.021.38.134.749.42 1h-.07a1.72 1.72 0 002.08 0 1.27 1.27 0 00.41-1v-7a1.27 1.27 0 00-.41-1 1.56 1.56 0 00-1-.34 1.591 1.591 0 00-1 .34 1.22 1.22 0 00-.43 1v7zm5.3-.94a4.274 4.274 0 001.75 1.72h-.03a6 6 0 005.28 0 4.329 4.329 0 001.75-1.72 5.23 5.23 0 00.61-2.6 5.292 5.292 0 00-.61-2.61 4.24 4.24 0 00-1.72-1.71 6.2 6.2 0 00-5.28 0 4.18 4.18 0 00-1.75 1.71 5.296 5.296 0 00-.62 2.61 5.235 5.235 0 00.62 2.6zm5.96-4.57c.4.587.593 1.29.55 2 0 1.78-.71 2.75-2.12 2.75-1.41 0-2.12-.9-2.12-2.71s.71-2.72 2.12-2.72a1.92 1.92 0 011.57.68z" fill="#fff"/><path d="M155.87 42.05c.613.875.903 1.935.82 3v4.45a1.3 1.3 0 01-.39 1c-.293.26-.678.393-1.07.37a1.46 1.46 0 01-1.06-.37 1.33 1.33 0 01-.38-1v-4.32a2.246 2.246 0 00-.36-1.41 1.36 1.36 0 00-1.11-.44 1.9 1.9 0 00-1.45.58 2.12 2.12 0 00-.55 1.54v4a1.33 1.33 0 01-.38 1 1.46 1.46 0 01-1.06.37 1.48 1.48 0 01-1.07-.37 1.312 1.312 0 01-.4-1v-7.03c-.022-.38.133-.75.42-1a1.56 1.56 0 011.07-.36c.367-.024.728.102 1 .35.249.24.384.575.37.92v.26c.324-.497.772-.9 1.3-1.17a4.002 4.002 0 011.8-.4 3.12 3.12 0 012.5 1.03z" fill="#fff"/><path d="M22.315 24.86c-.651 0-1.299.097-1.92.29a6.54 6.54 0 001.92 12.8 6.79 6.79 0 001.93-.29 6.55 6.55 0 00-1.93-12.8z" fill="#80829B"/><path d="M20.515 27.68a5 5 0 11-9.532 3.026 5 5 0 019.532-3.026zm14.16 15.68a4.9 4.9 0 11-9.366 2.883 4.9 4.9 0 019.366-2.883zm-30.29-7.24a3.38 3.38 0 10-.008 6.76 3.38 3.38 0 00.008-6.76" fill="#fff"/><path d="M35.605 30.07a2.5 2.5 0 10.74 4.89 2.5 2.5 0 00-.74-4.89zM8.745 10.7a5.56 5.56 0 10.017 11.12 5.56 5.56 0 00-.017-11.12zM31.065 1a10.39 10.39 0 00-.06 20.78A10.39 10.39 0 0031.065 1" fill="#CCCDD7"/><path d="M41.195 6.85a4.29 4.29 0 10.01 8.58 4.29 4.29 0 10-.01-8.58z" fill="#fff"/></svg>