<svg width="560" height="165" fill="none" xmlns="http://www.w3.org/2000/svg"><path d="M6.45 69.4a6.95 6.95 0 01-1.85-5V10.45a6.9 6.9 0 017.5-7.35 7.3 7.3 0 015.45 2 7.25 7.25 0 012 5.35V59h24.6c4.65 0 7 2.05 7 6.15 0 4.1-2.35 6.05-7 6.05H11.6a6.95 6.95 0 01-5.15-1.8z" fill="#006ADC"/><path fill-rule="evenodd" clip-rule="evenodd" d="M99.1 62.65a6.05 6.05 0 00-1.2-3.9 3.7 3.7 0 00-3-1.3c-.75.024-1.49.159-2.2.4l-2.6 1.05c-1.9.75-3.55 1.35-5 1.8-1.625.463-3.31.682-5 .65a11.3 11.3 0 01-7.95-2.5 12.9 12.9 0 01-3.45-8.2h26.85a3.65 3.65 0 002.85-1.15 4.65 4.65 0 001-3.2 26.15 26.15 0 00-2.7-12.2 19.6 19.6 0 00-7.5-8.1 22.4 22.4 0 00-11.3-2.8 23.55 23.55 0 00-12 3.1 22.3 22.3 0 00-8.25 8.7 26.95 26.95 0 00-2.95 12.5 26.15 26.15 0 003.05 13 20.9 20.9 0 008.8 8.5 28.252 28.252 0 0013.35 2.95 31.954 31.954 0 008-1.1 32.554 32.554 0 007.55-2.8 8.351 8.351 0 002.7-2.35 5 5 0 00.95-3.05zM68.7 43.2a12.45 12.45 0 012.95-7.65 8.85 8.85 0 016.65-2.65 8.05 8.05 0 016.35 2.6 12.7 12.7 0 012.55 7.7H68.7z" fill="#006ADC"/><path d="M115.8 71a23.257 23.257 0 01-7.55-3.05 6.206 6.206 0 01-2.25-2.3 7.01 7.01 0 01-.75-3.3 5.3 5.3 0 011.25-3.65 3.85 3.85 0 013.05-1.5 8.449 8.449 0 012.5.4l2.6 1.05a40.264 40.264 0 005.3 1.95 23.35 23.35 0 006.4.7 10.848 10.848 0 005-1.05 3.15 3.15 0 001.85-2.85 2.797 2.797 0 00-.8-2.15 7.445 7.445 0 00-3.05-1.5c-1.45-.45-3.8-1-7-1.65a26.151 26.151 0 01-12.25-5 11.402 11.402 0 01-3.75-9.1 12.451 12.451 0 012.65-7.75 16.906 16.906 0 017.5-5.25 26.153 26.153 0 0110.35-1.95A30.901 30.901 0 01135 24a26.097 26.097 0 017 2.95 5.95 5.95 0 013 5.4 6.25 6.25 0 01-1.25 3.85 3.899 3.899 0 01-3.1 1.5 11.151 11.151 0 01-5-1.7 28.495 28.495 0 00-4.4-1.9 15.9 15.9 0 00-4.65-.6 8.603 8.603 0 00-4.7 1.1 3.4 3.4 0 00-1.7 3 3.35 3.35 0 002 3.1 32.049 32.049 0 007.75 2.1 44.985 44.985 0 0110 3 11.847 11.847 0 015 4.5 12.802 12.802 0 011.65 6.8 12.65 12.65 0 01-5.6 10.85 25 25 0 01-15 4 47.2 47.2 0 01-10.2-.95z" fill="#006ADC"/><path fill-rule="evenodd" clip-rule="evenodd" d="M223.75 62.65a6.052 6.052 0 00-1.2-3.9 3.7 3.7 0 00-2.9-1.55 8.253 8.253 0 00-2.25.4l-2.55 1.05c-1.9.75-3.55 1.35-5 1.8a17.3 17.3 0 01-5 .65 11.3 11.3 0 01-7.95-2.5 12.898 12.898 0 01-3.45-8.2h26.85a3.75 3.75 0 002.85-1.15 4.65 4.65 0 001-3.2 26.147 26.147 0 00-2.7-12.2 19.4 19.4 0 00-7.55-8.1 22.101 22.101 0 00-11.25-2.8 23.3 23.3 0 00-12 3.1 22.296 22.296 0 00-8.25 8.7 29.147 29.147 0 000 25.75 20.646 20.646 0 008.8 8.5 28.247 28.247 0 0013.35 2.95 31.25 31.25 0 007.95-1.1 32.15 32.15 0 007.6-2.8 8.357 8.357 0 002.7-2.35 5 5 0 00.95-3.05zm-30.4-19.45a12.447 12.447 0 012.95-7.65 8.75 8.75 0 016.65-2.65 8.051 8.051 0 016.35 2.6 12.702 12.702 0 012.55 7.7h-18.5z" fill="#006ADC"/><path d="M302.6 27.6a22.653 22.653 0 014.15 15V65a6.503 6.503 0 01-2 5 7.8 7.8 0 01-5 1.75 8.047 8.047 0 01-5-1.75 6.197 6.197 0 01-2.1-5V42.6a10.003 10.003 0 00-1.6-6.45 5.95 5.95 0 00-5-1.9 8.1 8.1 0 00-6.45 2.8A11.499 11.499 0 00277 45v20a6.301 6.301 0 01-2 5 7.8 7.8 0 01-5 1.75 8.047 8.047 0 01-5-1.75 6.197 6.197 0 01-2.1-5V42.6a10.005 10.005 0 00-1.55-6.45 6.101 6.101 0 00-5-1.9 8.1 8.1 0 00-6.45 2.8 11.5 11.5 0 00-2.4 7.75v20a6.35 6.35 0 01-2.05 5A8.45 8.45 0 01235 70a6.099 6.099 0 01-2.15-5V30a6.05 6.05 0 012.15-5 8.15 8.15 0 015-1.7 7 7 0 015 1.65 5.852 5.852 0 011.9 4.65v.95a15.951 15.951 0 016-5.55 18.551 18.551 0 018.4-1.9A16.952 16.952 0 01270 25a13.253 13.253 0 015.4 6.65 16.691 16.691 0 016.3-6.35 18.45 18.45 0 019.25-2.35 15 15 0 0111.65 4.65z" fill="#006ADC"/><path fill-rule="evenodd" clip-rule="evenodd" d="M365 35a20.9 20.9 0 00-7.35-8.95 19.4 19.4 0 00-10.8-3.1 18.85 18.85 0 00-8.8 2.05 15 15 0 00-6.4 5.75V30a6.55 6.55 0 00-1.95-5 7.001 7.001 0 00-5-1.85 7.25 7.25 0 00-5 1.85 6.55 6.55 0 00-1.95 5v52.15a6.097 6.097 0 002.05 5 8 8 0 005.4 1.8 7.101 7.101 0 005-1.75 5.802 5.802 0 001.95-4.6V64.5a14.4 14.4 0 005.95 5.5 19.202 19.202 0 008.7 1.95A19.25 19.25 0 00365 60.5a29.414 29.414 0 002.65-12.6A29.999 29.999 0 00365 35zm-11.7 12.55a15.304 15.304 0 01-2.8 10v-.05a10.7 10.7 0 01-15.75 0 19.45 19.45 0 010-20 9.5 9.5 0 017.9-3.55 9.4 9.4 0 017.85 3.6 16.353 16.353 0 012.8 10z" fill="#006ADC"/><path d="M378.55 70a6.347 6.347 0 01-2.05-5V10a6.347 6.347 0 012.05-5 8 8 0 015-1.7 7.803 7.803 0 015 1.7 6.35 6.35 0 012.05 5v55a6.35 6.35 0 01-2.05 5 7.851 7.851 0 01-5 1.75 8 8 0 01-5-1.75z" fill="#006ADC"/><path fill-rule="evenodd" clip-rule="evenodd" d="M402.9 60.4a21.104 21.104 0 008.7 8.55 30.3 30.3 0 0026.3 0 20.898 20.898 0 008.75-8.55 29.247 29.247 0 000-26 21.099 21.099 0 00-8.75-8.5 30.8 30.8 0 00-26.3 0 21.252 21.252 0 00-8.7 8.5 28.804 28.804 0 000 26zm29.7-23a15.998 15.998 0 012.7 10c0 9.05-3.55 13.7-10.55 13.7-7 0-10.55-4.55-10.55-13.55S417.75 34 424.75 34a9.6 9.6 0 017.85 3.4zm25.2-29.25a6.7 6.7 0 002.2 5.35v-.2a10.35 10.35 0 0012.1 0 6.85 6.85 0 002.2-5.35 6.55 6.55 0 00-2.25-5 8.6 8.6 0 00-6-2A8.8 8.8 0 00460 2.9a6.4 6.4 0 00-2.2 5.25zm.75 56.85a6.35 6.35 0 002.05 5 7.899 7.899 0 005.05 1.75 7.6 7.6 0 005-1.75 6.2 6.2 0 002.1-5V30a6.2 6.2 0 00-2.1-5 7.55 7.55 0 00-5-1.7 7.95 7.95 0 00-5 1.7 6.2 6.2 0 00-2.1 5v35z" fill="#006ADC"/><path d="M491.85 71a23.498 23.498 0 01-7.6-3.05 6.054 6.054 0 01-2.2-2.3 6.998 6.998 0 01-.75-3.3 5.3 5.3 0 011.25-3.65 3.8 3.8 0 013.05-1.5 8.7 8.7 0 012.5.4l2.6 1.05a39.63 39.63 0 005.25 1.95c2.108.524 4.278.76 6.45.7a10.75 10.75 0 005-1.05 3.2 3.2 0 001.9-2.85c.04-.806-.27-1.59-.85-2.15a7.504 7.504 0 00-3-1.5c-1.45-.45-3.8-1-7-1.65a26.347 26.347 0 01-12.3-5 11.4 11.4 0 01-3.75-9.1 12.45 12.45 0 012.65-7.75A17.201 17.201 0 01492.5 25a26.501 26.501 0 0110.35-1.95 31.6 31.6 0 018.1 1.05 26.788 26.788 0 017 2.95 5.999 5.999 0 012.95 5.4 5.95 5.95 0 01-1.25 3.85 3.8 3.8 0 01-3.05 1.5 11.151 11.151 0 01-5.3-1.7 30.409 30.409 0 00-4.35-1.9 15.9 15.9 0 00-4.65-.6 8.5 8.5 0 00-4.7 1.1 3.45 3.45 0 00-1.75 3 3.4 3.4 0 002.05 3.1 30.652 30.652 0 007.75 2.1 43.608 43.608 0 0110 3 12.297 12.297 0 015.3 4.5 13.75 13.75 0 01-4 17.65 25 25 0 01-15 4 46.393 46.393 0 01-10.1-1.05z" fill="#006ADC"/><path fill-rule="evenodd" clip-rule="evenodd" d="M35.8 107.35a3.05 3.05 0 00-.8-2.1h.25a3.55 3.55 0 00-4.5 0 2.85 2.85 0 00-.75 2.1v20a11.999 11.999 0 00-5-5.35 14.35 14.35 0 00-7.45-1.85 15 15 0 00-14.15 8.9 22.902 22.902 0 00-2 10 23.35 23.35 0 002 10 15.948 15.948 0 005.7 6.7 15.003 15.003 0 008.45 2.4c2.61.056 5.186-.601 7.45-1.9a11.85 11.85 0 005-5.3V155a3.05 3.05 0 105.8 0v-47.65zM30 139.2a16.4 16.4 0 01-3.1 10.3l.2-.2a11.099 11.099 0 01-16.45 0 15.949 15.949 0 01-3-10.35 15.001 15.001 0 013-10 10 10 0 018.25-3.6 10.002 10.002 0 018.2 3.6A16.05 16.05 0 0130 139.2zm47.35 12.55a2.55 2.55 0 00-.6-1.75 1.852 1.852 0 00-1.45-.7 6.85 6.85 0 00-2.6 1.1 36.02 36.02 0 01-4.5 2.15c-1.61.548-3.3.819-5 .8-7.7 0-11.8-4.3-12.25-12.9H75a2.5 2.5 0 001.95-.65 3.301 3.301 0 00.6-2.2 17.95 17.95 0 00-4.2-12.55 14.5 14.5 0 00-11.3-4.65 16.743 16.743 0 00-8.95 2.4 15.85 15.85 0 00-6.1 6.7 21.548 21.548 0 00-2.2 10 19.05 19.05 0 005 13.85 17.949 17.949 0 0013.4 5 23.748 23.748 0 0011.5-3.15c1.75-1.05 2.65-2.2 2.65-3.45zM51.1 136.6a13.801 13.801 0 013.45-8.45v-.2A10 10 0 0162.2 125a9.4 9.4 0 017.35 3.1 13.002 13.002 0 012.75 8.5H51.1z" fill="#000638"/><path d="M115.3 156.45a6.35 6.35 0 01-2.05-5v-55a6.35 6.35 0 012.05-5 7.999 7.999 0 015-1.7 7.798 7.798 0 015 1.7 6.347 6.347 0 012.05 5v55a6.346 6.346 0 01-2.05 5 7.847 7.847 0 01-5 1.75 8.005 8.005 0 01-5-1.75zm36.35-64.25a12.35 12.35 0 012.3 7.8 24.397 24.397 0 01-7.2 17.45 4 4 0 01-3 1.35 4.352 4.352 0 01-2.85-1.1 3.452 3.452 0 01-1.25-2.65 3.604 3.604 0 011.05-2.5 17.247 17.247 0 004.3-7.05 8.054 8.054 0 01-5-2.4 7.4 7.4 0 01-2-5.35 8.104 8.104 0 012-5.9 7.3 7.3 0 015.6-2.35 7.698 7.698 0 016.05 2.7z" fill="#000638"/><path fill-rule="evenodd" clip-rule="evenodd" d="M162.8 94.65A6.853 6.853 0 00165 100a10.35 10.35 0 0012.15 0 6.7 6.7 0 002.15-5.3 6.55 6.55 0 00-2.25-5 8.598 8.598 0 00-6-2 8.9 8.9 0 00-6.05 1.95 6.6 6.6 0 00-2.2 5zm.95 56.9a6.2 6.2 0 002.1 5 8.55 8.55 0 0010.35 0 6.35 6.35 0 002.05-5v-35a6.35 6.35 0 00-2.05-5 8.65 8.65 0 00-10.3 0 6.098 6.098 0 00-2.15 5v35z" fill="#000638"/><path d="M231.55 114.3a22.848 22.848 0 014.15 15v22.15a6.298 6.298 0 01-2 5 8.5 8.5 0 01-10.6 0 6.605 6.605 0 01-1.9-5V130a11.148 11.148 0 00-1.8-7 6.65 6.65 0 00-5.5-2.2 9.502 9.502 0 00-7.25 2.9 10.653 10.653 0 00-2.7 7.65v20a6.448 6.448 0 01-1.95 5 7.397 7.397 0 01-5.25 1.85 7.651 7.651 0 01-5.35-1.85 6.451 6.451 0 01-1.95-5v-35a6.104 6.104 0 012.05-5 7.85 7.85 0 015.35-1.8 6.751 6.751 0 015 1.75 6.046 6.046 0 011.9 4.55v1.35a16.507 16.507 0 016.25-5.85 19.698 19.698 0 019-2 15.45 15.45 0 0112.55 4.95zm24 41.1a20.403 20.403 0 01-8.4-8.45 26.902 26.902 0 01-2.9-12.85 26.05 26.05 0 013.1-13 21.548 21.548 0 018.75-8.7 27.052 27.052 0 0113.05-3.05c2.619.004 5.225.358 7.75 1.05a26.442 26.442 0 016.95 2.95 5.999 5.999 0 013 5.4 6.798 6.798 0 01-1.15 4.05 3.6 3.6 0 01-3.1 1.6 6.163 6.163 0 01-2.35-.45c-.75 0-1.7-.7-2.9-1.25a26.892 26.892 0 00-3.6-1.65 9.991 9.991 0 00-3.6-.6 10 10 0 00-8.2 3.45 14.997 14.997 0 00-2.85 10 15.398 15.398 0 002.85 10 10 10 0 008.2 3.45 11.003 11.003 0 003.55-.55 29.985 29.985 0 003.7-1.65l2.9-1.3a5.692 5.692 0 012.3-.45 3.649 3.649 0 013.05 1.65 6.755 6.755 0 011.2 4.1 5.7 5.7 0 01-3 5.3 26.103 26.103 0 01-7.1 2.95c-2.76.709-5.6 1.061-8.45 1.05a26.094 26.094 0 01-12.75-3.05zm40.45 1.05a6.197 6.197 0 01-2.1-5v-55a6.197 6.197 0 012.1-5 8.75 8.75 0 0110.35 0 6.2 6.2 0 012.05 5v55a6.199 6.199 0 01-2.05 5 8.55 8.55 0 01-10.35 0zm66.95-45.1a6.55 6.55 0 012 5v35a6 6 0 01-2.1 5 7.752 7.752 0 01-5.3 1.85 6.85 6.85 0 01-5-1.75 6.15 6.15 0 01-1.85-4.6v-.95a14.7 14.7 0 01-5.7 5.55 19.6 19.6 0 01-21.4-3 22.153 22.153 0 01-4.35-15v-22.1a6.5 6.5 0 011.95-5 7.697 7.697 0 015.35-1.8 7.248 7.248 0 015.25 1.8 6.497 6.497 0 011.95 5v22.45a9.508 9.508 0 001.75 6.2 6.9 6.9 0 005.45 2 8.752 8.752 0 006.85-2.9 10.698 10.698 0 002.65-7.55v-20a6.504 6.504 0 011.9-5 7.503 7.503 0 015.3-1.8 7.55 7.55 0 015.3 1.6zm20.8 46.05a23.491 23.491 0 01-7.6-3.05 6.06 6.06 0 01-2.2-2.3 6.997 6.997 0 01-.75-3.3 5.3 5.3 0 011.25-3.65 3.8 3.8 0 013.05-1.5 7.355 7.355 0 012.5.45c.885.285 1.753.619 2.6 1a39.632 39.632 0 005 1.95c2.108.524 4.278.76 6.45.7 1.727.061 3.443-.3 5-1.05a3.202 3.202 0 001.9-2.85 2.798 2.798 0 00-.85-2.15 7.146 7.146 0 00-3-1.5c-1.45-.45-3.8-1-7-1.65a26.346 26.346 0 01-12.3-5 11.4 11.4 0 01-3.75-9.1 12.45 12.45 0 012.65-7.75 17.6 17.6 0 017.25-5.45 26.5 26.5 0 0110.35-1.95 31.591 31.591 0 018.1 1.05 26.778 26.778 0 017 2.95 6.049 6.049 0 012.95 5.4 5.847 5.847 0 01-1.25 3.85 3.8 3.8 0 01-3.05 1.5 11.152 11.152 0 01-5.3-1.7 30.375 30.375 0 00-4.35-1.9 15.887 15.887 0 00-4.65-.6 8.502 8.502 0 00-4.7 1.1 3.45 3.45 0 00-1.75 3 3.4 3.4 0 002.05 3.1 30.64 30.64 0 007.75 2.1 45.011 45.011 0 0110 3c2.14.974 3.96 2.534 5.25 4.5a13.75 13.75 0 01-4 17.65 25.003 25.003 0 01-15 4 46.363 46.363 0 01-9.6-.85z" fill="#000638"/><path fill-rule="evenodd" clip-rule="evenodd" d="M421.85 94.65a6.7 6.7 0 002.2 5.35 10.299 10.299 0 0012.05 0 6.749 6.749 0 002.25-5.35 6.448 6.448 0 00-2.3-5 10 10 0 00-12 0 6.403 6.403 0 00-2.2 5zm1.1 56.8a6.201 6.201 0 002.05 5h-.3a8.55 8.55 0 0010.35 0 6.201 6.201 0 002.05-5v-35a6.201 6.201 0 00-2.05-5 7.704 7.704 0 00-5-1.7 7.903 7.903 0 00-5 1.7 6.203 6.203 0 00-2.1 5v35zm26.2-4.65a21.194 21.194 0 008.75 8.55 30.3 30.3 0 0026.3 0 21.2 21.2 0 008.75-8.55 29.247 29.247 0 000-26 21.401 21.401 0 00-8.75-8.5 30.8 30.8 0 00-26.3 0 21.401 21.401 0 00-8.75 8.5 29.247 29.247 0 000 26zm29.7-23a15.645 15.645 0 012.75 10c0 9.05-3.5 13.7-10.55 13.7-7.05 0-10.55-4.55-10.55-13.55s3.5-13.5 10.55-13.5a9.399 9.399 0 017.8 3.35z" fill="#000638"/><path d="M546.95 114.3a22.853 22.853 0 014.1 15v22.15a6.451 6.451 0 01-1.95 5 7.651 7.651 0 01-5.35 1.85 7.449 7.449 0 01-5.25-1.85 6.399 6.399 0 01-1.9-5V130a11.154 11.154 0 00-1.8-7 6.7 6.7 0 00-5.5-2.2 9.402 9.402 0 00-7.25 2.9 10.496 10.496 0 00-2.75 7.65v20c.1 1.86-.59 3.676-1.9 5a8.5 8.5 0 01-10.6 0 6.3 6.3 0 01-2-5v-35a6 6 0 012.1-5 7.753 7.753 0 015.3-1.8 6.85 6.85 0 015 1.75 6.002 6.002 0 011.85 4.55v1.35a16.953 16.953 0 016.5-5.85 19.46 19.46 0 018.95-2 15.45 15.45 0 0112.45 4.95z" fill="#000638"/></svg>