<svg width="117" height="40" preserveAspectRatio="xMinYMin meet" fill="none" xmlns="http://www.w3.org/2000/svg"><path d="M4.573 25.052V12.784h2.343V16.7c.459-.427.92-.731 1.383-.912.462-.181 1.012-.272 1.649-.272.931 0 1.772.211 2.524.633a4.562 4.562 0 011.766 1.747c.425.743.638 1.574.638 2.493 0 1.249-.382 2.338-1.146 3.268-.896 1.076-2.102 1.614-3.618 1.614-.724 0-1.344-.106-1.861-.316-.517-.211-1.028-.571-1.533-1.079v1.176H4.573zm5.005-7.509c-.816 0-1.486.271-2.012.811-.525.541-.788 1.23-.788 2.068 0 .827.27 1.504.81 2.031.54.527 1.232.791 2.076.791.838 0 1.522-.261 2.05-.783.529-.521.793-1.201.793-2.039 0-.849-.272-1.541-.814-2.076-.543-.535-1.248-.803-2.115-.803zm17.266 3.892h-7.572c.144.557.457.998.939 1.322.483.324 1.071.487 1.766.487.483 0 .885-.069 1.206-.207.322-.138.635-.374.939-.71h2.559c-.138.417-.396.844-.776 1.282-1.01 1.108-2.302 1.662-3.876 1.662a5.84 5.84 0 01-2.085-.373 5.256 5.256 0 01-1.684-1.01 4.71 4.71 0 01-1.115-1.524 4.39 4.39 0 01-.414-1.877c0-.887.228-1.702.685-2.445a4.908 4.908 0 011.869-1.76 5.355 5.355 0 012.598-.644c.959 0 1.823.212 2.593.636a4.613 4.613 0 011.804 1.768c.434.754.651 1.601.651 2.542 0 .303-.029.587-.087.851zm-7.64-1.946h5.418c-.149-.589-.457-1.04-.922-1.354-.465-.313-1.059-.47-1.783-.47-.701 0-1.282.155-1.744.466-.463.311-.786.764-.969 1.358zm10.323 5.563V17.86h-1.146v-2.011h1.146v-3.065h2.343v3.065h1.413v2.011H31.87v7.192h-2.343zm15.604-9.203v9.203h-2.145V23.86c-.471.503-.958.863-1.46 1.082-.503.219-1.098.329-1.788.329-.941 0-1.787-.204-2.536-.612a4.448 4.448 0 01-1.758-1.707c-.422-.73-.633-1.552-.633-2.465 0-.925.213-1.756.637-2.494a4.518 4.518 0 011.775-1.731c.758-.416 1.614-.624 2.567-.624.707 0 1.315.115 1.826.344.512.23.968.596 1.37 1.099v-1.232h2.145zm-5.134 1.816c-.816 0-1.489.27-2.02.811-.531.54-.797 1.227-.797 2.059 0 .806.268 1.459.805 1.959s1.234.75 2.089.75c.85 0 1.535-.254 2.055-.763.52-.508.78-1.173.78-1.994 0-.833-.272-1.511-.815-2.035-.542-.525-1.241-.787-2.097-.787zm9.178 5.726a.957.957 0 00-.971.947c0 .481.441.897.953.897.547 0 1.006-.399 1.006-.897 0-.515-.459-.947-.988-.947zm11.589-7.542h2.24v7.46c0 .913-.085 1.671-.254 2.274a3.857 3.857 0 01-.823 1.545c-.93 1.065-2.259 1.597-3.988 1.597-1.195 0-2.231-.257-3.11-.77a4.491 4.491 0 01-1.912-2.157h2.662c.344.357.703.609 1.076.758.374.149.833.223 1.379.223.873 0 1.536-.243 1.99-.73.453-.486.7-1.224.74-2.213-.459.508-.937.874-1.434 1.098-.497.225-1.09.337-1.779.337-.919 0-1.744-.208-2.476-.625a4.38 4.38 0 01-1.71-1.739c-.408-.743-.612-1.582-.612-2.518 0-1.362.457-2.494 1.37-3.397.913-.903 2.061-1.354 3.445-1.354 1.402 0 2.467.459 3.196 1.378v-1.167zm-2.963 1.816c-.804 0-1.451.258-1.942.774-.491.517-.737 1.199-.737 2.048 0 .838.248 1.507.745 2.007.497.5 1.165.75 2.003.75.85 0 1.528-.253 2.033-.759.505-.505.758-1.182.758-2.031 0-.832-.263-1.505-.788-2.019-.526-.513-1.216-.77-2.072-.77zm12.77-2.027c.93 0 1.792.216 2.584.649a4.943 4.943 0 011.878 1.763c.46.743.689 1.55.689 2.421 0 .864-.231 1.666-.693 2.404a4.959 4.959 0 01-1.891 1.751 5.398 5.398 0 01-2.601.645 5.443 5.443 0 01-2.615-.645 4.98 4.98 0 01-1.899-1.751 4.417 4.417 0 01-.698-2.404c0-.66.136-1.288.409-1.886a4.734 4.734 0 011.111-1.54 5.304 5.304 0 011.676-1.026 5.574 5.574 0 012.05-.381zm-.095 2.027c-.758 0-1.411.274-1.959.823-.549.549-.823 1.204-.823 1.966 0 .768.275 1.425.827 1.971a2.727 2.727 0 001.99.819c.781 0 1.45-.272 2.007-.815.557-.544.835-1.196.835-1.958 0-.79-.278-1.455-.835-1.995-.557-.541-1.238-.811-2.042-.811zm16.225-1.816v9.203H84.53v-.884c-.448.405-.88.691-1.297.855-.416.165-.917.248-1.503.248-.66 0-1.252-.126-1.774-.377a3.201 3.201 0 01-1.267-1.075 3.633 3.633 0 01-.534-1.232c-.103-.449-.155-1.049-.155-1.8v-4.938h2.352v4.5c0 .638.037 1.136.112 1.496.074.359.201.642.379.847.339.368.792.552 1.361.552.408 0 .771-.077 1.09-.231.318-.155.561-.372.728-.653.126-.206.213-.472.262-.799.049-.327.073-.785.073-1.374v-4.338h2.344zm5.818 9.203l-3.937-9.203h2.61l2.257 6.097 2.223-6.097h2.653l-3.937 9.203h-1.869zm7.042-1.66c-.498 0-.913.415-.913.946 0 .481.415.896.896.896.515 0 .946-.398.946-.896 0-.515-.431-.946-.929-.946z" fill="#373C42"/><path d="M102.675 16.537h1.928l-1.949 9.023c-.508 2.33-1.207 3.495-2.118 3.495-.254 0-.424-.148-.424-.36 0-.063.022-.106.085-.212a.63.63 0 00.106-.36.837.837 0 00-.251-.59.835.835 0 00-.596-.236c-.445 0-.784.403-.784.911 0 .72.741 1.292 1.673 1.292 1.928 0 3.432-2.118 4.364-6.079l1.588-6.884h2.352l.127-.678h-2.309c.635-3.389 1.461-4.893 2.648-4.893.296 0 .466.106.466.275 0 .043-.022.106-.085.212a.72.72 0 00-.127.445c0 .508.318.847.784.847.487 0 .91-.402.91-.868 0-.784-.783-1.377-1.842-1.377-1.038 0-1.886.466-2.669 1.462-.636.847-1.081 1.821-1.737 3.897h-1.991l-.149.678zm7.478 8.515c1.165-3.707 1.525-4.575 2.499-6.206.741-1.208 1.334-1.864 1.694-1.864.149 0 .255.084.361.296.169.36.338.466.762.466.636 0 .996-.381.996-1.059 0-.678-.403-1.101-.996-1.101-.487 0-1.08.317-1.631.91-.89.89-1.779 2.182-2.118 3.008l-.318.784 1.186-4.66-.063-.042c-1.546.275-1.779.317-3.326.572v.36c.466-.085.551-.106.721-.106.466 0 .741.212.741.593 0 .275-.17 1.144-.339 1.779l-1.8 6.27h1.631z" fill="#373C42"/></svg>