<svg width="24" height="25" fill="none" xmlns="http://www.w3.org/2000/svg"><path fill-rule="evenodd" clip-rule="evenodd" d="M19.52 4.58c.16.08.32.24.4.4.08.08.08.24.08.32v4.8c0 .48-.32.8-.8.8-.48 0-.8-.32-.8-.8V7.22l-7.44 7.44c-.16.16-.32.24-.56.24-.24 0-.4-.08-.56-.24a.773.773 0 010-1.12l7.44-7.44H14.4c-.48 0-.8-.32-.8-.8 0-.48.32-.8.8-.8h4.8c.08 0 .24 0 .32.08zM17.6 18.1v-4.8c0-.48-.32-.8-.8-.8-.48 0-.8.32-.8.8v4.8c0 .48-.32.8-.8.8H6.4c-.48 0-.8-.32-.8-.8V9.3c0-.48.32-.8.8-.8h4.8c.48 0 .8-.32.8-.8 0-.48-.32-.8-.8-.8H6.4C5.04 6.9 4 7.94 4 9.3v8.8c0 1.36 1.04 2.4 2.4 2.4h8.8c1.36 0 2.4-1.04 2.4-2.4z" fill="#fff"/><path fill-rule="evenodd" clip-rule="evenodd" d="M19.52 4.58c.16.08.32.24.4.4.08.08.08.24.08.32v4.8c0 .48-.32.8-.8.8-.48 0-.8-.32-.8-.8V7.22l-7.44 7.44c-.16.16-.32.24-.56.24-.24 0-.4-.08-.56-.24a.773.773 0 010-1.12l7.44-7.44H14.4c-.48 0-.8-.32-.8-.8 0-.48.32-.8.8-.8h4.8c.08 0 .24 0 .32.08zM17.6 18.1v-4.8c0-.48-.32-.8-.8-.8-.48 0-.8.32-.8.8v4.8c0 .48-.32.8-.8.8H6.4c-.48 0-.8-.32-.8-.8V9.3c0-.48.32-.8.8-.8h4.8c.48 0 .8-.32.8-.8 0-.48-.32-.8-.8-.8H6.4C5.04 6.9 4 7.94 4 9.3v8.8c0 1.36 1.04 2.4 2.4 2.4h8.8c1.36 0 2.4-1.04 2.4-2.4z" fill="#fff"/></svg>