<svg width="24" height="24" fill="none" xmlns="http://www.w3.org/2000/svg"><path fill-rule="evenodd" clip-rule="evenodd" d="M21.302 0H1.699A1.71 1.71 0 000 1.72v20.56C0 23.23.761 24 1.7 24h19.602A1.71 1.71 0 0023 22.28V1.72C23 .77 22.24 0 21.302 0zM6.635 19.846H3.096V9.231h3.539v10.615zM5.052 7.385h.024c1.233 0 2.001-.82 2.001-1.847-.023-1.048-.768-1.846-1.979-1.846-1.21 0-2.002.798-2.002 1.846 0 1.026.77 1.847 1.956 1.847zm14.41 12.461h-3.478v-5.79c0-1.455-.504-2.448-1.761-2.448-.962 0-1.533.67-1.784 1.316-.093.232-.116.555-.116.877v6.045H8.846s.046-9.807 0-10.822h3.477v1.534c.462-.737 1.287-1.789 3.134-1.789 2.288 0 4.005 1.546 4.005 4.872v6.205zm-7.279-9.03l-.039.06h.039v-.06z" fill="#F8F9FA"/></svg>