<svg width="24" height="24" fill="none" xmlns="http://www.w3.org/2000/svg"><path d="M21 5.776a7.213 7.213 0 01-2.12.596 3.778 3.778 0 001.623-2.095 7.279 7.279 0 01-2.346.918A3.64 3.64 0 0015.462 4c-2.038 0-3.692 1.695-3.692 3.787 0 .296.032.585.095.862-3.069-.158-5.79-1.664-7.612-3.958a3.855 3.855 0 00-.5 1.906c0 1.313.652 2.472 1.643 3.152a3.625 3.625 0 01-1.673-.473v.047c0 1.835 1.273 3.366 2.963 3.713a3.616 3.616 0 01-1.668.066c.47 1.503 1.833 2.6 3.45 2.628A7.292 7.292 0 013 17.3 10.283 10.283 0 008.661 19c6.793 0 10.507-5.77 10.507-10.774 0-.164-.003-.329-.01-.49A7.58 7.58 0 0021 5.776z" fill="#F8F9FA"/></svg>