<svg width="80" height="80" fill="none" xmlns="http://www.w3.org/2000/svg"><circle cx="54.403" cy="23.2" r="20" fill="#FE5455"/><path d="M15.055 47.245a1.333 1.333 0 011.992 1.766l-.097.11-6.128 6.193 9.954.356a1.333 1.333 0 011.28 1.2l.006.133-.001 9.727 4.985-5.842a1.334 1.334 0 011.764-.237l.116.088c.523.446.616 1.209.237 1.764l-.088.116-7.332 8.593c-.776.91-2.238.413-2.342-.735l-.006-.13V58.289L7.687 57.87c-1.116-.04-1.673-1.338-.988-2.172l.088-.098 8.267-8.355zm44.502.479a1.334 1.334 0 011.749-.331l.12.082 10.465 8.004c.96.734.52 2.238-.635 2.381l-.132.01-12.872.422v12.055c0 1.19-1.424 1.764-2.25.968l-.09-.094-7.467-8.593a1.333 1.333 0 011.912-1.854l.101.105 5.127 5.9v-9.776c0-.675.502-1.235 1.157-1.322l.133-.011 10.427-.343-7.496-5.734a1.334 1.334 0 01-.331-1.75l.082-.12z" fill="#000638"/><path fill-rule="evenodd" clip-rule="evenodd" d="M58.252 35.022c0-10.406-8.435-18.842-18.84-18.842a1.333 1.333 0 000 2.667c8.932 0 16.174 7.242 16.174 16.175A16.181 16.181 0 0143.67 50.63a1.333 1.333 0 00.7 2.573 18.848 18.848 0 0013.883-18.181zM35.093 19.43a1.333 1.333 0 10-.71-2.57 18.848 18.848 0 00.192 36.376 1.333 1.333 0 00.683-2.578 16.181 16.181 0 01-.165-31.229z" fill="#000638"/><path fill-rule="evenodd" clip-rule="evenodd" d="M28.176 30.06l6.232-1.104 4.338-6.113a1.333 1.333 0 012.297.21l2.747 5.913 6.324 1.005c1.037.165 1.47 1.394.815 2.17l-.091.1-4.227 4.136.944 7.094c.137 1.026-.89 1.793-1.82 1.412l-.116-.053-6.08-3.157-6.08 3.157c-.918.477-1.987-.228-1.947-1.23l.01-.127.924-7.025-4.888-4.048c-.84-.696-.529-2.03.487-2.31l.131-.03zm13.494.675l-2.078-4.477-3.324 4.686c-.202.286-.51.48-.854.542l-3.937.696 3.238 2.683c.314.26.49.647.483 1.05l-.011.15-.687 5.22 4.425-2.298c.337-.175.73-.196 1.081-.065l.148.065 4.42 2.295-.693-5.215a1.33 1.33 0 01.284-1.012l.105-.116 2.808-2.75-4.407-.7a1.334 1.334 0 01-.931-.625l-.07-.13z" fill="#000638"/><path fill-rule="evenodd" clip-rule="evenodd" d="M42.05 10.838l.843-.512c1.585-.926 2.859-1.245 4.439-.81 1.885.521 2.536 1.536 3.063 3.642l.076.301.09.333c.225.772.468 1.157.95 1.462.522.332 1.09.543 2.1.783l.498.113 1.344.284.61.14c2.036.49 3.074 1.009 4.058 2.184.984 1.174 1.142 2.222.91 4.401l-.069.595-.106.83-.043.376-.036.397c-.097 1.272.054 2.074.549 2.722a7.414 7.414 0 001.24 1.283l.61.468.431.323.208.164c1.253 1.032 1.765 2.186 1.765 4.343 0 2.164-.717 3.354-2.39 4.805l-.482.416-.266.238c-.694.639-1.082 1.157-1.37 1.895-.281.724-.395 1.354-.43 2.358l-.01.535v1.184c-.025 2.286-.35 3.343-1.734 4.393-.9.683-1.744 1.001-2.822 1.166l-.098.014-.74.096c-1.183.16-1.725.367-2.623 1.089-.594.478-.977 1.115-1.393 2.222l-.236.65-.234.63c-.88 2.26-1.835 3.296-4.002 3.58-1.982.261-3.08-.286-4.406-1.686l-.348-.366c-.719-.727-1.178-.948-2.162-.948-1.048 0-1.586.25-2.586 1.046l-.447.352c-1.534 1.168-2.782 1.547-4.865 1.114-2.397-.498-3.591-1.841-4.453-4.164l-.43-1.204-.127-.325c-.203-.492-.364-.739-.554-.885-.226-.174-.518-.301-.99-.415l-.341-.075-.403-.072-.47-.073-1.204-.164c-2.125-.304-3.267-.69-4.253-1.724-.916-.96-1.23-2.073-1.224-3.917l.01-.547.025-.59c.016-.306.038-.63.065-.972l.072-.945.048-.742.018-.416.008-.36c.001-.113 0-.218-.003-.316l-.014-.278-.025-.25-.038-.229-.023-.11c-.08-.352-.259-.61-.726-.981l-.285-.214a15.849 15.849 0 00-.349-.244l-.43-.297c-1.75-1.238-2.53-2.345-2.53-4.407 0-2.086.736-3.183 2.457-4.526l.565-.445c.748-.613 1.1-1.06 1.335-1.756.238-.703.31-1.55.27-2.794l-.009-.23-.066-1.407-.02-.599-.005-.55.008-.505c.056-1.695.407-2.64 1.373-3.586 1.144-1.121 2.35-1.358 4.39-1.274l.55.024.45.012.38-.002c.698-.018 1.035-.126 1.314-.374.329-.29.58-.672.936-1.432l.186-.412.49-1.131.241-.522.237-.474c.787-1.502 1.567-2.247 2.971-2.669 1.324-.397 2.491-.17 3.872.528.057.029.115.058.173.089l.378.204.783.437c1.193.65 1.87.865 2.714.806.87-.06 1.55-.352 2.767-1.1zm20.179 21.63l-.22-.18-.956-.723-.26-.209a10.075 10.075 0 01-1.587-1.659c-1.027-1.346-1.259-2.836-1.059-4.88l.044-.4.121-.96.058-.494.042-.434a11.2 11.2 0 00.026-.381l.01-.332c.002-.672-.115-1.04-.371-1.346-.445-.53-1.002-.85-2.08-1.156l-.43-.115a19.54 19.54 0 00-.234-.057l-.512-.117-1.357-.286-.6-.138c-1.223-.296-1.979-.585-2.782-1.095-1.2-.761-1.756-1.735-2.154-3.23l-.171-.672-.098-.351c-.238-.797-.45-1.004-1.036-1.165-.757-.21-1.36-.058-2.384.54l-1.097.667c-1.39.828-2.358 1.212-3.673 1.304-1.566.11-2.685-.287-4.467-1.286l-.768-.427-.403-.202c-.714-.335-1.193-.407-1.701-.255-.63.19-1.036.631-1.59 1.786l-.202.438-.503 1.162-.233.51c-.488 1.034-.885 1.614-1.532 2.187-.908.804-1.737 1.042-3.205 1.047l-.514-.006-1.099-.042c-1.188-.032-1.733.097-2.168.522-.33.324-.5.762-.556 1.59l-.016.353-.004.193v.423l.021.732.069 1.472.013.5c.023 1.347-.085 2.375-.417 3.357-.456 1.351-1.16 2.174-2.427 3.17l-.552.433c-.979.79-1.238 1.237-1.238 2.271 0 1.062.341 1.508 1.6 2.367l.449.309c1.306.92 1.919 1.613 2.205 2.88.122.537.175 1.034.173 1.703l-.008.424-.036.736-.038.573-.05.65-.068.943-.027.537-.01.248-.006.46c0 1.159.152 1.8.48 2.145.362.38.925.613 1.976.807l.48.08c.172.027.353.053.547.08l.642.084.579.084.515.085c1.216.218 1.907.482 2.62 1.031.817.63 1.194 1.354 1.712 2.832l.23.652.128.34c.547 1.387 1.136 1.99 2.408 2.255 1.296.27 1.81.091 2.884-.762l.474-.374c1.306-.998 2.338-1.432 3.998-1.432 1.907 0 2.985.604 4.255 1.944l.336.353c.696.71 1.047.849 1.978.727.863-.114 1.254-.438 1.723-1.548l.15-.378c.052-.134.105-.279.16-.433l.29-.798c.57-1.513 1.175-2.522 2.219-3.361 1.42-1.142 2.415-1.47 4.235-1.691l.415-.054.293-.048a3.04 3.04 0 001.398-.617c.42-.319.596-.675.656-1.566l.017-.361.005-.2.003-.448-.003-.622c0-1.82.123-2.83.624-4.116.497-1.278 1.185-2.136 2.31-3.126l.738-.641c.989-.889 1.278-1.437 1.278-2.62 0-1.276-.145-1.716-.685-2.193z" fill="#000638"/></svg>