<svg width="24" height="24" fill="none" xmlns="http://www.w3.org/2000/svg"><path d="M15.837 12.082a697.086 697.086 0 00-5.593-2.93l4.917 3.304s-.896.497.676-.374z" fill="#E8E0E0"/><path d="M10.603 19.57c-3.956-.073-5.307-.138-6.138-.309a2.698 2.698 0 01-1.408-.732c-.276-.277-.497-.7-.667-1.287-.147-.488-.204-.895-.285-1.888-.125-2.241-.154-4.074 0-6.122.127-1.13.188-2.472 1.033-3.255.385-.36.865-.603 1.384-.7C5.336 5.122 8.803 5 12.393 5c3.582 0 7.058.122 7.872.277a2.708 2.708 0 011.62.96c.77 1.213.784 2.72.862 3.9.033.561.033 3.752 0 4.314-.121 1.864-.22 2.523-.496 3.207a2.365 2.365 0 01-.57.911 2.73 2.73 0 01-1.449.741c-3.423.258-6.33.313-9.63.26h.001zm5.242-7.488c-1.904-1.018-3.728-1.962-5.592-2.939v5.845c1.962-1.066 4.03-2.043 5.6-2.914l-.008.008z" fill="#F8F9FA"/></svg>