<svg width="24" height="24" fill="none" xmlns="http://www.w3.org/2000/svg"><path d="M19.438 23H4.562A3.567 3.567 0 011 19.437V4.563A3.567 3.567 0 014.562 1h14.876A3.566 3.566 0 0123 4.563v14.874A3.566 3.566 0 0119.438 23zM8.382 5.554h7.382a2.843 2.843 0 012.84 2.846v7.4a2.843 2.843 0 01-2.84 2.845H8.382a2.843 2.843 0 01-2.84-2.846V8.4a2.843 2.843 0 012.84-2.845zm0-1.708A4.548 4.548 0 003.84 8.4v7.4a4.548 4.548 0 004.543 4.553h7.382a4.548 4.548 0 004.543-4.554V8.4a4.548 4.548 0 00-4.543-4.553H8.382zm3.691 12.238a3.98 3.98 0 003.975-3.985 3.98 3.98 0 00-3.975-3.984 3.98 3.98 0 00-3.975 3.984 3.98 3.98 0 003.975 3.985zm0-1.708A2.274 2.274 0 019.802 12.1a2.274 2.274 0 012.271-2.276 2.274 2.274 0 012.272 2.276 2.274 2.274 0 01-2.272 2.277zm4.26-5.407c.627 0 1.135-.51 1.135-1.139a1.137 1.137 0 10-2.271 0c0 .63.508 1.139 1.135 1.139z" fill="#fff"/></svg>