<?xml version="1.0" encoding="UTF-8"?>
<svg width="117px" height="58px" viewBox="0 0 117 58" version="1.1" xmlns="http://www.w3.org/2000/svg" xmlns:xlink="http://www.w3.org/1999/xlink">
    <title>4EC999B5-D9C1-4EA1-BB80-8E9647B3EA18</title>
    <g id="Page-d'accueil" stroke="none" stroke-width="1" fill="none" fill-rule="evenodd">
        <g id="Page-d'accueil-en-attendant" transform="translate(-120.000000, -212.000000)">
            <g id="Group-2" transform="translate(120.000000, 212.000000)">
                <path d="M39.6890141,55.8239845 C54.9812343,55.8239845 124.117811,59.4255319 116.401201,54.0232108 C108.68459,48.6208897 67.6909457,0 52.3987255,0 C37.1065053,0 12,13.195453 12,28.3621857 C12,43.5289184 24.3967939,55.8239845 39.6890141,55.8239845 Z" id="Oval" fill="#FDE0D7"></path>
                <path d="M116,2.07142857 C116,0.927410161 115.069224,0 113.921053,0 L39.0789474,0 C37.9307764,0 37,0.927410161 37,2.07142857 L37,55.9285714 C37.0045578,57.0707035 37.9326697,57.9954587 39.0789474,58 L113.921053,58 C115.06733,57.9954587 115.995442,57.0707035 116,55.9285714 L116,2.07142857 Z M41,15 L64,29.3998781 L41,51 L41,15 Z M67.4063031,32 L75.8611245,37.7857752 C76.5507721,38.257718 77.4492279,38.257718 78.1388755,37.7857752 L86.5936969,32 L109,55 L45,55 L67.4063031,32 Z M90,29.3998781 L113,15 L113,51 L90,29.3998781 Z M113,4 L113,9.18029033 L77.5,33 L42,9.18029033 L42,4 L113,4 Z M33,47 C33,48.1045695 32.1045695,49 31,49 L19,49 C17.8954305,49 17,48.1045695 17,47 C17,45.8954305 17.8954305,45 19,45 L31,45 C32.1045695,45 33,45.8954305 33,47 Z M33,35 C33,36.1045695 32.1045695,37 31,37 L11,37 C9.8954305,37 9,36.1045695 9,35 C9,33.8954305 9.8954305,33 11,33 L31,33 C32.1045695,33 33,33.8954305 33,35 Z M34,11 C34,12.1045695 33.059798,13 31.9,13 L15.1,13 C13.940202,13 13,12.1045695 13,11 C13,9.8954305 13.940202,9 15.1,9 L31.9,9 C33.059798,9 34,9.8954305 34,11 Z M34,23 C34,24.1045695 33.0486051,25 31.875,25 L2.125,25 C0.951394907,25 0,24.1045695 0,23 C0,21.8954305 0.951394907,21 2.125,21 L31.875,21 C33.0486051,21 34,21.8954305 34,23 Z" id="Shape" fill="#006ADC" fill-rule="nonzero"></path>
            </g>
        </g>
    </g>
</svg>