<?xml version="1.0" encoding="UTF-8"?>
<svg width="15px" height="12px" viewBox="0 0 15 12" version="1.1" xmlns="http://www.w3.org/2000/svg" xmlns:xlink="http://www.w3.org/1999/xlink">
    <title>fleche</title>
    <g id="Symbols" stroke="none" stroke-width="1" fill="none" fill-rule="evenodd">
        <g id="bt-primaire" transform="translate(-280.000000, -18.000000)" fill="#FFFFFF" fill-rule="nonzero" stroke="#FFFFFF">
            <g id="Shape-2" transform="translate(281.000000, 18.809524)">
                <path d="M0.464285714,5.44914154 L11.4933929,5.44914154 L8.01125,9.23784945 C7.83945,9.42624492 7.85607943,9.71540367 8.04839287,9.88370361 C8.2407063,10.0520036 8.53587856,10.0357129 8.70767857,9.84731747 L12.88625,5.29904867 L12.9210714,5.25584012 L12.9535714,5.20580916 L12.9675,5.15577821 L12.9675,5.12166619 L12.9675,5.07163523 C12.9675,5.06026456 12.9675,5.04889389 12.9675,5.03752322 C12.9675,5.02615255 13,5.01705601 13,4.99431466 C13,4.99431466 13,4.97384745 13,4.96247678 C13,4.95110611 13,4.93973544 13,4.92836477 L13,4.87833381 L13,4.84422179 L12.9860714,4.79419084 L12.9675,4.76462709 L12.9326786,4.7191444 L8.74017857,0.152682528 C8.56837856,-0.0357129268 8.2732063,-0.0520035571 8.08089287,0.116296386 C7.88857943,0.284596329 7.87195,0.573755084 8.04375,0.762150547 L11.4933929,4.53948778 L0.464285714,4.53948778 C0.207867795,4.53948778 0,4.74312071 0,4.99431466 C0,5.24550861 0.207867795,5.44914154 0.464285714,5.44914154 Z"></path>
            </g>
        </g>
    </g>
</svg>