<svg xmlns="http://www.w3.org/2000/svg" width="15" height="15" fill="none" viewBox="0 0 15 15">
    <path fill="#000638" d="M10.313 3.75c0 .746-.297 1.461-.824 1.989-.528.527-1.243.824-1.989.824s-1.461-.297-1.989-.824c-.527-.528-.824-1.243-.824-1.989s.297-1.461.824-1.989C6.04 1.234 6.754.938 7.5.938s1.461.296 1.989.823c.527.528.823 1.243.823 1.989z"/>
    <path fill="#000638" d="M7.031 3.75h.938v8.438c0 .124-.05.243-.138.331-.087.088-.207.137-.331.137-.124 0-.244-.05-.331-.137-.088-.088-.138-.207-.138-.332V3.75z"/>
    <path fill="#000638" fill-rule="evenodd" d="M6.083 11.339c.027.121.003.248-.064.353-.067.104-.173.178-.295.204-.53.115-.94.274-1.205.442-.283.18-.3.301-.3.318 0 .012.004.08.137.197.13.116.348.244.657.358.614.23 1.493.383 2.487.383s1.873-.152 2.487-.383c.309-.115.525-.242.657-.358.132-.117.137-.185.137-.197 0-.017-.017-.138-.3-.318-.265-.168-.676-.328-1.205-.442-.062-.012-.12-.036-.172-.07-.052-.035-.096-.08-.13-.132-.035-.052-.059-.11-.07-.172-.012-.062-.01-.125.002-.186.014-.06.039-.119.075-.17.036-.05.081-.094.134-.127.053-.034.112-.056.174-.066.062-.01.125-.008.185.007.591.128 1.119.319 1.51.568.375.237.735.605.735 1.108 0 .377-.206.679-.453.898-.248.22-.58.397-.95.535-.743.28-1.739.442-2.816.442-1.077 0-2.072-.163-2.816-.441-.37-.14-.702-.315-.95-.536-.247-.219-.453-.52-.453-.898 0-.503.36-.87.734-1.108.392-.25.92-.44 1.51-.568.06-.013.123-.014.184-.003.06.01.118.034.17.067.052.033.097.076.132.127.035.05.06.108.072.168z" clip-rule="evenodd"/>
</svg>
