<svg xmlns="http://www.w3.org/2000/svg" width="15" height="15" fill="none" viewBox="0 0 15 15">
    <g clip-path="url(#clip0)">
        <path fill="#000638" fill-rule="evenodd" d="M7.5 15s5.625-5.33 5.625-9.375c0-1.492-.593-2.923-1.648-3.977C10.423.593 8.992 0 7.5 0S4.577.593 3.523 1.648C2.468 2.702 1.875 4.133 1.875 5.625 1.875 9.669 7.5 15 7.5 15zm0-6.563c.746 0 1.461-.296 1.989-.823.527-.528.823-1.243.823-1.989s-.296-1.461-.823-1.989C8.96 3.11 8.246 2.812 7.5 2.812s-1.461.297-1.989.824c-.527.528-.824 1.243-.824 1.989s.297 1.461.824 1.989c.528.527 1.243.824 1.989.824z" clip-rule="evenodd"/>
    </g>
    <defs>
        <clipPath id="clip0">
            <path fill="#fff" d="M0 0H15V15H0z"/>
        </clipPath>
    </defs>
</svg>
