<?xml version="1.0" encoding="UTF-8"?>
<svg width="11px" height="15px" viewBox="0 0 11 15" version="1.1" xmlns="http://www.w3.org/2000/svg" xmlns:xlink="http://www.w3.org/1999/xlink">
    <title>Group</title>
    <g id="Symbols" stroke="none" stroke-width="1" fill="none" fill-rule="evenodd">
        <g id="RECHERCHE" transform="translate(-542.000000, -151.000000)" fill="#007BFF" fill-rule="nonzero">
            <g id="Group" transform="translate(542.000000, 151.000000)">
                <path d="M1.1,0 C0.498755714,0 0,0.506473189 0,1.1170208 L0,13.8829792 C0,14.4935268 0.498755714,15 1.1,15 L9.9,15 C10.5012443,15 11,14.4935268 11,13.8829792 L11,1.1170208 C11,0.506473189 10.5012443,0 9.9,0 L1.1,0 Z M1.1,0.957446401 L9.9,0.957446401 C9.99521286,0.957446401 10.0571429,1.02034265 10.0571429,1.1170208 L10.0571429,13.8829792 C10.0571429,13.9796494 9.99521286,14.0425536 9.9,14.0425536 L1.1,14.0425536 C1.00478714,14.0425536 0.942857143,13.9796494 0.942857143,13.8829792 L0.942857143,1.1170208 C0.942857143,1.02034265 1.00478714,0.957446401 1.1,0.957446401 Z M2.35714286,2.39361919 C2.09678857,2.39361919 1.88571429,2.60795953 1.88571429,2.87234239 C1.88571429,3.13674122 2.09678857,3.3510656 2.35714286,3.3510656 L8.64285714,3.3510656 C8.90321143,3.3510656 9.11428571,3.13674122 9.11428571,2.87234239 C9.11428571,2.60795953 8.90321143,2.39361919 8.64285714,2.39361919 L2.35714286,2.39361919 Z M2.35714286,5.26596318 C2.09678857,5.26596318 1.88571429,5.48030352 1.88571429,5.74468639 C1.88571429,6.00908521 2.09678857,6.22340959 2.35714286,6.22340959 L8.64285714,6.22340959 C8.90321143,6.22340959 9.11428571,6.00908521 9.11428571,5.74468639 C9.11428571,5.48030352 8.90321143,5.26596318 8.64285714,5.26596318 L2.35714286,5.26596318 Z M2.35714286,8.13830079 C2.09678857,8.13830079 1.88571429,8.35264113 1.88571429,8.61702399 C1.88571429,8.88142282 2.09678857,9.09574719 2.35714286,9.09574719 L8.64285714,9.09574719 C8.90321143,9.09574719 9.11428571,8.88142282 9.11428571,8.61702399 C9.11428571,8.35264113 8.90321143,8.13830079 8.64285714,8.13830079 L2.35714286,8.13830079 Z M9.24688286,9.40991727 C9.12626786,9.41741727 9.00927814,9.47398639 8.92767857,9.56449699 L7.17456143,11.4843845 L6.25625,10.7862465 C6.05988114,10.6308848 5.74118129,10.6732359 5.59078771,10.8746666 C5.44039414,11.0760974 5.486283,11.3991398 5.68660714,11.5492036 L6.94375,12.50665 C7.12753643,12.6477138 7.41493029,12.6226287 7.57232143,12.4518043 L9.61517857,10.2177627 C9.744405,10.0796829 9.78009057,9.8596458 9.701285,9.68677886 C9.62247943,9.51392787 9.43416414,9.39917792 9.24688286,9.40991727 L9.24688286,9.40991727 Z M2.35714286,11.01064 C2.09678857,11.01064 1.88571429,11.2249803 1.88571429,11.4893632 C1.88571429,11.753762 2.09678857,11.9680864 2.35714286,11.9680864 L4.71428571,11.9680864 C4.97464,11.9680864 5.18571429,11.753762 5.18571429,11.4893632 C5.18571429,11.2249803 4.97464,11.01064 4.71428571,11.01064 L2.35714286,11.01064 Z" id="Shape"></path>
            </g>
        </g>
    </g>
</svg>