<?xml version="1.0" encoding="UTF-8"?>
<svg width="96px" height="84px" viewBox="0 0 96 84" version="1.1" xmlns="http://www.w3.org/2000/svg" xmlns:xlink="http://www.w3.org/1999/xlink">
    <title>noun_help_2690317</title>
    <g id="Symbols" stroke="none" stroke-width="1" fill="none" fill-rule="evenodd" fill-opacity="0.5">
        <g id="DEPOSEZ-UN-BESOIN" transform="translate(-188.000000, -51.000000)" fill="#007BFF" fill-rule="nonzero">
            <g transform="translate(-55.000000, -447.000000)" id="noun_help_2690317">
                <g transform="translate(243.000000, 498.000000)" id="Group">
                    <path d="M89,0.3 L44.3,0.3 C40.7,0.3 37.8,3.2 37.8,6.8 L37.8,11.7 L51.6,11.7 C59.1,11.7 65.3,17.8 65.3,25.3 L65.3,52.9 C68.2,56.6 73.1,62.1 78.8,64.9 C79.2,65.1 79.7,65.2 80.2,65.2 C81,65.2 81.8,64.9 82.4,64.4 C83.4,63.5 83.7,62.1 83.1,60.9 C81.7,57.7 81.3,54.7 81.2,52.4 L89,52.4 C92.6,52.4 95.5,49.5 95.5,45.9 L95.5,6.7 C95.5,3.2 92.6,0.3 89,0.3 Z" id="Path"></path>
                    <path d="M51.7,18.8 L7,18.8 C3.4,18.8 0.5,21.7 0.5,25.3 L0.5,64.4 C0.5,68 3.4,70.9 7,70.9 L14.7,70.9 C14.6,73.2 14.2,76.2 12.8,79.4 C12.3,80.6 12.5,82 13.5,82.9 C14.1,83.5 14.9,83.8 15.7,83.8 C16.2,83.8 16.6,83.7 17.1,83.5 C23.2,80.5 28.3,74.6 31.1,70.9 L51.7,70.9 C55.3,70.9 58.2,68 58.2,64.4 L58.2,25.3 C58.2,21.7 55.3,18.8 51.7,18.8 Z M29.8,62.3 C27.8,62.3 26.2,60.7 26.2,58.7 C26.2,56.7 27.8,55.1 29.8,55.1 C31.8,55.1 33.4,56.7 33.4,58.7 C33.4,60.7 31.8,62.3 29.8,62.3 Z M38.5,43.8 C37.1,45.7 35.7,46.7 34.7,47.4 C33.5,48.2 33,48.6 32.9,50.5 C32.7,51.4 32,52 31.2,52 L28.6,52 C27.6,52 26.9,51.2 27,50.2 C27.4,45.7 29.1,44.1 31.3,42.6 C32.2,42 33,41.4 33.8,40.3 C34.6,39.2 34.7,37.6 34.1,36.3 C33.6,35.4 32.4,33.9 29.6,33.9 C25.9,33.9 24.7,36.3 24.4,38.1 C24.3,38.9 23.6,39.5 22.8,39.5 L20,39.5 C19,39.5 18.2,38.6 18.4,37.6 C19.1,32.7 22.6,28 29.5,28 C33.8,28 37.5,30.1 39.3,33.6 C40.9,37 40.6,40.9 38.5,43.8 Z" id="Shape"></path>
                </g>
            </g>
        </g>
    </g>
</svg>