<?xml version="1.0" encoding="UTF-8"?>
<svg width="100px" height="90px" viewBox="0 0 100 90" version="1.1" xmlns="http://www.w3.org/2000/svg" xmlns:xlink="http://www.w3.org/1999/xlink">
    <title>01 Fondamentaux/bloc marque/Marianne ⭥12</title>
    <g id="Symbols" stroke="none" stroke-width="1" fill="none" fill-rule="evenodd">
        <g id="02-Composants/En-tête/Thème-clair/Desktop/Simple/Base" transform="translate(-140.000000, -12.000000)">
            <g id="01-Fondamentaux/bloc-marque/Marianne-⭥12" transform="translate(140.000000, 12.000000)">
                <rect id="fond" fill="#FFFFFF" x="0" y="0" width="100" height="90"></rect>
                <g id="devises" transform="translate(12.000000, 56.000000)" fill="#000000" fill-rule="nonzero">
                    <path d="M29.7000001,18.6000001 C29.9640001,18.6000001 30.1920001,18.8040001 30.0720001,19.2720001 L28.8600001,19.5960001 C29.0520001,19.0200001 29.4120001,18.6000001 29.7000001,18.6000001 M30.3720001,20.5680001 L30.1320001,20.5680001 C29.8320001,20.9280001 29.4960001,21.2160001 29.1720001,21.2160001 C28.8360001,21.2160001 28.6680001,21.0120001 28.6680001,20.5680001 C28.6680001,20.3880001 28.6920001,20.1960001 28.7280001,20.0280001 L30.6840001,19.3800001 C31.0680001,18.4680001 30.6120001,18.0720001 30.0720001,18.0720001 C29.1480001,18.0720001 28.0920001,19.6920001 28.0920001,20.9880001 C28.0920001,21.6000001 28.3800001,21.9360001 28.8360001,21.9360001 C29.3640001,21.9240001 29.9160001,21.4080001 30.3720001,20.5680001 M30.0600001,17.6400001 L31.1760001,16.6200001 L31.1760001,16.4760001 L30.4320001,16.4760001 L29.7720001,17.6400001 L30.0600001,17.6400001 Z M25.8840001,18.6240001 L26.5320001,18.6240001 L25.5000001,21.4560001 C25.4040001,21.6960001 25.5360001,21.9360001 25.7880001,21.9360001 C26.5200001,21.9360001 27.3960001,21.3120001 27.7320001,20.4240001 L27.5520001,20.4240001 C27.2880001,20.7960001 26.7120001,21.2040001 26.2800001,21.2760001 L27.2280001,18.6240001 L28.2000001,18.6240001 L28.3200001,18.2160001 L27.3720001,18.2160001 L27.7320001,17.1960001 L27.3600001,17.1960001 L26.6880001,18.2160001 L25.8840001,18.3240001 L25.8840001,18.6240001 L25.8840001,18.6240001 Z M25.2120001,18.4920001 C25.2960001,18.2280001 25.1160001,18.0840001 24.9840001,18.0840001 C24.4200001,18.0840001 23.7480001,18.5880001 23.4720001,19.3080001 L23.6520001,19.3080001 C23.8320001,19.0440001 24.1440001,18.7560001 24.4440001,18.7080001 L23.3640001,21.5280001 C23.2680001,21.7920001 23.4600001,21.9360001 23.5920001,21.9360001 C24.1320001,21.9360001 24.7560001,21.4200001 25.0320001,20.7120001 L24.8400001,20.7120001 C24.6600001,20.9760001 24.3480001,21.2640001 24.0480001,21.3120001 L25.2120001,18.4920001 Z M25.3200001,17.3640001 C25.5600001,17.3640001 25.7640001,17.1720001 25.7640001,16.9200001 C25.7640001,16.6800001 25.5600001,16.4760001 25.3200001,16.4760001 C25.0680001,16.4760001 24.8760001,16.6800001 24.8760001,16.9200001 C24.8760001,17.1600001 25.0800001,17.3640001 25.3200001,17.3640001 M20.0760001,18.8640001 C20.2440001,18.8640001 20.3400001,19.1280001 20.0760001,19.7040001 L19.3080001,21.4080001 C19.1640001,21.7320001 19.3200001,21.9360001 19.6320001,21.9360001 C19.8240001,21.9360001 19.9080001,21.8880001 19.9920001,21.6840001 L20.7480001,19.6920001 C21.0960001,19.2720001 21.7440001,18.8160001 22.0200001,18.8160001 C22.2240001,18.8160001 22.2000001,18.9840001 22.0680001,19.2360001 L20.9160001,21.4560001 C20.8080001,21.6720001 20.9520001,21.9360001 21.2040001,21.9360001 C21.7680001,21.9360001 22.4400001,21.4320001 22.7160001,20.7120001 L22.5360001,20.7120001 C22.3560001,20.9760001 22.0440001,21.2640001 21.7440001,21.3120001 L22.7400001,19.3080001 C22.8720001,19.0560001 22.9320001,18.8160001 22.9320001,18.6240001 C22.9320001,18.3000001 22.7520001,18.0840001 22.4040001,18.0840001 C21.9120001,18.0840001 21.4920001,18.6360001 20.9040001,19.3200001 L20.9040001,18.7920001 C20.9040001,18.4200001 20.7840001,18.0840001 20.4480001,18.0840001 C20.0520001,18.0840001 19.6920001,18.6960001 19.4160001,19.3080001 L19.5960001,19.3080001 C19.7640001,19.0200001 19.9320001,18.8640001 20.0760001,18.8640001 M19.2960001,18.9360001 C19.4280001,18.4800001 19.3560001,18.0720001 19.0080001,18.0720001 C18.5640001,18.0720001 18.4320001,18.3720001 17.9880001,19.3080001 L17.9880001,18.7800001 C17.9880001,18.4080001 17.8680001,18.0720001 17.5320001,18.0720001 C17.1360001,18.0720001 16.7760001,18.6840001 16.5000001,19.2960001 L16.6800001,19.2960001 C16.8720001,19.0200001 17.0520001,18.8520001 17.1960001,18.8520001 C17.3640001,18.8520001 17.4600001,19.1160001 17.1960001,19.6920001 L16.4280001,21.3960001 C16.2840001,21.7200001 16.4400001,21.9240001 16.7520001,21.9240001 C16.9440001,21.9240001 17.0280001,21.8760001 17.1120001,21.6720001 L17.8680001,19.6800001 C18.0840001,19.4160001 18.2760001,19.1880001 18.5160001,18.9360001 L19.2960001,18.9360001 L19.2960001,18.9360001 Z M15.1320001,18.6000001 C15.3960001,18.6000001 15.6240001,18.8040001 15.5040001,19.2720001 L14.2920001,19.5960001 C14.4840001,19.0200001 14.8440001,18.6000001 15.1320001,18.6000001 M15.8040001,20.5680001 L15.5640001,20.5680001 C15.2640001,20.9280001 14.9280001,21.2160001 14.6040001,21.2160001 C14.2680001,21.2160001 14.1000001,21.0120001 14.1000001,20.5680001 C14.1000001,20.3880001 14.1240001,20.1960001 14.1600001,20.0280001 L16.1160001,19.3800001 C16.5000001,18.4680001 16.0440001,18.0720001 15.5040001,18.0720001 C14.5800001,18.0720001 13.5240001,19.6920001 13.5240001,20.9880001 C13.5240001,21.6000001 13.8120001,21.9360001 14.2680001,21.9360001 C14.7960001,21.9240001 15.3480001,21.4080001 15.8040001,20.5680001 M11.316,18.6240001 L11.964,18.6240001 L10.932,21.4560001 C10.836,21.6960001 10.968,21.9360001 11.22,21.9360001 C11.952,21.9360001 12.8280001,21.3120001 13.1640001,20.4240001 L12.9840001,20.4240001 C12.7200001,20.7960001 12.144,21.2040001 11.712,21.2760001 L12.6600001,18.6240001 L13.6320001,18.6240001 L13.7520001,18.2160001 L12.8040001,18.2160001 L13.1640001,17.1960001 L12.7920001,17.1960001 L12.12,18.2160001 L11.316,18.3240001 L11.316,18.6240001 L11.316,18.6240001 Z M7.88400003,20.8200001 C7.88400003,19.9440001 8.85600004,18.7680001 9.39600004,18.7680001 C9.51600004,18.7680001 9.63600004,18.7800001 9.73200004,18.8160001 L9.16800004,20.3280001 C8.84400004,20.7240001 8.34000003,21.2040001 8.10000003,21.2040001 C7.96800003,21.2040001 7.88400003,21.0840001 7.88400003,20.8200001 M10.86,17.9160001 L10.56,17.8920001 L10.224,18.2280001 L10.164,18.2280001 C8.73600003,18.2280001 7.21200003,20.0040001 7.21200003,21.3960001 C7.21200003,21.7200001 7.39200003,21.9360001 7.74000003,21.9360001 C8.16000003,21.9360001 8.56800003,21.3360001 9.02400004,20.7000001 L9.00000004,20.9280001 C8.94000004,21.5760001 9.14400004,21.9360001 9.48000004,21.9360001 C9.87600004,21.9360001 10.236,21.3240001 10.512,20.7120001 L10.332,20.7120001 C10.14,20.9880001 9.96000004,21.1560001 9.81600004,21.1560001 C9.67200004,21.1560001 9.56400004,20.8920001 9.81600004,20.3160001 L10.86,17.9160001 Z M7.81200003,18.9360001 C7.94400003,18.4800001 7.87200003,18.0720001 7.52400003,18.0720001 C7.08000003,18.0720001 6.94800003,18.3720001 6.50400003,19.3080001 L6.50400003,18.7800001 C6.50400003,18.4080001 6.38400003,18.0720001 6.04800002,18.0720001 C5.65200002,18.0720001 5.29200002,18.6840001 5.01600002,19.2960001 L5.19600002,19.2960001 C5.38800002,19.0200001 5.56800002,18.8520001 5.70000002,18.8520001 C5.86800002,18.8520001 5.96400002,19.1160001 5.70000002,19.6920001 L4.93200002,21.4080001 C4.78800002,21.7320001 4.94400002,21.9360001 5.25600002,21.9360001 C5.44800002,21.9360001 5.53200002,21.8880001 5.61600002,21.6840001 L6.37200003,19.6920001 C6.58800003,19.4280001 6.78000003,19.2000001 7.02000003,18.9480001 L7.81200003,18.9480001 L7.81200003,18.9360001 Z M2.79600001,21.7920001 L2.86800001,21.5760001 C1.92000001,21.3960001 1.80000001,21.3960001 2.18400001,20.3760001 L2.53200001,19.4160001 L3.28800001,19.4160001 C3.75600002,19.4160001 3.75600002,19.6200001 3.69600001,20.1360001 L3.96000002,20.1360001 L4.58400002,18.4320001 L4.32000002,18.4320001 C4.09200002,18.8400001 3.90000002,19.1520001 3.39600001,19.1520001 L2.64000001,19.1520001 L3.15600001,17.7480001 C3.33600001,17.2440001 3.42000001,17.1480001 4.06800002,17.1480001 L4.23600002,17.1480001 C4.89600002,17.1480001 4.96800002,17.3280001 4.96800002,18.0240001 L5.23200002,18.0240001 L5.44800002,16.8600001 L1.81200001,16.8600001 L1.74000001,17.0760001 C2.49600001,17.2320001 2.56800001,17.3040001 2.22000001,18.2760001 L1.44000001,20.3640001 C1.08,21.3360001 0.936000004,21.4080001 0.0720000003,21.5640001 L-3.55271368e-14,21.7920001 L2.79600001,21.7920001 Z" id="Shape"></path>
                    <path d="M20.8800001,10.368 C21.1440001,10.368 21.3720001,10.572 21.2520001,11.028 L20.0400001,11.352 C20.2440001,10.788 20.6040001,10.368 20.8800001,10.368 M21.5520001,12.324 L21.3120001,12.324 C21.0120001,12.6840001 20.6760001,12.9720001 20.3520001,12.9720001 C20.0160001,12.9720001 19.8480001,12.7680001 19.8480001,12.324 C19.8480001,12.144 19.8720001,11.952 19.9080001,11.784 L21.8760001,11.136 C22.2600001,10.224 21.7920001,9.82800004 21.2640001,9.82800004 C20.3400001,9.82800004 19.2840001,11.448 19.2840001,12.7440001 C19.2840001,13.3560001 19.5720001,13.6920001 20.0280001,13.6920001 C20.5560001,13.6920001 21.1080001,13.1760001 21.5520001,12.324 M21.2400001,9.40800004 L22.3560001,8.38800003 L22.3560001,8.24400003 L21.6120001,8.24400003 L20.9520001,9.40800004 L21.2400001,9.40800004 Z M17.0760001,10.392 L17.7240001,10.392 L16.6920001,13.2240001 C16.5960001,13.464 16.7280001,13.7040001 16.9800001,13.7040001 C17.7120001,13.7040001 18.5880001,13.0800001 18.9240001,12.192 L18.7440001,12.192 C18.4800001,12.5640001 17.9040001,12.9720001 17.4720001,13.0440001 L18.4200001,10.392 L19.3920001,10.392 L19.5120001,9.98400004 L18.5640001,9.98400004 L18.9240001,8.96400004 L18.5520001,8.96400004 L17.8800001,9.98400004 L17.0760001,10.092 L17.0760001,10.392 L17.0760001,10.392 Z M16.4040001,10.248 C16.4760001,9.98400004 16.3080001,9.84000004 16.1640001,9.84000004 C15.6000001,9.84000004 14.9280001,10.356 14.6520001,11.064 L14.8320001,11.064 C15.0120001,10.8 15.3240001,10.512 15.6240001,10.464 L14.5440001,13.2840001 C14.4480001,13.5480001 14.6400001,13.6920001 14.7720001,13.6920001 C15.3120001,13.6920001 15.9360001,13.1760001 16.2120001,12.468 L16.0320001,12.468 C15.8520001,12.7320001 15.5400001,13.0200001 15.2400001,13.0680001 L16.4040001,10.248 Z M16.5120001,9.13200004 C16.7520001,9.13200004 16.9560001,8.92800004 16.9560001,8.68800003 C16.9560001,8.44800003 16.7520001,8.24400003 16.5120001,8.24400003 C16.2600001,8.24400003 16.0680001,8.44800003 16.0680001,8.68800003 C16.0680001,8.92800004 16.2720001,9.13200004 16.5120001,9.13200004 M13.0440001,13.0680001 L14.8320001,8.31600003 L14.7720001,8.24400003 L13.5360001,8.38800003 L13.5360001,8.53200003 L13.7760001,8.71200003 C13.9920001,8.88000004 13.9200001,9.03600004 13.7280001,9.56400004 L12.36,13.2120001 C12.252,13.4280001 12.396,13.6920001 12.6480001,13.6920001 C13.2120001,13.6920001 13.8120001,13.1760001 14.0880001,12.468 L13.9080001,12.468 C13.7160001,12.7320001 13.3320001,13.0200001 13.0440001,13.0680001 M9.38400004,12.5880001 C9.38400004,11.712 10.356,10.536 10.896,10.536 C11.016,10.536 11.124,10.548 11.232,10.584 L10.668,12.096 C10.344,12.492 9.84000004,12.9720001 9.61200004,12.9720001 C9.46800004,12.9720001 9.38400004,12.8520001 9.38400004,12.5880001 M12.36,9.68400004 L12.06,9.66000004 L11.724,9.99600004 L11.664,9.99600004 C10.236,9.99600004 8.71200003,11.772 8.71200003,13.1640001 C8.71200003,13.4880001 8.89200004,13.7040001 9.24000004,13.7040001 C9.66000004,13.7040001 10.068,13.1040001 10.524,12.468 L10.5,12.6960001 C10.44,13.3440001 10.644,13.7040001 10.98,13.7040001 C11.376,13.7040001 11.736,13.0920001 12.012,12.48 L11.832,12.48 C11.64,12.7560001 11.46,12.9240001 11.316,12.9240001 C11.172,12.9240001 11.064,12.66 11.316,12.084 L12.36,9.68400004 Z M5.43600002,14.3880001 C5.43600002,14.0160001 5.79600002,13.7760001 6.31200003,13.5720001 C6.48000003,13.6560001 6.73200003,13.7520001 7.08000003,13.8600001 C7.62000003,14.0400001 7.82400003,14.1120001 7.82400003,14.2680001 C7.82400003,14.6160001 7.33200003,14.8800001 6.43200003,14.8800001 C5.76000002,14.8800001 5.43600002,14.7360001 5.43600002,14.3880001 M6.91200003,12.096 C6.67200003,12.096 6.58800003,11.892 6.58800003,11.676 C6.58800003,10.98 6.92400003,10.116 7.46400003,10.116 C7.70400003,10.116 7.78800003,10.32 7.78800003,10.536 C7.77600003,11.244 7.44000003,12.096 6.91200003,12.096 M8.43600003,14.0400001 C8.43600003,13.5840001 8.02800003,13.4280001 7.36800003,13.2240001 C6.80400003,13.0560001 6.55200003,13.0080001 6.55200003,12.8160001 C6.55200003,12.6720001 6.67200003,12.492 6.91200003,12.36 C7.84800003,12.312 8.43600003,11.472 8.43600003,10.74 C8.43600003,10.608 8.41200003,10.488 8.37600003,10.38 L9.01200004,10.38 L9.13200004,9.97200004 L8.05200003,9.97200004 C7.90800003,9.87600004 7.72800003,9.82800004 7.52400003,9.82800004 C6.54000003,9.82800004 5.91600002,10.692 5.91600002,11.448 C5.91600002,11.94 6.20400002,12.276 6.64800003,12.336 C6.19200002,12.5520001 5.92800002,12.7800001 5.92800002,13.0680001 C5.92800002,13.2360001 5.98800002,13.3560001 6.13200002,13.4520001 C5.07600002,13.7640001 4.64400002,14.1480001 4.64400002,14.6160001 C4.64400002,15.1080001 5.29200002,15.3120001 6.04800002,15.3120001 C7.35600003,15.3240001 8.43600003,14.6280001 8.43600003,14.0400001 M3.56400001,11.172 C4.03200002,11.172 4.04400002,11.376 3.97200002,11.892 L4.23600002,11.892 L4.86000002,10.188 L4.59600002,10.188 C4.36800002,10.596 4.17600002,10.908 3.67200001,10.908 L2.64000001,10.908 L3.14400001,9.50400004 C3.32400001,9.00000004 3.40800001,8.90400004 4.05600002,8.90400004 L4.51200002,8.90400004 C5.17200002,8.90400004 5.24400002,9.08400004 5.24400002,9.78000004 L5.50800002,9.78000004 L5.72400002,8.61600003 L1.81200001,8.61600003 L1.74000001,8.83200004 C2.49600001,8.98800004 2.56800001,9.06000004 2.22000001,10.032 L1.44000001,12.132 C1.08,13.1040001 0.936000004,13.1760001 0.0600000002,13.3320001 L5.32907052e-15,13.5600001 L4.34400002,13.5600001 L5.12400002,12.324 L4.82400002,12.324 C4.32000002,12.8160001 3.81600002,13.2720001 2.83200001,13.2720001 C1.68000001,13.2720001 1.77600001,13.2120001 2.16000001,12.144 L2.52000001,11.184 L3.56400001,11.184 L3.56400001,11.172 Z M4.12800002,8.24400003 L5.24400002,7.44000003 L5.24400002,7.29600003 L4.50000002,7.29600003 L3.84000002,8.25600003 L4.12800002,8.25600003 L4.12800002,8.24400003 Z" id="Shape"></path>
                    <path d="M20.7480001,2.13600001 C21.0120001,2.13600001 21.2400001,2.34000001 21.1200001,2.79600001 L19.9080001,3.12000001 C20.1000001,2.55600001 20.4600001,2.13600001 20.7480001,2.13600001 M21.4200001,4.09200002 L21.1800001,4.09200002 C20.8800001,4.45200002 20.5440001,4.74000002 20.2200001,4.74000002 C19.8840001,4.74000002 19.7160001,4.53600002 19.7160001,4.09200002 C19.7160001,3.91200002 19.7400001,3.72000001 19.7760001,3.55200001 L21.7320001,2.90400001 C22.1160001,1.99200001 21.6480001,1.59600001 21.1200001,1.59600001 C20.1960001,1.59600001 19.1400001,3.21600001 19.1400001,4.51200002 C19.1400001,5.12400002 19.4280001,5.44800002 19.8840001,5.44800002 C20.4120001,5.46000002 20.9640001,4.94400002 21.4200001,4.09200002 M21.1080001,1.176 L22.2240001,0.156000001 L22.2240001,0.012 L21.4800001,0.012 L20.8200001,1.176 L21.1080001,1.176 Z M16.9320001,2.16000001 L17.5800001,2.16000001 L16.5480001,4.99200002 C16.4520001,5.232 16.5840001,5.47200002 16.8360001,5.47200002 C17.5680001,5.47200002 18.4440001,4.84800002 18.7800001,3.96000002 L18.6000001,3.96000002 C18.3360001,4.33200002 17.7600001,4.74000002 17.3280001,4.81200002 L18.2760001,2.16000001 L19.2480001,2.16000001 L19.3680001,1.75200001 L18.4200001,1.75200001 L18.7800001,0.732000003 L18.4080001,0.732000003 L17.7360001,1.75200001 L16.9320001,1.86000001 L16.9320001,2.16000001 L16.9320001,2.16000001 Z M16.5960001,2.47200001 C16.7280001,2.01600001 16.6560001,1.60800001 16.3080001,1.60800001 C15.8640001,1.60800001 15.7320001,1.90800001 15.2880001,2.84400001 L15.2880001,2.31600001 C15.2880001,1.94400001 15.1680001,1.60800001 14.8320001,1.60800001 C14.4360001,1.60800001 14.0760001,2.22000001 13.8000001,2.83200001 L13.9800001,2.83200001 C14.1720001,2.55600001 14.3520001,2.38800001 14.4840001,2.38800001 C14.6520001,2.38800001 14.7480001,2.65200001 14.4840001,3.22800001 L13.7160001,4.93200002 C13.5720001,5.25600002 13.7280001,5.46000002 14.0400001,5.46000002 C14.2320001,5.46000002 14.3160001,5.41200002 14.4000001,5.20800002 L15.1560001,3.21600001 C15.3720001,2.95200001 15.5640001,2.72400001 15.8040001,2.47200001 L16.5960001,2.47200001 Z M12.42,2.13600001 C12.6840001,2.13600001 12.9120001,2.34000001 12.7920001,2.79600001 L11.58,3.12000001 C11.784,2.55600001 12.132,2.13600001 12.42,2.13600001 M13.0920001,4.09200002 L12.8520001,4.09200002 C12.5520001,4.45200002 12.216,4.74000002 11.892,4.74000002 C11.556,4.74000002 11.388,4.53600002 11.388,4.09200002 C11.388,3.91200002 11.412,3.72000001 11.448,3.55200001 L13.4040001,2.90400001 C13.7880001,1.99200001 13.3320001,1.59600001 12.7920001,1.59600001 C11.868,1.59600001 10.812,3.21600001 10.812,4.51200002 C10.812,5.12400002 11.1,5.44800002 11.556,5.44800002 C12.084,5.46000002 12.6360001,4.94400002 13.0920001,4.09200002 M8.52000003,4.88400002 C8.32800003,4.88400002 8.05200003,4.70400002 8.05200003,4.54800002 C8.05200003,4.50000002 8.13600003,4.28400002 8.24400003,4.00800002 L8.55600003,3.16800001 C8.89200004,2.76000001 9.42000004,2.32800001 9.70800004,2.32800001 C9.88800004,2.32800001 10.02,2.43600001 10.02,2.70000001 C10.032,3.48000001 9.30000004,4.88400002 8.52000003,4.88400002 M10.704,2.40000001 C10.704,1.82400001 10.56,1.60800001 10.152,1.60800001 C9.64800004,1.60800001 9.18000004,2.14800001 8.71200003,2.79600001 L9.72000004,0.0960000004 L9.66000004,0.012 L8.42400003,0.156000001 L8.42400003,0.300000001 L8.66400003,0.480000002 C8.88000004,0.648000003 8.80800004,0.816000003 8.61600003,1.33200001 L7.52400003,4.18800002 C7.42800003,4.42800002 7.32000003,4.71600002 7.32000003,4.78800002 C7.32000003,5.12400002 7.77600003,5.44800002 8.19600003,5.44800002 C9.13200004,5.46000002 10.704,3.73200001 10.704,2.40000001 M7.03200003,2.01600001 C7.10400003,1.75200001 6.93600003,1.60800001 6.79200003,1.60800001 C6.22800002,1.60800001 5.55600002,2.12400001 5.28000002,2.83200001 L5.46000002,2.83200001 C5.64000002,2.56800001 5.95200002,2.28000001 6.25200003,2.23200001 L5.17200002,5.05200002 C5.07600002,5.31600002 5.26800002,5.46000002 5.41200002,5.46000002 C5.95200002,5.46000002 6.57600003,4.94400002 6.85200003,4.23600002 L6.67200003,4.23600002 C6.49200003,4.50000002 6.18000002,4.78800002 5.88000002,4.83600002 L7.03200003,2.01600001 Z M7.15200003,0.888000004 C7.39200003,0.888000004 7.59600003,0.684000003 7.59600003,0.444000002 C7.59600003,0.204000001 7.39200003,-3.55271368e-15 7.15200003,-3.55271368e-15 C6.90000003,-3.55271368e-15 6.70800003,0.204000001 6.70800003,0.444000002 C6.70800003,0.696000003 6.90000003,0.888000004 7.15200003,0.888000004 M4.39200002,0.360000001 L1.81200001,0.360000001 L1.74000001,0.576000002 C2.49600001,0.732000003 2.56800001,0.804000003 2.22000001,1.77600001 L1.44000001,3.90000002 C1.08,4.87200002 0.936000004,4.94400002 0.0720000003,5.10000002 L-5.32907052e-15,5.31600002 L3.92400002,5.31600002 L4.77600002,3.80400002 L4.47600002,3.80400002 C3.98400002,4.34400002 3.43200001,5.02800002 2.55600001,5.02800002 C1.89600001,5.02800002 1.80000001,4.90800002 2.17200001,3.90000002 L2.94000001,1.78800001 C3.30000001,0.816000003 3.44400001,0.744000003 4.32000002,0.588000002 L4.39200002,0.360000001 Z" id="Shape"></path>
                </g>
                <text id="Intitulé-officiel" font-family="Marianne-Bold, Marianne" font-size="12" font-weight="bold" line-spacing="12" letter-spacing="0.0550005" fill="#1E1E1E">
                    <tspan x="12" y="42">MINISTÈRE </tspan>
                    <tspan x="12" y="54">DU TRAVAIL</tspan>
                </text>
                <g id="⭥12" transform="translate(12.000000, 12.000000)">
                    <rect id="Rectangle" fill="#FFFFFF" x="0" y="0" width="33" height="12"></rect>
                    <path d="M13.6897527,10.5891384 C13.8180212,10.4605253 13.9462898,10.3241173 14.0745583,10.183812 L14.0706714,10.183812 C14.3116608,9.91099619 14.5448763,9.64987245 14.824735,9.41213293 C14.9102473,9.33418554 14.9918728,9.26793026 15.0696113,9.21336709 C15.0929329,9.18998288 15.0929329,9.14321445 15.1162544,9.1237276 C15.0035336,9.16659866 14.9374558,9.26013553 14.8208481,9.30300659 C14.7975265,9.30300659 14.7742049,9.27962237 14.7975265,9.25623816 C14.8791519,9.19777762 14.9607774,9.13541971 15.0385159,9.0730618 C15.034629,9.0730618 15.0268551,9.0730618 15.0229682,9.0730618 C14.9996466,9.0730618 14.9996466,9.04967758 14.9996466,9.02629337 C14.7042403,8.97952494 14.4787986,9.18608551 14.2766784,9.3653645 C14.2300353,9.38874871 14.1872792,9.34198028 14.1639576,9.34198028 C13.8257951,9.45500399 13.5770318,9.75120405 13.2388693,9.88371461 L13.2388693,9.83694618 C13.1028269,9.88371461 12.9706714,9.96555936 12.830742,9.99673832 C12.6286219,10.0435067 12.4459364,10.0201225 12.2671378,10.0201225 C11.9911661,10.0474041 11.7190813,10.109762 11.4469965,10.1682226 C11.4392226,10.1721199 11.4314488,10.1721199 11.4236749,10.1760173 C11.2759717,10.214991 11.1399293,10.2695542 11.0038869,10.3475016 L10.9883392,10.3552963 C10.9766784,10.3708858 10.9650177,10.3825779 10.9572438,10.39427 C10.9106007,10.4488332 10.8678445,10.4956016 10.8017668,10.5306779 C10.6618375,10.6008306 10.5491166,10.7255464 10.4286219,10.8229806 C10.4208481,10.8307753 10.4053004,10.8346727 10.3936396,10.8346727 C10.2731449,10.9515938 10.1526502,11.0685149 10.0282686,11.1815386 C10.0204947,11.1893333 9.98551237,11.1932307 9.95830389,11.1893333 C9.95830389,11.1893333 9.96219081,11.1893333 9.96219081,11.1854359 C9.96607774,11.1776412 9.96996466,11.1698465 9.97385159,11.1620517 C9.99328622,11.1308728 10.0127208,11.0996938 10.0321555,11.0685149 C10.055477,11.0334385 10.0749117,10.9983622 10.0982332,10.9632859 C10.1293286,10.9165175 10.160424,10.869749 10.1954064,10.826878 C10.2031802,10.8151859 10.2031802,10.8034938 10.1954064,10.795699 C10.1876325,10.7879043 10.1759717,10.7840069 10.164311,10.7840069 C10.2770318,10.6748806 10.4091873,10.5813437 10.5452297,10.499499 L10.5452297,10.4956016 C10.529682,10.499499 10.5063604,10.4878068 10.5180212,10.4722174 C10.5335689,10.4527305 10.5452297,10.4293463 10.5568905,10.4098595 C10.5607774,10.4020647 10.5607774,10.3981674 10.5646643,10.3903726 C10.5607774,10.3825779 10.5530035,10.3786805 10.5491166,10.3708858 C10.5141343,10.39427 10.475265,10.4176542 10.4441696,10.4449358 C10.3897527,10.4917042 10.3469965,10.5930358 10.265371,10.5930358 C10.2614841,10.5930358 10.2420495,10.5930358 10.2303887,10.5891384 C10.2187279,10.5891384 10.2109541,10.5852411 10.2070671,10.5813437 C10.2070671,10.5774463 10.2070671,10.5774463 10.2109541,10.5774463 C10.2109541,10.5774463 10.214841,10.573549 10.214841,10.5696516 C10.214841,10.5696516 10.214841,10.5657542 10.2187279,10.5657542 C10.2226148,10.5579595 10.2265018,10.5540621 10.2303887,10.5462674 C10.2342756,10.5384726 10.2381625,10.5345753 10.2420495,10.5267805 C10.2459364,10.5228832 10.2459364,10.5150884 10.2498233,10.5111911 C10.2537102,10.5033963 10.2614841,10.4917042 10.265371,10.4800121 C10.269258,10.4722174 10.2731449,10.46832 10.2770318,10.4605253 C10.2886926,10.4449358 10.2964664,10.4254489 10.3081272,10.4098595 C10.3120141,10.4020647 10.3159011,10.39427 10.3236749,10.3864752 C10.3314488,10.3708858 10.3392226,10.3591937 10.3469965,10.3436042 C10.3586572,10.3241173 10.3469965,10.3085279 10.3314488,10.3046305 C10.3742049,10.2500673 10.424735,10.2032989 10.4869258,10.1682226 L10.4791519,10.1682226 C10.5646643,10.1253515 10.6540636,10.0707883 10.739576,10.0240199 C10.7512367,10.0123278 10.7628975,10.0006357 10.7784452,9.99284095 C10.6501767,10.035712 10.5335689,10.0941726 10.4208481,10.1721199 C10.4208481,10.1721199 10.3897527,10.183812 10.3819788,10.1916068 C10.3819788,10.1916068 10.3586572,10.1994015 10.3275618,10.1721199 C10.3236749,10.1682226 10.3236749,10.1643252 10.3236749,10.1565305 C10.3469965,10.109762 10.4130742,10.0902752 10.4597173,10.0435067 C10.4830389,10.0435067 10.5024735,10.0435067 10.5024735,10.066891 C11.2254417,9.50177242 12.2204947,9.63818034 13.0561837,9.34198028 C13.1222615,9.29521185 13.1922261,9.25234079 13.2583039,9.20557236 C13.3710247,9.15880392 13.460424,9.04578021 13.5964664,8.97952494 C13.775265,8.84311701 13.9113074,8.68722224 13.9812721,8.45727745 C13.9812721,8.43389324 13.9579505,8.41050902 13.9579505,8.41050902 C13.6625442,8.72619593 13.3243816,8.97562757 12.9628975,9.15880392 C12.4886926,9.40823556 11.9678445,9.3653645 11.4742049,9.43161977 C11.4975265,9.38485134 11.5441696,9.38485134 11.5869258,9.38485134 C11.5869258,9.31469869 11.629682,9.29521185 11.6763251,9.24844342 L11.7424028,9.24844342 C11.7657244,9.24844342 11.7657244,9.20167499 11.7890459,9.20167499 C11.835689,9.20167499 11.9017668,9.17829077 11.8784452,9.17829077 C11.8084806,9.08865128 11.6763251,9.24454605 11.5636042,9.17829077 C11.6063604,9.13152234 11.5869258,9.06526706 11.629682,9.04188285 L11.7190813,9.04188285 C11.7190813,8.99511441 11.7657244,8.95224335 11.7657244,8.95224335 C12.1038869,8.74958015 12.4226148,8.58978801 12.7374558,8.41050902 C12.6713781,8.41050902 12.624735,8.48066167 12.5586572,8.43389324 C12.6053004,8.43389324 12.5586572,8.36763796 12.6053004,8.36763796 C12.8540636,8.30138268 13.0561837,8.16497476 13.304947,8.0714379 C13.2155477,8.0714379 13.145583,8.14159054 13.0561837,8.0714379 C13.1028269,8.04805368 13.1222615,8.00518262 13.1922261,8.00518262 L13.1922261,7.93892734 C13.1922261,7.91554312 13.2155477,7.91554312 13.2388693,7.91554312 C13.2155477,7.91554312 13.1922261,7.89215891 13.1922261,7.89215891 C13.2155477,7.84539048 13.2816254,7.86877469 13.3282686,7.82590363 C13.304947,7.82590363 13.2621908,7.82590363 13.2621908,7.80251942 C13.3282686,7.71287992 13.4409894,7.68949571 13.5537102,7.66611149 C13.5303887,7.61934306 13.464311,7.66611149 13.464311,7.61934306 C13.464311,7.59595884 13.4876325,7.59595884 13.5109541,7.59595884 L13.464311,7.59595884 C13.4176678,7.57257463 13.4409894,7.5258062 13.4409894,7.50631935 C13.5770318,7.34652721 13.5770318,7.14386401 13.6431095,6.96458502 C13.619788,6.96458502 13.5964664,6.96458502 13.5964664,6.94120081 C13.3710247,7.19063244 13.0095406,7.28027193 12.6713781,7.36991143 L12.5586572,7.36991143 C12.4459364,7.41667986 12.2865724,7.41667986 12.1738516,7.34652721 C12.0844523,7.29975878 12.0378092,7.2335035 11.9484099,7.16724822 C11.7657244,7.05422451 11.5869258,6.96458502 11.3848057,6.89443237 C10.8212014,6.71515339 10.2342756,6.62161653 9.64734982,6.64500074 C9.89611307,6.50859282 10.1681979,6.49690071 10.4363958,6.41895332 C10.8212014,6.30592961 11.1826855,6.16952169 11.5869258,6.19290591 C11.5208481,6.16952169 11.4275618,6.19290591 11.3614841,6.19290591 C11.0466431,6.16952169 10.7279152,6.25916118 10.3897527,6.32931383 C10.164311,6.37608226 9.96219081,6.46572175 9.73286219,6.50859282 C9.59681979,6.55536125 9.53074205,6.6878718 9.37137809,6.66838496 L9.37137809,6.59823231 C9.59681979,6.32541646 9.86890459,6.05649798 10.2303887,6.03311376 C10.6385159,5.96685849 11.0194346,6.03311376 11.4275618,6.0798822 C11.7190813,6.10326641 11.9911661,6.16952169 12.2865724,6.23967434 C12.3992933,6.23967434 12.4226148,6.41895332 12.5120141,6.44233754 C12.6480565,6.48910597 12.7840989,6.44233754 12.9201413,6.53197703 C12.9201413,6.4852086 12.8968198,6.44233754 12.9201413,6.39556911 C13.0095406,6.30592961 13.1222615,6.41895332 13.2116608,6.37218489 C13.3943463,6.25916118 13.0522968,6.05649798 12.9628975,5.89670584 C12.9628975,5.87332162 12.9862191,5.84993741 12.9862191,5.84993741 C13.1650177,6.00972955 13.3010601,6.18900854 13.5265018,6.30203224 C13.6392226,6.34880068 13.9113074,6.41505595 13.8646643,6.27864803 C13.7519435,6.0292164 13.5265018,5.82655319 13.3438163,5.60050578 L13.3438163,5.51086628 C13.2971731,5.51086628 13.2971731,5.48748207 13.2777385,5.46409785 L13.2777385,5.37445836 C13.1883392,5.32768993 13.2077739,5.23805043 13.1650177,5.17179515 C13.095053,5.05877145 13.1416961,4.89897931 13.095053,4.76257138 C13.0484099,4.62616346 13.0289753,4.51313975 13.0056537,4.37673182 C12.935689,3.99089226 12.8462898,3.65182114 12.8035336,3.28936579 C12.7568905,2.86065517 13.0522968,2.51768668 13.254417,2.13574449 C13.4137809,1.86292864 13.5925795,1.59401016 13.8879859,1.4108338 C13.9540636,1.13801795 14.1367491,0.911970536 14.3155477,0.685923118 C14.4943463,0.46377307 14.7975265,0.331262514 15.0113074,0.233828282 C15.3261484,0.0935229885 15.609894,0.00388349515 15.6137809,0.00388349515 L0,0.00388349515 L0,12.0038835 L11.0777385,12.0038835 C11.5091873,11.692094 11.9367491,11.5478913 12.5392226,11.2477939 C12.8190813,11.1074886 13.4681979,10.8073911 13.6897527,10.5891384 M10.214841,8.96783283 C10.1681979,8.96783283 10.0787986,8.99121704 10.1021201,8.94444861 C10.1254417,8.8314249 10.2809187,8.8314249 10.3742049,8.78465647 C10.4208481,8.76127226 10.4869258,8.7184012 10.5335689,8.73788804 C10.580212,8.80414332 10.6462898,8.78465647 10.6929329,8.82752754 C10.5530035,8.96783283 10.3742049,8.89768018 10.214841,8.96783283 M6.75936396,8.46896956 C6.75936396,8.46896956 6.7360424,8.44558535 6.7360424,8.42220113 C7.03144876,8.03636157 7.25689046,7.67390623 7.4590106,7.26857983 C7.75441696,7.10878768 7.99540636,6.8788429 8.22862191,6.63330863 C8.61342756,6.22408486 9.01766784,5.86162952 9.49187279,5.6355821 C9.67067138,5.56542945 9.9,5.58881367 10.0787986,5.65896631 C10.0127208,5.74860581 9.9,5.72522159 9.80671378,5.79537424 C9.78339223,5.79537424 9.76007067,5.79537424 9.73674912,5.77199002 C9.76007067,5.74860581 9.76007067,5.72522159 9.76007067,5.70183738 C9.53462898,5.95126901 9.21978799,6.06429272 9.03710247,6.36049278 C8.90106007,6.5865402 8.81166078,6.88274027 8.52014134,6.94899554 C8.43074205,6.97237976 8.5434629,6.88274027 8.49681979,6.90222711 C7.79717314,7.3348351 7.30353357,7.85708259 6.75936396,8.46896956 M8.63286219,6.97237976 C8.60954064,7.01914819 8.58621908,7.02304556 8.56678445,7.06201925 C8.5434629,7.10878768 8.52014134,7.12827453 8.47738516,7.15165875 C8.4540636,7.15165875 8.43074205,7.15165875 8.43074205,7.12827453 C8.4540636,7.03863504 8.52014134,6.94899554 8.60954064,6.92561133 C8.63286219,6.9295087 8.63286219,6.95289291 8.63286219,6.97237976 M9.68233216,10.3669884 C9.67067138,10.3903726 9.64734982,10.4137568 9.62791519,10.4332437 C9.65512367,10.437141 9.6745583,10.4527305 9.6590106,10.46832 C9.60848057,10.5150884 9.55795053,10.5657542 9.48798587,10.5891384 C9.48409894,10.5891384 9.46855124,10.5930358 9.45300353,10.5930358 C9.42579505,10.6203174 9.39858657,10.647599 9.36749117,10.6709832 C9.34028269,10.6943674 9.21590106,10.6787779 9.25477032,10.6437016 C9.3130742,10.5930358 9.36749117,10.5384726 9.42190813,10.4839095 C9.45300353,10.4527305 9.48798587,10.4254489 9.51519435,10.39427 C9.53074205,10.3747831 9.54240283,10.3591937 9.56183746,10.3436042 C9.58127208,10.3319121 9.70176678,10.32022 9.68233216,10.3669884 M9.27809187,10.1799147 C9.27420495,10.1799147 9.27420495,10.1799147 9.27420495,10.183812 C9.18869258,10.2422726 9.10706714,10.3046305 9.01766784,10.3552963 C8.9204947,10.4098595 8.81943463,10.4527305 8.71837456,10.5033963 C8.71837456,10.5033963 8.71837456,10.499499 8.71448763,10.499499 C8.70671378,10.4878068 8.69116608,10.4839095 8.67561837,10.4917042 C8.59010601,10.5384726 8.51625442,10.6008306 8.45017668,10.6670858 C8.4385159,10.6748806 8.42685512,10.6865727 8.41908127,10.6982648 L8.41908127,10.6982648 C8.41908127,10.6982648 8.41908127,10.6982648 8.41908127,10.6982648 L8.38798587,10.7294437 C8.38798587,10.7294437 8.38409894,10.7333411 8.38409894,10.7333411 C8.38409894,10.7333411 8.38409894,10.7333411 8.38409894,10.7372385 C8.36855124,10.752828 8.35300353,10.7684174 8.3335689,10.7918017 C8.32190813,10.8034938 8.3180212,10.8151859 8.3024735,10.8229806 C8.2869258,10.8307753 8.24805654,10.8307753 8.25194346,10.8073911 C8.25194346,10.8073911 8.25194346,10.8034938 8.25194346,10.8034938 C8.24028269,10.8112885 8.22473498,10.8190832 8.2130742,10.8229806 C8.20141343,10.8307753 8.18975265,10.8346727 8.17809187,10.8424675 C8.17420495,10.8385701 8.1664311,10.8385701 8.16254417,10.8385701 C8.15865724,10.8385701 8.15088339,10.8385701 8.14699647,10.8424675 C8.11978799,10.8658517 8.09257951,10.8853385 8.06537102,10.9126201 C8.01872792,10.9554912 7.97597173,11.0022596 7.93321555,11.0529254 C7.93321555,11.0529254 7.93321555,11.0568228 7.92932862,11.0568228 C7.92932862,11.0607201 7.9254417,11.0607201 7.9254417,11.0646175 C7.92155477,11.0685149 7.92155477,11.0685149 7.91766784,11.0724122 C7.91378092,11.0763096 7.91378092,11.080207 7.90989399,11.080207 C7.90989399,11.080207 7.90989399,11.080207 7.90600707,11.0841043 C7.90212014,11.0918991 7.89823322,11.0996938 7.89045936,11.1074886 C7.89045936,11.1074886 7.89045936,11.1074886 7.89045936,11.1074886 C7.88657244,11.1113859 7.87879859,11.1152833 7.87102473,11.1152833 C7.86713781,11.1113859 7.86325088,11.1074886 7.86325088,11.1035912 C7.85936396,11.0996938 7.85936396,11.0957965 7.85547703,11.0918991 C7.84770318,11.080207 7.84381625,11.0685149 7.8360424,11.0568228 C7.8360424,11.0568228 7.8360424,11.0568228 7.8360424,11.0529254 C7.8360424,11.049028 7.83215548,11.0451307 7.83215548,11.0412333 C7.85547703,11.0139517 7.87879859,10.9866701 7.90212014,10.9593885 C7.90212014,10.9593885 7.90600707,10.9554912 7.90600707,10.9554912 C7.91378092,10.9476964 7.92155477,10.9360043 7.92932862,10.9282096 C7.9409894,10.9126201 7.9565371,10.8970306 7.96819788,10.8814411 C7.97208481,10.8736464 7.97597173,10.869749 7.97985866,10.8619543 C8.00318021,10.8307753 8.02650177,10.7995964 8.04982332,10.7645201 C8.04982332,10.7645201 8.04982332,10.7645201 8.04982332,10.7606227 C8.05371025,10.7567253 8.05759717,10.752828 8.05759717,10.7450332 C8.06925795,10.7294437 8.08091873,10.7138543 8.08869258,10.6982648 C8.09646643,10.6826753 8.10424028,10.6670858 8.11201413,10.6514964 L8.11201413,10.647599 L8.11590106,10.6437016 C8.11590106,10.6398042 8.11978799,10.6398042 8.11978799,10.6359069 C8.12756184,10.61642 8.13533569,10.6008306 8.14310954,10.5813437 C8.14310954,10.5813437 8.14310954,10.5774463 8.14310954,10.5774463 L8.14699647,10.5618569 C8.15088339,10.5540621 8.15088339,10.5462674 8.15477032,10.5384726 C8.15477032,10.5384726 8.15477032,10.5345753 8.15477032,10.5345753 C8.15865724,10.5228832 8.15865724,10.5111911 8.16254417,10.499499 C8.16254417,10.4956016 8.16254417,10.4878068 8.15865724,10.4839095 C8.1819788,10.4410384 8.2130742,10.4020647 8.24805654,10.363091 C8.24416961,10.363091 8.24028269,10.3669884 8.23639576,10.3669884 C8.20530035,10.3864752 8.1819788,10.4176542 8.15088339,10.4410384 C8.12756184,10.4605253 8.08091873,10.4293463 8.11201413,10.4059621 C8.13144876,10.3903726 8.14699647,10.3747831 8.16254417,10.3591937 C8.16254417,10.3591937 8.16254417,10.3552963 8.1664311,10.3552963 C8.20530035,10.32022 8.24028269,10.2734515 8.28303887,10.2422726 C8.31024735,10.2227857 8.32968198,10.2071963 8.35300353,10.1877094 C8.35689046,10.183812 8.36077739,10.1799147 8.36466431,10.1799147 C8.38021201,10.1604278 8.39575972,10.140941 8.41519435,10.1214541 C8.41519435,10.1214541 8.41908127,10.1214541 8.41908127,10.1175568 C8.63674912,9.90709882 8.99823322,9.91879093 9.28586572,9.78628038 C9.39858657,9.73951195 9.53462898,9.80966459 9.64734982,9.78628038 C9.71342756,9.78628038 9.78339223,9.78628038 9.84946996,9.83304881 C9.65123675,9.93827778 9.46466431,10.0629936 9.27809187,10.1799147 M9.49187279,6.69566654 C9.51519435,6.69566654 9.56183746,6.69566654 9.56183746,6.71905076 C9.56183746,6.83207447 9.49187279,6.92171396 9.37915194,6.94509818 C9.56183746,6.99186661 9.74063604,6.99186661 9.91943463,7.0815061 C9.89611307,7.12827453 9.85335689,7.10489032 9.83003534,7.10489032 C9.94275618,7.17114559 10.0787986,7.12827453 10.1915194,7.21791402 C10.1215548,7.2841693 10.055477,7.21791402 9.98939929,7.21791402 C10.6890459,7.42057723 11.4353357,7.58036937 12.0222615,8.0324642 C11.524735,8.28189584 11.0038869,8.39491955 10.4636042,8.50794325 C10.3975265,8.50794325 10.3508834,8.50794325 10.2848057,8.48455904 C10.2848057,8.50794325 10.2848057,8.55081432 10.2614841,8.55081432 C10.1720848,8.55081432 10.1021201,8.55081432 10.0360424,8.59758275 C9.94275618,8.64824855 9.80671378,8.67163276 9.74063604,8.60537749 C9.71731449,8.58199327 9.81060071,8.60537749 9.83003534,8.55860906 L9.65123675,8.55860906 C9.62791519,8.55860906 9.62791519,8.53522484 9.62791519,8.51184062 C9.51519435,8.53522484 9.37915194,8.5780959 9.2664311,8.60148012 C9.10706714,8.64824855 8.97102473,8.76127226 8.79222615,8.80414332 C8.5434629,8.89378281 8.34134276,9.10034338 8.06925795,9.18998288 C8.0459364,9.18998288 8.0459364,9.16659866 8.0459364,9.14321445 C8.06925795,9.07695917 8.15865724,9.05357495 8.20530035,8.98342231 C8.20530035,8.96003809 8.20530035,8.93665388 8.1819788,8.93665388 C8.36077739,8.68722224 8.60954064,8.55081432 8.83886926,8.34815111 L8.83886926,8.27799847 C8.904947,8.18835897 9.01766784,8.14159054 9.06431095,8.02856683 C9.08763251,7.96231156 9.1770318,7.86877469 9.28975265,7.82590363 C9.2664311,7.80251942 9.22367491,7.80251942 9.22367491,7.75964835 C9.13427562,7.75964835 9.0409894,7.80641679 8.95159011,7.73626414 C8.99434629,7.69339308 9.0409894,7.67000886 9.09151943,7.65441938 C9.07208481,7.65052201 9.0565371,7.64272728 9.0409894,7.62324043 C9.01766784,7.576472 9.08374558,7.5258062 9.15371025,7.51021672 C9.24310954,7.4868325 9.35583039,7.4868325 9.42579505,7.42057723 C9.2664311,7.39719301 9.08763251,7.46734566 8.92826855,7.3738088 C9.0409894,7.0815061 9.22367491,6.83207447 9.49187279,6.69566654 Z" id="Shape" fill="#000091" fill-rule="nonzero"></path>
                    <path d="M32.9689046,0 L20.1109541,0 C20.1109541,0 20.1342756,0.00390117035 20.2314488,0.0546163849 C20.3363958,0.10923277 20.4724382,0.183355007 20.5540636,0.22626788 C20.7212014,0.312093628 20.8805654,0.421326398 20.9855124,0.589076723 C21.0321555,0.655396619 21.0982332,0.791937581 21.055477,0.881664499 C21.0088339,0.99479844 20.9855124,1.17815345 20.8727915,1.22106632 C20.7367491,1.29128739 20.5579505,1.29128739 20.3985866,1.26788036 C20.3091873,1.26788036 20.219788,1.24447334 20.1265018,1.22106632 C20.4646643,1.35760728 20.7833922,1.51755527 21.0088339,1.83355007 C21.0321555,1.88036411 21.1215548,1.89986996 21.2109541,1.89986996 C21.2342756,1.89986996 21.2342756,1.94668401 21.2342756,1.96618986 C21.1876325,2.0130039 21.1448763,2.03641092 21.1681979,2.10273082 L21.2342756,2.10273082 C21.3469965,2.05591678 21.3236749,1.82964889 21.4830389,1.89986996 C21.5957597,1.96618986 21.6424028,2.12613784 21.5724382,2.23927178 C21.4830389,2.3289987 21.3936396,2.39921977 21.3003534,2.46553966 C21.2770318,2.51235371 21.2770318,2.5786736 21.3003534,2.62548765 C21.3664311,2.71521456 21.3897527,2.80494148 21.4130742,2.89856957 C21.4830389,3.05851756 21.5024735,3.23797139 21.5724382,3.39791938 C21.6618375,3.7373212 21.7512367,4.07672302 21.7318021,4.42002601 C21.7318021,4.59947984 21.6424028,4.75942783 21.7084806,4.94278283 C21.7551237,5.12223667 21.8678445,5.25877763 21.9572438,5.41872562 C22.0466431,5.55526658 22.1360424,5.6449935 22.2060071,5.78153446 C22.3420495,6.00780234 22.5908127,6.23407022 22.4780919,6.50715215 C22.4120141,6.66710013 22.1632509,6.64369311 22.0038869,6.73342003 C21.8678445,6.84655397 21.9805654,7.02990897 22.05053,7.14304291 C22.1632509,7.34590377 21.9144876,7.48244473 21.7551237,7.5526658 C21.8017668,7.62288687 21.8911661,7.59947984 21.9144876,7.64239272 C21.9378092,7.75552666 22.05053,7.82184655 21.9805654,7.93888166 C21.8911661,8.07542263 21.6190813,8.14174252 21.7551237,8.34850455 C21.844523,8.50845254 21.7862191,8.6840052 21.7318021,8.84785436 C21.6657244,9.05071521 21.4830389,9.14044213 21.3236749,9.18725618 C21.1876325,9.23407022 21.0282686,9.23407022 20.8961131,9.2106632 C20.84947,9.18725618 20.8067138,9.16384915 20.7600707,9.16384915 C20.375265,9.11703511 19.9904594,9.00780234 19.6095406,9.00780234 C19.4968198,9.03120936 19.3840989,9.05071521 19.2946996,9.09752926 C19.1936396,9.1716515 19.1003534,9.25357607 19.0226148,9.33940182 C19.0226148,9.33940182 19.0226148,9.33940182 19.0187279,9.34330299 C19.0031802,9.36280884 18.9837456,9.37841352 18.9681979,9.39791938 C18.960424,9.40962289 18.9487633,9.4213264 18.9409894,9.43302991 C18.9332155,9.44083225 18.9293286,9.44863459 18.9215548,9.45643693 C18.855477,9.53836151 18.7971731,9.62808843 18.7427562,9.71781534 C18.7388693,9.72561769 18.7349823,9.72951886 18.7310954,9.73342003 C18.7272085,9.74512354 18.7194346,9.75292588 18.7116608,9.76462939 C18.6378092,9.90117035 18.5833922,10.0416125 18.540636,10.1820546 C18.385159,10.7009103 18.4551237,11.1456437 18.5639576,11.2548765 C18.595053,11.2860858 19.3102473,11.5084525 19.8077739,11.7308192 C20.0409894,11.8361508 20.2042403,11.9141743 20.3402827,12 L32.9650177,12 L32.9650177,0 L32.9689046,0 Z" id="Path" fill="#E1000F" fill-rule="nonzero"></path>
                    <path d="M20.8766784,4.37281553 C20.9660777,4.3961165 21.1021201,4.3961165 21.1021201,4.44271845 C21.055477,4.62135922 20.7872792,4.66796117 20.6512367,4.85048544 L20.5812721,4.85048544 C20.5151943,4.89708738 20.534629,5.00970874 20.4685512,5.00970874 C20.4024735,4.98640777 20.3325088,5.00970874 20.2664311,5.03300971 C20.3558304,5.1223301 20.4685512,5.19223301 20.6045936,5.16893204 C20.6279152,5.16893204 20.6706714,5.21553398 20.6706714,5.25825243 C20.6706714,5.25825243 20.6939929,5.25825243 20.7173145,5.23495146 C20.740636,5.23495146 20.7639576,5.23495146 20.7639576,5.25825243 L20.7639576,5.34757282 C20.6978799,5.4368932 20.5812721,5.39417476 20.4918728,5.41359223 C20.6745583,5.46019417 20.8533569,5.46019417 21.0127208,5.41359223 C21.1487633,5.36699029 21.0127208,5.14174757 21.1021201,5.02912621 C21.055477,5.02912621 21.1021201,4.9592233 21.055477,4.9592233 C21.1021201,4.91262136 21.1448763,4.84660194 21.1915194,4.82330097 C21.2381625,4.82330097 21.3042403,4.8 21.3275618,4.75339806 C21.3275618,4.70679612 21.2381625,4.68737864 21.2575972,4.6407767 C21.3936396,4.55145631 21.5063604,4.41553398 21.4597173,4.27961165 C21.4363958,4.20970874 21.2575972,4.20970874 21.1448763,4.16699029 C21.0321555,4.12427184 20.8961131,4.16699029 20.7600707,4.19029126 C20.6473498,4.19029126 20.534629,4.26019417 20.4219081,4.27961165 C20.2625442,4.32621359 20.1265018,4.41553398 19.9943463,4.50485437 C20.1537102,4.43883495 20.3091873,4.41553398 20.4918728,4.36893204 C20.6279152,4.37281553 20.740636,4.34174757 20.8766784,4.37281553" id="Path" fill="#808080" fill-rule="nonzero"></path>
                </g>
            </g>
        </g>
    </g>
</svg>