<svg width="11" height="12" viewBox="0 0 11 12" fill="none" xmlns="http://www.w3.org/2000/svg">
<path d="M2.66523 1.51735C2.69353 1.99757 3.07836 2.3885 3.57203 2.41125L7.54925 2.59173L0.552978 9.58869C0.178011 9.96366 0.171759 10.5712 0.546289 10.9457L0.629942 11.0201C1.00642 11.3175 1.55512 11.2872 1.90331 10.939L8.89629 3.94584L9.06573 7.94904C9.09045 8.4858 9.54721 8.89288 10.0815 8.8573C10.6078 8.82225 11.0124 8.3703 10.9882 7.84348L10.7268 1.67452L10.7185 1.58707L10.698 1.47826L10.6444 1.33637L10.6188 1.29115L10.5594 1.21358L10.5531 1.19521C10.5286 1.14453 10.4937 1.09409 10.4458 1.04622L10.3397 0.940084L10.2319 0.858215L10.1867 0.832686L10.0522 0.780658L10.0182 0.772886L9.91586 0.757147L3.67786 0.488823C3.15273 0.464625 2.70077 0.869305 2.66572 1.3956L2.66523 1.51735Z" fill="white"/>
</svg>
