<svg xmlns="http://www.w3.org/2000/svg" width="15" height="15" fill="none" viewBox="0 0 15 15">
    <path fill="#000638" fill-rule="evenodd" d="M14.063 13.125s.937 0 .937-.938c0-.937-.938-3.75-4.688-3.75s-4.687 2.813-4.687 3.75c0 .938.938.938.938.938h7.5zm-7.496-.885v-.002.002zm.016-.053h7.459l.013-.001.008-.002c-.002-.248-.157-.966-.713-1.613-.518-.606-1.427-1.196-3.037-1.196-1.61 0-2.52.59-3.038 1.196-.556.647-.712 1.366-.713 1.613l.021.004zm7.475.053v-.002.002zm-3.745-5.678c.497 0 .974-.197 1.325-.549.352-.351.55-.828.55-1.325 0-.498-.198-.975-.55-1.326-.351-.352-.828-.55-1.325-.55-.498 0-.975.198-1.326.55-.352.351-.55.828-.55 1.325 0 .498.198.975.55 1.326.351.352.828.55 1.325.55zm2.812-1.875c0 .37-.073.736-.214 1.077-.141.341-.349.651-.61.912-.26.261-.571.469-.912.61-.341.141-.707.214-1.076.214-.37 0-.736-.073-1.077-.214-.341-.141-.651-.349-.912-.61-.261-.26-.469-.571-.61-.912-.141-.341-.214-.707-.214-1.077 0-.745.296-1.46.824-1.988.527-.528 1.243-.824 1.989-.824.745 0 1.46.296 1.988.824.528.527.824 1.243.824 1.989zM6.503 8.7c-.376-.118-.762-.196-1.154-.232-.22-.02-.44-.03-.662-.03C.938 8.438 0 11.25 0 12.188c0 .625.312.937.938.937H4.89c-.139-.293-.208-.614-.202-.938 0-.946.353-1.914 1.021-2.722.228-.276.494-.533.794-.765zm-1.89.675c-1.564.019-2.452.6-2.963 1.196-.56.65-.712 1.372-.712 1.617H3.75c0-.98.303-1.956.862-2.813zM1.405 5.156c0-.746.297-1.461.824-1.988.527-.528 1.243-.824 1.989-.824s1.461.296 1.988.824c.528.527.824 1.242.824 1.988s-.296 1.462-.824 1.989c-.527.527-1.242.824-1.988.824s-1.462-.297-1.989-.824c-.527-.527-.824-1.243-.824-1.989zM4.22 3.281c-.498 0-.974.198-1.326.55-.352.351-.55.828-.55 1.325 0 .498.198.974.55 1.326.352.352.828.55 1.326.55.497 0 .974-.198 1.326-.55.351-.352.549-.828.549-1.326 0-.497-.198-.974-.55-1.326-.351-.351-.828-.549-1.325-.549z" clip-rule="evenodd"/>
</svg>
