<svg xmlns="http://www.w3.org/2000/svg" width="35" height="35" fill="none" viewBox="0 0 35 35">
    <circle cx="24.316" cy="9.763" r="8.75" fill="#FE5455"/>
    <g clip-path="url(#clip0)">
        <path fill="#000638" fill-rule="evenodd" d="M18.922 29.969s1.64 0 1.64-1.64c0-1.642-1.64-6.563-9.843-6.563S.875 26.688.875 28.328c0 1.64 1.64 1.64 1.64 1.64h16.407zM2.524 28.42v-.003.003zm.028-.092h16.334c.008 0 .015-.002.023-.003l.013-.003c-.002-.404-.253-1.618-1.365-2.73-1.07-1.07-3.083-2.186-6.838-2.186-3.757 0-5.769 1.116-6.838 2.186-1.113 1.112-1.362 2.326-1.365 2.73l.036.006zm16.363.092v-.003.003zm-8.196-9.936c.87 0 1.705-.345 2.32-.96.615-.616.961-1.45.961-2.32 0-.871-.346-1.706-.961-2.321-.615-.615-1.45-.961-2.32-.961-.87 0-1.705.346-2.32.96-.616.616-.961 1.45-.961 2.321 0 .87.345 1.705.96 2.32.616.616 1.45.961 2.32.961zm4.922-3.28c0 1.305-.519 2.556-1.442 3.48-.923.922-2.175 1.441-3.48 1.441-1.306 0-2.558-.519-3.48-1.442-.924-.923-1.442-2.174-1.442-3.48 0-1.305.518-2.557 1.441-3.48s2.175-1.442 3.48-1.442c1.306 0 2.558.519 3.481 1.442.923.923 1.442 2.175 1.442 3.48zm11.245.239c.076.076.137.166.178.266.041.1.063.207.063.314 0 .108-.022.215-.063.315s-.102.19-.178.266l-4.922 4.922c-.077.076-.167.137-.267.178-.1.042-.206.063-.314.063-.108 0-.215-.021-.315-.063-.1-.04-.19-.102-.266-.178l-2.46-2.46c-.155-.155-.241-.364-.241-.582 0-.218.086-.426.24-.58.154-.154.363-.241.58-.241.219 0 .428.087.582.24l1.88 1.882 4.34-4.342c.077-.077.168-.137.267-.179.1-.041.207-.062.315-.062.108 0 .214.02.314.062.1.042.19.102.267.179z" clip-rule="evenodd"/>
    </g>
    <defs>
        <clipPath id="clip0">
            <path fill="#fff" d="M0 0H26.25V26.25H0z" transform="translate(.875 7)"/>
        </clipPath>
    </defs>
</svg>
