<svg xmlns="http://www.w3.org/2000/svg" width="15" height="15" fill="none" viewBox="0 0 15 15">
    <path fill="#000638" fill-rule="evenodd" d="M11.282 3.16h1.136c.917 0 1.656.735 1.656 1.663v5.223c0 .45-.178.886-.506 1.213l-2.122 2.114c-.329.327-.767.504-1.232.504H2.725c-.917 0-1.657-.736-1.657-1.65V4.81c0-.914.74-1.65 1.657-1.65h1.123V2.75c0-.34.287-.627.63-.627h.451c.342 0 .63.286.63.627v.41H9.57v-.41c0-.34.288-.627.63-.627h.452c.342 0 .63.286.63.627v.41zm-9.187 9.067c0 .341.288.628.63.628h7.489c.04 0 .096-.014.137-.028v-1.582c0-.586.479-1.063 1.067-1.063h1.602c.014-.041.028-.082.028-.136v-3.56H2.095v5.741z" clip-rule="evenodd"/>
    <ellipse cx="3.943" cy="8.341" fill="#000638" rx=".726" ry=".723"/>
    <ellipse cx="6.353" cy="8.341" fill="#000638" rx=".726" ry=".723"/>
    <ellipse cx="8.763" cy="8.341" fill="#000638" rx=".726" ry=".723"/>
    <ellipse cx="11.172" cy="8.341" fill="#000638" rx=".726" ry=".723"/>
    <ellipse cx="3.943" cy="10.918" fill="#000638" rx=".726" ry=".723"/>
    <ellipse cx="6.353" cy="10.918" fill="#000638" rx=".726" ry=".723"/>
    <ellipse cx="8.763" cy="10.918" fill="#000638" rx=".726" ry=".723"/>
</svg>
