<svg xmlns="http://www.w3.org/2000/svg" width="36" height="35" fill="none" viewBox="0 0 36 35">
    <circle cx="26.688" cy="10.938" r="8.75" fill="#FE5455"/>
    <g clip-path="url(#clip0)">
        <path fill="#000638" fill-rule="evenodd" d="M10.5 9.406H2.844V14H10.5V9.406zM2.844 7.875c-.406 0-.796.161-1.083.448-.287.288-.448.677-.448 1.083V14c0 .406.16.796.448 1.083.287.287.677.448 1.083.448H10.5c.406 0 .796-.161 1.083-.448.287-.287.448-.677.448-1.083V9.406c0-.406-.161-.795-.448-1.083-.287-.287-.677-.448-1.083-.448H2.844zM24.28 26.25h-7.656v4.594h7.656V26.25zm-7.656-1.531c-.406 0-.796.161-1.083.448-.287.287-.448.677-.448 1.083v4.594c0 .406.161.795.448 1.082.287.288.677.449 1.083.449h7.656c.406 0 .796-.161 1.083-.448.287-.288.448-.677.448-1.083V26.25c0-.406-.16-.796-.448-1.083-.287-.287-.677-.448-1.083-.448h-7.656zM10.5 20.125H2.844v10.719H10.5V20.125zm-7.656-1.531c-.406 0-.796.161-1.083.448-.287.287-.448.677-.448 1.083v10.719c0 .406.16.795.448 1.082.287.288.677.449 1.083.449H10.5c.406 0 .796-.161 1.083-.448.287-.288.448-.677.448-1.083V20.125c0-.406-.161-.796-.448-1.083-.287-.287-.677-.448-1.083-.448H2.844zM24.28 9.406h-7.656v10.719h7.656V9.406zm-7.656-1.531c-.406 0-.796.161-1.083.448-.287.288-.448.677-.448 1.083v10.719c0 .406.161.796.448 1.083.287.287.677.448 1.083.448h7.656c.406 0 .796-.161 1.083-.448.287-.287.448-.677.448-1.083V9.406c0-.406-.16-.795-.448-1.083-.287-.287-.677-.448-1.083-.448h-7.656z" clip-rule="evenodd"/>
    </g>
    <defs>
        <clipPath id="clip0">
            <path fill="#fff" d="M0 0H24.5V24.5H0z" transform="translate(1.313 7.875)"/>
        </clipPath>
    </defs>
</svg>
