<svg width="14" height="16" viewBox="0 0 14 16" fill="none" xmlns="http://www.w3.org/2000/svg">
<path d="M13.5781 7.88623C13.5156 9.14665 13.2031 10.1414 12.6406 10.8706C12.0781 11.5998 11.3255 11.9644 10.3828 11.9644C9.40885 11.9644 8.78385 11.5269 8.50781 10.6519C8.22656 11.0946 7.90365 11.4253 7.53906 11.644C7.17969 11.8576 6.80729 11.9644 6.42188 11.9644C5.68229 11.9644 5.1224 11.6623 4.74219 11.0581C4.36198 10.4539 4.22135 9.618 4.32031 8.55029C4.39844 7.69092 4.59375 6.92529 4.90625 6.25342C5.22396 5.57633 5.63021 5.04508 6.125 4.65967C6.625 4.27425 7.14844 4.08154 7.69531 4.08154C8.11719 4.08154 8.49479 4.13883 8.82812 4.25342C9.16146 4.36279 9.53646 4.58154 9.95312 4.90967L9.54688 9.23779C9.44792 10.4409 9.78125 11.0425 10.5469 11.0425C11.1354 11.0425 11.612 10.7508 11.9766 10.1675C12.3411 9.58415 12.5391 8.82373 12.5703 7.88623C12.6693 5.86019 12.2917 4.31592 11.4375 3.25342C10.5885 2.19092 9.29427 1.65967 7.55469 1.65967C6.50781 1.65967 5.57812 1.92008 4.76562 2.44092C3.95312 2.95654 3.3125 3.70394 2.84375 4.68311C2.375 5.66227 2.11198 6.79248 2.05469 8.07373C1.99219 9.3654 2.14844 10.4878 2.52344 11.4409C2.89844 12.3888 3.46875 13.1128 4.23438 13.6128C5.00521 14.118 5.9349 14.3706 7.02344 14.3706C7.49219 14.3706 7.96094 14.3133 8.42969 14.1987C8.90365 14.0841 9.29688 13.9357 9.60938 13.7534L9.89844 14.6519C9.57552 14.855 9.14583 15.0216 8.60938 15.1519C8.07812 15.2821 7.53906 15.3472 6.99219 15.3472C5.6901 15.3472 4.57031 15.0529 3.63281 14.4644C2.69531 13.881 1.99219 13.0373 1.52344 11.9331C1.0599 10.8341 0.859375 9.54769 0.921875 8.07373C0.984375 6.64144 1.30469 5.35498 1.88281 4.21436C2.46094 3.06852 3.24479 2.18571 4.23438 1.56592C5.22396 0.940918 6.34115 0.628418 7.58594 0.628418C8.88281 0.628418 9.99479 0.920085 10.9219 1.50342C11.849 2.08675 12.5391 2.9279 12.9922 4.02686C13.4453 5.12581 13.6406 6.41227 13.5781 7.88623ZM5.5625 8.55029C5.48958 9.28988 5.55729 9.85758 5.76562 10.2534C5.97917 10.6493 6.3151 10.8472 6.77344 10.8472C7.08594 10.8472 7.38542 10.7144 7.67188 10.4487C7.96354 10.1831 8.20312 9.8029 8.39062 9.30811L8.39844 9.23779L8.75781 5.30811C8.46615 5.15706 8.15365 5.08154 7.82031 5.08154C7.21094 5.08154 6.70573 5.39144 6.30469 6.01123C5.90885 6.63102 5.66146 7.47738 5.5625 8.55029Z" fill="#000638"/>
</svg>
