<svg xmlns="http://www.w3.org/2000/svg" width="15" height="16" fill="none" viewBox="0 0 15 16">
    <path fill="#000638" fill-rule="evenodd" d="M0 12.719c0 .373.148.73.412.994s.621.412.994.412h12.188c.373 0 .73-.148.994-.412s.412-.621.412-.994V7.094h-.938v5.625c0 .124-.049.243-.137.331-.088.088-.207.137-.331.137H1.406c-.124 0-.243-.049-.331-.137-.088-.088-.137-.207-.137-.331V7.094H0v5.625z" clip-rule="evenodd"/>
    <path fill="#000638" fill-rule="evenodd" d="M0 5.219c0-.373.148-.73.412-.995.264-.263.621-.412.994-.412h12.188c.373 0 .73.149.994.412.264.264.412.622.412.995v2.235L7.862 9.357c-.237.063-.487.063-.724 0L0 7.454V5.219zm1.406-.469c-.124 0-.243.05-.331.137-.088.088-.137.207-.137.332v1.515L7.378 8.45c.08.021.163.021.242 0l6.441-1.717V5.219c0-.125-.049-.244-.137-.332-.088-.088-.207-.137-.331-.137H1.406zm3.282-1.406c0-.373.148-.73.411-.995.264-.263.622-.412.995-.412h2.812c.373 0 .73.149.995.412.263.264.412.622.412.995v.469h-.938v-.47c0-.124-.05-.243-.137-.33-.088-.089-.207-.138-.332-.138H6.094c-.125 0-.244.05-.332.137-.088.088-.137.207-.137.332v.469h-.938v-.47z" clip-rule="evenodd"/>
</svg>
