<svg xmlns="http://www.w3.org/2000/svg" width="35" height="35" fill="none" viewBox="0 0 35 35">
    <circle cx="24.938" cy="11.375" r="8.75" fill="#FE5455"/>
    <g fill="#000638" clip-path="url(#clip0)">
        <path fill-rule="evenodd" d="M24.719 9.516H5.03c-.435 0-.852.172-1.16.48-.308.308-.48.725-.48 1.16v13.125c0 .435.172.853.48 1.16.308.308.725.48 1.16.48h4.102c.51 0 1.012.12 1.467.347.456.228.852.559 1.158.966l3.117 4.156 3.117-4.156c.306-.407.702-.738 1.158-.966.455-.227.958-.346 1.467-.346h4.102c.435 0 .852-.173 1.16-.48.307-.308.48-.726.48-1.16V11.155c0-.435-.173-.852-.48-1.16-.308-.308-.725-.48-1.16-.48zM5.03 7.875c-.87 0-1.705.346-2.32.961-.615.615-.961 1.45-.961 2.32v13.125c0 .87.346 1.705.961 2.32.615.616 1.45.962 2.32.962h4.102c.255 0 .506.059.734.173.227.114.425.279.578.483l3.117 4.155c.153.204.352.37.58.483.227.114.478.174.733.174s.506-.06.734-.173c.227-.114.426-.28.579-.483l3.117-4.156c.152-.204.35-.37.579-.483.227-.114.479-.174.733-.174h4.102c.87 0 1.705-.345 2.32-.96.615-.616.961-1.45.961-2.32V11.155c0-.87-.346-1.705-.961-2.32-.615-.615-1.45-.961-2.32-.961H5.03z" clip-rule="evenodd"/>
        <path d="M14.002 17.172c0 1.51-1.273 2.734-2.845 2.734-1.571 0-2.845-1.224-2.845-2.734 0-1.509 1.274-2.735 2.845-2.735 1.572 0 2.845 1.224 2.845 2.735z"/>
        <path fill-rule="evenodd" d="M11.851 15.973c-.027.093-.072.18-.134.255-.06.074-.137.136-.223.181-.085.045-.18.072-.276.08-.097.008-.194-.004-.285-.035-.088-.026-.169-.07-.239-.127-.07-.058-.128-.13-.17-.21-.041-.08-.067-.17-.074-.26-.007-.09.004-.182.033-.268.131-.377.377-.722.783-.896.182-.073.378-.109.575-.105.196.004.39.048.57.128.635.263 1.181.895 1.514 1.636.702 1.555.645 3.9-1.545 6.08-.134.13-.313.205-.5.208-.186.003-.367-.066-.505-.191-.067-.061-.12-.135-.158-.218-.038-.082-.058-.172-.06-.263-.001-.09.015-.18.05-.264.034-.084.086-.16.15-.223 1.794-1.784 1.736-3.54 1.264-4.584-.25-.551-.581-.844-.771-.924h.001z" clip-rule="evenodd"/>
        <path d="M21.114 17.172c0 1.51-1.273 2.734-2.845 2.734-1.57 0-2.844-1.224-2.844-2.734 0-1.509 1.274-2.735 2.844-2.735 1.572 0 2.845 1.224 2.845 2.735z"/>
        <path fill-rule="evenodd" d="M18.963 15.973c-.027.093-.072.18-.134.255-.06.074-.137.136-.223.181-.085.045-.18.072-.276.08-.096.008-.193-.004-.285-.035-.088-.026-.169-.07-.239-.127-.07-.058-.128-.13-.17-.21-.041-.08-.067-.17-.074-.26-.007-.09.004-.182.033-.268.131-.377.378-.722.783-.896.182-.073.378-.109.575-.105.196.004.39.048.57.128.635.263 1.181.895 1.516 1.636.702 1.555.643 3.9-1.546 6.08-.133.131-.312.206-.5.209-.186.003-.367-.066-.505-.192-.068-.061-.122-.135-.16-.218-.037-.082-.057-.172-.059-.263-.001-.09.016-.18.05-.264.034-.084.086-.16.15-.223 1.794-1.784 1.736-3.54 1.264-4.584-.25-.551-.58-.844-.77-.924z" clip-rule="evenodd"/>
    </g>
    <defs>
        <clipPath id="clip0">
            <path fill="#fff" d="M0 0H26.25V26.25H0z" transform="translate(1.75 7.875)"/>
        </clipPath>
    </defs>
</svg>
