<svg xmlns="http://www.w3.org/2000/svg" width="35" height="35" fill="none" viewBox="0 0 35 35">
    <circle cx="24.5" cy="10.5" r="8.75" fill="#FE5455"/>
    <g fill="#000638" clip-path="url(#clip0)">
        <path fill-rule="evenodd" d="M18.05 8.418L15.313 7l-2.738 1.418-3.048.462-1.381 2.756-2.194 2.166.502 3.042-.502 3.041 2.194 2.166 1.381 2.756 3.048.463 2.739 1.418 2.738-1.418 3.048-.463 1.381-2.756 2.194-2.165-.502-3.042.502-3.042-2.194-2.166L21.1 8.88l-3.048-.463zm1.963 1.957l-2.477-.376-2.224-1.152L13.09 10l-2.477.376-1.122 2.24-1.782 1.758.409 2.47-.41 2.471 1.783 1.76 1.122 2.239 2.477.375 2.223 1.152 2.225-1.152 2.476-.375 1.122-2.24 1.782-1.759-.407-2.47.407-2.471-1.782-1.759-1.122-2.24z" clip-rule="evenodd"/>
        <path d="M8.75 26.35v6.9l6.563-1.64 6.562 1.64v-6.9l-3.31.502-3.253 1.683-3.251-1.683-3.311-.503z"/>
    </g>
    <defs>
        <clipPath id="clip0">
            <path fill="#fff" d="M0 0H26.25V26.25H0z" transform="translate(2.188 7)"/>
        </clipPath>
    </defs>
</svg>
