<svg xmlns="http://www.w3.org/2000/svg" width="15" height="15" fill="none" viewBox="0 0 15 15">
    <path fill="#000638" fill-rule="evenodd" d="M14.33.083c.062.044.113.101.148.168.035.067.053.142.053.218V14.53c0 .124-.05.244-.137.332-.088.088-.207.137-.332.137H11.25c-.124 0-.243-.05-.332-.137-.087-.088-.137-.207-.137-.332v-1.406h-.937v1.406c0 .124-.05.244-.138.332-.087.088-.207.137-.331.137H.937c-.124 0-.243-.05-.331-.137-.088-.088-.137-.207-.137-.332V8.906c0-.11.04-.218.111-.303.072-.084.171-.14.28-.159l5.234-.872v-4.29c0-.096.029-.19.083-.268.054-.078.131-.138.22-.172l7.5-2.812c.071-.027.148-.036.223-.026.075.009.147.036.209.08zM7.03 3.606v4.363c0 .11-.04.218-.111.303-.072.084-.171.14-.28.159l-5.234.872v4.76h7.5v-1.407c0-.124.05-.243.138-.331.087-.088.207-.137.331-.137h1.875c.124 0 .243.049.332.137.087.088.137.207.137.331v1.406h1.875V1.146L7.03 3.606z" clip-rule="evenodd"/>
    <path fill="#000638" fill-rule="evenodd" d="M6.094 14.531V7.97h.937v6.562h-.937z" clip-rule="evenodd"/>
    <path fill="#000638" d="M2.344 10.313h.937v.937h-.937v-.938zm1.875 0h.937v.937H4.22v-.938zm-1.875 1.874h.937v.938h-.937v-.938zm1.875 0h.937v.938H4.22v-.938zm5.625-9.374h.937v.937h-.937v-.938zm1.875 0h.937v.937h-.937v-.938zm-3.75 1.874h.937v.938H7.97v-.938zm1.875 0h.937v.938h-.937v-.938zm1.875 0h.937v.938h-.937v-.938zM9.844 6.563h.937V7.5h-.937v-.938zm1.875 0h.937V7.5h-.937v-.938zm-3.75 0h.937V7.5H7.97v-.938zm0 1.875h.937v.938H7.97v-.938zm1.875 0h.937v.938h-.937v-.938zm1.875 0h.937v.938h-.937v-.938zm-3.75 1.876h.937v.937H7.97v-.938zm1.875 0h.937v.937h-.937v-.938zm1.875 0h.937v.937h-.937v-.938z"/>
</svg>
