<svg width="14" height="12" viewBox="0 0 14 12" fill="none" xmlns="http://www.w3.org/2000/svg">
<path d="M0.964286 6.44914L11.9934 6.44914L8.51125 10.2378C8.33945 10.4262 8.35608 10.7154 8.54839 10.8837C8.74071 11.052 9.03588 11.0357 9.20768 10.8473L13.3862 6.29905L13.4211 6.25584L13.4536 6.20581L13.4675 6.15578V6.12167V6.07164C13.4675 6.06026 13.4675 6.04889 13.4675 6.03752C13.4675 6.02615 13.5 6.01706 13.5 5.99431C13.5 5.99431 13.5 5.97385 13.5 5.96248C13.5 5.95111 13.5 5.93974 13.5 5.92836V5.87833V5.84422L13.4861 5.79419L13.4675 5.76463L13.4327 5.71914L9.24018 1.15268C9.06838 0.964287 8.77321 0.947997 8.58089 1.1163C8.38858 1.2846 8.37195 1.57376 8.54375 1.76215L11.9934 5.53949L0.964286 5.53949C0.707868 5.53949 0.5 5.74312 0.5 5.99431C0.5 6.24551 0.707868 6.44914 0.964286 6.44914Z" fill="#F2F2F2" stroke="#F2F2F2"/>
</svg>
