<?xml version="1.0" encoding="UTF-8"?>
<svg width="11px" height="15px" viewBox="0 0 11 15" version="1.1" xmlns="http://www.w3.org/2000/svg" xmlns:xlink="http://www.w3.org/1999/xlink">
    <title>room-24px</title>
    <g id="Symbols" stroke="none" stroke-width="1" fill="none" fill-rule="evenodd">
        <g id="RECHERCHE" transform="translate(-834.000000, -151.000000)" fill="#007BFF" fill-rule="nonzero">
            <g id="room-24px" transform="translate(834.000000, 151.000000)">
                <path d="M5.25,0 C2.3475,0 0,2.3475 0,5.25 C0,9.1875 5.25,15 5.25,15 C5.25,15 10.5,9.1875 10.5,5.25 C10.5,2.3475 8.1525,0 5.25,0 Z M1.5,5.25 C1.5,3.18 3.18,1.5 5.25,1.5 C7.32,1.5 9,3.18 9,5.25 C9,7.41 6.84,10.6425 5.25,12.66 C3.69,10.6575 1.5,7.3875 1.5,5.25 Z" id="Shape"></path>
                <circle id="Oval" cx="5.25" cy="5.25" r="1.875"></circle>
            </g>
        </g>
    </g>
</svg>