<?xml version="1.0" encoding="UTF-8"?>
<svg width="15px" height="15px" viewBox="0 0 15 15" version="1.1" xmlns="http://www.w3.org/2000/svg" xmlns:xlink="http://www.w3.org/1999/xlink">
    <title>search-24px</title>
    <g id="Symbols" stroke="none" stroke-width="1" fill="none" fill-rule="evenodd">
        <g id="RECHERCHE" transform="translate(-981.000000, -151.000000)" fill="#FFFFFF" fill-rule="nonzero">
            <g id="search-24px" transform="translate(981.000000, 151.000000)">
                <path d="M10.4166667,9.16666667 L9.75833333,9.16666667 L9.525,8.94166667 C10.3416667,7.99166667 10.8333333,6.75833333 10.8333333,5.41666667 C10.8333333,2.425 8.40833333,0 5.41666667,0 C2.425,0 0,2.425 0,5.41666667 C0,8.40833333 2.425,10.8333333 5.41666667,10.8333333 C6.75833333,10.8333333 7.99166667,10.3416667 8.94166667,9.525 L9.16666667,9.75833333 L9.16666667,10.4166667 L13.3333333,14.575 L14.575,13.3333333 L10.4166667,9.16666667 Z M5.41666667,9.16666667 C3.34166667,9.16666667 1.66666667,7.49166667 1.66666667,5.41666667 C1.66666667,3.34166667 3.34166667,1.66666667 5.41666667,1.66666667 C7.49166667,1.66666667 9.16666667,3.34166667 9.16666667,5.41666667 C9.16666667,7.49166667 7.49166667,9.16666667 5.41666667,9.16666667 Z" id="Shape"></path>
            </g>
        </g>
    </g>
</svg>