<?xml version="1.0" standalone="no"?>
<!DOCTYPE svg PUBLIC "-//W3C//DTD SVG 20010904//EN"
 "http://www.w3.org/TR/2001/REC-SVG-20010904/DTD/svg10.dtd">
<svg version="1.0" xmlns="http://www.w3.org/2000/svg"
 width="260.000000pt" height="260.000000pt" viewBox="0 0 260.000000 260.000000"
 preserveAspectRatio="xMidYMid meet">
<metadata>
Created by potrace 1.11, written by Peter Selinger 2001-2013
</metadata>
<g transform="translate(0.000000,260.000000) scale(0.100000,-0.100000)"
fill="#000000" stroke="none">
<path d="M1128 2262 c-10 -2 -18 -8 -18 -13 0 -6 -5 -7 -10 -4 -6 4 -17 1 -25
-5 -12 -10 -15 -10 -15 0 0 10 -3 10 -15 0 -8 -7 -15 -9 -15 -4 0 5 -4 3 -8
-4 -5 -7 -22 -14 -39 -15 -17 -1 -31 -6 -30 -11 2 -8 -20 -16 -50 -18 -7 -1
-10 -5 -7 -10 3 -4 -2 -8 -10 -8 -9 0 -16 -5 -16 -11 0 -6 -7 -9 -15 -5 -9 3
-15 0 -15 -10 0 -8 -4 -13 -8 -10 -5 3 -23 -8 -40 -24 -18 -16 -32 -26 -32
-23 0 3 -14 -10 -31 -28 -17 -19 -28 -27 -25 -19 4 8 -1 4 -11 -10 -10 -14
-33 -41 -53 -59 -19 -19 -26 -29 -15 -21 11 7 5 -1 -12 -17 -18 -17 -30 -33
-26 -37 3 -3 1 -6 -6 -6 -7 0 -9 -4 -6 -10 3 -5 -1 -10 -10 -10 -11 0 -15 -5
-11 -15 3 -8 1 -15 -5 -15 -12 0 -39 -61 -33 -72 3 -4 -1 -5 -9 -2 -10 3 -14
-2 -13 -18 1 -13 -6 -34 -16 -47 -10 -13 -15 -27 -12 -32 3 -5 0 -9 -6 -9 -6
0 -8 -4 -5 -10 3 -5 2 -10 -4 -10 -6 0 -8 -7 -4 -15 3 -9 -3 -25 -13 -37 -11
-12 -13 -18 -6 -14 6 4 12 2 12 -3 0 -6 -5 -11 -12 -11 -6 0 -8 -3 -5 -7 4 -3
1 -13 -6 -21 -9 -13 -9 -14 1 -8 15 9 16 -6 0 -22 -17 -17 -22 -365 -5 -355 8
4 7 1 -1 -9 -9 -11 -10 -18 -2 -23 5 -3 10 -11 10 -16 0 -6 -4 -8 -9 -5 -5 3
-3 -11 5 -32 7 -20 13 -46 14 -57 0 -12 6 -27 13 -34 10 -11 9 -12 -3 -6 -12
6 -13 5 -2 -6 6 -7 12 -21 12 -31 0 -10 5 -18 10 -18 6 0 10 -12 10 -26 0 -14
7 -32 16 -41 8 -9 13 -22 10 -30 -4 -9 1 -17 14 -20 16 -4 18 -9 8 -27 -6 -11
-7 -18 -3 -14 10 10 38 -19 30 -32 -3 -5 0 -10 8 -10 14 0 31 -34 28 -54 -1
-5 5 -6 14 -2 9 3 14 2 11 -2 -3 -5 12 -27 33 -50 21 -23 36 -44 33 -47 -3 -3
0 -5 6 -5 7 0 28 -16 49 -35 20 -19 41 -31 46 -28 6 3 7 1 4 -4 -4 -6 1 -17
10 -24 14 -12 16 -12 9 1 -4 9 -2 8 7 -2 8 -10 17 -15 20 -11 4 3 7 -1 7 -9 0
-10 7 -15 18 -14 9 2 24 -5 32 -14 8 -9 23 -16 33 -14 10 1 17 -4 17 -13 0 -9
6 -13 14 -10 7 3 23 -1 35 -9 12 -8 36 -16 55 -17 19 -1 32 -5 30 -8 -2 -4 3
-9 11 -13 8 -3 15 0 15 6 0 7 4 7 13 1 6 -6 22 -9 34 -8 12 1 20 -1 18 -5 -4
-6 23 -9 135 -15 25 -1 50 2 57 7 6 5 14 5 17 0 4 -7 95 -8 104 -2 1 2 6 3 11
4 5 0 13 4 17 8 4 4 13 3 21 -3 10 -9 13 -8 13 1 0 7 7 10 15 6 10 -3 15 1 15
11 0 14 2 14 15 -3 8 -10 14 -13 13 -5 -2 7 8 15 22 17 13 3 27 9 31 15 4 8 8
7 12 -2 4 -11 6 -11 6 -1 1 7 6 10 11 7 6 -3 10 -1 10 4 0 6 9 11 20 11 11 0
20 5 20 10 0 6 3 9 8 8 4 -2 25 8 47 21 22 14 43 24 47 23 4 -1 10 8 13 19 6
17 9 18 23 7 10 -9 13 -9 9 -1 -5 7 1 17 13 23 11 6 18 15 15 20 -3 5 6 12 20
16 13 3 23 10 20 14 -3 4 2 11 11 14 8 3 12 10 9 16 -3 5 1 10 9 10 9 0 16 5
16 11 0 6 7 17 15 26 8 8 13 19 10 24 -4 5 -1 9 6 9 8 0 8 4 -1 15 -7 8 -9 15
-5 15 5 0 -2 9 -15 20 -13 11 -19 20 -15 20 4 0 0 10 -11 22 -10 12 -13 18 -5
13 10 -5 12 -4 7 3 -4 7 -14 12 -22 12 -8 0 -13 4 -10 9 3 4 -3 19 -14 31 -11
12 -17 27 -14 31 3 5 -2 9 -11 9 -9 0 -13 5 -10 10 3 6 1 10 -4 10 -6 0 -11 6
-11 13 0 7 -9 23 -20 35 -11 12 -20 26 -20 32 0 5 -5 10 -11 10 -6 0 -9 7 -6
14 4 10 1 13 -8 9 -8 -3 -18 2 -21 11 -5 14 -9 14 -32 2 -15 -8 -34 -23 -43
-33 -21 -23 -57 -53 -66 -53 -3 0 -12 -8 -20 -17 -8 -10 -11 -12 -8 -4 5 9 -1
8 -19 -4 -14 -10 -26 -21 -26 -26 0 -5 -7 -5 -17 -2 -12 5 -14 3 -8 -7 5 -9 4
-11 -4 -6 -6 4 -18 2 -26 -4 -8 -6 -19 -9 -25 -5 -5 3 -10 2 -10 -4 0 -6 -7
-7 -17 -4 -9 4 -14 2 -10 -3 3 -6 -32 -11 -95 -13 -58 -1 -98 1 -94 7 3 5 -1
9 -9 9 -8 0 -12 -4 -9 -9 3 -4 0 -8 -5 -8 -6 0 -11 7 -11 16 0 8 -5 12 -11 8
-10 -6 -55 11 -69 26 -13 13 -66 44 -72 42 -5 -1 -7 1 -6 6 2 4 -10 19 -25 35
-16 15 -25 32 -21 39 4 7 3 8 -4 4 -7 -4 -12 -2 -12 4 0 6 -7 18 -16 27 -8 9
-13 22 -10 30 3 7 -1 16 -10 20 -8 3 -13 12 -10 19 3 8 1 14 -4 14 -6 0 -9 3
-9 8 3 19 -2 43 -8 39 -5 -3 -8 19 -8 49 0 30 -4 54 -10 54 -5 0 -3 5 5 10 11
7 11 10 2 10 -9 0 -10 5 -2 19 7 14 7 22 -1 27 -8 4 -7 9 2 15 12 8 12 10 0
18 -8 5 -9 11 -3 15 5 3 8 19 7 36 -1 17 2 33 8 37 6 4 7 1 2 -7 -5 -9 -4 -11
4 -6 9 6 9 11 0 22 -9 11 -9 14 0 14 7 0 10 4 6 9 -3 5 -1 12 5 16 6 4 8 10 5
15 -3 5 2 16 11 24 8 9 13 16 9 16 -3 0 2 13 11 29 10 17 22 27 27 24 6 -3 8
-2 4 3 -3 5 1 20 9 34 7 14 13 21 14 16 0 -5 9 3 21 18 11 14 24 24 29 21 4
-3 10 5 13 16 3 12 10 18 16 14 6 -3 18 1 27 9 9 9 19 14 24 11 4 -3 10 2 13
10 4 8 15 12 26 10 11 -2 23 0 26 6 4 5 11 9 16 9 6 0 7 -5 3 -12 -4 -6 3 -4
15 5 13 8 30 13 38 10 8 -3 19 0 24 8 5 8 9 9 9 2 0 -6 13 -10 30 -9 21 2 30
-2 31 -13 0 -12 2 -11 8 3 6 16 9 17 13 4 4 -10 17 -14 42 -13 21 2 34 -2 33
-8 -2 -10 3 -13 36 -16 7 0 22 -9 33 -18 11 -10 26 -19 34 -21 8 -2 22 -11 31
-22 9 -11 19 -16 23 -13 3 3 8 -2 12 -11 3 -9 12 -16 19 -16 8 0 17 -9 20 -20
3 -11 17 -23 31 -26 13 -3 22 -9 20 -13 -3 -4 4 -7 14 -7 10 0 16 4 14 8 -3 4
5 12 16 18 11 6 20 17 20 24 0 8 7 17 16 20 8 3 12 10 9 16 -3 5 -1 10 4 10 6
0 10 6 8 13 -1 6 3 11 10 10 7 -2 10 4 7 12 -4 8 -1 15 5 15 6 0 11 7 11 15 0
9 7 18 16 22 13 5 13 7 2 14 -10 7 -10 9 0 9 6 0 12 7 12 15 0 8 4 15 9 15 5
0 11 10 15 23 8 32 8 31 24 43 8 6 12 16 8 22 -4 8 0 12 11 12 15 0 16 2 3 10
-8 5 -10 10 -4 10 19 0 12 64 -8 78 -10 7 -16 18 -13 23 4 5 1 9 -5 9 -7 0
-25 14 -41 31 -16 17 -29 28 -29 25 0 -4 -6 -1 -14 6 -8 7 -11 17 -8 22 3 5 0
6 -6 2 -7 -4 -22 2 -34 13 -12 12 -30 21 -41 21 -13 0 -17 5 -14 14 4 10 1 13
-9 9 -7 -3 -14 0 -14 6 0 6 -5 11 -11 11 -5 0 -7 -6 -3 -12 4 -7 -2 -4 -14 6
-12 11 -22 15 -22 10 0 -5 -5 -2 -10 6 -5 8 -15 15 -22 16 -7 0 -21 2 -30 2
-9 1 -24 9 -32 18 -12 12 -16 12 -16 2 0 -10 -3 -9 -10 2 -8 12 -10 12 -10 1
0 -11 -3 -11 -15 -1 -8 6 -19 9 -25 5 -5 -3 -10 2 -11 12 0 10 -3 13 -6 6 -6
-15 -33 -17 -33 -3 0 12 -22 9 -32 -5 -5 -6 -8 -6 -8 1 0 15 -277 16 -286 2
-4 -6 -9 -6 -13 -1 -3 5 -14 7 -23 5z m327 -1942 c3 -6 -1 -7 -9 -4 -18 7 -21
14 -7 14 6 0 13 -4 16 -10z"/>
</g>
</svg>
